<?xml version="1.0" encoding="UTF-8" standalone="no"?>
<!-- Created with Inkscape (http://www.inkscape.org/) -->

<svg
   width="210mm"
   height="297mm"
   viewBox="0 0 210 297"
   version="1.1"
   id="svg10862"
   sodipodi:docname="PicardTau.svg"
   inkscape:version="1.2.2 (1:1.2.2+202212051552+b0a8486541)"
   inkscape:export-filename="PicardTau.pdf"
   inkscape:export-xdpi="96"
   inkscape:export-ydpi="96"
   xmlns:inkscape="http://www.inkscape.org/namespaces/inkscape"
   xmlns:sodipodi="http://sodipodi.sourceforge.net/DTD/sodipodi-0.dtd"
   xmlns="http://www.w3.org/2000/svg"
   xmlns:svg="http://www.w3.org/2000/svg">
  <sodipodi:namedview
     id="namedview10864"
     pagecolor="#ffffff"
     bordercolor="#000000"
     borderopacity="0.25"
     inkscape:showpageshadow="2"
     inkscape:pageopacity="0.0"
     inkscape:pagecheckerboard="0"
     inkscape:deskcolor="#d1d1d1"
     inkscape:document-units="mm"
     showgrid="false"
     inkscape:zoom="3.0546608"
     inkscape:cx="292.99489"
     inkscape:cy="302.32489"
     inkscape:window-width="1846"
     inkscape:window-height="1016"
     inkscape:window-x="1154"
     inkscape:window-y="27"
     inkscape:window-maximized="1"
     inkscape:current-layer="g1286" />
  <defs
     id="defs10859">
    <marker
       style="overflow:visible"
       id="TriangleStart"
       refX="0"
       refY="0"
       orient="auto-start-reverse"
       inkscape:stockid="TriangleStart"
       markerWidth="4"
       markerHeight="4.8000002"
       viewBox="0 0 5.3244081 6.1553851"
       inkscape:isstock="true"
       inkscape:collect="always"
       preserveAspectRatio="xMidYMid">
      <path
         transform="scale(0.5)"
         style="fill:context-stroke;fill-rule:evenodd;stroke:context-stroke;stroke-width:1pt"
         d="M 5.77,0 -2.88,5 V -5 Z"
         id="path135" />
    </marker>
    <inkscape:path-effect
       effect="bspline"
       id="path-effect11307"
       is_visible="true"
       lpeversion="1"
       weight="33.333333"
       steps="2"
       helper_size="0"
       apply_no_weight="true"
       apply_with_weight="true"
       only_selected="false" />
    <inkscape:path-effect
       effect="bspline"
       id="path-effect11203"
       is_visible="true"
       lpeversion="1"
       weight="33.333333"
       steps="2"
       helper_size="0"
       apply_no_weight="true"
       apply_with_weight="true"
       only_selected="false" />
    <marker
       style="overflow:visible"
       id="Arrow2-3"
       refX="0"
       refY="0"
       orient="auto-start-reverse"
       inkscape:stockid="Arrow2"
       markerWidth="7.6999998"
       markerHeight="5.5999999"
       viewBox="0 0 7.7 5.6"
       inkscape:isstock="true"
       inkscape:collect="always"
       preserveAspectRatio="xMidYMid">
      <path
         transform="scale(0.7)"
         d="M -2,-4 9,0 -2,4 c 2,-2.33 2,-5.66 0,-8 z"
         style="fill:context-stroke;fill-rule:evenodd;stroke:none"
         id="arrow2L-6" />
    </marker>
    <marker
       style="overflow:visible"
       id="marker1584-7"
       refX="0"
       refY="0"
       orient="auto-start-reverse"
       inkscape:stockid="Arrow2"
       markerWidth="7.6999998"
       markerHeight="5.5999999"
       viewBox="0 0 7.7 5.6"
       inkscape:isstock="true"
       inkscape:collect="always"
       preserveAspectRatio="xMidYMid">
      <path
         transform="scale(0.7)"
         d="M -2,-4 9,0 -2,4 c 2,-2.33 2,-5.66 0,-8 z"
         style="fill:context-stroke;fill-rule:evenodd;stroke:none"
         id="path1582-5" />
    </marker>
    <inkscape:path-effect
       effect="bspline"
       id="path-effect11307-2"
       is_visible="true"
       lpeversion="1"
       weight="33.333333"
       steps="2"
       helper_size="0"
       apply_no_weight="true"
       apply_with_weight="true"
       only_selected="false" />
    <marker
       style="overflow:visible"
       id="TriangleStart-0"
       refX="0"
       refY="0"
       orient="auto-start-reverse"
       inkscape:stockid="TriangleStart"
       markerWidth="4"
       markerHeight="4.8000002"
       viewBox="0 0 5.3244081 6.1553851"
       inkscape:isstock="true"
       inkscape:collect="always"
       preserveAspectRatio="xMidYMid">
      <path
         transform="scale(0.5)"
         style="fill:context-stroke;fill-rule:evenodd;stroke:context-stroke;stroke-width:1pt"
         d="M 5.77,0 -2.88,5 V -5 Z"
         id="path135-9" />
    </marker>
  </defs>
  <g
     inkscape:label="Layer 1"
     inkscape:groupmode="layer"
     id="layer1">
    <g
       id="g1286"
       transform="matrix(1 0 0 0.903444 0 6.75511)">
      <rect
         style="fill:#ffe4f3;stroke:none;stroke-width:0.290793;stroke-linecap:round;stroke-linejoin:round"
         id="rect7377"
         width="3.8062055"
         height="36.756886"
         x="56.103653"
         y="69.98658" />
      <rect
         style="fill:#faf5e3;stroke:none;stroke-width:0.520688;stroke-linecap:round;stroke-linejoin:round"
         id="rect7377-7"
         width="12.20336"
         height="36.756886"
         x="60.461422"
         y="70.021683" />
      <rect
         style="fill:#faf5e3;stroke:none;stroke-width:0.524416;stroke-linecap:round;stroke-linejoin:round"
         id="rect7377-7-3"
         width="12.378724"
         height="36.756886"
         x="85.628609"
         y="69.960709" />
      <rect
         style="fill:#ffe4f3;stroke:none;stroke-width:0.40525;stroke-linecap:round;stroke-linejoin:round"
         id="rect7377-6"
         width="7.3921905"
         height="36.756886"
         x="77.655434"
         y="70.036247" />
      <g
         inkscape:label=""
         transform="matrix(1,0,0,1.10688,63.935155,75.149855)"
         id="g525">
        <g
           id="surface1"
           transform="matrix(0.529167,0,0,0.529167,-48.7842,-41.0983)">
          <g
             style="fill:#000000;fill-opacity:1"
             id="g26">
            <g
               id="use24"
               transform="translate(91.925003,81.962997)">
              <path
                 style="stroke:none"
                 d="m 2.9375,-3.71875 h 1.671875 c 0.125,0 0.484375,0 0.484375,-0.34375 0,-0.234375 -0.203125,-0.234375 -0.40625,-0.234375 H 1.90625 c -0.203125,0 -0.59375,0 -1.03125,0.46875 -0.328125,0.359375 -0.609375,0.84375 -0.609375,0.890625 0,0.015625 0,0.109375 0.125,0.109375 0.078125,0 0.09375,-0.046875 0.15625,-0.125 C 1.03125,-3.71875 1.609375,-3.71875 1.8125,-3.71875 h 0.828125 l -0.96875,3.203125 C 1.625,-0.40625 1.5625,-0.1875 1.5625,-0.15625 c 0,0.109375 0.078125,0.28125 0.296875,0.28125 0.328125,0 0.375,-0.28125 0.40625,-0.4375 z m 0,0"
                 id="path43" />
            </g>
          </g>
          <g
             style="fill:#000000;fill-opacity:1"
             id="g30">
            <g
               id="use28"
               transform="translate(96.066002,83.457001)">
              <path
                 style="stroke:none"
                 d="m 1.796875,-3.53125 c 0.546875,-0.390625 0.96875,-0.6875 1.109375,-0.796875 0.109375,-0.0625 0.171875,-0.125 0.171875,-0.25 0,-0.125 -0.125,-0.28125 -0.296875,-0.28125 -0.109375,0 -0.15625,0.0625 -0.234375,0.140625 l -0.90625,1.015625 z m 0,0"
                 id="path47" />
            </g>
          </g>
          <g
             style="fill:#000000;fill-opacity:1"
             id="g36">
            <g
               id="use32"
               transform="translate(96.278702,83.457001)">
              <path
                 style="stroke:none"
                 d="m 3.0625,-1.59375 c 0.15625,0 0.203125,0 0.203125,-0.140625 0,-0.625 -0.34375,-1.375 -1.390625,-1.375 -0.90625,0 -1.609375,0.71875 -1.609375,1.578125 0,0.890625 0.78125,1.59375 1.703125,1.59375 0.9375,0 1.296875,-0.75 1.296875,-0.90625 0,-0.015625 -0.015625,-0.09375 -0.125,-0.09375 -0.09375,0 -0.109375,0.046875 -0.125,0.109375 -0.21875,0.5625 -0.75,0.671875 -1,0.671875 C 1.6875,-0.15625 1.375,-0.296875 1.171875,-0.5625 0.90625,-0.890625 0.90625,-1.3125 0.90625,-1.59375 Z M 0.90625,-1.765625 C 0.984375,-2.75 1.609375,-2.90625 1.875,-2.90625 c 0.859375,0 0.890625,0.96875 0.90625,1.140625 z m 0,0"
                 id="path51" />
            </g>
            <g
               id="use34"
               transform="translate(99.820694,83.457001)">
              <path
                 style="stroke:none"
                 d="m 1.4375,-4.84375 -1.046875,0.078125 v 0.25 c 0.46875,0 0.515625,0.0625 0.515625,0.390625 v 3.578125 C 0.90625,-0.25 0.84375,-0.25 0.390625,-0.25 V 0 c 0.015625,0 0.5,-0.03125 0.78125,-0.03125 0.265625,0 0.515625,0.015625 0.78125,0.03125 V -0.25 C 1.5,-0.25 1.4375,-0.25 1.4375,-0.546875 Z m 0,0"
                 id="path55" />
            </g>
          </g>
        </g>
      </g>
      <g
         inkscape:label=""
         transform="matrix(1,0,0,1.10688,78.610082,92.246685)"
         id="g733">
        <g
           id="g731"
           transform="matrix(0.529167,0,0,0.529167,-48.7842,-41.0983)">
          <g
             style="fill:#000000;fill-opacity:1"
             id="g23">
            <g
               id="use21"
               transform="translate(91.925003,81.962997)">
              <path
                 style="stroke:none"
                 d="m 2.9375,-3.71875 h 1.671875 c 0.125,0 0.484375,0 0.484375,-0.34375 0,-0.234375 -0.203125,-0.234375 -0.40625,-0.234375 H 1.90625 c -0.203125,0 -0.59375,0 -1.03125,0.46875 -0.328125,0.359375 -0.609375,0.84375 -0.609375,0.890625 0,0.015625 0,0.109375 0.125,0.109375 0.078125,0 0.09375,-0.046875 0.15625,-0.125 C 1.03125,-3.71875 1.609375,-3.71875 1.8125,-3.71875 h 0.828125 l -0.96875,3.203125 C 1.625,-0.40625 1.5625,-0.1875 1.5625,-0.15625 c 0,0.109375 0.078125,0.28125 0.296875,0.28125 0.328125,0 0.375,-0.28125 0.40625,-0.4375 z m 0,0"
                 id="path36" />
            </g>
          </g>
          <g
             style="fill:#000000;fill-opacity:1"
             id="g29">
            <g
               id="use25"
               transform="translate(96.279999,83.457001)">
              <path
                 style="stroke:none"
                 d="m 1.9375,1.09375 c -0.453125,0 -0.515625,0 -0.515625,-0.296875 v -1.125 C 1.453125,-0.296875 1.78125,0.0625 2.359375,0.0625 3.28125,0.0625 4.0625,-0.625 4.0625,-1.5 c 0,-0.859375 -0.703125,-1.578125 -1.59375,-1.578125 -0.390625,0 -0.796875,0.15625 -1.078125,0.4375 v -0.4375 L 0.34375,-3 v 0.25 c 0.484375,0 0.515625,0.046875 0.515625,0.328125 v 3.21875 c 0,0.296875 -0.0625,0.296875 -0.515625,0.296875 v 0.265625 c 0.015625,0 0.5,-0.03125 0.796875,-0.03125 0.25,0 0.734375,0.015625 0.796875,0.03125 z M 1.421875,-2.328125 C 1.625,-2.671875 2.03125,-2.84375 2.390625,-2.84375 c 0.59375,0 1.046875,0.609375 1.046875,1.34375 0,0.796875 -0.53125,1.375 -1.109375,1.375 -0.625,0 -0.890625,-0.53125 -0.90625,-0.578125 z m 0,0"
                 id="path40" />
            </g>
            <g
               id="use27"
               transform="translate(100.68047,83.457001)">
              <path
                 style="stroke:none"
                 d="m 1.4375,-4.84375 -1.046875,0.078125 v 0.25 c 0.46875,0 0.515625,0.0625 0.515625,0.390625 v 3.578125 C 0.90625,-0.25 0.84375,-0.25 0.390625,-0.25 V 0 c 0.015625,0 0.5,-0.03125 0.78125,-0.03125 0.265625,0 0.515625,0.015625 0.78125,0.03125 V -0.25 C 1.5,-0.25 1.4375,-0.25 1.4375,-0.546875 Z m 0,0"
                 id="path44" />
            </g>
          </g>
        </g>
      </g>
    </g>
    <path
       style="fill:none;stroke:#000000;stroke-width:0.600001;stroke-linecap:round;stroke-linejoin:round;stroke-dasharray:0.60000098, 1.80000293;stroke-dashoffset:0;stroke-opacity:1.0"
       d="M 48.587694,84.365334 H 105.52269"
       id="path11742" />
    <path
       style="fill:none;stroke:#000000;stroke-width:0.523683;stroke-linejoin:round;stroke-dasharray:none;stroke-opacity:1;marker-start:url(#Arrow2-3);marker-end:url(#marker1584-7)"
       d="M 46.039274,73.334426 V 103.06269 H 109.91179"
       id="path1327-3"
       sodipodi:nodetypes="ccc" />
    <g
       inkscape:label=""
       transform="translate(39.711702,68.486467)"
       id="g11119">
      <g
         id="g536"
         transform="matrix(0.529167,0,0,0.529167,-48.8421,-41.0983)">
        <g
           style="fill:#000000;fill-opacity:1"
           id="g20">
          <g
             id="use18"
             transform="translate(91.925003,81.962997)">
            <path
               style="stroke:none"
               d="m 5.15625,-3.71875 c 0.140625,0 0.5,0 0.5,-0.34375 0,-0.234375 -0.21875,-0.234375 -0.390625,-0.234375 h -2.28125 c -1.5,0 -2.609375,1.640625 -2.609375,2.828125 0,0.875 0.59375,1.578125 1.5,1.578125 1.171875,0 2.5,-1.203125 2.5,-2.734375 0,-0.171875 0,-0.65625 -0.3125,-1.09375 z M 1.890625,-0.109375 C 1.390625,-0.109375 1,-0.46875 1,-1.1875 c 0,-0.296875 0.109375,-1.109375 0.46875,-1.703125 0.421875,-0.6875 1.015625,-0.828125 1.359375,-0.828125 0.828125,0 0.90625,0.65625 0.90625,0.96875 0,0.46875 -0.203125,1.28125 -0.53125,1.796875 -0.390625,0.578125 -0.9375,0.84375 -1.3125,0.84375 z m 0,0"
               id="path31" />
          </g>
        </g>
        <g
           style="fill:#000000;fill-opacity:1"
           id="g24">
          <g
             id="use22"
             transform="translate(97.617996,83.457001)">
            <path
               style="stroke:none"
               d="m 2.265625,-4.359375 c 0,-0.109375 -0.09375,-0.265625 -0.28125,-0.265625 -0.1875,0 -0.390625,0.1875 -0.390625,0.390625 0,0.109375 0.078125,0.265625 0.28125,0.265625 0.1875,0 0.390625,-0.203125 0.390625,-0.390625 z M 0.84375,-0.8125 c -0.03125,0.09375 -0.0625,0.171875 -0.0625,0.296875 0,0.328125 0.265625,0.578125 0.65625,0.578125 0.6875,0 1,-0.953125 1,-1.0625 0,-0.09375 -0.09375,-0.09375 -0.109375,-0.09375 -0.09375,0 -0.109375,0.046875 -0.140625,0.125 -0.15625,0.5625 -0.453125,0.84375 -0.734375,0.84375 -0.140625,0 -0.171875,-0.09375 -0.171875,-0.25 0,-0.15625 0.046875,-0.28125 0.109375,-0.4375 C 1.46875,-1 1.546875,-1.1875 1.609375,-1.375 1.671875,-1.546875 1.9375,-2.171875 1.953125,-2.265625 1.984375,-2.328125 2,-2.40625 2,-2.484375 2,-2.8125 1.71875,-3.078125 1.34375,-3.078125 0.640625,-3.078125 0.328125,-2.125 0.328125,-2 c 0,0.078125 0.09375,0.078125 0.125,0.078125 0.09375,0 0.09375,-0.03125 0.125,-0.109375 C 0.75,-2.625 1.0625,-2.875 1.3125,-2.875 c 0.109375,0 0.171875,0.046875 0.171875,0.234375 0,0.171875 -0.03125,0.265625 -0.203125,0.703125 z m 0,0"
               id="path35" />
          </g>
        </g>
      </g>
    </g>
    <g
       inkscape:label=""
       transform="translate(112.4007,104.78007)"
       id="g11180">
      <g
         id="g11178"
         transform="matrix(0.529167,0,0,0.529167,-48.7677,-40.0731)">
        <g
           style="fill:#000000;fill-opacity:1"
           id="g14">
          <g
             id="use12"
             transform="translate(91.925003,81.962997)">
            <path
               style="stroke:none"
               d="m 2.046875,-3.984375 h 0.9375 c 0.203125,0 0.3125,0 0.3125,-0.203125 0,-0.109375 -0.109375,-0.109375 -0.28125,-0.109375 h -0.875 C 2.5,-5.71875 2.546875,-5.90625 2.546875,-5.96875 c 0,-0.171875 -0.125,-0.265625 -0.296875,-0.265625 -0.03125,0 -0.3125,0 -0.390625,0.359375 L 1.46875,-4.296875 h -0.9375 c -0.203125,0 -0.296875,0 -0.296875,0.1875 0,0.125 0.078125,0.125 0.28125,0.125 h 0.875 C 0.671875,-1.15625 0.625,-0.984375 0.625,-0.8125 0.625,-0.265625 1,0.109375 1.546875,0.109375 2.5625,0.109375 3.125,-1.34375 3.125,-1.421875 3.125,-1.53125 3.046875,-1.53125 3.015625,-1.53125 2.921875,-1.53125 2.90625,-1.5 2.859375,-1.390625 2.4375,-0.34375 1.90625,-0.109375 1.5625,-0.109375 c -0.203125,0 -0.3125,-0.125 -0.3125,-0.453125 0,-0.25 0.03125,-0.3125 0.0625,-0.484375 z m 0,0"
               id="path21" />
          </g>
        </g>
      </g>
    </g>
    <path
       style="fill:none;stroke:#a5324b;stroke-width:0.600001;stroke-linecap:round;stroke-linejoin:round"
       d="M 48.587694,97.065342 60.102138,77.121741"
       id="path11303" />
    <path
       style="fill:none;stroke:#a5324b;stroke-width:0.600001;stroke-linecap:round;stroke-linejoin:round"
       d="m 60.102138,77.121741 c 0.573055,2.460045 1.146039,4.919784 2.2921,7.135247 1.146061,2.215463 2.864957,4.1866 4.670352,5.588986 1.805396,1.402386 3.697109,2.236088 5.58854,3.069667"
       id="path11305"
       inkscape:path-effect="#path-effect11307"
       inkscape:original-d="m 60.102138,77.121741 c 0.573246,2.460001 1.146231,4.919739 1.71895,7.379213 1.719228,1.971482 3.438126,3.942617 5.156793,5.91353 1.892051,0.833999 3.783764,1.667701 5.675249,2.501157" />
    <path
       style="fill:none;stroke:#a5324b;stroke-width:0.6;stroke-linecap:round;stroke-linejoin:round;stroke-dasharray:none"
       d="m 85.35037,70.923374 c 0.963385,4.135676 1.926649,8.270835 3.853335,11.995334 1.926687,3.724499 4.816389,7.038253 7.851508,9.395856 3.035117,2.357604 6.215347,3.759173 9.395107,5.160534"
       id="path11305-7"
       inkscape:path-effect="#path-effect11307-2"
       inkscape:original-d="m 85.35037,70.923374 c 0.963705,4.135601 1.926972,8.27076 2.889792,12.405475 2.890259,3.314333 5.779965,6.628083 8.66928,9.941459 3.180798,1.402068 6.361028,2.803636 9.540878,4.20479" />
    <path
       style="fill:none;stroke:#a5324b;stroke-width:0.600001;stroke-linecap:round;stroke-linejoin:round"
       d="M 72.65313,92.915641 85.35037,70.923374"
       id="path11321" />
    <ellipse
       style="fill:#000000;fill-opacity:1;stroke:none;stroke-width:0.767656;stroke-linecap:round;stroke-linejoin:round;stroke-dasharray:0.767656, 2.30296;stroke-dashoffset:0"
       id="path12546"
       cx="46.042042"
       cy="84.365334"
       rx="0.76962763"
       ry="0.80897039" />
    <g
       inkscape:label=""
       transform="matrix(1.0008373,0,0,1.0008373,38.312992,81.893863)"
       id="g12997">
      <g
         id="g12995"
         transform="matrix(0.529167,0,0,0.529167,-48.8421,-41.0983)">
        <g
           style="fill:#000000;fill-opacity:1"
           id="g12987">
          <g
             id="g12985"
             transform="translate(91.925003,81.962997)">
            <path
               style="stroke:none"
               d="m 5.15625,-3.71875 c 0.140625,0 0.5,0 0.5,-0.34375 0,-0.234375 -0.21875,-0.234375 -0.390625,-0.234375 h -2.28125 c -1.5,0 -2.609375,1.640625 -2.609375,2.828125 0,0.875 0.59375,1.578125 1.5,1.578125 1.171875,0 2.5,-1.203125 2.5,-2.734375 0,-0.171875 0,-0.65625 -0.3125,-1.09375 z M 1.890625,-0.109375 C 1.390625,-0.109375 1,-0.46875 1,-1.1875 c 0,-0.296875 0.109375,-1.109375 0.46875,-1.703125 0.421875,-0.6875 1.015625,-0.828125 1.359375,-0.828125 0.828125,0 0.90625,0.65625 0.90625,0.96875 0,0.46875 -0.203125,1.28125 -0.53125,1.796875 -0.390625,0.578125 -0.9375,0.84375 -1.3125,0.84375 z m 0,0"
               id="path12983" />
          </g>
        </g>
        <g
           style="fill:#000000;fill-opacity:1"
           id="g12993">
          <g
             id="g12991"
             transform="translate(97.617996,83.457001)">
            <path
               style="stroke:none"
               d="M 4.71875,-3.921875 C 4.859375,-4.0625 5,-4.1875 5.15625,-4.296875 5.4375,-4.484375 5.6875,-4.5 5.78125,-4.515625 c 0.078125,0 0.15625,0 0.15625,-0.140625 0,-0.046875 -0.03125,-0.109375 -0.09375,-0.109375 -0.171875,0 -0.375,0.03125 -0.5625,0.03125 -0.21875,0 -0.515625,-0.03125 -0.71875,-0.03125 -0.046875,0 -0.140625,0 -0.140625,0.15625 0,0.09375 0.09375,0.09375 0.125,0.09375 C 4.75,-4.5 4.75,-4.421875 4.75,-4.375 c 0,0.0625 -0.046875,0.109375 -0.09375,0.1875 -0.046875,0.0625 -0.078125,0.109375 -0.125,0.140625 L 2.796875,-2.21875 1.875,-4.265625 c -0.046875,-0.09375 -0.046875,-0.109375 -0.046875,-0.125 0,-0.125 0.328125,-0.125 0.375,-0.125 0.09375,0 0.1875,0 0.1875,-0.140625 0,-0.015625 0,-0.109375 -0.125,-0.109375 -0.203125,0 -0.71875,0.03125 -0.921875,0.03125 -0.1875,0 -0.625,-0.03125 -0.796875,-0.03125 -0.0625,0 -0.140625,0.03125 -0.140625,0.15625 0,0.09375 0.09375,0.09375 0.1875,0.09375 0.40625,0 0.4375,0.0625 0.5,0.21875 l 1.078125,2.390625 -0.3125,1.265625 c -0.09375,0.359375 -0.09375,0.375 -0.640625,0.390625 -0.125,0 -0.203125,0 -0.203125,0.140625 C 1.015625,-0.03125 1.0625,0 1.125,0 1.25,0 1.421875,-0.015625 1.546875,-0.015625 c 0.140625,0 0.34375,-0.015625 0.46875,-0.015625 0.140625,0 0.296875,0.015625 0.4375,0.015625 C 2.609375,-0.015625 2.78125,0 2.921875,0 2.96875,0 3.078125,0 3.078125,-0.15625 3.078125,-0.25 3,-0.25 2.84375,-0.25 c -0.109375,0 -0.140625,0 -0.265625,-0.015625 -0.125,-0.015625 -0.15625,-0.03125 -0.15625,-0.09375 0,-0.046875 0.09375,-0.375 0.140625,-0.5625 C 2.609375,-1.15625 2.765625,-1.75 2.78125,-1.78125 2.796875,-1.890625 2.796875,-1.90625 2.875,-1.96875 Z m 0,0"
               id="path12989" />
          </g>
        </g>
      </g>
    </g>
    <path
       style="fill:none;fill-opacity:1;stroke:#000000;stroke-width:0.4;stroke-linecap:round;stroke-linejoin:round;stroke-dasharray:none;stroke-dashoffset:0;stroke-opacity:1;marker-start:url(#TriangleStart);marker-end:url(#TriangleStart)"
       d="m 61.788294,72.91167 h 9.247135"
       id="path13396" />
    <path
       style="fill:none;fill-opacity:1;stroke:#000000;stroke-width:0.4;stroke-linecap:round;stroke-linejoin:round;stroke-dasharray:none;stroke-dashoffset:0;stroke-opacity:1;marker-start:url(#TriangleStart-0);marker-end:url(#TriangleStart-0)"
       d="m 79.221701,87.890833 h 4.521154"
       id="path13396-3" />
  </g>
</svg>
