<?xml version="1.0" encoding="UTF-8" standalone="no"?>
<svg
   width="27.302378pt"
   height="6.9218731pt"
   viewBox="0 0 27.302378 6.9218731"
   version="1.2"
   id="svg19"
   sodipodi:docname="NumeroPage.pdf"
   xmlns:inkscape="http://www.inkscape.org/namespaces/inkscape"
   xmlns:sodipodi="http://sodipodi.sourceforge.net/DTD/sodipodi-0.dtd"
   xmlns="http://www.w3.org/2000/svg"
   xmlns:svg="http://www.w3.org/2000/svg">
  <sodipodi:namedview
     id="namedview19"
     pagecolor="#ffffff"
     bordercolor="#666666"
     borderopacity="1.0"
     inkscape:showpageshadow="2"
     inkscape:pageopacity="0.0"
     inkscape:pagecheckerboard="0"
     inkscape:deskcolor="#d1d1d1"
     inkscape:document-units="pt"
     inkscape:zoom="4.3709365"
     inkscape:cx="-59.026253"
     inkscape:cy="63.945107"
     inkscape:window-width="1850"
     inkscape:window-height="1016"
     inkscape:window-x="0"
     inkscape:window-y="0"
     inkscape:window-maximized="1"
     inkscape:current-layer="surface2105861">
    <inkscape:page
       x="0"
       y="0"
       width="27.302378"
       height="6.9218731"
       id="page2"
       margin="0"
       bleed="0" />
  </sodipodi:namedview>
  <defs
     id="defs19" />
  <g
     id="surface2105861"
     transform="translate(44.2697,-47.958801)">
    <path
       style="fill:#4c3a3f;fill-opacity:1;fill-rule:nonzero;stroke:none"
       d="M 69.824219,46.558594 93.34375,30.253906 93.839844,31.046875 71.109375,48.152344 Z m 0,0"
       id="path2"
       inkscape:export-filename="kirby_showing.svg"
       inkscape:export-xdpi="320"
       inkscape:export-ydpi="320" />
    <path
       style="fill:#a3304a;fill-opacity:1;fill-rule:nonzero;stroke:none"
       d="m 59.109375,51.277344 c 0,0 6.640625,-8.667969 10.390625,-6.019532 3.75,2.648438 3.292969,6.046876 1.257812,7.925782 -2.035156,1.878906 -10.769531,5.453125 -10.769531,5.453125 z m 0,0"
       id="path3" />
    <path
       style="fill:#4c3a3f;fill-opacity:1;fill-rule:nonzero;stroke:#4c3a3f;stroke-width:2.41262;stroke-linecap:round;stroke-linejoin:round;stroke-miterlimit:4;stroke-opacity:1"
       d="m 32.457458,86.28125 c 0,0 -0.687824,-7.382812 -6.685654,-8.261719 -5.997831,-0.878906 -11.24888,7.089844 -11.319627,8.84375 -0.07468,1.753907 5.030945,3.675781 9.354414,2.625 4.327399,-1.050781 8.650867,-3.207031 8.650867,-3.207031 z m 0,0"
       transform="scale(0.993849,1)"
       id="path4" />
    <path
       style="fill:#4c3a3f;fill-opacity:1;fill-rule:nonzero;stroke:#4c3a3f;stroke-width:2.41262;stroke-linecap:round;stroke-linejoin:round;stroke-miterlimit:4;stroke-opacity:1"
       d="m 38.105481,86.21875 c 0,0 0.687824,-7.382812 6.685654,-8.265625 5.99783,-0.878906 11.244949,7.09375 11.319627,8.847656 0.07468,1.753907 -5.030945,3.675781 -9.354414,2.625 C 42.428949,88.375 38.105481,86.21875 38.105481,86.21875 Z m 0,0"
       transform="scale(0.993849,1)"
       id="path5" />
    <path
       style="fill:#a3304a;fill-opacity:1;fill-rule:nonzero;stroke:none"
       d="m 61.414062,59.378906 c 0,14.214844 -11.453124,25.738282 -25.582031,25.738282 -14.125,0 -25.578125,-11.523438 -25.578125,-25.738282 0,-14.214844 11.453125,-25.738281 25.578125,-25.738281 14.128907,0 25.582031,11.523437 25.582031,25.738281 z m 0,0"
       id="path6" />
    <path
       style="fill:#a3304a;fill-opacity:1;fill-rule:nonzero;stroke:none"
       d="m 13.199219,68.203125 c 0,0 -6.640625,8.671875 -10.390625,6.023437 -3.75,-2.648437 -3.292969,-6.046874 -1.257813,-7.925781 2.035157,-1.878906 10.769531,-5.453125 10.769531,-5.453125 z m 0,0"
       id="path7" />
    <path
       style="fill:#ffffff;fill-opacity:1;fill-rule:nonzero;stroke:none"
       d="m 32.652344,52.726562 c 0,5.320313 -3.070313,9.632813 -6.855469,9.632813 -3.785156,0 -6.855469,-4.3125 -6.855469,-9.632813 0,-5.320312 3.070313,-9.636718 6.855469,-9.636718 3.785156,0 6.855469,4.316406 6.855469,9.636718 z m 0,0"
       id="path8" />
    <path
       style="fill:#a3304a;fill-opacity:1;fill-rule:nonzero;stroke:none"
       d="m 31.421875,52.699219 c 0,4.363281 -2.519531,7.898437 -5.621094,7.898437 -3.105469,0 -5.625,-3.535156 -5.625,-7.898437 0,-4.363281 2.519531,-7.902344 5.625,-7.902344 3.101563,0 5.621094,3.539063 5.621094,7.902344 z m 0,0"
       id="path9" />
    <path
       style="fill:#ffffff;fill-opacity:1;fill-rule:nonzero;stroke:none"
       d="m 31.054688,50.050781 c 0,1.730469 -0.949219,3.132813 -2.125,3.132813 -1.171876,0 -2.121094,-1.402344 -2.121094,-3.132813 0,-1.730469 0.949218,-3.132812 2.121094,-3.132812 1.175781,0 2.125,1.402343 2.125,3.132812 z m 0,0"
       id="path10" />
    <path
       style="fill:#ffffff;fill-opacity:1;fill-rule:nonzero;stroke:none"
       d="m 50.832031,53 c 0,5.320312 -3.070312,9.632812 -6.855469,9.632812 -3.785156,0 -6.855468,-4.3125 -6.855468,-9.632812 0,-5.320312 3.070312,-9.636719 6.855468,-9.636719 3.785157,0 6.855469,4.316407 6.855469,9.636719 z m 0,0"
       id="path11" />
    <path
       style="fill:#a3304a;fill-opacity:1;fill-rule:nonzero;stroke:none"
       d="m 49.601562,52.972656 c 0,4.363282 -2.515624,7.898438 -5.621093,7.898438 -3.105469,0 -5.621094,-3.535156 -5.621094,-7.898438 0,-4.363281 2.515625,-7.902344 5.621094,-7.902344 3.105469,0 5.621093,3.539063 5.621093,7.902344 z m 0,0"
       id="path12" />
    <path
       style="fill:#ffffff;fill-opacity:1;fill-rule:nonzero;stroke:none"
       d="m 49.234375,50.324219 c 0,1.730469 -0.949219,3.132812 -2.121094,3.132812 -1.175781,0 -2.125,-1.402343 -2.125,-3.132812 0,-1.730469 0.949219,-3.132813 2.125,-3.132813 1.171875,0 2.121094,1.402344 2.121094,3.132813 z m 0,0"
       id="path13" />
    <path
       style="fill:#ffffff;fill-opacity:1;fill-rule:nonzero;stroke:none"
       d="m 16.605469,58.507812 c 3.875,-2.492187 8.175781,-4.308593 12.679687,-5.273437 3.097656,-0.820313 6.351563,-1.851563 9.554688,-0.941406 4.300781,0.984375 8.640625,2.007812 12.707031,3.757812 1.464844,0.789063 3.316406,1.28125 4.210937,2.792969 0.792969,2.042969 0.367188,4.304688 0.464844,6.449219 -0.05078,2.699219 -0.03125,5.414062 -0.304687,8.09375 -0.769531,1.539062 -2.640625,2.046875 -4.046875,2.871093 -3.738282,1.730469 -7.785156,2.65625 -11.714844,3.835938 C 36.242188,81.457031 32.023438,80.460938 28.25,79.121094 24.355469,77.785156 20.429688,76.5 16.652344,74.847656 15.742188,73.429688 15.804688,71.480469 15.554688,69.8125 15.390625,66.363281 15.539062,62.875 16.035156,59.460938 16.175781,59.117188 16.375,58.800781 16.605469,58.507812 Z m 0,0"
       id="path14" />
    <path
       style="fill:#ffffff;fill-opacity:1;fill-rule:nonzero;stroke:none"
       d="m 54.695312,59.433594 c 0,0 2.050782,-0.542969 3.628907,-0.96875 1.574219,-0.425782 2.972656,-2.59375 2.972656,-2.59375 l 0.179687,2.425781 c 0,0 -0.332031,0.664063 -1.449218,1.28125 -1.121094,0.613281 -4.101563,1.585937 -4.796875,1.585937 -0.695313,0 -0.535157,-1.730468 -0.535157,-1.730468 z m 0,0"
       id="path15" />
    <path
       style="fill:#ffffff;fill-opacity:1;fill-rule:nonzero;stroke:none"
       d="m 55.121094,73.390625 c 0,0 0.253906,0.800781 1.097656,1.136719 0.84375,0.332031 1.867188,0.464844 1.867188,0.464844 l 1.035156,-1.511719 c 0,0 -0.257813,0.238281 -1.132813,0 -0.878906,-0.234375 -2.347656,-1.132813 -2.347656,-1.132813 z m 0,0"
       id="path16" />
    <path
       style="fill:#ffffff;fill-opacity:1;fill-rule:nonzero;stroke:none"
       d="m 17.714844,59.683594 c 0,0 -2.390625,-0.542969 -4.230469,-0.96875 -1.835937,-0.425782 -3.464844,-2.59375 -3.464844,-2.59375 l -0.210937,2.425781 c 0,0 0.386718,0.664063 1.691406,1.277344 1.308594,0.617187 4.78125,1.589843 5.589844,1.589843 0.8125,0 0.625,-1.730468 0.625,-1.730468 z m 0,0"
       id="path17" />
    <path
       style="fill:#ffffff;fill-opacity:1;fill-rule:nonzero;stroke:none"
       d="m 17.292969,73.640625 c 0,0 -0.257813,0.800781 -1.101563,1.132813 -0.84375,0.335937 -1.867187,0.46875 -1.867187,0.46875 l -1.03125,-1.511719 c 0,0 0.253906,0.238281 1.132812,0 0.878907,-0.238281 2.34375,-1.132813 2.34375,-1.132813 z m 0,0"
       id="path18" />
    <path
       style="fill:none;stroke:#e6e6e6;stroke-width:0.962836;stroke-linecap:round;stroke-linejoin:round;stroke-miterlimit:4;stroke-opacity:1"
       d="m 20.096268,60.171875 c 3.718183,-0.535156 7.408854,-1.265625 11.052358,-2.195313 1.210572,-0.308593 2.421143,-0.640624 3.663158,-0.785156 1.670431,-0.199218 3.368375,-0.05859 5.027014,0.246094 2.511543,0.460938 4.936616,1.296875 7.393132,1.992188 1.957352,0.558593 3.942217,1.027343 5.938874,1.414062"
       transform="scale(0.993849,1)"
       id="path19" />
    <g
       inkscape:label=""
       transform="translate(-44.2697,47.9588)"
       id="g19"
       inkscape:export-filename="alphaD.svg"
       inkscape:export-xdpi="320"
       inkscape:export-ydpi="320"
       style="fill:#a5324b">
      <g
         id="surface4"
         transform="translate(-2.39925,-1.9875)"
         style="fill:#a5324b">
        <g
           style="fill:#a5324b;fill-opacity:1"
           id="g6">
          <g
             id="use5"
             transform="translate(1.993,8.8000002)"
             style="fill:#a5324b">
            <path
               style="fill:#a5324b;stroke:none"
               d="m 4.75,-2.359375 c 0,-1.5625 -0.921875,-2.046875 -1.65625,-2.046875 -1.375,0 -2.6875,1.421875 -2.6875,2.828125 0,0.9375 0.59375,1.6875 1.625,1.6875 0.625,0 1.34375,-0.234375 2.09375,-0.84375 0.125,0.53125 0.453125,0.84375 0.90625,0.84375 0.53125,0 0.84375,-0.546875 0.84375,-0.703125 0,-0.078125 -0.0625,-0.109375 -0.125,-0.109375 -0.0625,0 -0.09375,0.03125 -0.125,0.109375 -0.1875,0.484375 -0.546875,0.484375 -0.5625,0.484375 -0.3125,0 -0.3125,-0.78125 -0.3125,-1.015625 0,-0.203125 0,-0.234375 0.109375,-0.34375 C 5.796875,-2.65625 6,-3.8125 6,-3.8125 6,-3.84375 5.984375,-3.921875 5.875,-3.921875 c -0.09375,0 -0.09375,0.03125 -0.140625,0.21875 -0.1875,0.625 -0.515625,1.375 -0.984375,1.96875 z m -0.65625,1.375 c -0.890625,0.765625 -1.65625,0.875 -2.046875,0.875 -0.59375,0 -0.90625,-0.453125 -0.90625,-1.09375 0,-0.484375 0.265625,-1.5625 0.578125,-2.0625 C 2.1875,-4 2.734375,-4.1875 3.078125,-4.1875 c 0.984375,0 0.984375,1.3125 0.984375,2.078125 0,0.375 0,0.953125 0.03125,1.125 z m 0,0"
               id="path8-1" />
          </g>
        </g>
        <g
           style="fill:#a5324b;fill-opacity:1"
           id="g7">
          <g
             id="use6"
             transform="translate(11.17,8.8000002)"
             style="fill:#a5324b">
            <path
               style="fill:#a5324b;stroke:none"
               d="m 6.84375,-3.265625 c 0.15625,0 0.34375,0 0.34375,-0.1875 C 7.1875,-3.65625 7,-3.65625 6.859375,-3.65625 h -5.96875 c -0.140625,0 -0.328125,0 -0.328125,0.203125 0,0.1875 0.1875,0.1875 0.328125,0.1875 z m 0.015625,1.9375 c 0.140625,0 0.328125,0 0.328125,-0.203125 0,-0.1875 -0.1875,-0.1875 -0.34375,-0.1875 H 0.890625 c -0.140625,0 -0.328125,0 -0.328125,0.1875 0,0.203125 0.1875,0.203125 0.328125,0.203125 z m 0,0"
               id="path9-1" />
          </g>
        </g>
        <g
           style="fill:#a5324b;fill-opacity:1"
           id="g8">
          <g
             id="use7"
             transform="translate(21.686001,8.8000002)"
             style="fill:#a5324b">
            <path
               style="fill:#a5324b;stroke:none"
               d="m 1.578125,-0.78125 c -0.09375,0.390625 -0.109375,0.46875 -0.90625,0.46875 -0.15625,0 -0.265625,0 -0.265625,0.1875 C 0.40625,0 0.484375,0 0.671875,0 h 3.3125 c 2.0625,0 4.03125,-2.109375 4.03125,-4.28125 0,-1.40625 -0.84375,-2.53125 -2.34375,-2.53125 h -3.34375 c -0.1875,0 -0.296875,0 -0.296875,0.1875 0,0.125 0.078125,0.125 0.28125,0.125 0.125,0 0.3125,0.015625 0.421875,0.015625 0.171875,0.03125 0.21875,0.046875 0.21875,0.171875 0,0.03125 0,0.0625 -0.03125,0.1875 z M 3.734375,-6.125 C 3.828125,-6.46875 3.84375,-6.5 4.28125,-6.5 h 1.0625 c 0.96875,0 1.796875,0.53125 1.796875,1.84375 0,0.484375 -0.1875,2.125 -1.046875,3.21875 -0.28125,0.375 -1.0625,1.125 -2.296875,1.125 h -1.125 c -0.140625,0 -0.15625,0 -0.21875,0 -0.09375,-0.015625 -0.125,-0.03125 -0.125,-0.109375 0,-0.03125 0,-0.046875 0.046875,-0.21875 z m 0,0"
               id="path10-1" />
          </g>
        </g>
      </g>
    </g>
  </g>
</svg>
