<?xml version="1.0" encoding="UTF-8" standalone="no"?>
<!-- Created with Inkscape (http://www.inkscape.org/) -->

<svg
   width="59.017151mm"
   height="30.922028mm"
   viewBox="0 0 59.017151 30.922028"
   version="1.1"
   id="svg5"
   xml:space="preserve"
   sodipodi:docname="Kirbies.svg"
   inkscape:version="1.2.2 (1:1.2.2+202212051552+b0a8486541)"
   inkscape:export-filename="Kirbies.pdf"
   inkscape:export-xdpi="96"
   inkscape:export-ydpi="96"
   xmlns:inkscape="http://www.inkscape.org/namespaces/inkscape"
   xmlns:sodipodi="http://sodipodi.sourceforge.net/DTD/sodipodi-0.dtd"
   xmlns="http://www.w3.org/2000/svg"
   xmlns:svg="http://www.w3.org/2000/svg"><sodipodi:namedview
     id="namedview7"
     pagecolor="#ffffff"
     bordercolor="#000000"
     borderopacity="0.25"
     inkscape:showpageshadow="2"
     inkscape:pageopacity="0.0"
     inkscape:pagecheckerboard="0"
     inkscape:deskcolor="#d1d1d1"
     inkscape:document-units="mm"
     showgrid="false"
     inkscape:zoom="1.5432796"
     inkscape:cx="392.67027"
     inkscape:cy="397.53005"
     inkscape:window-width="1846"
     inkscape:window-height="1016"
     inkscape:window-x="1154"
     inkscape:window-y="27"
     inkscape:window-maximized="1"
     inkscape:current-layer="layer1"><inkscape:page
       x="0"
       y="0"
       width="59.017151"
       height="30.922028"
       id="page2"
       margin="0"
       bleed="0" /></sodipodi:namedview><defs
     id="defs2"><inkscape:path-effect
       effect="bspline"
       id="path-effect505-3-6-7-7-3-4-0-3-0-5-1-2-9-0-6-2-1-9"
       is_visible="true"
       lpeversion="1"
       weight="33.333333"
       steps="2"
       helper_size="0"
       apply_no_weight="true"
       apply_with_weight="true"
       only_selected="false"
       uniform="false" /><inkscape:path-effect
       effect="bspline"
       id="path-effect505-3-2-6-2-1-6-7-4-0-7-8-0-2-2-8-0-0-5-1"
       is_visible="true"
       lpeversion="1"
       weight="33.333333"
       steps="2"
       helper_size="0"
       apply_no_weight="true"
       apply_with_weight="true"
       only_selected="false"
       uniform="false" /><inkscape:path-effect
       effect="bspline"
       id="path-effect505-3-2-1-4-7-1-5-7-2-1-3-4-2-4-9-3-0-2-2-5"
       is_visible="true"
       lpeversion="1"
       weight="33.333333"
       steps="2"
       helper_size="0"
       apply_no_weight="true"
       apply_with_weight="true"
       only_selected="false"
       uniform="false" /><inkscape:path-effect
       effect="bspline"
       id="path-effect509-6-9-2-5-6-5-2-7-1-3-2-5-6-5-6-4-0-0"
       is_visible="true"
       lpeversion="1"
       weight="33.333333"
       steps="2"
       helper_size="0"
       apply_no_weight="true"
       apply_with_weight="true"
       only_selected="false"
       uniform="false" /><inkscape:path-effect
       effect="bspline"
       id="path-effect513-7-5-2-9-3-4-2-8-1-7-9-1-5-9-4-3-7-9"
       is_visible="true"
       lpeversion="1"
       weight="33.333333"
       steps="2"
       helper_size="0"
       apply_no_weight="true"
       apply_with_weight="true"
       only_selected="false"
       uniform="false" /><inkscape:path-effect
       effect="bspline"
       id="path-effect517-5-0-6-7-9-8-0-9-9-1-7-7-53-6-3-7-1-4"
       is_visible="true"
       lpeversion="1"
       weight="33.333333"
       steps="2"
       helper_size="0"
       apply_no_weight="true"
       apply_with_weight="true"
       only_selected="false"
       uniform="false" /><inkscape:path-effect
       effect="bspline"
       id="path-effect521-3-4-1-7-4-1-5-1-0-3-5-5-8-5-7-3-6-9"
       is_visible="true"
       lpeversion="1"
       weight="33.333333"
       steps="2"
       helper_size="0"
       apply_no_weight="true"
       apply_with_weight="true"
       only_selected="false"
       uniform="false" /><inkscape:path-effect
       effect="bspline"
       id="path-effect525-5-8-0-6-8-2-5-5-5-8-6-7-6-6-5-0-4-6"
       is_visible="true"
       lpeversion="1"
       weight="33.333333"
       steps="2"
       helper_size="0"
       apply_no_weight="true"
       apply_with_weight="true"
       only_selected="false"
       uniform="false" /><inkscape:path-effect
       effect="bspline"
       id="path-effect529-6-71-6-7-1-8-2-4-6-0-4-1-7-3-8-0-9-8"
       is_visible="true"
       lpeversion="1"
       weight="33.333333"
       steps="2"
       helper_size="0"
       apply_no_weight="true"
       apply_with_weight="true"
       only_selected="false"
       uniform="false" /><marker
       style="overflow:visible"
       id="Arrow2"
       refX="0"
       refY="0"
       orient="auto-start-reverse"
       inkscape:stockid="Arrow2"
       markerWidth="7.6999998"
       markerHeight="5.5999999"
       viewBox="0 0 7.7 5.6"
       inkscape:isstock="true"
       inkscape:collect="always"
       preserveAspectRatio="xMidYMid"><path
         transform="scale(0.7)"
         d="M -2,-4 9,0 -2,4 c 2,-2.33 2,-5.66 0,-8 z"
         style="fill:context-stroke;fill-rule:evenodd;stroke:none"
         id="arrow2L" /></marker><inkscape:path-effect
       effect="spiro"
       id="path-effect57692"
       is_visible="true"
       lpeversion="1" /><marker
       style="overflow:visible"
       id="Arrow2-2"
       refX="0"
       refY="0"
       orient="auto-start-reverse"
       inkscape:stockid="Arrow2"
       markerWidth="7.6999998"
       markerHeight="5.5999999"
       viewBox="0 0 7.7 5.6"
       inkscape:isstock="true"
       inkscape:collect="always"
       preserveAspectRatio="xMidYMid"><path
         transform="scale(0.7)"
         d="M -2,-4 9,0 -2,4 c 2,-2.33 2,-5.66 0,-8 z"
         style="fill:context-stroke;fill-rule:evenodd;stroke:none"
         id="arrow2L-4" /></marker><inkscape:path-effect
       effect="spiro"
       id="path-effect57692-6"
       is_visible="true"
       lpeversion="1" /></defs><g
     inkscape:label="Layer 1"
     inkscape:groupmode="layer"
     id="layer1"
     transform="translate(-131.24213,-54.804211)"><g
       id="g5449"
       transform="matrix(1.6342871,0,0,1.6342871,54.511581,-6.8474368)"><g
         id="g898-3-0-3-9-3-9-4-9-1-1-1-9-0"
         transform="matrix(0.29856811,0,0,0.29856811,27.996573,35.941727)"><g
           id="g1"><path
             style="fill:#a5324b;stroke:none;stroke-width:0.5969;stroke-linecap:round;stroke-linejoin:round"
             d="M 137.98872,480.64728 C 123.46937,476.77265 96.381584,469.4132 78.233446,462.85002 60.085308,456.28685 50.877201,450.52008 43.704087,442.98578 c -7.173114,-7.5343 -12.310681,-16.83573 -14.970463,-26.46417 -2.659781,-9.62844 -2.841491,-19.58322 0.992981,-28.4476 3.834471,-8.86438 11.684826,-16.63759 17.997221,-22.53059 6.312394,-5.893 11.08647,-9.90546 13.697851,-13.20738 2.61138,-3.30192 3.060011,-5.89333 3.352787,-7.55026 0.292776,-1.65693 0.429686,-2.3793 0.263043,-0.27464 -0.166643,2.10466 -0.636838,7.03612 0.01,10.52295 0.646796,3.48682 2.410252,5.52879 3.39102,5.84571 0.980768,0.31691 1.179071,-1.09115 3.493657,-5.20956 2.314586,-4.11841 6.745288,-10.9467 12.730345,-15.88043 5.985057,-4.93373 13.523896,-7.97252 20.835724,-9.3595 7.31183,-1.38697 14.39607,-1.12215 20.32438,-1.52418 5.92831,-0.40203 10.70043,-1.47083 13.3502,-2.10131 2.64978,-0.63048 3.17713,-0.8226 0.46604,1.06421 -2.71109,1.88682 -8.6603,5.8524 -10.4191,7.78952 -1.75879,1.93713 0.67265,1.84569 7.58422,1.28066 6.91157,-0.56504 18.30277,-1.60362 27.95535,-4.64766 9.65257,-3.04405 17.56615,-8.09332 22.2002,-12.70225 4.63405,-4.60893 5.98847,-8.77745 6.65348,-10.92804 0.66501,-2.1506 0.64048,-2.28331 0.87685,3.62493 0.23637,5.90824 0.73366,17.85698 -1.11584,29.91193 -1.8495,12.05495 -6.04556,24.21552 -8.15308,31.3755 -2.10752,7.15999 -2.12645,9.31896 -1.03918,10.14668 1.08728,0.82773 3.28047,0.3245 4.64013,-1.00839 1.35966,-1.33289 1.88596,-3.49557 2.09177,-4.50631 0.2058,-1.01074 0.0911,-0.86932 0.83377,2.2011 0.74269,3.07042 2.34263,9.06935 3.53024,15.57821 1.1876,6.50886 1.96285,13.5273 1.417,20.77688 -0.54585,7.24958 -2.41267,14.73001 -3.55597,19.06264 -1.1433,4.33263 -1.56303,5.5173 -0.31873,5.13548 1.24431,-0.38181 4.15243,-2.32985 6.72496,-5.35688 2.57253,-3.02703 4.80942,-7.13295 6.38577,-9.71041 1.57635,-2.57747 2.49203,-3.62625 1.48854,-0.0864 -1.00348,3.53989 -3.92599,11.66803 -5.84562,19.45877 -1.91962,7.79073 -2.83628,15.24353 -6.59464,21.22807 -3.75837,5.98454 -10.35823,10.50074 -17.26006,13.3908 -6.90183,2.89006 -14.10537,4.15383 -18.68265,4.59084 -4.57728,0.43702 -6.52817,0.0472 -21.04752,-3.82746 z"
             id="path503-1-5-3-2-7-7-1-2-3-0-0-6-5"
             inkscape:path-effect="#path-effect505-3-6-7-7-3-4-0-3-0-5-1-2-9-0-6-2-1-9"
             inkscape:original-d="M 150.55683,484.13201 C 123.46932,476.77283 96.381538,469.41337 69.293494,462.05367 60.085269,456.28691 50.877148,450.52016 41.668576,444.75298 36.531064,435.45143 31.393493,426.15 26.255555,416.8481 c -0.181454,-9.95493 -0.363162,-19.90971 -0.54514,-29.86495 7.850926,-7.77325 15.701275,-15.54647 23.551518,-23.32009 4.774527,-4.01235 9.548603,-8.02481 14.322506,-12.03761 0.448916,-2.59128 0.897549,-5.18269 1.345925,-7.77441 0.137181,-0.72213 0.27409,-1.4445 0.410739,-2.16715 -0.46995,4.93194 -0.940146,9.8634 -1.410615,14.79468 1.763794,2.04232 3.527253,4.08429 5.290481,6.12605 0.198578,-1.40787 0.396883,-2.81593 0.594929,-4.22431 4.431141,-6.82828 8.86184,-13.65657 13.292365,-20.48526 7.539405,-3.03866 15.078245,-6.07745 22.616967,-9.11656 7.0848,0.26509 14.16904,0.52991 21.25317,0.79449 4.77257,-1.06857 9.54469,-2.13738 14.31664,-3.20646 0.52764,-0.19187 1.05499,-0.38399 1.58209,-0.57637 -5.94919,3.966 -11.8984,7.93158 -17.84799,11.89697 2.43181,-0.0912 4.86325,-0.18259 7.29448,-0.2743 11.39193,-1.03835 22.78313,-2.07692 34.1743,-3.11581 7.91415,-5.0492 15.82773,-10.09846 23.7412,-15.14811 1.35474,-4.16843 2.70917,-8.33694 4.06335,-12.50582 -0.0243,-0.13245 -0.0488,-0.26517 -0.0736,-0.39817 0.49757,11.94951 0.99487,23.89825 1.49191,35.84696 -4.19597,12.16131 -8.39203,24.32188 -12.58845,36.48242 -0.0187,2.15932 -0.0376,4.31829 -0.0568,6.47703 2.19355,-0.50298 4.38674,-1.00621 6.57972,-1.50972 0.52658,-2.16251 1.05288,-4.32519 1.57893,-6.48819 -0.11446,0.14169 -0.22918,0.28311 -0.34417,0.42426 1.60026,5.9994 3.2002,11.99833 4.79991,17.99709 0.77555,7.01898 1.55081,14.03742 2.32581,21.0557 -1.86663,7.48099 -3.73344,14.96142 -5.60056,22.44172 -0.41948,1.18499 -0.83921,2.36966 -1.25921,3.55407 2.9085,-1.94783 5.81661,-3.89588 8.72452,-5.84422 2.23726,-4.10586 4.47416,-8.21178 6.71084,-12.31807 0.91598,-1.04856 1.83166,-2.09734 2.74709,-3.14641 -2.92236,8.12872 -5.84488,16.25685 -8.76771,24.38488 -0.91644,7.45337 -1.8331,14.90617 -2.75004,22.35885 -6.59987,4.51666 -13.19973,9.03287 -19.8,13.54891 -7.20355,1.26408 -14.40709,2.52784 -21.61103,3.79136 -1.95071,-0.38959 -3.9016,-0.77943 -5.8528,-1.16954 z"
             transform="matrix(0.19647325,-0.02636726,0.02636726,0.19647325,131.4228,-38.020466)" /><path
             style="fill:#efa8c6;stroke:none;stroke-width:0.389222;stroke-linecap:round;stroke-linejoin:round"
             d="m 129.7121,461.47905 c -8.83148,-2.39941 -26.49464,-7.1983 -38.328527,-11.47796 -11.833887,-4.27966 -17.83823,-8.04 -22.515611,-12.9529 -4.677382,-4.9129 -8.027447,-10.97811 -9.761814,-17.25653 -1.734366,-6.27843 -1.852854,-12.76967 0.647495,-18.54987 2.500349,-5.78021 7.619344,-10.8489 11.735478,-14.69156 4.116133,-3.84265 7.229165,-6.45906 8.931973,-8.61215 1.702808,-2.15309 1.995347,-3.84287 2.186258,-4.92331 0.190911,-1.08044 0.280185,-1.55147 0.171523,-0.17908 -0.108662,1.37238 -0.415264,4.58805 0.0065,6.86171 0.42176,2.27366 1.571652,3.60517 2.211184,3.81181 0.639532,0.20665 0.76884,-0.7115 2.278114,-3.397 1.509274,-2.68549 4.398408,-7.13802 8.301094,-10.35517 3.902686,-3.21715 8.818558,-5.19866 13.586388,-6.10307 4.76784,-0.9044 9.38727,-0.73172 13.25294,-0.99387 3.86568,-0.26216 6.97745,-0.95909 8.70529,-1.37021 1.72784,-0.41111 2.07171,-0.53639 0.30389,0.69395 -1.76782,1.23034 -5.64714,3.81618 -6.794,5.07932 -1.14686,1.26314 0.43861,1.20352 4.94545,0.83508 4.50684,-0.36844 11.93472,-1.04566 18.22889,-3.0306 6.29418,-1.98494 11.45439,-5.27742 14.47612,-8.28278 3.02173,-3.00535 3.90491,-5.72352 4.33855,-7.12583 0.43364,-1.40232 0.41763,-1.48891 0.57176,2.36368 0.15412,3.8526 0.4784,11.64404 -0.7276,19.50472 -1.206,7.86069 -3.94214,15.79025 -5.3164,20.45907 -1.37426,4.66883 -1.38662,6.07663 -0.67766,6.61636 0.70897,0.53973 2.1391,0.21159 3.0257,-0.65754 0.88659,-0.86914 1.22978,-2.27937 1.36398,-2.93845 0.1342,-0.65908 0.0594,-0.56685 0.54367,1.43528 0.48429,2.00213 1.52757,5.91387 2.30197,10.15811 0.7744,4.24424 1.27992,8.82077 0.92399,13.54801 -0.35593,4.72724 -1.57323,9.60503 -2.31875,12.43021 -0.74551,2.82518 -1.0192,3.59767 -0.20783,3.3487 0.81138,-0.24897 2.70768,-1.51923 4.38515,-3.49307 1.67748,-1.97384 3.1361,-4.6512 4.16399,-6.33189 1.02789,-1.68069 1.62496,-2.36456 0.97062,-0.0563 -0.65434,2.30826 -2.56002,7.60838 -3.81175,12.6885 -1.25173,5.08012 -1.84947,9.93988 -4.30018,13.84222 -2.45072,3.90234 -6.75431,6.84724 -11.2548,8.73176 -4.50049,1.88453 -9.19771,2.70859 -12.18242,2.99355 -2.98471,0.28497 -4.25683,0.0308 -4.89301,-0.0964 -0.63617,-0.12712 -0.63613,-0.12712 -9.46761,-2.52654 z"
             id="path503-9-8-6-3-5-9-9-1-7-1-0-9-5-5"
             inkscape:path-effect="#path-effect505-3-2-6-2-1-6-7-4-0-7-8-0-2-2-8-0-0-5-1"
             inkscape:original-d="m 138.54358,463.87847 c -17.66299,-4.79872 -35.32615,-9.59761 -52.989497,-14.39666 -6.004421,-3.76034 -12.008773,-7.52067 -18.013421,-11.28128 -3.350025,-6.06527 -6.700088,-12.13048 -10.050391,-18.19598 -0.118321,-6.49132 -0.236808,-12.98256 -0.35547,-19.47408 5.119365,-5.06871 10.238353,-10.13741 15.357272,-15.20636 3.113334,-2.61635 6.226372,-5.23275 9.339298,-7.84939 0.292725,-1.6897 0.585266,-3.37948 0.877639,-5.06947 0.08945,-0.47088 0.178727,-0.94191 0.267832,-1.41314 -0.306441,3.21598 -0.613043,6.43165 -0.919822,9.64719 1.15012,1.33175 2.30002,2.66325 3.449771,3.99463 0.129488,-0.91804 0.258796,-1.83619 0.387937,-2.75456 2.88942,-4.45252 5.778552,-8.90505 8.667571,-13.35785 4.916232,-1.98142 9.832101,-3.96293 14.747881,-5.94465 4.6198,0.17286 9.23923,0.34554 13.85858,0.51806 3.11206,-0.69678 6.22382,-1.39372 9.33548,-2.09084 0.34405,-0.12511 0.68793,-0.25038 1.03164,-0.37583 -3.8793,2.58611 -7.75861,5.17196 -11.63817,7.75767 1.58571,-0.0594 3.17118,-0.11905 4.75652,-0.17886 7.42835,-0.67707 14.85623,-1.35429 22.28409,-2.03172 5.16059,-3.29245 10.32081,-6.58493 15.48096,-9.87766 0.88338,-2.71812 1.76657,-5.43628 2.64959,-8.15469 -0.0159,-0.0863 -0.0318,-0.17291 -0.048,-0.25963 0.32446,7.79193 0.64874,15.58337 0.97284,23.37478 -2.73607,7.93004 -5.4722,15.8596 -8.20856,23.78914 -0.0122,1.40804 -0.0245,2.81584 -0.0371,4.22349 1.43035,-0.32798 2.86048,-0.65613 4.29045,-0.98445 0.34337,-1.4101 0.68656,-2.82033 1.02958,-4.23076 -0.0746,0.0924 -0.14945,0.18461 -0.22443,0.27664 1.04349,3.91204 2.08676,7.82378 3.12989,11.73539 0.50571,4.57688 1.01123,9.15341 1.51659,13.72983 -1.21717,4.87813 -2.43447,9.75592 -3.65196,14.6336 -0.27353,0.7727 -0.54723,1.54519 -0.82109,2.31751 1.89654,-1.27013 3.79284,-2.54039 5.68901,-3.81085 1.45885,-2.67731 2.91746,-5.35467 4.37595,-8.03226 0.59728,-0.68374 1.19436,-1.36761 1.79129,-2.05169 -1.90559,5.30051 -3.81128,10.60063 -5.71717,15.90069 -0.59758,4.86013 -1.19532,9.71989 -1.79323,14.57957 -4.30358,2.94518 -8.60716,5.89008 -12.91101,8.83486 -4.69723,0.82427 -9.39445,1.64833 -14.09193,2.47223 -1.27201,-0.25404 -2.54413,-0.50824 -3.81645,-0.76262 z"
             transform="matrix(0.19647325,-0.02636726,0.02636726,0.19647325,131.4228,-38.020466)" /><path
             style="fill:#ffe4f3;stroke:none;stroke-width:0.227253;stroke-linecap:round;stroke-linejoin:round"
             d="m 124.03343,449.0206 c -5.15639,-1.40094 -15.4693,-4.20284 -22.3787,-6.70159 -6.909402,-2.49874 -10.415132,-4.69428 -13.146093,-7.56275 -2.730961,-2.86847 -4.686949,-6.40974 -5.699587,-10.0755 -1.012637,-3.66576 -1.081818,-7.45577 0.378051,-10.83063 1.459869,-3.37486 4.448674,-6.3343 6.851941,-8.57789 2.403268,-2.24359 4.220858,-3.77122 5.215069,-5.02834 0.994212,-1.25712 1.165014,-2.24372 1.276481,-2.87455 0.111467,-0.63083 0.163592,-0.90585 0.100147,-0.10456 -0.06344,0.80129 -0.242458,2.67881 0.0038,4.00632 0.24625,1.32751 0.917634,2.10493 1.291035,2.22558 0.373402,0.12065 0.448899,-0.41542 1.330112,-1.98339 0.881213,-1.56797 2.568083,-4.16765 4.846723,-6.04603 2.27864,-1.87838 5.14885,-3.03531 7.93263,-3.56337 2.78377,-0.52805 5.48089,-0.42722 7.73793,-0.58029 2.25704,-0.15306 4.07389,-0.55997 5.08271,-0.80001 1.00882,-0.24003 1.20962,-0.31318 0.17745,0.40517 -1.03217,0.71835 -3.29718,2.22813 -3.96679,2.96564 -0.66961,0.73751 0.25609,0.7027 2.88748,0.48758 2.63139,-0.21512 6.96827,-0.61053 10.64322,-1.76947 3.67495,-1.15893 6.68782,-3.0813 8.4521,-4.83603 1.76429,-1.75472 2.27994,-3.34176 2.53314,-4.16051 0.25319,-0.81874 0.24384,-0.86935 0.33384,1.38005 0.09,2.2494 0.27933,6.79855 -0.42482,11.38814 -0.70414,4.58959 -2.30167,9.21938 -3.10406,11.94534 -0.80239,2.72597 -0.80963,3.54794 -0.39569,3.86307 0.41394,0.31513 1.24894,0.12354 1.76659,-0.38392 0.51766,-0.50746 0.71803,-1.33084 0.79637,-1.71563 0.0783,-0.38478 0.0347,-0.33097 0.31744,0.838 0.28277,1.16896 0.8919,3.45289 1.34405,5.93095 0.45214,2.47807 0.7473,5.15015 0.53949,7.91022 -0.20782,2.76007 -0.91856,5.60805 -1.35384,7.25757 -0.43528,1.64953 -0.59508,2.10056 -0.12135,1.9552 0.47373,-0.14537 1.58092,-0.88703 2.56034,-2.03949 0.97942,-1.15245 1.83106,-2.71567 2.43121,-3.69697 0.60014,-0.98129 0.94876,-1.38059 0.56671,-0.0329 -0.38204,1.34772 -1.49471,4.44228 -2.22555,7.40838 -0.73084,2.96611 -1.07984,5.80356 -2.51073,8.082 -1.43089,2.27844 -3.9436,3.99786 -6.57128,5.09817 -2.62768,1.10032 -5.37023,1.58146 -7.1129,1.74784 -1.74268,0.16637 -2.48541,0.018 -2.85686,-0.0563 -0.37144,-0.0742 -0.3714,-0.0742 -5.5278,-1.47515 z"
             id="path503-9-2-9-6-8-7-3-9-3-3-5-1-3-7-0"
             inkscape:path-effect="#path-effect505-3-2-1-4-7-1-5-7-2-1-3-4-2-4-9-3-0-2-2-5"
             inkscape:original-d="m 129.18983,450.42153 c -10.31281,-2.8018 -20.62572,-5.60371 -30.938743,-8.40571 -3.505774,-2.19553 -7.011508,-4.39106 -10.517415,-6.58675 -1.955965,-3.5413 -3.911951,-7.08257 -5.868077,-10.62401 -0.06908,-3.79006 -0.138264,-7.58007 -0.207547,-11.37024 2.989021,-2.95945 5.977821,-5.91889 8.966582,-8.87847 1.817768,-1.5276 3.635364,-3.05522 5.452894,-4.58299 0.170912,-0.98656 0.341717,-1.97316 0.512423,-2.95989 0.05223,-0.27493 0.104353,-0.54995 0.156378,-0.82508 -0.17892,1.8777 -0.357934,3.75522 -0.537052,5.63266 0.671515,0.77756 1.342902,1.55498 2.014202,2.33233 0.0756,-0.53602 0.151102,-1.07209 0.226503,-1.6083 1.687032,-2.59967 3.373902,-5.19935 5.060692,-7.79918 2.87042,-1.15689 5.74063,-2.31382 8.61078,-3.47088 2.69735,0.10093 5.39447,0.20175 8.09155,0.30248 1.81703,-0.40683 3.63388,-0.81375 5.45067,-1.22077 0.20088,-0.073 0.40166,-0.14619 0.60234,-0.21944 -2.26499,1.50994 -4.52999,3.01973 -6.79513,4.52944 0.92584,-0.0347 1.85154,-0.0695 2.77717,-0.10443 4.33716,-0.39532 8.67404,-0.79072 13.01091,-1.18625 3.01309,-1.92235 6.02596,-3.84472 9.0388,-5.76723 0.51577,-1.58701 1.03144,-3.17405 1.547,-4.76124 -0.009,-0.0504 -0.0186,-0.10096 -0.028,-0.15159 0.18944,4.54944 0.37878,9.09859 0.56801,13.64773 -1.5975,4.63008 -3.19503,9.25987 -4.7927,13.88966 -0.007,0.8221 -0.0143,1.64407 -0.0217,2.46595 0.83514,-0.1915 1.67014,-0.38309 2.50505,-0.57479 0.20048,-0.82331 0.40086,-1.64669 0.60114,-2.47019 -0.0436,0.054 -0.0873,0.10778 -0.13104,0.16152 0.60926,2.2841 1.21839,4.56803 1.82743,6.85189 0.29527,2.67228 0.59043,5.34436 0.88549,8.01637 -0.71066,2.84817 -1.4214,5.69615 -2.13225,8.54406 -0.15971,0.45115 -0.31951,0.90218 -0.47941,1.35311 1.10732,-0.74158 2.21451,-1.48324 3.32162,-2.22502 0.85177,-1.56319 1.7034,-3.12641 2.55496,-4.68976 0.34873,-0.39921 0.69735,-0.7985 1.04587,-1.19791 -1.1126,3.09478 -2.22527,6.18934 -3.33805,9.28386 -0.34891,2.83766 -0.69791,5.67511 -1.04701,8.51251 -2.51271,1.71959 -5.02542,3.43901 -7.53829,5.15837 -2.74255,0.48126 -5.4851,0.9624 -8.22779,1.44345 -0.74269,-0.14833 -1.48543,-0.29674 -2.2283,-0.44527 z"
             transform="matrix(0.19647325,-0.02636726,0.02636726,0.19647325,131.4228,-38.020466)" /><path
             style="fill:#a5324b;stroke:none;stroke-width:0.5969;stroke-linecap:round;stroke-linejoin:round"
             d="m 21.361632,408.9006 c -1.653986,-3.02856 -4.96213,-9.08598 -5.749879,-14.47262 -0.787748,-5.38665 0.945036,-10.10216 3.283473,-13.91121 2.338437,-3.80905 5.282312,-6.71127 6.982835,-9.01531 1.700522,-2.30403 2.157668,-4.00993 2.142165,-3.0322 -0.0155,0.97774 -0.503669,4.63897 -1.871311,8.74378 -1.367642,4.1048 -3.614624,8.65301 -4.298795,13.07281 -0.68417,4.41979 0.194377,8.71069 0.649069,12.29652 0.454692,3.58582 0.485564,6.4664 0.501,7.90659 0.01544,1.44019 0.01543,1.44019 -1.638557,-1.58836 z"
             id="path507-6-4-0-4-7-3-5-6-8-3-0-4-1"
             inkscape:path-effect="#path-effect509-6-9-2-5-6-5-2-7-1-3-2-5-6-5-6-4-0-0"
             inkscape:original-d="m 23.015619,411.92915 c -3.307876,-6.05716 -6.616017,-12.11458 -9.924422,-18.17224 1.733122,-4.71546 3.46591,-9.43097 5.198468,-14.14685 2.944256,-2.90208 5.88813,-5.8043 8.831798,-8.70683 0.457431,-1.70572 0.91458,-3.41162 1.371473,-5.11783 -0.48792,3.66164 -0.976084,7.32287 -1.464524,10.98391 -2.246814,4.54869 -4.493805,9.0969 -6.741105,13.64496 0.878848,4.29133 1.757396,8.58223 2.635697,12.87298 0.03114,2.88094 0.06201,5.76152 0.09262,8.6419 z"
             transform="matrix(0.19647325,-0.02636726,0.02636726,0.19647325,131.4228,-38.020466)" /><path
             style="fill:#a5324b;stroke:none;stroke-width:0.5969;stroke-linecap:round;stroke-linejoin:round"
             d="m 75.96301,480.26677 c -1.748982,-0.10523 -7.360998,-3.26445 -13.648166,-4.87518 -6.287168,-1.61073 -13.24916,-1.67279 -17.316105,-0.68507 -4.066946,0.98772 -5.238344,3.02506 -5.516734,3.19545 -0.27839,0.17039 0.336227,-1.5262 3.692677,-3.77958 3.356449,-2.25338 9.454311,-5.06321 14.962957,-5.09724 5.508647,-0.034 10.427553,2.70746 13.943999,5.55275 3.516446,2.84529 5.630354,5.7941 3.881372,5.68887 z"
             id="path511-4-0-4-9-8-2-9-4-1-3-2-3-6"
             inkscape:path-effect="#path-effect513-7-5-2-9-3-4-2-8-1-7-9-1-5-9-4-3-7-9"
             inkscape:original-d="m 79.825735,483.32058 c -5.611754,-3.15896 -11.223775,-6.31817 -16.836059,-9.47766 -6.962002,-0.0618 -13.923994,-0.12386 -20.886388,-0.18619 -1.17118,2.03769 -2.342578,4.07503 -3.514262,6.11214 0.614905,-1.6964 1.229522,-3.39299 1.843887,-5.08987 6.098371,-2.80966 12.196231,-5.61949 18.29395,-8.42965 4.919369,2.74187 9.838277,5.48335 14.757019,8.22462 2.114259,2.94918 4.228166,5.89799 6.341853,8.84661 z"
             transform="matrix(0.19647325,-0.02636726,0.02636726,0.19647325,131.4228,-38.020466)" /><path
             style="fill:#a5324b;stroke:none;stroke-width:0.5969;stroke-linecap:round;stroke-linejoin:round"
             d="m 168.04419,490.35294 c 2.62432,-0.78435 10.02484,-0.63598 16.44934,-1.96722 6.4245,-1.33124 11.87295,-4.14191 15.36996,-6.67485 3.497,-2.53294 5.04253,-4.78809 5.05698,-3.70387 0.0145,1.08422 -1.50213,5.5076 -4.04854,9.45992 -2.5464,3.95232 -6.1225,7.4335 -11.48551,8.539 -5.363,1.1055 -12.51282,-0.16478 -17.16377,-1.65829 -4.65094,-1.4935 -6.80277,-3.21033 -4.17846,-3.99469 z"
             id="path515-3-04-7-9-7-4-3-7-3-0-6-9-0"
             inkscape:path-effect="#path-effect517-5-0-6-7-9-8-0-9-9-1-7-7-53-6-3-7-1-4"
             inkscape:original-d="m 163.26772,489.42021 c 7.40078,0.14864 14.8013,0.297 22.20155,0.44511 5.44893,-2.81051 10.89737,-5.62121 16.34566,-8.43219 1.54586,-2.25499 3.09139,-4.51014 4.63669,-6.76561 -1.51638,4.42381 -3.03296,8.84719 -4.54984,13.27039 -3.57599,3.4816 -7.1521,6.96277 -10.72855,10.44379 -7.14985,-1.27008 -14.29967,-2.54034 -21.44991,-3.81092 -2.15164,-1.71662 -4.30346,-3.43345 -6.4556,-5.15057 z"
             transform="matrix(0.19647325,-0.02636726,0.02636726,0.19647325,131.4228,-38.020466)" /><path
             style="fill:#a5324b;stroke:none;stroke-width:0.5969;stroke-linecap:round;stroke-linejoin:round"
             d="m 72.42734,342.99845 c -0.03474,-2.85044 -0.104216,-8.55155 1.072942,-12.60125 1.177157,-4.0497 3.600863,-6.44761 6.975988,-7.64525 3.375124,-1.19764 7.701189,-1.19498 10.004587,-1.09927 2.303397,0.0957 2.583976,0.28422 1.091369,1.01622 -1.492608,0.732 -4.758114,2.00769 -7.756198,5.03442 -2.998083,3.02673 -5.72838,7.80415 -7.336972,10.90066 -1.608593,3.09651 -2.095393,4.51187 -2.577908,5.43909 -0.482515,0.92722 -0.960778,1.3664 -1.199924,1.58601 -0.239147,0.2196 -0.239147,0.2198 -0.273884,-2.63063 z"
             id="path519-3-6-6-4-4-3-4-9-3-0-4-4-2"
             inkscape:path-effect="#path-effect521-3-4-1-7-4-1-5-1-0-3-5-5-8-5-7-3-6-9"
             inkscape:original-d="m 72.462077,345.84888 c -0.06921,-5.70087 -0.138692,-11.40198 -0.208434,-17.10338 2.424063,-2.39773 4.847762,-4.79565 7.271245,-7.19386 4.326506,0.003 8.652571,0.006 12.978461,0.008 0.280858,0.18881 0.561443,0.37732 0.841766,0.56558 -3.265373,1.276 -6.530879,2.55169 -9.796716,3.82714 -2.730146,4.77787 -5.460444,9.55529 -8.191063,14.33256 -0.486559,1.41568 -0.97336,2.83104 -1.460437,4.24619 -0.47802,0.43945 -0.956283,0.87863 -1.434822,1.31757 z"
             transform="matrix(0.19647325,-0.02636726,0.02636726,0.19647325,131.4228,-38.020466)" /><path
             style="fill:#a5324b;stroke:none;stroke-width:0.5969;stroke-linecap:round;stroke-linejoin:round"
             d="m 153.94679,329.34277 c 0.54398,-0.40918 2.64339,-1.12129 5.82818,-3.53316 3.18479,-2.41187 7.45493,-6.52337 9.81862,-10.0602 2.36368,-3.53684 2.82083,-6.49901 3.11704,-5.72408 0.29622,0.77492 0.43144,5.28678 -0.41556,8.94668 -0.847,3.65991 -2.6761,6.46783 -5.65137,8.15787 -2.97527,1.69004 -7.09677,2.2622 -9.66319,2.49523 -2.56642,0.23302 -3.57771,0.12685 -3.03372,-0.28234 z"
             id="path523-3-2-8-5-1-7-1-7-9-0-3-4-8"
             inkscape:path-effect="#path-effect525-5-8-0-6-8-2-5-5-5-8-6-7-6-6-5-0-4-6"
             inkscape:original-d="m 152.39121,329.64575 c 2.09967,-0.71184 4.19908,-1.42396 6.29822,-2.13633 4.27059,-4.11141 8.54074,-8.2229 12.81071,-12.33477 0.45743,-2.96203 0.91458,-5.9242 1.37147,-8.88669 0.1355,4.51228 0.27072,9.02414 0.40568,13.53584 -1.82891,2.80832 -3.65802,5.61624 -5.48742,8.42397 -4.1214,0.57245 -8.2429,1.14461 -12.36475,1.71651 -1.01106,-0.10591 -2.02234,-0.21209 -3.03391,-0.31853 z"
             transform="matrix(0.19647325,-0.02636726,0.02636726,0.19647325,131.4228,-38.020466)" /><path
             style="fill:#a5324b;stroke:none;stroke-width:0.5969;stroke-linecap:round;stroke-linejoin:round"
             d="m 203.81814,377.95645 c -0.68544,-2.38473 -2.0564,-7.1545 -2.20667,-11.60026 -0.15028,-4.44575 0.92022,-8.56716 3.78381,-11.82948 2.86358,-3.26232 7.51988,-5.66513 10.80345,-6.77566 3.28358,-1.11053 5.19407,-0.92882 6.22933,-0.85234 1.03526,0.0765 1.19533,0.0478 -0.24251,0.74064 -1.43784,0.69286 -4.47339,2.10725 -7.12334,5.31474 -2.64994,3.20749 -4.91396,8.2077 -5.95949,12.28916 -1.04552,4.08146 -0.87257,7.24381 -1.43605,9.6069 -0.56348,2.36309 -1.86329,3.92705 -2.51319,4.70902 -0.64991,0.78198 -0.64991,0.78201 -1.33534,-1.60272 z"
             id="path527-8-6-9-9-9-1-5-2-7-2-8-0-8"
             inkscape:path-effect="#path-effect529-6-71-6-7-1-8-2-4-6-0-4-1-7-3-8-0-9-8"
             inkscape:original-d="m 204.50357,380.34118 c -1.3707,-4.76951 -2.74166,-9.53928 -4.11288,-14.30933 1.07081,-4.12133 2.14131,-8.24274 3.21157,-12.3645 4.65676,-2.40266 9.31306,-4.80545 13.9692,-7.20858 1.91083,0.18198 3.82132,0.3637 5.73158,0.54515 0.16034,-0.0284 0.32041,-0.0571 0.48022,-0.0861 -3.03541,1.4147 -6.07095,2.82911 -9.10683,4.24326 -2.26384,5.00065 -4.52787,10.00085 -6.7922,15.00089 0.17322,3.16273 0.34617,6.32508 0.51886,9.48722 -1.2996,1.5643 -2.59942,3.12825 -3.89952,4.69196 z"
             transform="matrix(0.19647325,-0.02636726,0.02636726,0.19647325,131.4228,-38.020466)" /></g><g
           id="g724-6-6-7-0-3-0-2-0-2-5-2-6-6-49"
           transform="translate(64.247906,-41.852842)"><g
             id="g708-3-0-5-6-5-9-2-8-1-4-2-7-0-8"
             transform="matrix(0.8022269,0,0,0.83269508,18.82373,13.293561)"><path
               style="fill:#4e3d42;stroke:none;stroke-width:0.5969;stroke-linecap:round;stroke-linejoin:round"
               d="m 96.614742,107.06282 h 10.060648 l -4.0339,-27.605736 z"
               id="path594-5-4-6-8-7-8-0-3-6-4-4-0-2-3" /><path
               style="fill:#4e3d42;stroke:none;stroke-width:0.5969;stroke-linecap:round;stroke-linejoin:round"
               d="m 100.16707,92.005967 -4.98866,-8.494485 5.54397,5.565489 z"
               id="path704-6-8-9-7-0-8-2-5-3-9-7-8-2-4" /></g></g></g><g
         id="g724-4-1-4-9-4-1-7-0-6-9-8-2-6"
         transform="matrix(0.30779137,0,0,0.30779137,23.003047,22.500933)"><path
           d="m 100.74592,96.191755 c -1.768499,-0.499886 -4.006812,0.9169 -5.894762,-0.182591 -3.162655,-1.201282 -6.84039,-0.657769 -9.707193,-2.698997 -4.519548,-2.665687 -6.976697,-8.45119 -5.510784,-13.52906 0.01698,-0.692275 0.630107,-1.52338 -0.02799,-2.058448 -3.120667,-3.464274 -2.06374,-9.714024 2.223741,-11.722432 2.103853,-1.757239 5.079696,0.569363 6.863203,-1.410191 3.655131,-3.338077 9.668896,-3.800945 13.633895,-0.735011 2.0978,-0.315313 4.4803,-2.164537 6.88382,-0.893226 2.00855,0.409378 3.14919,2.276771 4.71287,3.224352 4.40826,0.563108 8.07522,4.789104 7.666,9.279903 0.001,1.122143 -0.527,2.231127 -0.57129,3.31115 0.98489,1.849096 1.96146,3.849379 1.53026,6.010988 -0.4451,3.859726 -3.62892,7.310212 -7.56163,7.684683 -1.5798,0.901393 -2.44542,2.927844 -4.30373,3.605491 -2.11147,0.711634 -4.41303,0.483886 -6.47824,-0.168639 -1.69365,-0.02878 -4.413628,-2.205885 -1.92223,-3.373643 2.62577,-0.7255 0.0781,2.445985 -0.82176,3.005509 -0.23423,0.220887 -0.47272,0.437217 -0.71418,0.650162 z"
           style="fill:#efa8c6;stroke-width:0.264583"
           id="path437-5-5-6-4-8-7-9-8-7-8-4-9-1"
           sodipodi:nodetypes="csssssscsssssssccsscsssssscc" /><path
           id="path437-3-0-9-2-3-5-0-8-7-2-5-3-7-6"
           style="fill:#ffd2e7;stroke-width:0.264583"
           d="m 96.627704,61.815444 a 20.335766,19.272421 0 0 0 -10.999329,17.10697 20.335766,19.272421 0 0 0 11.755355,17.46456 c 1.172182,-0.13708 2.3447,-0.4829 3.36207,-0.19533 0.24146,-0.21295 0.47994,-0.42921 0.71417,-0.65009 0.16003,-0.0995 0.37303,-0.284 0.59893,-0.51212 0.60806,0.50544 1.46021,0.86893 2.14509,0.88057 2.0652,0.65252 4.36669,0.8801 6.47815,0.16846 1.85831,-0.67764 2.72433,-2.70407 4.30413,-3.60546 3.93271,-0.37447 7.1162,-3.82508 7.5613,-7.6848 0.4312,-2.16161 -0.54525,-4.16191 -1.53014,-6.011 0.0443,-1.08003 0.57254,-2.18877 0.57154,-3.31091 0.40922,-4.4908 -3.25794,-8.71695 -7.6662,-9.28006 -1.56368,-0.94758 -2.70434,-2.81471 -4.71289,-3.22409 -2.40352,-1.27131 -4.78602,0.57766 -6.88382,0.89297 -1.65041,-1.27618 -3.65586,-1.93916 -5.698356,-2.03967 z" /><g
           id="g708-36-8-5-5-8-6-6-6-1-4-1-7-0"
           transform="matrix(0.8022269,0,0,0.83269508,18.82373,13.293561)"><path
             style="fill:#4e3d42;stroke:none;stroke-width:0.5969;stroke-linecap:round;stroke-linejoin:round"
             d="m 96.614742,107.06282 h 10.060648 l -4.0339,-27.605736 z"
             id="path594-1-48-8-1-2-0-7-5-0-7-1-6-9" /><path
             style="fill:#4e3d42;stroke:none;stroke-width:0.5969;stroke-linecap:round;stroke-linejoin:round"
             d="m 100.16707,92.005967 -4.98866,-8.494485 5.54397,5.565489 z"
             id="path704-0-1-6-7-6-8-0-2-1-8-1-8-1" /></g></g><g
         id="g5475"><path
           style="fill:none;stroke:#000000;stroke-width:0.200644;stroke-linecap:round;stroke-linejoin:round;marker-end:url(#Arrow2)"
           d="m 71.080814,51.249131 c -1.291509,1.254209 -3.090665,1.969847 -4.890787,1.945374 -1.443526,-0.01962 -2.876991,-0.507546 -4.032732,-1.372656"
           id="path57690"
           inkscape:path-effect="#path-effect57692"
           inkscape:original-d="m 71.080814,51.249131 c -1.635267,0.927952 -3.255406,1.017279 -4.890787,1.945374 -1.635382,0.928094 -2.700466,-0.731117 -4.032732,-1.372656"
           sodipodi:nodetypes="csc" /><path
           style="fill:none;stroke:#000000;stroke-width:0.200644;stroke-linecap:round;stroke-linejoin:round;marker-end:url(#Arrow2-2)"
           d="m 61.294853,42.9322 c 1.291513,-1.254203 3.090666,-1.969835 4.890786,-1.945363 1.443526,0.01962 2.876989,0.507542 4.032733,1.372648"
           id="path57690-5"
           inkscape:path-effect="#path-effect57692-6"
           inkscape:original-d="m 61.294853,42.9322 c 1.635266,-0.927948 3.255404,-1.017272 4.890786,-1.945363 1.635381,-0.92809 2.700466,0.731112 4.032733,1.372648"
           sodipodi:nodetypes="csc" /><g
           inkscape:label=""
           transform="matrix(0.65009189,0,0,0.65009189,65.348473,37.723886)"
           id="g4814"><g
   id="surface1"
   transform="matrix(0.529167,0,0,0.529167,-48.9248,-39.7093)">
    <g
   style="fill:#000000;fill-opacity:1"
   id="g14">
      <g
   id="use12"
   transform="translate(91.925003,81.962997)">
        <path
   style="stroke:none"
   d="m 3.5625,-2.90625 c 0.40625,1.046875 0.890625,2.5625 1.046875,2.796875 0.15625,0.21875 0.25,0.21875 0.53125,0.21875 h 0.21875 c 0.09375,-0.015625 0.109375,-0.0625 0.109375,-0.09375 0,-0.03125 -0.03125,-0.0625 -0.0625,-0.09375 C 5.3125,-0.1875 5.25,-0.34375 5.1875,-0.53125 L 3.15625,-6.203125 c -0.21875,-0.578125 -0.75,-0.71875 -1.21875,-0.71875 -0.046875,0 -0.1875,0 -0.1875,0.109375 0,0.078125 0.078125,0.109375 0.09375,0.109375 C 2.171875,-6.65625 2.25,-6.59375 2.5,-5.90625 l 0.953125,2.703125 -2.75,2.734375 c -0.109375,0.125 -0.171875,0.171875 -0.171875,0.3125 0,0.171875 0.140625,0.28125 0.296875,0.28125 0.15625,0 0.25,-0.109375 0.328125,-0.203125 z m 0,0"
   id="path21" />
      </g>
    </g>
  </g>
</g><g
           inkscape:label=""
           transform="matrix(0.65009189,0,0,0.65009189,65.332739,54.392464)"
           id="g5021"><g
   id="g5019"
   transform="matrix(0.529167,0,0,0.529167,-48.7346,-41.0404)">
    <g
   style="fill:#000000;fill-opacity:1"
   id="g5017">
      <g
   id="g5015"
   transform="translate(91.925003,81.962997)">
        <path
   style="stroke:none"
   d="M 0.40625,-2.53125 C 0.796875,-3.671875 1.890625,-3.6875 2,-3.6875 c 1.5,0 1.609375,1.75 1.609375,2.53125 0,0.609375 -0.046875,0.78125 -0.125,0.984375 -0.21875,0.71875 -0.515625,1.875 -0.515625,2.140625 0,0.109375 0.046875,0.171875 0.125,0.171875 0.140625,0 0.21875,-0.21875 0.328125,-0.59375 C 3.65625,0.703125 3.75,0.140625 3.78125,-0.171875 c 0.03125,-0.125 0.046875,-0.25 0.09375,-0.390625 0.3125,-0.984375 0.953125,-2.46875 1.34375,-3.25 0.078125,-0.125 0.1875,-0.34375 0.1875,-0.390625 0,-0.09375 -0.09375,-0.09375 -0.109375,-0.09375 -0.03125,0 -0.09375,0 -0.125,0.0625 C 4.65625,-3.28125 4.25,-2.28125 3.859375,-1.28125 3.84375,-1.578125 3.84375,-2.34375 3.453125,-3.3125 3.203125,-3.921875 2.8125,-4.40625 2.125,-4.40625 c -1.25,0 -1.953125,1.515625 -1.953125,1.828125 0,0.09375 0.09375,0.09375 0.203125,0.09375 z m 0,0"
   id="path5013" />
      </g>
    </g>
  </g>
</g></g></g></g></svg>
