<?xml version="1.0" encoding="UTF-8" standalone="no"?>
<svg
   width="503.55652pt"
   height="419.80469pt"
   viewBox="0 0 503.55653 419.80468"
   version="1.2"
   id="svg711"
   sodipodi:docname="arbre10.svg"
   inkscape:version="1.4.1 (1:1.4.1+202503302257+93de688d07)"
   inkscape:export-filename="arbre1.svg"
   inkscape:export-xdpi="320"
   inkscape:export-ydpi="320"
   xmlns:inkscape="http://www.inkscape.org/namespaces/inkscape"
   xmlns:sodipodi="http://sodipodi.sourceforge.net/DTD/sodipodi-0.dtd"
   xmlns="http://www.w3.org/2000/svg"
   xmlns:svg="http://www.w3.org/2000/svg">
  <sodipodi:namedview
     id="namedview711"
     pagecolor="#ffffff"
     bordercolor="#666666"
     borderopacity="1.0"
     inkscape:showpageshadow="2"
     inkscape:pageopacity="0.0"
     inkscape:pagecheckerboard="0"
     inkscape:deskcolor="#d1d1d1"
     inkscape:document-units="pt"
     inkscape:zoom="1.2677771"
     inkscape:cx="331.28853"
     inkscape:cy="305.65311"
     inkscape:window-width="1850"
     inkscape:window-height="1016"
     inkscape:window-x="0"
     inkscape:window-y="0"
     inkscape:window-maximized="1"
     inkscape:current-layer="surface4059148">
    <inkscape:page
       x="0"
       y="0"
       width="503.55652"
       height="419.80469"
       id="page2"
       margin="0"
       bleed="0" />
  </sodipodi:namedview>
  <defs
     id="defs2">
    <clipPath
       id="clip1">
      <path
         d="m 482,0 h 21.55469 V 20 H 482 Z m 0,0"
         id="path1" />
    </clipPath>
    <clipPath
       id="clip2">
      <path
         d="m 0,392 h 14 v 27.80469 H 0 Z m 0,0"
         id="path2" />
    </clipPath>
  </defs>
  <g
     id="surface4059148">
    <path
       style="fill:#eea6c5;fill-opacity:1;fill-rule:nonzero;stroke:none"
       d="m 289.55078,79.59375 c -2.00391,-0.566406 -4.53906,1.039062 -6.67578,-0.207031 -3.58203,-1.359375 -7.74609,-0.742188 -10.99609,-3.054688 -5.11719,-3.019531 -7.89844,-9.570312 -6.23829,-15.324219 0.0195,-0.78125 0.71094,-1.722656 -0.0312,-2.328124 -3.53515,-3.925782 -2.33984,-11.003907 2.51563,-13.277344 2.38281,-1.992188 5.75391,0.644531 7.77344,-1.597656 4.14062,-3.78125 10.95312,-4.304688 15.4414,-0.832032 2.375,-0.359375 5.07422,-2.453125 7.79688,-1.011718 2.27344,0.464843 3.5664,2.578124 5.33594,3.652343 4.99218,0.636719 9.14843,5.421875 8.68359,10.507813 0,1.273437 -0.59766,2.527344 -0.64844,3.75 1.11719,2.09375 2.22266,4.359375 1.73438,6.808594 -0.50391,4.371093 -4.10938,8.28125 -8.5625,8.703124 -1.78907,1.019532 -2.76953,3.316407 -4.875,4.082032 -2.39063,0.808594 -5,0.550781 -7.33594,-0.1875 -1.91797,-0.03516 -5,-2.5 -2.17969,-3.824219 2.97656,-0.820313 0.0899,2.773437 -0.92969,3.40625 -0.26562,0.25 -0.53515,0.496094 -0.80859,0.734375 z m 0,0"
       id="path3" />
    <path
       style="fill:#ffd1e6;fill-opacity:1;fill-rule:nonzero;stroke:none"
       d="m 284.88672,40.660156 c -7.64453,3.746094 -12.44922,11.21875 -12.45703,19.375 0.004,8.488282 5.19531,16.199219 13.3125,19.78125 1.32812,-0.15625 2.65625,-0.546875 3.80859,-0.222656 0.27344,-0.238281 0.54297,-0.484375 0.80859,-0.734375 0.17969,-0.113281 0.42188,-0.324219 0.67969,-0.582031 0.6875,0.574218 1.65235,0.984375 2.42969,1 2.33594,0.738281 4.94531,0.996094 7.33594,0.1875 2.10547,-0.765625 3.08593,-3.0625 4.875,-4.082032 4.45312,-0.421874 8.05859,-4.332031 8.5625,-8.703124 0.48828,-2.449219 -0.61719,-4.714844 -1.73438,-6.808594 0.0508,-1.222656 0.64844,-2.476563 0.64844,-3.75 0.46484,-5.085938 -3.6875,-9.871094 -8.68359,-10.507813 -1.76954,-1.074219 -3.0625,-3.1875 -5.33594,-3.652343 -2.72266,-1.441407 -5.42188,0.652343 -7.79688,1.011718 -1.86718,-1.445312 -4.14062,-2.195312 -6.45312,-2.3125 z m 0,0"
       id="path4" />
    <path
       style="fill:#4c3a3f;fill-opacity:1;fill-rule:nonzero;stroke:none"
       d="m 284.55078,86.675781 h 9.14063 l -3.66407,-26.035156 z m 0,0"
       id="path5" />
    <path
       style="fill:#4c3a3f;fill-opacity:1;fill-rule:nonzero;stroke:none"
       d="m 287.77734,72.476562 -4.53125,-8.011718 5.03516,5.25 z m 0,0"
       id="path6" />
    <path
       style="fill:#eea6c5;fill-opacity:1;fill-rule:nonzero;stroke:none"
       d="M 71.996094,79.59375 C 69.992188,79.027344 67.457031,80.632812 65.320312,79.386719 61.738281,78.027344 57.574219,78.644531 54.324219,76.332031 49.207031,73.3125 46.425781,66.761719 48.085938,61.007812 c 0.01953,-0.78125 0.710937,-1.722656 -0.03125,-2.328124 -3.535157,-3.925782 -2.339844,-11.003907 2.515624,-13.277344 2.382813,-1.992188 5.753907,0.644531 7.773438,-1.597656 4.140625,-3.78125 10.953125,-4.304688 15.441406,-0.832032 2.375,-0.359375 5.074219,-2.453125 7.796875,-1.011718 2.273438,0.464843 3.566407,2.578124 5.335938,3.652343 4.992187,0.636719 9.148437,5.421875 8.683593,10.507813 0,1.273437 -0.597656,2.527344 -0.648437,3.75 1.117187,2.09375 2.222656,4.359375 1.734375,6.808594 -0.503906,4.371093 -4.109375,8.28125 -8.5625,8.703124 -1.789062,1.019532 -2.769531,3.316407 -4.875,4.082032 -2.390625,0.808594 -5,0.550781 -7.335938,-0.1875 -1.917968,-0.03516 -5,-2.5 -2.179687,-3.824219 2.976563,-0.820313 0.08984,2.773437 -0.929687,3.40625 -0.265626,0.25 -0.535157,0.496094 -0.808594,0.734375 z m 0,0"
       id="path7" />
    <path
       style="fill:#ffd1e6;fill-opacity:1;fill-rule:nonzero;stroke:none"
       d="M 67.332031,40.660156 C 59.6875,44.40625 54.882812,51.878906 54.875,60.035156 c 0.0039,8.488282 5.195312,16.199219 13.3125,19.78125 1.328125,-0.15625 2.65625,-0.546875 3.808594,-0.222656 0.273437,-0.238281 0.542968,-0.484375 0.808594,-0.734375 0.179687,-0.113281 0.421874,-0.324219 0.679687,-0.582031 0.6875,0.574218 1.652344,0.984375 2.429687,1 2.335938,0.738281 4.945313,0.996094 7.335938,0.1875 2.105469,-0.765625 3.085938,-3.0625 4.875,-4.082032 4.453125,-0.421874 8.058594,-4.332031 8.5625,-8.703124 0.488281,-2.449219 -0.617188,-4.714844 -1.734375,-6.808594 0.05078,-1.222656 0.648437,-2.476563 0.648437,-3.75 0.464844,-5.085938 -3.691406,-9.871094 -8.683593,-10.507813 -1.769531,-1.074219 -3.0625,-3.1875 -5.335938,-3.652343 -2.722656,-1.441407 -5.421875,0.652343 -7.796875,1.011718 -1.867187,-1.445312 -4.140625,-2.195312 -6.453125,-2.3125 z m 0,0"
       id="path8" />
    <path
       style="fill:#4c3a3f;fill-opacity:1;fill-rule:nonzero;stroke:none"
       d="m 66.996094,86.675781 h 9.140625 L 72.472656,60.640625 Z m 0,0"
       id="path9" />
    <path
       style="fill:#4c3a3f;fill-opacity:1;fill-rule:nonzero;stroke:none"
       d="m 70.222656,72.476562 -4.53125,-8.011718 5.035156,5.25 z m 0,0"
       id="path10" />
    <path
       style="fill:#eea6c5;fill-opacity:1;fill-rule:nonzero;stroke:none"
       d="m 115.50781,79.59375 c -2.0039,-0.566406 -4.53906,1.039062 -6.67578,-0.207031 -3.58203,-1.359375 -7.75,-0.742188 -10.996092,-3.054688 C 92.71875,73.3125 89.933594,66.761719 91.59375,61.007812 c 0.01953,-0.78125 0.714844,-1.722656 -0.03125,-2.328124 -3.535156,-3.925782 -2.335938,-11.003907 2.519531,-13.277344 2.382813,-1.992188 5.753907,0.644531 7.773439,-1.597656 4.14062,-3.78125 10.94922,-4.304688 15.44141,-0.832032 2.375,-0.359375 5.07421,-2.453125 7.79687,-1.011718 2.27344,0.464843 3.56641,2.578124 5.33594,3.652343 4.99218,0.636719 9.14453,5.421875 8.68359,10.507813 0,1.273437 -0.59766,2.527344 -0.64844,3.75 1.11719,2.09375 2.22266,4.359375 1.73438,6.808594 -0.50391,4.371093 -4.10938,8.28125 -8.56641,8.703124 -1.78906,1.019532 -2.76953,3.316407 -4.87109,4.082032 -2.39453,0.808594 -5,0.550781 -7.33984,-0.1875 -1.91797,-0.03516 -4.9961,-2.5 -2.17579,-3.824219 2.97266,-0.820313 0.0898,2.773437 -0.92968,3.40625 -0.26563,0.25 -0.53516,0.496094 -0.8086,0.734375 z m 0,0"
       id="path11" />
    <path
       style="fill:#ffd1e6;fill-opacity:1;fill-rule:nonzero;stroke:none"
       d="m 110.84375,40.660156 c -7.64844,3.746094 -12.453125,11.21875 -12.457031,19.375 0.0039,8.488282 5.195311,16.199219 13.312501,19.78125 1.32812,-0.15625 2.65625,-0.546875 3.80859,-0.222656 0.27344,-0.238281 0.54297,-0.484375 0.8086,-0.734375 0.17968,-0.113281 0.42187,-0.324219 0.67578,-0.582031 0.6914,0.574218 1.65625,0.984375 2.42969,1 2.33984,0.738281 4.94531,0.996094 7.33593,0.1875 2.10547,-0.765625 3.08594,-3.0625 4.875,-4.082032 4.45703,-0.421874 8.0625,-4.332031 8.56641,-8.703124 0.48828,-2.449219 -0.61719,-4.714844 -1.73438,-6.808594 0.0508,-1.222656 0.64844,-2.476563 0.64844,-3.75 0.46094,-5.085938 -3.69141,-9.871094 -8.68359,-10.507813 -1.76953,-1.074219 -3.0625,-3.1875 -5.33594,-3.652343 -2.72266,-1.441407 -5.42187,0.652343 -7.79687,1.011718 -1.8711,-1.445312 -4.14063,-2.195312 -6.45313,-2.3125 z m 0,0"
       id="path12" />
    <path
       style="fill:#4c3a3f;fill-opacity:1;fill-rule:nonzero;stroke:none"
       d="m 110.50781,86.675781 h 9.14063 l -3.66797,-26.035156 z m 0,0"
       id="path13" />
    <path
       style="fill:#4c3a3f;fill-opacity:1;fill-rule:nonzero;stroke:none"
       d="m 113.73438,72.476562 -4.53516,-8.011718 5.03906,5.25 z m 0,0"
       id="path14" />
    <path
       style="fill:#eea6c5;fill-opacity:1;fill-rule:nonzero;stroke:none"
       d="m 159.01953,79.59375 c -2.00391,-0.566406 -4.53906,1.039062 -6.67969,-0.207031 -3.58203,-1.359375 -7.74609,-0.742188 -10.99218,-3.054688 -5.11719,-3.019531 -7.90235,-9.570312 -6.24219,-15.324219 0.0195,-0.78125 0.71484,-1.722656 -0.0312,-2.328124 -3.53516,-3.925782 -2.33594,-11.003907 2.51953,-13.277344 2.38281,-1.992188 5.75391,0.644531 7.77344,-1.597656 4.13672,-3.78125 10.94922,-4.304688 15.4414,-0.832032 2.375,-0.359375 5.07422,-2.453125 7.79688,-1.011718 2.27344,0.464843 3.5664,2.578124 5.33594,3.652343 4.99218,0.636719 9.14453,5.421875 8.68359,10.507813 0,1.273437 -0.59766,2.527344 -0.64844,3.75 1.11328,2.09375 2.22266,4.359375 1.73438,6.808594 -0.50391,4.371093 -4.11328,8.28125 -8.56641,8.703124 -1.78906,1.019532 -2.76953,3.316407 -4.875,4.082032 -2.39062,0.808594 -4.99609,0.550781 -7.33594,-0.1875 -1.91797,-0.03516 -4.99609,-2.5 -2.17578,-3.824219 2.97266,-0.820313 0.0898,2.773437 -0.92969,3.40625 -0.26562,0.25 -0.53515,0.496094 -0.80859,0.734375 z m 0,0"
       id="path15" />
    <path
       style="fill:#ffd1e6;fill-opacity:1;fill-rule:nonzero;stroke:none"
       d="m 154.35547,40.660156 c -7.64844,3.746094 -12.45313,11.21875 -12.46094,19.375 0.004,8.488282 5.19922,16.199219 13.31641,19.78125 1.32812,-0.15625 2.65625,-0.546875 3.80859,-0.222656 0.27344,-0.238281 0.54297,-0.484375 0.80859,-0.734375 0.17969,-0.113281 0.42188,-0.324219 0.67579,-0.582031 0.6914,0.574218 1.65625,0.984375 2.42968,1 2.33985,0.738281 4.94532,0.996094 7.33594,0.1875 2.10547,-0.765625 3.08594,-3.0625 4.875,-4.082032 4.45703,-0.421874 8.0625,-4.332031 8.56641,-8.703124 0.48828,-2.449219 -0.6211,-4.714844 -1.73438,-6.808594 0.0508,-1.222656 0.64844,-2.476563 0.64844,-3.75 0.46094,-5.085938 -3.69141,-9.871094 -8.68359,-10.507813 -1.76954,-1.074219 -3.0625,-3.1875 -5.33594,-3.652343 -2.72266,-1.441407 -5.42188,0.652343 -7.79688,1.011718 -1.87109,-1.445312 -4.14062,-2.195312 -6.45312,-2.3125 z m 0,0"
       id="path16" />
    <path
       style="fill:#4c3a3f;fill-opacity:1;fill-rule:nonzero;stroke:none"
       d="m 154.01562,86.675781 h 9.14063 l -3.66406,-26.035156 z m 0,0"
       id="path17" />
    <path
       style="fill:#4c3a3f;fill-opacity:1;fill-rule:nonzero;stroke:none"
       d="m 157.24609,72.476562 -4.53515,-8.011718 5.03906,5.25 z m 0,0"
       id="path18" />
    <path
       style="fill:#eea6c5;fill-opacity:1;fill-rule:nonzero;stroke:none"
       d="m 202.52734,79.59375 c -2,-0.566406 -4.53515,1.039062 -6.67578,-0.207031 -3.58203,-1.359375 -7.74609,-0.742188 -10.99219,-3.054688 -5.11718,-3.019531 -7.90234,-9.570312 -6.24218,-15.324219 0.0195,-0.78125 0.71484,-1.722656 -0.0312,-2.328124 -3.53516,-3.925782 -2.33594,-11.003907 2.51953,-13.277344 2.38281,-1.992188 5.7539,0.644531 7.77344,-1.597656 4.13671,-3.78125 10.94921,-4.304688 15.4414,-0.832032 2.375,-0.359375 5.07422,-2.453125 7.79297,-1.011718 2.27734,0.464843 3.56641,2.578124 5.33984,3.652343 4.99219,0.636719 9.14454,5.421875 8.67969,10.507813 0.004,1.273437 -0.59375,2.527344 -0.64453,3.75 1.11328,2.09375 2.22266,4.359375 1.73047,6.808594 -0.50391,4.371093 -4.10938,8.28125 -8.5625,8.703124 -1.78906,1.019532 -2.76953,3.316407 -4.875,4.082032 -2.39063,0.808594 -4.99609,0.550781 -7.33594,-0.1875 -1.91797,-0.03516 -5,-2.5 -2.17578,-3.824219 2.97266,-0.820313 0.0859,2.773437 -0.93359,3.40625 -0.26172,0.25 -0.53516,0.496094 -0.8086,0.734375 z m 0,0"
       id="path19" />
    <path
       style="fill:#ffd1e6;fill-opacity:1;fill-rule:nonzero;stroke:none"
       d="m 197.86328,40.660156 c -7.64453,3.746094 -12.44922,11.21875 -12.45703,19.375 0.004,8.488282 5.19922,16.199219 13.31641,19.78125 1.32421,-0.15625 2.65234,-0.546875 3.80468,-0.222656 0.27344,-0.238281 0.54688,-0.484375 0.8086,-0.734375 0.18359,-0.113281 0.42578,-0.324219 0.67968,-0.582031 0.6875,0.574218 1.65235,0.984375 2.42969,1 2.33985,0.738281 4.94531,0.996094 7.33594,0.1875 2.10547,-0.765625 3.08594,-3.0625 4.875,-4.082032 4.45312,-0.421874 8.05859,-4.332031 8.5625,-8.703124 0.48828,-2.449219 -0.61719,-4.714844 -1.73047,-6.808594 0.0508,-1.222656 0.64844,-2.476563 0.64844,-3.75 0.46094,-5.085938 -3.69141,-9.871094 -8.6836,-10.507813 -1.77343,-1.074219 -3.0625,-3.1875 -5.33984,-3.652343 -2.71875,-1.441407 -5.41797,0.652343 -7.79297,1.011718 -1.87109,-1.445312 -4.14062,-2.195312 -6.45703,-2.3125 z m 0,0"
       id="path20" />
    <path
       style="fill:#4c3a3f;fill-opacity:1;fill-rule:nonzero;stroke:none"
       d="m 197.52734,86.675781 h 9.14063 l -3.66406,-26.035156 z m 0,0"
       id="path21" />
    <path
       style="fill:#4c3a3f;fill-opacity:1;fill-rule:nonzero;stroke:none"
       d="m 200.75781,72.476562 -4.53515,-8.011718 5.03906,5.25 z m 0,0"
       id="path22" />
    <path
       style="fill:#eea6c5;fill-opacity:1;fill-rule:nonzero;stroke:none"
       d="m 333.0625,79.59375 c -2.00391,-0.566406 -4.53906,1.039062 -6.67578,-0.207031 -3.58203,-1.359375 -7.7461,-0.742188 -10.99219,-3.054688 -5.12109,-3.019531 -7.90234,-9.570312 -6.24219,-15.324219 0.0195,-0.78125 0.71094,-1.722656 -0.0312,-2.328124 -3.53515,-3.925782 -2.33984,-11.003907 2.51563,-13.277344 2.38281,-1.992188 5.7539,0.644531 7.77344,-1.597656 4.14062,-3.78125 10.95312,-4.304688 15.4414,-0.832032 2.375,-0.359375 5.07422,-2.453125 7.79688,-1.011718 2.27343,0.464843 3.5664,2.578124 5.33593,3.652343 4.9961,0.636719 9.14844,5.421875 8.6836,10.507813 0,1.273437 -0.59766,2.527344 -0.64844,3.75 1.11719,2.09375 2.22266,4.359375 1.73438,6.808594 -0.50391,4.371093 -4.10938,8.28125 -8.5625,8.703124 -1.78907,1.019532 -2.76954,3.316407 -4.875,4.082032 -2.39063,0.808594 -5,0.550781 -7.33594,-0.1875 -1.91797,-0.03516 -5,-2.5 -2.17969,-3.824219 2.97656,-0.820313 0.0898,2.773437 -0.92969,3.40625 -0.26562,0.25 -0.53515,0.496094 -0.80859,0.734375 z m 0,0"
       id="path23" />
    <path
       style="fill:#ffd1e6;fill-opacity:1;fill-rule:nonzero;stroke:none"
       d="m 328.39844,40.660156 c -7.64453,3.746094 -12.44922,11.21875 -12.45703,19.375 0.004,8.488282 5.19531,16.199219 13.3125,19.78125 1.32812,-0.15625 2.65625,-0.546875 3.80859,-0.222656 0.27344,-0.238281 0.54297,-0.484375 0.80859,-0.734375 0.1836,-0.113281 0.42188,-0.324219 0.67969,-0.582031 0.6875,0.574218 1.65234,0.984375 2.42969,1 2.33594,0.738281 4.94531,0.996094 7.33594,0.1875 2.10546,-0.765625 3.08593,-3.0625 4.875,-4.082032 4.45312,-0.421874 8.05859,-4.332031 8.5625,-8.703124 0.48828,-2.449219 -0.61719,-4.714844 -1.73438,-6.808594 0.0508,-1.222656 0.64844,-2.476563 0.64844,-3.75 0.46484,-5.085938 -3.6875,-9.871094 -8.6836,-10.507813 -1.76953,-1.074219 -3.0625,-3.1875 -5.33593,-3.652343 -2.72266,-1.441407 -5.42188,0.652343 -7.79688,1.011718 -1.86719,-1.445312 -4.14062,-2.195312 -6.45312,-2.3125 z m 0,0"
       id="path24" />
    <path
       style="fill:#4c3a3f;fill-opacity:1;fill-rule:nonzero;stroke:none"
       d="m 328.0625,86.675781 h 9.14062 l -3.66406,-26.035156 z m 0,0"
       id="path25" />
    <path
       style="fill:#4c3a3f;fill-opacity:1;fill-rule:nonzero;stroke:none"
       d="m 331.28906,72.476562 -4.53125,-8.011718 5.03516,5.25 z m 0,0"
       id="path26" />
    <path
       style="fill:#eea6c5;fill-opacity:1;fill-rule:nonzero;stroke:none"
       d="m 376.57422,79.59375 c -2.00391,-0.566406 -4.53906,1.039062 -6.67578,-0.207031 -3.58203,-1.359375 -7.75,-0.742188 -10.9961,-3.054688 C 353.78516,73.3125 351,66.761719 352.66016,61.007812 c 0.0195,-0.78125 0.71484,-1.722656 -0.0312,-2.328124 -3.53125,-3.925782 -2.33594,-11.003907 2.51953,-13.277344 2.38281,-1.992188 5.7539,0.644531 7.77343,-1.597656 4.14063,-3.78125 10.94922,-4.304688 15.44141,-0.832032 2.375,-0.359375 5.07422,-2.453125 7.79688,-1.011718 2.27343,0.464843 3.5664,2.578124 5.33593,3.652343 4.99219,0.636719 9.14453,5.421875 8.6836,10.507813 0,1.273437 -0.59766,2.527344 -0.64844,3.75 1.11719,2.09375 2.22266,4.359375 1.73437,6.808594 -0.5039,4.371093 -4.10937,8.28125 -8.5664,8.703124 -1.78906,1.019532 -2.76953,3.316407 -4.8711,4.082032 -2.39453,0.808594 -5,0.550781 -7.33984,-0.1875 -1.91797,-0.03516 -4.99609,-2.5 -2.17578,-3.824219 2.97266,-0.820313 0.0898,2.773437 -0.92969,3.40625 -0.26562,0.25 -0.53515,0.496094 -0.80859,0.734375 z m 0,0"
       id="path27" />
    <path
       style="fill:#ffd1e6;fill-opacity:1;fill-rule:nonzero;stroke:none"
       d="m 371.91016,40.660156 c -7.64844,3.746094 -12.45313,11.21875 -12.45704,19.375 0.004,8.488282 5.19532,16.199219 13.3125,19.78125 1.32813,-0.15625 2.65625,-0.546875 3.8086,-0.222656 0.27344,-0.238281 0.54297,-0.484375 0.80859,-0.734375 0.17969,-0.113281 0.42188,-0.324219 0.67578,-0.582031 0.69141,0.574218 1.65625,0.984375 2.42969,1 2.33984,0.738281 4.94531,0.996094 7.33984,0.1875 2.10157,-0.765625 3.08204,-3.0625 4.875,-4.082032 4.45313,-0.421874 8.0586,-4.332031 8.5625,-8.703124 0.48829,-2.449219 -0.61718,-4.714844 -1.73437,-6.808594 0.0508,-1.222656 0.64844,-2.476563 0.64844,-3.75 0.46484,-5.085938 -3.69141,-9.871094 -8.6836,-10.507813 -1.76953,-1.074219 -3.0625,-3.1875 -5.33593,-3.652343 -2.72266,-1.441407 -5.42188,0.652343 -7.79688,1.011718 -1.87109,-1.445312 -4.14062,-2.195312 -6.45312,-2.3125 z m 0,0"
       id="path28" />
    <path
       style="fill:#4c3a3f;fill-opacity:1;fill-rule:nonzero;stroke:none"
       d="m 371.57422,86.675781 h 9.14062 l -3.66797,-26.035156 z m 0,0"
       id="path29" />
    <path
       style="fill:#4c3a3f;fill-opacity:1;fill-rule:nonzero;stroke:none"
       d="m 374.80078,72.476562 -4.53125,-8.011718 5.03516,5.25 z m 0,0"
       id="path30" />
    <path
       style="fill:#eea6c5;fill-opacity:1;fill-rule:nonzero;stroke:none"
       d="m 420.08594,79.59375 c -2.00391,-0.566406 -4.53907,1.039062 -6.67578,-0.207031 -3.58204,-1.359375 -7.75,-0.742188 -10.9961,-3.054688 -5.11719,-3.019531 -7.90234,-9.570312 -6.24219,-15.324219 0.0195,-0.78125 0.71485,-1.722656 -0.0312,-2.328124 -3.53515,-3.925782 -2.33593,-11.003907 2.51954,-13.277344 2.38281,-1.992188 5.7539,0.644531 7.77343,-1.597656 4.14063,-3.78125 10.94922,-4.304688 15.44141,-0.832032 2.375,-0.359375 5.07422,-2.453125 7.79687,-1.011718 2.27344,0.464843 3.56641,2.578124 5.33594,3.652343 4.99219,0.636719 9.14453,5.421875 8.6836,10.507813 0,1.273437 -0.59766,2.527344 -0.64844,3.75 1.11719,2.09375 2.22265,4.359375 1.73437,6.808594 -0.5039,4.371093 -4.10937,8.28125 -8.5664,8.703124 -1.78907,1.019532 -2.76953,3.316407 -4.8711,4.082032 -2.39453,0.808594 -5,0.550781 -7.33984,-0.1875 -1.91797,-0.03516 -4.99609,-2.5 -2.17578,-3.824219 2.97265,-0.820313 0.0898,2.773437 -0.92969,3.40625 -0.26562,0.25 -0.53516,0.496094 -0.80859,0.734375 z m 0,0"
       id="path31" />
    <path
       style="fill:#ffd1e6;fill-opacity:1;fill-rule:nonzero;stroke:none"
       d="m 415.42187,40.660156 c -7.64843,3.746094 -12.45312,11.21875 -12.45703,19.375 0.004,8.488282 5.19532,16.199219 13.3125,19.78125 1.32813,-0.15625 2.65625,-0.546875 3.8086,-0.222656 0.27343,-0.238281 0.54297,-0.484375 0.80859,-0.734375 0.17969,-0.113281 0.42188,-0.324219 0.67578,-0.582031 0.69141,0.574218 1.65625,0.984375 2.42969,1 2.33984,0.738281 4.94531,0.996094 7.33984,0.1875 2.10157,-0.765625 3.08203,-3.0625 4.8711,-4.082032 4.45703,-0.421874 8.0625,-4.332031 8.5664,-8.703124 0.48828,-2.449219 -0.61718,-4.714844 -1.73437,-6.808594 0.0508,-1.222656 0.64844,-2.476563 0.64844,-3.75 C 444.15234,51.035156 440,46.25 435.00781,45.613281 c -1.76953,-1.074219 -3.0625,-3.1875 -5.33594,-3.652343 -2.72265,-1.441407 -5.42187,0.652343 -7.79687,1.011718 -1.87109,-1.445312 -4.14063,-2.195312 -6.45313,-2.3125 z m 0,0"
       id="path32" />
    <path
       style="fill:#4c3a3f;fill-opacity:1;fill-rule:nonzero;stroke:none"
       d="m 415.08594,86.675781 h 9.14062 l -3.66797,-26.035156 z m 0,0"
       id="path33" />
    <path
       style="fill:#4c3a3f;fill-opacity:1;fill-rule:nonzero;stroke:none"
       d="m 418.3125,72.476562 -4.53516,-8.011718 5.03907,5.25 z m 0,0"
       id="path34" />
    <path
       style="fill:#a3304a;fill-opacity:1;fill-rule:nonzero;stroke:none"
       d="m 252.67578,78.042969 c -3.24609,-0.414063 -9.30859,-1.21875 -13.41406,-2.109375 C 235.15234,75.042969 233,74.0625 231.23047,72.644531 c -1.76563,-1.417969 -3.14453,-3.277343 -3.9961,-5.277343 -0.85156,-2 -1.17968,-4.144532 -0.60937,-6.167969 0.57031,-2.027344 2.03906,-3.929688 3.23047,-5.386719 1.1914,-1.453125 2.10547,-2.457031 2.57422,-3.246094 0.46875,-0.789062 0.49218,-1.363281 0.5039,-1.726562 0.0156,-0.367188 0.0273,-0.527344 0.0508,-0.06641 0.0234,0.457031 0.0664,1.535156 0.3086,2.269531 0.23828,0.734375 0.67969,1.125 0.89844,1.164062 0.22265,0.03906 0.22265,-0.269531 0.60546,-1.226562 0.37891,-0.957031 1.13672,-2.558594 2.28516,-3.796875 1.14844,-1.238282 2.69141,-2.113282 4.22656,-2.625 1.53907,-0.507813 3.07422,-0.65625 4.34375,-0.914063 1.26953,-0.261719 2.26563,-0.628906 2.82032,-0.84375 0.55468,-0.210937 0.66406,-0.269531 0.13281,0.21875 -0.53125,0.484375 -1.69922,1.511719 -2.02344,1.980469 -0.32422,0.472656 0.19922,0.378906 1.67188,0.05859 1.47656,-0.320313 3.90625,-0.875 5.90234,-1.8125 1.99219,-0.9375 3.55469,-2.257813 4.42187,-3.386719 0.86719,-1.128906 1.03907,-2.066406 1.1211,-2.550781 0.082,-0.484375 0.0703,-0.511719 0.29297,0.757812 0.22265,1.269532 0.67578,3.832032 0.625,6.488282 -0.0508,2.65625 -0.60157,5.402343 -0.85157,7.007812 -0.24609,1.609375 -0.1875,2.074219 0.0703,2.222656 0.25781,0.144532 0.71875,-0.02734 0.97265,-0.351562 0.25391,-0.328125 0.30469,-0.8125 0.32032,-1.035156 0.0156,-0.222657 -0.004,-0.191407 0.24609,0.449218 0.25,0.644532 0.76562,1.890625 1.21094,3.261719 0.44531,1.371094 0.8164,2.863281 0.91015,4.445313 0.0899,1.578124 -0.0937,3.246093 -0.21484,4.214843 -0.12109,0.96875 -0.17969,1.238281 0.0781,1.117188 0.25782,-0.117188 0.82813,-0.621094 1.29688,-1.347657 0.46875,-0.730468 0.83203,-1.679687 1.09766,-2.28125 0.26562,-0.601562 0.43359,-0.855468 0.3164,-0.0625 -0.11328,0.792969 -0.50781,2.632813 -0.69531,4.367188 -0.19141,1.738281 -0.17188,3.375 -0.80859,4.773438 -0.64063,1.402343 -1.9336,2.566406 -3.33985,3.390624 -1.40625,0.824219 -2.92187,1.304688 -3.89844,1.535157 -0.97656,0.226562 -1.40625,0.199219 -4.65234,-0.21875 z m 0,0"
       id="path35" />
    <path
       style="fill:#eea6c5;fill-opacity:1;fill-rule:nonzero;stroke:none"
       d="m 250.33203,74.144531 c -1.97656,-0.261719 -5.92578,-0.785156 -8.60547,-1.367187 -2.67969,-0.578125 -4.08203,-1.21875 -5.23437,-2.140625 -1.15235,-0.925781 -2.05078,-2.140625 -2.60938,-3.445313 -0.55469,-1.304687 -0.76953,-2.703125 -0.39453,-4.019531 0.37109,-1.320313 1.32813,-2.5625 2.10547,-3.511719 0.77734,-0.949218 1.375,-1.605468 1.67969,-2.117187 0.30468,-0.515625 0.32031,-0.890625 0.32812,-1.128907 0.0117,-0.238281 0.0156,-0.339843 0.0312,-0.04297 0.0195,0.300781 0.043,1.003906 0.20313,1.480468 0.15625,0.480469 0.4414,0.734376 0.58593,0.761719 0.14454,0.02344 0.14454,-0.179687 0.39454,-0.800781 0.24609,-0.625 0.74218,-1.667969 1.49218,-2.476562 0.7461,-0.808594 1.75,-1.378907 2.75391,-1.710938 1.00391,-0.332031 2.00391,-0.429688 2.83203,-0.597656 0.82813,-0.167969 1.47656,-0.410156 1.83984,-0.546875 0.35938,-0.140625 0.42969,-0.175781 0.0859,0.140625 -0.34765,0.316406 -1.10937,0.988281 -1.32031,1.292968 -0.21094,0.304688 0.12891,0.246094 1.09375,0.03516 0.96094,-0.207031 2.54297,-0.570313 3.84375,-1.179688 1.30078,-0.613281 2.32031,-1.472656 2.88672,-2.207031 0.5664,-0.738281 0.67578,-1.351562 0.73047,-1.664062 0.0508,-0.316407 0.0469,-0.335938 0.1914,0.492187 0.14453,0.828125 0.44141,2.5 0.40625,4.230469 -0.0312,1.734375 -0.39062,3.523437 -0.55468,4.570312 -0.16016,1.046875 -0.1211,1.351563 0.0469,1.449219 0.16797,0.09375 0.46875,-0.01563 0.63281,-0.230469 0.16797,-0.214844 0.19922,-0.527344 0.21094,-0.671875 0.008,-0.148437 -0.004,-0.125 0.15625,0.292969 0.16406,0.417969 0.50391,1.230469 0.79297,2.125 0.28906,0.894531 0.53125,1.867188 0.59375,2.898438 0.0586,1.03125 -0.0625,2.117187 -0.14063,2.75 -0.082,0.632812 -0.11718,0.804687 0.0508,0.726562 0.16796,-0.07422 0.53906,-0.40625 0.84375,-0.878906 0.30468,-0.476563 0.54296,-1.09375 0.71484,-1.488282 0.17578,-0.390624 0.28516,-0.558593 0.21094,-0.03906 -0.0742,0.515625 -0.33203,1.714844 -0.45703,2.847656 -0.1211,1.132813 -0.10938,2.199219 -0.52735,3.113282 -0.41406,0.914062 -1.25781,1.671874 -2.17578,2.210937 -0.91797,0.535156 -1.90625,0.851563 -2.54297,1 -0.63672,0.148437 -0.91797,0.128906 -1.05859,0.121094 -0.14063,-0.01172 -0.14063,-0.01172 -2.11719,-0.273438 z m 0,0"
       id="path36" />
    <path
       style="fill:#ffe3f3;fill-opacity:1;fill-rule:nonzero;stroke:none"
       d="m 248.74609,71.621094 c -1.15234,-0.152344 -3.46093,-0.460938 -5.02343,-0.796875 -1.56641,-0.339844 -2.38672,-0.714844 -3.0586,-1.253907 -0.67187,-0.539062 -1.19531,-1.246093 -1.52344,-2.007812 -0.32421,-0.761719 -0.44921,-1.578125 -0.23046,-2.351562 0.21875,-0.769532 0.77734,-1.496094 1.23046,-2.046876 0.45313,-0.554687 0.80079,-0.9375 0.98047,-1.238281 0.17969,-0.300781 0.1875,-0.515625 0.19141,-0.65625 0.008,-0.140625 0.008,-0.199219 0.0195,-0.02734 0.008,0.175781 0.0234,0.585937 0.11719,0.867187 0.0898,0.277344 0.25781,0.425781 0.34375,0.441406 0.082,0.01563 0.082,-0.101562 0.22656,-0.464843 0.14844,-0.367188 0.43359,-0.976563 0.87109,-1.445313 0.4375,-0.472656 1.02344,-0.804687 1.60938,-1 0.58594,-0.195313 1.17187,-0.25 1.65625,-0.351563 0.48047,-0.09766 0.86328,-0.238281 1.07422,-0.316406 0.21094,-0.08203 0.25,-0.105468 0.0469,0.08203 -0.19922,0.183593 -0.64453,0.574218 -0.76953,0.753906 -0.12109,0.179687 0.0781,0.144531 0.63672,0.01953 0.5625,-0.121094 1.48828,-0.332031 2.24609,-0.6875 0.76172,-0.359375 1.35547,-0.859375 1.6836,-1.289063 0.33203,-0.429687 0.39844,-0.789062 0.42969,-0.972656 0.0312,-0.183594 0.0273,-0.195312 0.10937,0.289063 0.0859,0.484375 0.25781,1.457031 0.23828,2.46875 -0.0195,1.011719 -0.23047,2.058593 -0.32422,2.667969 -0.0937,0.613281 -0.0703,0.789062 0.0273,0.847656 0.0977,0.05469 0.27343,-0.01172 0.37109,-0.136719 0.0977,-0.121094 0.11719,-0.304687 0.12109,-0.390625 0.008,-0.08594 0,-0.07422 0.0937,0.171875 0.0937,0.242187 0.29297,0.71875 0.46094,1.238281 0.17188,0.523438 0.3125,1.09375 0.34766,1.695313 0.0352,0.601562 -0.0391,1.234375 -0.082,1.605469 -0.0469,0.367187 -0.0703,0.46875 0.0273,0.425781 0.10156,-0.04687 0.31641,-0.238281 0.49609,-0.515625 0.17579,-0.277344 0.31641,-0.640625 0.41797,-0.867188 0.10157,-0.230468 0.16407,-0.328125 0.1211,-0.02344 -0.043,0.300781 -0.19532,1 -0.26563,1.660156 -0.0742,0.664063 -0.0664,1.285156 -0.30859,1.820313 -0.24219,0.53125 -0.73438,0.976562 -1.26953,1.289062 -0.53516,0.3125 -1.11328,0.496094 -1.48438,0.582031 -0.37109,0.08984 -0.53906,0.07813 -0.62109,0.07422 -0.082,-0.0078 -0.082,-0.0078 -1.23438,-0.160156 z m 0,0"
       id="path37" />
    <path
       style="fill:#a3304a;fill-opacity:1;fill-rule:nonzero;stroke:none"
       d="m 225.42187,65.933594 c -0.44531,-0.605469 -1.33593,-1.816406 -1.66015,-2.957032 -0.32422,-1.136718 -0.0898,-2.207031 0.30469,-3.097656 0.39453,-0.886718 0.94531,-1.601562 1.24609,-2.148437 0.30078,-0.546875 0.35156,-0.925781 0.375,-0.714844 0.0273,0.210937 0.0273,1.015625 -0.14844,1.941406 -0.17969,0.925781 -0.53125,1.972657 -0.55078,2.945313 -0.0195,0.976562 0.29297,1.875 0.49609,2.636718 0.20313,0.761719 0.29297,1.382813 0.33594,1.691407 0.0469,0.3125 0.0469,0.3125 -0.39844,-0.296875 z m 0,0"
       id="path38" />
    <path
       style="fill:#a3304a;fill-opacity:1;fill-rule:nonzero;stroke:none"
       d="m 234.53516,50.230469 c -0.0898,-0.613281 -0.26954,-1.84375 -0.13282,-2.75 0.13672,-0.910157 0.58985,-1.496094 1.28516,-1.851563 0.69141,-0.355468 1.625,-0.480468 2.125,-0.527344 0.5,-0.04687 0.56641,-0.01562 0.26562,0.1875 -0.30078,0.199219 -0.96875,0.570313 -1.52734,1.3125 -0.55859,0.738282 -1.01172,1.847657 -1.26953,2.5625 -0.25781,0.714844 -0.32031,1.035157 -0.39844,1.25 -0.0781,0.214844 -0.16797,0.324219 -0.21094,0.378907 -0.0469,0.05078 -0.0469,0.05078 -0.13671,-0.5625 z m 0,0"
       id="path41" />
    <path
       style="fill:#a3304a;fill-opacity:1;fill-rule:nonzero;stroke:none"
       d="m 251.73437,44.921875 c 0.10547,-0.105469 0.53907,-0.316406 1.15625,-0.929687 0.61719,-0.613282 1.42188,-1.625 1.82813,-2.457032 0.41016,-0.832031 0.42187,-1.484375 0.50781,-1.324218 0.0859,0.15625 0.2461,1.125 0.16797,1.941406 -0.0742,0.816406 -0.39062,1.472656 -0.98047,1.925781 -0.59375,0.449219 -1.46875,0.691406 -2.01562,0.816406 -0.54688,0.125 -0.76953,0.132813 -0.66407,0.02734 z m 0,0"
       id="path42" />
    <path
       style="fill:#a3304a;fill-opacity:1;fill-rule:nonzero;stroke:none"
       d="m 263.91016,53.972656 c -0.21875,-0.496094 -0.65235,-1.488281 -0.8125,-2.441406 -0.16407,-0.957031 -0.0508,-1.875 0.47265,-2.664062 0.52344,-0.785157 1.46094,-1.441407 2.13672,-1.773438 0.67578,-0.335938 1.09375,-0.351562 1.32031,-0.367188 0.22266,-0.01172 0.25782,-0.02344 -0.0312,0.167969 -0.29297,0.191407 -0.90625,0.585938 -1.38672,1.355469 -0.47656,0.765625 -0.82031,1.914062 -0.92968,2.824219 -0.10547,0.910156 0.0234,1.589843 -0.0312,2.113281 -0.0508,0.527344 -0.28907,0.902344 -0.40625,1.089844 -0.11719,0.1875 -0.11719,0.1875 -0.33203,-0.304688 z m 0,0"
       id="path43" />
    <path
       style="fill:#4c3a3f;fill-opacity:1;fill-rule:nonzero;stroke:none"
       d="m 240.99609,86.628906 h 8.86719 L 246.30859,61.375 Z m 0,0"
       id="path44" />
    <path
       style="fill:#4c3a3f;fill-opacity:1;fill-rule:nonzero;stroke:none"
       d="m 244.12891,72.855469 -4.39844,-7.769531 4.88672,5.089843 z m 0,0"
       id="path45" />
    <path
       style="fill:none;stroke:#000000;stroke-width:2.30457;stroke-linecap:round;stroke-linejoin:round;stroke-miterlimit:4;stroke-opacity:1"
       d="M 467.30469,27.675781 H 26.964844 V 385.17187"
       id="path707" />
    <path
       style="fill:#000000;fill-opacity:1;fill-rule:evenodd;stroke:none"
       d="m 464.07812,21.222656 17.7461,6.453125 -17.7461,6.453125 c 3.22657,-3.757812 3.22657,-9.132812 0,-12.90625 z m 0,0"
       id="path708" />
    <path
       style="fill:#000000;fill-opacity:1;fill-rule:evenodd;stroke:none"
       d="m 33.417969,381.94531 -6.453125,17.7461 -6.453125,-17.7461 c 3.757812,3.22656 9.132812,3.22656 12.90625,0 z m 0,0"
       id="path709" />
    <g
       clip-path="url(#clip1)"
       clip-rule="nonzero"
       id="g710">
      <path
         style="fill:#000000;fill-opacity:1;fill-rule:nonzero;stroke:none"
         d="m 495.25781,6.003906 c 0.26953,-1.078125 1.28125,-5.058594 4.25,-5.058594 0.20313,0 1.28125,0 2.16016,0.539063 -1.21485,0.269531 -2.02344,1.28125 -2.02344,2.363281 0,0.671875 0.46875,1.484375 1.61719,1.484375 0.94531,0 2.29297,-0.742187 2.29297,-2.496093 C 503.55469,0.605469 501.05859,0 499.57422,0 497.07812,0 495.59375,2.292969 495.05469,3.238281 493.97656,0.40625 491.67969,0 490.39844,0 c -4.45313,0 -6.94922,5.53125 -6.94922,6.613281 0,0.472657 0.47265,0.472657 0.53906,0.472657 0.33594,0 0.47266,-0.136719 0.53906,-0.472657 1.48438,-4.589843 4.32032,-5.667969 5.80469,-5.667969 0.80859,0 2.29297,0.402344 2.29297,2.902344 0,1.347656 -0.74219,4.183594 -2.29297,10.253906 -0.67578,2.632813 -2.22656,4.453126 -4.11719,4.453126 -0.26953,0 -1.21484,0 -2.16015,-0.539063 1.08203,-0.269531 2.02343,-1.144531 2.02343,-2.359375 0,-1.148438 -0.9414,-1.484375 -1.55078,-1.484375 -1.34765,0 -2.35937,1.078125 -2.35937,2.496094 0,1.957031 2.08984,2.832031 3.98047,2.832031 2.90234,0 4.45312,-3.035156 4.51953,-3.238281 0.53906,1.550781 2.09375,3.238281 4.65625,3.238281 4.45312,0 6.88281,-5.53125 6.88281,-6.613281 0,-0.472657 -0.33594,-0.472657 -0.47266,-0.472657 -0.40625,0 -0.47265,0.203126 -0.60546,0.472657 -1.41797,4.65625 -4.32032,5.667969 -5.66797,5.667969 -1.6875,0 -2.36328,-1.347657 -2.36328,-2.832032 0,-0.945312 0.20312,-1.890625 0.67578,-3.777344 z m 0,0"
         id="path710" />
    </g>
    <g
       clip-path="url(#clip2)"
       clip-rule="nonzero"
       id="g711">
      <path
         style="fill:#000000;fill-opacity:1;fill-rule:nonzero;stroke:none"
         d="M 7.828125,402.125 H 11.875 c 0.878906,0 1.351562,0 1.351562,-0.875 0,-0.47266 -0.472656,-0.47266 -1.214843,-0.47266 h -3.78125 c 1.554687,-6.14062 1.757812,-6.95312 1.757812,-7.22265 0,-0.74219 -0.542969,-1.14453 -1.285156,-1.14453 -0.132813,0 -1.347656,0 -1.683594,1.55078 l -1.6875,6.8164 H 1.28125 c -0.875,0 -1.28125,0 -1.28125,0.8086 0,0.53906 0.335938,0.53906 1.214844,0.53906 H 4.992188 C 1.890625,414.33984 1.6875,415.08203 1.6875,415.82422 c 0,2.35937 1.617188,3.98047 3.980469,3.98047 4.386719,0 6.816406,-6.27344 6.816406,-6.61328 0,-0.47266 -0.339844,-0.47266 -0.472656,-0.47266 -0.40625,0 -0.472657,0.13672 -0.675781,0.60937 -1.820313,4.51954 -4.117188,5.53125 -5.601563,5.53125 -0.875,0 -1.347656,-0.53906 -1.347656,-1.95703 0,-1.07812 0.132812,-1.34765 0.269531,-2.08984 z m 0,0"
         id="path711" />
    </g>
  </g>
</svg>
