<?xml version="1.0" encoding="UTF-8" standalone="no"?>
<svg
   width="389.40778pt"
   height="209.60315pt"
   viewBox="0 0 389.40778 209.60315"
   version="1.2"
   id="svg107"
   sodipodi:docname="beta_alpha_LevyHL2D.pdf"
   xmlns:inkscape="http://www.inkscape.org/namespaces/inkscape"
   xmlns:sodipodi="http://sodipodi.sourceforge.net/DTD/sodipodi-0.dtd"
   xmlns="http://www.w3.org/2000/svg"
   xmlns:svg="http://www.w3.org/2000/svg">
  <sodipodi:namedview
     id="namedview107"
     pagecolor="#ffffff"
     bordercolor="#666666"
     borderopacity="1.0"
     inkscape:showpageshadow="2"
     inkscape:pageopacity="0.0"
     inkscape:pagecheckerboard="0"
     inkscape:deskcolor="#d1d1d1"
     inkscape:document-units="pt"
     inkscape:zoom="1.9791667"
     inkscape:cx="288"
     inkscape:cy="168"
     inkscape:window-width="1850"
     inkscape:window-height="1016"
     inkscape:window-x="0"
     inkscape:window-y="0"
     inkscape:window-maximized="1"
     inkscape:current-layer="surface1380214">
    <inkscape:page
       x="-7.9823396e-14"
       y="-1.1374168e-13"
       width="389.40781"
       height="209.60313"
       id="page2"
       margin="0"
       bleed="0" />
  </sodipodi:namedview>
  <defs
     id="defs107" />
  <g
     id="surface1380214"
     transform="translate(-21.390624,-21.201564)">
    <path
       style="fill:none;stroke:#000000;stroke-width:0.8;stroke-linecap:butt;stroke-linejoin:round;stroke-miterlimit:10;stroke-opacity:1"
       d="m 89.296875,183.97656 v 3.5"
       id="path2" />
    <path
       style="fill:#000000;fill-opacity:1;fill-rule:nonzero;stroke:none"
       d="m 85.808594,198.42187 c 0,-1.21875 -0.01563,-3.29687 -0.84375,-4.89062 -0.75,-1.39063 -1.921875,-1.89063 -2.953125,-1.89063 -0.953125,0 -2.171875,0.4375 -2.921875,1.875 -0.796875,1.5 -0.890625,3.34375 -0.890625,4.90625 0,1.125 0.03125,2.85938 0.640625,4.375 0.859375,2.0625 2.390625,2.32813 3.171875,2.32813 0.921875,0 2.3125,-0.375 3.125,-2.26563 0.59375,-1.375 0.671875,-2.98437 0.671875,-4.4375 z m -3.796875,6.39063 c -1.28125,0 -2.03125,-1.09375 -2.3125,-2.60938 -0.21875,-1.17187 -0.21875,-2.89062 -0.21875,-4 0,-1.53125 0,-2.8125 0.265625,-4.03125 0.375,-1.6875 1.484375,-2.20312 2.265625,-2.20312 0.8125,0 1.875,0.53125 2.25,2.17187 0.265625,1.125 0.28125,2.46875 0.28125,4.0625 0,1.29688 0,2.89063 -0.234375,4.0625 -0.421875,2.17188 -1.59375,2.54688 -2.296875,2.54688 z m 0,0"
       id="path3" />
    <path
       style="fill:#000000;fill-opacity:1;fill-rule:nonzero;stroke:none"
       d="m 90.261719,203.85937 c 0,-0.57812 -0.484375,-0.98437 -0.96875,-0.98437 -0.578125,0 -0.96875,0.48437 -0.96875,0.96875 0,0.57812 0.484375,0.96875 0.953125,0.96875 0.578125,0 0.984375,-0.48438 0.984375,-0.95313 z m 0,0"
       id="path4" />
    <path
       style="fill:#000000;fill-opacity:1;fill-rule:nonzero;stroke:none"
       d="m 94.273438,193.15625 c 0.203124,0.0781 1.015624,0.34375 1.859374,0.34375 1.84375,0 2.875,-1 3.4375,-1.57813 0,-0.15625 0,-0.25 -0.109374,-0.25 -0.01563,0 -0.0625,0 -0.21875,0.0781 -0.703126,0.29687 -1.515626,0.53125 -2.515626,0.53125 -0.59375,0 -1.484374,-0.0781 -2.46875,-0.51563 -0.21875,-0.0937 -0.265624,-0.0937 -0.28125,-0.0937 -0.09375,0 -0.109374,0.0156 -0.109374,0.40625 v 5.78125 c 0,0.35938 0,0.45313 0.1875,0.45313 0.109374,0 0.140624,-0.0312 0.25,-0.17188 0.625,-0.89062 1.515624,-1.28125 2.5,-1.28125 0.703124,0 2.203124,0.4375 2.203124,3.84375 0,0.64063 0,1.79688 -0.609374,2.71875 -0.5,0.8125 -1.265626,1.23438 -2.125,1.23438 -1.3125,0 -2.65625,-0.92188 -3.015626,-2.45313 0.07813,0.0156 0.25,0.0625 0.328126,0.0625 0.25,0 0.75,-0.14062 0.75,-0.76562 0,-0.53125 -0.375,-0.75 -0.75,-0.75 -0.46875,0 -0.765626,0.28125 -0.765626,0.82812 0,1.73438 1.375,3.54688 3.484376,3.54688 2.0625,0 4.015622,-1.76563 4.015622,-4.34375 0,-2.39063 -1.562498,-4.23438 -3.484372,-4.23438 -1.015626,0 -1.875,0.375 -2.5625,1.09375 z m 0,0"
       id="path5" />
    <path
       style="fill:none;stroke:#000000;stroke-width:0.8;stroke-linecap:butt;stroke-linejoin:round;stroke-miterlimit:10;stroke-opacity:1"
       d="m 165.75,183.97656 v 3.5"
       id="path6" />
    <path
       style="fill:#000000;fill-opacity:1;fill-rule:nonzero;stroke:none"
       d="m 159.19922,192.07812 c 0,-0.40625 -0.0156,-0.4375 -0.29688,-0.4375 -0.78125,0.9375 -1.95312,1.23438 -3.0625,1.28125 -0.0625,0 -0.17187,0 -0.1875,0.0312 -0.0156,0.0469 -0.0156,0.0781 -0.0156,0.5 0.60937,0 1.65625,-0.10937 2.45312,-0.59375 v 10.5 c 0,0.70313 -0.0469,0.9375 -1.75,0.9375 h -0.60937 v 0.51563 c 0.95312,-0.0156 1.95312,-0.0469 2.90625,-0.0469 0.96875,0 1.95312,0.0312 2.92187,0.0469 v -0.51563 h -0.60937 c -1.70313,0 -1.75,-0.21875 -1.75,-0.9375 z m 0,0"
       id="path7" />
    <path
       style="fill:#000000;fill-opacity:1;fill-rule:nonzero;stroke:none"
       d="m 166.71484,203.85937 c 0,-0.57812 -0.48437,-0.98437 -0.96875,-0.98437 -0.57812,0 -0.96875,0.48437 -0.96875,0.96875 0,0.57812 0.48438,0.96875 0.95313,0.96875 0.57812,0 0.98437,-0.48438 0.98437,-0.95313 z m 0,0"
       id="path8" />
    <path
       style="fill:#000000;fill-opacity:1;fill-rule:nonzero;stroke:none"
       d="m 176.82031,198.42187 c 0,-1.21875 -0.0156,-3.29687 -0.84375,-4.89062 -0.75,-1.39063 -1.92187,-1.89063 -2.95312,-1.89063 -0.95313,0 -2.17188,0.4375 -2.92188,1.875 -0.79687,1.5 -0.89062,3.34375 -0.89062,4.90625 0,1.125 0.0312,2.85938 0.64062,4.375 0.85938,2.0625 2.39063,2.32813 3.17188,2.32813 0.92187,0 2.3125,-0.375 3.125,-2.26563 0.59375,-1.375 0.67187,-2.98437 0.67187,-4.4375 z m -3.79687,6.39063 c -1.28125,0 -2.03125,-1.09375 -2.3125,-2.60938 -0.21875,-1.17187 -0.21875,-2.89062 -0.21875,-4 0,-1.53125 0,-2.8125 0.26562,-4.03125 0.375,-1.6875 1.48438,-2.20312 2.26563,-2.20312 0.8125,0 1.875,0.53125 2.25,2.17187 0.26562,1.125 0.28125,2.46875 0.28125,4.0625 0,1.29688 0,2.89063 -0.23438,4.0625 -0.42187,2.17188 -1.59375,2.54688 -2.29687,2.54688 z m 0,0"
       id="path9" />
    <path
       style="fill:none;stroke:#000000;stroke-width:0.8;stroke-linecap:butt;stroke-linejoin:round;stroke-miterlimit:10;stroke-opacity:1"
       d="m 242.20312,183.97656 v 3.5"
       id="path10" />
    <path
       style="fill:#000000;fill-opacity:1;fill-rule:nonzero;stroke:none"
       d="m 235.65234,192.07812 c 0,-0.40625 -0.0156,-0.4375 -0.29687,-0.4375 -0.78125,0.9375 -1.95313,1.23438 -3.0625,1.28125 -0.0625,0 -0.17188,0 -0.1875,0.0312 -0.0156,0.0469 -0.0156,0.0781 -0.0156,0.5 0.60938,0 1.65625,-0.10937 2.45313,-0.59375 v 10.5 c 0,0.70313 -0.0469,0.9375 -1.75,0.9375 h -0.60938 v 0.51563 c 0.95313,-0.0156 1.95313,-0.0469 2.90625,-0.0469 0.96875,0 1.95313,0.0312 2.92188,0.0469 v -0.51563 h -0.60938 c -1.70312,0 -1.75,-0.21875 -1.75,-0.9375 z m 0,0"
       id="path11" />
    <path
       style="fill:#000000;fill-opacity:1;fill-rule:nonzero;stroke:none"
       d="m 243.16797,203.85937 c 0,-0.57812 -0.48438,-0.98437 -0.96875,-0.98437 -0.57813,0 -0.96875,0.48437 -0.96875,0.96875 0,0.57812 0.48437,0.96875 0.95312,0.96875 0.57813,0 0.98438,-0.48438 0.98438,-0.95313 z m 0,0"
       id="path12" />
    <path
       style="fill:#000000;fill-opacity:1;fill-rule:nonzero;stroke:none"
       d="m 247.17969,193.15625 c 0.20312,0.0781 1.01562,0.34375 1.85937,0.34375 1.84375,0 2.875,-1 3.4375,-1.57813 0,-0.15625 0,-0.25 -0.10937,-0.25 -0.0156,0 -0.0625,0 -0.21875,0.0781 -0.70313,0.29687 -1.51563,0.53125 -2.51563,0.53125 -0.59375,0 -1.48437,-0.0781 -2.46875,-0.51563 -0.21875,-0.0937 -0.26562,-0.0937 -0.28125,-0.0937 -0.0937,0 -0.10937,0.0156 -0.10937,0.40625 v 5.78125 c 0,0.35938 0,0.45313 0.1875,0.45313 0.10937,0 0.14062,-0.0312 0.25,-0.17188 0.625,-0.89062 1.51562,-1.28125 2.5,-1.28125 0.70312,0 2.20312,0.4375 2.20312,3.84375 0,0.64063 0,1.79688 -0.60937,2.71875 -0.5,0.8125 -1.26563,1.23438 -2.125,1.23438 -1.3125,0 -2.65625,-0.92188 -3.01563,-2.45313 0.0781,0.0156 0.25,0.0625 0.32813,0.0625 0.25,0 0.75,-0.14062 0.75,-0.76562 0,-0.53125 -0.375,-0.75 -0.75,-0.75 -0.46875,0 -0.76563,0.28125 -0.76563,0.82812 0,1.73438 1.375,3.54688 3.48438,3.54688 2.0625,0 4.01562,-1.76563 4.01562,-4.34375 0,-2.39063 -1.5625,-4.23438 -3.48437,-4.23438 -1.01563,0 -1.875,0.375 -2.5625,1.09375 z m 0,0"
       id="path13" />
    <path
       style="fill:none;stroke:#000000;stroke-width:0.8;stroke-linecap:butt;stroke-linejoin:round;stroke-miterlimit:10;stroke-opacity:1"
       d="m 318.65625,183.97656 v 3.5"
       id="path14" />
    <path
       style="fill:#000000;fill-opacity:1;fill-rule:nonzero;stroke:none"
       d="m 315.12109,201.71875 h -0.35937 c -0.20313,1.42187 -0.35938,1.65625 -0.4375,1.78125 -0.10938,0.15625 -1.54688,0.15625 -1.8125,0.15625 h -3.82813 c 0.71875,-0.78125 2.10938,-2.1875 3.79688,-3.82813 1.21875,-1.15625 2.64062,-2.5 2.64062,-4.48437 0,-2.34375 -1.875,-3.70313 -3.96875,-3.70313 -2.1875,0 -3.53125,1.9375 -3.53125,3.73438 0,0.76562 0.57813,0.875 0.82813,0.875 0.1875,0 0.79687,-0.125 0.79687,-0.82813 0,-0.60937 -0.53125,-0.79687 -0.79687,-0.79687 -0.125,0 -0.25,0.0312 -0.32813,0.0625 0.375,-1.6875 1.53125,-2.53125 2.75,-2.53125 1.73438,0 2.875,1.375 2.875,3.1875 0,1.73437 -1.01562,3.23437 -2.15625,4.53125 l -3.96875,4.48437 v 0.45313 h 7.01563 z m 0,0"
       id="path15" />
    <path
       style="fill:#000000;fill-opacity:1;fill-rule:nonzero;stroke:none"
       d="m 319.61719,203.85937 c 0,-0.57812 -0.48438,-0.98437 -0.96875,-0.98437 -0.57813,0 -0.96875,0.48437 -0.96875,0.96875 0,0.57812 0.48437,0.96875 0.95312,0.96875 0.57813,0 0.98438,-0.48438 0.98438,-0.95313 z m 0,0"
       id="path16" />
    <path
       style="fill:#000000;fill-opacity:1;fill-rule:nonzero;stroke:none"
       d="m 329.72656,198.42187 c 0,-1.21875 -0.0156,-3.29687 -0.84375,-4.89062 -0.75,-1.39063 -1.92187,-1.89063 -2.95312,-1.89063 -0.95313,0 -2.17188,0.4375 -2.92188,1.875 -0.79687,1.5 -0.89062,3.34375 -0.89062,4.90625 0,1.125 0.0312,2.85938 0.64062,4.375 0.85938,2.0625 2.39063,2.32813 3.17188,2.32813 0.92187,0 2.3125,-0.375 3.125,-2.26563 0.59375,-1.375 0.67187,-2.98437 0.67187,-4.4375 z m -3.79687,6.39063 c -1.28125,0 -2.03125,-1.09375 -2.3125,-2.60938 -0.21875,-1.17187 -0.21875,-2.89062 -0.21875,-4 0,-1.53125 0,-2.8125 0.26562,-4.03125 0.375,-1.6875 1.48438,-2.20312 2.26563,-2.20312 0.8125,0 1.875,0.53125 2.25,2.17187 0.26562,1.125 0.28125,2.46875 0.28125,4.0625 0,1.29688 0,2.89063 -0.23438,4.0625 -0.42187,2.17188 -1.59375,2.54688 -2.29687,2.54688 z m 0,0"
       id="path17" />
    <path
       style="fill:none;stroke:#000000;stroke-width:0.8;stroke-linecap:butt;stroke-linejoin:round;stroke-miterlimit:10;stroke-opacity:1"
       d="m 395.10937,183.97656 v 3.5"
       id="path18" />
    <path
       style="fill:#000000;fill-opacity:1;fill-rule:nonzero;stroke:none"
       d="m 391.57422,201.71875 h -0.35938 c -0.20312,1.42187 -0.35937,1.65625 -0.4375,1.78125 -0.10937,0.15625 -1.54687,0.15625 -1.8125,0.15625 h -3.82812 c 0.71875,-0.78125 2.10937,-2.1875 3.79687,-3.82813 1.21875,-1.15625 2.64063,-2.5 2.64063,-4.48437 0,-2.34375 -1.875,-3.70313 -3.96875,-3.70313 -2.1875,0 -3.53125,1.9375 -3.53125,3.73438 0,0.76562 0.57812,0.875 0.82812,0.875 0.1875,0 0.79688,-0.125 0.79688,-0.82813 0,-0.60937 -0.53125,-0.79687 -0.79688,-0.79687 -0.125,0 -0.25,0.0312 -0.32812,0.0625 0.375,-1.6875 1.53125,-2.53125 2.75,-2.53125 1.73437,0 2.875,1.375 2.875,3.1875 0,1.73437 -1.01563,3.23437 -2.15625,4.53125 l -3.96875,4.48437 v 0.45313 h 7.01562 z m 0,0"
       id="path19" />
    <path
       style="fill:#000000;fill-opacity:1;fill-rule:nonzero;stroke:none"
       d="m 396.07031,203.85937 c 0,-0.57812 -0.48437,-0.98437 -0.96875,-0.98437 -0.57812,0 -0.96875,0.48437 -0.96875,0.96875 0,0.57812 0.48438,0.96875 0.95313,0.96875 0.57812,0 0.98437,-0.48438 0.98437,-0.95313 z m 0,0"
       id="path20" />
    <path
       style="fill:#000000;fill-opacity:1;fill-rule:nonzero;stroke:none"
       d="m 400.08594,193.15625 c 0.20312,0.0781 1.01562,0.34375 1.85937,0.34375 1.84375,0 2.875,-1 3.4375,-1.57813 0,-0.15625 0,-0.25 -0.10937,-0.25 -0.0156,0 -0.0625,0 -0.21875,0.0781 -0.70313,0.29687 -1.51563,0.53125 -2.51563,0.53125 -0.59375,0 -1.48437,-0.0781 -2.46875,-0.51563 -0.21875,-0.0937 -0.26562,-0.0937 -0.28125,-0.0937 -0.0937,0 -0.10937,0.0156 -0.10937,0.40625 v 5.78125 c 0,0.35938 0,0.45313 0.1875,0.45313 0.10937,0 0.14062,-0.0312 0.25,-0.17188 0.625,-0.89062 1.51562,-1.28125 2.5,-1.28125 0.70312,0 2.20312,0.4375 2.20312,3.84375 0,0.64063 0,1.79688 -0.60937,2.71875 -0.5,0.8125 -1.26563,1.23438 -2.125,1.23438 -1.3125,0 -2.65625,-0.92188 -3.01563,-2.45313 0.0781,0.0156 0.25,0.0625 0.32813,0.0625 0.25,0 0.75,-0.14062 0.75,-0.76562 0,-0.53125 -0.375,-0.75 -0.75,-0.75 -0.46875,0 -0.76563,0.28125 -0.76563,0.82812 0,1.73438 1.375,3.54688 3.48438,3.54688 2.0625,0 4.01562,-1.76563 4.01562,-4.34375 0,-2.39063 -1.5625,-4.23438 -3.48437,-4.23438 -1.01563,0 -1.875,0.375 -2.5625,1.09375 z m 0,0"
       id="path21" />
    <path
       style="fill:#000000;fill-opacity:1;fill-rule:nonzero;stroke:none"
       d="m 239.21094,226.08594 c 0.48437,0.45312 1.23437,0.64062 1.90625,0.64062 1.28125,0 2.15625,-0.85937 2.60937,-1.48437 0.20313,1.0625 1.03125,1.48437 1.73438,1.48437 0.59375,0 1.07812,-0.35937 1.4375,-1.07812 0.3125,-0.67188 0.59375,-1.89063 0.59375,-1.96875 0,-0.10938 -0.0781,-0.1875 -0.20313,-0.1875 -0.17187,0 -0.20312,0.10937 -0.28125,0.40625 -0.29687,1.17187 -0.67187,2.42187 -1.48437,2.42187 -0.57813,0 -0.625,-0.51562 -0.625,-0.90625 0,-0.46875 0.1875,-1.1875 0.32812,-1.78125 l 0.54688,-2.15625 c 0.0781,-0.375 0.29687,-1.26562 0.40625,-1.625 0.10937,-0.48437 0.34375,-1.34375 0.34375,-1.42187 0,-0.29688 -0.25,-0.5 -0.54688,-0.5 -0.17187,0 -0.59375,0.0937 -0.75,0.6875 l -1.40625,5.53125 c -0.0937,0.40625 -0.0937,0.4375 -0.35937,0.76562 -0.23438,0.32813 -1.01563,1.40625 -2.26563,1.40625 -1.10937,0 -1.46875,-0.8125 -1.46875,-1.75 0,-0.57812 0.17188,-1.28125 0.25,-1.60937 l 0.90625,-3.59375 c 0.0937,-0.375 0.25,-1.01563 0.25,-1.125 0,-0.32813 -0.25,-0.5 -0.51562,-0.5 -0.17188,0 -0.60938,0.0625 -0.78125,0.6875 l -2.875,11.54687 c -0.0312,0.0937 -0.0625,0.21875 -0.0625,0.32813 0,0.29687 0.23437,0.5 0.53125,0.5 0.57812,0 0.70312,-0.45313 0.84375,-1.01563 z m 0,0"
       id="path22" />
    <path
       style="fill:none;stroke:#000000;stroke-width:0.8;stroke-linecap:butt;stroke-linejoin:round;stroke-miterlimit:10;stroke-opacity:1"
       d="m 74.007812,163.53125 h -3.5"
       id="path23" />
    <path
       style="fill:#000000;fill-opacity:1;fill-rule:nonzero;stroke:none"
       d="m 48.609375,157.71484 c 0,-0.40625 -0.01563,-0.4375 -0.296875,-0.4375 -0.78125,0.9375 -1.953125,1.23438 -3.0625,1.28125 -0.0625,0 -0.171875,0 -0.1875,0.0312 -0.01563,0.0469 -0.01563,0.0781 -0.01563,0.5 0.609375,0 1.65625,-0.10937 2.453125,-0.59375 v 10.5 c 0,0.70313 -0.04687,0.9375 -1.75,0.9375 H 45.14062 v 0.51563 c 0.953125,-0.0156 1.953125,-0.0469 2.90625,-0.0469 0.96875,0 1.953125,0.0312 2.921875,0.0469 v -0.51563 H 50.35937 c -1.703125,0 -1.75,-0.21875 -1.75,-0.9375 z m 0,0"
       id="path24" />
    <path
       style="fill:#000000;fill-opacity:1;fill-rule:nonzero;stroke:none"
       d="m 56.121094,169.49609 c 0,-0.57812 -0.484375,-0.98437 -0.96875,-0.98437 -0.578125,0 -0.96875,0.48437 -0.96875,0.96875 0,0.57812 0.484375,0.96875 0.953125,0.96875 0.578125,0 0.984375,-0.48438 0.984375,-0.95313 z m 0,0"
       id="path25" />
    <path
       style="fill:#000000;fill-opacity:1;fill-rule:nonzero;stroke:none"
       d="m 66.230469,164.05859 c 0,-1.21875 -0.01563,-3.29687 -0.84375,-4.89062 -0.75,-1.39063 -1.921875,-1.89063 -2.953125,-1.89063 -0.953125,0 -2.171875,0.4375 -2.921875,1.875 -0.796875,1.5 -0.890625,3.34375 -0.890625,4.90625 0,1.125 0.03125,2.85938 0.640625,4.375 0.859375,2.0625 2.390625,2.32813 3.171875,2.32813 0.921875,0 2.3125,-0.375 3.125,-2.26563 0.59375,-1.375 0.671875,-2.98437 0.671875,-4.4375 z m -3.796875,6.39063 c -1.28125,0 -2.03125,-1.09375 -2.3125,-2.60938 -0.21875,-1.17187 -0.21875,-2.89062 -0.21875,-4 0,-1.53125 0,-2.8125 0.265625,-4.03125 0.375,-1.6875 1.484375,-2.20312 2.265625,-2.20312 0.8125,0 1.875,0.53125 2.25,2.17187 0.265625,1.125 0.28125,2.46875 0.28125,4.0625 0,1.29688 0,2.89063 -0.234375,4.0625 -0.421875,2.17188 -1.59375,2.54688 -2.296875,2.54688 z m 0,0"
       id="path26" />
    <path
       style="fill:none;stroke:#000000;stroke-width:0.8;stroke-linecap:butt;stroke-linejoin:round;stroke-miterlimit:10;stroke-opacity:1"
       d="m 74.007812,98.214844 h -3.5"
       id="path27" />
    <path
       style="fill:#000000;fill-opacity:1;fill-rule:nonzero;stroke:none"
       d="m 48.609375,92.398438 c 0,-0.40625 -0.01563,-0.4375 -0.296875,-0.4375 -0.78125,0.9375 -1.953125,1.234374 -3.0625,1.28125 -0.0625,0 -0.171875,0 -0.1875,0.03125 -0.01563,0.04687 -0.01563,0.07812 -0.01563,0.5 0.609375,0 1.65625,-0.109376 2.453125,-0.59375 v 10.500002 c 0,0.70312 -0.04687,0.9375 -1.75,0.9375 H 45.14062 v 0.51562 c 0.953125,-0.0156 1.953125,-0.0469 2.90625,-0.0469 0.96875,0 1.953125,0.0312 2.921875,0.0469 v -0.51562 H 50.35937 c -1.703125,0 -1.75,-0.21875 -1.75,-0.9375 z m 0,0"
       id="path28" />
    <path
       style="fill:#000000;fill-opacity:1;fill-rule:nonzero;stroke:none"
       d="m 56.121094,104.17969 c 0,-0.57813 -0.484375,-0.98438 -0.96875,-0.98438 -0.578125,0 -0.96875,0.48438 -0.96875,0.96875 0,0.57813 0.484375,0.96875 0.953125,0.96875 0.578125,0 0.984375,-0.48437 0.984375,-0.95312 z m 0,0"
       id="path29" />
    <path
       style="fill:#000000;fill-opacity:1;fill-rule:nonzero;stroke:none"
       d="m 60.136719,93.476562 c 0.203125,0.07813 1.015625,0.34375 1.859375,0.34375 1.84375,0 2.875,-1 3.4375,-1.578124 0,-0.15625 0,-0.25 -0.109375,-0.25 -0.01563,0 -0.0625,0 -0.21875,0.07812 -0.703125,0.296876 -1.515625,0.53125 -2.515625,0.53125 -0.59375,0 -1.484375,-0.07812 -2.46875,-0.515624 -0.21875,-0.09375 -0.265625,-0.09375 -0.28125,-0.09375 -0.09375,0 -0.109375,0.01562 -0.109375,0.40625 v 5.78125 c 0,0.359374 0,0.453124 0.1875,0.453124 0.109375,0 0.140625,-0.03125 0.25,-0.171874 0.625,-0.890626 1.515625,-1.28125 2.5,-1.28125 0.703125,0 2.203125,0.4375 2.203125,3.843756 0,0.64062 0,1.79687 -0.609375,2.71875 -0.5,0.8125 -1.265625,1.23437 -2.125,1.23437 -1.3125,0 -2.65625,-0.92187 -3.015625,-2.45312 0.07813,0.0156 0.25,0.0625 0.328125,0.0625 0.25,0 0.75,-0.14063 0.75,-0.76563 0,-0.53125 -0.375,-0.75 -0.75,-0.75 -0.46875,0 -0.765625,0.28125 -0.765625,0.82813 0,1.73437 1.375,3.54687 3.484375,3.54687 2.0625,0 4.015625,-1.76562 4.015625,-4.34375 0,-2.390626 -1.5625,-4.234376 -3.484375,-4.234376 -1.015625,0 -1.875,0.375 -2.5625,1.09375 z m 0,0"
       id="path30" />
    <path
       style="fill:none;stroke:#000000;stroke-width:0.8;stroke-linecap:butt;stroke-linejoin:round;stroke-miterlimit:10;stroke-opacity:1"
       d="m 74.007812,32.898438 h -3.5"
       id="path31" />
    <path
       style="fill:#000000;fill-opacity:1;fill-rule:nonzero;stroke:none"
       d="m 51.625,36.722656 h -0.359375 c -0.203125,1.421875 -0.359375,1.65625 -0.4375,1.78125 -0.109375,0.15625 -1.546875,0.15625 -1.8125,0.15625 H 45.1875 c 0.71875,-0.78125 2.109375,-2.1875 3.796875,-3.828125 1.21875,-1.15625 2.640625,-2.5 2.640625,-4.484375 0,-2.34375 -1.875,-3.703125 -3.96875,-3.703125 -2.1875,0 -3.53125,1.9375 -3.53125,3.734375 0,0.765625 0.578125,0.875 0.828125,0.875 0.1875,0 0.796875,-0.125 0.796875,-0.828125 0,-0.609375 -0.53125,-0.796875 -0.796875,-0.796875 -0.125,0 -0.25,0.03125 -0.328125,0.0625 0.375,-1.6875 1.53125,-2.53125 2.75,-2.53125 1.734375,0 2.875,1.375 2.875,3.1875 0,1.734375 -1.015625,3.234375 -2.15625,4.53125 L 44.125,39.363281 v 0.453125 h 7.015625 z m 0,0"
       id="path32" />
    <path
       style="fill:#000000;fill-opacity:1;fill-rule:nonzero;stroke:none"
       d="m 56.121094,38.863281 c 0,-0.578125 -0.484375,-0.984375 -0.96875,-0.984375 -0.578125,0 -0.96875,0.484375 -0.96875,0.96875 0,0.578125 0.484375,0.96875 0.953125,0.96875 0.578125,0 0.984375,-0.484375 0.984375,-0.953125 z m 0,0"
       id="path33" />
    <path
       style="fill:#000000;fill-opacity:1;fill-rule:nonzero;stroke:none"
       d="m 66.230469,33.425781 c 0,-1.21875 -0.01563,-3.296875 -0.84375,-4.890625 -0.75,-1.390625 -1.921875,-1.890625 -2.953125,-1.890625 -0.953125,0 -2.171875,0.4375 -2.921875,1.875 -0.796875,1.5 -0.890625,3.34375 -0.890625,4.90625 0,1.125 0.03125,2.859375 0.640625,4.375 0.859375,2.0625 2.390625,2.328125 3.171875,2.328125 0.921875,0 2.3125,-0.375 3.125,-2.265625 0.59375,-1.375 0.671875,-2.984375 0.671875,-4.4375 z m -3.796875,6.390625 c -1.28125,0 -2.03125,-1.09375 -2.3125,-2.609375 -0.21875,-1.171875 -0.21875,-2.890625 -0.21875,-4 0,-1.53125 0,-2.8125 0.265625,-4.03125 0.375,-1.6875 1.484375,-2.203125 2.265625,-2.203125 0.8125,0 1.875,0.53125 2.25,2.171875 0.265625,1.125 0.28125,2.46875 0.28125,4.0625 0,1.296875 0,2.890625 -0.234375,4.0625 -0.421875,2.171875 -1.59375,2.546875 -2.296875,2.546875 z m 0,0"
       id="path34" />
    <path
       style="fill:#000000;fill-opacity:1;fill-rule:nonzero;stroke:none"
       d="m 23.84375,97.011719 c -1.203125,0 -2.453125,1.015625 -2.453125,2.828125 0,2.578126 3.15625,4.203126 5.21875,4.734376 l 12.5,3.14062 c 0.15625,0.0469 0.1875,-0.0781 0.1875,-0.17187 0,-0.14063 -0.01563,-0.25 -0.109375,-0.26563 l -5.578125,-1.39062 c 1.109375,-0.20313 2.03125,-1.29688 2.03125,-2.46875 0,-2.85938 -2.234375,-5.546876 -5.203125,-5.546876 -0.75,0 -1.515625,0.1875 -2.15625,0.59375 -0.375,0.25 -0.65625,0.546875 -0.890625,0.859375 -0.765625,-1.4375 -1.96875,-2.3125 -3.546875,-2.3125 z m 3.53125,3.468751 c 0.109375,0.32812 0.15625,0.64062 0.15625,1.01562 0,0.28125 0.01563,0.54688 -0.109375,0.90625 -0.125,-0.20312 -0.171875,-0.5 -0.171875,-0.92187 0,-0.35938 0.04687,-0.71875 0.125,-1 z m -3.71875,-2.421876 c 1.109375,0 2.703125,0.53125 3.4375,1.828125 -0.140625,0.375001 -0.25,0.890621 -0.25,1.328121 0,0.42188 -0.03125,1.625 0.609375,1.625 0.53125,0 0.46875,-1.09375 0.46875,-1.4375 0,-0.51562 -0.109375,-0.98437 -0.25,-1.453121 0.515625,-0.640625 1.1875,-0.921875 2.1875,-0.921875 1.15625,0 2.09375,0.328125 2.953125,0.703125 1.46875,0.656251 2.421875,2.203121 2.421875,3.578121 0,1.45313 -1.15625,2.21875 -2.5,2.21875 -0.1875,0 -0.4375,0 -0.75,-0.0781 L 26.75,104.15234 c -2.609375,-0.65625 -4.953125,-2.32812 -4.953125,-4.265621 0,-1.4375 0.984375,-1.828125 1.859375,-1.828125 z m 0,0"
       id="path35" />
    <path
       style="fill:none;stroke:#eea6c5;stroke-width:1.5;stroke-linecap:butt;stroke-linejoin:round;stroke-miterlimit:10;stroke-opacity:1"
       d="m 89.296875,167.44922 v -13.0625"
       id="path36" />
    <path
       style="fill:none;stroke:#eea6c5;stroke-width:1.5;stroke-linecap:butt;stroke-linejoin:round;stroke-miterlimit:10;stroke-opacity:1"
       d="M 203.97656,140.01562 V 126.95313"
       id="path37" />
    <path
       style="fill:none;stroke:#eea6c5;stroke-width:1.5;stroke-linecap:butt;stroke-linejoin:round;stroke-miterlimit:10;stroke-opacity:1"
       d="M 242.20312,113.89063 V 95.601562"
       id="path38" />
    <path
       style="fill:none;stroke:#eea6c5;stroke-width:1.5;stroke-linecap:butt;stroke-linejoin:round;stroke-miterlimit:10;stroke-opacity:1"
       d="m 280.42969,79.925781 v -13.0625"
       id="path39" />
    <path
       style="fill:none;stroke:#eea6c5;stroke-width:1.5;stroke-linecap:butt;stroke-linejoin:round;stroke-miterlimit:10;stroke-opacity:1"
       d="M 318.65625,45.960938 V 28.980469"
       id="path40" />
    <path
       style="fill:none;stroke:#eea6c5;stroke-width:1;stroke-linecap:butt;stroke-linejoin:round;stroke-miterlimit:10;stroke-opacity:1"
       d="m 91.296875,167.44922 h -4"
       id="path41" />
    <path
       style="fill:none;stroke:#eea6c5;stroke-width:1;stroke-linecap:butt;stroke-linejoin:round;stroke-miterlimit:10;stroke-opacity:1"
       d="m 205.97656,140.01562 h -4"
       id="path42" />
    <path
       style="fill:none;stroke:#eea6c5;stroke-width:1;stroke-linecap:butt;stroke-linejoin:round;stroke-miterlimit:10;stroke-opacity:1"
       d="m 244.20312,113.89063 h -4"
       id="path43" />
    <path
       style="fill:none;stroke:#eea6c5;stroke-width:1;stroke-linecap:butt;stroke-linejoin:round;stroke-miterlimit:10;stroke-opacity:1"
       d="m 282.42969,79.925781 h -4"
       id="path44" />
    <path
       style="fill:none;stroke:#eea6c5;stroke-width:1;stroke-linecap:butt;stroke-linejoin:round;stroke-miterlimit:10;stroke-opacity:1"
       d="m 320.65625,45.960938 h -4"
       id="path45" />
    <path
       style="fill:none;stroke:#eea6c5;stroke-width:1;stroke-linecap:butt;stroke-linejoin:round;stroke-miterlimit:10;stroke-opacity:1"
       d="m 91.296875,154.38672 h -4"
       id="path46" />
    <path
       style="fill:none;stroke:#eea6c5;stroke-width:1;stroke-linecap:butt;stroke-linejoin:round;stroke-miterlimit:10;stroke-opacity:1"
       d="m 205.97656,126.95313 h -4"
       id="path47" />
    <path
       style="fill:none;stroke:#eea6c5;stroke-width:1;stroke-linecap:butt;stroke-linejoin:round;stroke-miterlimit:10;stroke-opacity:1"
       d="m 244.20312,95.601562 h -4"
       id="path48" />
    <path
       style="fill:none;stroke:#eea6c5;stroke-width:1;stroke-linecap:butt;stroke-linejoin:round;stroke-miterlimit:10;stroke-opacity:1"
       d="m 282.42969,66.863281 h -4"
       id="path49" />
    <path
       style="fill:none;stroke:#eea6c5;stroke-width:1;stroke-linecap:butt;stroke-linejoin:round;stroke-miterlimit:10;stroke-opacity:1"
       d="m 320.65625,28.980469 h -4"
       id="path50" />
    <path
       style="fill:#eea6c5;fill-opacity:1;fill-rule:nonzero;stroke:#eea6c5;stroke-width:1;stroke-linecap:butt;stroke-linejoin:round;stroke-miterlimit:10;stroke-opacity:1"
       d="m 89.296875,163.91797 c 0.796875,0 1.5625,-0.31641 2.125,-0.87891 0.5625,-0.5625 0.875,-1.32422 0.875,-2.12109 0,-0.79688 -0.3125,-1.5586 -0.875,-2.1211 -0.5625,-0.5625 -1.328125,-0.8789 -2.125,-0.8789 -0.792969,0 -1.558594,0.3164 -2.121094,0.8789 -0.5625,0.5625 -0.878906,1.32422 -0.878906,2.1211 0,0.79687 0.316406,1.55859 0.878906,2.12109 0.5625,0.5625 1.328125,0.87891 2.121094,0.87891 z m 0,0"
       id="path51" />
    <path
       style="fill:#eea6c5;fill-opacity:1;fill-rule:nonzero;stroke:#eea6c5;stroke-width:1;stroke-linecap:butt;stroke-linejoin:round;stroke-miterlimit:10;stroke-opacity:1"
       d="m 203.97656,136.48437 c 0.79688,0 1.5586,-0.3164 2.1211,-0.8789 0.5625,-0.5625 0.8789,-1.32422 0.8789,-2.1211 0,-0.79296 -0.3164,-1.55859 -0.8789,-2.12109 -0.5625,-0.5625 -1.32422,-0.87891 -2.1211,-0.87891 -0.79297,0 -1.55859,0.31641 -2.12109,0.87891 -0.5625,0.5625 -0.87891,1.32813 -0.87891,2.12109 0,0.79688 0.31641,1.5586 0.87891,2.1211 0.5625,0.5625 1.32812,0.8789 2.12109,0.8789 z m 0,0"
       id="path52" />
    <path
       style="fill:#eea6c5;fill-opacity:1;fill-rule:nonzero;stroke:#eea6c5;stroke-width:1;stroke-linecap:butt;stroke-linejoin:round;stroke-miterlimit:10;stroke-opacity:1"
       d="m 242.20312,107.74609 c 0.79688,0 1.5586,-0.3164 2.1211,-0.8789 0.5625,-0.5625 0.8789,-1.32422 0.8789,-2.1211 0,-0.79296 -0.3164,-1.55859 -0.8789,-2.12109 -0.5625,-0.5625 -1.32422,-0.87891 -2.1211,-0.87891 -0.79296,0 -1.55859,0.31641 -2.12109,0.87891 -0.5625,0.5625 -0.87891,1.32813 -0.87891,2.12109 0,0.79688 0.31641,1.5586 0.87891,2.1211 0.5625,0.5625 1.32813,0.8789 2.12109,0.8789 z m 0,0"
       id="path53" />
    <path
       style="fill:#eea6c5;fill-opacity:1;fill-rule:nonzero;stroke:#eea6c5;stroke-width:1;stroke-linecap:butt;stroke-linejoin:round;stroke-miterlimit:10;stroke-opacity:1"
       d="m 280.42969,76.394531 c 0.79687,0 1.55859,-0.316406 2.12109,-0.878906 0.5625,-0.5625 0.87891,-1.324219 0.87891,-2.121094 0,-0.792969 -0.31641,-1.558593 -0.87891,-2.121093 -0.5625,-0.5625 -1.32422,-0.878907 -2.12109,-0.878907 -0.79297,0 -1.5586,0.316407 -2.1211,0.878907 -0.5625,0.5625 -0.8789,1.328124 -0.8789,2.121093 0,0.796875 0.3164,1.558594 0.8789,2.121094 0.5625,0.5625 1.32813,0.878906 2.1211,0.878906 z m 0,0"
       id="path54" />
    <path
       style="fill:#eea6c5;fill-opacity:1;fill-rule:nonzero;stroke:#eea6c5;stroke-width:1;stroke-linecap:butt;stroke-linejoin:round;stroke-miterlimit:10;stroke-opacity:1"
       d="m 318.65625,42.429688 c 0.79687,0 1.55859,-0.316407 2.12109,-0.878907 0.5625,-0.5625 0.87891,-1.324219 0.87891,-2.121093 0,-0.792969 -0.31641,-1.558594 -0.87891,-2.121094 -0.5625,-0.5625 -1.32422,-0.878906 -2.12109,-0.878906 -0.79688,0 -1.55859,0.316406 -2.12109,0.878906 -0.5625,0.5625 -0.87891,1.328125 -0.87891,2.121094 0,0.796874 0.31641,1.558593 0.87891,2.121093 0.5625,0.5625 1.32421,0.878907 2.12109,0.878907 z m 0,0"
       id="path55" />
    <path
       style="fill:none;stroke:#a12e4a;stroke-width:1.5;stroke-linecap:butt;stroke-linejoin:round;stroke-miterlimit:10;stroke-opacity:1"
       d="M 89.296875,176.59375 V 157"
       id="path56" />
    <path
       style="fill:none;stroke:#a12e4a;stroke-width:1.5;stroke-linecap:butt;stroke-linejoin:round;stroke-miterlimit:10;stroke-opacity:1"
       d="M 203.97656,133.48437 V 120.42188"
       id="path57" />
    <path
       style="fill:none;stroke:#a12e4a;stroke-width:1.5;stroke-linecap:butt;stroke-linejoin:round;stroke-miterlimit:10;stroke-opacity:1"
       d="M 242.20312,115.19922 V 89.070312"
       id="path58" />
    <path
       style="fill:none;stroke:#a12e4a;stroke-width:1.5;stroke-linecap:butt;stroke-linejoin:round;stroke-miterlimit:10;stroke-opacity:1"
       d="m 280.42969,78.621094 v -26.125"
       id="path59" />
    <path
       style="fill:none;stroke:#a12e4a;stroke-width:1.5;stroke-linecap:butt;stroke-linejoin:round;stroke-miterlimit:10;stroke-opacity:1"
       d="M 318.65625,44.65625 V 34.207031"
       id="path60" />
    <path
       style="fill:none;stroke:#a12e4a;stroke-width:1;stroke-linecap:butt;stroke-linejoin:round;stroke-miterlimit:10;stroke-opacity:1"
       d="m 91.296875,176.59375 h -4"
       id="path61" />
    <path
       style="fill:none;stroke:#a12e4a;stroke-width:1;stroke-linecap:butt;stroke-linejoin:round;stroke-miterlimit:10;stroke-opacity:1"
       d="m 205.97656,133.48437 h -4"
       id="path62" />
    <path
       style="fill:none;stroke:#a12e4a;stroke-width:1;stroke-linecap:butt;stroke-linejoin:round;stroke-miterlimit:10;stroke-opacity:1"
       d="m 244.20312,115.19922 h -4"
       id="path63" />
    <path
       style="fill:none;stroke:#a12e4a;stroke-width:1;stroke-linecap:butt;stroke-linejoin:round;stroke-miterlimit:10;stroke-opacity:1"
       d="m 282.42969,78.621094 h -4"
       id="path64" />
    <path
       style="fill:none;stroke:#a12e4a;stroke-width:1;stroke-linecap:butt;stroke-linejoin:round;stroke-miterlimit:10;stroke-opacity:1"
       d="m 320.65625,44.65625 h -4"
       id="path65" />
    <path
       style="fill:none;stroke:#a12e4a;stroke-width:1;stroke-linecap:butt;stroke-linejoin:round;stroke-miterlimit:10;stroke-opacity:1"
       d="m 91.296875,157 h -4"
       id="path66" />
    <path
       style="fill:none;stroke:#a12e4a;stroke-width:1;stroke-linecap:butt;stroke-linejoin:round;stroke-miterlimit:10;stroke-opacity:1"
       d="m 205.97656,120.42188 h -4"
       id="path67" />
    <path
       style="fill:none;stroke:#a12e4a;stroke-width:1;stroke-linecap:butt;stroke-linejoin:round;stroke-miterlimit:10;stroke-opacity:1"
       d="m 244.20312,89.070312 h -4"
       id="path68" />
    <path
       style="fill:none;stroke:#a12e4a;stroke-width:1;stroke-linecap:butt;stroke-linejoin:round;stroke-miterlimit:10;stroke-opacity:1"
       d="m 282.42969,52.496094 h -4"
       id="path69" />
    <path
       style="fill:none;stroke:#a12e4a;stroke-width:1;stroke-linecap:butt;stroke-linejoin:round;stroke-miterlimit:10;stroke-opacity:1"
       d="m 320.65625,34.207031 h -4"
       id="path70" />
    <path
       style="fill:#a12e4a;fill-opacity:1;fill-rule:nonzero;stroke:#a12e4a;stroke-width:1;stroke-linecap:butt;stroke-linejoin:round;stroke-miterlimit:10;stroke-opacity:1"
       d="m 89.296875,166.53125 c 0.796875,0 1.5625,-0.31641 2.125,-0.87891 0.5625,-0.5625 0.875,-1.32422 0.875,-2.12109 0,-0.79688 -0.3125,-1.55859 -0.875,-2.12109 -0.5625,-0.5625 -1.328125,-0.87891 -2.125,-0.87891 -0.792969,0 -1.558594,0.31641 -2.121094,0.87891 -0.5625,0.5625 -0.878906,1.32421 -0.878906,2.12109 0,0.79687 0.316406,1.55859 0.878906,2.12109 0.5625,0.5625 1.328125,0.87891 2.121094,0.87891 z m 0,0"
       id="path71" />
    <path
       style="fill:#a12e4a;fill-opacity:1;fill-rule:nonzero;stroke:#a12e4a;stroke-width:1;stroke-linecap:butt;stroke-linejoin:round;stroke-miterlimit:10;stroke-opacity:1"
       d="m 203.97656,129.95312 c 0.79688,0 1.5586,-0.3164 2.1211,-0.8789 0.5625,-0.5625 0.8789,-1.32422 0.8789,-2.12109 0,-0.79297 -0.3164,-1.5586 -0.8789,-2.1211 -0.5625,-0.5625 -1.32422,-0.8789 -2.1211,-0.8789 -0.79297,0 -1.55859,0.3164 -2.12109,0.8789 -0.5625,0.5625 -0.87891,1.32813 -0.87891,2.1211 0,0.79687 0.31641,1.55859 0.87891,2.12109 0.5625,0.5625 1.32812,0.8789 2.12109,0.8789 z m 0,0"
       id="path72" />
    <path
       style="fill:#a12e4a;fill-opacity:1;fill-rule:nonzero;stroke:#a12e4a;stroke-width:1;stroke-linecap:butt;stroke-linejoin:round;stroke-miterlimit:10;stroke-opacity:1"
       d="m 242.20312,105.13281 c 0.79688,0 1.5586,-0.3164 2.1211,-0.8789 0.5625,-0.5625 0.8789,-1.32422 0.8789,-2.1211 0,-0.79297 -0.3164,-1.55859 -0.8789,-2.12109 -0.5625,-0.562501 -1.32422,-0.878908 -2.1211,-0.878908 -0.79296,0 -1.55859,0.316407 -2.12109,0.878908 -0.5625,0.5625 -0.87891,1.32812 -0.87891,2.12109 0,0.79688 0.31641,1.5586 0.87891,2.1211 0.5625,0.5625 1.32813,0.8789 2.12109,0.8789 z m 0,0"
       id="path73" />
    <path
       style="fill:#a12e4a;fill-opacity:1;fill-rule:nonzero;stroke:#a12e4a;stroke-width:1;stroke-linecap:butt;stroke-linejoin:round;stroke-miterlimit:10;stroke-opacity:1"
       d="m 280.42969,68.558594 c 0.79687,0 1.55859,-0.316406 2.12109,-0.878906 0.5625,-0.5625 0.87891,-1.328126 0.87891,-2.121094 0,-0.796875 -0.31641,-1.558594 -0.87891,-2.121094 -0.5625,-0.5625 -1.32422,-0.878906 -2.12109,-0.878906 -0.79297,0 -1.5586,0.316406 -2.1211,0.878906 -0.5625,0.5625 -0.8789,1.324219 -0.8789,2.121094 0,0.792968 0.3164,1.558594 0.8789,2.121094 0.5625,0.5625 1.32813,0.878906 2.1211,0.878906 z m 0,0"
       id="path74" />
    <path
       style="fill:#a12e4a;fill-opacity:1;fill-rule:nonzero;stroke:#a12e4a;stroke-width:1;stroke-linecap:butt;stroke-linejoin:round;stroke-miterlimit:10;stroke-opacity:1"
       d="m 318.65625,39.820312 c 0.79687,0 1.55859,-0.316406 2.12109,-0.878906 0.5625,-0.5625 0.87891,-1.328125 0.87891,-2.121094 0,-0.796874 -0.31641,-1.558593 -0.87891,-2.125 -0.5625,-0.5625 -1.32422,-0.875 -2.12109,-0.875 -0.79688,0 -1.55859,0.3125 -2.12109,0.875 -0.5625,0.566407 -0.87891,1.328126 -0.87891,2.125 0,0.792969 0.31641,1.558594 0.87891,2.121094 0.5625,0.5625 1.32421,0.878906 2.12109,0.878906 z m 0,0"
       id="path75" />
    <path
       style="fill:none;stroke:#000000;stroke-width:1.5;stroke-linecap:butt;stroke-linejoin:round;stroke-miterlimit:10;stroke-dasharray:5.55, 2.4;stroke-opacity:1"
       d="m 89.296875,163.53125 h 74.894535 l 6.24218,-4 6.23828,-5.33203 12.48438,-10.66406 6.23828,-5.33204 18.72656,-15.99609 6.23828,-5.33203 6.24219,-5.32812 6.24219,-5.33204 6.23828,-5.33203 18.72656,-15.996091 6.23828,-5.332031 12.48438,-10.664063 6.23828,-5.332031 12.48438,-10.664063 6.23828,-5.332031 12.48437,-10.664062 6.24219,-4 h 74.89062"
       id="path76" />
    <path
       style="fill:none;stroke:#000000;stroke-width:0.8;stroke-linecap:square;stroke-linejoin:miter;stroke-miterlimit:10;stroke-opacity:1"
       d="M 74.007812,183.97656 V 21.601562"
       id="path77" />
    <path
       style="fill:none;stroke:#000000;stroke-width:0.8;stroke-linecap:square;stroke-linejoin:miter;stroke-miterlimit:10;stroke-opacity:1"
       d="M 410.39844,183.97656 V 21.601562"
       id="path78" />
    <path
       style="fill:none;stroke:#000000;stroke-width:0.8;stroke-linecap:square;stroke-linejoin:miter;stroke-miterlimit:10;stroke-opacity:1"
       d="M 74.007812,183.97656 H 410.39844"
       id="path79" />
    <path
       style="fill:none;stroke:#000000;stroke-width:0.8;stroke-linecap:square;stroke-linejoin:miter;stroke-miterlimit:10;stroke-opacity:1"
       d="M 74.007812,21.601562 H 410.39844"
       id="path80" />
    <path
       style="fill:#ffffff;fill-opacity:0.8;fill-rule:nonzero;stroke:#cacaca;stroke-width:0.554402;stroke-linecap:butt;stroke-linejoin:miter;stroke-miterlimit:10;stroke-opacity:0.8"
       d="m 84.449219,83.992188 h 93.128901 c 1.10938,0 1.66407,-0.800782 1.66407,-2.394532 V 32.769531 c 0,-1.59375 -0.55469,-2.390625 -1.66407,-2.390625 H 84.449219 c -1.109375,0 -1.664063,0.796875 -1.664063,2.390625 v 48.828125 c 0,1.59375 0.554688,2.394532 1.664063,2.394532 z m 0,0"
       id="path81" />
    <path
       style="fill:#ffffff;fill-opacity:0.8;fill-rule:nonzero;stroke:#cacaca;stroke-width:0.549155;stroke-linecap:butt;stroke-linejoin:miter;stroke-miterlimit:10;stroke-opacity:0.8"
       d="m 233.77177,176.24172 h 167.97209 c 2.006,0 3.00567,-0.43428 3.00567,-1.30283 v -26.55746 c 0,-0.86856 -0.99967,-1.30284 -3.00567,-1.30284 H 233.77177 c -2.00267,0 -3.00235,0.43428 -3.00235,1.30284 v 26.55746 c 0,0.86855 0.99968,1.30283 3.00235,1.30283 z m 0,0"
       id="path82" />
    <path
       style="fill:#eea6c5;fill-opacity:1;fill-rule:nonzero;stroke:#eea6c5;stroke-width:1;stroke-linecap:butt;stroke-linejoin:round;stroke-miterlimit:10;stroke-opacity:1"
       d="m 108.20703,47.101562 c 0.79688,0 1.5586,-0.316406 2.1211,-0.878906 0.5625,-0.5625 0.8789,-1.328125 0.8789,-2.121094 0,-0.796874 -0.3164,-1.558593 -0.8789,-2.121093 -0.5625,-0.5625 -1.32422,-0.878907 -2.1211,-0.878907 -0.79297,0 -1.55859,0.316407 -2.12109,0.878907 -0.5625,0.5625 -0.87891,1.324219 -0.87891,2.121093 0,0.792969 0.31641,1.558594 0.87891,2.121094 0.5625,0.5625 1.32812,0.878906 2.12109,0.878906 z m 0,0"
       id="path83" />
    <path
       style="fill:#000000;fill-opacity:1;fill-rule:nonzero;stroke:none"
       d="m 148.09375,47.617188 h -0.32813 c -0.17187,1.28125 -0.32812,1.484374 -0.39062,1.59375 -0.0937,0.140624 -1.39063,0.140624 -1.64063,0.140624 h -3.4375 c 0.64063,-0.6875 1.90625,-1.96875 3.42188,-3.4375 1.09375,-1.046874 2.375,-2.265624 2.375,-4.03125 0,-2.125 -1.6875,-3.34375 -3.57813,-3.34375 -1.96875,0 -3.17187,1.75 -3.17187,3.359376 0,0.703124 0.51562,0.78125 0.73437,0.78125 0.1875,0 0.71875,-0.109376 0.71875,-0.734376 0,-0.546874 -0.46875,-0.71875 -0.71875,-0.71875 -0.10937,0 -0.21875,0.03125 -0.28125,0.0625 0.34375,-1.53125 1.375,-2.28125 2.46875,-2.28125 1.5625,0 2.59375,1.234376 2.59375,2.875 0,1.5625 -0.92187,2.90625 -1.9375,4.0625 l -3.57812,4.046876 v 0.40625 h 6.3125 z m 0,0"
       id="path84" />
    <path
       style="fill:#000000;fill-opacity:1;fill-rule:nonzero;stroke:none"
       d="m 149.75781,38.148438 v 0.46875 c 1.23438,0 1.4375,0 1.4375,0.796874 v 9.703126 c 0,0.8125 -0.20312,0.8125 -1.4375,0.8125 v 0.46875 h 5.70313 c 2.89062,0 5.20312,-2.65625 5.20312,-6.03125 0,-3.390626 -2.28125,-6.21875 -5.20312,-6.21875 z m 3.32813,11.78125 c -0.71875,0 -0.75,-0.09375 -0.75,-0.703126 v -9.90625 c 0,-0.609374 0.0312,-0.703124 0.75,-0.703124 h 2.01562 c 1.48438,0 4.23438,0.875 4.23438,5.75 0,2.53125 -0.73438,3.5625 -1.07813,4.046874 -0.4375,0.546876 -1.45312,1.515626 -3.15625,1.515626 z m 0,0"
       id="path85" />
    <path
       style="fill:#a12e4a;fill-opacity:1;fill-rule:nonzero;stroke:#a12e4a;stroke-width:1;stroke-linecap:butt;stroke-linejoin:round;stroke-miterlimit:10;stroke-opacity:1"
       d="m 108.20703,72.1875 c 0.79688,0 1.5586,-0.316406 2.1211,-0.878906 0.5625,-0.5625 0.8789,-1.324219 0.8789,-2.121094 0,-0.796875 -0.3164,-1.558594 -0.8789,-2.121094 -0.5625,-0.5625 -1.32422,-0.878906 -2.1211,-0.878906 -0.79297,0 -1.55859,0.316406 -2.12109,0.878906 -0.5625,0.5625 -0.87891,1.324219 -0.87891,2.121094 0,0.796875 0.31641,1.558594 0.87891,2.121094 0.5625,0.5625 1.32812,0.878906 2.12109,0.878906 z m 0,0"
       id="path86" />
    <path
       style="fill:#000000;fill-opacity:1;fill-rule:nonzero;stroke:none"
       d="m 145.375,64.019531 c 0,-0.375 -0.0156,-0.390625 -0.26563,-0.390625 -0.70312,0.84375 -1.75,1.109375 -2.76562,1.15625 -0.0469,0 -0.14063,0 -0.15625,0.03125 -0.0156,0.03125 -0.0156,0.07813 -0.0156,0.453125 0.54688,0 1.48438,-0.109375 2.20313,-0.546875 v 9.453125 c 0,0.625 -0.0312,0.84375 -1.57813,0.84375 h -0.53125 v 0.46875 c 0.85938,-0.01563 1.75,-0.03125 2.60938,-0.03125 0.85937,0 1.76562,0.01563 2.625,0.03125 v -0.46875 h -0.54688 c -1.53125,0 -1.57812,-0.1875 -1.57812,-0.84375 z m 0,0"
       id="path87" />
    <path
       style="fill:#000000;fill-opacity:1;fill-rule:nonzero;stroke:none"
       d="m 149.75781,63.238281 v 0.46875 c 1.23438,0 1.4375,0 1.4375,0.796875 v 9.703125 c 0,0.8125 -0.20312,0.8125 -1.4375,0.8125 v 0.46875 h 5.70313 c 2.89062,0 5.20312,-2.65625 5.20312,-6.03125 0,-3.390625 -2.28125,-6.21875 -5.20312,-6.21875 z m 3.32813,11.78125 c -0.71875,0 -0.75,-0.09375 -0.75,-0.703125 v -9.90625 c 0,-0.609375 0.0312,-0.703125 0.75,-0.703125 h 2.01562 c 1.48438,0 4.23438,0.875 4.23438,5.75 0,2.53125 -0.73438,3.5625 -1.07813,4.046875 -0.4375,0.546875 -1.45312,1.515625 -3.15625,1.515625 z m 0,0"
       id="path88" />
    <path
       style="fill:none;stroke:#000000;stroke-width:1.5;stroke-linecap:butt;stroke-linejoin:round;stroke-miterlimit:10;stroke-dasharray:5.55, 2.4;stroke-opacity:1"
       d="m 237.8125,161.41797 h 36"
       id="path90" />
    <g
       inkscape:label=""
       transform="matrix(1.4473743,0,0,1.4473743,283.83158,155.17894)"
       id="g107">
      <g
         id="surface4"
         transform="translate(-2.41487,-1.95788)">
        <g
           style="fill:#000000;fill-opacity:1"
           id="g19">
          <g
             id="use13"
             transform="translate(1.993,8.9110003)">
            <path
               style="stroke:none"
               d="m 3.3125,-0.75 c 0.046875,0.390625 0.3125,0.8125 0.78125,0.8125 0.21875,0 0.828125,-0.140625 0.828125,-0.953125 v -0.5625 h -0.25 v 0.5625 c 0,0.578125 -0.25,0.640625 -0.359375,0.640625 -0.328125,0 -0.375,-0.453125 -0.375,-0.5 v -1.984375 c 0,-0.421875 0,-0.8125 -0.359375,-1.1875 C 3.1875,-4.3125 2.6875,-4.46875 2.21875,-4.46875 c -0.828125,0 -1.515625,0.46875 -1.515625,1.125 0,0.296875 0.203125,0.46875 0.46875,0.46875 0.28125,0 0.453125,-0.203125 0.453125,-0.453125 0,-0.125 -0.046875,-0.453125 -0.515625,-0.453125 C 1.390625,-4.140625 1.875,-4.25 2.1875,-4.25 c 0.5,0 1.0625,0.390625 1.0625,1.28125 v 0.359375 c -0.515625,0.03125 -1.203125,0.0625 -1.828125,0.359375 -0.75,0.34375 -1,0.859375 -1,1.296875 0,0.8125 0.96875,1.0625 1.59375,1.0625 0.65625,0 1.109375,-0.40625 1.296875,-0.859375 z M 3.25,-2.390625 v 1 c 0,0.9375 -0.71875,1.28125 -1.171875,1.28125 -0.484375,0 -0.890625,-0.34375 -0.890625,-0.84375 0,-0.546875 0.421875,-1.375 2.0625,-1.4375 z m 0,0"
               id="path29-1" />
          </g>
          <g
             id="use14"
             transform="translate(6.9742999,8.9110003)">
            <path
               style="stroke:none"
               d="m 1.71875,-3.984375 h 1.4375 v -0.3125 H 1.71875 V -6.125 h -0.25 c 0,0.8125 -0.296875,1.875 -1.28125,1.921875 v 0.21875 h 0.84375 v 2.75 c 0,1.21875 0.9375,1.34375 1.296875,1.34375 0.703125,0 0.984375,-0.703125 0.984375,-1.34375 v -0.5625 h -0.25 V -1.25 c 0,0.734375 -0.296875,1.109375 -0.671875,1.109375 -0.671875,0 -0.671875,-0.90625 -0.671875,-1.078125 z m 0,0"
               id="path30-1" />
          </g>
          <g
             id="use15"
             transform="translate(10.848755,8.9110003)">
            <path
               style="stroke:none"
               d="m 1.71875,-3.984375 h 1.4375 v -0.3125 H 1.71875 V -6.125 h -0.25 c 0,0.8125 -0.296875,1.875 -1.28125,1.921875 v 0.21875 h 0.84375 v 2.75 c 0,1.21875 0.9375,1.34375 1.296875,1.34375 0.703125,0 0.984375,-0.703125 0.984375,-1.34375 v -0.5625 h -0.25 V -1.25 c 0,0.734375 -0.296875,1.109375 -0.671875,1.109375 -0.671875,0 -0.671875,-0.90625 -0.671875,-1.078125 z m 0,0"
               id="path31-1" />
          </g>
          <g
             id="use16"
             transform="translate(14.72321,8.9110003)">
            <path
               style="stroke:none"
               d="M 1.109375,-2.515625 C 1.171875,-4 2.015625,-4.25 2.359375,-4.25 c 1.015625,0 1.125,1.34375 1.125,1.734375 z m 0,0.21875 h 2.78125 c 0.21875,0 0.25,0 0.25,-0.21875 0,-0.984375 -0.546875,-1.953125 -1.78125,-1.953125 -1.15625,0 -2.078125,1.03125 -2.078125,2.28125 0,1.328125 1.046875,2.296875 2.1875,2.296875 C 3.6875,0.109375 4.140625,-1 4.140625,-1.1875 4.140625,-1.28125 4.0625,-1.3125 4,-1.3125 c -0.078125,0 -0.109375,0.0625 -0.125,0.140625 -0.34375,1.03125 -1.25,1.03125 -1.34375,1.03125 -0.5,0 -0.890625,-0.296875 -1.125,-0.671875 -0.296875,-0.46875 -0.296875,-1.125 -0.296875,-1.484375 z m 0,0"
               id="path32-1" />
          </g>
          <g
             id="use17"
             transform="translate(19.150591,8.9110003)">
            <path
               style="stroke:none"
               d="M 1.09375,-3.421875 V -0.75 c 0,0.4375 -0.109375,0.4375 -0.78125,0.4375 V 0 c 0.359375,-0.015625 0.859375,-0.03125 1.140625,-0.03125 0.25,0 0.765625,0.015625 1.109375,0.03125 v -0.3125 c -0.671875,0 -0.78125,0 -0.78125,-0.4375 V -2.59375 C 1.78125,-3.625 2.5,-4.1875 3.125,-4.1875 c 0.640625,0 0.75,0.53125 0.75,1.109375 V -0.75 c 0,0.4375 -0.109375,0.4375 -0.78125,0.4375 V 0 c 0.34375,-0.015625 0.859375,-0.03125 1.125,-0.03125 0.25,0 0.78125,0.015625 1.109375,0.03125 v -0.3125 c -0.515625,0 -0.765625,0 -0.765625,-0.296875 v -1.90625 c 0,-0.859375 0,-1.15625 -0.3125,-1.515625 -0.140625,-0.171875 -0.46875,-0.375 -1.046875,-0.375 C 2.46875,-4.40625 2,-3.984375 1.71875,-3.359375 V -4.40625 L 0.3125,-4.296875 v 0.3125 c 0.703125,0 0.78125,0.0625 0.78125,0.5625 z m 0,0"
               id="path33-1" />
          </g>
          <g
             id="use18"
             transform="translate(24.68581,8.9110003)">
            <path
               style="stroke:none"
               d="m 3.78125,-0.546875 v 0.65625 L 5.25,0 v -0.3125 c -0.6875,0 -0.78125,-0.0625 -0.78125,-0.5625 V -6.921875 L 3.046875,-6.8125 V -6.5 c 0.6875,0 0.765625,0.0625 0.765625,0.5625 v 2.15625 c -0.28125,-0.359375 -0.71875,-0.625 -1.25,-0.625 -1.171875,0 -2.21875,0.984375 -2.21875,2.265625 0,1.265625 0.96875,2.25 2.109375,2.25 0.640625,0 1.078125,-0.34375 1.328125,-0.65625 z m 0,-2.671875 v 2.046875 c 0,0.171875 0,0.1875 -0.109375,0.359375 C 3.375,-0.328125 2.9375,-0.109375 2.5,-0.109375 2.046875,-0.109375 1.6875,-0.375 1.453125,-0.75 1.203125,-1.15625 1.171875,-1.71875 1.171875,-2.140625 1.171875,-2.5 1.1875,-3.09375 1.46875,-3.546875 1.6875,-3.859375 2.0625,-4.1875 2.609375,-4.1875 c 0.34375,0 0.765625,0.15625 1.0625,0.59375 0.109375,0.171875 0.109375,0.1875 0.109375,0.375 z m 0,0"
               id="path34-1" />
          </g>
          <g
             id="use19"
             transform="translate(30.221031,8.9110003)">
            <path
               style="stroke:none"
               d="M 3.890625,-0.78125 V 0.109375 L 5.328125,0 V -0.3125 C 4.640625,-0.3125 4.5625,-0.375 4.5625,-0.875 v -3.53125 l -1.46875,0.109375 v 0.3125 c 0.6875,0 0.78125,0.0625 0.78125,0.5625 v 1.765625 c 0,0.875 -0.484375,1.546875 -1.21875,1.546875 -0.828125,0 -0.875,-0.46875 -0.875,-0.984375 v -3.3125 L 0.3125,-4.296875 v 0.3125 c 0.78125,0 0.78125,0.03125 0.78125,0.90625 v 1.5 c 0,0.78125 0,1.6875 1.515625,1.6875 0.5625,0 1,-0.28125 1.28125,-0.890625 z m 0,0"
               id="path35-1" />
          </g>
        </g>
        <g
           style="fill:#000000;fill-opacity:1"
           id="g21">
          <g
             id="use20"
             transform="translate(39.073795,8.9110003)">
            <path
               style="stroke:none"
               d="m 1.71875,-3.984375 h 1.4375 v -0.3125 H 1.71875 V -6.125 h -0.25 c 0,0.8125 -0.296875,1.875 -1.28125,1.921875 v 0.21875 h 0.84375 v 2.75 c 0,1.21875 0.9375,1.34375 1.296875,1.34375 0.703125,0 0.984375,-0.703125 0.984375,-1.34375 v -0.5625 h -0.25 V -1.25 c 0,0.734375 -0.296875,1.109375 -0.671875,1.109375 -0.671875,0 -0.671875,-0.90625 -0.671875,-1.078125 z m 0,0"
               id="path36-1" />
          </g>
          <g
             id="use21"
             transform="translate(42.948254,8.9110003)">
            <path
               style="stroke:none"
               d="m 1.09375,-0.75 c 0,0.4375 -0.109375,0.4375 -0.78125,0.4375 V 0 c 0.359375,-0.015625 0.859375,-0.03125 1.140625,-0.03125 0.25,0 0.765625,0.015625 1.109375,0.03125 v -0.3125 c -0.671875,0 -0.78125,0 -0.78125,-0.4375 V -2.59375 C 1.78125,-3.625 2.5,-4.1875 3.125,-4.1875 c 0.640625,0 0.75,0.53125 0.75,1.109375 V -0.75 c 0,0.4375 -0.109375,0.4375 -0.78125,0.4375 V 0 c 0.34375,-0.015625 0.859375,-0.03125 1.125,-0.03125 0.25,0 0.78125,0.015625 1.109375,0.03125 v -0.3125 c -0.515625,0 -0.765625,0 -0.765625,-0.296875 v -1.90625 c 0,-0.859375 0,-1.15625 -0.3125,-1.515625 -0.140625,-0.171875 -0.46875,-0.375 -1.046875,-0.375 -0.84375,0 -1.28125,0.59375 -1.453125,0.984375 v -3.5 L 0.3125,-6.8125 V -6.5 c 0.703125,0 0.78125,0.0625 0.78125,0.5625 z m 0,0"
               id="path37-1" />
          </g>
        </g>
        <g
           style="fill:#000000;fill-opacity:1"
           id="g22">
          <g
             id="use22"
             transform="translate(48.204521,8.9110003)">
            <path
               style="stroke:none"
               d="M 3.734375,-6.296875 C 3.828125,-6.375 3.90625,-6.484375 3.90625,-6.59375 c 0,-0.1875 -0.171875,-0.359375 -0.359375,-0.359375 -0.140625,0 -0.25,0.109375 -0.296875,0.171875 l -1.203125,1.515625 0.171875,0.1875 z m 0,0"
               id="path38-1" />
          </g>
        </g>
        <g
           style="fill:#000000;fill-opacity:1"
           id="g29">
          <g
             id="use23"
             transform="translate(48.483475,8.9110003)">
            <path
               style="stroke:none"
               d="M 1.109375,-2.515625 C 1.171875,-4 2.015625,-4.25 2.359375,-4.25 c 1.015625,0 1.125,1.34375 1.125,1.734375 z m 0,0.21875 h 2.78125 c 0.21875,0 0.25,0 0.25,-0.21875 0,-0.984375 -0.546875,-1.953125 -1.78125,-1.953125 -1.15625,0 -2.078125,1.03125 -2.078125,2.28125 0,1.328125 1.046875,2.296875 2.1875,2.296875 C 3.6875,0.109375 4.140625,-1 4.140625,-1.1875 4.140625,-1.28125 4.0625,-1.3125 4,-1.3125 c -0.078125,0 -0.109375,0.0625 -0.125,0.140625 -0.34375,1.03125 -1.25,1.03125 -1.34375,1.03125 -0.5,0 -0.890625,-0.296875 -1.125,-0.671875 -0.296875,-0.46875 -0.296875,-1.125 -0.296875,-1.484375 z m 0,0"
               id="path39-1" />
          </g>
          <g
             id="use24"
             transform="translate(52.910851,8.9110003)">
            <path
               style="stroke:none"
               d="M 4.6875,-2.140625 C 4.6875,-3.40625 3.703125,-4.46875 2.5,-4.46875 c -1.25,0 -2.21875,1.09375 -2.21875,2.328125 0,1.296875 1.03125,2.25 2.203125,2.25 1.203125,0 2.203125,-0.984375 2.203125,-2.25 z m -2.1875,2 c -0.4375,0 -0.875,-0.203125 -1.140625,-0.671875 -0.25,-0.4375 -0.25,-1.046875 -0.25,-1.40625 0,-0.390625 0,-0.921875 0.234375,-1.359375 C 1.609375,-4.03125 2.078125,-4.25 2.484375,-4.25 c 0.4375,0 0.859375,0.21875 1.125,0.65625 0.265625,0.421875 0.265625,1 0.265625,1.375 0,0.359375 0,0.90625 -0.21875,1.34375 C 3.421875,-0.421875 2.984375,-0.140625 2.5,-0.140625 Z m 0,0"
               id="path40-1" />
          </g>
          <g
             id="use25"
             transform="translate(57.892151,8.9110003)">
            <path
               style="stroke:none"
               d="M 1.671875,-3.3125 V -4.40625 L 0.28125,-4.296875 v 0.3125 c 0.703125,0 0.78125,0.0625 0.78125,0.5625 V -0.75 c 0,0.4375 -0.109375,0.4375 -0.78125,0.4375 V 0 c 0.390625,-0.015625 0.859375,-0.03125 1.140625,-0.03125 0.390625,0 0.859375,0 1.265625,0.03125 V -0.3125 H 2.46875 c -0.734375,0 -0.75,-0.109375 -0.75,-0.46875 V -2.3125 c 0,-0.984375 0.421875,-1.875 1.171875,-1.875 0.0625,0 0.09375,0 0.109375,0.015625 -0.03125,0 -0.234375,0.125 -0.234375,0.390625 0,0.265625 0.21875,0.421875 0.4375,0.421875 0.171875,0 0.421875,-0.125 0.421875,-0.4375 0,-0.3125 -0.3125,-0.609375 -0.734375,-0.609375 -0.734375,0 -1.09375,0.671875 -1.21875,1.09375 z m 0,0"
               id="path41-1" />
          </g>
          <g
             id="use26"
             transform="translate(61.794502,8.9110003)">
            <path
               style="stroke:none"
               d="M 1.765625,-4.40625 0.375,-4.296875 v 0.3125 c 0.640625,0 0.734375,0.0625 0.734375,0.546875 V -0.75 c 0,0.4375 -0.109375,0.4375 -0.78125,0.4375 V 0 C 0.640625,-0.015625 1.1875,-0.03125 1.421875,-0.03125 1.78125,-0.03125 2.125,-0.015625 2.46875,0 v -0.3125 c -0.671875,0 -0.703125,-0.046875 -0.703125,-0.4375 z m 0.03125,-1.734375 c 0,-0.3125 -0.234375,-0.53125 -0.515625,-0.53125 -0.3125,0 -0.53125,0.265625 -0.53125,0.53125 0,0.265625 0.21875,0.53125 0.53125,0.53125 0.28125,0 0.515625,-0.21875 0.515625,-0.53125 z m 0,0"
               id="path42-1" />
          </g>
          <g
             id="use27"
             transform="translate(64.562111,8.9110003)">
            <path
               style="stroke:none"
               d="m 3.78125,-0.609375 v 1.78125 C 3.78125,1.625 3.671875,1.625 3.015625,1.625 V 1.9375 C 3.34375,1.921875 3.875,1.90625 4.125,1.90625 c 0.265625,0 0.78125,0.015625 1.125,0.03125 V 1.625 c -0.671875,0 -0.78125,0 -0.78125,-0.453125 V -4.40625 H 4.25 L 3.875,-3.5 C 3.75,-3.78125 3.34375,-4.40625 2.546875,-4.40625 c -1.15625,0 -2.203125,0.96875 -2.203125,2.265625 0,1.25 0.96875,2.25 2.125,2.25 0.6875,0 1.09375,-0.421875 1.3125,-0.71875 z m 0.03125,-2.15625 v 1.40625 C 3.8125,-1.03125 3.640625,-0.75 3.421875,-0.515625 3.296875,-0.375 2.96875,-0.109375 2.5,-0.109375 1.78125,-0.109375 1.171875,-1 1.171875,-2.140625 c 0,-1.1875 0.6875,-2.015625 1.4375,-2.015625 0.796875,0 1.203125,0.859375 1.203125,1.390625 z m 0,0"
               id="path43-1" />
          </g>
          <g
             id="use28"
             transform="translate(69.820374,8.9110003)">
            <path
               style="stroke:none"
               d="M 3.890625,-0.78125 V 0.109375 L 5.328125,0 V -0.3125 C 4.640625,-0.3125 4.5625,-0.375 4.5625,-0.875 v -3.53125 l -1.46875,0.109375 v 0.3125 c 0.6875,0 0.78125,0.0625 0.78125,0.5625 v 1.765625 c 0,0.875 -0.484375,1.546875 -1.21875,1.546875 -0.828125,0 -0.875,-0.46875 -0.875,-0.984375 v -3.3125 L 0.3125,-4.296875 v 0.3125 c 0.78125,0 0.78125,0.03125 0.78125,0.90625 v 1.5 c 0,0.78125 0,1.6875 1.515625,1.6875 0.5625,0 1,-0.28125 1.28125,-0.890625 z m 0,0"
               id="path44-1" />
          </g>
          <g
             id="use29"
             transform="translate(75.355591,8.9110003)">
            <path
               style="stroke:none"
               d="M 1.109375,-2.515625 C 1.171875,-4 2.015625,-4.25 2.359375,-4.25 c 1.015625,0 1.125,1.34375 1.125,1.734375 z m 0,0.21875 h 2.78125 c 0.21875,0 0.25,0 0.25,-0.21875 0,-0.984375 -0.546875,-1.953125 -1.78125,-1.953125 -1.15625,0 -2.078125,1.03125 -2.078125,2.28125 0,1.328125 1.046875,2.296875 2.1875,2.296875 C 3.6875,0.109375 4.140625,-1 4.140625,-1.1875 4.140625,-1.28125 4.0625,-1.3125 4,-1.3125 c -0.078125,0 -0.109375,0.0625 -0.125,0.140625 -0.34375,1.03125 -1.25,1.03125 -1.34375,1.03125 -0.5,0 -0.890625,-0.296875 -1.125,-0.671875 -0.296875,-0.46875 -0.296875,-1.125 -0.296875,-1.484375 z m 0,0"
               id="path45-1" />
          </g>
        </g>
      </g>
    </g>
  </g>
</svg>
