<?xml version="1.0" encoding="UTF-8" standalone="no"?>
<!-- Created with Inkscape (http://www.inkscape.org/) -->

<svg
   width="28.613974mm"
   height="143.65643mm"
   viewBox="0 0 28.613974 143.65643"
   version="1.1"
   id="svg1"
   xml:space="preserve"
   xmlns:inkscape="http://www.inkscape.org/namespaces/inkscape"
   xmlns:sodipodi="http://sodipodi.sourceforge.net/DTD/sodipodi-0.dtd"
   xmlns="http://www.w3.org/2000/svg"
   xmlns:svg="http://www.w3.org/2000/svg"><sodipodi:namedview
     id="namedview1"
     pagecolor="#ffffff"
     bordercolor="#666666"
     borderopacity="1.0"
     inkscape:showpageshadow="2"
     inkscape:pageopacity="0.0"
     inkscape:pagecheckerboard="0"
     inkscape:deskcolor="#d1d1d1"
     inkscape:document-units="mm"><inkscape:page
       x="0"
       y="0"
       width="28.613974"
       height="143.65643"
       id="page2"
       margin="0"
       bleed="0" /></sodipodi:namedview><defs
     id="defs1" /><g
     inkscape:label="Calque 1"
     inkscape:groupmode="layer"
     id="layer1"
     transform="translate(-16.39319,-12.920606)"><g
       id="g5"
       transform="rotate(19.150646,93.865328,-113.27996)"><path
         style="fill:#efa8c6"
         d="m 73.554872,37.83426 39.313808,110.9664 10.56823,13.31597 -0.21136,-17.33189 L 83.911738,34.241062 89.618581,26.209208 64.677562,35.50925 Z"
         id="path1"
         sodipodi:nodetypes="cccccccc" /><path
         style="fill:#ffd2e7;stroke:none;stroke-width:0.264583px;stroke-linecap:butt;stroke-linejoin:miter;stroke-opacity:1"
         d="m 64.398429,34.962953 c 0,0 -0.532768,-0.19979 -1.19873,-1.198729 -0.665961,-0.998943 -1.065538,-2.264268 -1.065538,-2.264268 l 26.771635,-9.456647 c 0,0 0.266382,-0.266384 0.532767,0.998942 0.266385,1.265326 0,2.530651 0,2.530651 z"
         id="path2" /><path
         style="fill:#ffe4f3;stroke:none;stroke-width:0.264583px;stroke-linecap:butt;stroke-linejoin:miter;stroke-opacity:1"
         d="m 80.8698,53.070807 1.943986,-0.777595 36.352534,101.476048 -5.05437,-6.41515 z"
         id="path3" /><path
         style="fill:#ffe4f3;stroke:none;stroke-width:0.264583px;stroke-linecap:butt;stroke-linejoin:miter;stroke-opacity:1"
         d="m 75.15863,39.645977 5.115314,-1.770684 1.672315,0.688599 -6.394143,2.16417 z"
         id="path4" /><path
         style="fill:#ffe4f3;stroke:none;stroke-width:0.264583px;stroke-linecap:butt;stroke-linejoin:miter;stroke-opacity:1"
         d="m 75.944453,41.711777 7.377855,-2.557655 1.377199,0.590227 -8.459941,2.951141 z"
         id="path5" /></g></g></svg>
