<?xml version="1.0" encoding="UTF-8" standalone="no"?>
<svg
   width="266.53232pt"
   height="209.20178pt"
   viewBox="0 0 266.53231 209.20179"
   version="1.2"
   id="svg93866"
   sodipodi:docname="CourbeRheoYieldStress.svg"
   inkscape:version="1.2.2 (1:1.2.2+202212051552+b0a8486541)"
   inkscape:export-filename="CourbeRheoYieldStress.pdf"
   inkscape:export-xdpi="96"
   inkscape:export-ydpi="96"
   xmlns:inkscape="http://www.inkscape.org/namespaces/inkscape"
   xmlns:sodipodi="http://sodipodi.sourceforge.net/DTD/sodipodi-0.dtd"
   xmlns="http://www.w3.org/2000/svg"
   xmlns:svg="http://www.w3.org/2000/svg">
  <sodipodi:namedview
     id="namedview93868"
     pagecolor="#ffffff"
     bordercolor="#000000"
     borderopacity="0.25"
     inkscape:showpageshadow="2"
     inkscape:pageopacity="0.0"
     inkscape:pagecheckerboard="0"
     inkscape:deskcolor="#d1d1d1"
     inkscape:document-units="pt"
     showgrid="false"
     inkscape:zoom="1.5674954"
     inkscape:cx="114.83287"
     inkscape:cy="178.94789"
     inkscape:window-width="1846"
     inkscape:window-height="1016"
     inkscape:window-x="1154"
     inkscape:window-y="27"
     inkscape:window-maximized="1"
     inkscape:current-layer="svg93866">
    <inkscape:page
       x="0"
       y="0"
       width="266.53229"
       height="209.2018"
       id="page2"
       margin="0"
       bleed="0" />
  </sodipodi:namedview>
  <defs
     id="defs93739">
    <clipPath
       id="clip1">
      <path
         d="m 251,192 h 15.53125 v 17.20312 H 251 Z m 0,0"
         id="path93736" />
    </clipPath>
  </defs>
  <g
     id="surface1344713">
    <path
       style="fill:#05305e;fill-opacity:1;fill-rule:nonzero;stroke:#05305e;stroke-width:1.54437;stroke-linecap:butt;stroke-linejoin:round;stroke-miterlimit:4;stroke-opacity:1"
       d="M 20.785156,184.76562 198.66406,11.933594"
       id="path93741" />
    <path
       style="fill:none;stroke:#a3304a;stroke-width:1.54437;stroke-linecap:round;stroke-linejoin:round;stroke-miterlimit:4;stroke-opacity:1"
       d="m 79.441406,184.69922 c 26.511724,-1.59766 53.023434,-3.19531 82.824214,-21.78516 29.80469,-18.58984 62.89454,-54.17578 95.98438,-89.761716"
       id="path93743" />
    <path
       style="fill:none;stroke:#000000;stroke-width:1.54437;stroke-linecap:round;stroke-linejoin:round;stroke-miterlimit:4;stroke-opacity:1"
       d="m 20.9375,22.738281 -0.07813,161.949219 221.8164,0.082"
       id="path93745" />
    <path
       style="fill:#000000;fill-opacity:1;fill-rule:evenodd;stroke:none"
       d="m 16.613281,24.898438 4.328125,-11.886719 4.320313,11.890625 c -2.519531,-2.160156 -6.117188,-2.164063 -8.648438,-0.0039 z m 0,0"
       id="path93747" />
    <path
       style="fill:#000000;fill-opacity:1;fill-rule:evenodd;stroke:none"
       d="m 240.51562,180.44141 11.89063,4.33203 -11.89063,4.3164 c 2.16016,-2.51562 2.16407,-6.11718 0,-8.64843 z m 0,0"
       id="path93749" />
    <path
       style="fill:none;stroke:#000000;stroke-width:1.57581;stroke-linecap:round;stroke-linejoin:round;stroke-miterlimit:4;stroke-opacity:1"
       d="m 70.398438,67.535156 c -1.972657,24.800782 3.234374,50.132814 14.835937,72.140624 6.164063,11.70313 14.097656,22.46875 23.445315,31.82422"
       id="path93751" />
    <path
       style="fill:#000000;fill-opacity:1;fill-rule:evenodd;stroke:#000000;stroke-width:0.743128;stroke-linecap:butt;stroke-linejoin:miter;stroke-miterlimit:4;stroke-opacity:1"
       d="m 143.3733,31.36938 -4.82304,2.786106 -1.7e-4,-5.574392 z m 0,0"
       transform="matrix(0.999237,1,-1,0.999237,0,0)"
       id="path93753" />
    <path
       style="fill:#000000;fill-opacity:1;fill-rule:nonzero;stroke:none"
       d="M 7.921875,1.3125 C 7.921875,0.65625 7.382812,0 6.648438,0 5.800781,0 5.296875,0.695312 5.296875,1.3125 c 0,0.65625 0.582031,1.3125 1.3125,1.3125 0.851563,0 1.3125,-0.695312 1.3125,-1.3125 z m 0,0"
       id="path93755" />
    <path
       style="fill:#000000;fill-opacity:1;fill-rule:nonzero;stroke:none"
       d="M 0.578125,10.234375 C 1.542969,7.414062 4.246094,7.375 4.519531,7.375 c 3.703125,0 3.976563,4.324219 3.976563,6.253906 0,1.507813 -0.117188,1.933594 -0.308594,2.433594 -0.542969,1.777344 -1.277344,4.632812 -1.277344,5.289062 0,0.273438 0.117188,0.425782 0.308594,0.425782 0.347656,0 0.542969,-0.539063 0.8125,-1.46875 0.578125,-2.082032 0.8125,-3.472656 0.886719,-4.246094 0.078125,-0.308594 0.117187,-0.617188 0.234375,-0.964844 0.769531,-2.433594 2.355468,-6.101562 3.320312,-8.03125 0.191406,-0.308594 0.460938,-0.851562 0.460938,-0.964844 0,-0.230468 -0.230469,-0.230468 -0.269532,-0.230468 -0.07812,0 -0.230468,0 -0.308593,0.152344 -1.273438,2.355468 -2.277344,4.828124 -3.242188,7.296874 C 9.074219,12.585938 9.074219,10.695312 8.109375,8.300781 7.492188,6.796875 6.527344,5.597656 4.828125,5.597656 1.738281,5.597656 0,9.34375 0,10.117188 c 0,0.230468 0.230469,0.230468 0.503906,0.230468 z m 0,0"
       id="path93757" />
    <g
       clip-path="url(#clip1)"
       clip-rule="nonzero"
       id="g93839">
      <path
         style="fill:#000000;fill-opacity:1;fill-rule:nonzero;stroke:none"
         d="m 259.28906,201.14453 c 0.23047,-0.23437 0.23047,-0.34766 0.23047,-0.38672 0,-0.11719 -0.0781,-0.27344 -0.15234,-0.35156 l -5.07813,-7.32031 h 5.69531 c 4.1836,0 5.42579,0.89062 5.92969,4.80468 h 0.61719 l -0.69531,-5.57812 h -13.71485 c -0.58203,0 -0.62109,0 -0.62109,0.57812 l 6.16016,8.94922 -5.88672,6.70313 C 251.5,208.8125 251.5,208.85156 251.5,208.92969 c 0,0.27343 0.27344,0.27343 0.62109,0.27343 h 13.71485 l 0.69531,-5.85156 h -0.61719 c -0.42578,4.14453 -2.13281,4.80469 -6.00781,4.80469 h -6.81641 z m 0,0"
         id="path93837" />
    </g>
    <path
       style="fill:#000000;fill-opacity:1;fill-rule:nonzero;stroke:none"
       d="m 82.339844,199 c 0.1875,-0.1875 0.1875,-0.28125 0.1875,-0.3125 0,-0.0937 -0.0625,-0.21875 -0.125,-0.28125 l -4.101563,-5.91797 h 4.601563 c 3.378906,0 4.382812,0.72266 4.789062,3.88281 h 0.5 l -0.5625,-4.50781 H 76.550781 c -0.472656,0 -0.503906,0 -0.503906,0.46875 l 4.976563,7.23047 -4.753907,5.41406 c -0.222656,0.21875 -0.222656,0.25 -0.222656,0.3125 0,0.21875 0.222656,0.21875 0.503906,0.21875 h 11.078125 l 0.5625,-4.72656 h -0.5 c -0.34375,3.35156 -1.722656,3.88281 -4.851562,3.88281 h -5.507813 z m 0,0"
       id="path93841" />
    <path
       style="fill:#000000;fill-opacity:1;fill-rule:nonzero;stroke:none"
       d="m 98.785156,200.64453 c 0.28125,-0.28125 0.5625,-0.53125 0.878906,-0.75 0.562498,-0.375 1.062498,-0.40625 1.249998,-0.4375 0.15625,0 0.3125,0 0.3125,-0.28125 0,-0.0937 -0.0625,-0.21875 -0.1875,-0.21875 -0.34375,0 -0.75,0.0625 -1.124998,0.0625 -0.4375,0 -1.035156,-0.0625 -1.441406,-0.0625 -0.09375,0 -0.28125,0 -0.28125,0.3125 0,0.1875 0.1875,0.1875 0.25,0.1875 0.40625,0.0312 0.40625,0.1875 0.40625,0.28125 0,0.125 -0.09375,0.21875 -0.1875,0.375 -0.09375,0.125 -0.15625,0.21875 -0.25,0.28125 l -3.472656,3.66406 -1.847656,-4.10156 c -0.09375,-0.1875 -0.09375,-0.21875 -0.09375,-0.25 0,-0.25 0.65625,-0.25 0.75,-0.25 0.1875,0 0.378906,0 0.378906,-0.28125 0,-0.0312 0,-0.21875 -0.253906,-0.21875 -0.40625,0 -1.4375,0.0625 -1.84375,0.0625 -0.375,0 -1.253906,-0.0625 -1.597656,-0.0625 -0.125,0 -0.28125,0.0625 -0.28125,0.3125 0,0.1875 0.1875,0.1875 0.375,0.1875 0.816406,0 0.878906,0.125 1.003906,0.4375 l 2.15625,4.78906 -0.625,2.53516 c -0.1875,0.71875 -0.1875,0.75 -1.28125,0.78125 -0.25,0 -0.40625,0 -0.40625,0.28125 0,0.15625 0.09375,0.21875 0.21875,0.21875 0.25,0 0.59375,-0.0312 0.84375,-0.0312 0.28125,0 0.6875,-0.0312 0.9375,-0.0312 0.28125,0 0.59375,0.0312 0.878906,0.0312 0.3125,0 0.65625,0.0312 0.9375,0.0312 0.09375,0 0.3125,0 0.3125,-0.3125 C 95.5,208 95.34375,208 95.03125,208 94.8125,208 94.75,208 94.5,207.96875 c -0.25,-0.0312 -0.3125,-0.0625 -0.3125,-0.1875 0,-0.0937 0.1875,-0.75 0.28125,-1.125 0.09375,-0.47266 0.40625,-1.66016 0.4375,-1.72266 0.03125,-0.21875 0.03125,-0.25 0.1875,-0.375 z m 0,0"
       id="path93843" />
    <path
       style="fill:#000000;fill-opacity:1;fill-rule:nonzero;stroke:none"
       d="m 34.175781,48.203125 c 0,-0.398437 -0.328125,-0.796875 -0.773437,-0.796875 -0.515625,0 -0.820313,0.421875 -0.820313,0.796875 0,0.398437 0.351563,0.796875 0.796875,0.796875 0.515625,0 0.796875,-0.421875 0.796875,-0.796875 z m 0,0"
       id="path93845" />
    <path
       style="fill:#000000;fill-opacity:1;fill-rule:nonzero;stroke:none"
       d="m 29.71875,53.617188 c 0.585938,-1.710938 2.226562,-1.734376 2.390625,-1.734376 2.25,0 2.414063,2.625 2.414063,3.796876 0,0.914062 -0.07031,1.171874 -0.1875,1.476562 -0.328126,1.078125 -0.773438,2.8125 -0.773438,3.210938 0,0.164062 0.07031,0.257812 0.1875,0.257812 0.210938,0 0.328125,-0.328125 0.492188,-0.890625 0.351562,-1.265625 0.492187,-2.109375 0.539062,-2.578125 0.04687,-0.1875 0.07031,-0.375 0.140625,-0.585938 0.46875,-1.476562 1.429687,-3.703124 2.015625,-4.875 0.117188,-0.1875 0.28125,-0.515624 0.28125,-0.585937 0,-0.140625 -0.140625,-0.140625 -0.164062,-0.140625 -0.04688,0 -0.140626,0 -0.1875,0.09375 -0.773438,1.429688 -1.382813,2.929688 -1.96875,4.429688 -0.02344,-0.445313 -0.02344,-1.59375 -0.609376,-3.046876 -0.375,-0.914062 -0.960937,-1.640624 -1.992187,-1.640624 -1.875,0 -2.929687,2.273437 -2.929687,2.742187 0,0.140625 0.140624,0.140625 0.304687,0.140625 z m 0,0"
       id="path93847" />
    <path
       style="fill:#000000;fill-opacity:1;fill-rule:nonzero;stroke:none"
       d="m 52.632812,52.421875 c 0,-0.328125 -0.09375,-0.492187 -0.210937,-0.492187 -0.07031,0 -0.210937,0.117187 -0.210937,0.398437 -0.07031,1.429687 -1.054688,2.25 -2.109376,2.25 -0.9375,0 -1.640624,-0.632813 -2.390624,-1.265625 -0.75,-0.703125 -1.523438,-1.382812 -2.554688,-1.382812 -1.617188,0 -2.507812,1.640624 -2.507812,3 0,0.492187 0.1875,0.492187 0.210937,0.492187 0.164063,0 0.210937,-0.304687 0.210937,-0.351563 0.07031,-1.640624 1.171876,-2.296874 2.085938,-2.296874 0.9375,0 1.664062,0.632812 2.390625,1.265624 0.773437,0.703126 1.546875,1.382813 2.554687,1.382813 1.640626,0 2.53125,-1.640625 2.53125,-3 z m 0,0"
       id="path93849" />
    <path
       style="fill:#000000;fill-opacity:1;fill-rule:nonzero;stroke:none"
       d="m 62.546875,61 c 0,-0.04687 0,-0.07031 -0.257813,-0.328125 -1.851562,-1.875 -2.34375,-4.710937 -2.34375,-7.007813 0,-2.601562 0.5625,-5.203124 2.414063,-7.054687 0.1875,-0.1875 0.1875,-0.210937 0.1875,-0.257813 0,-0.117187 -0.04687,-0.164062 -0.140625,-0.164062 -0.164062,0 -1.5,1.03125 -2.390625,2.929688 -0.75,1.640624 -0.9375,3.304687 -0.9375,4.546874 0,1.171876 0.164063,2.976563 0.984375,4.6875 0.914062,1.828126 2.179688,2.8125 2.34375,2.8125 0.09375,0 0.140625,-0.04687 0.140625,-0.164062 z m 0,0"
       id="path93851" />
    <path
       style="fill:#000000;fill-opacity:1;fill-rule:nonzero;stroke:none"
       d="m 68.964844,52.539062 c 0.140625,-0.140624 0.140625,-0.210937 0.140625,-0.234374 0,-0.07031 -0.04687,-0.164063 -0.09375,-0.210938 l -3.070313,-4.429688 h 3.445313 c 2.53125,0 3.28125,0.539063 3.585937,2.90625 h 0.375 l -0.421875,-3.375 h -8.296875 c -0.351562,0 -0.375,0 -0.375,0.351563 l 3.726563,5.414063 -3.5625,4.054687 c -0.164063,0.164063 -0.164063,0.1875 -0.164063,0.234375 0,0.164062 0.164063,0.164062 0.375,0.164062 h 8.296875 L 73.347656,53.875 h -0.375 c -0.257812,2.507812 -1.289062,2.90625 -3.632812,2.90625 h -4.125 z m 0,0"
       id="path93853" />
    <path
       style="fill:#000000;fill-opacity:1;fill-rule:nonzero;stroke:none"
       d="m 87.371094,53.96875 c 0.257812,0 0.539062,0 0.539062,-0.304688 0,-0.28125 -0.28125,-0.28125 -0.539062,-0.28125 h -8.085938 c -0.257812,0 -0.515625,0 -0.515625,0.28125 0,0.304688 0.257813,0.304688 0.515625,0.304688 z m 0,0"
       id="path93855" />
    <path
       style="fill:#000000;fill-opacity:1;fill-rule:nonzero;stroke:none"
       d="m 98.023438,52.539062 c 0.140624,-0.140624 0.140624,-0.210937 0.140624,-0.234374 0,-0.07031 -0.04687,-0.164063 -0.09375,-0.210938 L 95,47.664062 h 3.445312 c 2.531248,0 3.281248,0.539063 3.585938,2.90625 h 0.375 l -0.42187,-3.375 H 93.6875 c -0.351562,0 -0.375,0 -0.375,0.351563 l 3.726562,5.414063 -3.5625,4.054687 C 93.3125,57.179688 93.3125,57.203125 93.3125,57.25 c 0,0.164062 0.164062,0.164062 0.375,0.164062 h 8.29688 L 102.40625,53.875 h -0.375 c -0.25781,2.507812 -1.28906,2.90625 -3.632812,2.90625 h -4.125 z m 0,0"
       id="path93857" />
    <path
       style="fill:#000000;fill-opacity:1;fill-rule:nonzero;stroke:none"
       d="m 110.33984,53.773438 c 0.21094,-0.210938 0.42188,-0.398438 0.65625,-0.5625 0.42188,-0.28125 0.79688,-0.304688 0.9375,-0.328126 0.11719,0 0.23438,0 0.23438,-0.210937 0,-0.07031 -0.0469,-0.164063 -0.14063,-0.164063 -0.25781,0 -0.5625,0.04688 -0.84375,0.04688 -0.32812,0 -0.77343,-0.04688 -1.07812,-0.04688 -0.0703,0 -0.21094,0 -0.21094,0.234376 0,0.140624 0.14063,0.140624 0.1875,0.140624 0.30469,0.02344 0.30469,0.140626 0.30469,0.210938 0,0.09375 -0.0703,0.164062 -0.14063,0.28125 -0.0703,0.09375 -0.11718,0.164062 -0.1875,0.210938 l -2.60156,2.742187 -1.38281,-3.070313 c -0.0703,-0.140624 -0.0703,-0.164062 -0.0703,-0.1875 0,-0.1875 0.49218,-0.1875 0.5625,-0.1875 0.14062,0 0.28125,0 0.28125,-0.210937 0,-0.02344 0,-0.164063 -0.1875,-0.164063 -0.30469,0 -1.07813,0.04688 -1.38282,0.04688 -0.28125,0 -0.9375,-0.04688 -1.19531,-0.04688 -0.0937,0 -0.21094,0.04688 -0.21094,0.234376 0,0.140624 0.14063,0.140624 0.28125,0.140624 0.60938,0 0.65625,0.09375 0.75,0.328126 l 1.61719,3.585937 -0.46875,1.898437 c -0.14062,0.539063 -0.14062,0.5625 -0.96094,0.585938 -0.1875,0 -0.30468,0 -0.30468,0.210938 0,0.117187 0.0703,0.164062 0.16406,0.164062 0.1875,0 0.44531,-0.02344 0.63281,-0.02344 0.21094,0 0.51563,-0.02344 0.70313,-0.02344 0.21093,0 0.44531,0.02344 0.65625,0.02344 0.23437,0 0.49218,0.02344 0.70312,0.02344 0.0703,0 0.23438,0 0.23438,-0.234375 0,-0.140625 -0.11719,-0.140625 -0.35157,-0.140625 -0.16406,0 -0.21093,0 -0.39843,-0.02344 -0.1875,-0.02344 -0.23438,-0.04687 -0.23438,-0.140624 0,-0.07031 0.14063,-0.5625 0.21094,-0.84375 0.0703,-0.351563 0.30469,-1.242188 0.32812,-1.289063 0.0234,-0.164063 0.0234,-0.1875 0.14063,-0.28125 z m 0,0"
       id="path93859" />
    <path
       style="fill:#000000;fill-opacity:1;fill-rule:nonzero;stroke:none"
       d="m 117.92188,53.664062 c 0,-1.148437 -0.16407,-2.953124 -0.98438,-4.664062 -0.89062,-1.828125 -2.17969,-2.8125 -2.32031,-2.8125 -0.0937,0 -0.16406,0.07031 -0.16406,0.164062 0,0.04688 0,0.07031 0.28125,0.351563 1.47656,1.476563 2.32031,3.84375 2.32031,6.960937 0,2.578126 -0.53906,5.203126 -2.39063,7.078126 -0.21093,0.1875 -0.21093,0.210937 -0.21093,0.257812 0,0.09375 0.0703,0.164062 0.16406,0.164062 0.14062,0 1.5,-1.03125 2.36719,-2.929687 0.77343,-1.640625 0.9375,-3.304687 0.9375,-4.570313 z m 0,0"
       id="path93861" />
    <path
       style="fill:#000000;fill-opacity:1;fill-rule:nonzero;stroke:none"
       d="m 126.02734,46.085938 c 0,-0.9375 -0.79687,-1.453126 -1.71093,-1.453126 -1.42969,0 -2.48438,1.617188 -2.74219,2.671876 l -1.64063,6.585937 c -0.0234,0.07031 0.0703,0.140625 0.14063,0.140625 0.0937,0 0.1875,-0.02344 0.21094,-0.09375 l 0.67968,-2.789062 c 0.23438,0.492187 0.72657,0.9375 1.57032,0.9375 1.47656,0 3.11718,-1.054688 3.11718,-2.648438 0,-0.632812 -0.28125,-1.242188 -0.82031,-1.59375 0.51563,-0.328125 1.19531,-0.914062 1.19531,-1.757812 z m -2.0625,1.734374 c -0.16406,0.04688 -0.23437,0.09375 -0.53906,0.09375 -0.16406,0 -0.42187,-0.02344 -0.49219,-0.07031 0.11719,-0.04687 0.39844,-0.07031 0.49219,-0.07031 0.16406,0 0.39844,0.02344 0.53906,0.04687 z m 1.38282,-1.921874 c 0,0.539062 -0.28125,1.359374 -0.91407,1.734374 -0.21093,-0.07031 -0.39843,-0.140624 -0.98437,-0.140624 -0.375,0 -0.89063,0.02344 -0.89063,0.398437 0,0.257813 0.32813,0.304687 0.84375,0.304687 0.375,0 0.67969,-0.07031 1.00782,-0.164062 0.30468,0.234375 0.46875,0.65625 0.46875,1.125 0,1.5 -1.03125,2.648438 -2.29688,2.648438 -0.82031,0 -1.38281,-0.492188 -1.38281,-1.335938 0,-0.09375 0,-0.210938 0.0234,-0.304688 l 0.70312,-2.765624 c 0.23438,-1.007813 1.17188,-2.484376 2.36719,-2.484376 0.63281,0 1.05469,0.328126 1.05469,0.984376 z m 0,0"
       id="path93863" />
    <text
       xml:space="preserve"
       style="font-size:9.63888px;line-height:1.25;font-family:'Heavy Heap';-inkscape-font-specification:'Heavy Heap';text-align:center;text-anchor:middle;opacity:0.6;fill:#063360;fill-opacity:1;stroke-width:0.240972"
       x="91.722977"
       y="141.23262"
       id="text1"
       transform="rotate(-44.08234)"><tspan
         sodipodi:role="line"
         id="tspan1"
         style="font-style:normal;font-variant:normal;font-weight:normal;font-stretch:normal;font-family:Roboto;-inkscape-font-specification:Roboto;opacity:0.459519;fill:#063360;fill-opacity:1;stroke-width:0.240972"
         x="91.722977"
         y="141.23262">eau, miel, huile, ...</tspan></text>
    <text
       xml:space="preserve"
       style="font-size:9.63888px;line-height:1.25;font-family:'Heavy Heap';-inkscape-font-specification:'Heavy Heap';text-align:center;text-anchor:middle;opacity:0.6;fill:#063360;fill-opacity:1;stroke-width:0.240972"
       x="59.436459"
       y="248.57504"
       id="text1-2"
       transform="rotate(-46.169056)"><tspan
         sodipodi:role="line"
         id="tspan1-0"
         style="font-style:normal;font-variant:normal;font-weight:normal;font-stretch:normal;font-family:Roboto;-inkscape-font-specification:Roboto;opacity:0.459519;fill:#a5324b;fill-opacity:1;stroke-width:0.240972"
         x="59.436455"
         y="248.57504">mayonnaise, argile, mousse ...</tspan></text>
    <text
       xml:space="preserve"
       style="font-size:15.1277px;line-height:1.25;font-family:'Heavy Heap';-inkscape-font-specification:'Heavy Heap';text-align:center;text-anchor:middle;stroke-width:0.37819"
       x="70.642799"
       y="163.30556"
       id="text2"
       transform="rotate(-44.913955)"><tspan
         sodipodi:role="line"
         id="tspan2"
         style="font-style:normal;font-variant:normal;font-weight:bold;font-stretch:normal;font-family:Roboto;-inkscape-font-specification:'Roboto Bold';fill:#063360;stroke-width:0.37819"
         x="70.642799"
         y="163.30556">fluides newtoniens</tspan></text>
    <text
       xml:space="preserve"
       style="font-size:15.1277px;line-height:1.25;font-family:'Heavy Heap';-inkscape-font-specification:'Heavy Heap';text-align:center;text-anchor:middle;fill:#a5324b;stroke-width:0.37819"
       x="79.080635"
       y="229.41072"
       id="text2-1"
       transform="rotate(-46.019073)"><tspan
         sodipodi:role="line"
         id="tspan2-5"
         style="font-style:normal;font-variant:normal;font-weight:bold;font-stretch:normal;font-family:Roboto;-inkscape-font-specification:'Roboto Bold';fill:#a5324b;stroke-width:0.37819"
         x="79.080635"
         y="229.41072">fluides à seuil</tspan></text>
  </g>
</svg>
