<?xml version="1.0" encoding="UTF-8" standalone="no"?>
<!-- Created with Inkscape (http://www.inkscape.org/) -->

<svg
   width="10.085657mm"
   height="2.5576403mm"
   viewBox="0 0 10.085657 2.5576403"
   version="1.1"
   id="svg1"
   inkscape:export-filename="HLdiff_gamma.svg"
   inkscape:export-xdpi="96"
   inkscape:export-ydpi="96"
   sodipodi:docname="HLdiff_gamma.svg"
   xmlns:inkscape="http://www.inkscape.org/namespaces/inkscape"
   xmlns:sodipodi="http://sodipodi.sourceforge.net/DTD/sodipodi-0.dtd"
   xmlns="http://www.w3.org/2000/svg"
   xmlns:svg="http://www.w3.org/2000/svg">
  <sodipodi:namedview
     id="namedview1"
     pagecolor="#ffffff"
     bordercolor="#666666"
     borderopacity="1.0"
     inkscape:showpageshadow="2"
     inkscape:pageopacity="0.0"
     inkscape:pagecheckerboard="0"
     inkscape:deskcolor="#d1d1d1"
     inkscape:document-units="mm"
     inkscape:zoom="1.4462986"
     inkscape:cx="193.59765"
     inkscape:cy="197.40046"
     inkscape:window-width="1850"
     inkscape:window-height="1016"
     inkscape:window-x="0"
     inkscape:window-y="0"
     inkscape:window-maximized="1"
     inkscape:current-layer="layer1">
    <inkscape:page
       x="0"
       y="0"
       width="10.085657"
       height="2.5576403"
       id="page1"
       margin="0"
       bleed="0" />
  </sodipodi:namedview>
  <defs
     id="defs1" />
  <g
     inkscape:label="Calque 1"
     inkscape:groupmode="layer"
     id="layer1"
     transform="translate(-94.737601,-91.813899)">
    <g
       inkscape:label=""
       transform="translate(94.7376,91.8139)"
       id="g3"
       inkscape:export-filename="D_prop_A.svg"
       inkscape:export-xdpi="96"
       inkscape:export-ydpi="96"
       style="fill:#a5324b">
      <g
         id="surface4"
         transform="matrix(0.352778,0,0,0.352778,-0.846402,-0.585391)"
         style="fill:#a5324b">
        <g
           style="fill:#a5324b;fill-opacity:1"
           id="g6">
          <g
             id="use5"
             transform="translate(1.993,8.8000002)"
             style="fill:#a5324b">
            <path
               style="fill:#a5324b;stroke:none"
               d="m 1.578125,-0.78125 c -0.09375,0.390625 -0.109375,0.46875 -0.90625,0.46875 -0.15625,0 -0.265625,0 -0.265625,0.1875 C 0.40625,0 0.484375,0 0.671875,0 h 3.3125 c 2.0625,0 4.03125,-2.109375 4.03125,-4.28125 0,-1.40625 -0.84375,-2.53125 -2.34375,-2.53125 h -3.34375 c -0.1875,0 -0.296875,0 -0.296875,0.1875 0,0.125 0.078125,0.125 0.28125,0.125 0.125,0 0.3125,0.015625 0.421875,0.015625 0.171875,0.03125 0.21875,0.046875 0.21875,0.171875 0,0.03125 0,0.0625 -0.03125,0.1875 z M 3.734375,-6.125 C 3.828125,-6.46875 3.84375,-6.5 4.28125,-6.5 h 1.0625 c 0.96875,0 1.796875,0.53125 1.796875,1.84375 0,0.484375 -0.1875,2.125 -1.046875,3.21875 -0.28125,0.375 -1.0625,1.125 -2.296875,1.125 h -1.125 c -0.140625,0 -0.15625,0 -0.21875,0 -0.09375,-0.015625 -0.125,-0.03125 -0.125,-0.109375 0,-0.03125 0,-0.046875 0.046875,-0.21875 z m 0,0"
               id="path8" />
          </g>
        </g>
        <g
           style="fill:#a5324b;fill-opacity:1"
           id="g7">
          <g
             id="use6"
             transform="translate(13.285,8.8000002)"
             style="fill:#a5324b">
            <path
               style="fill:#a5324b;stroke:none"
               d="M 7.203125,-0.3125 C 7.15625,-0.3125 7,-0.296875 6.96875,-0.296875 c -0.78125,0 -1.3125,-0.78125 -1.65625,-1.296875 -0.09375,-0.171875 -0.375,-0.578125 -0.484375,-0.75 0.25,-0.53125 0.90625,-1.765625 2.09375,-1.765625 0.078125,0 0.171875,0 0.28125,0.015625 0,-0.25 -0.015625,-0.265625 -0.03125,-0.28125 -0.078125,-0.015625 -0.21875,-0.03125 -0.3125,-0.03125 -1.265625,0 -2,1.21875 -2.25,1.71875 C 4.21875,-3.296875 4.078125,-3.515625 3.703125,-3.828125 3.09375,-4.359375 2.546875,-4.40625 2.296875,-4.40625 c -1.09375,0 -1.734375,1.109375 -1.734375,2.265625 0,1.109375 0.609375,2.25 1.703125,2.25 1.265625,0 2.015625,-1.21875 2.25,-1.71875 0.40625,0.609375 0.53125,0.828125 0.90625,1.140625 0.609375,0.53125 1.15625,0.578125 1.40625,0.578125 0.125,0 0.28125,-0.015625 0.375,-0.046875 z m -2.90625,-1.640625 c -0.234375,0.53125 -0.90625,1.78125 -2.09375,1.78125 -0.96875,0 -1.421875,-1.0625 -1.421875,-1.96875 C 0.78125,-3.125 1.328125,-4 2.15625,-4 c 0.796875,0 1.328125,0.78125 1.65625,1.296875 0.109375,0.171875 0.375,0.578125 0.484375,0.75 z m 0,0"
               id="path9" />
          </g>
        </g>
        <g
           style="fill:#a5324b;fill-opacity:1"
           id="g8-1-1">
          <g
             id="use7"
             transform="translate(23.801001,8.8000002)"
             style="fill:#a5324b">
            <path
               style="fill:#a5324b;stroke:none"
               d="M 1.78125,-1.140625 C 1.390625,-0.484375 1,-0.34375 0.5625,-0.3125 0.4375,-0.296875 0.34375,-0.296875 0.34375,-0.109375 0.34375,-0.046875 0.40625,0 0.484375,0 0.75,0 1.0625,-0.03125 1.328125,-0.03125 c 0.34375,0 0.6875,0.03125 1,0.03125 0.0625,0 0.1875,0 0.1875,-0.1875 0,-0.109375 -0.078125,-0.125 -0.15625,-0.125 -0.21875,-0.015625 -0.46875,-0.09375 -0.46875,-0.34375 0,-0.125 0.0625,-0.234375 0.140625,-0.375 l 0.765625,-1.265625 h 2.5 c 0.015625,0.203125 0.15625,1.5625 0.15625,1.65625 0,0.296875 -0.515625,0.328125 -0.71875,0.328125 C 4.59375,-0.3125 4.5,-0.3125 4.5,-0.109375 4.5,0 4.609375,0 4.640625,0 5.046875,0 5.46875,-0.03125 5.875,-0.03125 6.125,-0.03125 6.765625,0 7.015625,0 7.0625,0 7.1875,0 7.1875,-0.203125 7.1875,-0.3125 7.09375,-0.3125 6.953125,-0.3125 6.34375,-0.3125 6.34375,-0.375 6.3125,-0.671875 l -0.609375,-6.21875 c -0.015625,-0.203125 -0.015625,-0.25 -0.1875,-0.25 -0.15625,0 -0.203125,0.078125 -0.265625,0.171875 z M 2.984375,-2.609375 4.9375,-5.90625 5.265625,-2.609375 Z m 0,0"
               id="path10-1-1" />
          </g>
        </g>
      </g>
    </g>
  </g>
</svg>
