<?xml version="1.0" encoding="UTF-8" standalone="no"?>
<!-- Created with Inkscape (http://www.inkscape.org/) -->

<svg
   width="13.891875mm"
   height="4.0237432mm"
   viewBox="0 0 13.891875 4.0237431"
   version="1.1"
   id="svg1"
   inkscape:export-filename="Propag_Bruit_LR.svg"
   inkscape:export-xdpi="320"
   inkscape:export-ydpi="320"
   sodipodi:docname="Propag_Bruit_LR.svg"
   xmlns:inkscape="http://www.inkscape.org/namespaces/inkscape"
   xmlns:sodipodi="http://sodipodi.sourceforge.net/DTD/sodipodi-0.dtd"
   xmlns="http://www.w3.org/2000/svg"
   xmlns:svg="http://www.w3.org/2000/svg">
  <sodipodi:namedview
     id="namedview1"
     pagecolor="#ffffff"
     bordercolor="#666666"
     borderopacity="1.0"
     inkscape:showpageshadow="2"
     inkscape:pageopacity="0.0"
     inkscape:pagecheckerboard="0"
     inkscape:deskcolor="#d1d1d1"
     inkscape:document-units="mm"
     inkscape:zoom="4.1326133"
     inkscape:cx="77.190866"
     inkscape:cy="60.37342"
     inkscape:window-width="1850"
     inkscape:window-height="1016"
     inkscape:window-x="0"
     inkscape:window-y="0"
     inkscape:window-maximized="1"
     inkscape:current-layer="layer1">
    <inkscape:page
       x="4.3506114e-16"
       y="0"
       width="13.891874"
       height="4.0237432"
       id="page1"
       margin="0"
       bleed="0" />
  </sodipodi:namedview>
  <defs
     id="defs1" />
  <g
     inkscape:label="Calque 1"
     inkscape:groupmode="layer"
     id="layer1"
     transform="translate(-9.829586,-27.777445)">
    <g
       inkscape:label=""
       transform="translate(9.8295848,27.777443)"
       id="g12">
      <g
         id="surface4-1"
         transform="matrix(0.352778,0,0,0.352778,-0.851914,-0.653256)">
        <g
           style="fill:#000000;fill-opacity:1"
           id="g11">
          <g
             id="use10"
             transform="translate(1.993,10.373)">
            <path
               style="stroke:none"
               d="M 2.625,-4.359375 C 1.390625,-4.0625 0.421875,-2.765625 0.421875,-1.5625 0.421875,-0.59375 1.0625,0.125 2,0.125 c 1.15625,0 1.984375,-1.578125 1.984375,-2.953125 0,-0.90625 -0.390625,-1.40625 -0.734375,-1.84375 C 2.890625,-5.125 2.296875,-5.875 2.296875,-6.3125 c 0,-0.21875 0.203125,-0.453125 0.546875,-0.453125 0.3125,0 0.5,0.125 0.71875,0.265625 0.203125,0.125 0.390625,0.25 0.546875,0.25 C 4.359375,-6.25 4.5,-6.484375 4.5,-6.65625 4.5,-6.875 4.34375,-6.890625 3.984375,-6.984375 3.46875,-7.09375 3.328125,-7.09375 3.171875,-7.09375 c -0.78125,0 -1.140625,0.4375 -1.140625,1.03125 0,0.546875 0.296875,1.09375 0.59375,1.703125 z m 0.125,0.21875 c 0.25,0.46875 0.546875,1 0.546875,1.71875 0,0.65625 -0.375,2.328125 -1.296875,2.328125 -0.546875,0 -0.96875,-0.421875 -0.96875,-1.1875 0,-0.625 0.375,-2.5 1.71875,-2.859375 z m 0,0"
               id="path17" />
          </g>
        </g>
        <g
           style="fill:#000000;fill-opacity:1"
           id="g13">
          <g
             id="use11"
             transform="translate(6.7969999,6.7579999)">
            <path
               style="stroke:none"
               d="m 5.1875,-4.71875 c 0,-0.125 0,-0.1875 -0.09375,-0.1875 -0.03125,0 -0.0625,0 -0.125,0.09375 l -0.375,0.53125 c -0.28125,-0.296875 -0.765625,-0.625 -1.4375,-0.625 -1.46875,0 -2.671875,1.140625 -2.671875,2.515625 0,1.421875 1.234375,2.53125 2.671875,2.53125 1.234375,0 2.03125,-0.921875 2.03125,-1.765625 0,-0.078125 -0.015625,-0.140625 -0.125,-0.140625 -0.03125,0 -0.109375,0 -0.109375,0.09375 -0.0625,1.125 -1.015625,1.5625 -1.703125,1.5625 -0.734375,0 -2.015625,-0.453125 -2.015625,-2.265625 0,-1.890625 1.34375,-2.265625 2,-2.265625 0.703125,0 1.515625,0.453125 1.703125,1.65625 0.015625,0.078125 0.078125,0.078125 0.125,0.078125 0.125,0 0.125,-0.046875 0.125,-0.1875 z m 0,0"
               id="path18-1" />
          </g>
          <g
             id="use12"
             transform="translate(12.484134,6.7579999)">
            <path
               style="stroke:none"
               d="m 0.40625,-4.765625 v 0.25 h 0.171875 c 0.53125,0 0.546875,0.078125 0.546875,0.328125 v 3.625 c 0,0.234375 -0.015625,0.3125 -0.546875,0.3125 H 0.40625 V 0 h 2.75 C 4.4375,0 5.5,-1.03125 5.5,-2.34375 5.5,-3.671875 4.453125,-4.765625 3.15625,-4.765625 Z M 2.09375,-0.25 C 1.765625,-0.25 1.75,-0.3125 1.75,-0.515625 v -3.71875 c 0,-0.21875 0.015625,-0.28125 0.34375,-0.28125 h 0.859375 c 0.59375,0 1.109375,0.25 1.4375,0.65625 0.28125,0.375 0.390625,0.90625 0.390625,1.515625 0,0.8125 -0.203125,1.234375 -0.453125,1.515625 C 4.015625,-0.46875 3.515625,-0.25 2.96875,-0.25 Z m 0,0"
               id="path19-1" />
          </g>
          <g
             id="use13"
             transform="translate(18.4823,6.7579999)">
            <path
               style="stroke:none"
               d="m 1.78125,-2.15625 h 1.265625 c 1.015625,0 1.8125,-0.59375 1.8125,-1.296875 0,-0.6875 -0.78125,-1.3125 -1.8125,-1.3125 H 0.40625 v 0.25 h 0.171875 c 0.53125,0 0.546875,0.078125 0.546875,0.328125 v 3.625 c 0,0.234375 -0.015625,0.3125 -0.546875,0.3125 H 0.40625 V 0 C 0.75,-0.015625 1.203125,-0.03125 1.453125,-0.03125 1.703125,-0.03125 2.15625,-0.015625 2.5,0 V -0.25 H 2.328125 C 1.796875,-0.25 1.78125,-0.328125 1.78125,-0.5625 Z M 2.875,-4.515625 c 1.171875,0 1.234375,0.65625 1.234375,1.0625 0,0.3125 0,1.0625 -1.234375,1.0625 H 1.75 v -1.84375 c 0,-0.21875 0.015625,-0.28125 0.34375,-0.28125 z m 0,0"
               id="path20-1" />
          </g>
        </g>
        <g
           style="fill:#000000;fill-opacity:1"
           id="g15-1-1">
          <g
             id="use14-1-1"
             transform="translate(6.4200001,13.117)">
            <path
               style="stroke:none"
               d="m 5.1875,-4.71875 c 0,-0.125 0,-0.1875 -0.09375,-0.1875 -0.03125,0 -0.0625,0 -0.125,0.09375 l -0.375,0.53125 c -0.28125,-0.296875 -0.765625,-0.625 -1.4375,-0.625 -1.46875,0 -2.671875,1.140625 -2.671875,2.515625 0,1.421875 1.234375,2.53125 2.671875,2.53125 1.234375,0 2.03125,-0.921875 2.03125,-1.765625 0,-0.078125 -0.015625,-0.140625 -0.125,-0.140625 -0.03125,0 -0.109375,0 -0.109375,0.09375 -0.0625,1.125 -1.015625,1.5625 -1.703125,1.5625 -0.734375,0 -2.015625,-0.453125 -2.015625,-2.265625 0,-1.890625 1.34375,-2.265625 2,-2.265625 0.703125,0 1.515625,0.453125 1.703125,1.65625 0.015625,0.078125 0.078125,0.078125 0.125,0.078125 0.125,0 0.125,-0.046875 0.125,-0.1875 z m 0,0"
               id="path21-1" />
          </g>
          <g
             id="use15-1-1"
             transform="translate(12.107134,13.117)">
            <path
               style="stroke:none"
               d="m 1.921875,-4.609375 c -0.0625,-0.15625 -0.125,-0.15625 -0.265625,-0.15625 H 0.4375 v 0.25 h 0.15625 c 0.546875,0 0.5625,0.078125 0.5625,0.328125 V -0.75 c 0,0.1875 0,0.5 -0.71875,0.5 V 0 C 0.71875,-0.015625 1,-0.03125 1.28125,-0.03125 1.5625,-0.03125 1.84375,-0.015625 2.125,0 v -0.25 c -0.703125,0 -0.703125,-0.3125 -0.703125,-0.5 v -3.6875 l 1.8125,4.28125 C 3.265625,-0.078125 3.296875,0 3.40625,0 3.453125,0 3.515625,-0.015625 3.578125,-0.140625 L 5.421875,-4.5 v 3.9375 C 5.421875,-0.328125 5.40625,-0.25 4.875,-0.25 H 4.703125 V 0 c 0.328125,-0.015625 0.71875,-0.03125 1.015625,-0.03125 0.28125,0 0.671875,0.015625 1,0.03125 V -0.25 H 6.5625 C 6.015625,-0.25 6,-0.328125 6,-0.5625 v -3.625 c 0,-0.25 0.015625,-0.328125 0.5625,-0.328125 h 0.15625 v -0.25 H 5.515625 c -0.140625,0 -0.203125,0 -0.265625,0.140625 l -1.671875,3.953125 z m 0,0"
               id="path22-1-1" />
          </g>
        </g>
        <g
           style="fill:#000000;fill-opacity:1"
           id="g16-1-1">
          <g
             id="use16-1-1"
             transform="translate(27.103001,10.373)">
            <path
               style="stroke:none"
               d="m 6.84375,-3.265625 c 0.15625,0 0.34375,0 0.34375,-0.1875 C 7.1875,-3.65625 7,-3.65625 6.859375,-3.65625 h -5.96875 c -0.140625,0 -0.328125,0 -0.328125,0.203125 0,0.1875 0.1875,0.1875 0.328125,0.1875 z m 0.015625,1.9375 c 0.140625,0 0.328125,0 0.328125,-0.203125 0,-0.1875 -0.1875,-0.1875 -0.34375,-0.1875 H 0.890625 c -0.140625,0 -0.328125,0 -0.328125,0.1875 0,0.203125 0.1875,0.203125 0.328125,0.203125 z m 0,0"
               id="path23-1-1" />
          </g>
        </g>
        <g
           style="fill:#000000;fill-opacity:1"
           id="g17-1-1">
          <g
             id="use17-1-1"
             transform="translate(37.621513,10.373)">
            <path
               style="stroke:none"
               d="m 2.9375,-6.375 c 0,-0.25 0,-0.265625 -0.234375,-0.265625 C 2.078125,-6 1.203125,-6 0.890625,-6 v 0.3125 c 0.203125,0 0.78125,0 1.296875,-0.265625 v 5.171875 c 0,0.359375 -0.03125,0.46875 -0.921875,0.46875 h -0.3125 V 0 c 0.34375,-0.03125 1.203125,-0.03125 1.609375,-0.03125 0.390625,0 1.265625,0 1.609375,0.03125 v -0.3125 h -0.3125 c -0.90625,0 -0.921875,-0.109375 -0.921875,-0.46875 z m 0,0"
               id="path24-1-1" />
          </g>
        </g>
      </g>
    </g>
  </g>
</svg>
