<?xml version="1.0" encoding="UTF-8" standalone="no"?>
<!-- Created with Inkscape (http://www.inkscape.org/) -->

<svg
   width="49.322701mm"
   height="37.634632mm"
   viewBox="0 0 49.322701 37.634632"
   version="1.1"
   id="svg1"
   xmlns:inkscape="http://www.inkscape.org/namespaces/inkscape"
   xmlns:sodipodi="http://sodipodi.sourceforge.net/DTD/sodipodi-0.dtd"
   xmlns="http://www.w3.org/2000/svg"
   xmlns:svg="http://www.w3.org/2000/svg">
  <sodipodi:namedview
     id="namedview1"
     pagecolor="#ffffff"
     bordercolor="#666666"
     borderopacity="1.0"
     inkscape:showpageshadow="2"
     inkscape:pageopacity="0.0"
     inkscape:pagecheckerboard="0"
     inkscape:deskcolor="#d1d1d1"
     inkscape:document-units="mm"
     inkscape:zoom="2.41926"
     inkscape:cx="376.97478"
     inkscape:cy="544.17467"
     inkscape:window-width="1850"
     inkscape:window-height="1016"
     inkscape:window-x="0"
     inkscape:window-y="0"
     inkscape:window-maximized="1"
     inkscape:current-layer="layer1">
    <inkscape:page
       x="0"
       y="0"
       width="49.322701"
       height="37.634632"
       id="page2"
       margin="0"
       bleed="0" />
  </sodipodi:namedview>
  <defs
     id="defs1">
    <marker
       style="overflow:visible"
       id="marker4"
       refX="0"
       refY="0"
       orient="auto"
       inkscape:stockid="Stop"
       markerWidth="1"
       markerHeight="1"
       viewBox="0 0 1 1"
       inkscape:isstock="true"
       inkscape:collect="always"
       preserveAspectRatio="xMidYMid">
      <path
         style="fill:none;stroke:context-stroke;stroke-width:1"
         d="M 0,4 V -4"
         id="path4" />
    </marker>
    <marker
       style="overflow:visible"
       id="Stop"
       refX="0"
       refY="0"
       orient="auto"
       inkscape:stockid="Stop"
       markerWidth="1"
       markerHeight="1"
       viewBox="0 0 1 1"
       inkscape:isstock="true"
       inkscape:collect="always"
       preserveAspectRatio="xMidYMid">
      <path
         style="fill:none;stroke:context-stroke;stroke-width:1"
         d="M 0,4 V -4"
         id="path23" />
    </marker>
    <marker
       style="overflow:visible"
       id="TriangleStart-8"
       refX="0"
       refY="0"
       orient="auto-start-reverse"
       inkscape:stockid="TriangleStart"
       markerWidth="5.3244081"
       markerHeight="6.155385"
       viewBox="0 0 5.3244081 6.1553851"
       inkscape:isstock="true"
       inkscape:collect="always"
       preserveAspectRatio="xMidYMid">
      <path
         transform="scale(0.5)"
         style="fill:context-stroke;fill-rule:evenodd;stroke:context-stroke;stroke-width:1pt"
         d="M 5.77,0 -2.88,5 V -5 Z"
         id="path135-5" />
    </marker>
    <marker
       style="overflow:visible"
       id="TriangleStart-8-3"
       refX="0"
       refY="0"
       orient="auto-start-reverse"
       inkscape:stockid="TriangleStart"
       markerWidth="5.3244081"
       markerHeight="6.155385"
       viewBox="0 0 5.3244081 6.1553851"
       inkscape:isstock="true"
       inkscape:collect="always"
       preserveAspectRatio="xMidYMid">
      <path
         transform="scale(0.5)"
         style="fill:context-stroke;fill-rule:evenodd;stroke:context-stroke;stroke-width:1pt"
         d="M 5.77,0 -2.88,5 V -5 Z"
         id="path135-5-8" />
    </marker>
    <marker
       style="overflow:visible"
       id="TriangleStart-8-9"
       refX="0"
       refY="0"
       orient="auto-start-reverse"
       inkscape:stockid="TriangleStart"
       markerWidth="5.3244081"
       markerHeight="6.155385"
       viewBox="0 0 5.3244081 6.1553851"
       inkscape:isstock="true"
       inkscape:collect="always"
       preserveAspectRatio="xMidYMid">
      <path
         transform="scale(0.5)"
         style="fill:context-stroke;fill-rule:evenodd;stroke:context-stroke;stroke-width:1pt"
         d="M 5.77,0 -2.88,5 V -5 Z"
         id="path135-5-1" />
    </marker>
  </defs>
  <g
     inkscape:label="Calque 1"
     inkscape:groupmode="layer"
     id="layer1"
     transform="translate(-71.743659,-122.98186)">
    <circle
       style="fill:none;fill-opacity:1;stroke:#063360;stroke-width:0.610904;stroke-linecap:round;stroke-dasharray:none;stroke-opacity:1"
       id="path8-3"
       cx="113.94275"
       cy="151.07649"
       r="3.0033889" />
    <circle
       style="fill:none;fill-opacity:1;stroke:#a5324b;stroke-width:0.610904;stroke-linecap:round;stroke-dasharray:none;stroke-opacity:1"
       id="path8-7-0-0-0-59"
       cx="84.796463"
       cy="134.67229"
       r="3.0033889" />
    <circle
       style="fill:none;fill-opacity:1;stroke:#063360;stroke-width:0.610904;stroke-linecap:round;stroke-dasharray:none;stroke-opacity:1"
       id="path8-7-0-0-0-08"
       cx="115.26419"
       cy="148.45268"
       r="3.0033889" />
    <path
       style="fill:none;fill-opacity:0.0954756;stroke:#063360;stroke-width:0.610906;stroke-linecap:round;stroke-linejoin:round;stroke-dasharray:none;marker-end:url(#TriangleStart-8)"
       d="m 117.72678,144.53468 2.24206,-3.93603"
       id="path8873-3" />
    <path
       style="fill:none;fill-opacity:0.0954756;stroke:#a5324b;stroke-width:0.610906;stroke-linecap:round;stroke-linejoin:round;stroke-dasharray:none;marker-end:url(#TriangleStart-8-9)"
       d="m 81.034867,132.29771 -2.348078,-1.36092"
       id="path8873-3-0"
       sodipodi:nodetypes="cc" />
    <path
       style="fill:none;fill-opacity:0.0954756;stroke:#063360;stroke-width:0.610906;stroke-linecap:round;stroke-linejoin:round;stroke-dasharray:none;marker-end:url(#TriangleStart-8-3)"
       d="m 111.59316,154.79544 -2.24205,3.93602"
       id="path8873-3-3" />
    <g
       inkscape:label=""
       transform="matrix(1.5363935,0,0,1.5363935,71.743658,122.98184)"
       id="g1"
       style="fill:#a5324b">
      <g
         id="surface4"
         transform="matrix(0.352778,0,0,0.352778,-0.862939,-0.68117)"
         style="fill:#a5324b">
        <g
           style="fill:#a5324b;fill-opacity:1"
           id="g10">
          <g
             id="use9"
             transform="translate(1.993,9.4650002)"
             style="fill:#a5324b">
            <path
               style="fill:#a5324b;stroke:none"
               d="m 2.828125,-4.421875 c -1.765625,0.40625 -2.375,1.921875 -2.375,2.8125 0,1.203125 0.96875,1.734375 2.03125,1.734375 C 3.796875,0.125 4.75,-1.46875 4.75,-3.078125 4.75,-3.96875 4.390625,-4.390625 3.984375,-4.78125 3.53125,-5.203125 2.65625,-6.015625 2.65625,-6.375 c 0,-0.046875 0.109375,-0.3125 0.46875,-0.3125 0.328125,0 0.578125,0.171875 0.75,0.296875 0.1875,0.15625 0.484375,0.375 0.703125,0.375 0.3125,0 0.53125,-0.28125 0.53125,-0.53125 0,-0.296875 -0.15625,-0.328125 -0.6875,-0.4375 C 4.203125,-7.03125 3.625,-7.15625 3.359375,-7.15625 c -0.53125,0 -1.125,0.375 -1.125,1.09375 0,0.5625 0.375,1.234375 0.59375,1.640625 z m 0.21875,0.359375 c 0.25,0.390625 0.5625,0.953125 0.5625,1.65625 0,0.4375 -0.265625,2.171875 -1.09375,2.171875 -0.109375,0 -0.484375,-0.03125 -0.765625,-0.28125 C 1.5,-0.75 1.5,-1.125 1.5,-1.25 c 0,-0.515625 0.28125,-1.484375 0.453125,-1.84375 0.140625,-0.265625 0.4375,-0.75 1.09375,-0.96875 z m 0,0"
               id="path14" />
          </g>
        </g>
        <g
           style="fill:#a5324b;fill-opacity:1"
           id="g11">
          <g
             id="use10"
             transform="translate(7.5760002,5.0089998)"
             style="fill:#a5324b">
            <path
               style="fill:#a5324b;stroke:none"
               d="m 0.515625,0.84375 c -0.046875,0.203125 -0.0625,0.25 -0.328125,0.25 -0.09375,0 -0.1875,0 -0.1875,0.15625 0,0.078125 0.0625,0.109375 0.09375,0.109375 0.171875,0 0.40625,-0.03125 0.59375,-0.03125 0.234375,0 0.5,0.03125 0.734375,0.03125 0.0625,0 0.140625,-0.03125 0.140625,-0.15625 0,-0.109375 -0.09375,-0.109375 -0.1875,-0.109375 -0.15625,0 -0.34375,0 -0.34375,-0.078125 0,-0.03125 0.0625,-0.21875 0.078125,-0.3125 0.09375,-0.375 0.1875,-0.75 0.265625,-1.046875 0.078125,0.140625 0.296875,0.40625 0.71875,0.40625 0.84375,0 1.78125,-0.9375 1.78125,-1.96875 0,-0.8125 -0.5625,-1.171875 -1.03125,-1.171875 -0.4375,0 -0.8125,0.296875 -1,0.5 -0.109375,-0.40625 -0.5,-0.5 -0.71875,-0.5 -0.265625,0 -0.4375,0.1875 -0.546875,0.375 -0.140625,0.234375 -0.25,0.65625 -0.25,0.703125 0,0.078125 0.09375,0.078125 0.125,0.078125 0.09375,0 0.09375,-0.015625 0.140625,-0.203125 0.109375,-0.40625 0.25,-0.75 0.515625,-0.75 0.1875,0 0.234375,0.15625 0.234375,0.34375 0,0.078125 -0.015625,0.15625 -0.03125,0.203125 z M 1.84375,-2.234375 C 2.25,-2.78125 2.59375,-2.875 2.8125,-2.875 c 0.28125,0 0.515625,0.203125 0.515625,0.671875 0,0.28125 -0.15625,1 -0.359375,1.40625 -0.1875,0.34375 -0.515625,0.671875 -0.875,0.671875 -0.5,0 -0.625,-0.53125 -0.625,-0.609375 0,-0.03125 0.015625,-0.078125 0.015625,-0.109375 z m 0,0"
               id="path15" />
          </g>
        </g>
        <g
           style="fill:#a5324b;fill-opacity:1"
           id="g12">
          <g
             id="use11"
             transform="translate(12.181,9.4650002)"
             style="fill:#a5324b">
            <path
               style="fill:#a5324b;stroke:none"
               d="m 3.296875,2.390625 c 0,-0.03125 0,-0.046875 -0.171875,-0.21875 C 1.890625,0.921875 1.5625,-0.96875 1.5625,-2.5 c 0,-1.734375 0.375,-3.46875 1.609375,-4.703125 0.125,-0.125 0.125,-0.140625 0.125,-0.171875 0,-0.078125 -0.03125,-0.109375 -0.09375,-0.109375 -0.109375,0 -1,0.6875 -1.59375,1.953125 -0.5,1.09375 -0.625,2.203125 -0.625,3.03125 0,0.78125 0.109375,1.984375 0.65625,3.125 C 2.25,1.84375 3.09375,2.5 3.203125,2.5 c 0.0625,0 0.09375,-0.03125 0.09375,-0.109375 z m 0,0"
               id="path16" />
          </g>
        </g>
        <g
           style="fill:#a5324b;fill-opacity:1"
           id="g13">
          <g
             id="use12"
             transform="translate(16.055,9.4650002)"
             style="fill:#a5324b">
            <path
               style="fill:#a5324b;stroke:none"
               d="m 2.03125,-3.359375 v -1.125 L 0.375,-4.40625 v 0.46875 c 0.609375,0 0.6875,0 0.6875,0.390625 V -0.46875 H 0.375 V 0 c 0.34375,-0.015625 0.796875,-0.03125 1.25,-0.03125 0.375,0 1.015625,0 1.375,0.03125 V -0.46875 H 2.140625 v -1.75 c 0,-0.6875 0.234375,-1.90625 1.234375,-1.90625 0,0.015625 -0.1875,0.171875 -0.1875,0.453125 0,0.40625 0.328125,0.609375 0.609375,0.609375 0.296875,0 0.609375,-0.203125 0.609375,-0.609375 0,-0.53125 -0.53125,-0.8125 -1.0625,-0.8125 -0.6875,0 -1.09375,0.5 -1.3125,1.125 z m 0,0"
               id="path17" />
          </g>
        </g>
        <g
           style="fill:#a5324b;fill-opacity:1"
           id="g14">
          <g
             id="use13"
             transform="translate(20.774,9.4650002)"
             style="fill:#a5324b">
            <path
               style="fill:#a5324b;stroke:none"
               d="m 2.875,-2.5 c 0,-0.765625 -0.109375,-1.96875 -0.65625,-3.109375 -0.59375,-1.21875 -1.453125,-1.875 -1.546875,-1.875 -0.0625,0 -0.109375,0.046875 -0.109375,0.109375 0,0.03125 0,0.046875 0.1875,0.234375 0.984375,0.984375 1.546875,2.5625 1.546875,4.640625 0,1.71875 -0.359375,3.46875 -1.59375,4.71875 C 0.5625,2.34375 0.5625,2.359375 0.5625,2.390625 0.5625,2.453125 0.609375,2.5 0.671875,2.5 0.765625,2.5 1.671875,1.8125 2.25,0.546875 2.765625,-0.546875 2.875,-1.65625 2.875,-2.5 Z m 0,0"
               id="path18" />
          </g>
        </g>
      </g>
    </g>
    <g
       inkscape:label=""
       transform="matrix(1.5363935,0,0,1.5363935,97.469123,143.78171)"
       id="g2">
      <g
         id="surface4-1"
         transform="matrix(0.352778,0,0,0.352778,-0.807817,-0.661723)">
        <g
           style="fill:#000000;fill-opacity:1"
           id="g3">
          <g
             id="use2"
             transform="translate(1.993,6.2820001)">
            <path
               style="stroke:none"
               d="m 0.875,-0.59375 c -0.03125,0.15625 -0.09375,0.390625 -0.09375,0.4375 0,0.171875 0.140625,0.265625 0.296875,0.265625 0.125,0 0.296875,-0.078125 0.375,-0.28125 C 1.46875,-0.203125 1.796875,-1.5625 1.84375,-1.75 c 0.078125,-0.328125 0.265625,-1.015625 0.3125,-1.296875 0.046875,-0.125 0.328125,-0.59375 0.5625,-0.8125 0.078125,-0.0625 0.375,-0.328125 0.796875,-0.328125 0.265625,0 0.40625,0.125 0.421875,0.125 -0.296875,0.046875 -0.515625,0.28125 -0.515625,0.546875 0,0.15625 0.109375,0.34375 0.375,0.34375 0.265625,0 0.546875,-0.234375 0.546875,-0.59375 0,-0.34375 -0.3125,-0.640625 -0.828125,-0.640625 C 2.875,-4.40625 2.4375,-3.921875 2.25,-3.640625 2.15625,-4.09375 1.796875,-4.40625 1.328125,-4.40625 0.875,-4.40625 0.6875,-4.015625 0.59375,-3.84375 0.421875,-3.5 0.296875,-2.90625 0.296875,-2.875 c 0,0.109375 0.09375,0.109375 0.109375,0.109375 0.109375,0 0.109375,-0.015625 0.171875,-0.234375 0.171875,-0.703125 0.375,-1.1875 0.734375,-1.1875 0.15625,0 0.296875,0.078125 0.296875,0.453125 0,0.21875 -0.03125,0.328125 -0.15625,0.84375 z m 0,0"
               id="path3" />
          </g>
        </g>
      </g>
    </g>
    <path
       style="fill:none;stroke:#000000;stroke-width:0.264583px;stroke-linecap:round;stroke-linejoin:miter;stroke-opacity:1;marker-start:url(#Stop);marker-end:url(#marker4)"
       d="m 89.132798,136.59738 21.107522,10.82718"
       id="path2" />
  </g>
</svg>
