<?xml version="1.0" encoding="UTF-8" standalone="no"?>
<svg
   width="44.339035pt"
   height="14.144626pt"
   viewBox="0 0 44.339034 14.144625"
   version="1.2"
   id="svg264"
   sodipodi:docname="ExDecay_Sout.pdf"
   inkscape:export-filename="Dphi.svg"
   inkscape:export-xdpi="320"
   inkscape:export-ydpi="320"
   xmlns:inkscape="http://www.inkscape.org/namespaces/inkscape"
   xmlns:sodipodi="http://sodipodi.sourceforge.net/DTD/sodipodi-0.dtd"
   xmlns="http://www.w3.org/2000/svg"
   xmlns:svg="http://www.w3.org/2000/svg">
  <sodipodi:namedview
     id="namedview264"
     pagecolor="#ffffff"
     bordercolor="#666666"
     borderopacity="1.0"
     inkscape:showpageshadow="2"
     inkscape:pageopacity="0.0"
     inkscape:pagecheckerboard="0"
     inkscape:deskcolor="#d1d1d1"
     inkscape:document-units="pt"
     inkscape:zoom="1.8849206"
     inkscape:cx="302.4"
     inkscape:cy="115.38948"
     inkscape:window-width="1850"
     inkscape:window-height="1016"
     inkscape:window-x="0"
     inkscape:window-y="0"
     inkscape:window-maximized="1"
     inkscape:current-layer="svg264">
    <inkscape:page
       x="0"
       y="0"
       width="44.339035"
       height="14.144625"
       id="page2"
       margin="0"
       bleed="0" />
  </sodipodi:namedview>
  <defs
     id="defs41" />
  <g
     inkscape:label=""
     transform="translate(-2.4461928e-5)"
     id="g264">
    <g
       id="surface4"
       transform="translate(-2.41487,-1.99225)">
      <g
         style="fill:#000000;fill-opacity:1"
         id="g12">
        <g
           id="use11"
           transform="translate(1.993,11.28)">
          <path
             style="stroke:none"
             d="M 2.625,-4.359375 C 1.390625,-4.0625 0.421875,-2.765625 0.421875,-1.5625 0.421875,-0.59375 1.0625,0.125 2,0.125 c 1.15625,0 1.984375,-1.578125 1.984375,-2.953125 0,-0.90625 -0.390625,-1.40625 -0.734375,-1.84375 C 2.890625,-5.125 2.296875,-5.875 2.296875,-6.3125 c 0,-0.21875 0.203125,-0.453125 0.546875,-0.453125 0.3125,0 0.5,0.125 0.71875,0.265625 0.203125,0.125 0.390625,0.25 0.546875,0.25 C 4.359375,-6.25 4.5,-6.484375 4.5,-6.65625 4.5,-6.875 4.34375,-6.890625 3.984375,-6.984375 3.46875,-7.09375 3.328125,-7.09375 3.171875,-7.09375 c -0.78125,0 -1.140625,0.4375 -1.140625,1.03125 0,0.546875 0.296875,1.09375 0.59375,1.703125 z m 0.125,0.21875 c 0.25,0.46875 0.546875,1 0.546875,1.71875 0,0.65625 -0.375,2.328125 -1.296875,2.328125 -0.546875,0 -0.96875,-0.421875 -0.96875,-1.1875 0,-0.625 0.375,-2.5 1.71875,-2.859375 z m 0,0"
             id="path20-1" />
        </g>
      </g>
      <g
         style="fill:#000000;fill-opacity:1"
         id="g13">
        <g
           id="use12"
           transform="translate(6.7989578,11.28)">
          <path
             style="stroke:none"
             d="m 4.359375,-6.671875 c 0,-0.03125 0.03125,-0.140625 0.03125,-0.140625 0,-0.015625 0,-0.109375 -0.125,-0.109375 -0.09375,0 -0.109375,0.03125 -0.15625,0.203125 L 3.53125,-4.421875 c -1.578125,0.0625 -3.046875,1.375 -3.046875,2.734375 0,0.953125 0.703125,1.734375 1.921875,1.8125 C 2.328125,0.421875 2.25,0.75 2.171875,1.0625 c -0.125,0.46875 -0.21875,0.84375 -0.21875,0.875 0,0.09375 0.078125,0.109375 0.125,0.109375 C 2.125,2.046875 2.140625,2.03125 2.171875,2 2.1875,1.984375 2.25,1.75 2.28125,1.609375 L 2.65625,0.125 c 1.609375,-0.0625 3.0625,-1.40625 3.0625,-2.734375 0,-0.796875 -0.53125,-1.703125 -1.921875,-1.8125 z m -1.90625,6.578125 c -0.59375,-0.03125 -1.3125,-0.390625 -1.3125,-1.375 0,-1.203125 0.859375,-2.59375 2.34375,-2.734375 z m 1.28125,-4.109375 c 0.765625,0.046875 1.328125,0.5 1.328125,1.375 0,1.1875 -0.859375,2.609375 -2.34375,2.734375 z m 0,0"
             id="path21-1" />
        </g>
      </g>
      <g
         style="fill:#000000;fill-opacity:1"
         id="g14">
        <g
           id="use13"
           transform="translate(15.501,11.28)">
          <path
             style="stroke:none"
             d="m 6.84375,-3.265625 c 0.15625,0 0.34375,0 0.34375,-0.1875 C 7.1875,-3.65625 7,-3.65625 6.859375,-3.65625 h -5.96875 c -0.140625,0 -0.328125,0 -0.328125,0.203125 0,0.1875 0.1875,0.1875 0.328125,0.1875 z m 0.015625,1.9375 c 0.140625,0 0.328125,0 0.328125,-0.203125 0,-0.1875 -0.1875,-0.1875 -0.34375,-0.1875 H 0.890625 c -0.140625,0 -0.328125,0 -0.328125,0.1875 0,0.203125 0.1875,0.203125 0.328125,0.203125 z m 0,0"
             id="path22-1" />
        </g>
      </g>
      <g
         style="fill:#000000;fill-opacity:1"
         id="g15">
        <g
           id="use14"
           transform="translate(27.212,6.836)">
          <path
             style="stroke:none"
             d="m 3.421875,-4.75 c 0,-0.09375 -0.078125,-0.09375 -0.109375,-0.09375 -0.109375,0 -0.109375,0.046875 -0.140625,0.15625 L 2.78125,-3.09375 c -1.234375,0.0625 -2.296875,0.953125 -2.296875,1.875 0,0.796875 0.71875,1.265625 1.5,1.296875 C 1.921875,0.296875 1.875,0.515625 1.8125,0.734375 1.734375,1.0625 1.671875,1.3125 1.671875,1.34375 c 0,0.078125 0.09375,0.078125 0.109375,0.078125 0.109375,0 0.109375,-0.015625 0.15625,-0.171875 L 2.21875,0.078125 c 1.203125,-0.046875 2.296875,-0.921875 2.296875,-1.875 0,-0.71875 -0.640625,-1.25 -1.5,-1.28125 z M 2.03125,-0.125 C 1.484375,-0.140625 1,-0.4375 1,-1.09375 1,-1.796875 1.53125,-2.78125 2.71875,-2.890625 Z m 0.9375,-2.765625 C 3.5,-2.859375 4,-2.578125 4,-1.90625 c 0,0.75 -0.59375,1.6875 -1.734375,1.78125 z m 0,0"
             id="path23-1" />
        </g>
      </g>
      <g
         style="fill:#000000;fill-opacity:1"
         id="g16">
        <g
           id="use15"
           transform="translate(32.002998,6.836)">
          <path
             style="stroke:none"
             d="m 5.1875,-1.578125 c 0.109375,0 0.28125,0 0.28125,-0.15625 0,-0.1875 -0.171875,-0.1875 -0.28125,-0.1875 H 1.03125 c -0.109375,0 -0.28125,0 -0.28125,0.171875 0,0.171875 0.15625,0.171875 0.28125,0.171875 z m 0,0"
             id="path24-1" />
        </g>
      </g>
      <g
         style="fill:#000000;fill-opacity:1"
         id="g17">
        <g
           id="use16"
           transform="translate(38.229,6.836)">
          <path
             style="stroke:none"
             d="m 3.421875,-4.75 c 0,-0.09375 -0.078125,-0.09375 -0.109375,-0.09375 -0.109375,0 -0.109375,0.046875 -0.140625,0.15625 L 2.78125,-3.09375 c -1.234375,0.0625 -2.296875,0.953125 -2.296875,1.875 0,0.796875 0.71875,1.265625 1.5,1.296875 C 1.921875,0.296875 1.875,0.515625 1.8125,0.734375 1.734375,1.0625 1.671875,1.3125 1.671875,1.34375 c 0,0.078125 0.09375,0.078125 0.109375,0.078125 0.109375,0 0.109375,-0.015625 0.15625,-0.171875 L 2.21875,0.078125 c 1.203125,-0.046875 2.296875,-0.921875 2.296875,-1.875 0,-0.71875 -0.640625,-1.25 -1.5,-1.28125 z M 2.03125,-0.125 C 1.484375,-0.140625 1,-0.4375 1,-1.09375 1,-1.796875 1.53125,-2.78125 2.71875,-2.890625 Z m 0.9375,-2.765625 C 3.5,-2.859375 4,-2.578125 4,-1.90625 c 0,0.75 -0.59375,1.6875 -1.734375,1.78125 z m 0,0"
             id="path25-1" />
        </g>
      </g>
      <g
         style="fill:#000000;fill-opacity:1"
         id="g18">
        <g
           id="use17"
           transform="translate(43.02,7.8319998)">
          <path
             style="stroke:none"
             d="m 2.5625,-1.921875 c -0.078125,0.015625 -0.21875,0.125 -0.21875,0.296875 0,0.125 0.09375,0.203125 0.21875,0.203125 0.109375,0 0.296875,-0.09375 0.296875,-0.34375 0,-0.375 -0.484375,-0.4375 -0.75,-0.4375 -0.84375,0 -1.578125,0.6875 -1.578125,1.34375 0,0.4375 0.328125,0.921875 1.078125,0.921875 0.09375,0 0.484375,0 0.828125,-0.140625 0.328125,-0.125 0.53125,-0.359375 0.53125,-0.40625 0,-0.046875 -0.0625,-0.125 -0.109375,-0.125 -0.015625,0 -0.03125,0.015625 -0.109375,0.09375 -0.21875,0.25 -0.640625,0.40625 -1.140625,0.40625 -0.421875,0 -0.625,-0.234375 -0.625,-0.578125 0,-0.515625 0.34375,-1.34375 1.125,-1.34375 0.046875,0 0.296875,0 0.453125,0.109375 z m 0,0"
             id="path26-1" />
        </g>
      </g>
      <path
         style="fill:none;stroke:#000000;stroke-width:0.398;stroke-linecap:butt;stroke-linejoin:miter;stroke-miterlimit:10;stroke-opacity:1"
         d="M -0.0010625,-6.25e-5 H 19.541906"
         transform="matrix(1,0,0,-1,27.212,8.789)"
         id="path18-1" />
      <g
         style="fill:#000000;fill-opacity:1"
         id="g19">
        <g
           id="use18"
           transform="translate(32.721001,14.715)">
          <path
             style="stroke:none"
             d="m 3.421875,-4.75 c 0,-0.09375 -0.078125,-0.09375 -0.109375,-0.09375 -0.109375,0 -0.109375,0.046875 -0.140625,0.15625 L 2.78125,-3.09375 c -1.234375,0.0625 -2.296875,0.953125 -2.296875,1.875 0,0.796875 0.71875,1.265625 1.5,1.296875 C 1.921875,0.296875 1.875,0.515625 1.8125,0.734375 1.734375,1.0625 1.671875,1.3125 1.671875,1.34375 c 0,0.078125 0.09375,0.078125 0.109375,0.078125 0.109375,0 0.109375,-0.015625 0.15625,-0.171875 L 2.21875,0.078125 c 1.203125,-0.046875 2.296875,-0.921875 2.296875,-1.875 0,-0.71875 -0.640625,-1.25 -1.5,-1.28125 z M 2.03125,-0.125 C 1.484375,-0.140625 1,-0.4375 1,-1.09375 1,-1.796875 1.53125,-2.78125 2.71875,-2.890625 Z m 0.9375,-2.765625 C 3.5,-2.859375 4,-2.578125 4,-1.90625 c 0,0.75 -0.59375,1.6875 -1.734375,1.78125 z m 0,0"
             id="path27-1" />
        </g>
      </g>
      <g
         style="fill:#000000;fill-opacity:1"
         id="g20">
        <g
           id="use19"
           transform="translate(37.511002,15.712)">
          <path
             style="stroke:none"
             d="m 2.5625,-1.921875 c -0.078125,0.015625 -0.21875,0.125 -0.21875,0.296875 0,0.125 0.09375,0.203125 0.21875,0.203125 0.109375,0 0.296875,-0.09375 0.296875,-0.34375 0,-0.375 -0.484375,-0.4375 -0.75,-0.4375 -0.84375,0 -1.578125,0.6875 -1.578125,1.34375 0,0.4375 0.328125,0.921875 1.078125,0.921875 0.09375,0 0.484375,0 0.828125,-0.140625 0.328125,-0.125 0.53125,-0.359375 0.53125,-0.40625 0,-0.046875 -0.0625,-0.125 -0.109375,-0.125 -0.015625,0 -0.03125,0.015625 -0.109375,0.09375 -0.21875,0.25 -0.640625,0.40625 -1.140625,0.40625 -0.421875,0 -0.625,-0.234375 -0.625,-0.578125 0,-0.515625 0.34375,-1.34375 1.125,-1.34375 0.046875,0 0.296875,0 0.453125,0.109375 z m 0,0"
             id="path28-1" />
        </g>
      </g>
    </g>
  </g>
</svg>
