<?xml version="1.0" encoding="UTF-8" standalone="no"?>
<svg
   width="428pt"
   height="198pt"
   viewBox="0 0 428 198"
   version="1.2"
   id="svg92"
   sodipodi:docname="expabs.pdf"
   xmlns:inkscape="http://www.inkscape.org/namespaces/inkscape"
   xmlns:sodipodi="http://sodipodi.sourceforge.net/DTD/sodipodi-0.dtd"
   xmlns="http://www.w3.org/2000/svg"
   xmlns:svg="http://www.w3.org/2000/svg">
  <defs
     id="defs92" />
  <sodipodi:namedview
     id="namedview92"
     pagecolor="#ffffff"
     bordercolor="#666666"
     borderopacity="1.0"
     inkscape:showpageshadow="2"
     inkscape:pageopacity="0.0"
     inkscape:pagecheckerboard="0"
     inkscape:deskcolor="#d1d1d1"
     inkscape:document-units="pt">
    <inkscape:page
       x="0"
       y="0"
       width="428"
       height="198"
       id="page2"
       margin="0"
       bleed="0" />
  </sodipodi:namedview>
  <g
     id="surface4771236">
    <path
       style="fill:none;stroke:#a3304a;stroke-width:1.11962;stroke-linecap:butt;stroke-linejoin:miter;stroke-miterlimit:4;stroke-opacity:1"
       d="M 47.976562,48.345569 173.17578,154.43354"
       transform="scale(1,0.998508)"
       id="path1" />
    <path
       style="fill:#a3304a;fill-opacity:1;fill-rule:nonzero;stroke:#a3304a;stroke-width:0.427098;stroke-linecap:butt;stroke-linejoin:miter;stroke-miterlimit:4;stroke-opacity:1"
       d="m 179.10694,4.47799 c -1.9e-4,0.234885 -0.18939,0.426499 -0.42649,0.427891 -0.23676,-0.00281 -0.4286,-0.192338 -0.42614,-0.42915 1.9e-4,-0.234884 0.18938,-0.426498 0.42421,-0.425964 0.2371,-0.00139 0.42861,0.192338 0.42842,0.427223 z m 0,0"
       transform="matrix(1,0.846089,-0.847353,0.998508,0,0)"
       id="path2" />
    <path
       style="fill:#a3304a;fill-opacity:1;fill-rule:nonzero;stroke:#a3304a;stroke-width:0.427098;stroke-linecap:butt;stroke-linejoin:miter;stroke-miterlimit:4;stroke-opacity:1"
       d="m 180.81674,4.476653 c -0.002,0.236812 -0.19166,0.428426 -0.42649,0.427891 -0.2371,0.00139 -0.4286,-0.192338 -0.42841,-0.427223 1.9e-4,-0.234884 0.18939,-0.426498 0.42649,-0.427891 0.23483,5.35e-4 0.4286,0.192338 0.42841,0.427223 z m 0,0"
       transform="matrix(1,0.846089,-0.847353,0.998508,0,0)"
       id="path3" />
    <path
       style="fill:#a3304a;fill-opacity:1;fill-rule:nonzero;stroke:#a3304a;stroke-width:0.427098;stroke-linecap:butt;stroke-linejoin:miter;stroke-miterlimit:4;stroke-opacity:1"
       d="m 182.52427,4.477243 c -1.8e-4,0.234885 -0.19166,0.428426 -0.42648,0.427891 -0.23483,-5.34e-4 -0.42861,-0.192338 -0.42842,-0.427223 1.9e-4,-0.234884 0.19166,-0.428425 0.42649,-0.427891 0.2371,-0.00139 0.4286,0.192338 0.42841,0.427223 z m 0,0"
       transform="matrix(1,0.846089,-0.847353,0.998508,0,0)"
       id="path4" />
    <path
       style="fill:none;stroke:#a3304a;stroke-width:1.11962;stroke-linecap:butt;stroke-linejoin:miter;stroke-miterlimit:4;stroke-opacity:1"
       d="M 49.003906,57.077347 C 65.519531,69.0053 79.054688,85.033119 88.046875,103.3143 c 7.429687,15.10066 11.753906,31.60184 13.871095,48.29471 1.14453,8.99389 1.66016,18.06211 1.54297,27.12641"
       transform="scale(1,0.998508)"
       id="path5" />
    <path
       style="fill:none;stroke:#a3304a;stroke-width:1.11962;stroke-linecap:butt;stroke-linejoin:miter;stroke-miterlimit:4;stroke-opacity:1"
       d="m 48.488281,39.097396 c 7.265625,6.255427 14.457031,12.589095 21.578125,19.00883 9.347656,8.422723 18.601563,17.009753 28.835938,24.329268 10.234376,7.323426 21.562496,13.391073 33.832026,16.184303 8.23438,1.873893 16.73047,2.245543 25.17188,2.366813 6.78516,0.0978 13.57422,0.043 20.35547,-0.16822"
       transform="scale(1,0.998508)"
       id="path6" />
    <path
       style="fill:none;stroke:#000000;stroke-width:0.87884;stroke-linecap:butt;stroke-linejoin:miter;stroke-miterlimit:4;stroke-opacity:1"
       d="M 33.074219,23.17129 V 178.32465 H 203.12891"
       transform="scale(1,0.998508)"
       id="path7" />
    <path
       style="fill:#000000;fill-opacity:1;fill-rule:evenodd;stroke:none"
       d="m 30.617188,24.363281 2.457031,-6.757812 2.460937,6.757812 c -1.433594,-1.226562 -3.480468,-1.226562 -4.917968,0 z m 0,0"
       id="path8" />
    <path
       style="fill:#000000;fill-opacity:1;fill-rule:evenodd;stroke:none"
       d="m 201.89844,175.60156 6.76953,2.45703 -6.76953,2.45703 c 1.23047,-1.42968 1.23047,-3.47656 0,-4.91406 z m 0,0"
       id="path9" />
    <path
       style="fill:none;stroke:#000000;stroke-width:0.727151;stroke-linecap:round;stroke-linejoin:round;stroke-miterlimit:4;stroke-opacity:1"
       d="m 159.42187,95.134128 h 18.0586 c 0.3125,0 0.5625,0.254285 0.5625,0.56334 v 10.292702 c 0,0.31297 -0.25,0.56334 -0.5625,0.56334 h -18.0586 c -0.3125,0 -0.5625,-0.25037 -0.5625,-0.56334 V 95.697468 c 0,-0.309055 0.25,-0.56334 0.5625,-0.56334 z m 0,0"
       transform="scale(1,0.998508)"
       id="path10" />
    <path
       style="fill:none;stroke:#000000;stroke-width:0.751252;stroke-linecap:round;stroke-linejoin:miter;stroke-miterlimit:4;stroke-opacity:1"
       d="M 182.125,99.773863 C 206.08203,97.03149 229.60937,90.529601 251.57422,80.585077 260.5,76.543891 269.17187,71.939365 277.51953,66.802795"
       transform="scale(1,0.998508)"
       id="path11" />
    <path
       style="fill:#000000;fill-opacity:1;fill-rule:evenodd;stroke:none"
       d="m 275.51953,65.464844 6.03125,-1.238282 -3.82812,4.816407 c 0.2539,-1.59375 -0.66016,-3.082031 -2.20313,-3.578125 z m 0,0"
       id="path12" />
    <path
       style="fill:none;stroke:#eea6c5;stroke-width:0.508403;stroke-linecap:square;stroke-linejoin:round;stroke-miterlimit:10;stroke-opacity:1"
       d="m 286.94141,55.356029 0.0703,-1.451385 0.14844,-10.359205 0.14843,7.871118 0.0742,-7.714635 0.0703,-0.477275 0.0742,8.837405 0.0742,-5.273493 0.0742,8.407074 0.0703,1.220571 0.22266,-9.173843 0.0742,-6.736614 0.0703,3.020131 0.0742,-7.131734 0.0742,14.41604 0.0742,-10.895162 0.0742,6.681844 0.14453,-6.670108 0.0781,0.02347 0.0703,5.355647 0.0742,-9.087778 0.0742,0.954549 0.0703,5.2109 0.0781,9.428129 0.0703,-5.296966 0.14844,15.72659 0.0703,-3.121846 0.0781,-0.696351 0.0703,14.556875 0.0742,-1.048439 0.14844,-7.354724 0.0742,-10.300524 0.0703,-0.356 0.0742,6.196745 0.0742,-2.801054 0.0742,-0.649406 0.0742,6.040262 0.0703,-9.670679 0.0742,-1.111032 0.0742,2.472438 0.0742,-2.300307 0.0703,0.938901 0.0742,-2.304219 0.0742,-9.901492 0.0703,6.951779 0.0781,-18.210765 0.0703,3.082725 0.0742,9.03692 0.0742,-4.311119 0.0742,-0.457714 0.0742,10.163601 0.0703,-1.146241 0.29687,19.372654 0.0703,-1.420088 0.14843,-8.837404 0.14844,5.04268 0.0703,0.09389 0.22266,-3.219647 0.0742,2.515471 0.14453,-1.040615 0.0781,-2.730636 0.0703,-7.339075 0.0742,0.0039 0.0742,8.121492 0.0703,14.595996 0.14843,-18.461138 0.0742,2.848 0.0742,-2.460703 0.14844,7.01046 0.0703,-1.114945 0.0742,1.298813 0.0742,-6.697493 0.0703,3.556087 0.14844,-14.361271 0.14844,11.075118 0.0742,-3.579559 0.0742,-8.872613 0.14454,9.334239 0.0742,-1.697846 0.14844,12.776876 0.0703,-10.863865 0.0742,1.216659 0.0742,-6.290636 0.0742,9.662854 0.0742,-7.569888 0.0703,10.660437 0.14844,4.166372 0.0742,-4.049009 0.0742,-0.222989 0.0703,-1.991253 0.0742,2.171209 0.0742,-4.315032 0.0742,9.639382 0.0742,-8.540086 0.14454,-2.7189 0.0742,3.466109 0.0742,-2.421582 0.0742,0.712 0.0703,-4.440219 0.14844,-1.134505 0.0742,-4.420658 0.0742,4.839251 0.0703,-2.120351 0.0742,4.045098 0.0742,-6.576218 0.0742,1.165802 0.14844,12.107909 0.0742,0.73156 0.0703,-3.0749 0.0742,2.53112 0.0742,-5.891603 0.0703,0.402945 0.0781,-1.623516 0.0703,3.364395 0.14844,-6.114592 0.0703,1.201011 0.14844,13.825315 0.14844,-13.152436 0.0703,6.451031 0.0781,-1.506154 0.14453,-10.726942 0.0742,4.538021 0.0742,-10.597843 0.0742,17.577006 0.0703,-8.943031 0.0742,1.306637 0.29687,10.605668 0.0703,-10.914722 0.14844,7.04958 0.0742,-0.438154 0.0742,-5.394767 0.14453,13.606238 0.0742,-6.192834 0.0742,1.924747 0.0742,4.052922 0.0703,-3.051428 0.0781,-0.344264 0.0703,1.173627 0.0742,3.563911 0.0742,-0.293407 0.0703,8.555734 0.29687,-17.205358 0.21875,-5.206987 0.0742,0.551604 0.0742,6.908745 0.29297,-24.450543 0.0742,-1.572658 0.14843,21.379554 0.0742,-0.332527 0.0703,5.766416 0.0742,-2.668044 0.0742,3.591296 0.0742,7.299954 0.0703,-0.01956 0.0742,2.198593 0.0742,-12.933359 0.0742,8.457931 0.0742,-6.763998 0.14453,10.828656 0.14844,-14.408215 0.0742,1.322285 0.0742,0.140835 0.0703,-6.102855 0.0742,7.589448 0.14843,-11.09859 0.0742,6.533185 0.14844,-7.166943 0.0703,4.51846 0.0742,12.99204 0.0742,-7.698986 0.14844,7.241272 0.0703,-6.028526 0.0742,2.034286 0.0742,4.440218 0.0703,-2.073406 0.0781,-0.422505 0.0703,-1.024967 0.0742,-2.276835 0.0742,4.604527 0.14454,-2.026461 0.14843,-4.819691 0.0742,7.061316 0.0742,-2.358988 0.14453,6.314108 0.14844,-1.98734 0.14844,-4.35024 0.0703,-1.111033 0.0742,3.700834 0.0742,-0.997582 0.0742,0.258198 0.0742,-9.107339 0.0703,3.024044 0.0742,-3.728219 0.0742,-8.669185 0.0742,9.713712 0.0742,0.747209 0.0703,-3.160967 0.0742,8.054987 0.0742,-4.764922 0.0742,1.682198 0.14453,5.390855 0.0742,-0.837186 0.0742,-3.098373 0.0742,-0.04303 0.14453,9.033009 0.0742,5.918987 0.14844,0.489011 0.14843,-9.271646 0.0742,-1.764351 0.0703,0.215165 0.0742,3.254856 0.0742,0.07042 0.0703,0.950637 0.0781,-9.349888 0.0703,0.575077 0.0742,2.949713 0.0742,5.253933 0.14844,-3.110109 0.0703,-1.271428 0.0742,5.273493 0.0742,-5.825098 0.0703,-0.199516 0.0781,4.827515 0.14454,-6.306284 0.14843,0.684615 0.0742,-3.18835 0.0703,4.416746 0.0742,1.122769 0.0742,0.01565 0.14844,5.918987 0.0703,-6.893097 0.0742,2.241626 0.0742,0.547692 0.0742,5.699911 0.0742,-0.0978 0.0703,0.715911 0.0742,-6.228042 0.0742,0.08607 0.0742,0.575077 0.14843,-4.741449 0.0703,-11.157272 0.22265,5.476922 0.0742,-1.858242 0.0703,0.723736 0.0742,-0.934988 0.0742,2.953625 0.14844,-2.116439 0.0703,-2.859735 0.0742,7.679426 0.0742,1.877802 0.0742,-5.339999 0.0742,6.56057 0.0703,0.293406 0.0742,-4.87446 0.0742,4.526285 0.0742,-5.699911 0.0742,6.329757 0.0742,-4.182021 0.0703,6.41191 0.0742,-3.227471 0.0742,-0.03521 0.0703,-8.966503 0.14844,12.303513 0.14844,-6.994811 0.0703,5.649053 0.0781,-0.222989 0.0703,-9.815426 0.0742,5.214812 0.0742,-10.601755 0.0703,8.156701 0.0781,0.606373 0.0703,4.659296 0.0742,-4.428483 0.0742,0.125187 0.0742,-7.831998 0.0742,5.394768 0.14453,-13.285447 0.14844,17.674808 0.0742,-10.617403 0.0703,-0.18778 0.0742,-2.683692 0.0742,11.779293 0.0742,-0.492923 0.0742,-5.836833 0.0703,10.429623 0.0742,1.23622 0.0742,-5.527779 0.0742,-12.937271 0.0742,4.338504 0.14454,11.489799 0.0742,1.701758 0.0742,6.65446 0.0742,-5.762504 0.0703,4.721889 0.0742,-6.439295 0.0742,0.755033 0.0742,0.160395 0.0742,-1.842593 0.0703,4.530197 0.0742,-9.478987 0.0742,3.31745 0.0742,-3.176615 0.0742,-0.273846 0.14843,9.639382 0.0703,0.387297 0.14843,-7.112174 0.0703,-0.418593 0.0781,7.037844 0.14453,3.270505 0.14844,-6.458856 0.0742,-0.406857 0.0703,-1.995164 0.14844,9.330327 0.0742,-5.797713 0.0742,1.024967 0.0703,-3.219647 0.22266,14.243908 0.0742,-14.84637 0.0703,9.788042 0.0742,-6.787471 0.0742,0.950637 0.14844,4.635823 0.0703,0.199516 0.0742,-2.143823 0.0742,3.970768 0.0742,0.676791 0.0742,-1.588307 0.0703,-5.265669 0.0742,5.246108 0.0742,-1.713494 0.14844,6.998723 0.21875,-13.946589 0.0742,2.272922 0.14843,-7.863294 0.0703,0.532044 0.14843,10.159689 0.0742,-2.132087 0.0742,-8.500965 0.14844,1.995164 0.0703,-3.031867 0.0742,2.190769 0.0742,-2.265099 0.14453,-9.979733 0.0742,7.280394 0.0742,0.242549 0.14843,7.74202 0.0703,1.427911 0.0742,-11.102502 0.0742,1.682197 0.0742,10.425712 0.14453,-17.866501 0.0742,4.416746 0.0742,9.275558 0.0742,-5.629493 0.0742,4.232878 0.0703,-3.317449 0.14844,7.14347 0.0742,0.06259 0.0742,-6.13024 0.0742,7.323427 0.0703,-2.847999 0.0742,5.903339 0.14843,-10.433536 0.0703,-7.636393 0.0742,0.03521 0.0742,8.313185 0.0742,-1.392703 0.0742,1.81912 0.14453,5.954197 0.14844,1.240131 0.0742,2.503736 0.14453,-8.684833 0.0742,1.733054 0.22266,-7.417316 0.0703,6.185009 0.0781,-8.559646 0.0703,3.106197 0.0742,-2.257274 0.0742,7.307778 0.0703,0.33644 0.0781,6.814855 0.14453,-15.554457 0.0742,9.291206 0.0742,-3.426988 0.0742,-8.223207 0.14453,12.35437 0.0742,6.724878 0.14844,-1.545275 0.0742,0.50466 0.0703,-10.750415 0.0742,8.352305 0.22265,-10.234019 0.14453,3.556087 0.0742,-10.464832 0.0742,6.975251 0.14844,-6.228043 0.0703,-5.566899 0.14844,10.902986 0.0742,4.553669 0.0742,8.469668 0.14453,-11.841887 0.0742,12.158766 0.0742,-9.518107 0.0742,0.144747 0.0742,-2.957538 0.14453,6.838328 0.0742,-4.42457 0.0742,-0.63767 0.0742,4.761009 0.0703,-7.734195 0.14844,17.424434 0.0742,-2.81279 0.0742,-7.749844 0.0742,-0.629846 0.0703,-7.002635 0.14844,6.177185 0.0742,12.366106 0.14454,-10.691733 0.0742,2.398109 0.0742,-0.0978 0.14844,8.160613 0.14453,-8.00413 0.0742,1.001495 0.0742,-2.851912 0.0742,-10.46092 0.0742,11.055558 0.0703,0.18778 0.22266,5.355647 0.0742,-12.178327 0.0703,8.152789 0.14843,-6.916569 0.0742,2.597625 0.0742,-0.383384 0.0742,0.18778 0.14453,-3.473933 0.14844,7.683338 0.0742,-4.588877 0.0742,3.172702 0.14453,-6.216306 0.0742,7.417317 0.0742,1.420087 0.14453,5.813361 0.0742,9.001712 0.0742,-5.429976 0.0742,2.17512 0.14453,5.727295 0.0742,-7.213888 0.0742,0.109538 0.14844,5.5669 0.22266,-12.499118 0.0703,8.082372 0.0742,-3.634329 0.14453,10.691733 0.0781,-0.254285 0.0703,1.373142 0.0742,-2.092966 0.0742,-3.69301 0.14844,-12.205711 0.0703,4.21723 0.29688,-9.263822 0.0703,7.006547 0.0742,0.700264 0.0742,-9.91714 0.14844,6.838328 0.0703,-10.656525 0.14844,18.069929 0.0742,-4.072482 0.0742,-9.987558 0.0703,-1.53745 0.14843,9.647206 0.0742,2.535032 0.0742,-0.199516 0.0742,-8.798283 0.0703,-0.559429 0.0742,-2.143823 0.0742,7.483822 0.0742,1.502241 0.0742,3.254856 0.21875,-5.253932 0.0742,1.842593 0.0742,-0.696352 0.0703,-1.302725 0.0781,8.563558 0.0703,-4.064658 0.0742,7.342987 0.22266,-11.505447 0.0703,0.140835 0.0742,2.535032 0.0742,-10.327909 0.14844,9.076041 0.0703,1.881714 0.0742,-1.365318 0.0742,-9.216877 0.0742,10.089272 0.14453,0.324703 0.0742,2.265099 0.0742,-0.485099 0.21875,-14.404304 0.0742,7.202152 0.0742,-2.863648 0.0742,4.40501 0.14453,1.361406 0.0742,3.110109 0.0742,-1.510065 0.0742,1.666549 0.14453,-7.166943 0.0742,3.606944 0.0742,-7.002636 0.0742,-1.197098 0.0742,3.943383 0.0703,-9.189492 0.14843,11.755821 0.22266,-10.558722 0.0703,8.465756 0.0742,0.535956 0.0742,-0.931077 0.0742,-3.810372 0.0703,-10.883426 0.14844,10.261404 0.0742,1.040615 0.14844,-5.782064 0.0742,4.584965 0.0742,0.125187 0.0703,-1.236219 0.0742,1.588307 0.0742,4.995735 0.0742,-0.520308 0.0742,0.665055 0.14453,6.13024 0.0742,-12.127469 0.0742,-0.410769 0.14844,14.482545 0.0703,-0.989758 0.0742,2.499824 0.14844,-7.562064 0.0742,4.725801 0.0703,-0.61811 0.0742,-10.151865 0.0742,4.596702 0.0742,-0.61811 0.0703,-2.394197 0.0742,3.043603 0.0742,-2.241625 0.22266,8.610503 0.0703,1.283164 0.0742,-6.912657 0.0742,-0.895868 0.0742,-2.621098 0.0703,0.01174 0.14844,7.061317 0.0742,-0.219077 0.0742,-2.065582 0.0703,4.361977 0.0781,-5.766416 0.0703,0.160396 0.0742,6.474503 0.22266,-8.2858 0.14453,2.558505 0.0742,-1.388791 0.0703,-5.938548 0.0781,5.2109 0.0703,0.629846 0.0742,1.310549 0.0742,-7.241273 0.0742,4.584966 0.14453,-3.164878 0.0742,2.828439 0.0742,7.159119 0.0742,-2.073406 0.0742,3.810372 0.21875,-8.903909 0.0742,-10.249668 0.0742,17.232743 0.0703,-15.323645 0.0742,8.677009 0.0742,0.152571 0.0742,0.543781 0.0742,5.023119 0.0703,-1.482681 0.0742,7.307778 0.0742,-0.0665 0.0742,1.654813 0.14843,-2.24945 0.0703,3.082724 0.0742,-3.556087 0.0742,0.868483 0.14844,-1.330109 0.0703,-1.529626 0.0781,2.613274 0.0703,-2.382461 0.0742,0.230813 0.0742,-0.211253 0.0742,1.521802 0.14453,-12.256568 0.14844,4.940966 0.0742,9.854547 0.14843,-9.956261 0.0703,-1.482681 0.0742,-10.288789 0.0742,8.864789 0.21875,-11.618898 0.0742,2.781494 0.22266,13.539732 0.0703,-1.568746 0.0781,1.70567 0.0703,-3.786901 0.0742,10.398327 0.0742,-2.06167 0.14843,-6.552745 0.0703,1.936483 0.0742,-3.051428 0.0742,4.999647 0.0703,-5.645141 0.0781,2.824527 0.0703,-1.017143 0.0742,-2.79323 0.0742,2.499824 0.0703,5.120921 0.0781,0.363824 0.0703,-1.032791 0.0742,-8.688744 0.0742,0.841098 0.14844,10.836481 0.14453,-3.669538 0.0742,-0.715912 0.0742,-0.156483 0.0742,1.885626 0.14453,-2.69934 0.0742,-4.299384 0.0742,7.972833 0.0742,1.197099 0.0703,4.185933 0.14844,-4.103779 0.0742,-0.88022 0.0742,-7.910239 0.0703,-0.606374 0.0742,0.586813 0.14844,-9.46725 0.0742,3.008395 0.0703,-1.717406 0.0742,-9.608085 0.14843,7.734195 0.0742,-8.75525 0.14453,11.333315 0.14844,-7.033932 0.0742,0.01956 0.0742,5.911163 0.0703,-5.269581 0.0742,7.076965 0.0742,0.316879 0.0742,4.61235 0.0703,0.08607 0.0781,7.972833 0.0703,-11.630634 0.0742,3.141406 0.0742,-1.142329 0.0703,-5.347823 0.0781,8.794371 0.0703,-10.820832 0.0742,9.471162 0.0742,-5.872042 0.14844,-2.300307 0.0703,6.032438 0.14844,14.013095 0.0703,-4.706241 0.14844,4.823603 0.0742,4.894021 0.0742,-10.46092 0.0742,-0.121275 0.14453,-6.188921 0.0742,3.603032 0.14843,-11.399821 0.0742,1.177538 0.0703,5.778152 0.0742,-8.227119 0.0742,4.322856 0.0742,1.040615 0.0742,3.41134 0.0703,-1.197098 0.0742,2.276834 0.0742,-2.335516 0.0742,4.017713 0.0703,10.296613 0.14844,-5.742944 0.0742,5.645142 0.0742,-4.002065 0.0742,1.017143 0.0703,-3.364395 0.0742,0.297318 0.0742,-2.0069 0.0742,1.220571 0.0742,-2.390285 0.0703,4.002065 0.0742,-4.995735 0.0742,10.773887 0.0742,-15.069358 0.14453,7.198239 0.0742,-3.184438 0.14844,4.401097 0.0742,-7.444701 0.14844,6.642723 0.0703,-5.34391 0.0742,3.642153 0.0742,-4.698417 0.14843,9.514196 0.14453,-19.967292 0.0742,9.162108 0.0703,-4.917493 0.0742,6.791382 0.0742,1.682198 0.0742,4.890108 0.0742,-8.395338 0.0703,-0.203429 0.0742,1.14233 0.0742,6.630987 0.0742,-0.438154 0.0703,-8.903909 0.0781,5.535602 0.0703,-3.047515 0.0742,0.160395 0.0742,9.983646 0.0703,-1.717406 0.14844,-8.82958 0.0742,-0.266022 0.0742,-8.129316 0.0703,0.152571 0.0781,0.316879 0.0703,-4.209406 0.0742,-12.143117 0.0742,7.726371 0.0703,13.551469 0.0781,-4.412834 0.0703,2.898857 0.0742,-6.224131 0.0742,6.556658 0.0742,-6.274987 0.0742,0.520307 0.29297,-5.891602 0.14453,18.836698 0.14843,-5.214812 0.14844,-10.543074 0.14453,12.115733 0.0742,-3.845582 0.0742,1.31055 0.0742,5.336086 0.14453,-11.09859 0.14844,-8.352306 0.0742,0.06651 0.14453,6.697492 0.14844,-3.822108 0.0742,7.597272 0.0742,1.529626 0.0703,-0.794154 0.0742,2.132088 0.0742,6.396262 0.0742,0.606373 0.14453,-7.061316 0.0781,-3.227472 0.14453,10.08536 0.0742,-6.838328 0.0742,2.96145 0.0742,-5.531691 0.0703,0.907604 0.14844,-3.559999 0.0742,7.339075 0.0742,-7.276482 0.0703,2.370725 0.0742,-8.078459 0.0742,8.817843 0.0742,-4.999647 0.0742,-0.856747 0.14453,12.772964 0.0742,-5.113098 0.0742,14.048304 0.0742,-0.661142 0.0703,8.121492 0.14844,-9.318591 0.22265,-5.101361 0.0703,0.888044 0.0742,-2.617187 0.0742,1.678286 0.0742,-4.796219 0.0742,9.322503 0.0703,-5.551251 0.0742,3.606944 0.14844,-1.013231 0.0703,9.389009 0.0742,-9.862371 0.0742,10.140129 0.0742,-12.909886 0.14453,17.091907 0.0781,-6.165449 0.14453,7.135646 0.0742,0.203429 0.14843,1.388791 0.14453,5.050504 0.14844,-6.814855 0.0742,-1.936483 0.0742,3.137493 0.0703,-7.339075 0.0742,3.775164 0.0742,0.121275 0.0742,6.380613 0.0703,-5.692086 0.0742,0.434242 0.14844,-3.364395 0.0742,0.954549 0.0703,-0.739384 0.0742,-3.293977 0.0742,3.767339 0.0742,-3.626504 0.0742,-12.413052 0.0703,1.220571 0.0742,2.656307 0.0742,-5.590372 0.0742,3.978593 0.0742,-2.378549 0.0703,2.190768 0.0742,8.442284 0.0742,-2.069494 0.0742,-5.328262 0.0703,-1.181451 0.0742,-2.077318 0.14844,-7.968921 0.0742,6.940042 0.14453,-4.682767 0.0742,-2.053846 0.0742,1.240131 0.0742,-3.313537 0.0742,-0.37556 0.14453,-11.028173 0.0742,6.587954 0.0742,-5.997229 0.0742,0.602461 0.21875,7.878943 0.0742,-5.06224 0.0742,0.715912 0.0703,8.614415 0.0781,-0.473363 0.0703,-4.205493 0.0742,3.16879 0.0742,-0.923252 0.14843,18.171643 0.0703,-5.007471 0.0742,1.901274 0.0742,-5.073976 0.0703,7.163031 0.0742,-0.418594 0.0742,-0.01956 0.0742,-12.518678 0.14453,8.911734 0.0742,-1.111033 0.0742,-4.952702 0.0742,0.528132 0.0703,2.730637 0.0781,-3.207912 0.14453,9.831075 0.14844,-3.360483 0.0742,3.31745 0.0703,-1.185363 0.14843,-3.896438 0.22266,15.448831 0.0703,0.457714 0.0742,-9.815426 0.0742,2.08123 0.0742,0.316879 0.0742,4.530197 0.14453,-6.705317 0.0742,-13.911381 0.0742,3.074901 0.0742,-2.566329 0.0703,4.334592 0.0742,0.0978 0.0742,2.742373 0.14843,-7.241273 0.0703,10.511777 0.14843,-4.917493 0.14844,-12.09226 0.0703,4.819691 0.0781,-7.096526 0.0703,3.888615 0.14844,1.427911 0.0703,-0.942813 0.14844,7.233449 0.0742,-0.438154 0.14453,-14.0796 0.0781,6.290635 0.0703,-0.144747 0.14843,15.750062 0.0703,-16.786765 0.0781,-2.636746 0.0703,4.029449 0.0742,-4.037274 0.0742,3.998153 0.0742,7.526855 0.0742,0.903692 0.0703,8.113668 0.14844,-10.190986 0.0742,6.118504 0.14453,-4.025537 0.0742,6.016789 0.14843,-11.658019 0.0742,1.979516 0.0703,7.264746 0.0742,0.258197 0.14844,4.338505 0.0742,6.145888 0.14453,-3.333098 0.0742,3.665625 0.0742,-14.685974 0.14453,4.138988 0.0742,-0.08607 0.0742,1.337934 0.14844,-1.408351 0.0742,0.551604 0.14454,-9.052569 0.0742,10.750415 0.0742,-1.154066 0.0742,6.525361 0.0703,-7.683339 0.0742,2.820615 0.0742,-0.962373 0.0742,-2.683692 0.0742,3.462197 0.0742,-0.03521 0.0703,-7.468174 0.14844,5.94246 0.0742,-3.157054 0.0742,-11.0047 0.0742,5.911163 0.0703,-1.576571 0.0742,0.277758 0.22265,16.884567 0.14453,6.228042 0.0742,-3.411339 0.0742,0.08215 0.0742,-3.986416 0.0703,0.418593 0.0742,-14.818985 0.0742,13.21503 0.0742,-4.025538 0.14453,1.877802 0.0742,-2.60545 0.0742,2.382461 0.0742,-7.076965 0.0703,4.819691 0.14844,-6.39235 0.22265,10.394415 0.0703,-4.401098 0.0742,3.24312 0.14844,-3.61868 0.0742,4.839251 0.14844,-4.197669 0.0703,4.811867 0.0742,-1.619604 0.0742,-7.636394 0.21875,6.967427 0.0742,-6.364965 0.14453,9.396832 0.0781,-0.297318 0.0703,-11.204217 0.14844,16.489446 0.0742,-1.506153 0.0742,0.02347 0.0742,0.324703 0.0703,6.294548 0.0742,-0.328615 0.0742,-7.393844 0.0742,1.2949 0.0703,-2.265098 0.0742,1.952131 0.14844,-3.876878 0.0742,-11.239425 0.0703,9.267734 0.0742,-8.277976 0.0742,4.408922 0.21875,-17.197534 0.0742,9.142547 0.0742,-2.60545 0.0742,0.82545 0.14453,-7.366459 0.0742,12.401315 0.0742,-6.462767 0.0742,0.336439 0.0742,-5.903339 0.0703,7.464262 0.0742,-0.05477 0.0742,-11.857536 0.0742,11.970986 0.14453,4.796219 0.14843,5.539515 0.0742,-9.940613 0.0742,4.581054 0.0703,-4.768834 0.0742,8.700481 0.0742,-11.505448 0.0742,-1.572658 0.0742,-8.559646 0.0703,7.745932 0.0781,-1.916923 0.0703,-0.367736 0.0742,5.30479 0.0742,-0.24255 0.0703,-0.02738 0.0742,5.04268 0.14844,-12.491294 0.0742,6.145889 0.0703,0.152571 0.0742,-5.5669 0.0742,6.396262 0.0742,-5.15613 0.0703,1.079736 0.0742,-16.12171 0.0742,13.555381 0.0742,-7.127822 0.0742,6.41191 0.0703,-0.0313 0.0781,2.163384 0.0703,-3.219647 0.14844,8.622239 0.0703,-1.748702 0.0781,9.983645 0.0703,2.272923 0.0742,-4.714065 0.0742,1.87389 0.0703,-2.730637 0.0781,-7.296042 0.21875,17.530061 0.0703,0.782417 0.0781,-0.481186 0.0703,4.326768 0.0742,-10.707382 0.0742,-2.402021 0.0742,-0.578989 0.0742,0.410769 0.0703,-0.179956 0.22266,9.522019 0.0742,-0.02738 0.0703,-2.902769 0.0742,2.836263 0.0742,-6.071558 0.14843,-0.903692 0.0703,-4.02945 0.0742,0.383385 0.0742,7.66769 0.14844,-1.177538 0.0703,3.184438 0.0742,-1.298812 0.0742,7.276481 0.0742,-4.005977 0.0742,-9.940613 0.0703,4.663208 0.0742,-3.923823 0.0742,-11.763645 0.0742,0.316879 0.14453,16.289929 0.14844,2.546769 0.0742,4.221142 0.0703,-1.353582 0.0742,-0.105627 0.29687,-11.19248 0.0703,8.962591 0.22266,-10.437448 0.14453,4.322856 0.0781,6.650548 0.0703,-2.425494 0.0742,2.339428 0.14453,-10.953843 0.14844,11.352876 0.0742,0.0078 0.0742,-1.177538 0.14844,-13.4967 0.0703,15.319732 0.0742,-0.140835 0.0742,-4.772746 0.0742,5.226548 0.0742,-1.396615 0.0703,-4.084219 0.0742,2.648483 0.0742,-5.711647 0.0742,5.707735 0.0742,-3.872966 0.0703,3.95512 0.0742,-2.488087 0.0742,-0.215165 0.0742,-3.368307 0.0703,0.234725 0.0742,5.872043 0.0742,1.236219 0.0703,4.878372 0.0781,-0.160395 0.0703,1.639164 0.14844,-8.759162 0.14844,11.204216 0.0703,7.389933 0.14844,-6.677933 0.0742,-3.383955 0.0742,5.758592 0.0703,-1.748703 0.0742,4.166373 0.22265,-8.516613 0.0742,-3.618681 0.0703,0.731561 0.0742,-6.122416 0.0742,1.017142 0.0742,4.757098 0.0703,-4.23679 0.0742,-0.739385 0.14844,-10.797359 0.14844,8.540085 0.0703,1.267516 0.0742,-5.895514 0.0742,5.926811 0.0742,-9.870195 0.0703,7.397756 0.0742,-13.402809 0.0742,-0.16822 0.0742,-12.819909 0.14453,22.584478 0.0742,2.636746 0.0742,-1.623516 0.0742,0.645495 0.0742,-3.176615 0.14844,9.424217 0.0703,2.593714 0.0742,-2.527208 0.14453,-12.143118 0.0781,9.713712 0.0703,-2.143824 0.14844,2.425494 0.0703,-7.745932 0.0781,-1.830857 0.0703,2.41767 0.0742,7.065229 0.0742,0.316879 0.0703,-1.322285 0.0781,3.755603 0.0703,0.82545 0.0742,7.577713 0.0742,-1.126682 0.0742,-3.102284 0.14453,7.507294 0.0742,-0.739384 0.22266,-7.413405 0.0703,-5.359559 0.0742,-11.525007 0.14844,9.678502 0.14453,-1.498329 0.0742,8.234943 0.0742,-0.438154 0.0742,-2.124263 0.0742,1.936483 0.0703,-3.027955 0.0742,3.153142 0.0742,-8.590943 0.0742,2.589802 0.0742,-1.944308 0.0703,4.772746 0.0742,-2.257274 0.0742,2.304219 0.0742,-13.758809 0.0742,8.242767 0.0703,0.11345 0.0742,2.769758 0.0742,-8.281888 0.0742,2.804966 0.0742,-8.766986 0.14454,7.961097 0.0742,1.416175 0.0742,-5.148306 0.0742,-0.794154 0.14453,8.430547 0.0742,-3.630416 0.0742,-0.923253 0.0742,-6.169361 0.14453,9.506371 0.0742,1.560923 0.0742,-10.769975 0.0742,3.286153 0.14453,-1.752615 0.0742,7.370371 0.0742,-6.705316 0.0703,5.41824 0.0781,-0.625934 0.0703,4.581054 0.0742,-2.331604 0.0742,5.782064 0.0703,-2.073406 0.0781,-12.107909 0.0703,17.549622 0.0742,-0.277758 0.14844,6.134152 0.0742,6.274987 0.29297,-14.955908 0.14843,5.222636 0.0703,-6.940042 0.0742,0.160396 0.0742,11.07903"
       transform="scale(1,0.998508)"
       id="path13" />
    <path
       style="fill:none;stroke:#000000;stroke-width:0.751252;stroke-linecap:round;stroke-linejoin:miter;stroke-miterlimit:4;stroke-dasharray:1.5025, 3.005;stroke-opacity:1"
       d="M 286.11328,54.878754 H 402.64453"
       transform="scale(1,0.998508)"
       id="path14" />
    <path
       style="fill:none;stroke:#000000;stroke-width:0.468498;stroke-linecap:round;stroke-linejoin:miter;stroke-miterlimit:4;stroke-opacity:1"
       d="M 342.88672,34.989705 V 74.68565"
       transform="scale(1,0.998508)"
       id="path15" />
    <path
       style="fill:none;stroke:#000000;stroke-width:0.468498;stroke-linecap:butt;stroke-linejoin:miter;stroke-miterlimit:4;stroke-opacity:1"
       d="m 34.989705,-341.01172 v -3.74609"
       transform="matrix(0,0.998508,-1,0,0,0)"
       id="path16" />
    <path
       style="fill:none;stroke:#000000;stroke-width:0.468498;stroke-linecap:butt;stroke-linejoin:miter;stroke-miterlimit:4;stroke-opacity:1"
       d="m 74.68565,-341.01172 v -3.74609"
       transform="matrix(0,0.998508,-1,0,0,0)"
       id="path17" />
    <path
       style="fill:#000000;fill-opacity:1;fill-rule:nonzero;stroke:none"
       d="m 405.88672,49.9375 c 0.0508,-0.117188 0.0508,-0.148438 0.0508,-0.199219 0,-0.117187 -0.082,-0.21875 -0.19922,-0.21875 -0.10156,0 -0.1875,0.06641 -0.25391,0.25 l -1.88281,4.921875 c -0.0195,0.07031 -0.0508,0.136719 -0.0508,0.1875 0,0.03125 0,0.06641 0.0508,0.183594 l 1.88281,4.921875 c 0.0508,0.117187 0.10157,0.269531 0.25391,0.269531 0.11719,0 0.19922,-0.101562 0.19922,-0.21875 0,-0.03516 0,-0.05078 -0.0508,-0.167968 l -1.89844,-4.988282 z m 0,0"
       id="path18" />
    <path
       style="fill:#000000;fill-opacity:1;fill-rule:nonzero;stroke:none"
       d="m 408.46094,56.339844 c -0.42188,0.703125 -0.83985,0.855468 -1.3125,0.890625 -0.13282,0.01563 -0.23438,0.01563 -0.23438,0.21875 0,0.06641 0.0664,0.117187 0.15235,0.117187 0.28515,0 0.62109,-0.03516 0.90625,-0.03516 0.37109,0 0.74218,0.03516 1.07812,0.03516 0.0664,0 0.19922,0 0.19922,-0.203125 0,-0.117187 -0.082,-0.132812 -0.16797,-0.132812 -0.23437,-0.01953 -0.50391,-0.101563 -0.50391,-0.371094 0,-0.132813 0.0664,-0.25 0.15235,-0.402344 l 0.82422,-1.359375 h 2.6914 c 0.0156,0.214844 0.16797,1.679688 0.16797,1.777344 0,0.320312 -0.55469,0.355469 -0.77344,0.355469 -0.15234,0 -0.2539,0 -0.2539,0.21875 0,0.117187 0.12109,0.117187 0.15234,0.117187 0.4375,0 0.89063,-0.03516 1.32813,-0.03516 0.26953,0 0.96093,0.03516 1.23047,0.03516 0.0508,0 0.18359,0 0.18359,-0.21875 0,-0.117187 -0.10156,-0.117187 -0.25,-0.117187 -0.65625,0 -0.65625,-0.07031 -0.69141,-0.386719 l -0.65625,-6.6875 c -0.0156,-0.21875 -0.0156,-0.269531 -0.20312,-0.269531 -0.16797,0 -0.21875,0.08594 -0.28516,0.1875 z m 1.29687,-1.578125 2.10156,-3.546875 0.35157,3.546875 z m 0,0"
       id="path19" />
    <path
       style="fill:#000000;fill-opacity:1;fill-rule:nonzero;stroke:none"
       d="m 417.51562,55.0625 c 0.0508,-0.117188 0.0508,-0.152344 0.0508,-0.183594 0,-0.01953 0,-0.05078 -0.0508,-0.167968 l -1.86718,-4.941407 c -0.0664,-0.183593 -0.13672,-0.25 -0.25391,-0.25 -0.11719,0 -0.21875,0.101563 -0.21875,0.21875 0,0.03125 0,0.05078 0.0508,0.167969 l 1.90235,4.972656 -1.90235,4.953125 c -0.0508,0.117188 -0.0508,0.152344 -0.0508,0.203125 0,0.117188 0.10156,0.21875 0.21875,0.21875 0.13672,0 0.1875,-0.117187 0.21875,-0.21875 z m 0,0"
       id="path20" />
    <path
       style="fill:#000000;fill-opacity:1;fill-rule:nonzero;stroke:none"
       d="m 313.01172,33.210938 c 0.28515,0 0.30078,-0.01172 0.39062,-0.191407 l 5.23828,-10.917969 c 0.0742,-0.132812 0.0742,-0.148437 0.0742,-0.179687 0,-0.105469 -0.0742,-0.195313 -0.1914,-0.195313 -0.1211,0 -0.16797,0.08984 -0.21094,0.195313 l -4.94141,10.300781 -2.04297,-4.753906 -1.33593,1.035156 0.15234,0.152344 0.67578,-0.527344 z m 0,0"
       id="path21" />
    <path
       style="fill:none;stroke:#000000;stroke-width:0.382472;stroke-linecap:butt;stroke-linejoin:miter;stroke-miterlimit:10;stroke-opacity:1"
       d="m 318.51172,-21.958543 h 23.54297"
       transform="scale(1,-0.998508)"
       id="path22" />
    <path
       style="fill:#000000;fill-opacity:1;fill-rule:nonzero;stroke:none"
       d="m 321.65234,23.484375 c 0.0469,-0.105469 0.0469,-0.136719 0.0469,-0.179687 0,-0.105469 -0.0742,-0.195313 -0.17969,-0.195313 -0.0898,0 -0.16797,0.05859 -0.22656,0.226563 l -1.6836,4.390624 c -0.0117,0.0625 -0.043,0.121094 -0.043,0.164063 0,0.03125 0,0.0625 0.043,0.167969 l 1.6836,4.390625 c 0.043,0.105469 0.0898,0.242187 0.22656,0.242187 0.10547,0 0.17969,-0.08984 0.17969,-0.195312 0,-0.03125 0,-0.04687 -0.0469,-0.152344 l -1.69531,-4.453125 z m 0,0"
       id="path23" />
    <path
       style="fill:#000000;fill-opacity:1;fill-rule:nonzero;stroke:none"
       d="m 324.76172,26.109375 c -1.1875,0.285156 -2.11719,1.527344 -2.11719,2.683594 0,0.929687 0.61719,1.617187 1.51563,1.617187 1.11328,0 1.90625,-1.511718 1.90625,-2.832031 0,-0.871094 -0.375,-1.351563 -0.70313,-1.769531 -0.34766,-0.433594 -0.91797,-1.15625 -0.91797,-1.574219 0,-0.210937 0.19531,-0.433594 0.52735,-0.433594 0.30078,0 0.48046,0.117188 0.6914,0.253907 0.19531,0.121093 0.375,0.238281 0.52344,0.238281 0.24219,0 0.375,-0.222657 0.375,-0.390625 0,-0.207032 -0.14844,-0.222656 -0.49609,-0.3125 -0.4961,-0.105469 -0.62891,-0.105469 -0.78125,-0.105469 -0.75,0 -1.09375,0.417969 -1.09375,0.988281 0,0.527344 0.28515,1.050782 0.57031,1.636719 z m 0.12109,0.207031 c 0.23828,0.453125 0.52344,0.960938 0.52344,1.652344 0,0.628906 -0.35938,2.234375 -1.24609,2.234375 -0.52344,0 -0.92969,-0.40625 -0.92969,-1.140625 0,-0.601562 0.35937,-2.398438 1.65234,-2.746094 z m 0,0"
       id="path24" />
    <path
       style="fill:#000000;fill-opacity:1;fill-rule:nonzero;stroke:none"
       d="m 328.57031,29.195312 c -0.375,0.632813 -0.7539,0.765626 -1.17187,0.796876 -0.1211,0.01562 -0.21094,0.01562 -0.21094,0.195312 0,0.05859 0.0586,0.105469 0.13672,0.105469 0.2539,0 0.55469,-0.03125 0.80859,-0.03125 0.33203,0 0.66016,0.03125 0.96094,0.03125 0.0625,0 0.17969,0 0.17969,-0.183594 0,-0.101563 -0.0742,-0.117187 -0.14844,-0.117187 -0.21094,-0.01563 -0.44922,-0.08984 -0.44922,-0.332032 0,-0.117187 0.0586,-0.222656 0.13281,-0.359375 l 0.73828,-1.214843 h 2.40235 c 0.0117,0.195312 0.14844,1.5 0.14844,1.589843 0,0.285157 -0.4961,0.316407 -0.69141,0.316407 -0.13281,0 -0.22266,0 -0.22266,0.195312 0,0.105469 0.10157,0.105469 0.13282,0.105469 0.39062,0 0.79687,-0.03125 1.1875,-0.03125 0.23828,0 0.85546,0.03125 1.09375,0.03125 0.0469,0 0.16796,0 0.16796,-0.195313 0,-0.105468 -0.0898,-0.105468 -0.22656,-0.105468 -0.58594,0 -0.58594,-0.0625 -0.61719,-0.34375 l -0.58593,-5.96875 c -0.0117,-0.195313 -0.0117,-0.242188 -0.17969,-0.242188 -0.14844,0 -0.19531,0.07813 -0.25391,0.167969 z m 1.15625,-1.40625 1.875,-3.164062 0.31641,3.164062 z m 0,0"
       id="path25" />
    <path
       style="fill:#000000;fill-opacity:1;fill-rule:nonzero;stroke:none"
       d="m 337.41406,26.316406 h -0.22656 c -0.0117,0.148438 -0.0898,0.539063 -0.17969,0.597656 -0.043,0.04688 -0.55469,0.04688 -0.66015,0.04688 h -1.23047 c 0.70703,-0.617188 0.94531,-0.8125 1.33593,-1.125 0.4961,-0.390626 0.96094,-0.808594 0.96094,-1.441407 0,-0.808593 -0.70703,-1.304687 -1.5625,-1.304687 -0.82422,0 -1.39453,0.585937 -1.39453,1.203125 0,0.328125 0.28516,0.371093 0.35938,0.371093 0.15234,0 0.34375,-0.117187 0.34375,-0.359374 0,-0.117188 -0.043,-0.359376 -0.38672,-0.359376 0.20703,-0.464843 0.66015,-0.613281 0.97265,-0.613281 0.67578,0 1.02344,0.523438 1.02344,1.0625 0,0.585938 -0.42187,1.035157 -0.63281,1.277344 l -1.60547,1.601563 c -0.0742,0.0625 -0.0742,0.07812 -0.0742,0.257812 h 2.76172 z m 0,0"
       id="path26" />
    <path
       style="fill:#000000;fill-opacity:1;fill-rule:nonzero;stroke:none"
       d="m 340.94531,28.058594 c 0.043,-0.105469 0.043,-0.136719 0.043,-0.167969 0,-0.01172 0,-0.04297 -0.043,-0.148437 l -1.66797,-4.40625 c -0.0586,-0.167969 -0.12109,-0.226563 -0.22656,-0.226563 -0.10547,0 -0.19531,0.08984 -0.19531,0.195313 0,0.03125 0,0.04297 0.0469,0.148437 l 1.69532,4.4375 -1.69532,4.425781 c -0.0469,0.105469 -0.0469,0.132813 -0.0469,0.179688 0,0.105468 0.0898,0.195312 0.19531,0.195312 0.12109,0 0.16797,-0.105468 0.19531,-0.195312 z m 0,0"
       id="path27" />
    <path
       style="fill:none;stroke:#a3304a;stroke-width:0.751252;stroke-linecap:round;stroke-linejoin:miter;stroke-miterlimit:4;stroke-opacity:1"
       d="m 285.04687,186.82171 c 4.13282,-12.35829 10.11719,-24.09063 17.69141,-34.69239 7.01563,-9.81543 15.39063,-18.65674 24.8125,-26.19142"
       transform="scale(1,0.998508)"
       id="path28" />
    <path
       style="fill:none;stroke:#000000;stroke-width:0.880208;stroke-linecap:butt;stroke-linejoin:miter;stroke-miterlimit:4;stroke-opacity:1"
       d="M 286.33594,12.600832 V 89.590701 H 399.23437"
       transform="scale(1,0.998508)"
       id="path29" />
    <path
       style="fill:#000000;fill-opacity:1;fill-rule:evenodd;stroke:none"
       d="m 283.87109,13.8125 2.46485,-6.769531 2.46484,6.769531 c -1.4375,-1.230469 -3.48828,-1.230469 -4.92969,0 z m 0,0"
       id="path30" />
    <path
       style="fill:#000000;fill-opacity:1;fill-rule:evenodd;stroke:none"
       d="m 398.00391,86.996094 6.77734,2.460937 -6.77734,2.460938 c 1.23046,-1.433594 1.23046,-3.484375 0,-4.921875 z m 0,0"
       id="path31" />
    <path
       style="fill:none;stroke:#000000;stroke-width:0.709845;stroke-linecap:butt;stroke-linejoin:miter;stroke-miterlimit:4;stroke-opacity:1"
       d="m 284.78906,120.015 v 66.87321 h 41.875"
       transform="scale(1,0.998508)"
       id="path32" />
    <path
       style="fill:#000000;fill-opacity:1;fill-rule:evenodd;stroke:none"
       d="m 282.80078,120.82813 1.98828,-5.45704 1.98828,5.45704 c -1.15625,-0.99219 -2.8125,-0.99219 -3.97656,0 z m 0,0"
       id="path33" />
    <path
       style="fill:#000000;fill-opacity:1;fill-rule:evenodd;stroke:none"
       d="m 325.67187,184.625 5.46485,1.98437 -5.46485,1.98438 c 0.99219,-1.15625 0.99219,-2.80859 0,-3.96875 z m 0,0"
       id="path34" />
    <path
       style="fill:none;stroke:#000000;stroke-width:0.709845;stroke-linecap:butt;stroke-linejoin:miter;stroke-miterlimit:4;stroke-opacity:1"
       d="m 374.54687,120.41012 v 66.87321 h 41.875"
       transform="scale(1,0.998508)"
       id="path35" />
    <path
       style="fill:#000000;fill-opacity:1;fill-rule:evenodd;stroke:none"
       d="m 372.55859,121.22266 1.98828,-5.45703 1.98829,5.45703 c -1.16016,-0.99219 -2.8125,-0.99219 -3.97657,0 z m 0,0"
       id="path36" />
    <path
       style="fill:#000000;fill-opacity:1;fill-rule:evenodd;stroke:none"
       d="m 415.42969,185.01953 5.46484,1.98438 -5.46484,1.98437 c 0.99218,-1.15625 0.99218,-2.80859 0,-3.96875 z m 0,0"
       id="path37" />
    <path
       style="fill:none;stroke:#a3304a;stroke-width:0.751252;stroke-linecap:round;stroke-linejoin:miter;stroke-miterlimit:4;stroke-opacity:1"
       d="m 411.81641,183.14434 c -3.80469,0.66897 -7.77735,0.34427 -11.41797,-0.93498 -3.64063,-1.28317 -6.94532,-3.51306 -9.48828,-6.41583 -3.32032,-3.78298 -5.28125,-8.55573 -6.89454,-13.32456 -4.1289,-12.19789 -6.38281,-25.02954 -6.66015,-37.90812"
       transform="scale(1,0.998508)"
       id="path38" />
    <path
       style="fill:#000000;fill-opacity:1;fill-rule:nonzero;stroke:none"
       d="m 350.12109,107.74609 c 0.0469,-0.10937 0.0469,-0.14062 0.0469,-0.1875 0,-0.10937 -0.0781,-0.20312 -0.1875,-0.20312 -0.0937,0 -0.17188,0.0625 -0.23438,0.23437 l -1.7539,4.57813 c -0.0156,0.0625 -0.0469,0.125 -0.0469,0.17187 0,0.0312 0,0.0625 0.0469,0.17188 l 1.7539,4.57812 c 0.0469,0.10938 0.0937,0.25 0.23438,0.25 0.10937,0 0.1875,-0.0937 0.1875,-0.20312 0,-0.0312 0,-0.0469 -0.0469,-0.15625 l -1.76953,-4.64063 z m 0,0"
       id="path39" />
    <path
       style="fill:#000000;fill-opacity:1;fill-rule:nonzero;stroke:none"
       d="m 353.35937,110.48047 c -1.23437,0.29687 -2.20703,1.59375 -2.20703,2.79687 0,0.96875 0.64453,1.6875 1.58203,1.6875 1.16016,0 1.98829,-1.57812 1.98829,-2.95312 0,-0.90625 -0.39063,-1.40625 -0.73438,-1.84375 -0.36328,-0.45313 -0.95703,-1.20313 -0.95703,-1.64063 0,-0.21875 0.20312,-0.45312 0.54687,-0.45312 0.31641,0 0.50391,0.125 0.72266,0.26562 0.20313,0.125 0.39063,0.25 0.54688,0.25 0.25,0 0.39062,-0.23437 0.39062,-0.40625 0,-0.21875 -0.15625,-0.23437 -0.51562,-0.32812 -0.51563,-0.10938 -0.65625,-0.10938 -0.8125,-0.10938 -0.78516,0 -1.14454,0.4375 -1.14454,1.03125 0,0.54688 0.29688,1.09375 0.59375,1.70313 z m 0.125,0.21875 c 0.25,0.46875 0.55079,1 0.55079,1.71875 0,0.65625 -0.37891,2.32812 -1.30079,2.32812 -0.54687,0 -0.96875,-0.42187 -0.96875,-1.1875 0,-0.625 0.375,-2.5 1.71875,-2.85937 z m 0,0"
       id="path40" />
    <path
       style="fill:#000000;fill-opacity:1;fill-rule:nonzero;stroke:none"
       d="m 357.32812,113.69922 c -0.39062,0.65625 -0.78125,0.79687 -1.21875,0.82812 -0.125,0.0156 -0.21875,0.0156 -0.21875,0.20313 0,0.0625 0.0625,0.10937 0.14063,0.10937 0.26562,0 0.57812,-0.0312 0.84375,-0.0312 0.34375,0 0.6875,0.0312 1.00391,0.0312 0.0625,0 0.1875,0 0.1875,-0.1875 0,-0.10937 -0.0781,-0.125 -0.15625,-0.125 -0.22266,-0.0156 -0.47266,-0.0937 -0.47266,-0.34375 0,-0.125 0.0625,-0.23437 0.14062,-0.375 l 0.76954,-1.26562 h 2.5039 c 0.0156,0.20312 0.15625,1.5625 0.15625,1.65625 0,0.29687 -0.51562,0.32812 -0.71875,0.32812 -0.14062,0 -0.23437,0 -0.23437,0.20313 0,0.10937 0.10937,0.10937 0.14062,0.10937 0.40625,0 0.82813,-0.0312 1.23438,-0.0312 0.25,0 0.89062,0.0312 1.14453,0.0312 0.0469,0 0.17187,0 0.17187,-0.20312 0,-0.10938 -0.0937,-0.10938 -0.23437,-0.10938 -0.61328,0 -0.61328,-0.0625 -0.64453,-0.35937 l -0.60938,-6.21875 c -0.0156,-0.20313 -0.0156,-0.25 -0.1875,-0.25 -0.15625,0 -0.20312,0.0781 -0.26562,0.17187 z m 1.20704,-1.46875 1.95703,-3.29688 0.32812,3.29688 z m 0,0"
       id="path41" />
    <path
       style="fill:#000000;fill-opacity:1;fill-rule:nonzero;stroke:none"
       d="m 366.55078,109.95703 h -0.23437 c -0.0156,0.15625 -0.0937,0.5625 -0.1875,0.625 -0.0469,0.0469 -0.58204,0.0469 -0.69141,0.0469 h -1.28125 c 0.73437,-0.64063 0.98437,-0.84375 1.39062,-1.17188 0.51954,-0.40625 1.00391,-0.84375 1.00391,-1.5 0,-0.84375 -0.73437,-1.35937 -1.62891,-1.35937 -0.85937,0 -1.45312,0.60937 -1.45312,1.25 0,0.34375 0.29687,0.39062 0.375,0.39062 0.15625,0 0.35937,-0.125 0.35937,-0.375 0,-0.125 -0.0469,-0.375 -0.40625,-0.375 0.21875,-0.48437 0.6875,-0.64062 1.01563,-0.64062 0.70312,0 1.06641,0.54687 1.06641,1.10937 0,0.60938 -0.44141,1.07813 -0.66016,1.32813 l -1.67188,1.67187 c -0.0781,0.0625 -0.0781,0.0781 -0.0781,0.26563 h 2.87891 z m 0,0"
       id="path42" />
    <path
       style="fill:#000000;fill-opacity:1;fill-rule:nonzero;stroke:none"
       d="m 370.22656,112.51172 c 0.0508,-0.10938 0.0508,-0.14063 0.0508,-0.17188 0,-0.0156 0,-0.0469 -0.0508,-0.15625 l -1.73437,-4.59375 c -0.0625,-0.17187 -0.125,-0.23437 -0.23438,-0.23437 -0.10937,0 -0.20312,0.0937 -0.20312,0.20312 0,0.0312 0,0.0469 0.0469,0.15625 l 1.76563,4.625 -1.76563,4.60938 c -0.0469,0.10937 -0.0469,0.14062 -0.0469,0.1875 0,0.10937 0.0937,0.20312 0.20312,0.20312 0.125,0 0.17188,-0.10937 0.20313,-0.20312 z m 0,0"
       id="path43" />
    <path
       style="fill:#000000;fill-opacity:1;fill-rule:nonzero;stroke:none"
       d="m 269.53516,108.36328 c 0.0469,-0.10937 0.0469,-0.14062 0.0469,-0.1875 0,-0.10937 -0.082,-0.20312 -0.19141,-0.20312 -0.0937,0 -0.17187,0.0625 -0.23437,0.23437 l -1.75,4.57813 c -0.0156,0.0625 -0.0469,0.125 -0.0469,0.17187 0,0.0312 0,0.0625 0.0469,0.17188 l 1.75,4.58203 c 0.0469,0.10937 0.0937,0.25 0.23437,0.25 0.10938,0 0.19141,-0.0937 0.19141,-0.20313 0,-0.0312 0,-0.0469 -0.0469,-0.15625 l -1.76954,-4.64453 z m 0,0"
       id="path44" />
    <path
       style="fill:#000000;fill-opacity:1;fill-rule:nonzero;stroke:none"
       d="m 271.92578,114.32031 c -0.39062,0.65625 -0.78125,0.79688 -1.21875,0.82813 -0.125,0.0156 -0.21875,0.0156 -0.21875,0.20312 0,0.0625 0.0625,0.10938 0.14063,0.10938 0.26562,0 0.57812,-0.0312 0.84375,-0.0312 0.34375,0 0.6875,0.0312 1.0039,0.0312 0.0625,0 0.1875,0 0.1875,-0.1875 0,-0.10938 -0.0781,-0.125 -0.15625,-0.125 -0.22265,-0.0156 -0.47265,-0.0937 -0.47265,-0.34375 0,-0.125 0.0625,-0.23438 0.14062,-0.375 l 0.76953,-1.26953 h 2.50391 c 0.0156,0.20312 0.15625,1.5664 0.15625,1.66015 0,0.29688 -0.51563,0.32813 -0.71875,0.32813 -0.14453,0 -0.23828,0 -0.23828,0.20312 0,0.10938 0.10937,0.10938 0.14062,0.10938 0.41016,0 0.83203,-0.0312 1.23828,-0.0312 0.25,0 0.89063,0.0312 1.14453,0.0312 0.0469,0 0.17188,0 0.17188,-0.20313 0,-0.10937 -0.0937,-0.10937 -0.23828,-0.10937 -0.60938,0 -0.60938,-0.0625 -0.64063,-0.35938 l -0.60937,-6.22265 c -0.0156,-0.20313 -0.0156,-0.25 -0.1875,-0.25 -0.15625,0 -0.20313,0.0781 -0.26563,0.17187 z m 1.20703,-1.47265 1.95703,-3.29688 0.32813,3.29688 z m 0,0"
       id="path45" />
    <path
       style="fill:#000000;fill-opacity:1;fill-rule:nonzero;stroke:none"
       d="m 280.35156,113.12891 c 0.0469,-0.10938 0.0469,-0.14063 0.0469,-0.17188 0,-0.0156 0,-0.0469 -0.0469,-0.15625 l -1.73828,-4.59375 c -0.0625,-0.17187 -0.125,-0.23437 -0.23437,-0.23437 -0.10938,0 -0.20313,0.0937 -0.20313,0.20312 0,0.0312 0,0.0469 0.0469,0.15625 l 1.76953,4.625 -1.76953,4.61328 c -0.0469,0.10938 -0.0469,0.14063 -0.0469,0.1875 0,0.10938 0.0937,0.20313 0.20313,0.20313 0.125,0 0.17187,-0.10938 0.20312,-0.20313 z m 0,0"
       id="path46" />
    <path
       style="fill:#000000;fill-opacity:1;fill-rule:nonzero;stroke:none"
       d="m 331.13672,191.45703 c -1.23828,0.29688 -2.20703,1.59375 -2.20703,2.79688 0,0.96875 0.64062,1.6875 1.57812,1.6875 1.16016,0 1.98828,-1.57813 1.98828,-2.95313 0,-0.90625 -0.39062,-1.40625 -0.73437,-1.84375 -0.35938,-0.45312 -0.95703,-1.20312 -0.95703,-1.64062 0,-0.21875 0.20703,-0.45313 0.55078,-0.45313 0.3125,0 0.5,0.125 0.71875,0.26563 0.20312,0.125 0.39062,0.25 0.54687,0.25 0.25,0 0.39063,-0.23438 0.39063,-0.40625 0,-0.21875 -0.15625,-0.23438 -0.51563,-0.32813 -0.51562,-0.10937 -0.65625,-0.10937 -0.8125,-0.10937 -0.78515,0 -1.14453,0.4375 -1.14453,1.03125 0,0.54687 0.29688,1.09375 0.59766,1.70312 z m 0.125,0.21875 c 0.25,0.46875 0.54687,1 0.54687,1.71875 0,0.65625 -0.375,2.32813 -1.30078,2.32813 -0.54687,0 -0.96875,-0.42188 -0.96875,-1.1875 0,-0.625 0.375,-2.5 1.72266,-2.85938 z m 0,0"
       id="path47" />
    <path
       style="fill:#000000;fill-opacity:1;fill-rule:nonzero;stroke:none"
       d="m 333.77344,197.03516 c -0.0781,0.34375 -0.10938,0.40625 -0.54688,0.40625 -0.10937,0 -0.21875,0 -0.21875,0.1875 0,0.0781 0.0469,0.125 0.125,0.125 0.26563,0 0.5625,-0.0312 0.82813,-0.0312 0.34375,0 0.67187,0.0312 1.0039,0.0312 0.0469,0 0.17188,0 0.17188,-0.20313 0,-0.10937 -0.0937,-0.10937 -0.23438,-0.10937 -0.5039,0 -0.5039,-0.0625 -0.5039,-0.15625 0,-0.125 0.42187,-1.75 0.48828,-2 0.125,0.29687 0.40625,0.64062 0.92187,0.64062 1.15625,0 2.41016,-1.45312 2.41016,-2.92187 0,-0.9375 -0.57813,-1.59375 -1.33203,-1.59375 -0.5,0 -0.98438,0.35937 -1.3125,0.75 -0.0937,-0.54688 -0.53125,-0.75 -0.89453,-0.75 -0.46875,0 -0.65625,0.39062 -0.73438,0.5625 -0.1875,0.34375 -0.3125,0.9375 -0.3125,0.96875 0,0.10937 0.0937,0.10937 0.10938,0.10937 0.10937,0 0.10937,-0.0156 0.17187,-0.23437 0.17188,-0.70313 0.375,-1.1875 0.73438,-1.1875 0.17187,0 0.3164,0.0781 0.3164,0.45312 0,0.23438 -0.0312,0.34375 -0.0781,0.51563 z m 1.7539,-4.32813 c 0.0625,-0.26562 0.34375,-0.54687 0.51563,-0.70312 0.35937,-0.29688 0.64062,-0.375 0.8125,-0.375 0.39453,0 0.64453,0.34375 0.64453,0.9375 0,0.59375 -0.33203,1.73437 -0.51953,2.10937 -0.34375,0.70313 -0.8125,1.03125 -1.1875,1.03125 -0.65625,0 -0.78125,-0.82812 -0.78125,-0.89062 0,-0.0156 0,-0.0312 0.0312,-0.15625 z m 0,0"
       id="path48" />
    <path
       style="fill:#000000;fill-opacity:1;fill-rule:nonzero;stroke:none"
       d="m 420.91797,191.70312 c -1.23828,0.29688 -2.20703,1.59375 -2.20703,2.79688 0,0.96875 0.64062,1.6875 1.57812,1.6875 1.16016,0 1.98828,-1.57813 1.98828,-2.95313 0,-0.90625 -0.39062,-1.40625 -0.73437,-1.84375 -0.35938,-0.45312 -0.95313,-1.20312 -0.95313,-1.64062 0,-0.21875 0.20313,-0.45313 0.54688,-0.45313 0.3125,0 0.5,0.125 0.71875,0.26563 0.20312,0.125 0.39062,0.25 0.54687,0.25 0.25,0 0.39063,-0.23438 0.39063,-0.40625 0,-0.21875 -0.15625,-0.23438 -0.51563,-0.32813 -0.51562,-0.10937 -0.65625,-0.10937 -0.8125,-0.10937 -0.78125,0 -1.14453,0.4375 -1.14453,1.03125 0,0.54687 0.30078,1.09375 0.59766,1.70312 z m 0.125,0.21875 c 0.25,0.46875 0.54687,1 0.54687,1.71875 0,0.65625 -0.375,2.32813 -1.30078,2.32813 -0.54687,0 -0.96875,-0.42188 -0.96875,-1.1875 0,-0.625 0.375,-2.5 1.72266,-2.85938 z m 0,0"
       id="path49" />
    <path
       style="fill:#000000;fill-opacity:1;fill-rule:nonzero;stroke:none"
       d="m 423.55469,197.28125 c -0.0781,0.34375 -0.10938,0.40625 -0.54688,0.40625 -0.10937,0 -0.21875,0 -0.21875,0.1875 0,0.0781 0.0469,0.125 0.125,0.125 0.26563,0 0.5625,-0.0312 0.82813,-0.0312 0.34375,0 0.67187,0.0312 1.0039,0.0312 0.0469,0 0.17188,0 0.17188,-0.20313 0,-0.10937 -0.0937,-0.10937 -0.23438,-0.10937 -0.5039,0 -0.5039,-0.0625 -0.5039,-0.15625 0,-0.125 0.42578,-1.75 0.48828,-2 0.125,0.29687 0.40625,0.64062 0.92187,0.64062 1.15625,0 2.41016,-1.45312 2.41016,-2.92187 0,-0.9375 -0.57813,-1.59375 -1.33203,-1.59375 -0.5,0 -0.98438,0.35937 -1.3125,0.75 -0.0937,-0.54688 -0.53125,-0.75 -0.89453,-0.75 -0.46875,0 -0.65625,0.39062 -0.73438,0.5625 -0.1875,0.34375 -0.3125,0.9375 -0.3125,0.96875 0,0.10937 0.0937,0.10937 0.10938,0.10937 0.10937,0 0.10937,-0.0156 0.17187,-0.23437 0.17188,-0.70313 0.375,-1.1875 0.73438,-1.1875 0.17578,0 0.3164,0.0781 0.3164,0.45312 0,0.23438 -0.0312,0.34375 -0.0781,0.51563 z m 1.7539,-4.32813 c 0.0625,-0.26562 0.34375,-0.54687 0.51563,-0.70312 0.35937,-0.29688 0.64062,-0.375 0.8125,-0.375 0.39453,0 0.64453,0.34375 0.64453,0.9375 0,0.59375 -0.32813,1.73437 -0.51953,2.10937 -0.34375,0.70313 -0.8125,1.03125 -1.1875,1.03125 -0.65625,0 -0.78125,-0.82812 -0.78125,-0.89062 0,-0.0156 0,-0.0312 0.0312,-0.15625 z m 0,0"
       id="path50" />
    <path
       style="fill:#000000;fill-opacity:1;fill-rule:nonzero;stroke:none"
       d="m 302.46484,171.91797 c 0,-0.21875 -0.0625,-0.32813 -0.14062,-0.32813 -0.0469,0 -0.14063,0.0781 -0.14063,0.26563 -0.0469,0.95312 -0.70312,1.5 -1.40625,1.5 -0.6289,0 -1.09765,-0.42188 -1.59765,-0.84375 -0.5,-0.46875 -1.01563,-0.92188 -1.70703,-0.92188 -1.07813,0 -1.67188,1.09375 -1.67188,2 0,0.32813 0.125,0.32813 0.14063,0.32813 0.10937,0 0.14062,-0.20313 0.14062,-0.23438 0.0469,-1.09375 0.78125,-1.53125 1.39063,-1.53125 0.625,0 1.11328,0.42188 1.59765,0.84375 0.51563,0.46875 1.03125,0.92188 1.70703,0.92188 1.09375,0 1.6875,-1.09375 1.6875,-2 z m 0,0"
       id="path51" />
    <path
       style="fill:#000000;fill-opacity:1;fill-rule:nonzero;stroke:none"
       d="m 308.41406,170.88672 c -1.23828,0.29687 -2.20703,1.59375 -2.20703,2.79687 0,0.96875 0.64063,1.6875 1.58203,1.6875 1.15625,0 1.98828,-1.57812 1.98828,-2.95312 0,-0.90625 -0.39453,-1.40625 -0.73828,-1.84375 -0.35937,-0.45313 -0.95312,-1.20313 -0.95312,-1.64063 0,-0.21875 0.20312,-0.45312 0.54687,-0.45312 0.3125,0 0.5,0.125 0.71875,0.26562 0.20313,0.125 0.39453,0.25 0.55078,0.25 0.25,0 0.39063,-0.23437 0.39063,-0.40625 0,-0.21875 -0.15625,-0.23437 -0.51563,-0.32812 -0.51953,-0.10938 -0.66015,-0.10938 -0.8164,-0.10938 -0.78125,0 -1.14063,0.4375 -1.14063,1.03125 0,0.54688 0.29688,1.09375 0.59375,1.70313 z m 0.125,0.21875 c 0.25,0.46875 0.54688,1 0.54688,1.71875 0,0.65625 -0.375,2.32812 -1.29688,2.32812 -0.55078,0 -0.97265,-0.42187 -0.97265,-1.1875 0,-0.625 0.375,-2.5 1.72265,-2.85937 z m 0,0"
       id="path52" />
    <path
       style="fill:#000000;fill-opacity:1;fill-rule:nonzero;stroke:none"
       d="m 311.05078,176.46484 c -0.0781,0.34375 -0.10937,0.40625 -0.54687,0.40625 -0.10938,0 -0.21875,0 -0.21875,0.1875 0,0.0781 0.0469,0.125 0.125,0.125 0.26562,0 0.5625,-0.0312 0.83203,-0.0312 0.34375,0 0.67187,0.0312 1,0.0312 0.0469,0 0.17187,0 0.17187,-0.20312 0,-0.10938 -0.0937,-0.10938 -0.23437,-0.10938 -0.5,0 -0.5,-0.0625 -0.5,-0.15625 0,-0.125 0.42187,-1.75 0.48437,-2 0.125,0.29688 0.40625,0.64063 0.92188,0.64063 1.16015,0 2.41015,-1.45313 2.41015,-2.92188 0,-0.9375 -0.57812,-1.59375 -1.32812,-1.59375 -0.5,0 -0.98828,0.35938 -1.31641,0.75 -0.0937,-0.54687 -0.53125,-0.75 -0.89062,-0.75 -0.46875,0 -0.65625,0.39063 -0.73438,0.5625 -0.1914,0.34375 -0.3164,0.9375 -0.3164,0.96875 0,0.10938 0.0937,0.10938 0.10937,0.10938 0.10938,0 0.10938,-0.0156 0.17578,-0.23438 0.17188,-0.70312 0.375,-1.1875 0.73438,-1.1875 0.17187,0 0.3125,0.0781 0.3125,0.45313 0,0.23437 -0.0312,0.34375 -0.0781,0.51562 z m 1.75391,-4.32812 c 0.0625,-0.26563 0.34375,-0.54688 0.51562,-0.70313 0.36328,-0.29687 0.64453,-0.375 0.81641,-0.375 0.39062,0 0.64062,0.34375 0.64062,0.9375 0,0.59375 -0.32812,1.73438 -0.51562,2.10938 -0.34375,0.70312 -0.81641,1.03125 -1.19141,1.03125 -0.65625,0 -0.78125,-0.82813 -0.78125,-0.89063 0,-0.0156 0,-0.0312 0.0312,-0.15625 z m 0,0"
       id="path53" />
    <path
       style="fill:#000000;fill-opacity:1;fill-rule:nonzero;stroke:none"
       d="m 320.03125,167.69141 c 0,-0.625 -0.53125,-0.96875 -1.14063,-0.96875 -0.95703,0 -1.66015,1.07812 -1.83203,1.78125 l -1.09765,4.39062 c -0.0156,0.0469 0.0469,0.0937 0.0937,0.0937 0.0625,0 0.125,-0.0156 0.14062,-0.0625 l 0.45703,-1.85937 c 0.15625,0.32812 0.48438,0.625 1.04688,0.625 0.98828,0 2.08203,-0.70313 2.08203,-1.76563 0,-0.42187 -0.1875,-0.82812 -0.54688,-1.0625 0.34375,-0.21875 0.79688,-0.60937 0.79688,-1.17187 z m -1.375,1.15625 c -0.11328,0.0312 -0.16016,0.0625 -0.36328,0.0625 -0.10938,0 -0.28125,-0.0156 -0.32813,-0.0469 0.0781,-0.0312 0.26563,-0.0469 0.32813,-0.0469 0.10937,0 0.26562,0.0156 0.36328,0.0312 z m 0.92187,-1.28125 c 0,0.35937 -0.1875,0.90625 -0.60937,1.15625 -0.14063,-0.0469 -0.26563,-0.0937 -0.66016,-0.0937 -0.25,0 -0.59375,0.0156 -0.59375,0.26562 0,0.17188 0.21875,0.20313 0.5625,0.20313 0.25,0 0.45703,-0.0469 0.67578,-0.10938 0.20313,0.15625 0.3125,0.4375 0.3125,0.75 0,1 -0.6914,1.76563 -1.53515,1.76563 -0.54688,0 -0.92188,-0.32813 -0.92188,-0.89063 0,-0.0625 0,-0.14062 0.0156,-0.20312 l 0.46875,-1.84375 c 0.15625,-0.67188 0.78125,-1.65625 1.58203,-1.65625 0.42187,0 0.70312,0.21875 0.70312,0.65625 z m 0,0"
       id="path54" />
    <path
       style="fill:#000000;fill-opacity:1;fill-rule:nonzero;stroke:none"
       d="m 390.0625,143.39844 c 0,-0.21875 -0.0625,-0.32813 -0.14063,-0.32813 -0.0469,0 -0.14062,0.0781 -0.14062,0.26563 -0.0469,0.95312 -0.70703,1.5 -1.41016,1.5 -0.625,0 -1.09765,-0.42188 -1.59765,-0.84375 -0.5,-0.46875 -1.01563,-0.92188 -1.70313,-0.92188 -1.08203,0 -1.67578,1.09375 -1.67578,2 0,0.32813 0.125,0.32813 0.14063,0.32813 0.10937,0 0.14062,-0.20313 0.14062,-0.23438 0.0469,-1.09375 0.78125,-1.53125 1.39453,-1.53125 0.625,0 1.10938,0.42188 1.59375,0.84375 0.51563,0.46875 1.03516,0.92188 1.70703,0.92188 1.09375,0 1.69141,-1.09375 1.69141,-2 z m 0,0"
       id="path55" />
    <path
       style="fill:#000000;fill-opacity:1;fill-rule:nonzero;stroke:none"
       d="m 396.00781,142.36719 c -1.23437,0.29687 -2.20703,1.59375 -2.20703,2.79687 0,0.96875 0.64453,1.6875 1.58203,1.6875 1.16016,0 1.98828,-1.57812 1.98828,-2.95312 0,-0.90625 -0.39062,-1.40625 -0.73437,-1.84375 -0.36328,-0.45313 -0.95703,-1.20313 -0.95703,-1.64063 0,-0.21875 0.20312,-0.45312 0.54687,-0.45312 0.31641,0 0.50391,0.125 0.72266,0.26562 0.20312,0.125 0.39062,0.25 0.54687,0.25 0.25,0 0.39063,-0.23437 0.39063,-0.40625 0,-0.21875 -0.15625,-0.23437 -0.51563,-0.32812 -0.51562,-0.10938 -0.65625,-0.10938 -0.8125,-0.10938 -0.78515,0 -1.14453,0.4375 -1.14453,1.03125 0,0.54688 0.29688,1.09375 0.59375,1.70313 z m 0.125,0.21875 c 0.25,0.46875 0.55078,1 0.55078,1.71875 0,0.65625 -0.3789,2.32812 -1.30078,2.32812 -0.54687,0 -0.96875,-0.42187 -0.96875,-1.1875 0,-0.625 0.375,-2.5 1.71875,-2.85937 z m 0,0"
       id="path56" />
    <path
       style="fill:#000000;fill-opacity:1;fill-rule:nonzero;stroke:none"
       d="m 398.64844,147.94531 c -0.0781,0.34375 -0.10938,0.40625 -0.54688,0.40625 -0.11328,0 -0.22265,0 -0.22265,0.1875 0,0.0781 0.0469,0.125 0.125,0.125 0.26953,0 0.5664,-0.0312 0.83203,-0.0312 0.34375,0 0.67187,0.0312 1,0.0312 0.0469,0 0.17187,0 0.17187,-0.20312 0,-0.10938 -0.0937,-0.10938 -0.23437,-0.10938 -0.5,0 -0.5,-0.0625 -0.5,-0.15625 0,-0.125 0.42187,-1.75 0.48437,-2 0.125,0.29688 0.40625,0.64063 0.92578,0.64063 1.15625,0 2.41016,-1.45313 2.41016,-2.92188 0,-0.9375 -0.58203,-1.59375 -1.33203,-1.59375 -0.5,0 -0.98438,0.35938 -1.3125,0.75 -0.0977,-0.54687 -0.53516,-0.75 -0.89453,-0.75 -0.46875,0 -0.65625,0.39063 -0.73438,0.5625 -0.1875,0.34375 -0.3125,0.9375 -0.3125,0.96875 0,0.10938 0.0937,0.10938 0.10938,0.10938 0.10937,0 0.10937,-0.0156 0.17187,-0.23438 0.17188,-0.70312 0.375,-1.1875 0.73438,-1.1875 0.17187,0 0.3125,0.0781 0.3125,0.45313 0,0.23437 -0.0312,0.34375 -0.0781,0.51562 z m 1.7539,-4.32812 c 0.0625,-0.26563 0.34375,-0.54688 0.51563,-0.70313 0.35937,-0.29687 0.64062,-0.375 0.8125,-0.375 0.39062,0 0.64062,0.34375 0.64062,0.9375 0,0.59375 -0.32812,1.73438 -0.51562,2.10938 -0.34375,0.70312 -0.8125,1.03125 -1.1875,1.03125 -0.66016,0 -0.78516,-0.82813 -0.78516,-0.89063 0,-0.0156 0,-0.0312 0.0312,-0.15625 z m 0,0"
       id="path57" />
    <path
       style="fill:#000000;fill-opacity:1;fill-rule:nonzero;stroke:none"
       d="m 408.41016,141.53516 c 0.10937,0 0.28125,0 0.28125,-0.15625 0,-0.1875 -0.17188,-0.1875 -0.28125,-0.1875 h -4.16407 c -0.10937,0 -0.28125,0 -0.28125,0.17187 0,0.17188 0.15625,0.17188 0.28125,0.17188 z m 0,0"
       id="path58" />
    <path
       style="fill:#000000;fill-opacity:1;fill-rule:nonzero;stroke:none"
       d="m 412.56641,142.14453 c -0.0312,-0.40625 -0.26563,-2.11328 -1.41016,-2.11328 -0.40625,0 -0.76563,0.23828 -0.95313,0.41016 -0.42578,0.39062 -0.51953,0.82812 -0.51953,0.85937 0,0.0781 0.0937,0.0781 0.10938,0.0781 0.0937,0 0.11328,-0.0156 0.14453,-0.125 0.14062,-0.40625 0.65625,-0.65625 1.125,-0.65625 1.125,0 1.26953,1.125 1.26953,1.82812 0,0.35938 -0.0156,0.42188 -0.0469,0.5 -0.16016,0.53125 -0.37891,1.29688 -0.37891,1.51563 0,0.0781 0.0312,0.15625 0.125,0.15625 0.0469,0 0.125,0 0.23828,-0.35938 0.0937,-0.26562 0.21875,-0.78125 0.28125,-1.28125 0.0156,-0.25 0.40625,-1.1875 0.5625,-1.51562 0.0937,-0.21875 0.23438,-0.54688 0.5625,-1.15625 0.0312,-0.0312 0.0469,-0.0625 0.0469,-0.0937 0,-0.082 -0.0937,-0.082 -0.125,-0.082 -0.0156,0 -0.0781,0 -0.0937,0.0312 -0.0937,0.14454 -0.625,1.14454 -0.9375,2.00391 z m 0,0"
       id="path59" />
    <path
       style="fill:#000000;fill-opacity:1;fill-rule:nonzero;stroke:none"
       d="m 415.87109,137.79297 c 0,-0.0156 0.0469,-0.10938 0.0469,-0.1875 0,-0.17188 -0.15625,-0.28125 -0.3125,-0.28125 -0.20313,0 -0.25,0.15625 -0.28125,0.21875 l -0.76953,2.15625 c -0.0156,0.0625 -0.0156,0.0781 -0.0156,0.0937 0,0.0781 0.20703,0.125 0.20703,0.125 0.0469,0 0.0625,-0.0312 0.0937,-0.0937 z m 0,0"
       id="path60" />
    <path
       style="fill:#000000;fill-opacity:1;fill-rule:nonzero;stroke:none"
       d="m 155.96484,89.96875 c -0.0781,0.34375 -0.10937,0.40625 -0.54687,0.40625 -0.10938,0 -0.21875,0 -0.21875,0.1875 0,0.07813 0.0469,0.125 0.125,0.125 0.26562,0 0.5625,-0.03125 0.83203,-0.03125 0.34375,0 0.67187,0.03125 1,0.03125 0.0469,0 0.17187,0 0.17187,-0.203125 0,-0.109375 -0.0937,-0.109375 -0.23437,-0.109375 -0.5,0 -0.5,-0.0625 -0.5,-0.15625 0,-0.125 0.42187,-1.75 0.48437,-2 0.125,0.296875 0.40625,0.640625 0.92188,0.640625 1.16016,0 2.41016,-1.453125 2.41016,-2.921875 0,-0.9375 -0.57813,-1.59375 -1.32813,-1.59375 -0.5,0 -0.98828,0.359375 -1.31641,0.75 -0.0937,-0.546875 -0.53125,-0.75 -0.89062,-0.75 -0.46875,0 -0.65625,0.390625 -0.73828,0.5625 -0.1875,0.34375 -0.3125,0.9375 -0.3125,0.96875 0,0.109375 0.0937,0.109375 0.10937,0.109375 0.10938,0 0.10938,-0.01563 0.17188,-0.234375 0.17578,-0.703125 0.3789,-1.1875 0.73828,-1.1875 0.17187,0 0.3125,0.07813 0.3125,0.453125 0,0.234375 -0.0312,0.34375 -0.0781,0.515625 z m 1.75391,-4.328125 c 0.0625,-0.265625 0.34375,-0.546875 0.51562,-0.703125 0.36329,-0.296875 0.64454,-0.375 0.81641,-0.375 0.39063,0 0.64063,0.34375 0.64063,0.9375 0,0.59375 -0.32813,1.734375 -0.51563,2.109375 -0.34375,0.703125 -0.81641,1.03125 -1.19141,1.03125 -0.65625,0 -0.78125,-0.828125 -0.78125,-0.890625 0,-0.01563 0,-0.03125 0.0312,-0.15625 z m 0,0"
       id="path61" />
    <path
       style="fill:#000000;fill-opacity:1;fill-rule:nonzero;stroke:none"
       d="m 170.05469,86.484375 c 0.10937,-0.0625 0.1875,-0.109375 0.1875,-0.234375 0,-0.109375 -0.0781,-0.15625 -0.1875,-0.21875 l -5.54297,-2.59375 c -0.125,-0.07813 -0.14063,-0.07813 -0.17188,-0.07813 -0.10937,0 -0.20312,0.09375 -0.20312,0.203125 0,0.09375 0.0469,0.15625 0.1875,0.21875 l 5.24219,2.46875 -5.24219,2.484375 c -0.14063,0.0625 -0.1875,0.125 -0.1875,0.21875 0,0.109375 0.0937,0.203125 0.20312,0.203125 0.0312,0 0.0469,0 0.17188,-0.07813 z m 0,0"
       id="path62" />
    <path
       style="fill:#000000;fill-opacity:1;fill-rule:nonzero;stroke:none"
       d="m 174.29687,89.96875 c -0.0781,0.34375 -0.10937,0.40625 -0.54687,0.40625 -0.10938,0 -0.21875,0 -0.21875,0.1875 0,0.07813 0.0469,0.125 0.125,0.125 0.26562,0 0.5625,-0.03125 0.82812,-0.03125 0.34375,0 0.67188,0.03125 1.00391,0.03125 0.0469,0 0.17188,0 0.17188,-0.203125 0,-0.109375 -0.0937,-0.109375 -0.23438,-0.109375 -0.50391,0 -0.50391,-0.0625 -0.50391,-0.15625 0,-0.125 0.42579,-1.75 0.48829,-2 0.125,0.296875 0.40625,0.640625 0.92187,0.640625 1.15625,0 2.41016,-1.453125 2.41016,-2.921875 0,-0.9375 -0.57813,-1.59375 -1.33203,-1.59375 -0.5,0 -0.98438,0.359375 -1.3125,0.75 -0.0937,-0.546875 -0.53125,-0.75 -0.89063,-0.75 -0.47266,0 -0.66016,0.390625 -0.73828,0.5625 -0.1875,0.34375 -0.3125,0.9375 -0.3125,0.96875 0,0.109375 0.0937,0.109375 0.10937,0.109375 0.10938,0 0.10938,-0.01563 0.17188,-0.234375 0.17187,-0.703125 0.375,-1.1875 0.73828,-1.1875 0.17188,0 0.3125,0.07813 0.3125,0.453125 0,0.234375 -0.0312,0.34375 -0.0781,0.515625 z m 1.75391,-4.328125 c 0.0625,-0.265625 0.34375,-0.546875 0.51563,-0.703125 0.35937,-0.296875 0.64062,-0.375 0.8125,-0.375 0.39453,0 0.64453,0.34375 0.64453,0.9375 0,0.59375 -0.32813,1.734375 -0.51953,2.109375 -0.34375,0.703125 -0.8125,1.03125 -1.1875,1.03125 -0.65625,0 -0.78125,-0.828125 -0.78125,-0.890625 0,-0.01563 0,-0.03125 0.0312,-0.15625 z m 0,0"
       id="path63" />
    <path
       style="fill:#000000;fill-opacity:1;fill-rule:nonzero;stroke:none"
       d="m 181.91016,87.574219 c -0.25,0.04687 -0.34375,0.234375 -0.34375,0.390625 0,0.1875 0.14062,0.265625 0.26562,0.265625 0.15625,0 0.39063,-0.109375 0.39063,-0.453125 0,-0.46875 -0.53125,-0.613282 -0.90625,-0.613282 -1.04688,0 -2.01954,0.972657 -2.01954,1.941407 0,0.59375 0.40625,1.203125 1.28516,1.203125 1.1875,0 1.73828,-0.6875 1.73828,-0.78125 0,-0.04687 -0.0664,-0.125 -0.1289,-0.125 -0.0312,0 -0.0469,0.01563 -0.10938,0.07813 -0.54687,0.640625 -1.35937,0.640625 -1.48437,0.640625 -0.5,0 -0.72266,-0.34375 -0.72266,-0.78125 0,-0.1875 0.0977,-0.953125 0.45703,-1.4375 0.26563,-0.34375 0.625,-0.53125 0.98438,-0.53125 0.0937,0 0.42187,0.01563 0.59375,0.203125 z m 0,0"
       id="path64" />
    <path
       style="fill:#000000;fill-opacity:1;fill-rule:nonzero;stroke:none"
       d="m 108.54297,162.77734 c -0.0781,0.34375 -0.10938,0.40625 -0.54688,0.40625 -0.10937,0 -0.21875,0 -0.21875,0.1875 0,0.0781 0.0469,0.125 0.125,0.125 0.26563,0 0.5625,-0.0312 0.82813,-0.0312 0.34766,0 0.67578,0.0312 1.00391,0.0312 0.0469,0 0.17187,0 0.17187,-0.20312 0,-0.10938 -0.0937,-0.10938 -0.23437,-0.10938 -0.5,0 -0.5,-0.0625 -0.5,-0.15625 0,-0.125 0.42187,-1.75 0.48437,-2 0.125,0.29688 0.40625,0.64063 0.92188,0.64063 1.16015,0 2.41015,-1.45703 2.41015,-2.92578 0,-0.9375 -0.57812,-1.59375 -1.32812,-1.59375 -0.50391,0 -0.98828,0.35937 -1.31641,0.75 -0.0937,-0.54688 -0.53125,-0.75 -0.89062,-0.75 -0.46875,0 -0.66016,0.39062 -0.73829,0.5625 -0.1875,0.34375 -0.3125,0.9375 -0.3125,0.96875 0,0.10937 0.0937,0.10937 0.10938,0.10937 0.10937,0 0.10937,-0.0156 0.17187,-0.23437 0.17188,-0.70313 0.37891,-1.1875 0.73829,-1.1875 0.17187,0 0.3125,0.0781 0.3125,0.45312 0,0.23438 -0.0312,0.34375 -0.0781,0.51563 z m 1.75391,-4.33203 c 0.0625,-0.26562 0.34375,-0.54687 0.51562,-0.70312 0.35938,-0.29688 0.64453,-0.375 0.81641,-0.375 0.39062,0 0.64062,0.34375 0.64062,0.9375 0,0.59375 -0.32812,1.73437 -0.51562,2.11328 -0.34375,0.70312 -0.81641,1.03125 -1.19141,1.03125 -0.65625,0 -0.78125,-0.82813 -0.78125,-0.89063 0,-0.0156 0,-0.0312 0.0312,-0.15625 z m 0,0"
       id="path65" />
    <path
       style="fill:#000000;fill-opacity:1;fill-rule:nonzero;stroke:none"
       d="m 122.62891,156.58594 c 0.11328,-0.0625 0.1914,-0.10938 0.1914,-0.21875 0,-0.10938 -0.0937,-0.20313 -0.20703,-0.20313 -0.0312,0 -0.0469,0 -0.17187,0.0781 l -5.53907,2.59375 c -0.10937,0.0625 -0.1875,0.10937 -0.1875,0.21875 0,0.125 0.0781,0.17187 0.1875,0.23437 l 5.53907,2.59766 c 0.125,0.0781 0.14062,0.0781 0.17187,0.0781 0.11328,0 0.20703,-0.0937 0.20703,-0.20312 0,-0.10938 -0.0781,-0.15625 -0.1914,-0.21875 l -5.24219,-2.48828 z m 0,0"
       id="path66" />
    <path
       style="fill:#000000;fill-opacity:1;fill-rule:nonzero;stroke:none"
       d="m 126.875,162.77734 c -0.0781,0.34375 -0.10937,0.40625 -0.54687,0.40625 -0.10938,0 -0.21875,0 -0.21875,0.1875 0,0.0781 0.0469,0.125 0.125,0.125 0.26562,0 0.5625,-0.0312 0.82812,-0.0312 0.34375,0 0.67188,0.0312 1.00391,0.0312 0.0469,0 0.17187,0 0.17187,-0.20312 0,-0.10938 -0.0937,-0.10938 -0.23437,-0.10938 -0.50391,0 -0.50391,-0.0625 -0.50391,-0.15625 0,-0.125 0.42188,-1.75 0.48438,-2 0.1289,0.29688 0.41015,0.64063 0.92578,0.64063 1.15625,0 2.41015,-1.45703 2.41015,-2.92578 0,-0.9375 -0.57812,-1.59375 -1.33203,-1.59375 -0.5,0 -0.98437,0.35937 -1.3125,0.75 -0.0937,-0.54688 -0.53125,-0.75 -0.89453,-0.75 -0.46875,0 -0.65625,0.39062 -0.73437,0.5625 -0.1875,0.34375 -0.3125,0.9375 -0.3125,0.96875 0,0.10937 0.0937,0.10937 0.10937,0.10937 0.10938,0 0.10938,-0.0156 0.17188,-0.23437 0.17187,-0.70313 0.375,-1.1875 0.73437,-1.1875 0.17188,0 0.31641,0.0781 0.31641,0.45312 0,0.23438 -0.0312,0.34375 -0.082,0.51563 z m 1.75391,-4.33203 c 0.0625,-0.26562 0.34375,-0.54687 0.51562,-0.70312 0.35938,-0.29688 0.64063,-0.375 0.8125,-0.375 0.39453,0 0.64453,0.34375 0.64453,0.9375 0,0.59375 -0.33203,1.73437 -0.51953,2.11328 -0.34375,0.70312 -0.8125,1.03125 -1.1875,1.03125 -0.65625,0 -0.78125,-0.82813 -0.78125,-0.89063 0,-0.0156 0,-0.0312 0.0312,-0.15625 z m 0,0"
       id="path67" />
    <path
       style="fill:#000000;fill-opacity:1;fill-rule:nonzero;stroke:none"
       d="m 134.48828,160.37891 c -0.25,0.0469 -0.34375,0.23437 -0.34375,0.39062 0,0.1875 0.14063,0.26563 0.26563,0.26563 0.15625,0 0.39062,-0.10938 0.39062,-0.45313 0,-0.46875 -0.53125,-0.60937 -0.90625,-0.60937 -1.04687,0 -2.01953,0.96875 -2.01953,1.9375 0,0.59375 0.40625,1.20312 1.28516,1.20312 1.1875,0 1.73437,-0.6875 1.73437,-0.78125 0,-0.0469 -0.0625,-0.125 -0.125,-0.125 -0.0312,0 -0.0469,0.0156 -0.10937,0.0781 -0.54688,0.64062 -1.35938,0.64062 -1.48438,0.64062 -0.50391,0 -0.72266,-0.34375 -0.72266,-0.78125 0,-0.1875 0.0937,-0.95312 0.45704,-1.4375 0.26562,-0.34375 0.625,-0.53125 0.98437,-0.53125 0.0937,0 0.42188,0.0156 0.59375,0.20313 z m 0,0"
       id="path68" />
    <path
       style="fill:#000000;fill-opacity:1;fill-rule:nonzero;stroke:none"
       d="m 168.625,143.27734 c -0.0781,0.34375 -0.10938,0.40625 -0.54688,0.40625 -0.10937,0 -0.22265,0 -0.22265,0.1875 0,0.0781 0.0508,0.125 0.1289,0.125 0.26563,0 0.5625,-0.0312 0.82813,-0.0312 0.34375,0 0.67187,0.0312 1,0.0312 0.0469,0 0.17187,0 0.17187,-0.20312 0,-0.10938 -0.0937,-0.10938 -0.23437,-0.10938 -0.5,0 -0.5,-0.0625 -0.5,-0.15625 0,-0.125 0.42187,-1.75 0.48437,-2 0.125,0.29688 0.40625,0.64063 0.92579,0.64063 1.15625,0 2.41015,-1.45313 2.41015,-2.92188 0,-0.9375 -0.58203,-1.59375 -1.33203,-1.59375 -0.5,0 -0.98437,0.35938 -1.3125,0.75 -0.0937,-0.54687 -0.53516,-0.75 -0.89453,-0.75 -0.46875,0 -0.65625,0.39063 -0.73438,0.5625 -0.1875,0.34375 -0.3125,0.9375 -0.3125,0.96875 0,0.10938 0.0937,0.10938 0.10938,0.10938 0.10937,0 0.10937,-0.0156 0.17187,-0.23438 0.17188,-0.70312 0.375,-1.1875 0.73438,-1.1875 0.17187,0 0.3125,0.0781 0.3125,0.45313 0,0.23437 -0.0312,0.34375 -0.0781,0.51562 z m 1.75391,-4.32812 c 0.0625,-0.26563 0.34375,-0.54688 0.51562,-0.70313 0.35938,-0.29687 0.64063,-0.375 0.8125,-0.375 0.39063,0 0.64063,0.34375 0.64063,0.9375 0,0.59375 -0.32813,1.73438 -0.51563,2.10938 -0.34375,0.70312 -0.8125,1.03125 -1.1875,1.03125 -0.66016,0 -0.78516,-0.82813 -0.78516,-0.89063 0,-0.0156 0,-0.0312 0.0312,-0.15625 z m 0,0"
       id="path69" />
    <path
       style="fill:#000000;fill-opacity:1;fill-rule:nonzero;stroke:none"
       d="m 182.81641,138.79297 c 0.15625,0 0.34375,0 0.34375,-0.1875 0,-0.20313 -0.1875,-0.20313 -0.32813,-0.20313 h -5.97656 c -0.14063,0 -0.32813,0 -0.32813,0.20313 0,0.1875 0.1875,0.1875 0.32813,0.1875 z m 0.0156,1.9375 c 0.14063,0 0.32813,0 0.32813,-0.20313 0,-0.1875 -0.1875,-0.1875 -0.34375,-0.1875 h -5.96094 c -0.14063,0 -0.32813,0 -0.32813,0.1875 0,0.20313 0.1875,0.20313 0.32813,0.20313 z m 0,0"
       id="path70" />
    <path
       style="fill:#000000;fill-opacity:1;fill-rule:nonzero;stroke:none"
       d="m 186.94922,143.27734 c -0.0781,0.34375 -0.10938,0.40625 -0.54688,0.40625 -0.10937,0 -0.21875,0 -0.21875,0.1875 0,0.0781 0.0469,0.125 0.125,0.125 0.26563,0 0.5625,-0.0312 0.82813,-0.0312 0.34375,0 0.67578,0.0312 1.0039,0.0312 0.0469,0 0.17188,0 0.17188,-0.20312 0,-0.10938 -0.0937,-0.10938 -0.23438,-0.10938 -0.5039,0 -0.5039,-0.0625 -0.5039,-0.15625 0,-0.125 0.42578,-1.75 0.48828,-2 0.125,0.29688 0.40625,0.64063 0.92187,0.64063 1.16016,0 2.41016,-1.45313 2.41016,-2.92188 0,-0.9375 -0.57812,-1.59375 -1.32812,-1.59375 -0.50391,0 -0.98829,0.35938 -1.31641,0.75 -0.0937,-0.54687 -0.53125,-0.75 -0.89063,-0.75 -0.47265,0 -0.66015,0.39063 -0.73828,0.5625 -0.1875,0.34375 -0.3125,0.9375 -0.3125,0.96875 0,0.10938 0.0937,0.10938 0.10938,0.10938 0.10937,0 0.10937,-0.0156 0.17187,-0.23438 0.17188,-0.70312 0.375,-1.1875 0.73828,-1.1875 0.17188,0 0.3125,0.0781 0.3125,0.45313 0,0.23437 -0.0312,0.34375 -0.0781,0.51562 z m 1.7539,-4.32812 c 0.0625,-0.26563 0.34375,-0.54688 0.51563,-0.70313 0.35937,-0.29687 0.64062,-0.375 0.8125,-0.375 0.39453,0 0.64453,0.34375 0.64453,0.9375 0,0.59375 -0.32812,1.73438 -0.51562,2.10938 -0.34766,0.70312 -0.81641,1.03125 -1.19141,1.03125 -0.65625,0 -0.78125,-0.82813 -0.78125,-0.89063 0,-0.0156 0,-0.0312 0.0312,-0.15625 z m 0,0"
       id="path71" />
    <path
       style="fill:#000000;fill-opacity:1;fill-rule:nonzero;stroke:none"
       d="m 194.57031,140.88281 c -0.25,0.0469 -0.34375,0.23438 -0.34375,0.39063 0,0.1875 0.14063,0.26562 0.26563,0.26562 0.15625,0 0.39062,-0.10937 0.39062,-0.45312 0,-0.46875 -0.53125,-0.60938 -0.90625,-0.60938 -1.05078,0 -2.01953,0.96875 -2.01953,1.9375 0,0.59375 0.40625,1.20313 1.28125,1.20313 1.19141,0 1.73828,-0.6875 1.73828,-0.78125 0,-0.0469 -0.0625,-0.125 -0.125,-0.125 -0.0312,0 -0.0469,0.0156 -0.10937,0.0781 -0.54688,0.64063 -1.36328,0.64063 -1.48828,0.64063 -0.5,0 -0.71875,-0.34375 -0.71875,-0.78125 0,-0.1875 0.0937,-0.95313 0.45312,-1.4375 0.26563,-0.34375 0.625,-0.53125 0.98828,-0.53125 0.0937,0 0.42188,0.0156 0.59375,0.20312 z m 0,0"
       id="path72" />
    <path
       style="fill:#000000;fill-opacity:1;fill-rule:nonzero;stroke:none"
       d="m 53.871094,134.21094 c 0,-0.23438 -0.06641,-0.35157 -0.152344,-0.35157 -0.05078,0 -0.152344,0.082 -0.152344,0.28516 -0.05078,1.03125 -0.761718,1.62109 -1.523437,1.62109 -0.675781,0 -1.183594,-0.45703 -1.722657,-0.91015 -0.542968,-0.50781 -1.101562,-0.9961 -1.84375,-0.9961 -1.167968,0 -1.808593,1.17969 -1.808593,2.16016 0,0.35547 0.132812,0.35547 0.152343,0.35547 0.117188,0 0.152344,-0.21875 0.152344,-0.25391 0.05078,-1.18359 0.84375,-1.65625 1.503906,-1.65625 0.675782,0 1.199219,0.45703 1.726563,0.91407 0.554687,0.5039 1.113281,0.99609 1.839844,0.99609 1.183593,0 1.828125,-1.18359 1.828125,-2.16406 z m 0,0"
       id="path73" />
    <path
       style="fill:#000000;fill-opacity:1;fill-rule:nonzero;stroke:none"
       d="M 59.671875,133.50391 H 60.6875 c 0.21875,0 0.335938,0 0.335938,-0.21875 0,-0.1211 -0.117188,-0.1211 -0.304688,-0.1211 h -0.945312 c 0.390624,-1.53515 0.441406,-1.73828 0.441406,-1.80469 0,-0.1875 -0.136719,-0.28906 -0.324219,-0.28906 -0.03125,0 -0.335937,0 -0.421875,0.39063 l -0.421875,1.70312 H 58.03125 c -0.21875,0 -0.320312,0 -0.320312,0.20313 0,0.13672 0.08203,0.13672 0.304687,0.13672 h 0.945313 c -0.777344,3.05468 -0.828126,3.24218 -0.828126,3.42578 0,0.59375 0.40625,0.99609 0.996094,0.99609 1.101563,0 1.710938,-1.57031 1.710938,-1.65234 0,-0.11719 -0.08594,-0.11719 -0.121094,-0.11719 -0.101562,0 -0.117188,0.0312 -0.167969,0.14844 -0.457031,1.13281 -1.03125,1.38672 -1.402343,1.38672 -0.21875,0 -0.339844,-0.13672 -0.339844,-0.48829 0,-0.27343 0.03516,-0.33984 0.07031,-0.52343 z m 0,0"
       id="path74" />
    <path
       style="fill:#000000;fill-opacity:1;fill-rule:nonzero;stroke:none"
       d="m 66.964844,132.19531 c 0.117187,0 0.304687,0 0.304687,-0.16797 0,-0.20312 -0.1875,-0.20312 -0.304687,-0.20312 h -4.5 c -0.117188,0 -0.304688,0 -0.304688,0.1875 0,0.18359 0.171875,0.18359 0.304688,0.18359 z m 0,0"
       id="path75" />
    <path
       style="fill:#000000;fill-opacity:1;fill-rule:nonzero;stroke:none"
       d="m 70.320312,130.625 c -1.132812,0.28906 -1.773437,1.25 -1.773437,2.04297 0,0.8125 0.609375,1.32031 1.351563,1.32031 0.914062,0 1.625,-1.06641 1.625,-2.16406 0,-0.72656 -0.390626,-1.16406 -0.628907,-1.41797 -0.269531,-0.32031 -0.84375,-0.92969 -0.84375,-1.28125 0,-0.10156 0.117188,-0.30469 0.421875,-0.30469 0.253906,0 0.472656,0.11719 0.625,0.20313 0.07031,0.0312 0.339844,0.20312 0.457032,0.20312 0.1875,0 0.324218,-0.17187 0.324218,-0.32422 0,-0.18359 -0.101562,-0.19922 -0.507812,-0.28515 -0.08594,-0.0156 -0.441406,-0.0859 -0.679688,-0.0859 -0.574218,0 -0.878906,0.32422 -0.878906,0.77734 0,0.40625 0.238281,0.86328 0.507812,1.31641 z m 0.121094,0.20312 c 0.21875,0.33985 0.488282,0.77735 0.488282,1.31641 0,0.625 -0.371094,1.64063 -1.015626,1.64063 -0.40625,0 -0.808593,-0.26954 -0.808593,-0.89454 0,-0.50781 0.285156,-1.80859 1.335937,-2.0625 z m 0,0"
       id="path76" />
    <path
       style="fill:#000000;fill-opacity:1;fill-rule:nonzero;stroke:none"
       d="M 1.585938,10.496094 0,10.613281 v 0.347657 c 0.773438,0 0.859375,0.06641 0.859375,0.617187 v 5.710937 c 0,0.480469 -0.117187,0.480469 -0.859375,0.480469 v 0.34375 c 0.363281,-0.01953 0.945312,-0.03516 1.222656,-0.03516 0.277344,0 0.808594,0.01563 1.222656,0.03516 v -0.34375 c -0.742187,0 -0.859374,0 -0.859374,-0.480469 z m 0,0"
       id="path77" />
    <path
       style="fill:#000000;fill-opacity:1;fill-rule:nonzero;stroke:none"
       d="m 7.855469,15.757812 c 0,-1.394531 -1.085938,-2.5625 -2.410157,-2.5625 C 4.066406,13.195312 3,14.398438 3,15.757812 c 0,1.425782 1.136719,2.476563 2.425781,2.476563 1.328125,0 2.429688,-1.085937 2.429688,-2.476563 z m -2.410157,2.199219 c -0.484374,0 -0.964843,-0.222656 -1.257812,-0.738281 -0.277344,-0.480469 -0.277344,-1.152344 -0.277344,-1.546875 0,-0.429687 0,-1.015625 0.261719,-1.496094 0.289063,-0.5 0.808594,-0.742187 1.253906,-0.742187 0.484375,0 0.949219,0.242187 1.242188,0.722656 0.292969,0.464844 0.292969,1.101562 0.292969,1.515625 0,0.394531 0,0.996094 -0.242188,1.476563 -0.257812,0.5 -0.742188,0.808593 -1.273438,0.808593 z m 0,0"
       id="path78" />
    <path
       style="fill:#000000;fill-opacity:1;fill-rule:nonzero;stroke:none"
       d="m 10.625,16.222656 c -0.964844,0 -0.964844,-1.101562 -0.964844,-1.34375 0,-0.292968 0.015625,-0.652344 0.171875,-0.925781 0.085938,-0.121094 0.34375,-0.433594 0.792969,-0.433594 0.945312,0 0.945312,1.085938 0.945312,1.34375 0,0.292969 0,0.652344 -0.171874,0.929688 -0.08594,0.117187 -0.34375,0.429687 -0.773438,0.429687 z m -1.273438,0.429688 c 0,-0.03516 0,-0.292969 0.171876,-0.515625 0.429687,0.308593 0.894531,0.34375 1.101562,0.34375 1.015625,0 1.773438,-0.757813 1.773438,-1.601563 0,-0.410156 -0.171876,-0.808594 -0.449219,-1.066406 0.398437,-0.378906 0.792969,-0.429688 0.984375,-0.429688 0.03516,0 0.08594,0 0.121094,0.01953 -0.121094,0.03125 -0.191407,0.152344 -0.191407,0.289062 0,0.191406 0.15625,0.3125 0.328125,0.3125 0.101563,0 0.308594,-0.07031 0.308594,-0.328125 0,-0.1875 -0.121094,-0.53125 -0.550781,-0.53125 -0.222657,0 -0.707031,0.06641 -1.171875,0.515625 C 11.3125,13.296875 10.867188,13.261719 10.625,13.261719 c -1.035156,0 -1.792969,0.757812 -1.792969,1.601562 0,0.480469 0.242188,0.894531 0.519531,1.132813 -0.140624,0.15625 -0.34375,0.515625 -0.34375,0.914062 0,0.34375 0.152344,0.753906 0.496094,0.980469 -0.671875,0.171875 -1.015625,0.652344 -1.015625,1.082031 0,0.789063 1.085938,1.394532 2.429688,1.394532 1.292969,0 2.429687,-0.550782 2.429687,-1.410157 0,-0.378906 -0.140625,-0.949219 -0.707031,-1.257812 -0.585937,-0.292969 -1.222656,-0.292969 -1.894531,-0.292969 -0.277344,0 -0.742188,0 -0.828125,-0.01563 C 9.574219,17.33984 9.351562,17.011714 9.351562,16.652339 Z M 10.933594,20.125 c -1.117188,0 -1.875,-0.566406 -1.875,-1.152344 0,-0.5 0.414062,-0.910156 0.894531,-0.929687 h 0.65625 c 0.945313,0 2.167969,0 2.167969,0.929687 0,0.601563 -0.773438,1.152344 -1.84375,1.152344 z m 0,0"
       id="path79" />
    <path
       style="fill:#000000;fill-opacity:1;fill-rule:nonzero;stroke:none"
       d="m 17.457031,20.742188 c 0,-0.03125 0,-0.05078 -0.1875,-0.238282 -1.363281,-1.375 -1.722656,-3.457031 -1.722656,-5.144531 0,-1.90625 0.414063,-3.816406 1.773437,-5.175781 0.136719,-0.136719 0.136719,-0.152344 0.136719,-0.1875 0,-0.085938 -0.03516,-0.121094 -0.101562,-0.121094 -0.121094,0 -1.105469,0.757812 -1.757813,2.148438 -0.550781,1.207031 -0.6875,2.425781 -0.6875,3.335937 0,0.863281 0.117188,2.1875 0.722656,3.441406 0.671876,1.339844 1.601563,2.0625 1.722657,2.0625 0.06641,0 0.101562,-0.03516 0.101562,-0.121093 z m 0,0"
       id="path80" />
    <path
       style="fill:#000000;fill-opacity:1;fill-rule:nonzero;stroke:none"
       d="m 20.054688,16.855469 c -0.429688,0.722656 -0.859376,0.878906 -1.34375,0.914062 -0.136719,0.01563 -0.242188,0.01563 -0.242188,0.222657 0,0.07031 0.07031,0.121093 0.15625,0.121093 0.292969,0 0.636719,-0.03516 0.929688,-0.03516 0.378906,0 0.757812,0.03516 1.101562,0.03516 0.07031,0 0.207031,0 0.207031,-0.207031 0,-0.121094 -0.08594,-0.136719 -0.171875,-0.136719 -0.242187,-0.01953 -0.515625,-0.105469 -0.515625,-0.378906 0,-0.136719 0.07031,-0.257813 0.15625,-0.414063 l 0.84375,-1.390624 h 2.753907 c 0.01562,0.222656 0.171874,1.71875 0.171874,1.820312 0,0.328125 -0.566406,0.363281 -0.792968,0.363281 -0.152344,0 -0.257813,0 -0.257813,0.222657 0,0.121093 0.121094,0.121093 0.15625,0.121093 0.449219,0 0.914063,-0.03516 1.359375,-0.03516 0.277344,0 0.980469,0.03516 1.257813,0.03516 0.05078,0 0.191406,0 0.191406,-0.222656 0,-0.121094 -0.105469,-0.121094 -0.261719,-0.121094 -0.671875,0 -0.671875,-0.07031 -0.703125,-0.394531 l -0.671875,-6.847656 c -0.01953,-0.222656 -0.01953,-0.273438 -0.207031,-0.273438 -0.171875,0 -0.226563,0.08594 -0.292969,0.1875 z m 1.328124,-1.613281 2.152344,-3.628907 0.359375,3.628907 z m 0,0"
       id="path81" />
    <path
       style="fill:#000000;fill-opacity:1;fill-rule:nonzero;stroke:none"
       d="m 29.496094,15.359375 c 0,-0.839844 -0.121094,-2.164063 -0.722656,-3.421875 C 28.117188,10.597656 27.171875,9.875 27.066406,9.875 27,9.875 26.949219,9.925781 26.949219,9.996094 c 0,0.035156 0,0.050781 0.203125,0.257812 1.085937,1.082032 1.707031,2.820313 1.707031,5.105469 0,1.894531 -0.394531,3.820313 -1.757813,5.195313 -0.152343,0.136718 -0.152343,0.15625 -0.152343,0.1875 0,0.07031 0.05078,0.121093 0.117187,0.121093 0.105469,0 1.105469,-0.753906 1.742188,-2.148437 0.566406,-1.203125 0.6875,-2.425782 0.6875,-3.355469 z m 0,0"
       id="path82" />
    <path
       style="fill:#000000;fill-opacity:1;fill-rule:nonzero;stroke:none"
       d="m 210.03906,182.13281 -1.58594,0.1211 v 0.34375 c 0.77344,0 0.85938,0.0703 0.85938,0.62109 v 5.70703 c 0,0.48438 -0.12109,0.48438 -0.85938,0.48438 v 0.34375 c 0.35938,-0.0195 0.94532,-0.0352 1.22266,-0.0352 0.27344,0 0.80859,0.0156 1.22266,0.0352 v -0.34375 c -0.74219,0 -0.85938,0 -0.85938,-0.48438 z m 0,0"
       id="path83" />
    <path
       style="fill:#000000;fill-opacity:1;fill-rule:nonzero;stroke:none"
       d="m 216.30859,187.39453 c 0,-1.39062 -1.08593,-2.55859 -2.41015,-2.55859 -1.37891,0 -2.44532,1.20312 -2.44532,2.55859 0,1.42969 1.13672,2.47656 2.42579,2.47656 1.32812,0 2.42968,-1.08203 2.42968,-2.47656 z m -2.41015,2.20313 c -0.48438,0 -0.96485,-0.22266 -1.25782,-0.73829 -0.27734,-0.48437 -0.27734,-1.15234 -0.27734,-1.55078 0,-0.42968 0,-1.01172 0.25781,-1.49609 0.29297,-0.49609 0.8125,-0.73828 1.25782,-0.73828 0.48437,0 0.94921,0.24219 1.24218,0.72265 0.29297,0.46485 0.29297,1.10157 0.29297,1.51172 0,0.39844 0,1 -0.24219,1.48047 -0.25781,0.5 -0.74218,0.8086 -1.27343,0.8086 z m 0,0"
       id="path84" />
    <path
       style="fill:#000000;fill-opacity:1;fill-rule:nonzero;stroke:none"
       d="m 219.07812,187.85937 c -0.96484,0 -0.96484,-1.09765 -0.96484,-1.33984 0,-0.29297 0.0156,-0.65234 0.17188,-0.92969 0.0859,-0.12109 0.34375,-0.42968 0.79296,-0.42968 0.94532,0 0.94532,1.08593 0.94532,1.34375 0,0.28906 0,0.65234 -0.17188,0.92578 -0.0859,0.12109 -0.34375,0.42968 -0.77344,0.42968 z m -1.27343,0.42969 c 0,-0.0312 0,-0.28906 0.17187,-0.51562 0.42969,0.3125 0.89453,0.34375 1.10156,0.34375 1.01563,0 1.77344,-0.75391 1.77344,-1.59766 0,-0.41406 -0.17187,-0.80859 -0.44922,-1.06641 0.39844,-0.3789 0.79297,-0.42968 0.98438,-0.42968 0.0312,0 0.0859,0 0.12109,0.0156 -0.12109,0.0352 -0.1914,0.15625 -0.1914,0.29297 0,0.19141 0.15625,0.30859 0.32812,0.30859 0.10156,0 0.30859,-0.0664 0.30859,-0.32421 0,-0.19141 -0.12109,-0.53516 -0.55078,-0.53516 -0.22265,0 -0.70703,0.0703 -1.17187,0.51562 -0.46485,-0.35937 -0.91016,-0.39453 -1.15235,-0.39453 -1.03515,0 -1.79296,0.75782 -1.79296,1.60157 0,0.48046 0.24218,0.89062 0.51953,1.13281 -0.14063,0.15625 -0.34766,0.51562 -0.34766,0.91015 0,0.34375 0.15625,0.75782 0.5,0.98047 -0.67187,0.17188 -1.01562,0.65625 -1.01562,1.08594 0,0.78906 1.08593,1.39063 2.42968,1.39063 1.28907,0 2.42578,-0.55079 2.42578,-1.41016 0,-0.37891 -0.13671,-0.94531 -0.70312,-1.25391 -0.58594,-0.29297 -1.22266,-0.29297 -1.89453,-0.29297 -0.27735,0 -0.74219,0 -0.82813,-0.0156 -0.34375,-0.0547 -0.5664,-0.37891 -0.5664,-0.74219 z m 1.58203,3.47656 c -1.11719,0 -1.875,-0.57031 -1.875,-1.15234 0,-0.5 0.41015,-0.91406 0.89453,-0.92969 h 0.65234 c 0.94922,0 2.17188,0 2.17188,0.92969 0,0.60156 -0.77344,1.15234 -1.84375,1.15234 z m 0,0"
       id="path85" />
    <path
       style="fill:#000000;fill-opacity:1;fill-rule:nonzero;stroke:none"
       d="m 225.91016,192.38281 c 0,-0.0352 0,-0.0508 -0.19141,-0.24219 C 224.35937,190.76562 224,188.6875 224,187 c 0,-1.90625 0.41016,-3.81641 1.77344,-5.17578 0.13672,-0.13672 0.13672,-0.15625 0.13672,-0.1875 0,-0.0859 -0.0352,-0.1211 -0.10157,-0.1211 -0.12109,0 -1.10547,0.75782 -1.75781,2.14844 -0.55078,1.20313 -0.69141,2.42578 -0.69141,3.33594 0,0.85937 0.1211,2.18359 0.72657,3.44141 0.67187,1.33984 1.60156,2.0625 1.72265,2.0625 0.0664,0 0.10157,-0.0352 0.10157,-0.1211 z m 0,0"
       id="path86" />
    <path
       style="fill:#000000;fill-opacity:1;fill-rule:nonzero;stroke:none"
       d="m 228.80078,185.36719 h 1.03125 c 0.22656,0 0.34766,0 0.34766,-0.22266 0,-0.12109 -0.1211,-0.12109 -0.3125,-0.12109 h -0.96485 c 0.39844,-1.56641 0.44922,-1.76953 0.44922,-1.83985 0,-0.1914 -0.13672,-0.29297 -0.32812,-0.29297 -0.0352,0 -0.34375,0 -0.42969,0.39454 l -0.42969,1.73828 h -1.03515 c -0.22266,0 -0.32813,0 -0.32813,0.20703 0,0.13672 0.0898,0.13672 0.3125,0.13672 h 0.96484 c -0.79296,3.11328 -0.84375,3.30078 -0.84375,3.49218 0,0.60157 0.41407,1.01172 1.01563,1.01172 1.11719,0 1.73828,-1.59765 1.73828,-1.68359 0,-0.12109 -0.0859,-0.12109 -0.12109,-0.12109 -0.10157,0 -0.1211,0.0352 -0.17188,0.15625 -0.46484,1.15234 -1.05078,1.41015 -1.42969,1.41015 -0.22265,0 -0.34375,-0.13672 -0.34375,-0.5 0,-0.27344 0.0352,-0.34375 0.0703,-0.53125 z m 0,0"
       id="path87" />
    <path
       style="fill:#000000;fill-opacity:1;fill-rule:nonzero;stroke:none"
       d="m 233.67969,187 c 0,-0.84375 -0.1211,-2.16406 -0.72266,-3.42188 -0.65625,-1.33984 -1.60156,-2.0625 -1.70703,-2.0625 -0.0664,0 -0.12109,0.0508 -0.12109,0.1211 0,0.0312 0,0.0508 0.20703,0.25781 1.08593,1.08203 1.70703,2.82031 1.70703,5.10547 0,1.89062 -0.39844,3.82031 -1.75781,5.19531 -0.15625,0.13672 -0.15625,0.15235 -0.15625,0.1875 0,0.0703 0.0547,0.1211 0.12109,0.1211 0.10547,0 1.10156,-0.75782 1.73828,-2.14844 0.57031,-1.20703 0.69141,-2.42578 0.69141,-3.35547 z m 0,0"
       id="path88" />
    <path
       style="fill:#000000;fill-opacity:1;fill-rule:nonzero;stroke:none"
       d="m 275.10156,7.0625 c -0.46094,0.773438 -0.92187,0.9375 -1.4375,0.976562 -0.14844,0.015626 -0.25781,0.015626 -0.25781,0.238282 0,0.074218 0.0742,0.128906 0.16406,0.128906 0.3125,0 0.6836,-0.039062 0.9961,-0.039062 0.40625,0 0.80859,0.039062 1.17968,0.039062 0.0742,0 0.21875,0 0.21875,-0.222656 0,-0.128906 -0.0898,-0.144532 -0.18359,-0.144532 -0.25781,-0.019531 -0.55078,-0.113281 -0.55078,-0.40625 0,-0.148437 0.0742,-0.277343 0.16406,-0.441406 l 0.90234,-1.488281 h 2.94922 c 0.0156,0.238281 0.1836,1.835937 0.1836,1.949219 0,0.347656 -0.60938,0.386718 -0.84766,0.386718 -0.16797,0 -0.27734,0 -0.27734,0.238282 0,0.128906 0.1289,0.128906 0.16797,0.128906 0.47656,0 0.97656,-0.039062 1.45312,-0.039062 0.29688,0 1.05078,0.039062 1.34375,0.039062 0.0547,0 0.20313,0 0.20313,-0.238281 0,-0.128907 -0.10938,-0.128907 -0.27735,-0.128907 -0.71484,0 -0.71484,-0.074218 -0.7539,-0.425781 L 279.72266,0.292969 C 279.70703,0.0546875 279.70703,0 279.50391,0 c -0.1836,0 -0.24219,0.09375 -0.3125,0.203125 z m 1.41797,-1.730469 2.30078,-3.878906 0.38672,3.878906 z m 0,0"
       id="path89" />
    <path
       style="fill:#000000;fill-opacity:1;fill-rule:nonzero;stroke:none"
       d="m 406.32812,95.734375 h 1.10547 c 0.24219,0 0.3711,0 0.3711,-0.242187 0,-0.128907 -0.12891,-0.128907 -0.33203,-0.128907 h -1.03125 c 0.42187,-1.671875 0.47656,-1.890625 0.47656,-1.964843 0,-0.203126 -0.14453,-0.3125 -0.34766,-0.3125 -0.0391,0 -0.37109,0 -0.46094,0.421874 l -0.46093,1.855469 h -1.10547 c -0.23828,0 -0.35156,0 -0.35156,0.222657 0,0.148437 0.0937,0.148437 0.33203,0.148437 h 1.03125 c -0.84766,3.328125 -0.90235,3.53125 -0.90235,3.730469 0,0.644536 0.44141,1.085936 1.08985,1.085936 1.19531,0 1.85937,-1.710936 1.85937,-1.80078 0,-0.128906 -0.0937,-0.128906 -0.1289,-0.128906 -0.11329,0 -0.12891,0.03516 -0.1836,0.164062 -0.5,1.234374 -1.125,1.507814 -1.53125,1.507814 -0.23828,0 -0.36719,-0.14453 -0.36719,-0.531251 0,-0.296875 0.0352,-0.367188 0.0742,-0.570313 z m 0,0"
       id="path90" />
    <path
       style="fill:none;stroke:#000000;stroke-width:0.751252;stroke-linecap:round;stroke-linejoin:miter;stroke-miterlimit:4;stroke-opacity:1"
       d="m 76.863281,132.17377 23.007813,-6.10286 c 6.546876,-1.73697 13.054686,-3.90426 18.781246,-7.51512"
       transform="scale(1,0.998508)"
       id="path91" />
    <path
       style="fill:#000000;fill-opacity:1;fill-rule:evenodd;stroke:none"
       d="m 116.64063,117.16406 6.01562,-1.30468 -3.76953,4.85937 c 0.23437,-1.59766 -0.69922,-3.07422 -2.24609,-3.55469 z m 0,0"
       id="path92" />
  </g>
</svg>
