<?xml version="1.0" encoding="UTF-8" standalone="no"?>
<!-- Created with Inkscape (http://www.inkscape.org/) -->

<svg
   width="210mm"
   height="297mm"
   viewBox="0 0 210 297"
   version="1.1"
   id="svg1"
   inkscape:version="1.4.1 (1:1.4.1+202503302257+93de688d07)"
   sodipodi:docname="FigAnnonce.svg"
   xmlns:inkscape="http://www.inkscape.org/namespaces/inkscape"
   xmlns:sodipodi="http://sodipodi.sourceforge.net/DTD/sodipodi-0.dtd"
   xmlns="http://www.w3.org/2000/svg"
   xmlns:svg="http://www.w3.org/2000/svg">
  <sodipodi:namedview
     id="namedview1"
     pagecolor="#ffffff"
     bordercolor="#000000"
     borderopacity="0.25"
     inkscape:showpageshadow="2"
     inkscape:pageopacity="0.0"
     inkscape:pagecheckerboard="0"
     inkscape:deskcolor="#d1d1d1"
     inkscape:document-units="mm"
     inkscape:zoom="0.62676626"
     inkscape:cx="504.17519"
     inkscape:cy="224.1665"
     inkscape:window-width="1850"
     inkscape:window-height="1016"
     inkscape:window-x="1150"
     inkscape:window-y="27"
     inkscape:window-maximized="1"
     inkscape:current-layer="g1" />
  <defs
     id="defs1" />
  <g
     inkscape:label="Layer 1"
     inkscape:groupmode="layer"
     id="layer1">
    <g
       id="g1"
       transform="matrix(1.255759,0,0,1.255759,-274.7729,-66.842301)">
      <path
         style="fill:none;stroke:#a3304a;stroke-width:0.606914;stroke-linecap:round;stroke-linejoin:round;stroke-miterlimit:4;stroke-opacity:1"
         d="m 263.25659,88.577218 8.39453,-3.87891 4.72657,1.80469 3.36718,7.33594 -2.5625,9.976562 -5.96875,3.16797 -7.01171,-3.00781 -3.50391,-8.773442 z m 0,0"
         id="path170-8" />
      <path
         style="fill:none;stroke:#a3304a;stroke-width:0.606914;stroke-linecap:round;stroke-linejoin:round;stroke-miterlimit:4;stroke-opacity:1"
         d="m 253.79566,121.22956 -0.84766,-8.79687 11.25391,-8.45703 7.01171,3.00781 -0.21875,9.44922 -12.59765,7.22656 z m 0,0"
         id="path171-0" />
      <path
         style="fill:none;stroke:#a3304a;stroke-width:0.606914;stroke-linecap:round;stroke-linejoin:round;stroke-miterlimit:4;stroke-opacity:1"
         d="m 244.61597,126.17097 9.17969,-4.94141 4.60156,2.42969 2.1289,10.02734 -2.9375,5.07032 -11.8164,0.79297 -2.55469,-3.97657 z m 0,0"
         id="path172-3" />
      <path
         style="fill:none;stroke:#a3304a;stroke-width:0.606914;stroke-linecap:round;stroke-linejoin:round;stroke-miterlimit:4;stroke-opacity:1"
         d="m 233.52222,120.92488 11.09375,5.24609 -1.39844,9.40234 -10.41406,0.92188"
         id="path173-7" />
      <path
         style="fill:none;stroke:#a3304a;stroke-width:0.606914;stroke-linecap:round;stroke-linejoin:round;stroke-miterlimit:4;stroke-opacity:1"
         d="m 233.14331,154.98738 11.64453,-5.875 0.98438,-9.5625 -2.55469,-3.97657 -10.41406,0.92188"
         id="path174-0" />
      <path
         style="fill:none;stroke:#a3304a;stroke-width:0.606914;stroke-linecap:round;stroke-linejoin:round;stroke-miterlimit:4;stroke-opacity:1"
         d="m 255.90503,156.63191 -11.11719,-7.51953 0.98438,-9.5625 11.8164,-0.79297 5.83985,11.90234 z m 0,0"
         id="path175-0" />
      <path
         style="fill:none;stroke:#a3304a;stroke-width:0.606914;stroke-linecap:round;stroke-linejoin:round;stroke-miterlimit:4;stroke-opacity:1"
         d="m 293.28394,93.143628 -13.53907,0.69531 -3.36718,-7.33594 10.83593,-9.566405 9.24219,5.964845 z m 0,0"
         id="path179-3" />
      <path
         style="fill:#eea6c5;fill-opacity:1;fill-rule:nonzero;stroke:#a3304a;stroke-width:0.606914;stroke-linecap:round;stroke-linejoin:round;stroke-miterlimit:4;stroke-opacity:1"
         d="m 293.28394,93.143628 3.34375,5.99218 8.46093,1.742192 6.97266,-6.867192 -1.19922,-7.33593 -8.66797,-6.15235 -5.73828,2.37891 z m 0,0"
         id="path182-4" />
      <path
         style="fill:none;stroke:#a3304a;stroke-width:0.606914;stroke-linecap:round;stroke-linejoin:round;stroke-miterlimit:4;stroke-opacity:1"
         d="m 277.18237,103.8155 10.99219,5.01172 8.45313,-9.691412 -3.34375,-5.99218 -13.53907,0.69531 z m 0,0"
         id="path183-9" />
      <path
         style="fill:#eea6c5;fill-opacity:1;fill-rule:nonzero;stroke:#a3304a;stroke-width:0.606914;stroke-linecap:round;stroke-linejoin:round;stroke-miterlimit:4;stroke-opacity:1"
         d="m 270.99487,116.43269 6.01563,6.10547 7.00391,-0.97266 5.375,-7.75 -1.21485,-4.98828 -10.99219,-5.01172 -5.96875,3.16797 z m 0,0"
         id="path184-2" />
      <path
         style="fill:none;stroke:#a3304a;stroke-width:0.606914;stroke-linecap:round;stroke-linejoin:round;stroke-miterlimit:4;stroke-opacity:1"
         d="m 289.38941,113.8155 11.64062,4.98438 6.90625,-5.625 -2.84766,-12.29688 -8.46093,-1.742192 -8.45313,9.691412 z m 0,0"
         id="path185-7" />
      <path
         style="fill:#eea6c5;fill-opacity:1;fill-rule:nonzero;stroke:#a3304a;stroke-width:0.606914;stroke-linecap:round;stroke-linejoin:round;stroke-miterlimit:4;stroke-opacity:1"
         d="m 310.86206,86.674878 1.19922,7.33593 8.32422,3.73829 6.08984,-5.76954 -1.28125,-8.90625 -6.05468,-2.55078 z m 0,0"
         id="path186-4" />
      <path
         style="fill:none;stroke:#a3304a;stroke-width:0.606914;stroke-linecap:round;stroke-linejoin:round;stroke-miterlimit:4;stroke-opacity:1"
         d="m 336.40503,74.80378 -11.21094,8.269528 1.28125,8.90625 12.54297,0.99219"
         id="path187-2" />
      <path
         style="fill:none;stroke:#a3304a;stroke-width:0.606914;stroke-linecap:round;stroke-linejoin:round;stroke-miterlimit:4;stroke-opacity:1"
         d="m 339.03003,107.15534 -7.00391,4.38282 -8.69531,-3.41407 -2.94531,-10.374992 6.08984,-5.76954 12.54297,0.99219"
         id="path188-5" />
      <path
         style="fill:none;stroke:#a3304a;stroke-width:0.606914;stroke-linecap:round;stroke-linejoin:round;stroke-miterlimit:4;stroke-opacity:1"
         d="m 314.87378,115.44441 -6.9375,-2.26953 -2.84766,-12.29688 6.97266,-6.867192 8.32422,3.73829 2.94531,10.374992 z m 0,0"
         id="path189-2" />
      <path
         style="fill:none;stroke:#a3304a;stroke-width:0.606914;stroke-linecap:round;stroke-linejoin:round;stroke-miterlimit:4;stroke-opacity:1"
         d="m 301.03003,118.79988 -0.89062,10.3164 3.96093,3.82813 8.13282,-0.31641 5.3125,-6.28516 -2.67188,-10.89843 -6.9375,-2.26953 z m 0,0"
         id="path190-4" />
      <path
         style="fill:none;stroke:#a3304a;stroke-width:0.606914;stroke-linecap:round;stroke-linejoin:round;stroke-miterlimit:4;stroke-opacity:1"
         d="m 338.64722,124.99128 -6.6211,-3.93359 v -9.51953 l 7.00391,-4.38282"
         id="path191-4" />
      <path
         style="fill:#eea6c5;fill-opacity:1;fill-rule:nonzero;stroke:#a3304a;stroke-width:0.606914;stroke-linecap:round;stroke-linejoin:round;stroke-miterlimit:4;stroke-opacity:1"
         d="m 332.02612,121.05769 -7.0039,6.83984 -7.47656,-1.55469 -2.67188,-10.89843 8.45703,-7.32032 8.69531,3.41407 z m 0,0"
         id="path192-3" />
      <path
         style="fill:none;stroke:#a3304a;stroke-width:0.606914;stroke-linecap:round;stroke-linejoin:round;stroke-miterlimit:4;stroke-opacity:1"
         d="m 338.64722,124.99128 -6.6211,-3.93359 -7.0039,6.83984 4.64844,8.76953 9.45312,-1.26562"
         id="path193-8" />
      <path
         style="fill:none;stroke:#a3304a;stroke-width:0.606914;stroke-linecap:round;stroke-linejoin:round;stroke-miterlimit:4;stroke-opacity:1"
         d="m 258.39722,123.65925 2.1289,10.02734 12.15235,0.6875 4.33203,-11.83593 -6.01563,-6.10547 z m 0,0"
         id="path194-6" />
      <path
         style="fill:none;stroke:#a3304a;stroke-width:0.606914;stroke-linecap:round;stroke-linejoin:round;stroke-miterlimit:4;stroke-opacity:1"
         d="m 271.3855,150.66706 -7.95703,-0.008 -5.83985,-11.90234 2.9375,-5.07032 12.15235,0.6875 3.52734,6.3125 z m 0,0"
         id="path195-0" />
      <path
         style="fill:#eea6c5;fill-opacity:1;fill-rule:nonzero;stroke:#a3304a;stroke-width:0.606914;stroke-linecap:round;stroke-linejoin:round;stroke-miterlimit:4;stroke-opacity:1"
         d="m 277.0105,122.53816 7.00391,-0.97266 5.54687,8.82422 -3.36328,8.76172 -9.99219,1.53515 -3.52734,-6.3125 z m 0,0"
         id="path196-8" />
      <path
         style="fill:none;stroke:#a3304a;stroke-width:0.606914;stroke-linecap:round;stroke-linejoin:round;stroke-miterlimit:4;stroke-opacity:1"
         d="m 271.3855,150.66706 3.66406,5.16016 12.95313,-2.47266 3.24218,-7.64843 -5.04687,-6.55469 -9.99219,1.53515 z m 0,0"
         id="path197-9" />
      <path
         style="fill:#eea6c5;fill-opacity:1;fill-rule:nonzero;stroke:#a3304a;stroke-width:0.606914;stroke-linecap:round;stroke-linejoin:round;stroke-miterlimit:4;stroke-opacity:1"
         d="m 300.13941,129.11628 -10.57813,1.27344 -5.54687,-8.82422 5.375,-7.75 11.64062,4.98438 z m 0,0"
         id="path198-2" />
      <path
         style="fill:none;stroke:#a3304a;stroke-width:0.606914;stroke-linecap:round;stroke-linejoin:round;stroke-miterlimit:4;stroke-opacity:1"
         d="m 291.24487,145.70613 -5.04687,-6.55469 3.36328,-8.76172 10.57813,-1.27344 3.96093,3.82813 -4.1289,11.6289 z m 0,0"
         id="path199-2" />
      <path
         style="fill:#eea6c5;fill-opacity:1;fill-rule:nonzero;stroke:#a3304a;stroke-width:0.606914;stroke-linecap:round;stroke-linejoin:round;stroke-miterlimit:4;stroke-opacity:1"
         d="m 329.67066,136.66706 -7.78516,9.21094 -5.12891,-1.26172 -4.52343,-11.98828 5.3125,-6.28516 7.47656,1.55469 z m 0,0"
         id="path200-3" />
      <path
         style="fill:none;stroke:#a3304a;stroke-width:0.606914;stroke-linecap:round;stroke-linejoin:round;stroke-miterlimit:4;stroke-opacity:1"
         d="m 339.42456,149.35847 -4.32422,2.64453 -11.64843,-3.0625 -1.56641,-3.0625 7.78516,-9.21094 9.45312,-1.26562"
         id="path201-1" />
      <path
         style="fill:none;stroke:#a3304a;stroke-width:0.606914;stroke-linecap:round;stroke-linejoin:round;stroke-miterlimit:4;stroke-opacity:1"
         d="m 305.86597,150.83894 10.89062,-6.22266"
         id="path203-8" />
      <path
         style="fill:none;stroke:#a3304a;stroke-width:0.606914;stroke-linecap:round;stroke-linejoin:round;stroke-miterlimit:4;stroke-opacity:1"
         d="m 335.10034,152.003 -1.14843,11.16406"
         id="path206-3" />
      <path
         style="fill:#ffd1e6;fill-opacity:1;fill-rule:nonzero;stroke:none"
         d="m 262.96362,95.155348 2.92188,7.332032 5.24219,2.09765 4.41797,-2.23828 -10.39454,-12.410152 z m 0,0"
         id="path209-4" />
      <path
         style="fill:#ffd1e6;fill-opacity:1;fill-rule:nonzero;stroke:none"
         d="m 255.59644,119.98738 -0.64453,-6.5625 9.41015,-6.90625 4.56641,1.70312 z m 0,0"
         id="path210-2" />
      <path
         style="fill:#ffd1e6;fill-opacity:1;fill-rule:nonzero;stroke:none"
         d="m 273.19019,108.38191 4.15234,-2.05078 5.39063,12.8789 -4.88672,0.75781 -4.60938,-4.68359 z m 0,0"
         id="path211-2" />
      <path
         style="fill:#ffd1e6;fill-opacity:1;fill-rule:nonzero;stroke:none"
         d="m 281.48706,95.534248 -2.0625,7.167972 8.04297,3.91797 z m 0,0"
         id="path212-4" />
      <path
         style="fill:#ffd1e6;fill-opacity:1;fill-rule:nonzero;stroke:none"
         d="m 290.21362,109.41316 6.98047,-8.44922 6.52344,1.32812 z m 0,0"
         id="path213-5" />
      <path
         style="fill:#ffd1e6;fill-opacity:1;fill-rule:nonzero;stroke:none"
         d="m 286.04956,121.92097 4.07031,-5.84766 9.00391,3.57032 -8.55078,9.02343 z m 0,0"
         id="path214-1" />
      <path
         style="fill:#ffd1e6;fill-opacity:1;fill-rule:nonzero;stroke:none"
         d="m 306.88159,101.09675 2.3086,10.35938 9.96875,-12.648442 -6.33203,-3.05859 z m 0,0"
         id="path215-7" />
      <path
         style="fill:#ffd1e6;fill-opacity:1;fill-rule:nonzero;stroke:none"
         d="m 302.29175,119.53425 5.98828,-4.71484 5.03516,1.66015 z m 0,0"
         id="path216-5" />
      <path
         style="fill:#ffd1e6;fill-opacity:1;fill-rule:nonzero;stroke:none"
         d="m 288.06519,138.65925 2.71875,-6.54297 8.97265,-1.21094 -7.3164,13.07422 z m 0,0"
         id="path217-7" />
      <path
         style="fill:#ffd1e6;fill-opacity:1;fill-rule:nonzero;stroke:none"
         d="m 274.30347,134.20222 3.91406,-9.92578 4.42188,-0.91406 -5.55469,15.66796 z m 0,0"
         id="path218-1" />
      <path
         style="fill:#ffd1e6;fill-opacity:1;fill-rule:nonzero;stroke:none"
         d="m 259.34644,138.63191 1.95312,-3.12891 10.02735,0.74609 z m 0,0"
         id="path219-6" />
      <path
         style="fill:#ffd1e6;fill-opacity:1;fill-rule:nonzero;stroke:none"
         d="m 259.92847,124.54206 1.38281,7.76563 9.45703,-13.99219 z m 0,0"
         id="path220-9" />
      <path
         style="fill:#ffd1e6;fill-opacity:1;fill-rule:nonzero;stroke:none"
         d="m 244.62769,135.15925 1.16797,-7.89062 7.8164,-4.61329 -6.85156,15.28516 z m 0,0"
         id="path221-8" />
      <path
         style="fill:#ffd1e6;fill-opacity:1;fill-rule:nonzero;stroke:none"
         d="m 245.81909,148.37019 0.98047,-7.62891 4.67188,-0.33594 z m 0,0"
         id="path222-1" />
      <path
         style="fill:#ffd1e6;fill-opacity:1;fill-rule:nonzero;stroke:none"
         d="m 235.39722,155.31941 9.08984,-4.38672 9.16016,6.32031 z m 0,0"
         id="path223-3" />
      <path
         style="fill:#ffd1e6;fill-opacity:1;fill-rule:nonzero;stroke:none"
         d="m 258.03394,157.22566 6.0039,-4.73047 6.39844,-0.12891 2.53906,3.2461 z m 0,0"
         id="path224-3" />
      <path
         style="fill:#ffd1e6;fill-opacity:1;fill-rule:nonzero;stroke:none"
         d="m 277.43628,142.42878 -4.27344,8.05469 2.47266,3.27344 9.83984,-12.20313 z m 0,0"
         id="path225-3" />
      <path
         style="fill:#ffd1e6;fill-opacity:1;fill-rule:nonzero;stroke:none"
         d="m 271.88159,76.940499 1.06641,6.464849 2.96484,1.3164 z m 0,0"
         id="path226-7" />
      <path
         style="fill:#ffd1e6;fill-opacity:1;fill-rule:nonzero;stroke:none"
         d="m 279.04956,86.940498 1.70703,5.13672 13.32032,-8.09766 -6.23047,-4.55859 z m 0,0"
         id="path227-9" />
      <path
         style="fill:#ffd1e6;fill-opacity:1;fill-rule:nonzero;stroke:none"
         d="m 297.70191,83.862378 -2.81641,8.5 9.79297,-8.1211 -2.60547,-2.01562 z m 0,0"
         id="path228-8" />
      <path
         style="fill:#ffd1e6;fill-opacity:1;fill-rule:nonzero;stroke:none"
         d="m 291.91284,77.897528 4.77344,3.47657 4.35156,-1.69532 z m 0,0"
         id="path229-6" />
      <path
         style="fill:#ffd1e6;fill-opacity:1;fill-rule:nonzero;stroke:none"
         d="m 305.13941,76.99128 -0.99219,2.839848 6.64453,4.99218 z m 0,0"
         id="path230-7" />
      <path
         style="fill:#ffd1e6;fill-opacity:1;fill-rule:nonzero;stroke:none"
         d="m 312.72925,87.354558 0.63672,5.375 6.50781,3.22657 -0.32812,-13.62891 z m 0,0"
         id="path231-0" />
      <path
         style="fill:#ffd1e6;fill-opacity:1;fill-rule:nonzero;stroke:none"
         d="m 276.72144,157.12409 10.46875,-2.01562 -10.51563,5.23437 z m 0,0"
         id="path232-4" />
      <path
         style="fill:#ffd1e6;fill-opacity:1;fill-rule:nonzero;stroke:none"
         d="m 305.35816,134.503 5.57812,-0.13672 -4.77734,14.39844 -4.02735,-4.67969 z m 0,0"
         id="path233-8" />
      <path
         style="fill:#ffd1e6;fill-opacity:1;fill-rule:nonzero;stroke:none"
         d="m 292.52222,147.35456 6.73047,-0.66406 -4.84766,12.92969 -3.875,-6.17969 z m 0,0"
         id="path234-4" />
      <path
         style="fill:#ffd1e6;fill-opacity:1;fill-rule:nonzero;stroke:none"
         d="m 314.12769,132.75691 4.05468,-4.75391 5.92188,1.13672 z m 0,0"
         id="path235-8" />
      <path
         style="fill:#ffd1e6;fill-opacity:1;fill-rule:nonzero;stroke:none"
         d="m 317.26441,146.35066 3.40234,0.71093 1.08203,1.92969 -2.32422,10.52344 z m 0,0"
         id="path236-1" />
      <path
         style="fill:#ffd1e6;fill-opacity:1;fill-rule:nonzero;stroke:none"
         d="m 323.87378,146.15534 6.52344,-7.51953 7.78515,-0.94531 z m 0,0"
         id="path237-6" />
      <path
         style="fill:#ffd1e6;fill-opacity:1;fill-rule:nonzero;stroke:none"
         d="m 324.45972,150.92878 -1.79688,9.15625 10.1875,-6.88281 z m 0,0"
         id="path238-8" />
      <path
         style="fill:#ffd1e6;fill-opacity:1;fill-rule:nonzero;stroke:none"
         d="m 317.41284,116.23347 6.48828,-5.52734 5.82422,2.36718 -10.46875,11.59766 z m 0,0"
         id="path239-5" />
      <path
         style="fill:#ffd1e6;fill-opacity:1;fill-rule:nonzero;stroke:none"
         d="m 320.09644,77.104562 0.61328,2.519536 4.20312,1.84765 z m 0,0"
         id="path240-2" />
      <path
         style="fill:#ffd1e6;fill-opacity:1;fill-rule:nonzero;stroke:none"
         d="m 327.14331,83.706128 0.76172,6.86328 10.11328,0.83203 z m 0,0"
         id="path241-1" />
      <path
         style="fill:#ffd1e6;fill-opacity:1;fill-rule:nonzero;stroke:none"
         d="m 322.79956,98.393628 4.64063,-4.1836 10.70703,1.15235 -13.44141,11.605462 z m 0,0"
         id="path242-9" />
      <path
         style="fill:#ffd1e6;fill-opacity:1;fill-rule:nonzero;stroke:none"
         d="m 333.87378,112.55769 4.56641,-2.92969 -4.71094,10.82813 z m 0,0"
         id="path243-9" />
      <path
         style="fill:#ffd1e6;fill-opacity:1;fill-rule:nonzero;stroke:none"
         d="m 327.073,128.39753 5.15625,-5.10937 -1.80078,11.65234 z m 0,0"
         id="path244-6" />
      <path
         style="fill:#ffd1e6;fill-opacity:1;fill-rule:nonzero;stroke:none"
         d="m 336.69019,153.35066 -0.76563,6.23828 3.25781,-8.28906 z m 0,0"
         id="path245-0" />
      <path
         style="fill:none;stroke:#a3304a;stroke-width:0.60755;stroke-linecap:round;stroke-linejoin:round;stroke-miterlimit:4;stroke-opacity:1"
         d="m 263.25659,88.577218 -7.04687,-4.18359"
         id="path248-6" />
      <path
         style="fill:none;stroke:#a3304a;stroke-width:0.60755;stroke-linecap:round;stroke-linejoin:round;stroke-miterlimit:4;stroke-opacity:1"
         d="m 252.948,112.43269 -7.23828,-6.60156"
         id="path249-4" />
      <path
         style="fill:none;stroke:#a3304a;stroke-width:0.60755;stroke-linecap:round;stroke-linejoin:round;stroke-miterlimit:4;stroke-opacity:1"
         d="m 260.698,95.202218 -10.5,3.63281"
         id="path250-9" />
      <path
         style="fill:none;stroke:#a3304a;stroke-width:0.60755;stroke-linecap:round;stroke-linejoin:round;stroke-miterlimit:4;stroke-opacity:1"
         d="m 339.01831,92.971748 5.10547,-10.64453 -7.71875,-7.523438"
         id="path251-9" />
      <path
         style="fill:none;stroke:#a3304a;stroke-width:0.60755;stroke-linecap:round;stroke-linejoin:round;stroke-miterlimit:4;stroke-opacity:1"
         d="m 344.12378,82.327218 10.19922,-0.85547 3.6875,-9.167968"
         id="path252-0" />
      <path
         style="fill:none;stroke:#a3304a;stroke-width:0.60755;stroke-linecap:round;stroke-linejoin:round;stroke-miterlimit:4;stroke-opacity:1"
         d="m 339.01831,92.971748 2.77735,8.316412 -2.76563,5.86718"
         id="path253-8" />
      <path
         style="fill:none;stroke:#a3304a;stroke-width:0.60755;stroke-linecap:round;stroke-linejoin:round;stroke-miterlimit:4;stroke-opacity:1"
         d="m 341.79566,101.28816 12.66406,3.4375 7.47656,-12.058602 -7.61328,-11.19531"
         id="path254-9" />
      <path
         style="fill:none;stroke:#a3304a;stroke-width:0.60755;stroke-linecap:round;stroke-linejoin:round;stroke-miterlimit:4;stroke-opacity:1"
         d="m 339.03003,107.15534 5.39844,7.88672 11.25781,-2.16797 3.96484,-5.05078 -5.1914,-3.09765"
         id="path255-3" />
      <path
         style="fill:none;stroke:#a3304a;stroke-width:0.60755;stroke-linecap:round;stroke-linejoin:round;stroke-miterlimit:4;stroke-opacity:1"
         d="m 339.12378,135.40144 2.97656,8.30078 -2.67578,5.65625"
         id="path256-1" />
      <path
         style="fill:none;stroke:#a3304a;stroke-width:0.60755;stroke-linecap:round;stroke-linejoin:round;stroke-miterlimit:4;stroke-opacity:1"
         d="m 338.64722,124.99128 1.96484,5.39063 -1.48828,5.01953"
         id="path257-4" />
      <path
         style="fill:none;stroke:#a3304a;stroke-width:0.60755;stroke-linecap:round;stroke-linejoin:round;stroke-miterlimit:4;stroke-opacity:1"
         d="m 338.64722,124.99128 5.78125,-1.70312 v -8.2461"
         id="path258-8" />
      <path
         style="fill:none;stroke:#a3304a;stroke-width:0.60755;stroke-linecap:round;stroke-linejoin:round;stroke-miterlimit:4;stroke-opacity:1"
         d="m 361.93628,92.667058 6.70703,0.4336"
         id="path259-9" />
      <path
         style="fill:none;stroke:#a3304a;stroke-width:0.60755;stroke-linecap:round;stroke-linejoin:round;stroke-miterlimit:4;stroke-opacity:1"
         d="m 340.61206,130.38191 6.52344,2.375"
         id="path260-6" />
      <path
         style="fill:none;stroke:#a3304a;stroke-width:0.60755;stroke-linecap:round;stroke-linejoin:round;stroke-miterlimit:4;stroke-opacity:1"
         d="m 339.42456,149.35847 2.98047,5.75"
         id="path261-7" />
      <path
         style="fill:none;stroke:#a3304a;stroke-width:0.60755;stroke-linecap:round;stroke-linejoin:round;stroke-miterlimit:4;stroke-opacity:1"
         d="m 342.10034,143.70222 9.22657,-3.86719"
         id="path262-7" />
      <path
         style="fill:#ffd1e6;fill-opacity:1;fill-rule:nonzero;stroke:none"
         d="m 345.17847,84.366278 8.19922,-0.64843 6.05468,8.41406 z m 0,0"
         id="path263-3" />
      <path
         style="fill:#ffd1e6;fill-opacity:1;fill-rule:nonzero;stroke:none"
         d="m 345.55737,112.32331 8.33204,-6.25 3.43359,2.05469 -2.375,2.93359 z m 0,0"
         id="path264-7" />
      <path
         style="fill:#ffd1e6;fill-opacity:1;fill-rule:nonzero;stroke:none"
         d="m 341.53003,77.151437 2.9375,3.718751 5.14844,-0.5 z m 0,0"
         id="path265-1" />
      <path
         style="fill:none;stroke:#a3304a;stroke-width:0.60755;stroke-linecap:round;stroke-linejoin:round;stroke-miterlimit:4;stroke-opacity:1"
         d="m 359.65112,107.82331 7.61329,-1.75"
         id="path266-2" />
      <path
         style="fill:none;stroke:#a3304a;stroke-width:0.60755;stroke-linecap:round;stroke-linejoin:round;stroke-miterlimit:4;stroke-opacity:1"
         d="m 355.68628,112.87409 1.63672,4.8125"
         id="path267-2" />
      <path
         style="fill:none;stroke:#a3304a;stroke-width:0.60755;stroke-linecap:round;stroke-linejoin:round;stroke-miterlimit:4;stroke-opacity:1"
         d="m 344.42847,123.28816 6.64062,1.39843"
         id="path268-1" />
      <path
         style="fill:none;stroke:#a3304a;stroke-width:1.25862;stroke-linecap:round;stroke-linejoin:round;stroke-miterlimit:4;stroke-opacity:1"
         d="m 328.04566,86.124098 c 2.625,-0.47657 5.375,-0.26172 7.89843,0.61328 2.52344,0.875 4.8125,2.41406 6.57813,4.41797 2.05078,2.32421 3.38281,5.26953 3.77344,8.34375 0.39062,3.074212 -0.16016,6.261712 -1.5625,9.027342"
         id="path269-5" />
      <path
         style="fill:#a3304a;fill-opacity:1;fill-rule:evenodd;stroke:#a3304a;stroke-width:0.839077;stroke-linecap:butt;stroke-linejoin:miter;stroke-miterlimit:4;stroke-opacity:1"
         d="m 343.4213,110.65579 -0.33984,-6.28125 5.60937,2.84765 z m 0,0"
         id="path270-0" />
      <path
         style="fill:none;stroke:#a3304a;stroke-width:1.25862;stroke-linecap:round;stroke-linejoin:round;stroke-miterlimit:4;stroke-opacity:1"
         d="m 272.73316,122.98738 c -0.3711,1.89843 -1.5625,3.625 -3.20704,4.64453 -1.64453,1.02343 -3.71875,1.32422 -5.58593,0.8125 -1.7461,-0.47657 -3.28907,-1.65235 -4.21094,-3.20703"
         id="path271-9" />
      <path
         style="fill:#a3304a;fill-opacity:1;fill-rule:evenodd;stroke:#a3304a;stroke-width:0.839077;stroke-linecap:butt;stroke-linejoin:miter;stroke-miterlimit:4;stroke-opacity:1"
         d="m 257.87769,122.11237 5.48437,3.07812 -5.41406,3.21094 z m 0,0"
         id="path272-0" />
      <path
         style="fill:none;stroke:#a3304a;stroke-width:1.25862;stroke-linecap:round;stroke-linejoin:round;stroke-miterlimit:4;stroke-opacity:1"
         d="m 310.49878,137.378 c -4.86328,4.23438 -10.33984,7.76563 -16.20703,10.4375 -8.875,4.05078 -18.64844,6.125 -28.40234,6.03516"
         id="path273-4" />
      <path
         style="fill:#a3304a;fill-opacity:1;fill-rule:evenodd;stroke:#a3304a;stroke-width:0.839076;stroke-linecap:butt;stroke-linejoin:miter;stroke-miterlimit:4;stroke-opacity:1"
         d="m 262.25659,153.8194 5.47266,-3.09765 -0.0586,6.29296 z m 0,0"
         id="path274-0" />
      <path
         style="fill:none;stroke:#a3304a;stroke-width:1.25862;stroke-linecap:round;stroke-linejoin:round;stroke-miterlimit:4;stroke-opacity:1"
         d="m 313.61987,124.24128 c -5.0039,-2.41797 -8.96093,-6.91406 -10.72656,-12.17969 -0.53906,-1.60546 -0.88281,-3.27343 -1.01953,-4.95703"
         id="path275-1" />
      <path
         style="fill:#a3304a;fill-opacity:1;fill-rule:evenodd;stroke:#a3304a;stroke-width:0.839077;stroke-linecap:butt;stroke-linejoin:miter;stroke-miterlimit:4;stroke-opacity:1"
         d="m 301.58081,103.48347 3.57813,5.17188 -6.27344,0.5078 z m 0,0"
         id="path276-3" />
    </g>
  </g>
</svg>
