<?xml version="1.0" encoding="UTF-8" standalone="no"?>
<svg
   width="127.40839pt"
   height="62.653641pt"
   viewBox="0 0 127.40839 62.653641"
   version="1.2"
   id="svg16"
   sodipodi:docname="forme_avtest.pdf"
   inkscape:export-filename="forme_av2D.svg"
   inkscape:export-xdpi="320"
   inkscape:export-ydpi="320"
   xmlns:inkscape="http://www.inkscape.org/namespaces/inkscape"
   xmlns:sodipodi="http://sodipodi.sourceforge.net/DTD/sodipodi-0.dtd"
   xmlns="http://www.w3.org/2000/svg"
   xmlns:svg="http://www.w3.org/2000/svg">
  <sodipodi:namedview
     id="namedview16"
     pagecolor="#ffffff"
     bordercolor="#666666"
     borderopacity="1.0"
     inkscape:showpageshadow="2"
     inkscape:pageopacity="0.0"
     inkscape:pagecheckerboard="0"
     inkscape:deskcolor="#d1d1d1"
     inkscape:document-units="pt"
     showguides="true"
     inkscape:zoom="6.074778"
     inkscape:cx="74.570627"
     inkscape:cy="103.46057"
     inkscape:window-width="1850"
     inkscape:window-height="1016"
     inkscape:window-x="0"
     inkscape:window-y="0"
     inkscape:window-maximized="1"
     inkscape:current-layer="surface3686481">
    <inkscape:page
       x="0"
       y="-1.5691438e-13"
       width="127.40839"
       height="62.653641"
       id="page2"
       margin="0"
       bleed="0" />
  </sodipodi:namedview>
  <defs
     id="defs16">
    <marker
       style="overflow:visible"
       id="ConcaveTriangle"
       refX="0"
       refY="0"
       orient="auto-start-reverse"
       inkscape:stockid="Concave triangle arrow"
       markerWidth="1"
       markerHeight="1"
       viewBox="0 0 1 1"
       inkscape:isstock="true"
       inkscape:collect="always"
       preserveAspectRatio="xMidYMid">
      <path
         transform="scale(0.7)"
         d="M -2,-4 9,0 -2,4 c 2,-2.33 2,-5.66 0,-8 z"
         style="fill:context-stroke;fill-rule:evenodd;stroke:none"
         id="path19" />
    </marker>
    <inkscape:path-effect
       effect="perspective-envelope"
       up_left_point="39.995742,-19.84766"
       up_right_point="107.85547,0"
       down_left_point="39.995742,122.44141"
       down_right_point="107.85547,102.59375"
       id="path-effect18"
       is_visible="true"
       lpeversion="1"
       deform_type="perspective"
       horizontal_mirror="true"
       vertical_mirror="false"
       overflow_perspective="false" />
    <inkscape:path-effect
       effect="perspective-envelope"
       up_left_point="44.295459,96.120451"
       up_right_point="110,114.45703"
       down_left_point="44.295459,236.33658"
       down_right_point="110,218"
       id="path-effect16"
       is_visible="true"
       lpeversion="1"
       deform_type="perspective"
       horizontal_mirror="true"
       vertical_mirror="false"
       overflow_perspective="false" />
  </defs>
  <g
     id="surface3686481"
     transform="matrix(0.475546,0,0,0.475546,33.518317,-50.977287)">
    <path
       style="fill:none;stroke:#a5324b;stroke-width:0.735995;stroke-linecap:round;stroke-linejoin:miter;stroke-dasharray:4.41597, 4.41597;stroke-dashoffset:0;stroke-opacity:1;marker-end:url(#ConcaveTriangle)"
       d="M -21.397443,167.34789 H 122.88349"
       id="path18"
       sodipodi:nodetypes="cc" />
    <g
       id="g18"
       transform="translate(-110.4796,116.79599)"
       inkscape:path-effect="#path-effect18">
      <path
         style="fill:#000000;fill-opacity:1;fill-rule:nonzero;stroke:none"
         d="m 43.922814,113.30821 c 0.03959,-0.20212 0.03959,-0.22343 0.03959,-0.33002 0,-0.23982 -0.1188,-0.33728 -0.254245,-0.30257 -0.07936,0.0203 -0.211732,0.13969 -0.291228,0.35772 -0.01325,0.0889 -0.09281,0.51549 -0.119342,0.7789 -0.06967,0.36027 -0.122782,0.75916 -0.175916,1.13683 l -0.385923,2.5717 c -0.02666,0.2002 -0.403883,1.27018 -0.970258,1.42886 -0.434119,0.12162 -0.528552,-0.4556 -0.528552,-0.97304 0,-0.62524 0.148362,-1.53299 0.434457,-2.81525 0.134398,-0.59477 0.174689,-0.75587 0.174689,-1.03544 0,-0.60217 -0.268857,-1.05495 -0.703654,-0.94381 -0.830097,0.21219 -1.146687,2.3139 -1.146687,2.42225 0,0.15169 0.08178,0.13002 0.0954,0.12641 0.09533,-0.0253 0.09533,-0.0686 0.136163,-0.29588 0.248103,-1.36315 0.587149,-1.86658 0.888105,-1.94388 0.06753,-0.0173 0.215956,-0.0555 0.215956,0.38094 0,0.34483 -0.09443,0.73591 -0.148428,1.00882 -0.354942,1.56179 -0.503989,2.3852 -0.503989,3.03349 0,1.23175 0.544487,1.48911 1.059659,1.34413 0.33888,-0.0954 0.619997,-0.41053 0.860434,-0.86385 -0.106802,0.73756 -0.213698,1.4597 -0.551713,2.2865 -0.228109,0.5173 -0.550881,1.01994 -0.945429,1.13485 -0.121659,0.0354 -0.517894,0.10766 -0.667242,-0.38972 0.135778,-0.0392 0.257849,-0.0745 0.366252,-0.27857 0.09816,-0.1362 0.179331,-0.35383 0.179331,-0.61283 0,-0.43165 -0.23352,-0.40854 -0.314851,-0.38545 -0.203564,0.0578 -0.492532,0.35634 -0.492532,1.02764 0,0.69295 0.384007,1.10035 0.929042,0.94094 0.878383,-0.25691 1.76706,-1.75888 2.006479,-3.37334 z"
         id="path6"
         inkscape:original-d="m 4.574219,96.742188 c 0.046875,-0.140626 0.046875,-0.15625 0.046875,-0.234376 0,-0.175781 -0.140625,-0.269531 -0.300782,-0.269531 -0.09375,0 -0.25,0.0625 -0.34375,0.207031 -0.015624,0.0625 -0.109374,0.359376 -0.140624,0.546876 -0.082032,0.25 -0.144532,0.53125 -0.207032,0.796874 l -0.453125,1.800782 c -0.03125,0.140625 -0.472656,0.843746 -1.132812,0.843746 -0.503907,0 -0.613281,-0.437496 -0.613281,-0.812496 0,-0.453125 0.171874,-1.082032 0.503906,-1.957032 0.15625,-0.40625 0.203125,-0.515624 0.203125,-0.71875 0,-0.4375 -0.3125,-0.816406 -0.816407,-0.816406 C 0.363281,96.128906 0,97.585938 0,97.664062 c 0,0.109376 0.09375,0.109376 0.109375,0.109376 0.109375,0 0.109375,-0.03125 0.15625,-0.1875 0.285156,-0.9375 0.675781,-1.238282 1.023437,-1.238282 0.078126,0 0.25,0 0.25,0.316406 0,0.25 -0.109374,0.515626 -0.171874,0.703126 -0.410157,1.0625 -0.582032,1.628906 -0.582032,2.097656 0,0.890626 0.628906,1.187496 1.226563,1.187496 0.394531,0 0.722656,-0.17187 1.003906,-0.45312 -0.125,0.51562 -0.25,1.01953 -0.644531,1.55078 -0.265625,0.32813 -0.640625,0.625 -1.097656,0.625 -0.140626,0 -0.597657,-0.0312 -0.769532,-0.42187 0.15625,0 0.296875,0 0.421875,-0.125 0.113281,-0.0781 0.207031,-0.21875 0.207031,-0.40625 0,-0.3125 -0.269531,-0.34375 -0.363281,-0.34375 -0.234375,0 -0.566406,0.15625 -0.566406,0.64062 0,0.5 0.441406,0.875 1.070313,0.875 1.019531,0 2.058593,-0.90625 2.339843,-2.03516 z m 0,0" />
      <g
         id="g17">
        <path
           style="fill:none;stroke:#000000;stroke-width:0.669966;stroke-linecap:butt;stroke-linejoin:miter;stroke-miterlimit:4;stroke-opacity:1"
           d="M 46.174752,109.12251 V -9.0584148 L 103.85903,5.6777627"
           transform="scale(1,0.995995)"
           id="path2"
           inkscape:original-d="M 7.265625,94.130901 V 6.698703 h 91.976563" />
        <path
           style="fill:#000000;fill-opacity:1;fill-rule:evenodd;stroke:none"
           d="m 47.721903,107.05725 -1.547151,7.31481 -1.564332,-6.57815 c 0.915026,1.04874 2.2101,0.73523 3.111483,-0.73666 z"
           id="path3"
           inkscape:original-d="m 9.144531,92.820312 -1.878906,5.140626 -1.875,-5.140626 c 1.09375,0.933594 2.65625,0.933594 3.753906,0 z" />
        <path
           style="fill:#000000;fill-opacity:1;fill-rule:evenodd;stroke:none"
           d="m 103.41303,3.6270604 2.42595,2.5317394 -2.42595,1.2972247 c 0.446,-1.0019489 0.446,-2.5920619 0,-3.8289641 z"
           id="path4"
           inkscape:original-d="m 98.304688,4.804688 5.156252,1.867187 -5.156252,1.867187 c 0.9375,-1.085937 0.9375,-2.640624 0,-3.734374 z" />
        <path
           style="fill:#000000;fill-opacity:1;fill-rule:nonzero;stroke:none"
           d="m 106.97568,1.1442043 c 0.0286,-0.24699116 0.13593,-1.14209212 0.45168,-1.05013469 0.0214,0.0062258 0.13701,0.03990144 0.22941,0.19195509 -0.12975,0.0249216 -0.21517,0.23506395 -0.21517,0.48565389 0,0.15661871 0.0498,0.36270181 0.17254,0.39772131 0.0994,0.028386 0.24133,-0.1068999 0.24133,-0.5131499 0,-0.515625 -0.26266,-0.73307312 -0.42099,-0.77938046 -0.2657,-0.0777142 -0.42301,0.41008351 -0.48028,0.61338023 -0.11645,-0.69361935 -0.36239,-0.8598468 -0.49912,-0.8998371 -0.48023,-0.1404569 -0.74856,1.081965 -0.74856,1.33502817 0,0.11071516 0.0508,0.12510496 0.0581,0.12715926 0.0363,0.010269 0.0508,-0.017233 0.058,-0.0942093 0.15943,-1.03256096 0.46482,-1.19629289 0.62521,-1.14957967 0.0864,0.025159 0.24635,0.16611411 0.24635,0.74806696 0,0.31850097 -0.0808,0.95631112 -0.24635,2.32719872 -0.072,0.5987238 -0.2398,0.9792119 -0.44225,0.9249685 -0.0308,-0.00824 -0.1322,-0.035421 -0.23375,-0.1891148 0.11605,-0.032025 0.21927,-0.2095427 0.21927,-0.4937824 0,-0.2723961 -0.10322,-0.379609 -0.16848,-0.3974739 -0.14519,-0.039745 -0.25606,0.1871247 -0.25606,0.5195329 0,0.4590375 0.22704,0.7253625 0.43178,0.7799656 0.31254,0.083351 0.4783,-0.5810969 0.4855,-0.6263879 0.0576,0.3776681 0.2247,0.8157903 0.49896,0.888932 0.47301,0.1261456 0.73075,-1.0913133 0.73075,-1.3415155 0,-0.1094635 -0.0355,-0.1192623 -0.0497,-0.1231879 -0.0426,-0.011763 -0.0497,0.033209 -0.064,0.091879 -0.15119,1.0428951 -0.45972,1.195148 -0.60276,1.1568224 -0.18092,-0.048475 -0.25268,-0.38218 -0.25268,-0.7281075 0,-0.2201357 0.0216,-0.4382959 0.0718,-0.8646209 z"
           id="path5"
           inkscape:original-d="m 105.92578,1.394531 c 0.0625,-0.253906 0.29688,-1.175781 0.98828,-1.175781 0.0469,0 0.30078,0 0.50391,0.125 -0.28516,0.0625 -0.47266,0.296875 -0.47266,0.546875 0,0.15625 0.10938,0.347656 0.37891,0.347656 0.21875,0 0.53125,-0.175781 0.53125,-0.582031 C 107.85547,0.140625 107.27734,0 106.92969,0 106.34766,0 106.00391,0.53125 105.87891,0.75 105.625,0.09375 105.08984,0 104.79297,0 c -1.03906,0 -1.61719,1.285156 -1.61719,1.535156 0,0.109375 0.10938,0.109375 0.125,0.109375 0.0781,0 0.10938,-0.03125 0.125,-0.109375 0.34375,-1.066406 1.00391,-1.316406 1.35156,-1.316406 0.1875,0 0.53516,0.09375 0.53516,0.671875 0,0.316406 -0.17578,0.972656 -0.53516,2.378906 -0.15625,0.613281 -0.51953,1.035157 -0.95703,1.035157 -0.0664,0 -0.28515,0 -0.5039,-0.125 0.25,-0.0625 0.47265,-0.265626 0.47265,-0.546876 0,-0.269531 -0.22265,-0.347656 -0.36328,-0.347656 -0.3125,0 -0.55078,0.253906 -0.55078,0.582032 0,0.453124 0.48828,0.65625 0.92969,0.65625 0.67578,0 1.03515,-0.703126 1.05078,-0.75 0.125,0.359374 0.48828,0.75 1.08594,0.75 1.03515,0 1.60156,-1.285157 1.60156,-1.535157 0,-0.109375 -0.0781,-0.109375 -0.10938,-0.109375 -0.0937,0 -0.10937,0.046875 -0.14062,0.109375 -0.33203,1.082031 -1.00781,1.316407 -1.32031,1.316407 -0.39453,0 -0.55078,-0.3125 -0.55078,-0.65625 0,-0.21875 0.0469,-0.441407 0.15625,-0.878907 z" />
        <path
           style="fill:#a3304a;fill-opacity:1;fill-rule:nonzero;stroke:#ffe3f3;stroke-width:1.89586;stroke-linecap:round;stroke-linejoin:round;stroke-miterlimit:4;stroke-opacity:1"
           d="m 79.081618,45.084198 5.700046,0.179215 v 10.79305 l -5.700046,0.130778 z"
           transform="scale(1,0.995995)"
           id="path7"
           inkscape:original-d="m 53.367188,45.988873 h 9.539062 v 9.5382 h -9.539062 z" />
      </g>
    </g>
    <g
       id="g16"
       inkscape:path-effect="#path-effect16"
       transform="translate(87.436375,1.0384795)">
      <path
         style="fill:#a3304a;fill-opacity:1;fill-rule:nonzero;stroke:#ffe3f3;stroke-width:1.89586;stroke-linecap:butt;stroke-linejoin:round;stroke-miterlimit:4;stroke-opacity:1"
         d="m 79.11303,138.50249 5.995863,0.78675 v 12.61951 l 9.53418,0.67918 0,10.08149 8.598147,0.18096 v 8.47521 l -8.359443,0.19255 v 9.82349 l -5.776894,0.41592 v -20.71889 l -4.920039,-0.13965 v 30.26439 l 11.886055,-1.36487 v 13.67391 l -23.642949,4.33592 v -41.78157 l 8.799497,0.0343 v -8.65731 l -12.249559,-0.54268 v -10.54109 l 3.302577,0.29999 v 6.01252 l 6.045421,0.3863 v -7.9756 l -3.559439,-0.35816 v -18.64405 l 4.255682,0.78765 v 11.66188 z"
         transform="scale(1,0.995995)"
         id="path1"
         inkscape:original-d="m 51.140625,142.55531 h 10.074219 v 11.12659 h 17.257812 v 9.31073 h 17.03125 v 8.17728 H 78.925781 v 9.08325 H 68.253906 V 161.63171 H 59.625 v 26.56734 h 21.574219 v 12.71891 H 40.546875 v -34.74462 h 14.082031 v -7.49486 H 35.324219 v -8.63223 h 4.996093 v 4.99657 h 9.539063 v -6.81244 h -5.679687 v -15.66822 h 6.8125 v 9.99315 z m 0,0" />
      <path
         style="fill:none;stroke:#000000;stroke-width:0.669966;stroke-linecap:butt;stroke-linejoin:miter;stroke-miterlimit:4;stroke-opacity:1"
         d="m 50.149601,222.65245 v -115.6401 l 55.891149,13.64122"
         transform="scale(1,0.995995)"
         id="path8"
         inkscape:original-d="M 9.410156,209.0521 V 121.6199 H 101.38281" />
      <path
         style="fill:#000000;fill-opacity:1;fill-rule:evenodd;stroke:none"
         d="m 51.616321,220.20135 -1.46672,7.11854 -1.484468,-6.46545 c 0.865025,1.04648 2.094681,0.76817 2.951188,-0.65309 z"
         id="path9"
         inkscape:original-d="m 11.285156,207.28125 -1.875,5.13672 -1.875,-5.13672 c 1.089844,0.93359 2.652344,0.93359 3.75,0 z m 0,0" />
      <path
         style="fill:#000000;fill-opacity:1;fill-rule:evenodd;stroke:none"
         d="m 105.59979,118.14769 2.402,2.49937 -2.402,1.32758 c 0.44096,-1.01034 0.44096,-2.59822 0,-3.82695 z"
         id="path10"
         inkscape:original-d="m 100.44531,119.26172 5.16016,1.87109 L 100.44531,123 c 0.9375,-1.08984 0.9375,-2.64453 0,-3.73828 z m 0,0" />
      <path
         style="fill:#000000;fill-opacity:1;fill-rule:nonzero;stroke:none"
         d="m 109.12606,115.61423 c 0.0284,-0.24343 0.13649,-1.13946 0.44947,-1.05249 0.0212,0.006 0.13407,0.0373 0.22569,0.18785 -0.12689,0.0274 -0.21157,0.23888 -0.21157,0.48943 0,0.1566 0.0494,0.35797 0.16929,0.39063 0.10037,0.0273 0.24106,-0.10621 0.24106,-0.51246 0,-0.51563 -0.2622,-0.73333 -0.41741,-0.77665 -0.26338,-0.0735 -0.42106,0.42007 -0.47782,0.6242 -0.11362,-0.69107 -0.35731,-0.85726 -0.49277,-0.89507 -0.47566,-0.13274 -0.74316,1.09253 -0.74316,1.3454 0,0.11063 0.0503,0.12423 0.0575,0.12617 0.0359,0.01 0.0521,-0.0175 0.0593,-0.0945 0.15788,-1.03038 0.46034,-1.19884 0.61745,-1.15518 0.0874,0.0243 0.24407,0.1621 0.24407,0.74387 0,0.31444 -0.0783,0.9537 -0.24407,2.32988 -0.0714,0.59554 -0.23576,0.97869 -0.43806,0.92693 -0.0287,-0.007 -0.12913,-0.033 -0.23148,-0.18562 0.11671,-0.0332 0.21714,-0.21257 0.21714,-0.49663 0,-0.26826 -0.10043,-0.37342 -0.16505,-0.39031 -0.14556,-0.038 -0.25353,0.1868 -0.25353,0.51894 0,0.45866 0.223,0.72107 0.42575,0.77271 0.30956,0.0788 0.47555,-0.58719 0.48268,-0.63256 0.0571,0.37665 0.22085,0.81174 0.49262,0.88096 0.47062,0.11986 0.72616,-1.09727 0.72616,-1.34746 0,-0.10947 -0.0369,-0.1192 -0.051,-0.12292 -0.0423,-0.0111 -0.0493,0.034 -0.0634,0.0928 -0.14814,1.04151 -0.45397,1.19815 -0.59751,1.16142 -0.17751,-0.0454 -0.25039,-0.37843 -0.25039,-0.72422 0,-0.22005 0.0231,-0.43405 0.0729,-0.86095 z"
         id="path11"
         inkscape:original-d="m 108.06641,115.85156 c 0.0625,-0.25 0.30078,-1.17187 0.99218,-1.17187 0.0469,0 0.29688,0 0.5,0.125 -0.28125,0.0625 -0.46875,0.29687 -0.46875,0.54687 0,0.15625 0.10938,0.34375 0.375,0.34375 0.22266,0 0.53516,-0.17187 0.53516,-0.57812 0,-0.51563 -0.58203,-0.66016 -0.92578,-0.66016 -0.58203,0 -0.92969,0.53516 -1.05469,0.75391 -0.25,-0.65625 -0.78515,-0.75391 -1.08203,-0.75391 -1.03906,0 -1.62109,1.28516 -1.62109,1.53516 0,0.10937 0.10937,0.10937 0.125,0.10937 0.0781,0 0.11328,-0.0312 0.1289,-0.10937 0.34375,-1.0625 1.00391,-1.3125 1.34766,-1.3125 0.19141,0 0.53516,0.0937 0.53516,0.67187 0,0.3125 -0.17188,0.96875 -0.53516,2.37891 -0.15625,0.60937 -0.51563,1.03125 -0.95703,1.03125 -0.0625,0 -0.28125,0 -0.50391,-0.125 0.25391,-0.0625 0.47266,-0.26563 0.47266,-0.54688 0,-0.26562 -0.21875,-0.34375 -0.35938,-0.34375 -0.3164,0 -0.55078,0.25 -0.55078,0.57813 0,0.45312 0.48438,0.65625 0.92578,0.65625 0.67578,0 1.03907,-0.70313 1.05469,-0.75 0.125,0.35937 0.48438,0.75 1.08203,0.75 1.03906,0 1.60547,-1.28125 1.60547,-1.53125 0,-0.10938 -0.082,-0.10938 -0.11328,-0.10938 -0.0937,0 -0.10938,0.0469 -0.14063,0.10938 -0.32812,1.07812 -1.0039,1.3125 -1.32031,1.3125 -0.39062,0 -0.55078,-0.3125 -0.55078,-0.65625 0,-0.21875 0.0508,-0.4375 0.16016,-0.875 z m 0,0" />
      <path
         style="fill:#000000;fill-opacity:1;fill-rule:nonzero;stroke:none"
         d="m 48.010015,226.22661 c 0.03753,-0.19669 0.03753,-0.21753 0.03753,-0.32175 0,-0.22927 -0.112621,-0.32733 -0.237876,-0.2973 -0.07521,0.018 -0.203809,0.13238 -0.279147,0.33843 -0.01256,0.0866 -0.08795,0.50175 -0.113093,0.75861 -0.06287,0.34975 -0.113195,0.73839 -0.163537,1.1115 l -0.36875,2.49968 c -0.02525,0.19501 -0.38251,1.2364 -0.915555,1.37624 -0.410853,0.10778 -0.500209,-0.45846 -0.500209,-0.96918 0,-0.61074 0.140388,-1.48854 0.407965,-2.73345 0.130395,-0.58391 0.168533,-0.74034 0.168533,-1.0135 0,-0.58832 -0.257662,-1.03099 -0.669113,-0.9326 -0.785184,0.18777 -1.081303,2.22638 -1.081303,2.33746 0,0.14811 0.07732,0.12894 0.0902,0.12574 0.09013,-0.0224 0.09013,-0.0646 0.128741,-0.29089 0.231401,-1.32442 0.555287,-1.80356 0.836804,-1.87121 0.06709,-0.0161 0.207532,-0.0499 0.207532,0.37118 0,0.33684 -0.08936,0.71662 -0.140446,0.9819 -0.335793,1.52211 -0.476774,2.31734 -0.476774,2.95048 0,1.20825 0.515093,1.4735 0.999453,1.34587 0.320808,-0.0845 0.590156,-0.38619 0.817855,-0.82311 -0.101148,0.71808 -0.202378,1.41579 -0.522428,2.21495 -0.215942,0.49947 -0.524626,0.9882 -0.897975,1.09005 -0.115101,0.0314 -0.486704,0.0906 -0.631157,-0.40346 0.13162,-0.0356 0.247074,-0.0668 0.349611,-0.26333 0.08965,-0.1296 0.166445,-0.34005 0.166445,-0.59302 0,-0.42162 -0.217703,-0.40592 -0.294629,-0.38547 -0.195735,0.052 -0.465772,0.33525 -0.465772,0.99073 0,0.68194 0.359921,1.09081 0.875502,0.94955 0.834502,-0.22864 1.672914,-1.67755 1.902883,-3.24502 z"
         id="path12"
         inkscape:original-d="m 6.714844,211.19922 c 0.046875,-0.14063 0.046875,-0.15625 0.046875,-0.23438 0,-0.17187 -0.140625,-0.26562 -0.296875,-0.26562 -0.09375,0 -0.253906,0.0625 -0.347656,0.20312 -0.015626,0.0625 -0.109376,0.35938 -0.140626,0.54688 -0.078124,0.25 -0.140624,0.53125 -0.203124,0.80078 l -0.457032,1.79687 c -0.03125,0.14063 -0.472656,0.84766 -1.128906,0.84766 -0.503906,0 -0.613281,-0.4375 -0.613281,-0.81641 0,-0.45312 0.171875,-1.07812 0.5,-1.95312 0.160156,-0.41016 0.207031,-0.51953 0.207031,-0.72266 0,-0.4375 -0.316406,-0.8125 -0.820312,-0.8125 -0.957032,0 -1.316407,1.45313 -1.316407,1.53516 0,0.10937 0.09375,0.10937 0.109375,0.10937 0.109375,0 0.109375,-0.0312 0.15625,-0.1914 0.28125,-0.9375 0.675782,-1.23438 1.019532,-1.23438 0.082031,0 0.253906,0 0.253906,0.3125 0,0.25 -0.109375,0.51563 -0.171875,0.70313 -0.410157,1.0664 -0.582031,1.6289 -0.582031,2.09765 0,0.89454 0.628906,1.19141 1.222656,1.19141 0.394531,0 0.726562,-0.17187 1.007812,-0.45312 -0.125,0.51562 -0.25,1.01562 -0.644531,1.54687 -0.265625,0.32813 -0.644531,0.62891 -1.101563,0.62891 -0.140624,0 -0.59375,-0.0312 -0.769531,-0.42578 0.160157,0 0.300781,0 0.425781,-0.125 0.109376,-0.0781 0.203126,-0.21875 0.203126,-0.40625 0,-0.3125 -0.265626,-0.34375 -0.359376,-0.34375 -0.238281,0 -0.566406,0.15625 -0.566406,0.64062 0,0.50391 0.4375,0.87891 1.066406,0.87891 1.023438,0 2.058594,-0.91016 2.34375,-2.03516 z m 0,0" />
      <path
         style="fill:none;stroke:#000000;stroke-width:0.754305;stroke-linecap:round;stroke-linejoin:miter;stroke-miterlimit:4;stroke-opacity:1"
         d="m 69.638904,217.64114 33.749436,-7.58215"
         transform="scale(1,0.995995)"
         id="path13"
         inkscape:original-d="M 36.3125,208.57362 H 95.808594" />
      <path
         style="fill:none;stroke:#000000;stroke-width:0.754305;stroke-linecap:butt;stroke-linejoin:miter;stroke-miterlimit:4;stroke-opacity:1"
         d="m 69.638904,221.31808 v -7.34912"
         transform="scale(1,0.995995)"
         id="path14"
         inkscape:original-d="m 36.3125,211.59353 v -6.0359" />
      <path
         style="fill:none;stroke:#000000;stroke-width:0.754305;stroke-linecap:butt;stroke-linejoin:miter;stroke-miterlimit:4;stroke-opacity:1"
         d="m 103.38834,213.18653 v -6.25102"
         transform="scale(1,0.995995)"
         id="path15"
         inkscape:original-d="m 95.808594,211.59353 v -6.0359" />
      <path
         style="fill:#000000;fill-opacity:1;fill-rule:nonzero;stroke:none"
         d="m 88.607694,216.23694 c 0,0 0,-0.12199 -0.07872,-0.10301 -0.122576,0.0296 -0.539545,0.21746 -0.689184,0.28861 -0.04406,0.0106 -0.105758,0.043 -0.105758,0.25307 0,0.1225 0.0617,0.10749 0.140986,0.0882 0.274813,-0.0669 0.283595,0.0357 0.283595,0.12308 l -0.01756,0.23136 -0.718303,5.77602 c -0.01769,0.12752 -0.02653,0.20443 -0.02653,0.37971 0,0.64858 0.249609,0.96455 0.514025,0.89076 0.186889,-0.0522 0.327383,-0.31832 0.423862,-0.74649 0.09858,-0.4458 0.168623,-1.11447 0.168623,-1.13192 0,-0.12204 -0.05253,-0.10785 -0.07004,-0.10311 -0.05476,0.0148 -0.06352,0.0695 -0.07228,0.2289 -0.09646,0.74621 -0.201781,1.4388 -0.432555,1.50293 -0.167357,0.0465 -0.167357,-0.30346 -0.167357,-0.46094 0,-0.27998 0.0088,-0.33488 0.03526,-0.55644 z"
         id="path16"
         inkscape:original-d="m 67.363281,211.06641 c 0,0 0,-0.10938 -0.140625,-0.10938 -0.21875,0 -0.960937,0.0781 -1.226562,0.10938 -0.07813,0 -0.1875,0.0156 -0.1875,0.20312 0,0.10938 0.109375,0.10938 0.25,0.10938 0.488281,0 0.503906,0.0937 0.503906,0.17187 l -0.03125,0.20313 -1.273438,4.99218 c -0.03125,0.10938 -0.04687,0.17578 -0.04687,0.33203 0,0.57813 0.441406,0.92188 0.910156,0.92188 0.332031,0 0.582031,-0.20313 0.753906,-0.5625 0.175781,-0.375 0.300781,-0.95703 0.300781,-0.97266 0,-0.10937 -0.09375,-0.10937 -0.125,-0.10937 -0.09766,0 -0.113281,0.0469 -0.128906,0.1875 -0.171875,0.64453 -0.359375,1.23828 -0.769531,1.23828 -0.296875,0 -0.296875,-0.3125 -0.296875,-0.45313 0,-0.25 0.01563,-0.29687 0.0625,-0.48828 z m 0,0" />
    </g>
    <g
       inkscape:label=""
       transform="matrix(1.2551009,0,0,1.2551009,125.77908,155.67585)"
       id="g19"
       style="fill:#a5324b">
      <g
         id="surface4"
         transform="translate(-2.22737,-1.88562)"
         style="fill:#a5324b">
        <g
           style="fill:#a5324b;fill-opacity:1"
           id="g3">
          <g
             id="use2"
             transform="translate(1.993,8.1199999)"
             style="fill:#a5324b">
            <path
               style="fill:#a5324b;stroke:none"
               d="m 2.046875,-3.984375 h 0.9375 c 0.203125,0 0.3125,0 0.3125,-0.203125 0,-0.109375 -0.109375,-0.109375 -0.28125,-0.109375 h -0.875 C 2.5,-5.71875 2.546875,-5.90625 2.546875,-5.96875 c 0,-0.171875 -0.125,-0.265625 -0.296875,-0.265625 -0.03125,0 -0.3125,0 -0.390625,0.359375 L 1.46875,-4.296875 h -0.9375 c -0.203125,0 -0.296875,0 -0.296875,0.1875 0,0.125 0.078125,0.125 0.28125,0.125 h 0.875 C 0.671875,-1.15625 0.625,-0.984375 0.625,-0.8125 0.625,-0.265625 1,0.109375 1.546875,0.109375 2.5625,0.109375 3.125,-1.34375 3.125,-1.421875 3.125,-1.53125 3.046875,-1.53125 3.015625,-1.53125 2.921875,-1.53125 2.90625,-1.5 2.859375,-1.390625 2.4375,-0.34375 1.90625,-0.109375 1.5625,-0.109375 c -0.203125,0 -0.3125,-0.125 -0.3125,-0.453125 0,-0.25 0.03125,-0.3125 0.0625,-0.484375 z m 0,0"
               id="path3-1" />
          </g>
        </g>
      </g>
    </g>
  </g>
</svg>
