<?xml version="1.0" encoding="UTF-8" standalone="no"?>
<!-- Created with Inkscape (http://www.inkscape.org/) -->

<svg
   width="112.39244mm"
   height="81.247589mm"
   viewBox="0 0 112.39244 81.247589"
   version="1.1"
   id="svg1"
   inkscape:version="1.4.1 (1:1.4.1+202503302257+93de688d07)"
   sodipodi:docname="glacons_enfonte.svg"
   xmlns:inkscape="http://www.inkscape.org/namespaces/inkscape"
   xmlns:sodipodi="http://sodipodi.sourceforge.net/DTD/sodipodi-0.dtd"
   xmlns="http://www.w3.org/2000/svg"
   xmlns:svg="http://www.w3.org/2000/svg">
  <sodipodi:namedview
     id="namedview1"
     pagecolor="#ffffff"
     bordercolor="#000000"
     borderopacity="0.25"
     inkscape:showpageshadow="2"
     inkscape:pageopacity="0.0"
     inkscape:pagecheckerboard="0"
     inkscape:deskcolor="#d1d1d1"
     inkscape:document-units="mm"
     inkscape:zoom="0.72248176"
     inkscape:cx="397.24186"
     inkscape:cy="561.25984"
     inkscape:window-width="1850"
     inkscape:window-height="1016"
     inkscape:window-x="1150"
     inkscape:window-y="27"
     inkscape:window-maximized="1"
     inkscape:current-layer="layer1">
    <inkscape:page
       x="-5.0320808e-14"
       y="0"
       width="112.39245"
       height="81.247589"
       id="page2"
       margin="0"
       bleed="0" />
  </sodipodi:namedview>
  <defs
     id="defs1" />
  <g
     inkscape:label="Layer 1"
     inkscape:groupmode="layer"
     id="layer1"
     transform="translate(-44.976702,-41.028009)">
    <g
       id="g20"
       transform="translate(-35.660588,12.456266)">
      <path
         style="fill:#ffd2e7;stroke:none;stroke-width:0.405694;stroke-linecap:round;stroke-linejoin:round;stroke-dasharray:0.81139, 1.62278"
         d="m 108.3774,65.637018 c 0,0 -4.07051,-1.017629 -7.46261,0.508813 -3.392087,1.526444 -14.246788,2.544072 -8.819438,5.257747 5.427351,2.713675 15.942838,3.22249 7.632211,5.42735 -8.310631,2.20486 -23.914264,2.883281 -17.63889,6.784189 6.275374,3.900908 22.557417,-0.848024 22.727027,4.579326 0.1696,5.427351 -13.059559,5.936165 -7.971418,10.176286 5.088138,4.240111 8.480228,-0.16961 23.066238,1.35683 14.586,1.526451 21.03098,15.264431 30.18964,7.971431 9.15865,-7.29301 -6.10578,-12.72036 12.38114,-14.755615 18.48691,-2.035257 37.82185,-2.88328 27.81517,-7.801816 -10.00668,-4.918538 -9.83707,-7.462607 -4.57933,-8.819446 5.25775,-1.356836 10.17628,-4.40972 1.69605,-5.088141 -8.48024,-0.678418 -13.73798,2.204863 -17.13008,0.169606 -3.39209,-2.035257 -13.05956,-3.052884 -13.05956,-3.052884 z"
         id="path14" />
      <path
         style="fill:#ffe4f3;stroke:none;stroke-width:0.405694;stroke-linecap:round;stroke-linejoin:round;stroke-dasharray:0.81139, 1.62278"
         d="m 112.3177,72.594093 c 0,0 -6.14516,-0.170699 -5.63306,1.365591 0.5121,1.536293 2.04839,5.462368 7.16935,7.340055 5.12097,1.877687 3.58468,0.512096 11.43683,4.950269 7.85215,4.438171 13.65591,5.803763 16.2164,4.779569 2.56048,-1.024192 1.87768,-2.389783 8.53494,-4.096774 6.65726,-1.706989 6.48656,-1.194893 12.11962,-4.096774 5.63307,-2.901881 6.31587,-3.584678 6.14517,-6.145162 -0.1707,-2.560482 -3.75538,-4.950267 -3.75538,-4.950267 z"
         id="path13" />
      <g
         id="g12"
         transform="translate(45.233027,-12.926067)">
        <path
           style="fill:#efa8c6;stroke:none;stroke-width:0.405694;stroke-linecap:round;stroke-linejoin:round;stroke-dasharray:0.81139, 1.62278"
           d="m 64.892544,50.410088 c 0,0 7.9375,-2.645833 13.22917,-4.316886 5.29166,-1.671053 13.92543,-3.481361 15.31798,-3.899125 1.39254,-0.417761 3.75987,-0.696269 4.45614,-0.696269 0.69627,0 2.228066,0.557016 3.759866,1.253289 1.53179,0.696272 17.12828,7.9375 17.12828,7.9375 0,0 1.81031,1.531797 2.50659,2.228069 0.69627,0.696272 1.25328,1.671053 1.39254,6.823464 0.13925,5.152414 -0.69627,23.394738 -0.69627,23.394738 0,0 0.27851,2.22807 -0.13926,3.620614 -0.41776,1.392542 -0.97478,3.342106 -3.3421,4.595395 -2.36733,1.253289 -20.052626,7.937499 -21.305916,8.494516 -1.25329,0.557017 -4.45614,0.557017 -6.40571,0.417767 -1.94956,-0.13926 -13.92543,-5.430925 -13.92543,-5.430925 0,0 -10.02632,-5.013158 -11.0011,-5.43092 -0.97478,-0.417763 -2.50658,-3.899124 -2.50658,-5.430922 0,-1.531797 -0.27851,-8.216008 -0.27851,-10.304824 0,-2.088814 0,-9.051534 0,-10.304825 0,-1.253289 0.13925,-7.9375 0.41776,-9.469297 0.27851,-1.531798 1.39255,-3.481359 1.39255,-3.481359 z"
           id="path2" />
        <path
           style="fill:#ffe4f3;stroke:none;stroke-width:0.405694;stroke-linecap:round;stroke-linejoin:round;stroke-dasharray:0.81139, 1.62278"
           d="m 94.692983,79.235744 c 0,0 -0.417764,0.27851 -0.696272,-5.570174 C 93.7182,67.816884 92.604166,61.828948 93.7182,60.714912 c 1.114036,-1.114036 8.21601,-2.785089 11.14035,-3.20285 2.92434,-0.417764 4.31689,0.557017 3.48136,1.392542 -0.83552,0.835528 -7.48832,1.432117 -9.051533,3.620614 -1.39254,1.949561 -1.149572,1.691717 -1.671053,4.038377 -0.557018,2.506579 -2.228072,11.836623 -2.228072,12.532895 0,0.696272 -0.696269,0.139254 -0.696269,0.139254 z"
           id="path3"
           sodipodi:nodetypes="csssssssc" />
        <path
           style="fill:#ffe4f3;stroke:none;stroke-width:0.405694;stroke-linecap:round;stroke-linejoin:round;stroke-dasharray:0.81139, 1.62278"
           d="m 114.1886,56.25877 c 0,0 4.17763,-1.531797 5.15241,-1.531797 0.97478,0 1.67105,0.835528 1.67105,2.506581 0,1.67105 0.41776,6.962716 -0.13925,6.962716 -0.55702,0 -0.55702,-1.392542 -1.25329,-3.759866 -0.69628,-2.367325 0.13925,-2.785089 -2.22807,-2.645834 -2.36733,0.139253 -3.20285,-1.5318 -3.20285,-1.5318 z"
           id="path4" />
        <path
           style="fill:#ffe4f3;stroke:none;stroke-width:0.405694;stroke-linecap:round;stroke-linejoin:round;stroke-dasharray:0.81139, 1.62278"
           d="m 95.807016,94.135963 c 0,0 -0.417762,2.088816 0,3.063597 0.417763,0.97478 3.48136,0.835528 10.026314,-1.810306 6.54496,-2.645833 14.06469,-4.73465 14.20395,-5.848686 0.13925,-1.114033 1.5318,-4.873902 0.97478,-4.038377 -0.55702,0.835527 -0.83553,2.367325 -2.22807,3.202852 -1.39254,0.835525 -4.73465,3.759867 -11.83662,5.570175 -7.101977,1.810306 -11.140354,-0.139255 -11.140354,-0.139255 z"
           id="path5" />
        <path
           style="fill:#ffe4f3;stroke:none;stroke-width:0.405694;stroke-linecap:round;stroke-linejoin:round;stroke-dasharray:0.81139, 1.62278"
           d="m 115.72039,61.411184 c 0,0 -9.46929,-1.114036 -12.95065,2.506578 -3.481363,3.620614 -5.430924,9.887061 -4.595399,16.432019 0.835525,6.544956 -0.696272,12.811403 3.620619,11.836622 4.31688,-0.97478 7.24122,-8.494516 7.79824,-12.393641 0.55702,-3.899122 -1.39254,-7.519736 4.31689,-8.633772 5.70943,-1.114034 4.45614,-2.088814 4.31688,-4.734648 -0.13925,-2.645833 -2.50658,-5.013158 -2.50658,-5.013158 z"
           id="path6" />
        <path
           style="fill:#ffe4f3;stroke:none;stroke-width:0.405694;stroke-linecap:round;stroke-linejoin:round;stroke-dasharray:0.81139, 1.62278"
           d="m 64.614035,65.728071 c 0,0 -0.139255,-9.051536 0.557017,-11.001098 0.696272,-1.949561 2.088817,-0.696272 4.73465,-0.278508 2.645833,0.417761 0.696272,1.531797 -0.557019,1.671053 -1.253289,0.139253 -3.202851,-0.974781 -3.342106,2.367325 -0.139253,3.342103 -1.392542,7.241228 -1.392542,7.241228 z"
           id="path7" />
        <path
           style="fill:#ffe4f3;stroke:none;stroke-width:0.405694;stroke-linecap:round;stroke-linejoin:round;stroke-dasharray:0.81139, 1.62278"
           d="m 80.071271,58.626095 10.026316,2.924341 c 0,0 0.139253,-0.417761 0.417761,0.55702 0.278511,0.97478 0.835528,2.367325 0.696272,5.430919 -0.139252,3.063597 -1.253288,3.899125 -1.392541,1.671053 -0.139256,-2.22807 1.253289,-4.038378 -1.5318,-5.570175 -2.785086,-1.531797 -6.266447,-2.506578 -7.658992,-3.481358 -1.392542,-0.974781 -0.557016,-1.5318 -0.557016,-1.5318 z"
           id="path8" />
        <path
           style="fill:#ffe4f3;stroke:none;stroke-width:0.405694;stroke-linecap:round;stroke-linejoin:round;stroke-dasharray:0.81139, 1.62278"
           d="m 79.792761,94.135963 c 0,0 8.494517,4.595395 10.304825,3.899123 1.810308,-0.69627 1.392545,-5.013156 1.392545,-5.013156 0,0 0.835525,1.531797 -1.392545,2.228069 -2.228069,0.696273 -5.291666,0.417764 -11.279605,-2.924341 -5.987939,-3.342106 -11.697369,-2.924342 -12.393639,-5.291667 -0.696272,-2.367325 -2.367325,-1.5318 -1.671053,-0.139255 0.696272,1.392544 2.785086,3.063597 4.595395,3.481361 1.810305,0.417761 10.444077,3.759866 10.444077,3.759866 z"
           id="path9" />
        <path
           style="fill:#ffe4f3;stroke:none;stroke-width:0.405694;stroke-linecap:round;stroke-linejoin:round;stroke-dasharray:0.81139, 1.62278"
           d="m 83.274121,66.006577 c 0,0 -11.14035,-8.633769 -13.925438,-4.734647 -2.785087,3.899122 -2.924342,16.432016 -2.22807,19.634866 0.696272,3.202853 5.291667,8.216011 7.519736,7.241228 2.228072,-0.974781 -0.417761,-7.101972 1.392545,-11.697367 1.810308,-4.595394 6.405702,-0.696272 8.355263,-1.114036 1.949561,-0.417764 -1.114036,-9.330044 -1.114036,-9.330044 z"
           id="path10" />
        <path
           style="fill:#ffe4f3;stroke:none;stroke-width:0.405694;stroke-linecap:round;stroke-linejoin:round;stroke-dasharray:0.81139, 1.62278"
           d="m 111.125,49.574562 c 0,0 -4.17763,3.20285 -10.86184,3.063595 -6.684214,-0.139253 -14.20395,-0.139253 -12.254389,1.671052 1.949561,1.810308 4.316886,3.75987 11.001097,2.228072 6.684212,-1.5318 14.760962,-2.088816 15.457232,-4.038377 0.69628,-1.949561 -3.3421,-2.924342 -3.3421,-2.924342 z"
           id="path11" />
        <path
           style="fill:#ffe4f3;stroke:none;stroke-width:0.405694;stroke-linecap:round;stroke-linejoin:round;stroke-dasharray:0.81139, 1.62278"
           d="m 77.146928,53.33443 c 0,0 -5.709428,-2.088817 -6.684209,-2.506581 -0.97478,-0.417761 -1.253291,-0.696272 1.810306,-1.810305 3.063597,-1.114036 19.077852,-5.430922 21.723686,-5.987939 2.645833,-0.557017 2.924341,-1.114036 4.873902,0 1.949567,1.114036 0.696273,1.392544 -1.253288,1.114036 -1.949564,-0.278511 -0.835528,-0.835528 -7.658992,1.114033 -6.823466,1.949562 -13.229166,2.22807 -14.203947,3.75987 -0.974781,1.531797 1.253289,2.228069 1.392542,4.316886 z"
           id="path12" />
      </g>
      <path
         style="fill:#ffe4f3;stroke:none;stroke-width:0.405694;stroke-linecap:round;stroke-linejoin:round;stroke-dasharray:0.81139, 1.62278"
         d="m 91.258825,84.307909 c 0,0 -4.820795,0.112112 -6.950916,-0.78478 -2.130121,-0.896893 -2.242232,-1.793786 -1.457452,-2.130121 0.784781,-0.336336 0.112112,0.896892 1.569564,1.121116 1.457449,0.224221 6.838804,1.793785 6.838804,1.793785 z"
         id="path15" />
      <path
         style="fill:#ffe4f3;stroke:none;stroke-width:0.405694;stroke-linecap:round;stroke-linejoin:round;stroke-dasharray:0.81139, 1.62278"
         d="m 97.20074,97.424964 c 0,0 1.457452,1.905897 2.9149,1.905897 1.45745,0 1.56956,0.448445 7.39937,-0.224224 5.8298,-0.672669 9.97793,-0.224224 9.97793,-0.224224 0,0 -3.13913,-1.121114 -7.06303,-1.233225 -3.92391,-0.112112 -5.60558,1.681673 -8.52048,0.78478 -2.914905,-0.896892 -4.70869,-1.009004 -4.70869,-1.009004 z"
         id="path16" />
      <path
         style="fill:#ffe4f3;stroke:none;stroke-width:0.405694;stroke-linecap:round;stroke-linejoin:round;stroke-dasharray:0.81139, 1.62278"
         d="m 132.29166,102.46999 c 0,0 4.59658,4.26023 8.40837,5.26924 3.8118,1.009 4.70869,1.68167 7.51148,-0.44845 2.80279,-2.13012 5.60558,-4.26024 2.24223,-3.25123 -3.36335,1.009 -3.9239,3.81179 -8.40837,2.13012 -4.48446,-1.68168 -9.75371,-3.69968 -9.75371,-3.69968 z"
         id="path17" />
      <path
         style="fill:#ffe4f3;stroke:none;stroke-width:0.405694;stroke-linecap:round;stroke-linejoin:round;stroke-dasharray:0.81139, 1.62278"
         d="m 178.36952,90.361933 c 0,0 7.84782,-0.672669 10.76272,-1.681673 2.9149,-1.009005 2.01801,-2.018009 1.34533,-2.130121 -0.67266,-0.112109 0.67268,-0.112109 -3.36334,1.233228 -4.03602,1.34534 -8.74471,2.578566 -8.74471,2.578566 z"
         id="path18" />
      <path
         style="fill:#ffe4f3;stroke:none;stroke-width:0.405694;stroke-linecap:round;stroke-linejoin:round;stroke-dasharray:0.81139, 1.62278"
         d="m 183.19032,76.123762 c 0,0 6.27825,-0.784781 7.17514,-2.018006 0.8969,-1.233228 1.45745,-2.354345 -0.44844,-1.34534 -1.9059,1.009004 -6.7267,3.363346 -6.7267,3.363346 z"
         id="path19" />
      <path
         style="fill:#ffe4f3;stroke:none;stroke-width:0.405694;stroke-linecap:round;stroke-linejoin:round;stroke-dasharray:0.81139, 1.62278"
         d="m 98.658192,72.536192 c 0,0 -3.587573,-0.448445 -4.708686,-1.681673 -1.121117,-1.233228 -1.34534,-1.569561 2.466453,-2.466454 3.811791,-0.896892 7.063031,-2.578568 6.726691,-2.018009 -0.33633,0.560557 -0.11211,0.560557 -2.9149,1.45745 -2.802786,0.896892 -5.717688,1.457452 -4.708683,2.242232 1.009004,0.784781 3.139125,2.466454 3.139125,2.466454 z"
         id="path20" />
    </g>
  </g>
</svg>
