<?xml version="1.0" encoding="UTF-8" standalone="no"?>
<!-- Created with Inkscape (http://www.inkscape.org/) -->

<svg
   width="78.395386mm"
   height="6.5821323mm"
   viewBox="0 0 78.395386 6.5821323"
   version="1.1"
   id="svg1"
   inkscape:version="1.4.1 (1:1.4.1+202503302257+93de688d07)"
   sodipodi:docname="kirby10.svg"
   inkscape:export-filename="kirby1.svg"
   inkscape:export-xdpi="96"
   inkscape:export-ydpi="96"
   xmlns:inkscape="http://www.inkscape.org/namespaces/inkscape"
   xmlns:sodipodi="http://sodipodi.sourceforge.net/DTD/sodipodi-0.dtd"
   xmlns="http://www.w3.org/2000/svg"
   xmlns:svg="http://www.w3.org/2000/svg">
  <sodipodi:namedview
     id="namedview1"
     pagecolor="#ffffff"
     bordercolor="#666666"
     borderopacity="1.0"
     inkscape:showpageshadow="2"
     inkscape:pageopacity="0.0"
     inkscape:pagecheckerboard="0"
     inkscape:deskcolor="#d1d1d1"
     inkscape:document-units="mm"
     inkscape:zoom="2.0433673"
     inkscape:cx="280.90887"
     inkscape:cy="176.91386"
     inkscape:window-width="1850"
     inkscape:window-height="1016"
     inkscape:window-x="0"
     inkscape:window-y="0"
     inkscape:window-maximized="1"
     inkscape:current-layer="layer1">
    <inkscape:page
       x="2.2411081e-22"
       y="0"
       width="78.395386"
       height="6.5821323"
       id="page2"
       margin="0"
       bleed="0" />
  </sodipodi:namedview>
  <defs
     id="defs1">
    <inkscape:path-effect
       effect="spiro"
       id="path-effect1926-1-6-3"
       is_visible="true"
       lpeversion="1" />
  </defs>
  <g
     inkscape:label="Calque 1"
     inkscape:groupmode="layer"
     id="layer1"
     transform="translate(-25.3078,-11.324608)">
    <g
       id="g9276-5-9"
       transform="matrix(0.53140415,0,0,0.53140415,-11.506744,-3.4028737)">
      <path
         style="fill:#4e3d42;stroke:#4e3d42;stroke-width:0.516183;stroke-linecap:round;stroke-linejoin:round;stroke-dasharray:none"
         d="m 76.548448,39.091395 c 0,0 -0.146715,-1.579699 -1.43018,-1.768022 -1.283464,-0.188328 -2.406409,1.516925 -2.422365,1.892289 -0.01596,0.375362 1.076511,0.786607 2.00214,0.561845 0.925632,-0.224765 1.850405,-0.686112 1.850405,-0.686112 z"
         id="path4614-2-6" />
      <path
         style="fill:#4e3d42;stroke:#4e3d42;stroke-width:0.516183;stroke-linecap:round;stroke-linejoin:round;stroke-dasharray:none"
         d="m 77.757033,39.077615 c 0,0 0.146715,-1.579699 1.43018,-1.768022 1.283464,-0.188328 2.406409,1.516925 2.422365,1.892289 0.01596,0.375362 -1.076511,0.786607 -2.00214,0.561845 -0.925632,-0.224765 -1.850405,-0.686112 -1.850405,-0.686112 z"
         id="path4614-6-4-4" />
      <circle
         style="fill:#ffe4f3;stroke:none;stroke-width:0.158887;stroke-linecap:round;stroke-linejoin:round;stroke-dasharray:0.317775, 0.63555"
         id="path2979-00-2"
         cx="77.318161"
         cy="33.335491"
         r="5.5068231" />
      <path
         style="fill:#ffe4f3;stroke:none;stroke-width:0.405694;stroke-linecap:round;stroke-linejoin:round;stroke-dasharray:none"
         d="m 72.119293,32.450407 c 0,0 -1.429356,-1.855044 -2.236766,-1.288409 -0.807413,0.566636 -0.708763,1.293897 -0.27074,1.695976 0.438023,0.402082 2.318755,1.166492 2.318755,1.166492 z"
         id="path4758-6-02" />
      <path
         style="fill:#ffe4f3;stroke:none;stroke-width:0.405694;stroke-linecap:round;stroke-linejoin:round;stroke-dasharray:none"
         d="m 82.460522,32.46428 c 0,0 1.429356,-1.855044 2.236766,-1.288409 0.807413,0.566636 0.708763,1.293897 0.27074,1.695976 -0.438023,0.402082 -2.318755,1.166492 -2.318755,1.166492 z"
         id="path4758-7-8-9" />
      <ellipse
         style="fill:#ffffff;fill-opacity:1;stroke:none;stroke-width:0.508101;stroke-linecap:round;stroke-linejoin:round;stroke-dasharray:none"
         id="path4848-5-5"
         cx="75.344292"
         cy="31.61927"
         rx="1.3891035"
         ry="1.9401169"
         transform="matrix(1.0624179,0,0,1.0624179,-4.7623293,-1.3887527)" />
      <ellipse
         style="fill:#be859d;fill-opacity:1;stroke:none;stroke-width:0.416669;stroke-linecap:round;stroke-linejoin:round;stroke-dasharray:none"
         id="path4848-5-6-4-74"
         cx="75.344849"
         cy="31.613817"
         rx="1.1391362"
         ry="1.5909954"
         transform="matrix(1.0624179,0,0,1.0624179,-4.7623293,-1.3887527)" />
      <ellipse
         style="fill:#ffffff;fill-opacity:1;stroke:none;stroke-width:0.552364;stroke-linecap:round;stroke-linejoin:round;stroke-dasharray:none"
         id="path5041-9-6"
         cx="75.979637"
         cy="31.080627"
         rx="0.43025327"
         ry="0.63098758"
         transform="matrix(1.0624179,0,0,1.0624179,-4.7623293,-1.3887527)" />
      <g
         id="g9095-6-4-49"
         transform="matrix(1.0624179,0,0,1.0624179,-0.73839498,-1.3160541)">
        <ellipse
           style="fill:#ffffff;fill-opacity:1;stroke:none;stroke-width:0.508101;stroke-linecap:round;stroke-linejoin:round;stroke-dasharray:none"
           id="path4848-2-6-1"
           cx="75.344292"
           cy="31.61927"
           rx="1.3891035"
           ry="1.9401169" />
        <ellipse
           style="fill:#be859d;fill-opacity:1;stroke:none;stroke-width:0.416669;stroke-linecap:round;stroke-linejoin:round;stroke-dasharray:none"
           id="path4848-5-6-6-8-2"
           cx="75.344849"
           cy="31.613817"
           rx="1.1391362"
           ry="1.5909954" />
        <ellipse
           style="fill:#ffffff;fill-opacity:1;stroke:none;stroke-width:0.552364;stroke-linecap:round;stroke-linejoin:round;stroke-dasharray:none"
           id="path5041-1-3-31"
           cx="75.979637"
           cy="31.080627"
           rx="0.43025327"
           ry="0.63098758" />
      </g>
      <ellipse
         style="fill:#efa8c6;fill-opacity:1;stroke:none;stroke-width:0.405694;stroke-linecap:round;stroke-linejoin:round;stroke-dasharray:0.81139, 1.62278;stroke-opacity:1"
         id="path1735-2-81"
         cx="74.33345"
         cy="35.786297"
         rx="0.51908678"
         ry="0.64523578" />
      <ellipse
         style="fill:#efa8c6;fill-opacity:1;stroke:none;stroke-width:0.405694;stroke-linecap:round;stroke-linejoin:round;stroke-dasharray:0.81139, 1.62278;stroke-opacity:1"
         id="path1735-9-3-3"
         cx="80.134521"
         cy="35.692791"
         rx="0.51908678"
         ry="0.64523578" />
    </g>
    <g
       id="g9276-5-0-8"
       transform="matrix(0.53140415,0,0,0.53140415,-2.7355972,-3.4049687)">
      <path
         style="fill:#4e3d42;stroke:#4e3d42;stroke-width:0.516183;stroke-linecap:round;stroke-linejoin:round;stroke-dasharray:none"
         d="m 76.548448,39.091395 c 0,0 -0.146715,-1.579699 -1.43018,-1.768022 -1.283464,-0.188328 -2.406409,1.516925 -2.422365,1.892289 -0.01596,0.375362 1.076511,0.786607 2.00214,0.561845 0.925632,-0.224765 1.850405,-0.686112 1.850405,-0.686112 z"
         id="path4614-2-3-9" />
      <path
         style="fill:#4e3d42;stroke:#4e3d42;stroke-width:0.516183;stroke-linecap:round;stroke-linejoin:round;stroke-dasharray:none"
         d="m 77.757033,39.077615 c 0,0 0.146715,-1.579699 1.43018,-1.768022 1.283464,-0.188328 2.406409,1.516925 2.422365,1.892289 0.01596,0.375362 -1.076511,0.786607 -2.00214,0.561845 -0.925632,-0.224765 -1.850405,-0.686112 -1.850405,-0.686112 z"
         id="path4614-6-4-3-2" />
      <circle
         style="fill:#ffe4f3;stroke:none;stroke-width:0.158887;stroke-linecap:round;stroke-linejoin:round;stroke-dasharray:0.317775, 0.63555"
         id="path2979-00-9-4"
         cx="77.318161"
         cy="33.335491"
         r="5.5068231" />
      <path
         style="fill:#ffe4f3;stroke:none;stroke-width:0.405694;stroke-linecap:round;stroke-linejoin:round;stroke-dasharray:none"
         d="m 72.119293,32.450407 c 0,0 -1.429356,-1.855044 -2.236766,-1.288409 -0.807413,0.566636 -0.708763,1.293897 -0.27074,1.695976 0.438023,0.402082 2.318755,1.166492 2.318755,1.166492 z"
         id="path4758-6-0-5" />
      <path
         style="fill:#ffe4f3;stroke:none;stroke-width:0.405694;stroke-linecap:round;stroke-linejoin:round;stroke-dasharray:none"
         d="m 82.460522,32.46428 c 0,0 1.429356,-1.855044 2.236766,-1.288409 0.807413,0.566636 0.708763,1.293897 0.27074,1.695976 -0.438023,0.402082 -2.318755,1.166492 -2.318755,1.166492 z"
         id="path4758-7-8-4-1" />
      <ellipse
         style="fill:#ffffff;fill-opacity:1;stroke:none;stroke-width:0.508101;stroke-linecap:round;stroke-linejoin:round;stroke-dasharray:none"
         id="path4848-5-3-0"
         cx="75.344292"
         cy="31.61927"
         rx="1.3891035"
         ry="1.9401169"
         transform="matrix(1.0624179,0,0,1.0624179,-4.7623293,-1.3887527)" />
      <ellipse
         style="fill:#be859d;fill-opacity:1;stroke:none;stroke-width:0.416669;stroke-linecap:round;stroke-linejoin:round;stroke-dasharray:none"
         id="path4848-5-6-4-3-0"
         cx="75.344849"
         cy="31.613817"
         rx="1.1391362"
         ry="1.5909954"
         transform="matrix(1.0624179,0,0,1.0624179,-4.7623293,-1.3887527)" />
      <ellipse
         style="fill:#ffffff;fill-opacity:1;stroke:none;stroke-width:0.552364;stroke-linecap:round;stroke-linejoin:round;stroke-dasharray:none"
         id="path5041-9-4-1"
         cx="75.979637"
         cy="31.080627"
         rx="0.43025327"
         ry="0.63098758"
         transform="matrix(1.0624179,0,0,1.0624179,-4.7623293,-1.3887527)" />
      <g
         id="g9095-6-4-2-3"
         transform="matrix(1.0624179,0,0,1.0624179,-0.73839498,-1.3160541)">
        <ellipse
           style="fill:#ffffff;fill-opacity:1;stroke:none;stroke-width:0.508101;stroke-linecap:round;stroke-linejoin:round;stroke-dasharray:none"
           id="path4848-2-6-4-3"
           cx="75.344292"
           cy="31.61927"
           rx="1.3891035"
           ry="1.9401169" />
        <ellipse
           style="fill:#be859d;fill-opacity:1;stroke:none;stroke-width:0.416669;stroke-linecap:round;stroke-linejoin:round;stroke-dasharray:none"
           id="path4848-5-6-6-8-5-0"
           cx="75.344849"
           cy="31.613817"
           rx="1.1391362"
           ry="1.5909954" />
        <ellipse
           style="fill:#ffffff;fill-opacity:1;stroke:none;stroke-width:0.552364;stroke-linecap:round;stroke-linejoin:round;stroke-dasharray:none"
           id="path5041-1-3-3-00"
           cx="75.979637"
           cy="31.080627"
           rx="0.43025327"
           ry="0.63098758" />
      </g>
      <ellipse
         style="fill:#efa8c6;fill-opacity:1;stroke:none;stroke-width:0.405694;stroke-linecap:round;stroke-linejoin:round;stroke-dasharray:0.81139, 1.62278;stroke-opacity:1"
         id="path1735-2-8-2"
         cx="74.33345"
         cy="35.786297"
         rx="0.51908678"
         ry="0.64523578" />
      <ellipse
         style="fill:#efa8c6;fill-opacity:1;stroke:none;stroke-width:0.405694;stroke-linecap:round;stroke-linejoin:round;stroke-dasharray:0.81139, 1.62278;stroke-opacity:1"
         id="path1735-9-3-1-2"
         cx="80.134521"
         cy="35.692791"
         rx="0.51908678"
         ry="0.64523578" />
    </g>
    <g
       id="g9276-5-1-2"
       transform="matrix(0.53140415,0,0,0.53140415,6.0373941,-3.4044867)">
      <path
         style="fill:#4e3d42;stroke:#4e3d42;stroke-width:0.516183;stroke-linecap:round;stroke-linejoin:round;stroke-dasharray:none"
         d="m 76.548448,39.091395 c 0,0 -0.146715,-1.579699 -1.43018,-1.768022 -1.283464,-0.188328 -2.406409,1.516925 -2.422365,1.892289 -0.01596,0.375362 1.076511,0.786607 2.00214,0.561845 0.925632,-0.224765 1.850405,-0.686112 1.850405,-0.686112 z"
         id="path4614-2-31-4" />
      <path
         style="fill:#4e3d42;stroke:#4e3d42;stroke-width:0.516183;stroke-linecap:round;stroke-linejoin:round;stroke-dasharray:none"
         d="m 77.757033,39.077615 c 0,0 0.146715,-1.579699 1.43018,-1.768022 1.283464,-0.188328 2.406409,1.516925 2.422365,1.892289 0.01596,0.375362 -1.076511,0.786607 -2.00214,0.561845 -0.925632,-0.224765 -1.850405,-0.686112 -1.850405,-0.686112 z"
         id="path4614-6-4-5-7" />
      <circle
         style="fill:#ffe4f3;stroke:none;stroke-width:0.158887;stroke-linecap:round;stroke-linejoin:round;stroke-dasharray:0.317775, 0.63555"
         id="path2979-00-8-9"
         cx="77.318161"
         cy="33.335491"
         r="5.5068231" />
      <path
         style="fill:#ffe4f3;stroke:none;stroke-width:0.405694;stroke-linecap:round;stroke-linejoin:round;stroke-dasharray:none"
         d="m 72.119293,32.450407 c 0,0 -1.429356,-1.855044 -2.236766,-1.288409 -0.807413,0.566636 -0.708763,1.293897 -0.27074,1.695976 0.438023,0.402082 2.318755,1.166492 2.318755,1.166492 z"
         id="path4758-6-1-8" />
      <path
         style="fill:#ffe4f3;stroke:none;stroke-width:0.405694;stroke-linecap:round;stroke-linejoin:round;stroke-dasharray:none"
         d="m 82.460522,32.46428 c 0,0 1.429356,-1.855044 2.236766,-1.288409 0.807413,0.566636 0.708763,1.293897 0.27074,1.695976 -0.438023,0.402082 -2.318755,1.166492 -2.318755,1.166492 z"
         id="path4758-7-8-3-5" />
      <ellipse
         style="fill:#ffffff;fill-opacity:1;stroke:none;stroke-width:0.508101;stroke-linecap:round;stroke-linejoin:round;stroke-dasharray:none"
         id="path4848-5-39-4"
         cx="75.344292"
         cy="31.61927"
         rx="1.3891035"
         ry="1.9401169"
         transform="matrix(1.0624179,0,0,1.0624179,-4.7623293,-1.3887527)" />
      <ellipse
         style="fill:#be859d;fill-opacity:1;stroke:none;stroke-width:0.416669;stroke-linecap:round;stroke-linejoin:round;stroke-dasharray:none"
         id="path4848-5-6-4-7-7"
         cx="75.344849"
         cy="31.613817"
         rx="1.1391362"
         ry="1.5909954"
         transform="matrix(1.0624179,0,0,1.0624179,-4.7623293,-1.3887527)" />
      <ellipse
         style="fill:#ffffff;fill-opacity:1;stroke:none;stroke-width:0.552364;stroke-linecap:round;stroke-linejoin:round;stroke-dasharray:none"
         id="path5041-9-5-8"
         cx="75.979637"
         cy="31.080627"
         rx="0.43025327"
         ry="0.63098758"
         transform="matrix(1.0624179,0,0,1.0624179,-4.7623293,-1.3887527)" />
      <g
         id="g9095-6-4-4-6"
         transform="matrix(1.0624179,0,0,1.0624179,-0.73839498,-1.3160541)">
        <ellipse
           style="fill:#ffffff;fill-opacity:1;stroke:none;stroke-width:0.508101;stroke-linecap:round;stroke-linejoin:round;stroke-dasharray:none"
           id="path4848-2-6-49-0"
           cx="75.344292"
           cy="31.61927"
           rx="1.3891035"
           ry="1.9401169" />
        <ellipse
           style="fill:#be859d;fill-opacity:1;stroke:none;stroke-width:0.416669;stroke-linecap:round;stroke-linejoin:round;stroke-dasharray:none"
           id="path4848-5-6-6-8-6-0"
           cx="75.344849"
           cy="31.613817"
           rx="1.1391362"
           ry="1.5909954" />
        <ellipse
           style="fill:#ffffff;fill-opacity:1;stroke:none;stroke-width:0.552364;stroke-linecap:round;stroke-linejoin:round;stroke-dasharray:none"
           id="path5041-1-3-7-6"
           cx="75.979637"
           cy="31.080627"
           rx="0.43025327"
           ry="0.63098758" />
      </g>
      <ellipse
         style="fill:#efa8c6;fill-opacity:1;stroke:none;stroke-width:0.405694;stroke-linecap:round;stroke-linejoin:round;stroke-dasharray:0.81139, 1.62278;stroke-opacity:1"
         id="path1735-2-2-4"
         cx="74.33345"
         cy="35.786297"
         rx="0.51908678"
         ry="0.64523578" />
      <ellipse
         style="fill:#efa8c6;fill-opacity:1;stroke:none;stroke-width:0.405694;stroke-linecap:round;stroke-linejoin:round;stroke-dasharray:0.81139, 1.62278;stroke-opacity:1"
         id="path1735-9-3-10-3"
         cx="80.134521"
         cy="35.692791"
         rx="0.51908678"
         ry="0.64523578" />
    </g>
    <g
       id="g9276-5-0-1-7"
       transform="matrix(0.53140415,0,0,0.53140415,14.808553,-3.4065817)">
      <path
         style="fill:#4e3d42;stroke:#4e3d42;stroke-width:0.516183;stroke-linecap:round;stroke-linejoin:round;stroke-dasharray:none"
         d="m 76.548448,39.091395 c 0,0 -0.146715,-1.579699 -1.43018,-1.768022 -1.283464,-0.188328 -2.406409,1.516925 -2.422365,1.892289 -0.01596,0.375362 1.076511,0.786607 2.00214,0.561845 0.925632,-0.224765 1.850405,-0.686112 1.850405,-0.686112 z"
         id="path4614-2-3-3-5" />
      <path
         style="fill:#4e3d42;stroke:#4e3d42;stroke-width:0.516183;stroke-linecap:round;stroke-linejoin:round;stroke-dasharray:none"
         d="m 77.757033,39.077615 c 0,0 0.146715,-1.579699 1.43018,-1.768022 1.283464,-0.188328 2.406409,1.516925 2.422365,1.892289 0.01596,0.375362 -1.076511,0.786607 -2.00214,0.561845 -0.925632,-0.224765 -1.850405,-0.686112 -1.850405,-0.686112 z"
         id="path4614-6-4-3-7-8" />
      <circle
         style="fill:#ffe4f3;stroke:none;stroke-width:0.158887;stroke-linecap:round;stroke-linejoin:round;stroke-dasharray:0.317775, 0.63555"
         id="path2979-00-9-7-1"
         cx="77.318161"
         cy="33.335491"
         r="5.5068231" />
      <path
         style="fill:#ffe4f3;stroke:none;stroke-width:0.405694;stroke-linecap:round;stroke-linejoin:round;stroke-dasharray:none"
         d="m 72.119293,32.450407 c 0,0 -1.429356,-1.855044 -2.236766,-1.288409 -0.807413,0.566636 -0.708763,1.293897 -0.27074,1.695976 0.438023,0.402082 2.318755,1.166492 2.318755,1.166492 z"
         id="path4758-6-0-6-09" />
      <path
         style="fill:#ffe4f3;stroke:none;stroke-width:0.405694;stroke-linecap:round;stroke-linejoin:round;stroke-dasharray:none"
         d="m 82.460522,32.46428 c 0,0 1.429356,-1.855044 2.236766,-1.288409 0.807413,0.566636 0.708763,1.293897 0.27074,1.695976 -0.438023,0.402082 -2.318755,1.166492 -2.318755,1.166492 z"
         id="path4758-7-8-4-3-3" />
      <ellipse
         style="fill:#ffffff;fill-opacity:1;stroke:none;stroke-width:0.508101;stroke-linecap:round;stroke-linejoin:round;stroke-dasharray:none"
         id="path4848-5-3-9-0"
         cx="75.344292"
         cy="31.61927"
         rx="1.3891035"
         ry="1.9401169"
         transform="matrix(1.0624179,0,0,1.0624179,-4.7623293,-1.3887527)" />
      <ellipse
         style="fill:#be859d;fill-opacity:1;stroke:none;stroke-width:0.416669;stroke-linecap:round;stroke-linejoin:round;stroke-dasharray:none"
         id="path4848-5-6-4-3-1-2"
         cx="75.344849"
         cy="31.613817"
         rx="1.1391362"
         ry="1.5909954"
         transform="matrix(1.0624179,0,0,1.0624179,-4.7623293,-1.3887527)" />
      <ellipse
         style="fill:#ffffff;fill-opacity:1;stroke:none;stroke-width:0.552364;stroke-linecap:round;stroke-linejoin:round;stroke-dasharray:none"
         id="path5041-9-4-0-6"
         cx="75.979637"
         cy="31.080627"
         rx="0.43025327"
         ry="0.63098758"
         transform="matrix(1.0624179,0,0,1.0624179,-4.7623293,-1.3887527)" />
      <g
         id="g9095-6-4-2-4-4"
         transform="matrix(1.0624179,0,0,1.0624179,-0.73839498,-1.3160541)">
        <ellipse
           style="fill:#ffffff;fill-opacity:1;stroke:none;stroke-width:0.508101;stroke-linecap:round;stroke-linejoin:round;stroke-dasharray:none"
           id="path4848-2-6-4-1-3"
           cx="75.344292"
           cy="31.61927"
           rx="1.3891035"
           ry="1.9401169" />
        <ellipse
           style="fill:#be859d;fill-opacity:1;stroke:none;stroke-width:0.416669;stroke-linecap:round;stroke-linejoin:round;stroke-dasharray:none"
           id="path4848-5-6-6-8-5-1-8"
           cx="75.344849"
           cy="31.613817"
           rx="1.1391362"
           ry="1.5909954" />
        <ellipse
           style="fill:#ffffff;fill-opacity:1;stroke:none;stroke-width:0.552364;stroke-linecap:round;stroke-linejoin:round;stroke-dasharray:none"
           id="path5041-1-3-3-8-6"
           cx="75.979637"
           cy="31.080627"
           rx="0.43025327"
           ry="0.63098758" />
      </g>
      <ellipse
         style="fill:#efa8c6;fill-opacity:1;stroke:none;stroke-width:0.405694;stroke-linecap:round;stroke-linejoin:round;stroke-dasharray:0.81139, 1.62278;stroke-opacity:1"
         id="path1735-2-8-6-70"
         cx="74.33345"
         cy="35.786297"
         rx="0.51908678"
         ry="0.64523578" />
      <ellipse
         style="fill:#efa8c6;fill-opacity:1;stroke:none;stroke-width:0.405694;stroke-linecap:round;stroke-linejoin:round;stroke-dasharray:0.81139, 1.62278;stroke-opacity:1"
         id="path1735-9-3-1-4-8"
         cx="80.134521"
         cy="35.692791"
         rx="0.51908678"
         ry="0.64523578" />
    </g>
    <g
       id="g9276-5-0-4-2"
       transform="matrix(0.53140415,0,0,0.53140415,40.829239,-3.4620487)">
      <path
         style="fill:#4e3d42;stroke:#4e3d42;stroke-width:0.516183;stroke-linecap:round;stroke-linejoin:round;stroke-dasharray:none"
         d="m 76.548448,39.091395 c 0,0 -0.146715,-1.579699 -1.43018,-1.768022 -1.283464,-0.188328 -2.406409,1.516925 -2.422365,1.892289 -0.01596,0.375362 1.076511,0.786607 2.00214,0.561845 0.925632,-0.224765 1.850405,-0.686112 1.850405,-0.686112 z"
         id="path4614-2-3-7-8" />
      <path
         style="fill:#4e3d42;stroke:#4e3d42;stroke-width:0.516183;stroke-linecap:round;stroke-linejoin:round;stroke-dasharray:none"
         d="m 77.757033,39.077615 c 0,0 0.146715,-1.579699 1.43018,-1.768022 1.283464,-0.188328 2.406409,1.516925 2.422365,1.892289 0.01596,0.375362 -1.076511,0.786607 -2.00214,0.561845 -0.925632,-0.224765 -1.850405,-0.686112 -1.850405,-0.686112 z"
         id="path4614-6-4-3-3-9" />
      <circle
         style="fill:#ffe4f3;stroke:none;stroke-width:0.158887;stroke-linecap:round;stroke-linejoin:round;stroke-dasharray:0.317775, 0.63555"
         id="path2979-00-9-0-5"
         cx="77.318161"
         cy="33.335491"
         r="5.5068231" />
      <path
         style="fill:#ffe4f3;stroke:none;stroke-width:0.405694;stroke-linecap:round;stroke-linejoin:round;stroke-dasharray:none"
         d="m 72.119293,32.450407 c 0,0 -1.429356,-1.855044 -2.236766,-1.288409 -0.807413,0.566636 -0.708763,1.293897 -0.27074,1.695976 0.438023,0.402082 2.318755,1.166492 2.318755,1.166492 z"
         id="path4758-6-0-1-0" />
      <path
         style="fill:#ffe4f3;stroke:none;stroke-width:0.405694;stroke-linecap:round;stroke-linejoin:round;stroke-dasharray:none"
         d="m 82.460522,32.46428 c 0,0 1.429356,-1.855044 2.236766,-1.288409 0.807413,0.566636 0.708763,1.293897 0.27074,1.695976 -0.438023,0.402082 -2.318755,1.166492 -2.318755,1.166492 z"
         id="path4758-7-8-4-6-2" />
      <ellipse
         style="fill:#ffffff;fill-opacity:1;stroke:none;stroke-width:0.508101;stroke-linecap:round;stroke-linejoin:round;stroke-dasharray:none"
         id="path4848-5-3-7-7"
         cx="75.344292"
         cy="31.61927"
         rx="1.3891035"
         ry="1.9401169"
         transform="matrix(1.0624179,0,0,1.0624179,-4.7623293,-1.3887527)" />
      <ellipse
         style="fill:#be859d;fill-opacity:1;stroke:none;stroke-width:0.416669;stroke-linecap:round;stroke-linejoin:round;stroke-dasharray:none"
         id="path4848-5-6-4-3-5-2"
         cx="75.344849"
         cy="31.613817"
         rx="1.1391362"
         ry="1.5909954"
         transform="matrix(1.0624179,0,0,1.0624179,-4.7623293,-1.3887527)" />
      <ellipse
         style="fill:#ffffff;fill-opacity:1;stroke:none;stroke-width:0.552364;stroke-linecap:round;stroke-linejoin:round;stroke-dasharray:none"
         id="path5041-9-4-7-8"
         cx="75.979637"
         cy="31.080627"
         rx="0.43025327"
         ry="0.63098758"
         transform="matrix(1.0624179,0,0,1.0624179,-4.7623293,-1.3887527)" />
      <g
         id="g9095-6-4-2-8-1"
         transform="matrix(1.0624179,0,0,1.0624179,-0.73839498,-1.3160541)">
        <ellipse
           style="fill:#ffffff;fill-opacity:1;stroke:none;stroke-width:0.508101;stroke-linecap:round;stroke-linejoin:round;stroke-dasharray:none"
           id="path4848-2-6-4-8-7"
           cx="75.344292"
           cy="31.61927"
           rx="1.3891035"
           ry="1.9401169" />
        <ellipse
           style="fill:#be859d;fill-opacity:1;stroke:none;stroke-width:0.416669;stroke-linecap:round;stroke-linejoin:round;stroke-dasharray:none"
           id="path4848-5-6-6-8-5-9-7"
           cx="75.344849"
           cy="31.613817"
           rx="1.1391362"
           ry="1.5909954" />
        <ellipse
           style="fill:#ffffff;fill-opacity:1;stroke:none;stroke-width:0.552364;stroke-linecap:round;stroke-linejoin:round;stroke-dasharray:none"
           id="path5041-1-3-3-0-9"
           cx="75.979637"
           cy="31.080627"
           rx="0.43025327"
           ry="0.63098758" />
      </g>
      <ellipse
         style="fill:#efa8c6;fill-opacity:1;stroke:none;stroke-width:0.405694;stroke-linecap:round;stroke-linejoin:round;stroke-dasharray:0.81139, 1.62278;stroke-opacity:1"
         id="path1735-2-8-7-7"
         cx="74.33345"
         cy="35.786297"
         rx="0.51908678"
         ry="0.64523578" />
      <ellipse
         style="fill:#efa8c6;fill-opacity:1;stroke:none;stroke-width:0.405694;stroke-linecap:round;stroke-linejoin:round;stroke-dasharray:0.81139, 1.62278;stroke-opacity:1"
         id="path1735-9-3-1-8-9"
         cx="80.134521"
         cy="35.692791"
         rx="0.51908678"
         ry="0.64523578" />
    </g>
    <g
       id="g9276-5-0-4-2-9"
       transform="matrix(0.53140415,0,0,0.53140415,31.993038,-3.4256837)">
      <path
         style="fill:#4e3d42;stroke:#4e3d42;stroke-width:0.516183;stroke-linecap:round;stroke-linejoin:round;stroke-dasharray:none"
         d="m 76.548448,39.091395 c 0,0 -0.146715,-1.579699 -1.43018,-1.768022 -1.283464,-0.188328 -2.406409,1.516925 -2.422365,1.892289 -0.01596,0.375362 1.076511,0.786607 2.00214,0.561845 0.925632,-0.224765 1.850405,-0.686112 1.850405,-0.686112 z"
         id="path4614-2-3-7-8-3" />
      <path
         style="fill:#4e3d42;stroke:#4e3d42;stroke-width:0.516183;stroke-linecap:round;stroke-linejoin:round;stroke-dasharray:none"
         d="m 77.757033,39.077615 c 0,0 0.146715,-1.579699 1.43018,-1.768022 1.283464,-0.188328 2.406409,1.516925 2.422365,1.892289 0.01596,0.375362 -1.076511,0.786607 -2.00214,0.561845 -0.925632,-0.224765 -1.850405,-0.686112 -1.850405,-0.686112 z"
         id="path4614-6-4-3-3-9-7" />
      <circle
         style="fill:#ffe4f3;stroke:none;stroke-width:0.158887;stroke-linecap:round;stroke-linejoin:round;stroke-dasharray:0.317775, 0.63555"
         id="path2979-00-9-0-5-4"
         cx="77.318161"
         cy="33.335491"
         r="5.5068231" />
      <path
         style="fill:#ffe4f3;stroke:none;stroke-width:0.405694;stroke-linecap:round;stroke-linejoin:round;stroke-dasharray:none"
         d="m 72.119293,32.450407 c 0,0 -1.429356,-1.855044 -2.236766,-1.288409 -0.807413,0.566636 -0.708763,1.293897 -0.27074,1.695976 0.438023,0.402082 2.318755,1.166492 2.318755,1.166492 z"
         id="path4758-6-0-1-0-5" />
      <path
         style="fill:#ffe4f3;stroke:none;stroke-width:0.405694;stroke-linecap:round;stroke-linejoin:round;stroke-dasharray:none"
         d="m 82.460522,32.46428 c 0,0 1.429356,-1.855044 2.236766,-1.288409 0.807413,0.566636 0.708763,1.293897 0.27074,1.695976 -0.438023,0.402082 -2.318755,1.166492 -2.318755,1.166492 z"
         id="path4758-7-8-4-6-2-2" />
      <ellipse
         style="fill:#ffffff;fill-opacity:1;stroke:none;stroke-width:0.508101;stroke-linecap:round;stroke-linejoin:round;stroke-dasharray:none"
         id="path4848-5-3-7-7-54"
         cx="75.344292"
         cy="31.61927"
         rx="1.3891035"
         ry="1.9401169"
         transform="matrix(1.0624179,0,0,1.0624179,-4.7623293,-1.3887527)" />
      <ellipse
         style="fill:#be859d;fill-opacity:1;stroke:none;stroke-width:0.416669;stroke-linecap:round;stroke-linejoin:round;stroke-dasharray:none"
         id="path4848-5-6-4-3-5-2-7"
         cx="75.344849"
         cy="31.613817"
         rx="1.1391362"
         ry="1.5909954"
         transform="matrix(1.0624179,0,0,1.0624179,-4.7623293,-1.3887527)" />
      <ellipse
         style="fill:#ffffff;fill-opacity:1;stroke:none;stroke-width:0.552364;stroke-linecap:round;stroke-linejoin:round;stroke-dasharray:none"
         id="path5041-9-4-7-8-4"
         cx="75.979637"
         cy="31.080627"
         rx="0.43025327"
         ry="0.63098758"
         transform="matrix(1.0624179,0,0,1.0624179,-4.7623293,-1.3887527)" />
      <g
         id="g9095-6-4-2-8-1-43"
         transform="matrix(1.0624179,0,0,1.0624179,-0.73839498,-1.3160541)">
        <ellipse
           style="fill:#ffffff;fill-opacity:1;stroke:none;stroke-width:0.508101;stroke-linecap:round;stroke-linejoin:round;stroke-dasharray:none"
           id="path4848-2-6-4-8-7-0"
           cx="75.344292"
           cy="31.61927"
           rx="1.3891035"
           ry="1.9401169" />
        <ellipse
           style="fill:#be859d;fill-opacity:1;stroke:none;stroke-width:0.416669;stroke-linecap:round;stroke-linejoin:round;stroke-dasharray:none"
           id="path4848-5-6-6-8-5-9-7-7"
           cx="75.344849"
           cy="31.613817"
           rx="1.1391362"
           ry="1.5909954" />
        <ellipse
           style="fill:#ffffff;fill-opacity:1;stroke:none;stroke-width:0.552364;stroke-linecap:round;stroke-linejoin:round;stroke-dasharray:none"
           id="path5041-1-3-3-0-9-8"
           cx="75.979637"
           cy="31.080627"
           rx="0.43025327"
           ry="0.63098758" />
      </g>
      <ellipse
         style="fill:#efa8c6;fill-opacity:1;stroke:none;stroke-width:0.405694;stroke-linecap:round;stroke-linejoin:round;stroke-dasharray:0.81139, 1.62278;stroke-opacity:1"
         id="path1735-2-8-7-7-6"
         cx="74.33345"
         cy="35.786297"
         rx="0.51908678"
         ry="0.64523578" />
      <ellipse
         style="fill:#efa8c6;fill-opacity:1;stroke:none;stroke-width:0.405694;stroke-linecap:round;stroke-linejoin:round;stroke-dasharray:0.81139, 1.62278;stroke-opacity:1"
         id="path1735-9-3-1-8-9-8"
         cx="80.134521"
         cy="35.692791"
         rx="0.51908678"
         ry="0.64523578" />
    </g>
    <g
       id="g9276-5-1-0-8"
       transform="matrix(0.53140415,0,0,0.53140415,49.602219,-3.4615667)">
      <path
         style="fill:#4e3d42;stroke:#4e3d42;stroke-width:0.516183;stroke-linecap:round;stroke-linejoin:round;stroke-dasharray:none"
         d="m 76.548448,39.091395 c 0,0 -0.146715,-1.579699 -1.43018,-1.768022 -1.283464,-0.188328 -2.406409,1.516925 -2.422365,1.892289 -0.01596,0.375362 1.076511,0.786607 2.00214,0.561845 0.925632,-0.224765 1.850405,-0.686112 1.850405,-0.686112 z"
         id="path4614-2-31-3-8" />
      <path
         style="fill:#4e3d42;stroke:#4e3d42;stroke-width:0.516183;stroke-linecap:round;stroke-linejoin:round;stroke-dasharray:none"
         d="m 77.757033,39.077615 c 0,0 0.146715,-1.579699 1.43018,-1.768022 1.283464,-0.188328 2.406409,1.516925 2.422365,1.892289 0.01596,0.375362 -1.076511,0.786607 -2.00214,0.561845 -0.925632,-0.224765 -1.850405,-0.686112 -1.850405,-0.686112 z"
         id="path4614-6-4-5-1-9" />
      <circle
         style="fill:#ffe4f3;stroke:none;stroke-width:0.158887;stroke-linecap:round;stroke-linejoin:round;stroke-dasharray:0.317775, 0.63555"
         id="path2979-00-8-0-8"
         cx="77.318161"
         cy="33.335491"
         r="5.5068231" />
      <path
         style="fill:#ffe4f3;stroke:none;stroke-width:0.405694;stroke-linecap:round;stroke-linejoin:round;stroke-dasharray:none"
         d="m 72.119293,32.450407 c 0,0 -1.429356,-1.855044 -2.236766,-1.288409 -0.807413,0.566636 -0.708763,1.293897 -0.27074,1.695976 0.438023,0.402082 2.318755,1.166492 2.318755,1.166492 z"
         id="path4758-6-1-3-0" />
      <path
         style="fill:#ffe4f3;stroke:none;stroke-width:0.405694;stroke-linecap:round;stroke-linejoin:round;stroke-dasharray:none"
         d="m 82.460522,32.46428 c 0,0 1.429356,-1.855044 2.236766,-1.288409 0.807413,0.566636 0.708763,1.293897 0.27074,1.695976 -0.438023,0.402082 -2.318755,1.166492 -2.318755,1.166492 z"
         id="path4758-7-8-3-6-5" />
      <ellipse
         style="fill:#ffffff;fill-opacity:1;stroke:none;stroke-width:0.508101;stroke-linecap:round;stroke-linejoin:round;stroke-dasharray:none"
         id="path4848-5-39-7-2"
         cx="75.344292"
         cy="31.61927"
         rx="1.3891035"
         ry="1.9401169"
         transform="matrix(1.0624179,0,0,1.0624179,-4.7623293,-1.3887527)" />
      <ellipse
         style="fill:#be859d;fill-opacity:1;stroke:none;stroke-width:0.416669;stroke-linecap:round;stroke-linejoin:round;stroke-dasharray:none"
         id="path4848-5-6-4-7-3-0"
         cx="75.344849"
         cy="31.613817"
         rx="1.1391362"
         ry="1.5909954"
         transform="matrix(1.0624179,0,0,1.0624179,-4.7623293,-1.3887527)" />
      <ellipse
         style="fill:#ffffff;fill-opacity:1;stroke:none;stroke-width:0.552364;stroke-linecap:round;stroke-linejoin:round;stroke-dasharray:none"
         id="path5041-9-5-2-2"
         cx="75.979637"
         cy="31.080627"
         rx="0.43025327"
         ry="0.63098758"
         transform="matrix(1.0624179,0,0,1.0624179,-4.7623293,-1.3887527)" />
      <g
         id="g9095-6-4-4-2-4"
         transform="matrix(1.0624179,0,0,1.0624179,-0.73839498,-1.3160541)">
        <ellipse
           style="fill:#ffffff;fill-opacity:1;stroke:none;stroke-width:0.508101;stroke-linecap:round;stroke-linejoin:round;stroke-dasharray:none"
           id="path4848-2-6-49-1-3"
           cx="75.344292"
           cy="31.61927"
           rx="1.3891035"
           ry="1.9401169" />
        <ellipse
           style="fill:#be859d;fill-opacity:1;stroke:none;stroke-width:0.416669;stroke-linecap:round;stroke-linejoin:round;stroke-dasharray:none"
           id="path4848-5-6-6-8-6-5-7"
           cx="75.344849"
           cy="31.613817"
           rx="1.1391362"
           ry="1.5909954" />
        <ellipse
           style="fill:#ffffff;fill-opacity:1;stroke:none;stroke-width:0.552364;stroke-linecap:round;stroke-linejoin:round;stroke-dasharray:none"
           id="path5041-1-3-7-3-3"
           cx="75.979637"
           cy="31.080627"
           rx="0.43025327"
           ry="0.63098758" />
      </g>
      <ellipse
         style="fill:#efa8c6;fill-opacity:1;stroke:none;stroke-width:0.405694;stroke-linecap:round;stroke-linejoin:round;stroke-dasharray:0.81139, 1.62278;stroke-opacity:1"
         id="path1735-2-2-3-0"
         cx="74.33345"
         cy="35.786297"
         rx="0.51908678"
         ry="0.64523578" />
      <ellipse
         style="fill:#efa8c6;fill-opacity:1;stroke:none;stroke-width:0.405694;stroke-linecap:round;stroke-linejoin:round;stroke-dasharray:0.81139, 1.62278;stroke-opacity:1"
         id="path1735-9-3-10-8-0"
         cx="80.134521"
         cy="35.692791"
         rx="0.51908678"
         ry="0.64523578" />
    </g>
    <g
       id="g9276-5-0-1-2-1"
       transform="matrix(0.53140415,0,0,0.53140415,58.373377,-3.4636627)">
      <path
         style="fill:#4e3d42;stroke:#4e3d42;stroke-width:0.516183;stroke-linecap:round;stroke-linejoin:round;stroke-dasharray:none"
         d="m 76.548448,39.091395 c 0,0 -0.146715,-1.579699 -1.43018,-1.768022 -1.283464,-0.188328 -2.406409,1.516925 -2.422365,1.892289 -0.01596,0.375362 1.076511,0.786607 2.00214,0.561845 0.925632,-0.224765 1.850405,-0.686112 1.850405,-0.686112 z"
         id="path4614-2-3-3-8-5" />
      <path
         style="fill:#4e3d42;stroke:#4e3d42;stroke-width:0.516183;stroke-linecap:round;stroke-linejoin:round;stroke-dasharray:none"
         d="m 77.757033,39.077615 c 0,0 0.146715,-1.579699 1.43018,-1.768022 1.283464,-0.188328 2.406409,1.516925 2.422365,1.892289 0.01596,0.375362 -1.076511,0.786607 -2.00214,0.561845 -0.925632,-0.224765 -1.850405,-0.686112 -1.850405,-0.686112 z"
         id="path4614-6-4-3-7-5-8" />
      <circle
         style="fill:#ffe4f3;stroke:none;stroke-width:0.158887;stroke-linecap:round;stroke-linejoin:round;stroke-dasharray:0.317775, 0.63555"
         id="path2979-00-9-7-8-0"
         cx="77.318161"
         cy="33.335491"
         r="5.5068231" />
      <path
         style="fill:#ffe4f3;stroke:none;stroke-width:0.405694;stroke-linecap:round;stroke-linejoin:round;stroke-dasharray:none"
         d="m 72.119293,32.450407 c 0,0 -1.429356,-1.855044 -2.236766,-1.288409 -0.807413,0.566636 -0.708763,1.293897 -0.27074,1.695976 0.438023,0.402082 2.318755,1.166492 2.318755,1.166492 z"
         id="path4758-6-0-6-0-0" />
      <path
         style="fill:#ffe4f3;stroke:none;stroke-width:0.405694;stroke-linecap:round;stroke-linejoin:round;stroke-dasharray:none"
         d="m 82.460522,32.46428 c 0,0 1.429356,-1.855044 2.236766,-1.288409 0.807413,0.566636 0.708763,1.293897 0.27074,1.695976 -0.438023,0.402082 -2.318755,1.166492 -2.318755,1.166492 z"
         id="path4758-7-8-4-3-8-0" />
      <ellipse
         style="fill:#ffffff;fill-opacity:1;stroke:none;stroke-width:0.508101;stroke-linecap:round;stroke-linejoin:round;stroke-dasharray:none"
         id="path4848-5-3-9-6-4"
         cx="75.344292"
         cy="31.61927"
         rx="1.3891035"
         ry="1.9401169"
         transform="matrix(1.0624179,0,0,1.0624179,-4.7623293,-1.3887527)" />
      <ellipse
         style="fill:#be859d;fill-opacity:1;stroke:none;stroke-width:0.416669;stroke-linecap:round;stroke-linejoin:round;stroke-dasharray:none"
         id="path4848-5-6-4-3-1-9-7"
         cx="75.344849"
         cy="31.613817"
         rx="1.1391362"
         ry="1.5909954"
         transform="matrix(1.0624179,0,0,1.0624179,-4.7623293,-1.3887527)" />
      <ellipse
         style="fill:#ffffff;fill-opacity:1;stroke:none;stroke-width:0.552364;stroke-linecap:round;stroke-linejoin:round;stroke-dasharray:none"
         id="path5041-9-4-0-3-5"
         cx="75.979637"
         cy="31.080627"
         rx="0.43025327"
         ry="0.63098758"
         transform="matrix(1.0624179,0,0,1.0624179,-4.7623293,-1.3887527)" />
      <g
         id="g9095-6-4-2-4-3-3"
         transform="matrix(1.0624179,0,0,1.0624179,-0.73839498,-1.3160541)">
        <ellipse
           style="fill:#ffffff;fill-opacity:1;stroke:none;stroke-width:0.508101;stroke-linecap:round;stroke-linejoin:round;stroke-dasharray:none"
           id="path4848-2-6-4-1-7-1"
           cx="75.344292"
           cy="31.61927"
           rx="1.3891035"
           ry="1.9401169" />
        <ellipse
           style="fill:#be859d;fill-opacity:1;stroke:none;stroke-width:0.416669;stroke-linecap:round;stroke-linejoin:round;stroke-dasharray:none"
           id="path4848-5-6-6-8-5-1-4-4"
           cx="75.344849"
           cy="31.613817"
           rx="1.1391362"
           ry="1.5909954" />
        <ellipse
           style="fill:#ffffff;fill-opacity:1;stroke:none;stroke-width:0.552364;stroke-linecap:round;stroke-linejoin:round;stroke-dasharray:none"
           id="path5041-1-3-3-8-3-2"
           cx="75.979637"
           cy="31.080627"
           rx="0.43025327"
           ry="0.63098758" />
      </g>
      <ellipse
         style="fill:#efa8c6;fill-opacity:1;stroke:none;stroke-width:0.405694;stroke-linecap:round;stroke-linejoin:round;stroke-dasharray:0.81139, 1.62278;stroke-opacity:1"
         id="path1735-2-8-6-7-0"
         cx="74.33345"
         cy="35.786297"
         rx="0.51908678"
         ry="0.64523578" />
      <ellipse
         style="fill:#efa8c6;fill-opacity:1;stroke:none;stroke-width:0.405694;stroke-linecap:round;stroke-linejoin:round;stroke-dasharray:0.81139, 1.62278;stroke-opacity:1"
         id="path1735-9-3-1-4-1-1"
         cx="80.134521"
         cy="35.692791"
         rx="0.51908678"
         ry="0.64523578" />
    </g>
    <g
       id="g9276-7-2-3"
       transform="matrix(0.53140415,0,0,0.53140415,23.455419,-3.4060687)">
      <path
         style="fill:#a5324b;stroke:none;stroke-width:0.405694;stroke-linecap:round;stroke-linejoin:round;stroke-dasharray:none"
         d="m 82.151135,35.259895 c 0,0 1.429356,1.855044 2.236766,1.288409 0.807413,-0.566636 0.708763,-1.293897 0.27074,-1.695976 -0.438023,-0.402082 -2.318755,-1.166492 -2.318755,-1.166492 z"
         id="path4758-7-3-2-0" />
      <path
         style="fill:#4e3d42;stroke:#4e3d42;stroke-width:0.516183;stroke-linecap:round;stroke-linejoin:round;stroke-dasharray:none"
         d="m 76.548448,39.091395 c 0,0 -0.146715,-1.579699 -1.43018,-1.768022 -1.283464,-0.188328 -2.406409,1.516925 -2.422365,1.892289 -0.01596,0.375362 1.076511,0.786607 2.00214,0.561845 0.925632,-0.224765 1.850405,-0.686112 1.850405,-0.686112 z"
         id="path4614-9-4-0" />
      <path
         style="fill:#4e3d42;stroke:#4e3d42;stroke-width:0.516183;stroke-linecap:round;stroke-linejoin:round;stroke-dasharray:none"
         d="m 77.757033,39.077615 c 0,0 0.146715,-1.579699 1.43018,-1.768022 1.283464,-0.188328 2.406409,1.516925 2.422365,1.892289 0.01596,0.375362 -1.076511,0.786607 -2.00214,0.561845 -0.925632,-0.224765 -1.850405,-0.686112 -1.850405,-0.686112 z"
         id="path4614-6-2-7-4" />
      <circle
         style="fill:#a5324b;stroke:none;stroke-width:0.158887;stroke-linecap:round;stroke-linejoin:round;stroke-dasharray:0.317775, 0.63555"
         id="path2979-0-0-8"
         cx="77.318161"
         cy="33.335491"
         r="5.5068231" />
      <path
         style="fill:#a5324b;stroke:none;stroke-width:0.405694;stroke-linecap:round;stroke-linejoin:round;stroke-dasharray:none"
         d="m 72.445672,35.22356 c 0,0 -1.429356,1.855044 -2.236766,1.288409 -0.807413,-0.566636 -0.708763,-1.293897 -0.27074,-1.695976 0.438023,-0.402082 2.318755,-1.166492 2.318755,-1.166492 z"
         id="path4758-2-4-2" />
      <g
         id="g10477-9-2"
         transform="translate(-0.24644306,-0.09722896)">
        <ellipse
           style="fill:#ffffff;fill-opacity:1;stroke:none;stroke-width:0.539816;stroke-linecap:round;stroke-linejoin:round;stroke-dasharray:none"
           id="path4848-9-6-0"
           cx="75.403954"
           cy="32.008835"
           rx="1.4758085"
           ry="2.0612149" />
        <ellipse
           style="fill:#a5324b;fill-opacity:1;stroke:none;stroke-width:0.442677;stroke-linecap:round;stroke-linejoin:round;stroke-dasharray:none"
           id="path4848-5-6-3-5-2"
           cx="75.404541"
           cy="32.00304"
           rx="1.2102387"
           ry="1.690302" />
        <ellipse
           style="fill:#ffffff;fill-opacity:1;stroke:none;stroke-width:0.586841;stroke-linecap:round;stroke-linejoin:round;stroke-dasharray:none"
           id="path5041-19-4-4"
           cx="76.078957"
           cy="31.436567"
           rx="0.45710877"
           ry="0.67037249" />
      </g>
      <g
         id="g10477-3-6-5"
         transform="translate(3.6673659,-0.03859593)">
        <ellipse
           style="fill:#ffffff;fill-opacity:1;stroke:none;stroke-width:0.539816;stroke-linecap:round;stroke-linejoin:round;stroke-dasharray:none"
           id="path4848-9-5-4-8"
           cx="75.403954"
           cy="32.008835"
           rx="1.4758085"
           ry="2.0612149" />
        <ellipse
           style="fill:#a5324b;fill-opacity:1;stroke:none;stroke-width:0.442677;stroke-linecap:round;stroke-linejoin:round;stroke-dasharray:none"
           id="path4848-5-6-3-6-2-4"
           cx="75.404541"
           cy="32.00304"
           rx="1.2102387"
           ry="1.690302" />
        <ellipse
           style="fill:#ffffff;fill-opacity:1;stroke:none;stroke-width:0.586841;stroke-linecap:round;stroke-linejoin:round;stroke-dasharray:none"
           id="path5041-19-2-5-0"
           cx="76.078957"
           cy="31.436567"
           rx="0.45710877"
           ry="0.67037249" />
      </g>
      <path
         style="fill:#ffffff;fill-opacity:1;stroke:none;stroke-width:0.0242538;stroke-linecap:round;stroke-linejoin:round;stroke-dasharray:none;stroke-opacity:1"
         d="m 73.178574,33.149142 c 0.834703,-0.533416 1.760426,-0.92204 2.729975,-1.128225 0.666917,-0.176159 1.367208,-0.396551 2.057192,-0.201963 0.926004,0.210619 1.859593,0.429463 2.735079,0.80382 0.315188,0.169482 0.714023,0.274378 0.906922,0.597695 0.170659,0.437742 0.07919,0.921316 0.09989,1.380322 -0.01116,0.577264 -0.0066,1.157886 -0.06561,1.731685 -0.165367,0.329113 -0.568404,0.437862 -0.870986,0.613666 -0.805114,0.37066 -1.675963,0.568362 -2.522552,0.82084 -0.842495,0.292178 -1.74997,0.07907 -2.56271,-0.207583 -0.838485,-0.286009 -1.683407,-0.561264 -2.496394,-0.914648 -0.196506,-0.303198 -0.18252,-0.720377 -0.236341,-1.077304 -0.03583,-0.738012 -0.0038,-1.484051 0.103262,-2.214854 0.03003,-0.07354 0.07306,-0.141308 0.122271,-0.203451 z"
         id="path10237-1-8" />
      <path
         style="fill:#ffffff;fill-opacity:1;stroke:none;stroke-width:0.216662;stroke-linecap:round;stroke-linejoin:round;stroke-dasharray:none;stroke-opacity:1"
         d="m 81.379012,33.347248 c 0,0 0.515175,-0.116248 0.91063,-0.207394 0.395457,-0.09115 0.745853,-0.555331 0.745853,-0.555331 l 0.04553,0.519461 c 0,0 -0.08312,0.141545 -0.364176,0.273443 -0.281055,0.131895 -1.02907,0.339708 -1.203417,0.339708 -0.174349,0 -0.134422,-0.369887 -0.134421,-0.369887 z"
         id="path10293-6-4" />
      <path
         style="fill:#ffffff;fill-opacity:1;stroke:none;stroke-width:0.216662;stroke-linecap:round;stroke-linejoin:round;stroke-dasharray:none;stroke-opacity:1"
         d="m 81.47027,36.333227 c 0,0 0.0552,0.171224 0.236732,0.24263 0.181539,0.07141 0.401874,0.100012 0.401874,0.100012 l 0.222486,-0.323536 c 0,0 -0.05491,0.05064 -0.243969,0 -0.189057,-0.05063 -0.504765,-0.242144 -0.504765,-0.242144 z"
         id="path10295-1-2" />
      <path
         style="fill:#ffffff;fill-opacity:1;stroke:none;stroke-width:0.216662;stroke-linecap:round;stroke-linejoin:round;stroke-dasharray:none;stroke-opacity:1"
         d="m 73.418074,33.400668 c 0,0 -0.515175,-0.116248 -0.91063,-0.207394 -0.395457,-0.09115 -0.745853,-0.555332 -0.745853,-0.555332 l -0.04553,0.519461 c 0,0 0.08312,0.141546 0.364176,0.273444 0.281055,0.131895 1.02907,0.339708 1.203417,0.339708 0.174349,0 0.134422,-0.369887 0.134421,-0.369887 z"
         id="path10293-1-3-5" />
      <path
         style="fill:#ffffff;fill-opacity:1;stroke:none;stroke-width:0.216662;stroke-linecap:round;stroke-linejoin:round;stroke-dasharray:none;stroke-opacity:1"
         d="m 73.326816,36.386647 c 0,0 -0.0552,0.171224 -0.236732,0.24263 -0.181539,0.07141 -0.401874,0.100012 -0.401874,0.100012 l -0.222486,-0.323537 c 0,0 0.05491,0.05064 0.243969,0 0.189057,-0.05063 0.504765,-0.242144 0.504765,-0.242144 z"
         id="path10295-2-7-4" />
      <path
         style="fill:none;fill-opacity:1;stroke:#e6e6e6;stroke-width:0.206;stroke-linecap:round;stroke-linejoin:round;stroke-dasharray:none;stroke-dashoffset:0;stroke-opacity:1"
         d="m 73.903918,33.504514 c 0.795707,-0.113896 1.58529,-0.270562 2.364203,-0.469096 0.25921,-0.06607 0.518317,-0.13698 0.783957,-0.168447 0.357841,-0.04239 0.721252,-0.01222 1.075651,0.05296 0.53736,0.09883 1.056301,0.277006 1.581885,0.426285 0.419013,0.11901 0.843181,0.219871 1.270916,0.302204"
         id="path1924-7-2"
         sodipodi:nodetypes="cssssc"
         inkscape:original-d="m 73.903918,33.504514 c 0.788331,-0.156102 1.576398,-0.312465 2.364203,-0.469096 0.787802,-0.156631 0.51477,-0.143527 0.783957,-0.168447 0.26919,-0.02492 0.717365,0.03557 1.075651,0.05296 0.358285,0.01738 1.062987,0.315954 1.581885,0.426285 0.518896,0.110331 0.847543,0.201734 1.270916,0.302204"
         inkscape:path-effect="#path-effect1926-1-6-3" />
    </g>
  </g>
</svg>
