<?xml version="1.0" encoding="UTF-8" standalone="no"?>
<svg
   width="459.82004pt"
   height="449.31616pt"
   viewBox="0 0 459.82004 449.31618"
   version="1.2"
   id="svg4414"
   sodipodi:docname="LHLModel.svg"
   inkscape:export-filename="/home/psm/Documents/these_git/these/Soutenance/LHLModel.svg"
   inkscape:export-xdpi="96"
   inkscape:export-ydpi="96"
   inkscape:version="1.2.2 (1:1.2.2+202212051552+b0a8486541)"
   xmlns:inkscape="http://www.inkscape.org/namespaces/inkscape"
   xmlns:sodipodi="http://sodipodi.sourceforge.net/DTD/sodipodi-0.dtd"
   xmlns:xlink="http://www.w3.org/1999/xlink"
   xmlns="http://www.w3.org/2000/svg"
   xmlns:svg="http://www.w3.org/2000/svg">
  <sodipodi:namedview
     id="namedview4416"
     pagecolor="#ffffff"
     bordercolor="#000000"
     borderopacity="0.25"
     inkscape:showpageshadow="2"
     inkscape:pageopacity="0.0"
     inkscape:pagecheckerboard="0"
     inkscape:deskcolor="#d1d1d1"
     inkscape:document-units="pt"
     showgrid="false"
     inkscape:zoom="0.67828316"
     inkscape:cx="331.71987"
     inkscape:cy="379.63496"
     inkscape:window-width="1846"
     inkscape:window-height="1016"
     inkscape:window-x="1154"
     inkscape:window-y="27"
     inkscape:window-maximized="1"
     inkscape:current-layer="svg4414">
    <inkscape:page
       x="0"
       y="-5.963135e-14"
       width="459.82004"
       height="449.31616"
       id="page2"
       margin="0"
       bleed="0" />
  </sodipodi:namedview>
  <defs
     id="defs4345">
    <filter
       id="alpha"
       filterUnits="objectBoundingBox"
       x="0"
       y="0"
       width="1"
       height="1">
      <feColorMatrix
         type="matrix"
         in="SourceGraphic"
         values="0 0 0 0 1 0 0 0 0 1 0 0 0 0 1 0 0 0 1 0"
         id="feColorMatrix4237" />
    </filter>
    <mask
       id="mask0">
      <g
         filter="url(#alpha)"
         id="g4242">
        <rect
           x="0"
           y="0"
           width="497.93262"
           height="483.12448"
           style="fill:#000000;fill-opacity:0.394513;stroke:none"
           id="rect4240" />
      </g>
    </mask>
    <clipPath
       id="clip1">
      <rect
         x="0"
         y="0"
         width="498"
         height="484"
         id="rect4245" />
    </clipPath>
    <g
       id="surface145640"
       clip-path="url(#clip1)">
      <path
         style="fill:#ffe3f3;fill-opacity:1;fill-rule:nonzero;stroke:#000000;stroke-width:1.3552;stroke-linecap:round;stroke-linejoin:round;stroke-miterlimit:4;stroke-opacity:1"
         d="m 213.87891,365.40234 c 0,12.53907 -10.16407,22.70703 -22.70704,22.70703 -12.53906,0 -22.70703,-10.16796 -22.70703,-22.70703 0,-12.54297 10.16797,-22.70703 22.70703,-22.70703 12.54297,0 22.70704,10.16406 22.70704,22.70703 z m 0,0"
         id="path4248" />
    </g>
    <mask
       id="mask2">
      <g
         filter="url(#alpha)"
         id="g4269">
        <rect
           x="0"
           y="0"
           width="497.93262"
           height="483.12448"
           style="fill:#000000;fill-opacity:0.928888;stroke:none"
           id="rect4267" />
      </g>
    </mask>
    <clipPath
       id="clip4">
      <rect
         x="0"
         y="0"
         width="498"
         height="484"
         id="rect4272" />
    </clipPath>
    <g
       id="surface145646"
       clip-path="url(#clip4)">
      <path
         style="fill:none;stroke:#a3304a;stroke-width:1.53354;stroke-linecap:round;stroke-linejoin:round;stroke-miterlimit:4;stroke-opacity:1"
         d="m 225.42969,250.92578 c -2.96094,0.875 -5.91797,1.75391 -6.96485,2.94531 -1.04687,1.19141 -0.18359,2.69532 -0.57422,4.21875 -0.38671,1.52344 -2.02343,3.0625 -3.69531,3.30469 -1.66797,0.24609 -3.375,-0.80078 -4.80469,-1.86328 -1.42968,-1.0625 -2.58984,-2.14063 -4.48437,-1.35156 -1.89063,0.79297 -4.52344,3.44922 -6.01953,6.63281 -1.5,3.17969 -1.86719,6.88672 -0.76563,11.02734 1.09766,4.14453 3.66797,8.73047 6.94922,9.64453 3.28125,0.91797 7.28125,-1.83203 11.28125,-3.39453 4,-1.55859 8,-1.92578 8.82813,0.82422 0.82422,2.75 -1.52344,8.61719 -4.55469,11.1836 -3.03516,2.5664 -6.75391,1.83203 -11.25781,0.91406 -4.50391,-0.91797 -9.78907,-2.01563 -14.6211,-2.125 -4.83593,-0.11328 -9.21875,0.76562 -9.48437,3.39844 -0.26563,2.63281 3.58594,7.02734 5.02734,10.03515 1.44141,3.01172 0.47656,4.64063 -2.14453,5.45313 -2.61719,0.8164 -6.89062,0.8164 -8.10547,3.10937 -1.21875,2.29297 0.625,6.875 3.70703,9.42969 3.07813,2.55859 7.39844,3.08594 9.46485,4.44141 2.07031,1.35546 1.88672,3.53515 1.70703,5.71093"
         id="path4275" />
      <path
         style="fill:#a3304a;fill-opacity:1;fill-rule:evenodd;stroke:#a3304a;stroke-width:1.01884;stroke-linecap:butt;stroke-linejoin:miter;stroke-miterlimit:4;stroke-opacity:1"
         d="m 320.47173,-221.21179 -6.61193,3.8196 10e-4,-7.64071 z m 0,0"
         transform="matrix(-0.083193,1,-1,-0.083193,0,0)"
         id="path4277" />
    </g>
    <mask
       id="mask3">
      <g
         filter="url(#alpha)"
         id="g4282">
        <rect
           x="0"
           y="0"
           width="497.93262"
           height="483.12448"
           style="fill:#000000;fill-opacity:0.928888;stroke:none"
           id="rect4280" />
      </g>
    </mask>
    <clipPath
       id="clip5">
      <rect
         x="0"
         y="0"
         width="498"
         height="484"
         id="rect4285" />
    </clipPath>
    <g
       id="surface145649"
       clip-path="url(#clip5)">
      <path
         style="fill:none;stroke:#000000;stroke-width:1.53354;stroke-linecap:round;stroke-linejoin:round;stroke-miterlimit:4;stroke-opacity:1"
         d="m 219.66016,363.5625 c 11.17187,0.97656 22.60156,-1.21094 32.6289,-6.23438 10.02735,-5.02343 18.61719,-12.875 24.52344,-22.40625 6.48828,-10.47656 9.69531,-22.95312 9.0625,-35.26171 -0.63281,-12.30469 -5.10156,-24.38672 -12.63281,-34.14063"
         id="path4288" />
      <path
         style="fill:#000000;fill-opacity:1;fill-rule:evenodd;stroke:#000000;stroke-width:0.809269;stroke-linecap:butt;stroke-linejoin:miter;stroke-miterlimit:4;stroke-opacity:1"
         d="m -295.03726,42.775021 -5.25289,3.034695 0.002,-6.06906 z m 0,0"
         transform="matrix(-0.771984,-1,1,-0.771984,0,0)"
         id="path4290" />
    </g>
  </defs>
  <g
     id="surface145636"
     transform="translate(-11.666152,-16.177874)">
    <path
       style="fill:#ffe3f3;fill-opacity:1;fill-rule:nonzero;stroke:#000000;stroke-width:1.3552;stroke-linecap:round;stroke-linejoin:round;stroke-miterlimit:4;stroke-opacity:1"
       d="m 274.25391,240.36719 c 0,12.53906 -10.16797,22.70703 -22.70704,22.70703 -12.54296,0 -22.70703,-10.16797 -22.70703,-22.70703 0,-12.54297 10.16407,-22.70703 22.70703,-22.70703 12.53907,0 22.70704,10.16406 22.70704,22.70703 z m 0,0"
       id="path4347" />
    <use
       xlink:href="#surface145640"
       mask="url(#mask0)"
       id="use4349" />
    <path
       style="fill:#ffe3f3;fill-opacity:1;fill-rule:nonzero;stroke:#000000;stroke-width:1.3552;stroke-linecap:round;stroke-linejoin:round;stroke-miterlimit:4;stroke-opacity:1"
       d="m 159.95312,130.66016 c 0,12.53906 -10.16406,22.70703 -22.70703,22.70703 -12.53906,0 -22.70703,-10.16797 -22.70703,-22.70703 0,-12.54297 10.16797,-22.70703 22.70703,-22.70703 12.54297,0 22.70703,10.16406 22.70703,22.70703 z m 0,0"
       id="path4351" />
    <path
       style="fill:#a3304a;fill-opacity:1;fill-rule:nonzero;stroke:#000000;stroke-width:1.3552;stroke-linecap:round;stroke-linejoin:round;stroke-miterlimit:4;stroke-opacity:1"
       d="m 126.05859,288.51172 c 0,12.54297 -10.16406,22.70703 -22.70703,22.70703 -12.53906,0 -22.707029,-10.16406 -22.707029,-22.70703 0,-12.53906 10.167969,-22.70703 22.707029,-22.70703 12.54297,0 22.70703,10.16797 22.70703,22.70703 z m 0,0"
       id="path4353" />
    <path
       style="fill:#a3304a;fill-opacity:1;fill-rule:nonzero;stroke:#000000;stroke-width:1.3552;stroke-linecap:round;stroke-linejoin:round;stroke-miterlimit:4;stroke-opacity:1"
       d="m 118.25781,257.59375 c 0,12.53906 -10.16406,22.70703 -22.707029,22.70703 -12.539062,0 -22.707031,-10.16797 -22.707031,-22.70703 0,-12.54297 10.167969,-22.70703 22.707031,-22.70703 12.542969,0 22.707029,10.16406 22.707029,22.70703 z m 0,0"
       id="path4355" />
    <path
       style="fill:#ffe3f3;fill-opacity:1;fill-rule:nonzero;stroke:#000000;stroke-width:1.3552;stroke-linecap:round;stroke-linejoin:round;stroke-miterlimit:4;stroke-opacity:1"
       d="M 314.67187,63.292969 C 314.67187,75.835938 304.50391,86 291.96484,86 279.42187,86 269.25781,75.835938 269.25781,63.292969 c 0,-12.539063 10.16406,-22.707031 22.70703,-22.707031 12.53907,0 22.70703,10.167968 22.70703,22.707031 z m 0,0"
       id="path4357" />
    <path
       style="fill:#ffe3f3;fill-opacity:1;fill-rule:nonzero;stroke:#000000;stroke-width:1.3552;stroke-linecap:round;stroke-linejoin:round;stroke-miterlimit:4;stroke-opacity:1"
       d="m 409.92578,193.82031 c 0,12.54297 -10.16797,22.70703 -22.70703,22.70703 -12.53906,0 -22.70703,-10.16406 -22.70703,-22.70703 0,-12.53906 10.16797,-22.70703 22.70703,-22.70703 12.53906,0 22.70703,10.16797 22.70703,22.70703 z m 0,0"
       id="path4359" />
    <path
       style="fill:#a3304a;fill-opacity:1;fill-rule:nonzero;stroke:#000000;stroke-width:1.3552;stroke-linecap:round;stroke-linejoin:round;stroke-miterlimit:4;stroke-opacity:1"
       d="m 388.70312,107.89063 c 0,12.54296 -10.16796,22.70703 -22.70703,22.70703 -12.53906,0 -22.70703,-10.16407 -22.70703,-22.70703 0,-12.539068 10.16797,-22.707036 22.70703,-22.707036 12.53907,0 22.70703,10.167968 22.70703,22.707036 z m 0,0"
       id="path4361" />
    <path
       style="fill:#ffe3f3;fill-opacity:1;fill-rule:nonzero;stroke:#000000;stroke-width:1.3552;stroke-linecap:round;stroke-linejoin:round;stroke-miterlimit:4;stroke-opacity:1"
       d="m 211.92969,400.64062 c 0,12.53907 -10.16407,22.70704 -22.70703,22.70704 -12.53907,0 -22.70704,-10.16797 -22.70704,-22.70704 0,-12.54296 10.16797,-22.70703 22.70704,-22.70703 12.54296,0 22.70703,10.16407 22.70703,22.70703 z m 0,0"
       id="path4363" />
    <path
       style="fill:#ffe3f3;fill-opacity:1;fill-rule:nonzero;stroke:#000000;stroke-width:1.3552;stroke-linecap:round;stroke-linejoin:round;stroke-miterlimit:4;stroke-opacity:1"
       d="m 360.96094,379.85547 c 0,12.54297 -10.16797,22.71094 -22.71094,22.71094 -12.53906,0 -22.70703,-10.16797 -22.70703,-22.71094 0,-12.53906 10.16797,-22.70703 22.70703,-22.70703 12.54297,0 22.71094,10.16797 22.71094,22.70703 z m 0,0"
       id="path4365" />
    <path
       style="fill:#ffe3f3;fill-opacity:1;fill-rule:nonzero;stroke:#000000;stroke-width:1.3552;stroke-linecap:round;stroke-linejoin:round;stroke-miterlimit:4;stroke-opacity:1"
       d="m 413.95703,305.6875 c 0,12.53906 -10.16406,22.70703 -22.70703,22.70703 -12.53906,0 -22.70703,-10.16797 -22.70703,-22.70703 0,-12.54297 10.16797,-22.70703 22.70703,-22.70703 12.54297,0 22.70703,10.16406 22.70703,22.70703 z m 0,0"
       id="path4367" />
    <path
       style="fill:#ffe3f3;fill-opacity:1;fill-rule:nonzero;stroke:#000000;stroke-width:1.3552;stroke-linecap:round;stroke-linejoin:round;stroke-miterlimit:4;stroke-opacity:1"
       d="m 216.20703,39.5625 c 0,12.542969 -10.16797,22.707031 -22.70703,22.707031 -12.54297,0 -22.70703,-10.164062 -22.70703,-22.707031 0,-12.539062 10.16406,-22.707031 22.70703,-22.707031 12.53906,0 22.70703,10.167969 22.70703,22.707031 z m 0,0"
       id="path4369" />
    <path
       style="fill:#ffe3f3;fill-opacity:1;fill-rule:nonzero;stroke:#000000;stroke-width:1.3552;stroke-linecap:round;stroke-linejoin:round;stroke-miterlimit:4;stroke-opacity:1"
       d="m 100.26953,182.90234 c 0,12.53907 -10.167968,22.70703 -22.70703,22.70703 -12.542969,0 -22.707031,-10.16796 -22.707031,-22.70703 0,-12.53906 10.164062,-22.70703 22.707031,-22.70703 12.539062,0 22.70703,10.16797 22.70703,22.70703 z m 0,0"
       id="path4371" />
    <path
       style="fill:#ffe3f3;fill-opacity:1;fill-rule:nonzero;stroke:#000000;stroke-width:1.3552;stroke-linecap:round;stroke-linejoin:round;stroke-miterlimit:4;stroke-opacity:1"
       d="m 143.96875,362.73437 c 0,12.53907 -10.16406,22.70704 -22.70703,22.70704 -12.53906,0 -22.707032,-10.16797 -22.707032,-22.70704 0,-12.54296 10.167972,-22.70703 22.707032,-22.70703 12.54297,0 22.70703,10.16407 22.70703,22.70703 z m 0,0"
       id="path4373" />
    <path
       style="fill:#a3304a;fill-opacity:1;fill-rule:nonzero;stroke:#000000;stroke-width:1.3552;stroke-linecap:round;stroke-linejoin:round;stroke-miterlimit:4;stroke-opacity:1"
       d="m 308.15234,429.82812 c 0,12.54297 -10.16797,22.70704 -22.70703,22.70704 -12.54297,0 -22.70703,-10.16407 -22.70703,-22.70704 0,-12.53906 10.16406,-22.70703 22.70703,-22.70703 12.53906,0 22.70703,10.16797 22.70703,22.70703 z m 0,0"
       id="path4375" />
    <path
       style="fill:#a3304a;fill-opacity:1;fill-rule:nonzero;stroke:#000000;stroke-width:1.3552;stroke-linecap:round;stroke-linejoin:round;stroke-miterlimit:4;stroke-opacity:1"
       d="m 338.12891,442.10937 c 0,12.53907 -10.16407,22.70704 -22.70704,22.70704 -12.53906,0 -22.70703,-10.16797 -22.70703,-22.70704 0,-12.54296 10.16797,-22.70703 22.70703,-22.70703 12.54297,0 22.70704,10.16407 22.70704,22.70703 z m 0,0"
       id="path4377" />
    <path
       style="fill:#ffe3f3;fill-opacity:1;fill-rule:nonzero;stroke:#000000;stroke-width:1.3552;stroke-linecap:round;stroke-linejoin:round;stroke-miterlimit:4;stroke-opacity:1"
       d="m 466.93359,244.36328 c 0,12.54297 -10.16406,22.70703 -22.70703,22.70703 -12.53906,0 -22.70703,-10.16406 -22.70703,-22.70703 0,-12.53906 10.16797,-22.70703 22.70703,-22.70703 12.54297,0 22.70703,10.16797 22.70703,22.70703 z m 0,0"
       id="path4379" />
    <path
       style="fill:#ffe3f3;fill-opacity:1;fill-rule:nonzero;stroke:#000000;stroke-width:1.3552;stroke-linecap:round;stroke-linejoin:round;stroke-miterlimit:4;stroke-opacity:1"
       d="m 470.80859,117.98047 c 0,12.53906 -10.16406,22.70703 -22.70703,22.70703 -12.53906,0 -22.70703,-10.16797 -22.70703,-22.70703 0,-12.53906 10.16797,-22.707032 22.70703,-22.707032 12.54297,0 22.70703,10.167972 22.70703,22.707032 z m 0,0"
       id="path4381" />
    <path
       style="fill:#a3304a;fill-opacity:1;fill-rule:nonzero;stroke:#000000;stroke-width:1.3552;stroke-linecap:round;stroke-linejoin:round;stroke-miterlimit:4;stroke-opacity:1"
       d="m 392.99219,78.5 c 0,12.542969 -10.16797,22.70703 -22.70703,22.70703 -12.54297,0 -22.70704,-10.164061 -22.70704,-22.70703 0,-12.539062 10.16407,-22.707031 22.70704,-22.707031 12.53906,0 22.70703,10.167969 22.70703,22.707031 z m 0,0"
       id="path4383" />
    <path
       style="fill:#ffe3f3;fill-opacity:1;fill-rule:nonzero;stroke:#000000;stroke-width:1.3552;stroke-linecap:round;stroke-linejoin:round;stroke-miterlimit:4;stroke-opacity:1"
       d="m 146.72656,427.58984 c 0,12.54297 -10.16406,22.70703 -22.70703,22.70703 -12.53906,0 -22.70703,-10.16406 -22.70703,-22.70703 0,-12.53906 10.16797,-22.70703 22.70703,-22.70703 12.54297,0 22.70703,10.16797 22.70703,22.70703 z m 0,0"
       id="path4385" />
    <path
       style="fill:#ffe3f3;fill-opacity:1;fill-rule:nonzero;stroke:#000000;stroke-width:1.3552;stroke-linecap:round;stroke-linejoin:round;stroke-miterlimit:4;stroke-opacity:1"
       d="m 57.757812,313.09766 c 0,12.54296 -10.167968,22.70703 -22.707031,22.70703 -12.539062,0 -22.707031,-10.16407 -22.707031,-22.70703 0,-12.53907 10.167969,-22.70704 22.707031,-22.70704 12.539063,0 22.707031,10.16797 22.707031,22.70704 z m 0,0"
       id="path4387" />
    <path
       style="fill:#ffe3f3;fill-opacity:1;fill-rule:nonzero;stroke:#000000;stroke-width:1.3552;stroke-linecap:round;stroke-linejoin:round;stroke-miterlimit:4;stroke-opacity:1"
       d="m 450.38281,381.39844 c 0,12.54297 -10.16797,22.70703 -22.70703,22.70703 -12.54297,0 -22.70703,-10.16406 -22.70703,-22.70703 0,-12.53907 10.16406,-22.70703 22.70703,-22.70703 12.53906,0 22.70703,10.16796 22.70703,22.70703 z m 0,0"
       id="path4389" />
    <path
       style="fill:#ffe3f3;fill-opacity:1;fill-rule:nonzero;stroke:#000000;stroke-width:1.3552;stroke-linecap:round;stroke-linejoin:round;stroke-miterlimit:4;stroke-opacity:1"
       d="m 131.01562,71.636719 c 0,12.539062 -10.16796,22.707031 -22.70703,22.707031 -12.542965,0 -22.707028,-10.167969 -22.707028,-22.707031 0,-12.542969 10.164063,-22.707031 22.707028,-22.707031 12.53907,0 22.70703,10.164062 22.70703,22.707031 z m 0,0"
       id="path4391" />
    <path
       style="fill:none;stroke:#000000;stroke-width:1.53354;stroke-linecap:round;stroke-linejoin:round;stroke-miterlimit:4;stroke-dasharray:3.06709, 6.13417;stroke-opacity:1"
       d="m 395.96875,240.36719 c 0,79.76172 -64.66016,144.42187 -144.42188,144.42187 -79.76562,0 -144.42578,-64.66015 -144.42578,-144.42187 0,-79.76563 64.66016,-144.425784 144.42578,-144.425784 79.76172,0 144.42188,64.660154 144.42188,144.425784 z m 0,0"
       id="path4393" />
    <path
       style="fill:none;stroke:#000000;stroke-width:1.53354;stroke-linecap:round;stroke-linejoin:round;stroke-miterlimit:4;stroke-opacity:1"
       d="M 252.35156,211.66406 V 103.52344"
       id="path4397" />
    <path
       style="fill:none;stroke:#000000;stroke-width:1.53354;stroke-linecap:butt;stroke-linejoin:miter;stroke-miterlimit:4;stroke-opacity:1"
       d="m -207.44531,247.75391 -4.60156,4.59765 4.60156,4.60156"
       transform="rotate(-90)"
       id="path4399" />
    <path
       style="fill:none;stroke:#000000;stroke-width:1.53354;stroke-linecap:butt;stroke-linejoin:miter;stroke-miterlimit:4;stroke-opacity:1"
       d="m 107.74219,-256.95312 -4.60156,4.60156 4.60156,4.59765"
       transform="rotate(90)"
       id="path4401" />
    <path
       style="fill:#000000;fill-opacity:1;fill-rule:nonzero;stroke:none"
       d="m 273.82812,151.06641 c 0.21094,-0.79297 0.31641,-1.10938 0.95313,-1.21485 0.31641,-0.0547 1.375,-0.0547 2.0625,-0.0547 2.38281,0 6.13672,0 6.13672,3.33204 0,1.16406 -0.52735,3.49218 -1.85156,4.8164 -0.89844,0.84766 -2.64454,1.95703 -5.71485,1.95703 h -3.7539 z m 4.86719,9.26171 c 3.44141,-0.74218 7.41016,-3.125 7.41016,-6.51171 0,-2.91016 -3.01563,-5.07813 -7.46094,-5.07813 h -9.57812 c -0.6875,0 -1.00391,0 -1.00391,0.6875 0,0.37109 0.31641,0.37109 0.94922,0.37109 0.0547,0 0.6914,0 1.27344,0.0547 0.63281,0.10547 0.89843,0.10547 0.89843,0.58203 0,0.10547 0,0.21094 -0.10547,0.63282 l -4.55078,18.09765 c -0.3164,1.32031 -0.37109,1.58594 -3.07031,1.58594 -0.58203,0 -0.89844,0 -0.89844,0.6875 0,0.37109 0.42188,0.37109 0.47657,0.37109 0.95312,0 3.33203,-0.10547 4.23046,-0.10547 0.95313,0 3.38672,0.10547 4.33985,0.10547 0.26562,0 0.63672,0 0.63672,-0.6875 0,-0.37109 -0.26563,-0.37109 -0.95313,-0.37109 -1.21875,0 -2.16797,0 -2.16797,-0.58203 0,-0.21094 0.0508,-0.3711 0.10547,-0.58203 l 2.22266,-8.94141 h 4.01953 c 3.07031,0 3.65234,1.90234 3.65234,3.06641 0,0.47656 -0.26562,1.53515 -0.47656,2.32812 -0.21094,0.95313 -0.53125,2.17188 -0.53125,2.85938 0,3.65234 4.07422,3.65234 4.5,3.65234 2.85547,0 4.07422,-3.38672 4.07422,-3.86328 0,-0.42578 -0.37109,-0.42578 -0.42578,-0.42578 -0.31641,0 -0.3711,0.21484 -0.42188,0.47656 -0.84765,2.48828 -2.32812,3.07031 -3.07031,3.07031 -1.10937,0 -1.375,-0.74218 -1.375,-2.0625 0,-1.05859 0.21094,-2.7539 0.37109,-3.86328 0.0508,-0.47656 0.10547,-1.11328 0.10547,-1.58984 0,-2.58985 -2.27343,-3.64844 -3.17578,-3.96485 z m 0,0"
       id="path4403" />
    <use
       xlink:href="#surface145646"
       mask="url(#mask2)"
       id="use4405" />
    <use
       xlink:href="#surface145649"
       mask="url(#mask3)"
       id="use4407" />
    <g
       inkscape:label=""
       transform="matrix(1.4412483,0,0,1.4412483,132.30424,237.44706)"
       id="g4799"
       style="fill:#a5324b">
      <g
         id="surface1"
         transform="matrix(1.5,0,0,1.5,-138.403,-112.398)"
         style="fill:#a5324b">
        <g
           style="fill:#a5324b;fill-opacity:1"
           id="g46">
          <g
             id="use30"
             transform="translate(91.925003,81.962997)"
             style="fill:#a5324b">
            <path
               style="fill:#a5324b;stroke:none"
               d="m 3.78125,-0.546875 v 0.65625 L 5.25,0 v -0.3125 c -0.6875,0 -0.78125,-0.0625 -0.78125,-0.5625 V -6.921875 L 3.046875,-6.8125 V -6.5 c 0.6875,0 0.765625,0.0625 0.765625,0.5625 v 2.15625 c -0.28125,-0.359375 -0.71875,-0.625 -1.25,-0.625 -1.171875,0 -2.21875,0.984375 -2.21875,2.265625 0,1.265625 0.96875,2.25 2.109375,2.25 0.640625,0 1.078125,-0.34375 1.328125,-0.65625 z m 0,-2.671875 v 2.046875 c 0,0.171875 0,0.1875 -0.109375,0.359375 C 3.375,-0.328125 2.9375,-0.109375 2.5,-0.109375 2.046875,-0.109375 1.6875,-0.375 1.453125,-0.75 1.203125,-1.15625 1.171875,-1.71875 1.171875,-2.140625 1.171875,-2.5 1.1875,-3.09375 1.46875,-3.546875 1.6875,-3.859375 2.0625,-4.1875 2.609375,-4.1875 c 0.34375,0 0.765625,0.15625 1.0625,0.59375 0.109375,0.171875 0.109375,0.1875 0.109375,0.375 z m 0,0"
               id="path53" />
          </g>
          <g
             id="use32"
             transform="translate(97.46022,81.962997)"
             style="fill:#a5324b">
            <path
               style="fill:#a5324b;stroke:none"
               d="M 1.765625,-4.40625 0.375,-4.296875 v 0.3125 c 0.640625,0 0.734375,0.0625 0.734375,0.546875 V -0.75 c 0,0.4375 -0.109375,0.4375 -0.78125,0.4375 V 0 C 0.640625,-0.015625 1.1875,-0.03125 1.421875,-0.03125 1.78125,-0.03125 2.125,-0.015625 2.46875,0 v -0.3125 c -0.671875,0 -0.703125,-0.046875 -0.703125,-0.4375 z m 0.03125,-1.734375 c 0,-0.3125 -0.234375,-0.53125 -0.515625,-0.53125 -0.3125,0 -0.53125,0.265625 -0.53125,0.53125 0,0.265625 0.21875,0.53125 0.53125,0.53125 0.28125,0 0.515625,-0.21875 0.515625,-0.53125 z m 0,0"
               id="path57" />
          </g>
          <g
             id="use34"
             transform="translate(100.22783,81.962997)"
             style="fill:#a5324b">
            <path
               style="fill:#a5324b;stroke:none"
               d="m 4.46875,-3.984375 h 1.140625 v -0.3125 H 4.4375 v -1.15625 c 0,-0.890625 0.484375,-1.359375 0.921875,-1.359375 0.03125,0 0.1875,0 0.328125,0.078125 -0.109375,0.03125 -0.296875,0.171875 -0.296875,0.421875 0,0.21875 0.15625,0.421875 0.4375,0.421875 0.28125,0 0.4375,-0.203125 0.4375,-0.4375 0,-0.359375 -0.359375,-0.703125 -0.90625,-0.703125 -0.59375,0 -1.03125,0.375 -1.078125,0.421875 -0.296875,-0.375 -0.859375,-0.421875 -1.125,-0.421875 -0.9375,0 -2.09375,0.515625 -2.09375,1.59375 v 1.140625 H 0.265625 v 0.3125 H 1.0625 V -0.75 c 0,0.4375 -0.109375,0.4375 -0.78125,0.4375 V 0 C 0.609375,-0.015625 1.140625,-0.03125 1.390625,-0.03125 1.640625,-0.03125 2.125,-0.015625 2.5,0 v -0.3125 c -0.671875,0 -0.78125,0 -0.78125,-0.4375 V -3.984375 H 3.8125 V -0.75 c 0,0.4375 -0.109375,0.4375 -0.78125,0.4375 V 0 c 0.390625,-0.015625 0.859375,-0.03125 1.140625,-0.03125 0.390625,0 0.859375,0 1.265625,0.03125 V -0.3125 H 5.21875 c -0.734375,0 -0.75,-0.109375 -0.75,-0.46875 z m -2.78125,-0.3125 v -1.125 c 0,-0.96875 0.8125,-1.390625 1.46875,-1.390625 0.484375,0 0.765625,0.1875 0.765625,0.1875 v 0.015625 C 3.765625,-6.59375 3.5625,-6.453125 3.5625,-6.1875 c 0,0.0625 0,0.3125 0.28125,0.40625 C 3.8125,-5.65625 3.8125,-5.5625 3.8125,-5.4375 v 1.140625 z m 0,0"
               id="path61" />
          </g>
          <g
             id="use36"
             transform="translate(106.03902,81.962997)"
             style="fill:#a5324b">
            <path
               style="fill:#a5324b;stroke:none"
               d="M 3.890625,-0.78125 V 0.109375 L 5.328125,0 V -0.3125 C 4.640625,-0.3125 4.5625,-0.375 4.5625,-0.875 v -3.53125 l -1.46875,0.109375 v 0.3125 c 0.6875,0 0.78125,0.0625 0.78125,0.5625 v 1.765625 c 0,0.875 -0.484375,1.546875 -1.21875,1.546875 -0.828125,0 -0.875,-0.46875 -0.875,-0.984375 v -3.3125 L 0.3125,-4.296875 v 0.3125 c 0.78125,0 0.78125,0.03125 0.78125,0.90625 v 1.5 c 0,0.78125 0,1.6875 1.515625,1.6875 0.5625,0 1,-0.28125 1.28125,-0.890625 z m 0,0"
               id="path65" />
          </g>
          <g
             id="use38"
             transform="translate(111.57423,81.962997)"
             style="fill:#a5324b">
            <path
               style="fill:#a5324b;stroke:none"
               d="m 2.078125,-1.9375 c 0.21875,0.046875 1.03125,0.203125 1.03125,0.921875 0,0.5 -0.34375,0.90625 -1.125,0.90625 -0.84375,0 -1.203125,-0.5625 -1.390625,-1.421875 C 0.5625,-1.65625 0.5625,-1.6875 0.453125,-1.6875 c -0.125,0 -0.125,0.0625 -0.125,0.234375 V -0.125 c 0,0.171875 0,0.234375 0.109375,0.234375 0.046875,0 0.0625,-0.015625 0.25,-0.203125 0.015625,-0.015625 0.015625,-0.03125 0.203125,-0.21875 0.4375,0.40625 0.890625,0.421875 1.09375,0.421875 1.140625,0 1.609375,-0.671875 1.609375,-1.390625 0,-0.515625 -0.296875,-0.828125 -0.421875,-0.9375 C 2.84375,-2.546875 2.453125,-2.625 2.03125,-2.703125 1.46875,-2.8125 0.8125,-2.9375 0.8125,-3.515625 c 0,-0.359375 0.25,-0.765625 1.109375,-0.765625 1.09375,0 1.15625,0.90625 1.171875,1.203125 0,0.09375 0.09375,0.09375 0.109375,0.09375 0.140625,0 0.140625,-0.046875 0.140625,-0.234375 v -1.015625 c 0,-0.15625 0,-0.234375 -0.109375,-0.234375 -0.046875,0 -0.078125,0 -0.203125,0.125 -0.03125,0.03125 -0.125,0.125 -0.171875,0.15625 -0.375,-0.28125 -0.78125,-0.28125 -0.9375,-0.28125 -1.21875,0 -1.59375,0.671875 -1.59375,1.234375 0,0.34375 0.15625,0.625 0.421875,0.84375 0.328125,0.25 0.609375,0.3125 1.328125,0.453125 z m 0,0"
               id="path69" />
          </g>
          <g
             id="use40"
             transform="translate(115.50349,81.962997)"
             style="fill:#a5324b">
            <path
               style="fill:#a5324b;stroke:none"
               d="M 1.765625,-4.40625 0.375,-4.296875 v 0.3125 c 0.640625,0 0.734375,0.0625 0.734375,0.546875 V -0.75 c 0,0.4375 -0.109375,0.4375 -0.78125,0.4375 V 0 C 0.640625,-0.015625 1.1875,-0.03125 1.421875,-0.03125 1.78125,-0.03125 2.125,-0.015625 2.46875,0 v -0.3125 c -0.671875,0 -0.703125,-0.046875 -0.703125,-0.4375 z m 0.03125,-1.734375 c 0,-0.3125 -0.234375,-0.53125 -0.515625,-0.53125 -0.3125,0 -0.53125,0.265625 -0.53125,0.53125 0,0.265625 0.21875,0.53125 0.53125,0.53125 0.28125,0 0.515625,-0.21875 0.515625,-0.53125 z m 0,0"
               id="path73" />
          </g>
          <g
             id="use42"
             transform="translate(118.2711,81.962997)"
             style="fill:#a5324b">
            <path
               style="fill:#a5324b;stroke:none"
               d="M 4.6875,-2.140625 C 4.6875,-3.40625 3.703125,-4.46875 2.5,-4.46875 c -1.25,0 -2.21875,1.09375 -2.21875,2.328125 0,1.296875 1.03125,2.25 2.203125,2.25 1.203125,0 2.203125,-0.984375 2.203125,-2.25 z m -2.1875,2 c -0.4375,0 -0.875,-0.203125 -1.140625,-0.671875 -0.25,-0.4375 -0.25,-1.046875 -0.25,-1.40625 0,-0.390625 0,-0.921875 0.234375,-1.359375 C 1.609375,-4.03125 2.078125,-4.25 2.484375,-4.25 c 0.4375,0 0.859375,0.21875 1.125,0.65625 0.265625,0.421875 0.265625,1 0.265625,1.375 0,0.359375 0,0.90625 -0.21875,1.34375 C 3.421875,-0.421875 2.984375,-0.140625 2.5,-0.140625 Z m 0,0"
               id="path77" />
          </g>
          <g
             id="use44"
             transform="translate(123.2524,81.962997)"
             style="fill:#a5324b">
            <path
               style="fill:#a5324b;stroke:none"
               d="M 1.09375,-3.421875 V -0.75 c 0,0.4375 -0.109375,0.4375 -0.78125,0.4375 V 0 c 0.359375,-0.015625 0.859375,-0.03125 1.140625,-0.03125 0.25,0 0.765625,0.015625 1.109375,0.03125 v -0.3125 c -0.671875,0 -0.78125,0 -0.78125,-0.4375 V -2.59375 C 1.78125,-3.625 2.5,-4.1875 3.125,-4.1875 c 0.640625,0 0.75,0.53125 0.75,1.109375 V -0.75 c 0,0.4375 -0.109375,0.4375 -0.78125,0.4375 V 0 c 0.34375,-0.015625 0.859375,-0.03125 1.125,-0.03125 0.25,0 0.78125,0.015625 1.109375,0.03125 v -0.3125 c -0.515625,0 -0.765625,0 -0.765625,-0.296875 v -1.90625 c 0,-0.859375 0,-1.15625 -0.3125,-1.515625 -0.140625,-0.171875 -0.46875,-0.375 -1.046875,-0.375 C 2.46875,-4.40625 2,-3.984375 1.71875,-3.359375 V -4.40625 L 0.3125,-4.296875 v 0.3125 c 0.703125,0 0.78125,0.0625 0.78125,0.5625 z m 0,0"
               id="path81" />
          </g>
        </g>
      </g>
    </g>
    <g
       inkscape:label=""
       transform="matrix(1.4412483,0,0,1.4412483,291.88854,308.75843)"
       id="g5463">
      <g
         id="g5461"
         transform="matrix(1.5,0,0,1.5,-138.38,-113.757)">
        <g
           style="fill:#000000;fill-opacity:1"
           id="g29">
          <g
             id="use21"
             transform="translate(91.925003,81.962997)">
            <path
               style="stroke:none"
               d="m 2.078125,-1.9375 c 0.21875,0.046875 1.03125,0.203125 1.03125,0.921875 0,0.5 -0.34375,0.90625 -1.125,0.90625 -0.84375,0 -1.203125,-0.5625 -1.390625,-1.421875 C 0.5625,-1.65625 0.5625,-1.6875 0.453125,-1.6875 c -0.125,0 -0.125,0.0625 -0.125,0.234375 V -0.125 c 0,0.171875 0,0.234375 0.109375,0.234375 0.046875,0 0.0625,-0.015625 0.25,-0.203125 0.015625,-0.015625 0.015625,-0.03125 0.203125,-0.21875 0.4375,0.40625 0.890625,0.421875 1.09375,0.421875 1.140625,0 1.609375,-0.671875 1.609375,-1.390625 0,-0.515625 -0.296875,-0.828125 -0.421875,-0.9375 C 2.84375,-2.546875 2.453125,-2.625 2.03125,-2.703125 1.46875,-2.8125 0.8125,-2.9375 0.8125,-3.515625 c 0,-0.359375 0.25,-0.765625 1.109375,-0.765625 1.09375,0 1.15625,0.90625 1.171875,1.203125 0,0.09375 0.09375,0.09375 0.109375,0.09375 0.140625,0 0.140625,-0.046875 0.140625,-0.234375 v -1.015625 c 0,-0.15625 0,-0.234375 -0.109375,-0.234375 -0.046875,0 -0.078125,0 -0.203125,0.125 -0.03125,0.03125 -0.125,0.125 -0.171875,0.15625 -0.375,-0.28125 -0.78125,-0.28125 -0.9375,-0.28125 -1.21875,0 -1.59375,0.671875 -1.59375,1.234375 0,0.34375 0.15625,0.625 0.421875,0.84375 0.328125,0.25 0.609375,0.3125 1.328125,0.453125 z m 0,0"
               id="path36" />
          </g>
          <g
             id="use23"
             transform="translate(95.854248,81.962997)">
            <path
               style="stroke:none"
               d="m 3.3125,-0.75 c 0.046875,0.390625 0.3125,0.8125 0.78125,0.8125 0.21875,0 0.828125,-0.140625 0.828125,-0.953125 v -0.5625 h -0.25 v 0.5625 c 0,0.578125 -0.25,0.640625 -0.359375,0.640625 -0.328125,0 -0.375,-0.453125 -0.375,-0.5 v -1.984375 c 0,-0.421875 0,-0.8125 -0.359375,-1.1875 C 3.1875,-4.3125 2.6875,-4.46875 2.21875,-4.46875 c -0.828125,0 -1.515625,0.46875 -1.515625,1.125 0,0.296875 0.203125,0.46875 0.46875,0.46875 0.28125,0 0.453125,-0.203125 0.453125,-0.453125 0,-0.125 -0.046875,-0.453125 -0.515625,-0.453125 C 1.390625,-4.140625 1.875,-4.25 2.1875,-4.25 c 0.5,0 1.0625,0.390625 1.0625,1.28125 v 0.359375 c -0.515625,0.03125 -1.203125,0.0625 -1.828125,0.359375 -0.75,0.34375 -1,0.859375 -1,1.296875 0,0.8125 0.96875,1.0625 1.59375,1.0625 0.65625,0 1.109375,-0.40625 1.296875,-0.859375 z M 3.25,-2.390625 v 1 c 0,0.9375 -0.71875,1.28125 -1.171875,1.28125 -0.484375,0 -0.890625,-0.34375 -0.890625,-0.84375 0,-0.546875 0.421875,-1.375 2.0625,-1.4375 z m 0,0"
               id="path40" />
          </g>
          <g
             id="use25"
             transform="translate(100.83555,81.962997)">
            <path
               style="stroke:none"
               d="M 3.890625,-0.78125 V 0.109375 L 5.328125,0 V -0.3125 C 4.640625,-0.3125 4.5625,-0.375 4.5625,-0.875 v -3.53125 l -1.46875,0.109375 v 0.3125 c 0.6875,0 0.78125,0.0625 0.78125,0.5625 v 1.765625 c 0,0.875 -0.484375,1.546875 -1.21875,1.546875 -0.828125,0 -0.875,-0.46875 -0.875,-0.984375 v -3.3125 L 0.3125,-4.296875 v 0.3125 c 0.78125,0 0.78125,0.03125 0.78125,0.90625 v 1.5 c 0,0.78125 0,1.6875 1.515625,1.6875 0.5625,0 1,-0.28125 1.28125,-0.890625 z m 0,0"
               id="path44" />
          </g>
          <g
             id="use27"
             transform="translate(106.37077,81.962997)">
            <path
               style="stroke:none"
               d="m 1.71875,-3.984375 h 1.4375 v -0.3125 H 1.71875 V -6.125 h -0.25 c 0,0.8125 -0.296875,1.875 -1.28125,1.921875 v 0.21875 h 0.84375 v 2.75 c 0,1.21875 0.9375,1.34375 1.296875,1.34375 0.703125,0 0.984375,-0.703125 0.984375,-1.34375 v -0.5625 h -0.25 V -1.25 c 0,0.734375 -0.296875,1.109375 -0.671875,1.109375 -0.671875,0 -0.671875,-0.90625 -0.671875,-1.078125 z m 0,0"
               id="path48" />
          </g>
        </g>
      </g>
    </g>
    <g
       inkscape:label=""
       transform="matrix(1.485757,0,0,1.485757,278.42872,238.75412)"
       id="g7203">
      <g
         id="g7201"
         transform="matrix(1.5,0,0,1.5,-139.364,-111.718)">
        <g
           style="fill:#000000;fill-opacity:1"
           id="g24">
          <g
             id="use18"
             transform="translate(91.925003,81.962997)">
            <path
               style="stroke:none"
               d="m 3.296875,2.390625 c 0,-0.03125 0,-0.046875 -0.171875,-0.21875 C 1.890625,0.921875 1.5625,-0.96875 1.5625,-2.5 c 0,-1.734375 0.375,-3.46875 1.609375,-4.703125 0.125,-0.125 0.125,-0.140625 0.125,-0.171875 0,-0.078125 -0.03125,-0.109375 -0.09375,-0.109375 -0.109375,0 -1,0.6875 -1.59375,1.953125 -0.5,1.09375 -0.625,2.203125 -0.625,3.03125 0,0.78125 0.109375,1.984375 0.65625,3.125 C 2.25,1.84375 3.09375,2.5 3.203125,2.5 c 0.0625,0 0.09375,-0.03125 0.09375,-0.109375 z m 0,0"
               id="path31" />
          </g>
          <g
             id="use20"
             transform="translate(95.799454,81.962997)">
            <path
               style="stroke:none"
               d="m 2.890625,-3.515625 c 0.8125,-0.265625 1.390625,-0.953125 1.390625,-1.75 0,-0.8125 -0.875,-1.375 -1.828125,-1.375 -1,0 -1.765625,0.59375 -1.765625,1.359375 0,0.328125 0.21875,0.515625 0.515625,0.515625 0.296875,0 0.5,-0.21875 0.5,-0.515625 0,-0.484375 -0.46875,-0.484375 -0.609375,-0.484375 0.296875,-0.5 0.953125,-0.625 1.3125,-0.625 0.421875,0 0.96875,0.21875 0.96875,1.109375 0,0.125 -0.03125,0.703125 -0.28125,1.140625 C 2.796875,-3.65625 2.453125,-3.625 2.203125,-3.625 2.125,-3.609375 1.890625,-3.59375 1.8125,-3.59375 c -0.078125,0.015625 -0.140625,0.03125 -0.140625,0.125 0,0.109375 0.0625,0.109375 0.234375,0.109375 h 0.4375 c 0.8125,0 1.1875,0.671875 1.1875,1.65625 0,1.359375 -0.6875,1.640625 -1.125,1.640625 -0.4375,0 -1.1875,-0.171875 -1.53125,-0.75 0.34375,0.046875 0.65625,-0.171875 0.65625,-0.546875 0,-0.359375 -0.265625,-0.5625 -0.546875,-0.5625 -0.25,0 -0.5625,0.140625 -0.5625,0.578125 0,0.90625 0.921875,1.5625 2.015625,1.5625 1.21875,0 2.125,-0.90625 2.125,-1.921875 0,-0.8125 -0.640625,-1.59375 -1.671875,-1.8125 z m 0,0"
               id="path35" />
          </g>
          <g
             id="use22"
             transform="translate(100.78075,81.962997)">
            <path
               style="stroke:none"
               d="m 2.875,-2.5 c 0,-0.765625 -0.109375,-1.96875 -0.65625,-3.109375 -0.59375,-1.21875 -1.453125,-1.875 -1.546875,-1.875 -0.0625,0 -0.109375,0.046875 -0.109375,0.109375 0,0.03125 0,0.046875 0.1875,0.234375 0.984375,0.984375 1.546875,2.5625 1.546875,4.640625 0,1.71875 -0.359375,3.46875 -1.59375,4.71875 C 0.5625,2.34375 0.5625,2.359375 0.5625,2.390625 0.5625,2.453125 0.609375,2.5 0.671875,2.5 0.765625,2.5 1.671875,1.8125 2.25,0.546875 2.765625,-0.546875 2.875,-1.65625 2.875,-2.5 Z m 0,0"
               id="path39" />
          </g>
        </g>
      </g>
    </g>
    <g
       inkscape:label=""
       transform="matrix(1.485757,0,0,1.485757,215.45063,334.27743)"
       id="g7556">
      <g
         id="g7554"
         transform="matrix(1.5,0,0,1.5,-139.364,-111.718)">
        <g
           style="fill:#000000;fill-opacity:1"
           id="g7552">
          <g
             id="g7542"
             transform="translate(91.925003,81.962997)">
            <path
               style="stroke:none"
               d="m 3.296875,2.390625 c 0,-0.03125 0,-0.046875 -0.171875,-0.21875 C 1.890625,0.921875 1.5625,-0.96875 1.5625,-2.5 c 0,-1.734375 0.375,-3.46875 1.609375,-4.703125 0.125,-0.125 0.125,-0.140625 0.125,-0.171875 0,-0.078125 -0.03125,-0.109375 -0.09375,-0.109375 -0.109375,0 -1,0.6875 -1.59375,1.953125 -0.5,1.09375 -0.625,2.203125 -0.625,3.03125 0,0.78125 0.109375,1.984375 0.65625,3.125 C 2.25,1.84375 3.09375,2.5 3.203125,2.5 c 0.0625,0 0.09375,-0.03125 0.09375,-0.109375 z m 0,0"
               id="path7540" />
          </g>
          <g
             id="g7546"
             transform="translate(95.799454,81.962997)">
            <path
               style="stroke:none"
               d="m 1.265625,-0.765625 1.0625,-1.03125 c 1.546875,-1.375 2.140625,-1.90625 2.140625,-2.90625 0,-1.140625 -0.890625,-1.9375 -2.109375,-1.9375 -1.125,0 -1.859375,0.921875 -1.859375,1.8125 0,0.546875 0.5,0.546875 0.53125,0.546875 0.171875,0 0.515625,-0.109375 0.515625,-0.53125 0,-0.25 -0.1875,-0.515625 -0.53125,-0.515625 -0.078125,0 -0.09375,0 -0.125,0.015625 0.21875,-0.65625 0.765625,-1.015625 1.34375,-1.015625 0.90625,0 1.328125,0.8125 1.328125,1.625 C 3.5625,-3.90625 3.078125,-3.125 2.515625,-2.5 l -1.90625,2.125 C 0.5,-0.265625 0.5,-0.234375 0.5,0 H 4.203125 L 4.46875,-1.734375 H 4.234375 C 4.171875,-1.4375 4.109375,-1 4,-0.84375 3.9375,-0.765625 3.28125,-0.765625 3.0625,-0.765625 Z m 0,0"
               id="path7544" />
          </g>
          <g
             id="g7550"
             transform="translate(100.78075,81.962997)">
            <path
               style="stroke:none"
               d="m 2.875,-2.5 c 0,-0.765625 -0.109375,-1.96875 -0.65625,-3.109375 -0.59375,-1.21875 -1.453125,-1.875 -1.546875,-1.875 -0.0625,0 -0.109375,0.046875 -0.109375,0.109375 0,0.03125 0,0.046875 0.1875,0.234375 0.984375,0.984375 1.546875,2.5625 1.546875,4.640625 0,1.71875 -0.359375,3.46875 -1.59375,4.71875 C 0.5625,2.34375 0.5625,2.359375 0.5625,2.390625 0.5625,2.453125 0.609375,2.5 0.671875,2.5 0.765625,2.5 1.671875,1.8125 2.25,0.546875 2.765625,-0.546875 2.875,-1.65625 2.875,-2.5 Z m 0,0"
               id="path7548" />
          </g>
        </g>
      </g>
    </g>
    <g
       inkscape:label=""
       transform="matrix(1.485757,0,0,1.485757,169.36269,259.23956)"
       id="g7927">
      <g
         id="g7925"
         transform="matrix(1.5,0,0,1.5,-139.364,-111.718)">
        <g
           style="fill:#000000;fill-opacity:1"
           id="g7923">
          <g
             id="g7913"
             transform="translate(91.925003,81.962997)">
            <path
               style="stroke:none"
               d="m 3.296875,2.390625 c 0,-0.03125 0,-0.046875 -0.171875,-0.21875 C 1.890625,0.921875 1.5625,-0.96875 1.5625,-2.5 c 0,-1.734375 0.375,-3.46875 1.609375,-4.703125 0.125,-0.125 0.125,-0.140625 0.125,-0.171875 0,-0.078125 -0.03125,-0.109375 -0.09375,-0.109375 -0.109375,0 -1,0.6875 -1.59375,1.953125 -0.5,1.09375 -0.625,2.203125 -0.625,3.03125 0,0.78125 0.109375,1.984375 0.65625,3.125 C 2.25,1.84375 3.09375,2.5 3.203125,2.5 c 0.0625,0 0.09375,-0.03125 0.09375,-0.109375 z m 0,0"
               id="path7911" />
          </g>
          <g
             id="g7917"
             transform="translate(95.799454,81.962997)">
            <path
               style="stroke:none"
               d="m 2.9375,-6.375 c 0,-0.25 0,-0.265625 -0.234375,-0.265625 C 2.078125,-6 1.203125,-6 0.890625,-6 v 0.3125 c 0.203125,0 0.78125,0 1.296875,-0.265625 v 5.171875 c 0,0.359375 -0.03125,0.46875 -0.921875,0.46875 h -0.3125 V 0 c 0.34375,-0.03125 1.203125,-0.03125 1.609375,-0.03125 0.390625,0 1.265625,0 1.609375,0.03125 v -0.3125 h -0.3125 c -0.90625,0 -0.921875,-0.109375 -0.921875,-0.46875 z m 0,0"
               id="path7915" />
          </g>
          <g
             id="g7921"
             transform="translate(100.78075,81.962997)">
            <path
               style="stroke:none"
               d="m 2.875,-2.5 c 0,-0.765625 -0.109375,-1.96875 -0.65625,-3.109375 -0.59375,-1.21875 -1.453125,-1.875 -1.546875,-1.875 -0.0625,0 -0.109375,0.046875 -0.109375,0.109375 0,0.03125 0,0.046875 0.1875,0.234375 0.984375,0.984375 1.546875,2.5625 1.546875,4.640625 0,1.71875 -0.359375,3.46875 -1.59375,4.71875 C 0.5625,2.34375 0.5625,2.359375 0.5625,2.390625 0.5625,2.453125 0.609375,2.5 0.671875,2.5 0.765625,2.5 1.671875,1.8125 2.25,0.546875 2.765625,-0.546875 2.875,-1.65625 2.875,-2.5 Z m 0,0"
               id="path7919" />
          </g>
        </g>
      </g>
    </g>
  </g>
</svg>
