<?xml version="1.0" encoding="UTF-8" standalone="no"?>
<!-- Created with Inkscape (http://www.inkscape.org/) -->

<svg
   width="210mm"
   height="297mm"
   viewBox="0 0 210 297"
   version="1.1"
   id="svg1"
   inkscape:version="1.4.1 (1:1.4.1+202503302257+93de688d07)"
   sodipodi:docname="Martens_exp.svg"
   xmlns:inkscape="http://www.inkscape.org/namespaces/inkscape"
   xmlns:sodipodi="http://sodipodi.sourceforge.net/DTD/sodipodi-0.dtd"
   xmlns="http://www.w3.org/2000/svg"
   xmlns:svg="http://www.w3.org/2000/svg">
  <sodipodi:namedview
     id="namedview1"
     pagecolor="#ffffff"
     bordercolor="#666666"
     borderopacity="1.0"
     inkscape:showpageshadow="2"
     inkscape:pageopacity="0.0"
     inkscape:pagecheckerboard="0"
     inkscape:deskcolor="#d1d1d1"
     inkscape:document-units="mm"
     inkscape:zoom="3.4356801"
     inkscape:cx="331.52097"
     inkscape:cy="176.82088"
     inkscape:window-width="1850"
     inkscape:window-height="1016"
     inkscape:window-x="0"
     inkscape:window-y="0"
     inkscape:window-maximized="1"
     inkscape:current-layer="layer1" />
  <defs
     id="defs1">
    <clipPath
       id="clip5">
      <path
         d="M 138.91406,133 H 142 v 6 h -3.08594 z m 0,0"
         id="path279" />
    </clipPath>
    <clipPath
       id="clip6">
      <path
         d="M 138.91406,132 H 142 v 7 h -3.08594 z m 0,0"
         id="path280" />
    </clipPath>
    <clipPath
       id="clip7">
      <path
         d="M 138.91406,132 H 142 v 6 h -3.08594 z m 0,0"
         id="path281" />
    </clipPath>
    <clipPath
       id="clip8">
      <path
         d="M 138.91406,132 H 142 v 7 h -3.08594 z m 0,0"
         id="path282" />
    </clipPath>
    <clipPath
       id="clip9">
      <path
         d="M 138.91406,132 H 142 v 6 h -3.08594 z m 0,0"
         id="path283" />
    </clipPath>
    <clipPath
       id="clip10">
      <path
         d="M 138.91406,132 H 142 v 7 h -3.08594 z m 0,0"
         id="path284" />
    </clipPath>
    <clipPath
       id="clip11">
      <path
         d="M 138.91406,132 H 142 v 6 h -3.08594 z m 0,0"
         id="path285" />
    </clipPath>
    <clipPath
       id="clip12">
      <path
         d="M 138.91406,131 H 142 v 7 h -3.08594 z m 0,0"
         id="path286" />
    </clipPath>
    <clipPath
       id="clip13">
      <path
         d="M 138.91406,131 H 142 v 6 h -3.08594 z m 0,0"
         id="path287" />
    </clipPath>
    <clipPath
       id="clip14">
      <path
         d="M 138.91406,131 H 143 v 6 h -4.08594 z m 0,0"
         id="path288" />
    </clipPath>
    <clipPath
       id="clip15">
      <path
         d="M 138.91406,130 H 142 v 7 h -3.08594 z m 0,0"
         id="path289" />
    </clipPath>
    <clipPath
       id="clip16">
      <path
         d="M 138.91406,130 H 143 v 7 h -4.08594 z m 0,0"
         id="path290" />
    </clipPath>
    <clipPath
       id="clip17">
      <path
         d="M 138.91406,130 H 143 v 6 h -4.08594 z m 0,0"
         id="path291" />
    </clipPath>
    <clipPath
       id="clip18">
      <path
         d="M 138.91406,129 H 143 v 7 h -4.08594 z m 0,0"
         id="path292" />
    </clipPath>
    <clipPath
       id="clip19">
      <path
         d="M 138.91406,129 H 143 v 6 h -4.08594 z m 0,0"
         id="path293" />
    </clipPath>
    <clipPath
       id="clip20">
      <path
         d="M 138.91406,128 H 144 v 6 h -5.08594 z m 0,0"
         id="path294" />
    </clipPath>
    <clipPath
       id="clip21">
      <path
         d="M 138.91406,127 H 144 v 7 h -5.08594 z m 0,0"
         id="path295" />
    </clipPath>
    <clipPath
       id="clip22">
      <path
         d="M 138.91406,126 H 145 v 6 h -6.08594 z m 0,0"
         id="path296" />
    </clipPath>
    <clipPath
       id="clip23">
      <path
         d="m 138.91406,91.296875 h 66.41797 V 137 h -66.41797 z m 0,0"
         id="path297" />
    </clipPath>
  </defs>
  <g
     inkscape:label="Calque 1"
     inkscape:groupmode="layer"
     id="layer1">
    <path
       style="fill:#fdf5e6;fill-opacity:1;fill-rule:nonzero;stroke:none;stroke-width:0.352778"
       d="M 69.542603,50.101238 V 26.670454 h 19.049998 v 23.430784 z m 0,0"
       id="path474" />
    <g
       clip-path="url(#clip5)"
       clip-rule="nonzero"
       id="g475"
       transform="matrix(0,-0.35277777,-0.35277777,0,120.80011,99.10703)">
      <path
         style="fill:#eb1c23;fill-opacity:1;fill-rule:nonzero;stroke:none"
         d="m 138.9375,138.19141 c 0.69141,0 1.34766,-0.27344 1.83594,-0.76172 0.48437,-0.48828 0.75781,-1.14453 0.75781,-1.83203 0,-0.6875 -0.27344,-1.34766 -0.75781,-1.83594 -0.48828,-0.48438 -1.14453,-0.75781 -1.83594,-0.75781 -0.6875,0 -1.34375,0.27343 -1.83203,0.75781 -0.48828,0.48828 -0.76172,1.14844 -0.76172,1.83594 0,0.6875 0.27344,1.34375 0.76172,1.83203 0.48828,0.48828 1.14453,0.76172 1.83203,0.76172"
         id="path475" />
    </g>
    <g
       clip-path="url(#clip6)"
       clip-rule="nonzero"
       id="g478"
       transform="matrix(0,-0.35277777,-0.35277777,0,120.80011,99.10703)">
      <path
         style="fill:none;stroke:#211e1e;stroke-width:0.432;stroke-linecap:butt;stroke-linejoin:round;stroke-miterlimit:10;stroke-opacity:1"
         d="m -0.0015,-0.00140625 c 0.691406,0 1.347656,0.27343725 1.835938,0.76171825 C 2.318813,1.248594 2.59225,1.904844 2.59225,2.592344 2.59225,3.279844 2.318813,3.94 1.834438,4.428281 1.346156,4.912656 0.689906,5.186094 -0.0015,5.186094 -0.689,5.186094 -1.34525,4.912656 -1.833531,4.428281 -2.321812,3.94 -2.59525,3.279844 -2.59525,2.592344 c 0,-0.6875 0.273438,-1.34375 0.761719,-1.832032 C -1.34525,0.272031 -0.689,-0.00140625 -0.0015,-0.00140625 Z m 0,0"
         transform="matrix(1,0,0,-1,138.939,138.19)"
         id="path476" />
      <path
         style="fill:#eb1c23;fill-opacity:1;fill-rule:nonzero;stroke:none"
         d="m 138.95312,138.05469 c 0.6875,0 1.34766,-0.27344 1.83204,-0.76172 0.48828,-0.48438 0.76171,-1.14453 0.76171,-1.83203 0,-0.6875 -0.27343,-1.34766 -0.76171,-1.83594 -0.48438,-0.48438 -1.14454,-0.75781 -1.83204,-0.75781 -0.6875,0 -1.34765,0.27343 -1.83593,0.75781 -0.48438,0.48828 -0.75782,1.14844 -0.75782,1.83594 0,0.6875 0.27344,1.34765 0.75782,1.83203 0.48828,0.48828 1.14843,0.76172 1.83593,0.76172"
         id="path477" />
      <path
         style="fill:none;stroke:#211e1e;stroke-width:0.432;stroke-linecap:butt;stroke-linejoin:round;stroke-miterlimit:10;stroke-opacity:1"
         d="m 1.25e-4,-6.875e-4 c 0.6875,0 1.347656,0.2734375 1.832031,0.7617185 0.488281,0.484375 0.761719,1.144531 0.761719,1.832031 0,0.6875 -0.273438,1.347657 -0.761719,1.835938 -0.484375,0.484375 -1.144531,0.757812 -1.832031,0.757812 -0.6875,0 -1.347656,-0.273437 -1.835938,-0.757812 -0.484375,-0.488281 -0.757812,-1.148438 -0.757812,-1.835938 0,-0.6875 0.273437,-1.347656 0.757812,-1.832031 C -1.347531,0.27275 -0.687375,-6.875e-4 1.25e-4,-6.875e-4 Z m 0,0"
         transform="matrix(1,0,0,-1,138.953,138.054)"
         id="path478" />
    </g>
    <g
       clip-path="url(#clip7)"
       clip-rule="nonzero"
       id="g479"
       transform="matrix(0,-0.35277777,-0.35277777,0,120.80011,99.10703)">
      <path
         style="fill:#eb1c23;fill-opacity:1;fill-rule:nonzero;stroke:none"
         d="m 138.96484,137.99219 c 0.6875,0 1.34766,-0.27344 1.83594,-0.76172 0.48438,-0.48438 0.75781,-1.14453 0.75781,-1.83203 0,-0.6875 -0.27343,-1.34766 -0.75781,-1.83203 -0.48828,-0.48829 -1.14844,-0.76172 -1.83594,-0.76172 -0.6875,0 -1.34765,0.27343 -1.83203,0.76172 -0.48828,0.48437 -0.76172,1.14453 -0.76172,1.83203 0,0.6875 0.27344,1.34765 0.76172,1.83203 0.48438,0.48828 1.14453,0.76172 1.83203,0.76172"
         id="path479" />
    </g>
    <g
       clip-path="url(#clip8)"
       clip-rule="nonzero"
       id="g480"
       transform="matrix(0,-0.35277777,-0.35277777,0,120.80011,99.10703)">
      <path
         style="fill:none;stroke:#211e1e;stroke-width:0.432;stroke-linecap:butt;stroke-linejoin:round;stroke-miterlimit:10;stroke-opacity:1"
         d="M -0.00115625,-1.875e-4 C 0.686344,-1.875e-4 1.3465,0.27325 1.834781,0.761531 c 0.484375,0.484375 0.757813,1.144531 0.757813,1.832031 0,0.6875 -0.273438,1.347657 -0.757813,1.832032 C 1.3465,4.913875 0.686344,5.187312 -0.00115625,5.187312 -0.688656,5.187312 -1.348813,4.913875 -1.833188,4.425594 -2.321469,3.941219 -2.594906,3.281062 -2.594906,2.593562 c 0,-0.6875 0.273437,-1.347656 0.761718,-1.832031 0.484375,-0.488281 1.144532,-0.7617185 1.83203175,-0.7617185 z m 0,0"
         transform="matrix(1,0,0,-1,138.966,137.992)"
         id="path480" />
    </g>
    <g
       clip-path="url(#clip9)"
       clip-rule="nonzero"
       id="g481"
       transform="matrix(0,-0.35277777,-0.35277777,0,120.80011,99.10703)">
      <path
         style="fill:#eb1c23;fill-opacity:1;fill-rule:nonzero;stroke:none"
         d="m 138.98047,137.80078 c 0.6875,0 1.34375,-0.27344 1.83203,-0.76172 0.48828,-0.48437 0.75781,-1.14453 0.75781,-1.83203 0,-0.6875 -0.26953,-1.34766 -0.75781,-1.83594 -0.48828,-0.48437 -1.14453,-0.75781 -1.83203,-0.75781 -0.69141,0 -1.34766,0.27344 -1.83594,0.75781 -0.48437,0.48828 -0.75781,1.14844 -0.75781,1.83594 0,0.6875 0.27344,1.34766 0.75781,1.83203 0.48828,0.48828 1.14453,0.76172 1.83594,0.76172"
         id="path481" />
    </g>
    <g
       clip-path="url(#clip10)"
       clip-rule="nonzero"
       id="g482"
       transform="matrix(0,-0.35277777,-0.35277777,0,120.80011,99.10703)">
      <path
         style="fill:none;stroke:#211e1e;stroke-width:0.432;stroke-linecap:butt;stroke-linejoin:round;stroke-miterlimit:10;stroke-opacity:1"
         d="M 0.00146875,-7.8125e-4 C 0.688969,-7.8125e-4 1.345219,0.272656 1.8335,0.760937 c 0.488281,0.484375 0.757813,1.144532 0.757813,1.832032 0,0.6875 -0.269532,1.347656 -0.757813,1.835937 C 1.345219,4.913281 0.688969,5.186719 0.00146875,5.186719 -0.689937,5.186719 -1.346187,4.913281 -1.834469,4.428906 -2.318844,3.940625 -2.592281,3.280469 -2.592281,2.592969 c 0,-0.6875 0.273437,-1.347657 0.757812,-1.832032 0.488282,-0.488281 1.144532,-0.76171825 1.83593775,-0.76171825 z m 0,0"
         transform="matrix(1,0,0,-1,138.979,137.8)"
         id="path482" />
    </g>
    <g
       clip-path="url(#clip11)"
       clip-rule="nonzero"
       id="g488"
       transform="matrix(0,-0.35277777,-0.35277777,0,120.80011,99.10703)">
      <path
         style="fill:#eb1c23;fill-opacity:1;fill-rule:nonzero;stroke:none"
         d="m 138.98437,137.69141 c 0.6875,0 1.34766,-0.27735 1.83594,-0.76172 0.48438,-0.48828 0.75781,-1.14453 0.75781,-1.83203 0,-0.6875 -0.27343,-1.34766 -0.75781,-1.83594 -0.48828,-0.48438 -1.14844,-0.75781 -1.83594,-0.75781 -0.6875,0 -1.34765,0.27343 -1.83203,0.75781 -0.48828,0.48828 -0.76172,1.14844 -0.76172,1.83594 0,0.6875 0.27344,1.34375 0.76172,1.83203 0.48438,0.48437 1.14453,0.76172 1.83203,0.76172"
         id="path483" />
      <path
         style="fill:none;stroke:#211e1e;stroke-width:0.432;stroke-linecap:butt;stroke-linejoin:round;stroke-miterlimit:10;stroke-opacity:1"
         d="m -0.001625,-0.00140625 c 0.6875,0 1.347656,0.27734325 1.835937,0.76171825 0.484375,0.488282 0.757813,1.144532 0.757813,1.832032 0,0.6875 -0.273438,1.347656 -0.757813,1.835937 -0.488281,0.484375 -1.148437,0.757813 -1.835937,0.757813 -0.6875,0 -1.347656,-0.273438 -1.832031,-0.757813 C -2.321938,3.94 -2.595375,3.279844 -2.595375,2.592344 c 0,-0.6875 0.273437,-1.34375 0.761719,-1.832032 0.484375,-0.484375 1.144531,-0.76171825 1.832031,-0.76171825 z m 0,0"
         transform="matrix(1,0,0,-1,138.986,137.69)"
         id="path484" />
      <path
         style="fill:#eb1c23;fill-opacity:1;fill-rule:nonzero;stroke:none"
         d="m 138.99219,137.73437 c 0.6875,0 1.34765,-0.27343 1.83593,-0.76171 0.48438,-0.48438 0.75782,-1.14454 0.75782,-1.83204 0,-0.6875 -0.27344,-1.34765 -0.75782,-1.83203 -0.48828,-0.48828 -1.14843,-0.76172 -1.83593,-0.76172 -0.6875,0 -1.34766,0.27344 -1.83203,0.76172 -0.48829,0.48438 -0.76172,1.14453 -0.76172,1.83203 0,0.6875 0.27343,1.34766 0.76172,1.83204 0.48437,0.48828 1.14453,0.76171 1.83203,0.76171"
         id="path485" />
      <path
         style="fill:none;stroke:#211e1e;stroke-width:0.432;stroke-linecap:butt;stroke-linejoin:round;stroke-miterlimit:10;stroke-opacity:1"
         d="m -8.125e-4,-3.75e-4 c 0.6875005,0 1.3476565,0.273437 1.8359375,0.761719 0.484375,0.484375 0.757813,1.144531 0.757813,1.832031 0,0.6875 -0.273438,1.347656 -0.757813,1.832031 -0.488281,0.488281 -1.148437,0.761719 -1.8359375,0.761719 -0.6874995,0 -1.3476565,-0.273438 -1.8320315,-0.761719 -0.488281,-0.484375 -0.761718,-1.144531 -0.761718,-1.832031 0,-0.6875 0.273437,-1.347656 0.761718,-1.832031 0.484375,-0.488282 1.144532,-0.761719 1.8320315,-0.761719 z m 0,0"
         transform="matrix(1,0,0,-1,138.993,137.734)"
         id="path486" />
      <path
         style="fill:#eb1c23;fill-opacity:1;fill-rule:nonzero;stroke:none"
         d="m 139.03906,137.41406 c 0.6875,0 1.34766,-0.26953 1.83203,-0.75781 0.48828,-0.48438 0.76172,-1.14453 0.76172,-1.83594 0,-0.6875 -0.27344,-1.34375 -0.76172,-1.83203 -0.48437,-0.48437 -1.14453,-0.75781 -1.83203,-0.75781 -0.6875,0 -1.34765,0.27344 -1.83594,0.75781 -0.48437,0.48828 -0.75781,1.14453 -0.75781,1.83203 0,0.69141 0.27344,1.35156 0.75781,1.83594 0.48829,0.48828 1.14844,0.75781 1.83594,0.75781"
         id="path487" />
      <path
         style="fill:none;stroke:#211e1e;stroke-width:0.432;stroke-linecap:butt;stroke-linejoin:round;stroke-miterlimit:10;stroke-opacity:1"
         d="m 6.25e-5,0.0019375 c 0.6875005,0 1.3476565,0.2695315 1.8320315,0.7578125 0.488281,0.484375 0.761719,1.144531 0.761719,1.835937 0,0.6875 -0.273438,1.34375 -0.761719,1.832032 C 1.347719,4.912094 0.687563,5.185531 6.25e-5,5.185531 -0.687437,5.185531 -1.347594,4.912094 -1.835875,4.427719 -2.32025,3.939437 -2.593687,3.283187 -2.593687,2.595687 c 0,-0.691406 0.273437,-1.351562 0.757812,-1.835937 C -1.347594,0.271469 -0.687437,0.0019375 6.25e-5,0.0019375 Z m 0,0"
         transform="matrix(1,0,0,-1,139.039,137.416)"
         id="path488" />
    </g>
    <g
       clip-path="url(#clip12)"
       clip-rule="nonzero"
       id="g490"
       transform="matrix(0,-0.35277777,-0.35277777,0,120.80011,99.10703)">
      <path
         style="fill:#eb1c23;fill-opacity:1;fill-rule:nonzero;stroke:none"
         d="m 139.10547,137.05078 c 0.6875,0 1.34765,-0.27344 1.83203,-0.75781 0.48828,-0.48828 0.76172,-1.14844 0.76172,-1.83594 0,-0.6875 -0.27344,-1.34766 -0.76172,-1.83203 -0.48438,-0.48828 -1.14453,-0.76172 -1.83203,-0.76172 -0.6875,0 -1.34766,0.27344 -1.83594,0.76172 -0.48437,0.48437 -0.75781,1.14453 -0.75781,1.83203 0,0.6875 0.27344,1.34766 0.75781,1.83594 0.48828,0.48437 1.14844,0.75781 1.83594,0.75781"
         id="path489" />
      <path
         style="fill:none;stroke:#211e1e;stroke-width:0.432;stroke-linecap:butt;stroke-linejoin:round;stroke-miterlimit:10;stroke-opacity:1"
         d="M 4.6875e-4,0.00121875 C 0.687969,0.00121875 1.348125,0.274656 1.8325,0.759031 2.320781,1.247312 2.594219,1.907469 2.594219,2.594969 2.594219,3.282469 2.320781,3.942625 1.8325,4.427 1.348125,4.915281 0.687969,5.188719 4.6875e-4,5.188719 -0.687031,5.188719 -1.347187,4.915281 -1.835469,4.427 -2.319844,3.942625 -2.593281,3.282469 -2.593281,2.594969 c 0,-0.6875 0.273437,-1.347657 0.757812,-1.835938 0.488282,-0.484375 1.148438,-0.75781225 1.83593775,-0.75781225 z m 0,0"
         transform="matrix(1,0,0,-1,139.105,137.052)"
         id="path490" />
    </g>
    <g
       clip-path="url(#clip13)"
       clip-rule="nonzero"
       id="g491"
       transform="matrix(0,-0.35277777,-0.35277777,0,120.80011,99.10703)">
      <path
         style="fill:#eb1c23;fill-opacity:1;fill-rule:nonzero;stroke:none"
         d="m 139.21094,136.57031 c 0.6875,0 1.34765,-0.27344 1.83593,-0.75781 0.48438,-0.48828 0.75782,-1.14844 0.75782,-1.83594 0,-0.6875 -0.27344,-1.34765 -0.75782,-1.83203 -0.48828,-0.48828 -1.14843,-0.76172 -1.83593,-0.76172 -0.6875,0 -1.34766,0.27344 -1.83203,0.76172 -0.48829,0.48438 -0.76172,1.14453 -0.76172,1.83203 0,0.6875 0.27343,1.34766 0.76172,1.83594 0.48437,0.48437 1.14453,0.75781 1.83203,0.75781"
         id="path491" />
    </g>
    <g
       clip-path="url(#clip14)"
       clip-rule="nonzero"
       id="g492"
       transform="matrix(0,-0.35277777,-0.35277777,0,120.80011,99.10703)">
      <path
         style="fill:none;stroke:#211e1e;stroke-width:0.432;stroke-linecap:butt;stroke-linejoin:round;stroke-miterlimit:10;stroke-opacity:1"
         d="m -0.0010625,6.875e-4 c 0.6875005,0 1.3476565,0.2734375 1.8359375,0.7578125 0.484375,0.488281 0.757813,1.148437 0.757813,1.835937 0,0.6875 -0.273438,1.347657 -0.757813,1.832032 C 1.346594,4.91475 0.686438,5.188187 -0.0010625,5.188187 -0.688562,5.188187 -1.348719,4.91475 -1.833094,4.426469 -2.321375,3.942094 -2.594812,3.281937 -2.594812,2.594437 c 0,-0.6875 0.273437,-1.347656 0.761718,-1.835937 0.484375,-0.484375 1.144532,-0.7578125 1.8320315,-0.7578125 z m 0,0"
         transform="matrix(1,0,0,-1,139.212,136.571)"
         id="path492" />
    </g>
    <g
       clip-path="url(#clip15)"
       clip-rule="nonzero"
       id="g493"
       transform="matrix(0,-0.35277777,-0.35277777,0,120.80011,99.10703)">
      <path
         style="fill:#eb1c23;fill-opacity:1;fill-rule:nonzero;stroke:none"
         d="m 139.37109,136.03516 c 0.6875,0 1.34766,-0.27344 1.83203,-0.76172 0.48829,-0.48438 0.76172,-1.14453 0.76172,-1.83203 0,-0.6875 -0.27343,-1.34766 -0.76172,-1.83204 -0.48437,-0.48828 -1.14453,-0.76171 -1.83203,-0.76171 -0.6875,0 -1.34765,0.27343 -1.83593,0.76171 -0.48438,0.48438 -0.75782,1.14454 -0.75782,1.83204 0,0.6875 0.27344,1.34765 0.75782,1.83203 0.48828,0.48828 1.14843,0.76172 1.83593,0.76172"
         id="path493" />
    </g>
    <g
       clip-path="url(#clip16)"
       clip-rule="nonzero"
       id="g494"
       transform="matrix(0,-0.35277777,-0.35277777,0,120.80011,99.10703)">
      <path
         style="fill:none;stroke:#211e1e;stroke-width:0.432;stroke-linecap:butt;stroke-linejoin:round;stroke-miterlimit:10;stroke-opacity:1"
         d="m 9.375e-5,-1.5625e-4 c 0.68750025,0 1.34765625,0.27343725 1.83203125,0.76171825 0.488281,0.484375 0.761719,1.144532 0.761719,1.832032 0,0.6875 -0.273438,1.347656 -0.761719,1.832031 C 1.34775,4.913906 0.687594,5.187344 9.375e-5,5.187344 -0.687406,5.187344 -1.347563,4.913906 -1.835844,4.425625 -2.320219,3.94125 -2.593656,3.281094 -2.593656,2.593594 c 0,-0.6875 0.273437,-1.347657 0.757812,-1.832032 C -1.347563,0.273281 -0.687406,-1.5625e-4 9.375e-5,-1.5625e-4 Z m 0,0"
         transform="matrix(1,0,0,-1,139.371,136.035)"
         id="path494" />
    </g>
    <g
       clip-path="url(#clip17)"
       clip-rule="nonzero"
       id="g495"
       transform="matrix(0,-0.35277777,-0.35277777,0,120.80011,99.10703)">
      <path
         style="fill:#eb1c23;fill-opacity:1;fill-rule:nonzero;stroke:none"
         d="m 139.62109,135.37891 c 0.69141,0 1.35157,-0.27344 1.83594,-0.76172 0.48438,-0.48438 0.75781,-1.14453 0.75781,-1.83203 0,-0.6875 -0.27343,-1.34766 -0.75781,-1.83594 -0.48437,-0.48438 -1.14453,-0.75781 -1.83594,-0.75781 -0.68359,0 -1.34375,0.27343 -1.83203,0.75781 -0.48437,0.48828 -0.75781,1.14844 -0.75781,1.83594 0,0.6875 0.27344,1.34765 0.75781,1.83203 0.48828,0.48828 1.14844,0.76172 1.83203,0.76172"
         id="path495" />
    </g>
    <g
       clip-path="url(#clip18)"
       clip-rule="nonzero"
       id="g496"
       transform="matrix(0,-0.35277777,-0.35277777,0,120.80011,99.10703)">
      <path
         style="fill:none;stroke:#211e1e;stroke-width:0.432;stroke-linecap:butt;stroke-linejoin:round;stroke-miterlimit:10;stroke-opacity:1"
         d="m -0.00190625,-0.00190625 c 0.69140625,0 1.35156225,0.27343725 1.83593725,0.76171825 0.484375,0.484375 0.757813,1.144532 0.757813,1.832032 0,0.6875 -0.273438,1.347656 -0.757813,1.835937 C 1.349656,4.912156 0.6895,5.185594 -0.00190625,5.185594 -0.6855,5.185594 -1.345656,4.912156 -1.833937,4.427781 -2.318312,3.9395 -2.59175,3.279344 -2.59175,2.591844 c 0,-0.6875 0.273438,-1.347657 0.757813,-1.832032 0.488281,-0.488281 1.148437,-0.76171825 1.83203075,-0.76171825 z m 0,0"
         transform="matrix(1,0,0,-1,139.623,135.377)"
         id="path496" />
    </g>
    <g
       clip-path="url(#clip19)"
       clip-rule="nonzero"
       id="g498"
       transform="matrix(0,-0.35277777,-0.35277777,0,120.80011,99.10703)">
      <path
         style="fill:#eb1c23;fill-opacity:1;fill-rule:nonzero;stroke:none"
         d="m 140.00391,134.42187 c 0.6875,0 1.34765,-0.27343 1.83203,-0.76171 0.48437,-0.48438 0.76172,-1.14454 0.76172,-1.83204 0,-0.6875 -0.27735,-1.34765 -0.76172,-1.83593 -0.48438,-0.48438 -1.14453,-0.75782 -1.83203,-0.75782 -0.6875,0 -1.34766,0.27344 -1.83594,0.75782 -0.48438,0.48828 -0.75781,1.14843 -0.75781,1.83593 0,0.6875 0.27343,1.34766 0.75781,1.83204 0.48828,0.48828 1.14844,0.76171 1.83594,0.76171"
         id="path497" />
      <path
         style="fill:none;stroke:#211e1e;stroke-width:0.432;stroke-linecap:butt;stroke-linejoin:round;stroke-miterlimit:10;stroke-opacity:1"
         d="m 0.00190625,-8.75e-4 c 0.68749975,0 1.34765575,0.273437 1.83203075,0.761719 0.484375,0.484375 0.761719,1.144531 0.761719,1.832031 0,0.6875 -0.277344,1.347656 -0.761719,1.835937 C 1.349562,4.913187 0.689406,5.186625 0.00190625,5.186625 -0.685594,5.186625 -1.34575,4.913187 -1.834031,4.428812 -2.318406,3.940531 -2.591844,3.280375 -2.591844,2.592875 c 0,-0.6875 0.273438,-1.347656 0.757813,-1.832031 0.488281,-0.488282 1.148437,-0.761719 1.83593725,-0.761719 z m 0,0"
         transform="matrix(1,0,0,-1,140.002,134.421)"
         id="path498" />
    </g>
    <g
       clip-path="url(#clip20)"
       clip-rule="nonzero"
       id="g499"
       transform="matrix(0,-0.35277777,-0.35277777,0,120.80011,99.10703)">
      <path
         style="fill:#eb1c23;fill-opacity:1;fill-rule:nonzero;stroke:none"
         d="m 140.59375,133.28516 c 0.6875,0 1.34766,-0.26954 1.83594,-0.75782 0.48437,-0.48828 0.75781,-1.14453 0.75781,-1.83203 0,-0.6875 -0.27344,-1.34765 -0.75781,-1.83594 -0.48828,-0.48828 -1.14844,-0.75781 -1.83594,-0.75781 -0.6875,0 -1.34766,0.26953 -1.83203,0.75781 -0.48828,0.48829 -0.76172,1.14844 -0.76172,1.83594 0,0.6875 0.27344,1.34375 0.76172,1.83203 0.48437,0.48828 1.14453,0.75782 1.83203,0.75782"
         id="path499" />
    </g>
    <g
       clip-path="url(#clip21)"
       clip-rule="nonzero"
       id="g500"
       transform="matrix(0,-0.35277777,-0.35277777,0,120.80011,99.10703)">
      <path
         style="fill:none;stroke:#211e1e;stroke-width:0.432;stroke-linecap:butt;stroke-linejoin:round;stroke-miterlimit:10;stroke-opacity:1"
         d="m -2.5e-4,0.00184375 c 0.6875,0 1.347656,0.26953125 1.835938,0.75781225 0.484375,0.488281 0.757812,1.144531 0.757812,1.832031 0,0.6875 -0.273437,1.347657 -0.757812,1.835938 C 1.347406,4.915906 0.68725,5.185437 -2.5e-4,5.185437 c -0.6875,0 -1.347656,-0.269531 -1.832031,-0.757812 C -2.320562,3.939344 -2.594,3.279187 -2.594,2.591687 c 0,-0.6875 0.273438,-1.34375 0.761719,-1.832031 C -1.347906,0.271375 -0.68775,0.00184375 -2.5e-4,0.00184375 Z m 0,0"
         transform="matrix(1,0,0,-1,140.594,133.287)"
         id="path500" />
    </g>
    <g
       clip-path="url(#clip22)"
       clip-rule="nonzero"
       id="g502"
       transform="matrix(0,-0.35277777,-0.35277777,0,120.80011,99.10703)">
      <path
         style="fill:#eb1c23;fill-opacity:1;fill-rule:nonzero;stroke:none"
         d="m 141.50391,131.77344 c 0.6875,0 1.34765,-0.26953 1.83203,-0.75782 0.48828,-0.48828 0.76172,-1.14843 0.76172,-1.83203 0,-0.6914 -0.27344,-1.34765 -0.76172,-1.83593 -0.48438,-0.48828 -1.14453,-0.75782 -1.83203,-0.75782 -0.6875,0 -1.34766,0.26954 -1.83204,0.75782 -0.48828,0.48828 -0.76171,1.14453 -0.76171,1.83593 0,0.6836 0.27343,1.34375 0.76171,1.83203 0.48438,0.48829 1.14454,0.75782 1.83204,0.75782"
         id="path501" />
      <path
         style="fill:none;stroke:#211e1e;stroke-width:0.432;stroke-linecap:butt;stroke-linejoin:round;stroke-miterlimit:10;stroke-opacity:1"
         d="m 9.0625e-4,0.0015625 c 0.68749975,0 1.34765675,0.2695315 1.83203175,0.7578125 0.488281,0.488281 0.761718,1.148437 0.761718,1.832031 0,0.691406 -0.273437,1.347656 -0.761718,1.835938 C 1.348563,4.915625 0.688406,5.185156 9.0625e-4,5.185156 -0.686594,5.185156 -1.34675,4.915625 -1.831125,4.427344 -2.319406,3.939062 -2.592844,3.282812 -2.592844,2.591406 c 0,-0.683594 0.273438,-1.34375 0.761719,-1.832031 C -1.34675,0.271094 -0.686594,0.0015625 9.0625e-4,0.0015625 Z m 0,0"
         transform="matrix(1,0,0,-1,141.503,131.775)"
         id="path502" />
    </g>
    <path
       style="fill:#eb1c23;fill-opacity:1;fill-rule:nonzero;stroke:none;stroke-width:0.352778"
       d="m 74.956913,48.695637 c 0,-0.242535 0.09646,-0.475421 0.267338,-0.646299 0.172258,-0.172255 0.403769,-0.268718 0.647679,-0.268718 0.241156,0 0.474045,0.09646 0.6463,0.268718 0.172254,0.170878 0.267338,0.403764 0.267338,0.646299 0,0.242535 -0.09508,0.475424 -0.267338,0.647679 -0.172255,0.170878 -0.405144,0.267338 -0.6463,0.267338 -0.24391,0 -0.475421,-0.09646 -0.647679,-0.267338 -0.170874,-0.172255 -0.267338,-0.405144 -0.267338,-0.647679"
       id="path503" />
    <path
       style="fill:none;stroke:#211e1e;stroke-width:0.1524;stroke-linecap:butt;stroke-linejoin:round;stroke-miterlimit:10;stroke-opacity:1"
       d="m 74.956913,48.695638 c 0,-0.242535 0.09646,-0.475424 0.26734,-0.6463 0.172255,-0.172255 0.403765,-0.268718 0.647678,-0.268718 0.241156,0 0.474045,0.09646 0.646299,0.268718 0.172255,0.170876 0.26734,0.403765 0.26734,0.6463 0,0.242535 -0.09508,0.475423 -0.26734,0.647678 -0.172254,0.170876 -0.405143,0.267339 -0.646299,0.267339 -0.243913,0 -0.475423,-0.09646 -0.647678,-0.267339 -0.170877,-0.172255 -0.26734,-0.405143 -0.26734,-0.647678 z m 0,0"
       id="path504" />
    <path
       style="fill:#eb1c23;fill-opacity:1;fill-rule:nonzero;stroke:none;stroke-width:0.352778"
       d="m 75.313825,48.461371 c 0,-0.242534 0.09646,-0.475424 0.267339,-0.646299 0.172254,-0.172254 0.405144,-0.268718 0.647679,-0.268718 0.242534,0 0.475424,0.09646 0.646299,0.268718 0.172254,0.170875 0.267339,0.403765 0.267339,0.646299 0,0.242535 -0.09509,0.475425 -0.267339,0.647679 -0.170875,0.170875 -0.403765,0.267339 -0.646299,0.267339 -0.242535,0 -0.475425,-0.09646 -0.647679,-0.267339 -0.170875,-0.172254 -0.267339,-0.405144 -0.267339,-0.647679"
       id="path505" />
    <path
       style="fill:none;stroke:#211e1e;stroke-width:0.1524;stroke-linecap:butt;stroke-linejoin:round;stroke-miterlimit:10;stroke-opacity:1"
       d="m 75.313825,48.461372 c 0,-0.242535 0.09646,-0.475423 0.267339,-0.6463 0.172255,-0.172255 0.405144,-0.268718 0.647679,-0.268718 0.242534,0 0.475423,0.09646 0.646299,0.268718 0.172255,0.170877 0.26734,0.403765 0.26734,0.6463 0,0.242534 -0.09508,0.475423 -0.26734,0.647678 -0.170876,0.170876 -0.403765,0.267339 -0.646299,0.267339 -0.242535,0 -0.475424,-0.09646 -0.647679,-0.267339 -0.170876,-0.172255 -0.267339,-0.405144 -0.267339,-0.647678 z m 0,0"
       id="path506" />
    <path
       style="fill:#eb1c23;fill-opacity:1;fill-rule:nonzero;stroke:none;stroke-width:0.352778"
       d="m 75.738259,48.100325 c 0,-0.242535 0.09646,-0.475421 0.268718,-0.6463 0.170879,-0.172254 0.403765,-0.268718 0.6463,-0.268718 0.242534,0 0.475424,0.09646 0.647678,0.268718 0.170879,0.170879 0.267339,0.403765 0.267339,0.6463 0,0.242534 -0.09646,0.475424 -0.267339,0.647678 -0.172254,0.170879 -0.405144,0.267339 -0.647678,0.267339 -0.242535,0 -0.475421,-0.09646 -0.6463,-0.267339 -0.172254,-0.172254 -0.268718,-0.405144 -0.268718,-0.647678"
       id="path507" />
    <path
       style="fill:none;stroke:#211e1e;stroke-width:0.1524;stroke-linecap:butt;stroke-linejoin:round;stroke-miterlimit:10;stroke-opacity:1"
       d="m 75.738261,48.100325 c 0,-0.242534 0.09646,-0.475423 0.268717,-0.6463 0.170877,-0.172254 0.403765,-0.268717 0.6463,-0.268717 0.242535,0 0.475423,0.09646 0.647678,0.268717 0.170877,0.170877 0.267339,0.403766 0.267339,0.6463 0,0.242535 -0.09646,0.475424 -0.267339,0.647678 -0.172255,0.170877 -0.405143,0.26734 -0.647678,0.26734 -0.242535,0 -0.475423,-0.09646 -0.6463,-0.26734 -0.172255,-0.172254 -0.268717,-0.405143 -0.268717,-0.647678 z m 0,0"
       id="path508" />
    <path
       style="fill:#eb1c23;fill-opacity:1;fill-rule:nonzero;stroke:none;stroke-width:0.352778"
       d="m 76.18199,47.662111 c 0,-0.242535 0.09646,-0.475424 0.267339,-0.646303 0.172254,-0.172254 0.403764,-0.268714 0.647679,-0.268714 0.242534,0 0.475421,0.09646 0.646299,0.268714 0.172254,0.170879 0.268718,0.403768 0.268718,0.646303 0,0.242535 -0.09646,0.475421 -0.268718,0.647675 -0.170878,0.170879 -0.403765,0.267342 -0.646299,0.267342 -0.243915,0 -0.475425,-0.09646 -0.647679,-0.267342 -0.170879,-0.172254 -0.267339,-0.40514 -0.267339,-0.647675"
       id="path509" />
    <path
       style="fill:none;stroke:#211e1e;stroke-width:0.1524;stroke-linecap:butt;stroke-linejoin:round;stroke-miterlimit:10;stroke-opacity:1"
       d="m 76.181989,47.662109 c 0,-0.242535 0.09646,-0.475423 0.26734,-0.6463 0.172254,-0.172254 0.403765,-0.268717 0.647677,-0.268717 0.242535,0 0.475424,0.09646 0.6463,0.268717 0.172255,0.170877 0.268718,0.403765 0.268718,0.6463 0,0.242535 -0.09646,0.475423 -0.268718,0.647678 -0.170876,0.170877 -0.403765,0.267339 -0.6463,0.267339 -0.243912,0 -0.475423,-0.09646 -0.647677,-0.267339 -0.170877,-0.172255 -0.26734,-0.405143 -0.26734,-0.647678 z m 0,0"
       id="path510" />
    <path
       style="fill:#eb1c23;fill-opacity:1;fill-rule:nonzero;stroke:none;stroke-width:0.352778"
       d="m 76.60229,47.123296 c 0,-0.242535 0.09646,-0.475421 0.267342,-0.6463 0.172254,-0.172254 0.40514,-0.268717 0.647675,-0.268717 0.242535,0 0.474045,0.09646 0.646299,0.268717 0.172258,0.170879 0.268718,0.403765 0.268718,0.6463 0,0.242535 -0.09646,0.475424 -0.268718,0.647679 -0.172254,0.170875 -0.403764,0.267338 -0.646299,0.267338 -0.242535,0 -0.475421,-0.09646 -0.647675,-0.267338 C 76.698753,47.59872 76.60229,47.365831 76.60229,47.123296"
       id="path511" />
    <path
       style="fill:none;stroke:#211e1e;stroke-width:0.1524;stroke-linecap:butt;stroke-linejoin:round;stroke-miterlimit:10;stroke-opacity:1"
       d="m 76.602291,47.123297 c 0,-0.242535 0.09646,-0.475424 0.267339,-0.6463 0.172255,-0.172255 0.405143,-0.268718 0.647678,-0.268718 0.242535,0 0.474045,0.09646 0.6463,0.268718 0.172255,0.170876 0.268717,0.403765 0.268717,0.6463 0,0.242534 -0.09646,0.475423 -0.268717,0.647678 -0.172255,0.170876 -0.403765,0.267339 -0.6463,0.267339 -0.242535,0 -0.475423,-0.09646 -0.647678,-0.267339 -0.170877,-0.172255 -0.267339,-0.405144 -0.267339,-0.647678 z m 0,0"
       id="path512" />
    <path
       style="fill:#eb1c23;fill-opacity:1;fill-rule:nonzero;stroke:none;stroke-width:0.352778"
       d="m 77.205871,46.470107 c 0,-0.242535 0.09646,-0.475425 0.267339,-0.647679 0.172254,-0.170875 0.405144,-0.267339 0.647679,-0.267339 0.242534,0 0.475424,0.09646 0.646299,0.267339 0.172254,0.172254 0.268718,0.405144 0.268718,0.647679 0,0.242534 -0.09646,0.475424 -0.268718,0.646299 -0.170875,0.172254 -0.403765,0.268718 -0.646299,0.268718 -0.242535,0 -0.475425,-0.09646 -0.647679,-0.268718 -0.170875,-0.170875 -0.267339,-0.403765 -0.267339,-0.646299"
       id="path513" />
    <path
       style="fill:none;stroke:#211e1e;stroke-width:0.1524;stroke-linecap:butt;stroke-linejoin:round;stroke-miterlimit:10;stroke-opacity:1"
       d="m 77.205872,46.470106 c 0,-0.242535 0.09646,-0.475424 0.267339,-0.647678 0.172255,-0.170877 0.405143,-0.267339 0.647678,-0.267339 0.242535,0 0.475423,0.09646 0.6463,0.267339 0.172255,0.172254 0.268717,0.405143 0.268717,0.647678 0,0.242535 -0.09646,0.475423 -0.268717,0.6463 -0.170877,0.172254 -0.403765,0.268717 -0.6463,0.268717 -0.242535,0 -0.475423,-0.09646 -0.647678,-0.268717 -0.170877,-0.170877 -0.267339,-0.403765 -0.267339,-0.6463 z m 0,0"
       id="path514" />
    <path
       style="fill:#eb1c23;fill-opacity:1;fill-rule:nonzero;stroke:none;stroke-width:0.352778"
       d="m 77.766731,45.670843 c 0,-0.242535 0.09646,-0.475421 0.268718,-0.647676 0.170879,-0.170878 0.403765,-0.267342 0.6463,-0.267342 0.243914,0 0.475424,0.09646 0.647679,0.267342 0.170878,0.172255 0.267338,0.405141 0.267338,0.647676 0,0.242535 -0.09646,0.475424 -0.267338,0.646303 -0.172255,0.172254 -0.403765,0.268714 -0.647679,0.268714 -0.242535,0 -0.475421,-0.09646 -0.6463,-0.268714 -0.172254,-0.170879 -0.268718,-0.403768 -0.268718,-0.646303"
       id="path515" />
    <path
       style="fill:none;stroke:#211e1e;stroke-width:0.1524;stroke-linecap:butt;stroke-linejoin:round;stroke-miterlimit:10;stroke-opacity:1"
       d="m 77.766733,45.670844 c 0,-0.242534 0.09646,-0.475423 0.268717,-0.647678 0.170877,-0.170876 0.403766,-0.267339 0.6463,-0.267339 0.243913,0 0.475423,0.09646 0.647678,0.267339 0.170877,0.172255 0.26734,0.405144 0.26734,0.647678 0,0.242535 -0.09646,0.475423 -0.26734,0.6463 -0.172255,0.172255 -0.403765,0.268718 -0.647678,0.268718 -0.242534,0 -0.475423,-0.09646 -0.6463,-0.268718 -0.172255,-0.170877 -0.268717,-0.403765 -0.268717,-0.6463 z m 0,0"
       id="path516" />
    <path
       style="fill:#eb1c23;fill-opacity:1;fill-rule:nonzero;stroke:none;stroke-width:0.352778"
       d="m 78.368937,44.693814 c 0,-0.242535 0.09646,-0.475421 0.267339,-0.647675 0.172254,-0.170879 0.405144,-0.267342 0.647679,-0.267342 0.242534,0 0.475421,0.09646 0.646299,0.267342 0.172254,0.172254 0.268718,0.40514 0.268718,0.647675 0,0.242535 -0.09646,0.475425 -0.268718,0.6463 -0.170878,0.172257 -0.403765,0.268718 -0.646299,0.268718 -0.242535,0 -0.475425,-0.09646 -0.647679,-0.268718 -0.170879,-0.170875 -0.267339,-0.403765 -0.267339,-0.6463"
       id="path517" />
    <path
       style="fill:none;stroke:#211e1e;stroke-width:0.1524;stroke-linecap:butt;stroke-linejoin:round;stroke-miterlimit:10;stroke-opacity:1"
       d="m 78.368936,44.693815 c 0,-0.242535 0.09646,-0.475424 0.267339,-0.647678 0.172255,-0.170877 0.405143,-0.26734 0.647678,-0.26734 0.242534,0 0.475423,0.09646 0.6463,0.26734 0.172255,0.172254 0.268717,0.405143 0.268717,0.647678 0,0.242534 -0.09646,0.475423 -0.268717,0.6463 -0.170877,0.172254 -0.403766,0.268717 -0.6463,0.268717 -0.242535,0 -0.475423,-0.09646 -0.647678,-0.268717 -0.170877,-0.170877 -0.267339,-0.403766 -0.267339,-0.6463 z m 0,0"
       id="path518" />
    <path
       style="fill:#eb1c23;fill-opacity:1;fill-rule:nonzero;stroke:none;stroke-width:0.352778"
       d="m 79.14477,43.505948 c 0,-0.242535 0.09646,-0.475425 0.267342,-0.647679 0.172254,-0.170878 0.403764,-0.267338 0.647675,-0.267338 0.242535,0 0.474045,0.09646 0.646303,0.267338 0.172254,0.172254 0.268714,0.405144 0.268714,0.647679 0,0.242535 -0.09646,0.475421 -0.268714,0.646299 -0.172258,0.172255 -0.403768,0.268718 -0.646303,0.268718 -0.243911,0 -0.475421,-0.09646 -0.647675,-0.268718 -0.170879,-0.170878 -0.267342,-0.403764 -0.267342,-0.646299"
       id="path519" />
    <path
       style="fill:none;stroke:#211e1e;stroke-width:0.1524;stroke-linecap:butt;stroke-linejoin:round;stroke-miterlimit:10;stroke-opacity:1"
       d="m 79.144772,43.505946 c 0,-0.242535 0.09646,-0.475423 0.267339,-0.647678 0.172255,-0.170877 0.403765,-0.26734 0.647678,-0.26734 0.242535,0 0.474045,0.09646 0.6463,0.26734 0.172255,0.172255 0.268717,0.405143 0.268717,0.647678 0,0.242534 -0.09646,0.475423 -0.268717,0.6463 -0.172255,0.172254 -0.403765,0.268717 -0.6463,0.268717 -0.243913,0 -0.475423,-0.09646 -0.647678,-0.268717 -0.170877,-0.170877 -0.267339,-0.403766 -0.267339,-0.6463 z m 0,0"
       id="path520" />
    <path
       style="fill:#eb1c23;fill-opacity:1;fill-rule:nonzero;stroke:none;stroke-width:0.352778"
       d="m 79.920606,42.053495 c 0,-0.242535 0.09646,-0.475425 0.268717,-0.647679 0.170879,-0.170875 0.403765,-0.267339 0.6463,-0.267339 0.242535,0 0.475424,0.09646 0.647679,0.267339 0.170878,0.172254 0.267338,0.405144 0.267338,0.647679 0,0.242535 -0.09646,0.475421 -0.267338,0.646299 -0.172255,0.172255 -0.405144,0.267339 -0.647679,0.267339 -0.242535,0 -0.475421,-0.09508 -0.6463,-0.267339 -0.172254,-0.170878 -0.268717,-0.403764 -0.268717,-0.646299"
       id="path521" />
    <path
       style="fill:none;stroke:#211e1e;stroke-width:0.1524;stroke-linecap:butt;stroke-linejoin:round;stroke-miterlimit:10;stroke-opacity:1"
       d="m 79.920607,42.053494 c 0,-0.242534 0.09646,-0.475423 0.268718,-0.647678 0.170876,-0.170877 0.403765,-0.267339 0.6463,-0.267339 0.242534,0 0.475423,0.09646 0.647677,0.267339 0.170877,0.172255 0.26734,0.405144 0.26734,0.647678 0,0.242535 -0.09646,0.475423 -0.26734,0.6463 -0.172254,0.172255 -0.405143,0.267339 -0.647677,0.267339 -0.242535,0 -0.475424,-0.09508 -0.6463,-0.267339 -0.172255,-0.170877 -0.268718,-0.403765 -0.268718,-0.6463 z m 0,0"
       id="path522" />
    <path
       style="fill:#eb1c23;fill-opacity:1;fill-rule:nonzero;stroke:none;stroke-width:0.352778"
       d="m 80.823223,40.282716 c 0,-0.243914 0.09646,-0.476804 0.267338,-0.647679 0.172255,-0.172254 0.405144,-0.267338 0.647679,-0.267338 0.242535,0 0.475421,0.09508 0.6463,0.267338 0.172254,0.170875 0.268717,0.403765 0.268717,0.647679 0,0.241156 -0.09646,0.474045 -0.268717,0.6463 -0.170879,0.170875 -0.403765,0.267338 -0.6463,0.267338 -0.242535,0 -0.475424,-0.09646 -0.647679,-0.267338 -0.170878,-0.172255 -0.267338,-0.405144 -0.267338,-0.6463"
       id="path523" />
    <path
       style="fill:none;stroke:#211e1e;stroke-width:0.1524;stroke-linecap:butt;stroke-linejoin:round;stroke-miterlimit:10;stroke-opacity:1"
       d="m 80.823222,40.282714 c 0,-0.243912 0.09646,-0.476801 0.267339,-0.647677 0.172255,-0.172255 0.405143,-0.26734 0.647678,-0.26734 0.242534,0 0.475423,0.09508 0.6463,0.26734 0.172255,0.170876 0.268717,0.403765 0.268717,0.647677 0,0.241157 -0.09646,0.474046 -0.268717,0.6463 -0.170877,0.170877 -0.403766,0.26734 -0.6463,0.26734 -0.242535,0 -0.475423,-0.09646 -0.647678,-0.26734 -0.170877,-0.172254 -0.267339,-0.405143 -0.267339,-0.6463 z m 0,0"
       id="path524" />
    <path
       style="fill:#eb1c23;fill-opacity:1;fill-rule:nonzero;stroke:none;stroke-width:0.352778"
       d="m 81.782337,38.121952 c 0,-0.243914 0.09646,-0.476803 0.268718,-0.647678 0.170875,-0.170879 0.403765,-0.268718 0.6463,-0.268718 0.242534,0 0.475421,0.09784 0.647675,0.268718 0.170878,0.170875 0.267342,0.403764 0.267342,0.647678 0,0.241156 -0.09646,0.475421 -0.267342,0.6463 -0.172254,0.170875 -0.405141,0.268718 -0.647675,0.268718 -0.242535,0 -0.475425,-0.09784 -0.6463,-0.268718 -0.172258,-0.170879 -0.268718,-0.405144 -0.268718,-0.6463"
       id="path525" />
    <path
       style="fill:none;stroke:#211e1e;stroke-width:0.1524;stroke-linecap:butt;stroke-linejoin:round;stroke-miterlimit:10;stroke-opacity:1"
       d="m 81.782337,38.121951 c 0,-0.243912 0.09646,-0.476801 0.268717,-0.647677 0.170877,-0.170877 0.403766,-0.268718 0.6463,-0.268718 0.242535,0 0.475423,0.09784 0.647678,0.268718 0.170877,0.170876 0.26734,0.403765 0.26734,0.647677 0,0.241157 -0.09646,0.475423 -0.26734,0.6463 -0.172255,0.170877 -0.405143,0.268718 -0.647678,0.268718 -0.242534,0 -0.475423,-0.09784 -0.6463,-0.268718 -0.172255,-0.170877 -0.268717,-0.405143 -0.268717,-0.6463 z m 0,0"
       id="path526" />
    <path
       style="fill:#eb1c23;fill-opacity:1;fill-rule:nonzero;stroke:none;stroke-width:0.352778"
       d="m 82.873744,35.485764 c 0,-0.242535 0.09646,-0.475424 0.268717,-0.647679 0.170875,-0.170875 0.403765,-0.267338 0.6463,-0.267338 0.242535,0 0.475421,0.09646 0.647675,0.267338 0.170879,0.172255 0.267342,0.405144 0.267342,0.647679 0,0.242535 -0.09646,0.475425 -0.267342,0.646299 -0.172254,0.172255 -0.40514,0.267339 -0.647675,0.267339 -0.242535,0 -0.475425,-0.09508 -0.6463,-0.267339 -0.172257,-0.170874 -0.268717,-0.403764 -0.268717,-0.646299"
       id="path527" />
    <path
       style="fill:none;stroke:#211e1e;stroke-width:0.1524;stroke-linecap:butt;stroke-linejoin:round;stroke-miterlimit:10;stroke-opacity:1"
       d="m 82.873743,35.485764 c 0,-0.242535 0.09646,-0.475423 0.268717,-0.647678 0.170877,-0.170877 0.403765,-0.267339 0.6463,-0.267339 0.242534,0 0.475423,0.09646 0.647678,0.267339 0.170877,0.172255 0.267339,0.405143 0.267339,0.647678 0,0.242535 -0.09646,0.475423 -0.267339,0.6463 -0.172255,0.172254 -0.405144,0.267339 -0.647678,0.267339 -0.242535,0 -0.475423,-0.09508 -0.6463,-0.267339 -0.172255,-0.170877 -0.268717,-0.403765 -0.268717,-0.6463 z m 0,0"
       id="path528" />
    <path
       style="fill:#eb1c23;fill-opacity:1;fill-rule:nonzero;stroke:none;stroke-width:0.352778"
       d="m 84.123625,32.270801 c 0,-0.242534 0.09646,-0.475424 0.268714,-0.647678 0.170878,-0.170875 0.403768,-0.267339 0.646303,-0.267339 0.242535,0 0.475421,0.09646 0.646299,0.267339 0.172254,0.172254 0.268717,0.405144 0.268717,0.647678 0,0.242535 -0.09646,0.475425 -0.268717,0.6463 -0.170878,0.172254 -0.403764,0.268718 -0.646299,0.268718 -0.242535,0 -0.475425,-0.09646 -0.646303,-0.268718 -0.172254,-0.170875 -0.268714,-0.403765 -0.268714,-0.6463"
       id="path529" />
    <path
       style="fill:none;stroke:#211e1e;stroke-width:0.1524;stroke-linecap:butt;stroke-linejoin:round;stroke-miterlimit:10;stroke-opacity:1"
       d="m 84.123623,32.270801 c 0,-0.242535 0.09646,-0.475423 0.268718,-0.647678 0.170877,-0.170877 0.403765,-0.267339 0.6463,-0.267339 0.242534,0 0.475423,0.09646 0.646299,0.267339 0.172255,0.172255 0.268718,0.405143 0.268718,0.647678 0,0.242535 -0.09646,0.475423 -0.268718,0.6463 -0.170876,0.172254 -0.403765,0.268717 -0.646299,0.268717 -0.242535,0 -0.475423,-0.09646 -0.6463,-0.268717 -0.172255,-0.170877 -0.268718,-0.403765 -0.268718,-0.6463 z m 0,0"
       id="path530" />
    <path
       style="fill:#eb1c23;fill-opacity:1;fill-rule:nonzero;stroke:none;stroke-width:0.352778"
       d="m 86.103864,28.348904 c 0,-0.243911 0.09646,-0.4768 0.26734,-0.647679 0.172254,-0.170875 0.405143,-0.268714 0.646299,-0.268714 0.243913,0 0.476802,0.09784 0.647678,0.268714 0.172255,0.170879 0.268718,0.403768 0.268718,0.647679 0,0.242535 -0.09646,0.474045 -0.268718,0.646299 -0.170876,0.170879 -0.403765,0.267342 -0.647678,0.267342 -0.241156,0 -0.474045,-0.09646 -0.646299,-0.267342 -0.170877,-0.172254 -0.26734,-0.403764 -0.26734,-0.646299"
       id="path531" />
    <path
       style="fill:none;stroke:#211e1e;stroke-width:0.1524;stroke-linecap:butt;stroke-linejoin:round;stroke-miterlimit:10;stroke-opacity:1"
       d="m 86.103864,28.348905 c 0,-0.243913 0.09646,-0.476802 0.26734,-0.647678 0.172254,-0.170877 0.405143,-0.268718 0.646299,-0.268718 0.243913,0 0.476802,0.09784 0.647678,0.268718 0.172255,0.170876 0.268718,0.403765 0.268718,0.647678 0,0.242534 -0.09646,0.474045 -0.268718,0.646299 -0.170876,0.170877 -0.403765,0.26734 -0.647678,0.26734 -0.241156,0 -0.474045,-0.09646 -0.646299,-0.26734 -0.170877,-0.172254 -0.26734,-0.403765 -0.26734,-0.646299 z m 0,0"
       id="path532" />
    <g
       clip-path="url(#clip23)"
       clip-rule="nonzero"
       id="g533"
       transform="matrix(0,-0.35277777,-0.35277777,0,120.80011,99.10703)">
      <path
         style="fill:none;stroke:#3a4aa6;stroke-width:0.864;stroke-linecap:square;stroke-linejoin:round;stroke-miterlimit:10;stroke-opacity:1"
         d="M -0.0015,0.00178125 0.014125,0.134594 C 4.330531,26.818187 96.564906,52.8885 111.94772,57.5135 l 17.70312,4.9375"
         transform="matrix(1,0,0,-1,138.939,135.576)"
         id="path533" />
    </g>
    <path
       style="fill:none;stroke:#211e1e;stroke-width:0.1524;stroke-linecap:butt;stroke-linejoin:round;stroke-miterlimit:10;stroke-opacity:1"
       d="m 69.542601,50.101237 h 1.219564"
       id="path534" />
    <path
       style="fill:none;stroke:#211e1e;stroke-width:0.1524;stroke-linecap:butt;stroke-linejoin:round;stroke-miterlimit:10;stroke-opacity:1"
       d="M 88.592601,50.101237 H 87.373037"
       id="path535" />
    <path
       style="fill:none;stroke:#211e1e;stroke-width:0.1524;stroke-linecap:butt;stroke-linejoin:round;stroke-miterlimit:10;stroke-opacity:1"
       d="m 69.542601,38.386535 h 1.219564"
       id="path536" />
    <path
       style="fill:none;stroke:#211e1e;stroke-width:0.1524;stroke-linecap:butt;stroke-linejoin:round;stroke-miterlimit:10;stroke-opacity:1"
       d="M 88.592601,38.386535 H 87.373037"
       id="path537" />
    <path
       style="fill:none;stroke:#211e1e;stroke-width:0.1524;stroke-linecap:butt;stroke-linejoin:round;stroke-miterlimit:10;stroke-opacity:1"
       d="m 69.542601,26.670454 h 1.219564"
       id="path538" />
    <path
       style="fill:none;stroke:#211e1e;stroke-width:0.1524;stroke-linecap:butt;stroke-linejoin:round;stroke-miterlimit:10;stroke-opacity:1"
       d="M 88.592601,26.670454 H 87.373037"
       id="path539" />
    <path
       style="fill:none;stroke:#211e1e;stroke-width:0.1524;stroke-linecap:butt;stroke-linejoin:round;stroke-miterlimit:10;stroke-opacity:1"
       d="M 75.404776,50.101237 V 48.881673"
       id="path542" />
    <path
       style="fill:none;stroke:#211e1e;stroke-width:0.1524;stroke-linecap:butt;stroke-linejoin:round;stroke-miterlimit:10;stroke-opacity:1"
       d="m 75.404776,26.670454 v 1.219564"
       id="path543" />
    <path
       style="fill:none;stroke:#211e1e;stroke-width:0.1524;stroke-linecap:butt;stroke-linejoin:round;stroke-miterlimit:10;stroke-opacity:1"
       d="m 81.265572,26.670454 v 1.219564"
       id="path545" />
    <path
       style="fill:none;stroke:#211e1e;stroke-width:0.1524;stroke-linecap:butt;stroke-linejoin:round;stroke-miterlimit:10;stroke-opacity:1"
       d="M 87.127746,50.101237 V 48.881673"
       id="path546" />
    <path
       style="fill:none;stroke:#211e1e;stroke-width:0.1524;stroke-linecap:butt;stroke-linejoin:round;stroke-miterlimit:10;stroke-opacity:1"
       d="m 87.127746,26.670454 v 1.219564"
       id="path547" />
    <path
       style="fill:none;stroke:#211e1e;stroke-width:0.3048;stroke-linecap:square;stroke-linejoin:round;stroke-miterlimit:10;stroke-opacity:1"
       d="m 69.542601,50.101237 h 19.05"
       id="path548" />
    <path
       style="fill:none;stroke:#211e1e;stroke-width:0.3048;stroke-linecap:square;stroke-linejoin:round;stroke-miterlimit:10;stroke-opacity:1"
       d="M 69.542601,50.101237 V 26.670454 h 19.05"
       id="path549" />
    <path
       style="fill:none;stroke:#211e1e;stroke-width:0.3048;stroke-linecap:square;stroke-linejoin:round;stroke-miterlimit:10;stroke-opacity:1"
       d="M 88.592601,50.101237 V 26.670454"
       id="path550" />
    <g
       style="fill:#0f0c0c;fill-opacity:1"
       id="g585"
       transform="matrix(0.35277777,0,0,0.35277777,17.395811,-3.2389393)">
      <g
         id="use585"
         transform="translate(131.8299,153.7511)">
        <path
           style="stroke:none"
           d="M 3.671875,-2.484375 C 3.671875,-3 3.640625,-3.671875 3.375,-4.25 3.03125,-4.96875 2.4375,-5.15625 1.984375,-5.15625 c -0.453125,0 -1.046875,0.1875 -1.390625,0.921875 -0.25,0.53125 -0.28125,1.171875 -0.28125,1.75 0,0.515625 0.015625,1.265625 0.34375,1.875 0.359375,0.65625 0.96875,0.78125 1.328125,0.78125 0.5,0 1.078125,-0.21875 1.40625,-0.9375 0.234375,-0.515625 0.28125,-1.09375 0.28125,-1.71875 z m -1.6875,2.46875 C 1.765625,-0.015625 1.203125,-0.125 1.046875,-1 0.96875,-1.46875 0.96875,-2.125 0.96875,-2.578125 c 0,-0.515625 0,-1.140625 0.09375,-1.5625 0.15625,-0.6875 0.65625,-0.828125 0.921875,-0.828125 0.296875,0 0.78125,0.15625 0.921875,0.875 C 3,-3.671875 3,-3.0625 3,-2.578125 c 0,0.484375 0,1.140625 -0.078125,1.59375 -0.15625,0.890625 -0.734375,0.96875 -0.9375,0.96875 z m 0,0"
           id="path1" />
      </g>
    </g>
    <g
       style="fill:#0f0c0c;fill-opacity:1"
       id="g586"
       transform="matrix(0.35277777,0,0,0.35277777,17.395811,-3.2389393)">
      <g
         id="use586"
         transform="translate(135.76979,153.7511)">
        <path
           style="stroke:none"
           d="m 1.515625,-0.421875 c 0,-0.21875 -0.171875,-0.421875 -0.421875,-0.421875 -0.234375,0 -0.40625,0.203125 -0.40625,0.421875 C 0.6875,-0.1875 0.859375,0 1.09375,0 c 0.25,0 0.421875,-0.1875 0.421875,-0.421875 z m 0,0"
           id="path23" />
      </g>
    </g>
    <g
       style="fill:#0f0c0c;fill-opacity:1"
       id="g588"
       transform="matrix(0.35277777,0,0,0.35277777,17.395811,-3.2389393)">
      <g
         id="use587"
         transform="translate(137.95172,153.7511)">
        <path
           style="stroke:none"
           d="M 3.671875,-2.484375 C 3.671875,-3 3.640625,-3.671875 3.375,-4.25 3.03125,-4.96875 2.4375,-5.15625 1.984375,-5.15625 c -0.453125,0 -1.046875,0.1875 -1.390625,0.921875 -0.25,0.53125 -0.28125,1.171875 -0.28125,1.75 0,0.515625 0.015625,1.265625 0.34375,1.875 0.359375,0.65625 0.96875,0.78125 1.328125,0.78125 0.5,0 1.078125,-0.21875 1.40625,-0.9375 0.234375,-0.515625 0.28125,-1.09375 0.28125,-1.71875 z m -1.6875,2.46875 C 1.765625,-0.015625 1.203125,-0.125 1.046875,-1 0.96875,-1.46875 0.96875,-2.125 0.96875,-2.578125 c 0,-0.515625 0,-1.140625 0.09375,-1.5625 0.15625,-0.6875 0.65625,-0.828125 0.921875,-0.828125 0.296875,0 0.78125,0.15625 0.921875,0.875 C 3,-3.671875 3,-3.0625 3,-2.578125 c 0,0.484375 0,1.140625 -0.078125,1.59375 -0.15625,0.890625 -0.734375,0.96875 -0.9375,0.96875 z m 0,0"
           id="path2" />
      </g>
      <g
         id="use588"
         transform="translate(141.89703,153.7511)">
        <path
           style="stroke:none"
           d="M 3.671875,-2.484375 C 3.671875,-3 3.640625,-3.671875 3.375,-4.25 3.03125,-4.96875 2.4375,-5.15625 1.984375,-5.15625 c -0.453125,0 -1.046875,0.1875 -1.390625,0.921875 -0.25,0.53125 -0.28125,1.171875 -0.28125,1.75 0,0.515625 0.015625,1.265625 0.34375,1.875 0.359375,0.65625 0.96875,0.78125 1.328125,0.78125 0.5,0 1.078125,-0.21875 1.40625,-0.9375 0.234375,-0.515625 0.28125,-1.09375 0.28125,-1.71875 z m -1.6875,2.46875 C 1.765625,-0.015625 1.203125,-0.125 1.046875,-1 0.96875,-1.46875 0.96875,-2.125 0.96875,-2.578125 c 0,-0.515625 0,-1.140625 0.09375,-1.5625 0.15625,-0.6875 0.65625,-0.828125 0.921875,-0.828125 0.296875,0 0.78125,0.15625 0.921875,0.875 C 3,-3.671875 3,-3.0625 3,-2.578125 c 0,0.484375 0,1.140625 -0.078125,1.59375 -0.15625,0.890625 -0.734375,0.96875 -0.9375,0.96875 z m 0,0"
           id="path3" />
      </g>
    </g>
    <g
       style="fill:#0f0c0c;fill-opacity:1"
       id="g589"
       transform="matrix(0.35277777,0,0,0.35277777,5.6970148,-14.937733)">
      <g
         id="use589"
         transform="translate(165.04259,153.7511)">
        <path
           style="stroke:none"
           d="M 3.671875,-2.484375 C 3.671875,-3 3.640625,-3.671875 3.375,-4.25 3.03125,-4.96875 2.4375,-5.15625 1.984375,-5.15625 c -0.453125,0 -1.046875,0.1875 -1.390625,0.921875 -0.25,0.53125 -0.28125,1.171875 -0.28125,1.75 0,0.515625 0.015625,1.265625 0.34375,1.875 0.359375,0.65625 0.96875,0.78125 1.328125,0.78125 0.5,0 1.078125,-0.21875 1.40625,-0.9375 0.234375,-0.515625 0.28125,-1.09375 0.28125,-1.71875 z m -1.6875,2.46875 C 1.765625,-0.015625 1.203125,-0.125 1.046875,-1 0.96875,-1.46875 0.96875,-2.125 0.96875,-2.578125 c 0,-0.515625 0,-1.140625 0.09375,-1.5625 0.15625,-0.6875 0.65625,-0.828125 0.921875,-0.828125 0.296875,0 0.78125,0.15625 0.921875,0.875 C 3,-3.671875 3,-3.0625 3,-2.578125 c 0,0.484375 0,1.140625 -0.078125,1.59375 -0.15625,0.890625 -0.734375,0.96875 -0.9375,0.96875 z m 0,0"
           id="path4" />
      </g>
    </g>
    <g
       style="fill:#0f0c0c;fill-opacity:1"
       id="g590"
       transform="matrix(0.35277777,0,0,0.35277777,5.6970148,-14.937733)">
      <g
         id="use590"
         transform="translate(168.98402,153.7511)">
        <path
           style="stroke:none"
           d="m 1.515625,-0.421875 c 0,-0.21875 -0.171875,-0.421875 -0.421875,-0.421875 -0.234375,0 -0.40625,0.203125 -0.40625,0.421875 C 0.6875,-0.1875 0.859375,0 1.09375,0 c 0.25,0 0.421875,-0.1875 0.421875,-0.421875 z m 0,0"
           id="path24" />
      </g>
    </g>
    <g
       style="fill:#0f0c0c;fill-opacity:1"
       id="g592"
       transform="matrix(0.35277777,0,0,0.35277777,5.6970148,-14.937733)">
      <g
         id="use591"
         transform="translate(171.15666,153.7511)">
        <path
           style="stroke:none"
           d="M 3.671875,-2.484375 C 3.671875,-3 3.640625,-3.671875 3.375,-4.25 3.03125,-4.96875 2.4375,-5.15625 1.984375,-5.15625 c -0.453125,0 -1.046875,0.1875 -1.390625,0.921875 -0.25,0.53125 -0.28125,1.171875 -0.28125,1.75 0,0.515625 0.015625,1.265625 0.34375,1.875 0.359375,0.65625 0.96875,0.78125 1.328125,0.78125 0.5,0 1.078125,-0.21875 1.40625,-0.9375 0.234375,-0.515625 0.28125,-1.09375 0.28125,-1.71875 z m -1.6875,2.46875 C 1.765625,-0.015625 1.203125,-0.125 1.046875,-1 0.96875,-1.46875 0.96875,-2.125 0.96875,-2.578125 c 0,-0.515625 0,-1.140625 0.09375,-1.5625 0.15625,-0.6875 0.65625,-0.828125 0.921875,-0.828125 0.296875,0 0.78125,0.15625 0.921875,0.875 C 3,-3.671875 3,-3.0625 3,-2.578125 c 0,0.484375 0,1.140625 -0.078125,1.59375 -0.15625,0.890625 -0.734375,0.96875 -0.9375,0.96875 z m 0,0"
           id="path5" />
      </g>
      <g
         id="use592"
         transform="translate(175.10196,153.7511)">
        <path
           style="stroke:none"
           d="m 0.8125,-2.671875 c 0,0.140625 0,0.21875 0.109375,0.21875 0.046875,0 0.078125,-0.03125 0.125,-0.09375 0.234375,-0.328125 0.609375,-0.515625 1,-0.515625 0.84375,0 0.84375,1.1875 0.84375,1.46875 0,0.25 0,0.71875 -0.21875,1.078125 -0.21875,0.328125 -0.546875,0.46875 -0.84375,0.46875 -0.453125,0 -0.96875,-0.28125 -1.15625,-0.859375 0,0 0.046875,0.015625 0.109375,0.015625 0.15625,0 0.375,-0.09375 0.375,-0.375 0,-0.25 -0.171875,-0.390625 -0.375,-0.390625 -0.171875,0 -0.390625,0.09375 -0.390625,0.40625 0,0.703125 0.59375,1.421875 1.453125,1.421875 0.9375,0 1.734375,-0.765625 1.734375,-1.71875 0,-0.9375 -0.671875,-1.703125 -1.515625,-1.703125 -0.359375,0 -0.75,0.125 -1.015625,0.390625 V -4.375 c 0.234375,0.0625 0.46875,0.109375 0.71875,0.109375 0.953125,0 1.5,-0.6875 1.5,-0.796875 0,-0.0625 -0.046875,-0.09375 -0.078125,-0.09375 -0.015625,0 -0.03125,0 -0.109375,0.03125 C 2.71875,-4.96875 2.359375,-4.90625 2.03125,-4.90625 1.703125,-4.90625 1.359375,-4.96875 1,-5.125 0.921875,-5.15625 0.90625,-5.15625 0.90625,-5.15625 c -0.09375,0 -0.09375,0.078125 -0.09375,0.203125 z m 0,0"
           id="path21" />
      </g>
    </g>
    <g
       style="fill:#0f0c0c;fill-opacity:1"
       id="g593"
       transform="matrix(0.35277777,0,0,0.35277777,-6.0348516,-26.669601)">
      <g
         id="use593"
         transform="translate(198.24985,153.7511)">
        <path
           style="stroke:none"
           d="M 3.671875,-2.484375 C 3.671875,-3 3.640625,-3.671875 3.375,-4.25 3.03125,-4.96875 2.4375,-5.15625 1.984375,-5.15625 c -0.453125,0 -1.046875,0.1875 -1.390625,0.921875 -0.25,0.53125 -0.28125,1.171875 -0.28125,1.75 0,0.515625 0.015625,1.265625 0.34375,1.875 0.359375,0.65625 0.96875,0.78125 1.328125,0.78125 0.5,0 1.078125,-0.21875 1.40625,-0.9375 0.234375,-0.515625 0.28125,-1.09375 0.28125,-1.71875 z m -1.6875,2.46875 C 1.765625,-0.015625 1.203125,-0.125 1.046875,-1 0.96875,-1.46875 0.96875,-2.125 0.96875,-2.578125 c 0,-0.515625 0,-1.140625 0.09375,-1.5625 0.15625,-0.6875 0.65625,-0.828125 0.921875,-0.828125 0.296875,0 0.78125,0.15625 0.921875,0.875 C 3,-3.671875 3,-3.0625 3,-2.578125 c 0,0.484375 0,1.140625 -0.078125,1.59375 -0.15625,0.890625 -0.734375,0.96875 -0.9375,0.96875 z m 0,0"
           id="path6" />
      </g>
    </g>
    <g
       style="fill:#0f0c0c;fill-opacity:1"
       id="g594"
       transform="matrix(0.35277777,0,0,0.35277777,-6.0348516,-26.669601)">
      <g
         id="use594"
         transform="translate(202.19904,153.7511)">
        <path
           style="stroke:none"
           d="m 1.515625,-0.421875 c 0,-0.21875 -0.171875,-0.421875 -0.421875,-0.421875 -0.234375,0 -0.40625,0.203125 -0.40625,0.421875 C 0.6875,-0.1875 0.859375,0 1.09375,0 c 0.25,0 0.421875,-0.1875 0.421875,-0.421875 z m 0,0"
           id="path25" />
      </g>
    </g>
    <g
       style="fill:#0f0c0c;fill-opacity:1"
       id="g596"
       transform="matrix(0.35277777,0,0,0.35277777,-6.0348516,-26.669601)">
      <g
         id="use595"
         transform="translate(204.36702,153.7511)">
        <path
           style="stroke:none"
           d="m 2.359375,-4.953125 c 0,-0.1875 -0.015625,-0.203125 -0.203125,-0.203125 -0.484375,0.484375 -1.1875,0.484375 -1.4375,0.484375 v 0.25 c 0.15625,0 0.625,0 1.046875,-0.203125 v 4 c 0,0.296875 -0.03125,0.390625 -0.75,0.390625 h -0.25 V 0 c 0.28125,-0.015625 0.96875,-0.015625 1.28125,-0.015625 0.328125,0 1.015625,0 1.296875,0.015625 v -0.234375 h -0.25 c -0.71875,0 -0.734375,-0.09375 -0.734375,-0.390625 z m 0,0"
           id="path18" />
      </g>
      <g
         id="use596"
         transform="translate(208.31233,153.7511)">
        <path
           style="stroke:none"
           d="M 3.671875,-2.484375 C 3.671875,-3 3.640625,-3.671875 3.375,-4.25 3.03125,-4.96875 2.4375,-5.15625 1.984375,-5.15625 c -0.453125,0 -1.046875,0.1875 -1.390625,0.921875 -0.25,0.53125 -0.28125,1.171875 -0.28125,1.75 0,0.515625 0.015625,1.265625 0.34375,1.875 0.359375,0.65625 0.96875,0.78125 1.328125,0.78125 0.5,0 1.078125,-0.21875 1.40625,-0.9375 0.234375,-0.515625 0.28125,-1.09375 0.28125,-1.71875 z m -1.6875,2.46875 C 1.765625,-0.015625 1.203125,-0.125 1.046875,-1 0.96875,-1.46875 0.96875,-2.125 0.96875,-2.578125 c 0,-0.515625 0,-1.140625 0.09375,-1.5625 0.15625,-0.6875 0.65625,-0.828125 0.921875,-0.828125 0.296875,0 0.78125,0.15625 0.921875,0.875 C 3,-3.671875 3,-3.0625 3,-2.578125 c 0,0.484375 0,1.140625 -0.078125,1.59375 -0.15625,0.890625 -0.734375,0.96875 -0.9375,0.96875 z m 0,0"
           id="path7" />
      </g>
    </g>
    <g
       style="fill:#0f0c0c;fill-opacity:1"
       id="g597"
       transform="matrix(0.35277777,0,0,0.35277777,1.2686813,-19.619207)">
      <g
         id="use597"
         transform="translate(171.0574,164.97569)">
        <path
           style="stroke:none"
           d="m 1.90625,-6.359375 c 0,-0.3125 -0.25,-0.515625 -0.5,-0.515625 -0.296875,0 -0.5,0.234375 -0.5,0.515625 0,0.265625 0.21875,0.5 0.484375,0.5 0.3125,0 0.515625,-0.25 0.515625,-0.5 z m 0,0"
           id="path22" />
      </g>
    </g>
    <g
       style="fill:#0f0c0c;fill-opacity:1"
       id="g598"
       transform="matrix(0.35277777,0,0,0.35277777,1.2686813,-19.619207)">
      <g
         id="use598"
         transform="translate(169.50407,164.97569)">
        <path
           style="stroke:none"
           d="m 3.90625,-1.265625 c -0.015625,-0.5 -0.046875,-1.296875 -0.4375,-2.21875 -0.203125,-0.515625 -0.5625,-1.0625 -1.3125,-1.0625 -1.265625,0 -1.953125,1.609375 -1.953125,1.875 0,0.09375 0.0625,0.09375 0.09375,0.09375 0.09375,0 0.09375,-0.015625 0.140625,-0.15625 0.21875,-0.625 0.890625,-1.140625 1.59375,-1.140625 1.4375,0 1.640625,1.609375 1.640625,2.625 0,0.65625 -0.0625,0.875 -0.125,1.078125 C 3.34375,0.46875 3,1.75 3,2.03125 3,2.125 3.03125,2.203125 3.125,2.203125 c 0.15625,0 0.234375,-0.328125 0.359375,-0.75 0.25,-0.90625 0.3125,-1.359375 0.359375,-1.765625 0.03125,-0.25 0.625,-1.953125 1.4375,-3.578125 C 5.34375,-4.0625 5.5,-4.34375 5.5,-4.375 c 0,0 -0.015625,-0.078125 -0.109375,-0.078125 -0.015625,0 -0.078125,0 -0.09375,0.046875 -0.015625,0.015625 -0.375,0.71875 -0.6875,1.421875 -0.15625,0.34375 -0.359375,0.8125 -0.703125,1.71875 z m 0,0"
           id="path16" />
      </g>
    </g>
    <g
       style="fill:#0f0c0c;fill-opacity:1"
       id="g603"
       transform="matrix(0.35277777,0,0,0.35277777,30.139735,6.3299917)">
      <g
         id="use603"
         transform="translate(121.2899,131.18065)">
        <path
           style="stroke:none"
           d="M 3.671875,-2.484375 C 3.671875,-3 3.640625,-3.671875 3.375,-4.25 3.03125,-4.96875 2.4375,-5.15625 1.984375,-5.15625 c -0.453125,0 -1.046875,0.1875 -1.390625,0.921875 -0.25,0.53125 -0.28125,1.171875 -0.28125,1.75 0,0.515625 0.015625,1.265625 0.34375,1.875 0.359375,0.65625 0.96875,0.78125 1.328125,0.78125 0.5,0 1.078125,-0.21875 1.40625,-0.9375 0.234375,-0.515625 0.28125,-1.09375 0.28125,-1.71875 z m -1.6875,2.46875 C 1.765625,-0.015625 1.203125,-0.125 1.046875,-1 0.96875,-1.46875 0.96875,-2.125 0.96875,-2.578125 c 0,-0.515625 0,-1.140625 0.09375,-1.5625 0.15625,-0.6875 0.65625,-0.828125 0.921875,-0.828125 0.296875,0 0.78125,0.15625 0.921875,0.875 C 3,-3.671875 3,-3.0625 3,-2.578125 c 0,0.484375 0,1.140625 -0.078125,1.59375 -0.15625,0.890625 -0.734375,0.96875 -0.9375,0.96875 z m 0,0"
           id="path10" />
      </g>
    </g>
    <g
       style="fill:#0f0c0c;fill-opacity:1"
       id="g604"
       transform="matrix(0.35277777,0,0,0.35277777,30.139735,6.3299917)">
      <g
         id="use604"
         transform="translate(125.23444,131.18065)">
        <path
           style="stroke:none"
           d="m 1.515625,-0.421875 c 0,-0.21875 -0.171875,-0.421875 -0.421875,-0.421875 -0.234375,0 -0.40625,0.203125 -0.40625,0.421875 C 0.6875,-0.1875 0.859375,0 1.09375,0 c 0.25,0 0.421875,-0.1875 0.421875,-0.421875 z m 0,0"
           id="path27" />
      </g>
    </g>
    <g
       style="fill:#0f0c0c;fill-opacity:1"
       id="g606"
       transform="matrix(0.35277777,0,0,0.35277777,30.139735,6.3299917)">
      <g
         id="use605"
         transform="translate(127.41482,131.18065)">
        <path
           style="stroke:none"
           d="M 3.671875,-2.484375 C 3.671875,-3 3.640625,-3.671875 3.375,-4.25 3.03125,-4.96875 2.4375,-5.15625 1.984375,-5.15625 c -0.453125,0 -1.046875,0.1875 -1.390625,0.921875 -0.25,0.53125 -0.28125,1.171875 -0.28125,1.75 0,0.515625 0.015625,1.265625 0.34375,1.875 0.359375,0.65625 0.96875,0.78125 1.328125,0.78125 0.5,0 1.078125,-0.21875 1.40625,-0.9375 0.234375,-0.515625 0.28125,-1.09375 0.28125,-1.71875 z m -1.6875,2.46875 C 1.765625,-0.015625 1.203125,-0.125 1.046875,-1 0.96875,-1.46875 0.96875,-2.125 0.96875,-2.578125 c 0,-0.515625 0,-1.140625 0.09375,-1.5625 0.15625,-0.6875 0.65625,-0.828125 0.921875,-0.828125 0.296875,0 0.78125,0.15625 0.921875,0.875 C 3,-3.671875 3,-3.0625 3,-2.578125 c 0,0.484375 0,1.140625 -0.078125,1.59375 -0.15625,0.890625 -0.734375,0.96875 -0.9375,0.96875 z m 0,0"
           id="path11" />
      </g>
      <g
         id="use606"
         transform="translate(131.36012,131.18065)">
        <path
           style="stroke:none"
           d="M 1.328125,-3.515625 C 1.09375,-3.671875 0.921875,-3.875 0.921875,-4.15625 c 0,-0.515625 0.546875,-0.8125 1.046875,-0.8125 0.609375,0 1.078125,0.421875 1.078125,0.96875 0,0.53125 -0.453125,0.890625 -0.765625,1.078125 z M 2.46875,-2.8125 C 2.859375,-2.984375 3.421875,-3.375 3.421875,-4 3.421875,-4.734375 2.703125,-5.15625 2,-5.15625 c -0.8125,0 -1.453125,0.578125 -1.453125,1.28125 0,0.296875 0.109375,0.578125 0.296875,0.8125 0.125,0.140625 0.171875,0.171875 0.625,0.453125 -0.671875,0.328125 -1.140625,0.796875 -1.140625,1.4375 0,0.828125 0.8125,1.34375 1.65625,1.34375 0.90625,0 1.65625,-0.640625 1.65625,-1.46875 0,-0.75 -0.578125,-1.125 -0.765625,-1.25 C 2.796875,-2.609375 2.5625,-2.75 2.46875,-2.8125 Z M 1.6875,-2.46875 C 2,-2.265625 2.140625,-2.1875 2.65625,-1.875 c 0.1875,0.125 0.5625,0.375 0.5625,0.84375 0,0.609375 -0.609375,0.984375 -1.234375,0.984375 -0.671875,0 -1.234375,-0.484375 -1.234375,-1.125 0,-0.5625 0.390625,-1.015625 0.9375,-1.296875 z m 0,0"
           id="path31" />
      </g>
    </g>
    <g
       style="fill:#0f0c0c;fill-opacity:1"
       id="g611"
       transform="matrix(0.35277777,0,0,0.35277777,41.875123,18.065372)">
      <g
         id="use611"
         transform="translate(121.2899,97.946251)">
        <path
           style="stroke:none"
           d="M 3.671875,-2.484375 C 3.671875,-3 3.640625,-3.671875 3.375,-4.25 3.03125,-4.96875 2.4375,-5.15625 1.984375,-5.15625 c -0.453125,0 -1.046875,0.1875 -1.390625,0.921875 -0.25,0.53125 -0.28125,1.171875 -0.28125,1.75 0,0.515625 0.015625,1.265625 0.34375,1.875 0.359375,0.65625 0.96875,0.78125 1.328125,0.78125 0.5,0 1.078125,-0.21875 1.40625,-0.9375 0.234375,-0.515625 0.28125,-1.09375 0.28125,-1.71875 z m -1.6875,2.46875 C 1.765625,-0.015625 1.203125,-0.125 1.046875,-1 0.96875,-1.46875 0.96875,-2.125 0.96875,-2.578125 c 0,-0.515625 0,-1.140625 0.09375,-1.5625 0.15625,-0.6875 0.65625,-0.828125 0.921875,-0.828125 0.296875,0 0.78125,0.15625 0.921875,0.875 C 3,-3.671875 3,-3.0625 3,-2.578125 c 0,0.484375 0,1.140625 -0.078125,1.59375 -0.15625,0.890625 -0.734375,0.96875 -0.9375,0.96875 z m 0,0"
           id="path14" />
      </g>
    </g>
    <g
       style="fill:#0f0c0c;fill-opacity:1"
       id="g612"
       transform="matrix(0.35277777,0,0,0.35277777,41.875123,18.065372)">
      <g
         id="use612"
         transform="translate(125.23444,97.946251)">
        <path
           style="stroke:none"
           d="m 1.515625,-0.421875 c 0,-0.21875 -0.171875,-0.421875 -0.421875,-0.421875 -0.234375,0 -0.40625,0.203125 -0.40625,0.421875 C 0.6875,-0.1875 0.859375,0 1.09375,0 c 0.25,0 0.421875,-0.1875 0.421875,-0.421875 z m 0,0"
           id="path29" />
      </g>
    </g>
    <g
       style="fill:#0f0c0c;fill-opacity:1"
       id="g614"
       transform="matrix(0.35277777,0,0,0.35277777,41.875123,18.065372)">
      <g
         id="use613"
         transform="translate(127.41482,97.946251)">
        <path
           style="stroke:none"
           d="m 2.359375,-4.953125 c 0,-0.1875 -0.015625,-0.203125 -0.203125,-0.203125 -0.484375,0.484375 -1.1875,0.484375 -1.4375,0.484375 v 0.25 c 0.15625,0 0.625,0 1.046875,-0.203125 v 4 c 0,0.296875 -0.03125,0.390625 -0.75,0.390625 h -0.25 V 0 c 0.28125,-0.015625 0.96875,-0.015625 1.28125,-0.015625 0.328125,0 1.015625,0 1.296875,0.015625 v -0.234375 h -0.25 c -0.71875,0 -0.734375,-0.09375 -0.734375,-0.390625 z m 0,0"
           id="path20" />
      </g>
      <g
         id="use614"
         transform="translate(131.36012,97.946251)">
        <path
           style="stroke:none"
           d="M 3.578125,-1.375 H 3.359375 C 3.34375,-1.265625 3.28125,-0.8125 3.1875,-0.6875 3.140625,-0.625 2.609375,-0.625 2.453125,-0.625 H 1.0625 c 0.171875,-0.15625 0.6875,-0.640625 0.78125,-0.71875 1.265625,-1.109375 1.734375,-1.515625 1.734375,-2.3125 0,-0.890625 -0.734375,-1.5 -1.6875,-1.5 -0.890625,0 -1.5,0.703125 -1.5,1.40625 0,0.390625 0.34375,0.421875 0.40625,0.421875 0.171875,0 0.40625,-0.125 0.40625,-0.40625 0,-0.21875 -0.171875,-0.390625 -0.40625,-0.390625 -0.03125,0 -0.0625,0 -0.09375,0 0.1875,-0.546875 0.6875,-0.796875 1.109375,-0.796875 0.78125,0 1.0625,0.734375 1.0625,1.265625 0,0.796875 -0.609375,1.4375 -0.96875,1.84375 L 0.484375,-0.28125 C 0.390625,-0.1875 0.390625,-0.171875 0.390625,0 h 2.96875 z m 0,0"
           id="path30" />
      </g>
    </g>
    <g
       style="fill:#0f0c0c;fill-opacity:1"
       id="g615"
       transform="matrix(0,0.35277777,-0.35277777,0,120.288,12.34148)">
      <g
         id="use615"
         transform="translate(123.8812,121.9528)">
        <path
           style="stroke:none"
           d="m -3.359375,-3.65625 c -0.09375,-0.078125 -0.125,-0.109375 -0.171875,-0.109375 -0.015625,0 -0.046875,0 -0.125,0.0625 L -6.75,-1.609375 v -2.4375 c 0,-1.734375 0.375,-2.265625 2,-2.453125 v -0.234375 l -2.296875,0.265625 v 5.65625 c 0,0.25 0,0.25 0.234375,0.25 l 3.71875,-2.5 2.828125,2.390625 c 0.09375,0.078125 0.125,0.109375 0.15625,0.109375 C 0,-0.5625 0,-0.65625 0,-0.8125 V -6.46875 L -2.40625,-6.734375 V -6.5 c 1.703125,0.171875 2,0.828125 2,2.484375 v 2.859375 z m 0,0"
           id="path15" />
      </g>
    </g>
  </g>
</svg>
