<?xml version="1.0" encoding="UTF-8" standalone="no"?>
<!-- Created with Inkscape (http://www.inkscape.org/) -->

<svg
   width="59.341087mm"
   height="31.089914mm"
   viewBox="0 0 59.341087 31.089914"
   version="1.1"
   id="svg1"
   xmlns:inkscape="http://www.inkscape.org/namespaces/inkscape"
   xmlns:sodipodi="http://sodipodi.sourceforge.net/DTD/sodipodi-0.dtd"
   xmlns="http://www.w3.org/2000/svg"
   xmlns:svg="http://www.w3.org/2000/svg">
  <sodipodi:namedview
     id="namedview1"
     pagecolor="#ffffff"
     bordercolor="#666666"
     borderopacity="1.0"
     inkscape:showpageshadow="2"
     inkscape:pageopacity="0.0"
     inkscape:pagecheckerboard="0"
     inkscape:deskcolor="#d1d1d1"
     inkscape:document-units="mm">
    <inkscape:page
       x="0"
       y="0"
       width="59.341087"
       height="31.089914"
       id="page2"
       margin="0"
       bleed="0" />
  </sodipodi:namedview>
  <defs
     id="defs1">
    <clipPath
       id="clip474">
      <rect
         x="0"
         y="0"
         width="554"
         height="142"
         id="rect2880" />
    </clipPath>
    <clipPath
       id="clip475">
      <path
         d="M 308.66406,53.839844 H 535.375 V 141.96875 H 308.66406 Z m 0,0"
         id="path2807" />
    </clipPath>
    <clipPath
       id="clip476">
      <rect
         x="0"
         y="0"
         width="228"
         height="89"
         id="rect2811" />
    </clipPath>
    <clipPath
       id="clip477">
      <path
         d="m 5,0.839844 h 8 V 20 H 5 Z m 0,0"
         id="path2808" />
    </clipPath>
    <clipPath
       id="clip478">
      <path
         d="M 0.664062,25 H 8 V 64 H 0.664062 Z m 0,0"
         id="path2809" />
    </clipPath>
    <clipPath
       id="clip479">
      <path
         d="m 5,69 h 8 V 88.96875 H 5 Z m 0,0"
         id="path2810" />
    </clipPath>
    <clipPath
       id="clip480">
      <path
         d="m 221,18 h 6.375 V 33 H 221 Z m 0,0"
         id="path2811" />
    </clipPath>
    <clipPath
       id="clip481">
      <path
         d="M 1.457031,86.640625 H 217.42187 V 140.07422 H 1.457031 Z m 0,0"
         id="path2850" />
    </clipPath>
    <clipPath
       id="clip482">
      <rect
         x="0"
         y="0"
         width="217"
         height="55"
         id="rect2853" />
    </clipPath>
    <clipPath
       id="clip483">
      <path
         d="M 0.457031,1 H 12 V 54.074219 H 0.457031 Z m 0,0"
         id="path2851" />
    </clipPath>
    <clipPath
       id="clip484">
      <path
         d="m 87,0.640625 h 9 V 8 h -9 z m 0,0"
         id="path2852" />
    </clipPath>
    <clipPath
       id="clip485">
      <path
         d="m 204,12 h 12.42187 V 24 H 204 Z m 0,0"
         id="path2853" />
    </clipPath>
  </defs>
  <g
     inkscape:label="Calque 1"
     inkscape:groupmode="layer"
     id="layer1"
     transform="translate(-114.60302,-41.086415)">
    <g
       id="use5372"
       clip-path="url(#clip474)"
       transform="matrix(0.35277777,0,0,0.35277777,18.522038,24.751348)">
      <g
         style="fill:#171714;fill-opacity:1"
         id="g13">
        <g
           id="use13"
           transform="translate(128.23361,59.91132)">
          <path
             style="stroke:none"
             d=""
             id="path155" />
        </g>
      </g>
      <g
         style="fill:#171714;fill-opacity:1"
         id="g16">
        <g
           id="use16"
           transform="translate(161.04929,59.91132)">
          <path
             style="stroke:none"
             d=""
             id="path156" />
        </g>
      </g>
      <g
         style="fill:#171714;fill-opacity:1"
         id="g22">
        <g
           id="use22"
           transform="translate(213.34189,59.91132)">
          <path
             style="stroke:none"
             d=""
             id="path157" />
        </g>
      </g>
      <g
         clip-path="url(#clip475)"
         clip-rule="nonzero"
         id="g31"
         transform="translate(-36.308493,-7.535725)">
        <g
           id="use31"
           clip-path="url(#clip476)"
           transform="translate(308,53)">
          <g
             clip-path="url(#clip477)"
             clip-rule="nonzero"
             id="g103">
            <path
               style="fill:#000000;fill-opacity:1;fill-rule:nonzero;stroke:none"
               d="m 7.65625,10.324219 c 0,-1.714844 0.460938,-5.730469 4.191406,-8.367188 0.261719,-0.21875 0.285156,-0.238281 0.285156,-0.613281 0,-0.480469 -0.02344,-0.503906 -0.527343,-0.503906 H 11.253906 C 6.757812,3.277344 5.136719,7.25 5.136719,10.324219 v 9.023437 c 0,0.546875 0.019531,0.570313 0.589843,0.570313 h 1.339844 c 0.570313,0 0.589844,-0.02344 0.589844,-0.570313 z m 0,0"
               id="path103" />
          </g>
          <path
             style="fill:#000000;fill-opacity:1;fill-rule:nonzero;stroke:none"
             d="m 7.65625,20.066406 c 0,-0.550781 -0.019531,-0.574218 -0.589844,-0.574218 H 5.726562 c -0.570312,0 -0.589843,0.02344 -0.589843,0.574218 v 5.597656 c 0,0.527344 0.019531,0.546876 0.589843,0.546876 h 1.339844 c 0.570313,0 0.589844,-0.01953 0.589844,-0.546876 z m 0,0"
             id="path104" />
          <g
             clip-path="url(#clip478)"
             clip-rule="nonzero"
             id="g105">
            <path
               style="fill:#000000;fill-opacity:1;fill-rule:nonzero;stroke:none"
               d="m 5.136719,63.445312 c 0,0.527344 0.019531,0.550782 0.589843,0.550782 h 1.339844 c 0.570313,0 0.589844,-0.02344 0.589844,-0.550782 v -8.867187 c 0,-2.546875 -1.070312,-6.828125 -5.765625,-9.683594 4.738281,-2.875 5.765625,-7.203125 5.765625,-9.660156 v -8.867187 c 0,-0.550782 -0.019531,-0.570313 -0.589844,-0.570313 H 5.726562 c -0.570312,0 -0.589843,0.01953 -0.589843,0.570313 v 8.890624 c 0,1.753907 -0.375,6.125 -4.234375,9.066407 C 0.664062,44.5 0.664062,44.523438 0.664062,44.894531 c 0,0.394531 0,0.417969 0.238282,0.59375 0.546875,0.417969 1.996094,1.535157 3.003906,3.664063 0.8125,1.667968 1.230469,3.535156 1.230469,5.402344 z m 0,0"
               id="path105" />
          </g>
          <path
             style="fill:#000000;fill-opacity:1;fill-rule:nonzero;stroke:none"
             d="m 7.65625,64.160156 c 0,-0.550781 -0.019531,-0.570312 -0.589844,-0.570312 H 5.726562 c -0.570312,0 -0.589843,0.01953 -0.589843,0.570312 v 5.597656 c 0,0.527344 0.019531,0.546876 0.589843,0.546876 h 1.339844 c 0.570313,0 0.589844,-0.01953 0.589844,-0.546876 z m 0,0"
             id="path106" />
          <g
             clip-path="url(#clip479)"
             clip-rule="nonzero"
             id="g107">
            <path
               style="fill:#000000;fill-opacity:1;fill-rule:nonzero;stroke:none"
               d="m 11.605469,88.96875 c 0.503906,0 0.527343,-0.02344 0.527343,-0.507812 0,-0.371094 -0.02344,-0.394532 -0.08984,-0.460938 C 11.386719,87.515625 9.871094,86.464844 8.886719,84.53125 8.074219,82.929688 7.65625,81.328125 7.65625,79.484375 v -9.023437 c 0,-0.550782 -0.019531,-0.570313 -0.589844,-0.570313 H 5.726562 c -0.570312,0 -0.589843,0.01953 -0.589843,0.570313 v 9.023437 c 0,3.117187 1.621093,7.066406 6.117187,9.484375 z m 0,0"
               id="path107" />
          </g>
          <path
             style="fill:#000000;fill-opacity:1;fill-rule:nonzero;stroke:none"
             d="M 24.882812,18.46875 C 24.75,17.347656 24.046875,15.988281 22.25,15.988281 c -2.851562,0 -5.746094,2.898438 -5.746094,6.101563 0,1.230468 0.832032,3.535156 3.574219,3.535156 4.757813,0 6.796875,-6.9375 6.796875,-9.683594 0,-2.894531 -1.644531,-5.136718 -4.210938,-5.136718 -2.914062,0 -3.792968,2.546874 -3.792968,3.097656 0,0.175781 0.132812,0.613281 0.679687,0.613281 0.726563,0 1.007813,-0.636719 1.007813,-0.988281 0,-0.613282 -0.613282,-0.613282 -0.875,-0.613282 0.832031,-1.492187 2.347656,-1.625 2.894531,-1.625 1.777344,0 2.894531,1.40625 2.894531,3.667969 0,1.269531 -0.371094,2.765625 -0.570312,3.511719 z m -4.738281,6.605469 c -1.886719,0 -2.214843,-1.46875 -2.214843,-2.324219 0,-0.878906 0.570312,-2.964844 0.875,-3.710938 0.242187,-0.59375 1.40625,-2.636718 3.488281,-2.636718 1.84375,0 2.257812,1.582031 2.257812,2.679687 0,1.492188 -1.316406,5.992188 -4.40625,5.992188 z m 0,0"
             id="path108" />
          <path
             style="fill:#000000;fill-opacity:1;fill-rule:nonzero;stroke:none"
             d="m 29.300781,22.105469 h 1.425781 c 0.304688,0 0.460938,0 0.460938,-0.304688 C 31.1875,21.625 31.03125,21.625 30.769531,21.625 h -1.359375 c 0.546875,-2.175781 0.636719,-2.484375 0.636719,-2.570312 0,-0.261719 -0.175781,-0.417969 -0.441406,-0.417969 -0.04297,0 -0.480469,0.02344 -0.613281,0.550781 l -0.589844,2.4375 h -1.449219 c -0.304687,0 -0.460937,0 -0.460937,0.285156 0,0.195313 0.132812,0.195313 0.441406,0.195313 h 1.335937 c -1.097656,4.347656 -1.164062,4.613281 -1.164062,4.875 0,0.832031 0.570312,1.425781 1.40625,1.425781 1.554687,0 2.433593,-2.238281 2.433593,-2.371094 0,-0.152344 -0.109374,-0.152344 -0.175781,-0.152344 -0.132812,0 -0.152343,0.04297 -0.242187,0.21875 -0.65625,1.601563 -1.46875,1.953126 -1.972656,1.953126 -0.328126,0 -0.484376,-0.195313 -0.484376,-0.699219 0,-0.375 0.02344,-0.460938 0.08984,-0.726563 z m 0,0"
             id="path109" />
          <path
             style="fill:#000000;fill-opacity:1;fill-rule:nonzero;stroke:none"
             d="m 42.589844,17.613281 c 0.265625,0 0.945312,0 0.945312,-0.640625 0,-0.457031 -0.394531,-0.457031 -0.746094,-0.457031 h -4.453124 c -3.027344,0 -5.199219,3.378906 -5.199219,5.75 0,1.714844 1.097656,3.140625 2.917969,3.140625 2.367187,0 4.980468,-2.546875 4.980468,-5.578125 0,-0.789063 -0.199218,-1.558594 -0.683594,-2.214844 z m -6.511719,7.398438 c -1.03125,0 -1.777344,-0.792969 -1.777344,-2.175781 0,-1.207032 0.722657,-5.222657 3.683594,-5.222657 0.878906,0 1.84375,0.414063 1.84375,1.976563 0,0.699218 -0.328125,2.390625 -1.03125,3.554687 -0.722656,1.207031 -1.820313,1.867188 -2.71875,1.867188 z m 0,0"
             id="path110" />
          <path
             style="fill:#000000;fill-opacity:1;fill-rule:nonzero;stroke:none"
             d="m 47.921875,18.800781 c 0,-0.304687 -0.21875,-0.546875 -0.570313,-0.546875 -0.398437,0 -0.8125,0.394532 -0.8125,0.8125 0,0.285156 0.195313,0.546875 0.570313,0.546875 0.351563,0 0.8125,-0.351562 0.8125,-0.8125 z m -1.164063,5.753907 c 0.195313,-0.441407 0.195313,-0.460938 0.351563,-0.878907 0.109375,-0.308593 0.195313,-0.527343 0.195313,-0.8125 0,-0.703125 -0.503907,-1.273437 -1.269532,-1.273437 -1.425781,0 -2.019531,2.238281 -2.019531,2.371094 0,0.152343 0.15625,0.152343 0.199219,0.152343 0.152344,0 0.152344,-0.01953 0.238281,-0.285156 0.417969,-1.425781 1.035156,-1.886719 1.539063,-1.886719 0.128906,0 0.394531,0 0.394531,0.484375 0,0.328125 -0.109375,0.636719 -0.175781,0.789063 -0.132813,0.417968 -0.8125,2.195312 -1.054688,2.855468 -0.152344,0.394532 -0.351562,0.898438 -0.351562,1.207032 0,0.722656 0.527343,1.273437 1.25,1.273437 1.449218,0 2.019531,-2.238281 2.019531,-2.371093 0,-0.152344 -0.152344,-0.152344 -0.195313,-0.152344 -0.15625,0 -0.15625,0.04297 -0.222656,0.285156 -0.285156,0.964844 -0.789062,1.886719 -1.578125,1.886719 -0.242187,0 -0.351563,-0.15625 -0.351563,-0.503907 0,-0.375 0.08984,-0.59375 0.441407,-1.539062 z m 0,0"
             id="path111" />
          <path
             style="fill:#000000;fill-opacity:1;fill-rule:nonzero;stroke:none"
             d="m 68.746094,18.6875 c 0.285156,0 0.636718,0 0.636718,-0.371094 0,-0.375 -0.351562,-0.375 -0.636718,-0.375 H 56.878906 c -0.285156,0 -0.632812,0 -0.632812,0.351563 0,0.394531 0.328125,0.394531 0.632812,0.394531 z m 0,3.730469 c 0.285156,0 0.636718,0 0.636718,-0.351563 0,-0.394531 -0.351562,-0.394531 -0.636718,-0.394531 H 56.878906 c -0.285156,0 -0.632812,0 -0.632812,0.375 0,0.371094 0.328125,0.371094 0.632812,0.371094 z m 0,0"
             id="path112" />
          <path
             style="fill:#000000;fill-opacity:1;fill-rule:nonzero;stroke:none"
             d="m 102.17969,34.84375 2.54297,-6.714844 h -0.52344 c -0.8125,2.195313 -3.05078,3.621094 -5.44141,4.257813 -0.46094,0.08984 -2.5,0.636719 -6.53515,0.636719 H 79.58984 L 90.25,20.488281 c 0.15234,-0.152343 0.19531,-0.21875 0.19531,-0.328125 0,-0.04687 0,-0.113281 -0.15234,-0.308594 L 80.53125,6.480469 h 11.49609 c 2.80469,0 4.71485,0.285156 4.88672,0.328125 1.14063,0.175781 2.96094,0.527344 4.62891,1.582031 0.52734,0.328125 1.95312,1.273437 2.65625,2.984375 h 0.52344 L 102.17969,5.472656 H 77.39453 c -0.48047,0 -0.50391,0.019532 -0.56641,0.152344 0,0.066406 0,0.460938 0,0.679688 L 87.90234,21.496094 77.04687,34.253906 c -0.21875,0.238282 -0.21875,0.351563 -0.21875,0.371094 0,0.21875 0.19532,0.21875 0.56641,0.21875 z m 0,0"
             id="path119" />
          <path
             style="fill:#000000;fill-opacity:1;fill-rule:nonzero;stroke:none"
             d="m 93.27344,41.003906 c 0,-0.308594 -0.21875,-0.550781 -0.57032,-0.550781 -0.34765,0 -0.80859,0.351563 -0.80859,0.8125 0,0.308594 0.19531,0.550781 0.54688,0.550781 0.41796,0 0.83203,-0.394531 0.83203,-0.8125 z M 90.20312,51.34375 c -0.28125,1.164062 -1.03125,2.039062 -1.88281,2.039062 -0.0898,0 -0.33203,0 -0.59375,-0.152343 0.46094,-0.08594 0.67969,-0.503907 0.67969,-0.8125 0,-0.238281 -0.17578,-0.523438 -0.57031,-0.523438 -0.39453,0 -0.83203,0.328125 -0.83203,0.875 0,0.613281 0.61328,0.945313 1.33593,0.945313 1.07422,0 2.5,-0.8125 2.89453,-2.328125 l 1.40625,-5.597657 c 0.0625,-0.308593 0.0625,-0.527343 0.0625,-0.570312 0,-0.878906 -0.63281,-1.425781 -1.40234,-1.425781 -1.55469,0 -2.43359,2.238281 -2.43359,2.371093 0,0.152344 0.15234,0.152344 0.17578,0.152344 0.15234,0 0.15234,-0.01953 0.28515,-0.308594 0.3711,-0.941406 1.09766,-1.867187 1.92969,-1.867187 0.21875,0 0.48047,0.06641 0.48047,0.703125 0,0.351562 -0.043,0.527344 -0.10937,0.792969 z m 0,0"
             id="path120" />
          <path
             style="fill:#000000;fill-opacity:1;fill-rule:nonzero;stroke:none"
             d="m 124.32031,11.203125 c 0,-0.175781 -0.15234,-0.175781 -0.17578,-0.175781 -0.043,0 -0.13281,0 -0.28516,0.195312 l -1.40234,1.667969 c -0.0898,-0.152344 -0.50391,-0.855469 -1.27344,-1.316406 -0.8789,-0.546875 -1.73047,-0.546875 -2.03906,-0.546875 -4.32031,0 -8.83984,4.390625 -8.83984,9.152344 0,3.316406 2.30468,5.445312 5.30859,5.445312 1.44922,0 3.28906,-0.484375 4.29688,-1.757812 0.22265,0.769531 0.66015,1.320312 0.8125,1.320312 0.0859,0 0.10937,-0.06641 0.13281,-0.06641 0.0195,-0.04687 0.17578,-0.746094 0.28515,-1.097656 l 0.3086,-1.296876 c 0.17187,-0.660156 0.23828,-0.945312 0.39453,-1.558593 0.19531,-0.746094 0.23828,-0.8125 1.33594,-0.832031 0.0859,0 0.32812,0 0.32812,-0.398438 0,-0.195312 -0.19531,-0.195312 -0.26172,-0.195312 -0.33203,0 -0.72656,0.04297 -1.07422,0.04297 h -1.09765 c -0.85547,0 -1.73047,-0.04297 -2.56641,-0.04297 -0.17578,0 -0.41797,0 -0.41797,0.371093 0,0.199219 0.17578,0.199219 0.17578,0.222657 H 118.75 c 1.60156,0 1.60156,0.152343 1.60156,0.457031 0,0.02344 -0.375,2.066406 -0.76953,2.660156 -0.76562,1.140625 -2.34375,1.601563 -3.53125,1.601563 -1.55859,0 -4.07812,-0.8125 -4.07812,-4.304688 0,-1.335938 0.48046,-4.433594 2.43359,-6.714844 1.27344,-1.453125 3.13672,-2.4375 4.91406,-2.4375 2.36719,0 3.22266,2.039063 3.22266,3.90625 0,0.308594 -0.0859,0.746094 -0.0859,1.03125 0,0.199219 0.21875,0.199219 0.26172,0.199219 0.21875,0 0.24219,-0.02344 0.32812,-0.394531 z m 0,0"
             id="path121" />
          <path
             style="fill:#000000;fill-opacity:1;fill-rule:nonzero;stroke:none"
             d="m 129.1875,18.800781 c 0,-0.304687 -0.21875,-0.546875 -0.57031,-0.546875 -0.39453,0 -0.8086,0.394532 -0.8086,0.8125 0,0.285156 0.19532,0.546875 0.57032,0.546875 0.34765,0 0.80859,-0.351562 0.80859,-0.8125 z m -1.16016,5.753907 c 0.19532,-0.441407 0.19532,-0.460938 0.35157,-0.878907 0.10937,-0.308593 0.19531,-0.527343 0.19531,-0.8125 0,-0.703125 -0.50391,-1.273437 -1.27344,-1.273437 -1.42187,0 -2.01562,2.238281 -2.01562,2.371094 0,0.152343 0.15234,0.152343 0.19921,0.152343 0.15235,0 0.15235,-0.01953 0.23829,-0.285156 0.41796,-1.425781 1.03125,-1.886719 1.53515,-1.886719 0.13281,0 0.39453,0 0.39453,0.484375 0,0.328125 -0.10937,0.636719 -0.17578,0.789063 -0.1289,0.417968 -0.80859,2.195312 -1.05078,2.855468 -0.15234,0.394532 -0.35156,0.898438 -0.35156,1.207032 0,0.722656 0.52734,1.273437 1.25,1.273437 1.44922,0 2.01953,-2.238281 2.01953,-2.371093 0,-0.152344 -0.15625,-0.152344 -0.19922,-0.152344 -0.15234,0 -0.15234,0.04297 -0.21875,0.285156 -0.28516,0.964844 -0.78906,1.886719 -1.57812,1.886719 -0.24219,0 -0.35157,-0.15625 -0.35157,-0.503907 0,-0.375 0.0859,-0.59375 0.4375,-1.539062 z m 0,0"
             id="path122" />
          <path
             style="fill:#000000;fill-opacity:1;fill-rule:nonzero;stroke:none"
             d="m 136.19531,18.800781 c 0,-0.304687 -0.21875,-0.546875 -0.57031,-0.546875 -0.35156,0 -0.80859,0.351563 -0.80859,0.8125 0,0.304688 0.19531,0.546875 0.54687,0.546875 0.41797,0 0.83203,-0.394531 0.83203,-0.8125 z m -3.07031,10.34375 c -0.28516,1.164063 -1.03125,2.039063 -1.88672,2.039063 -0.0859,0 -0.32812,0 -0.58984,-0.152344 0.46093,-0.08594 0.67968,-0.503906 0.67968,-0.8125 0,-0.242188 -0.17578,-0.527344 -0.57031,-0.527344 -0.39453,0 -0.83203,0.332032 -0.83203,0.878906 0,0.613282 0.61328,0.945313 1.33594,0.945313 1.07422,0 2.5,-0.8125 2.89453,-2.328125 l 1.40234,-5.597656 c 0.0664,-0.308594 0.0664,-0.527344 0.0664,-0.570313 0,-0.878906 -0.63672,-1.429687 -1.40234,-1.429687 -1.5586,0 -2.4336,2.238281 -2.4336,2.371094 0,0.152343 0.15235,0.152343 0.17578,0.152343 0.15235,0 0.15235,-0.01953 0.28516,-0.304687 0.37109,-0.945313 1.09375,-1.867188 1.92969,-1.867188 0.21875,0 0.48047,0.06641 0.48047,0.703125 0,0.351563 -0.043,0.527344 -0.10938,0.789063 z m 0,0"
             id="path123" />
          <path
             style="fill:#000000;fill-opacity:1;fill-rule:nonzero;stroke:none"
             d="m 144.04687,12.804688 c 0,-0.617188 -0.48046,-0.988282 -0.96484,-0.988282 -0.57031,0 -0.98437,0.4375 -0.98437,0.988282 0,0.503906 0.4375,0.964843 0.96484,0.964843 0.58984,0 0.98437,-0.484375 0.98437,-0.964843 z m 0,0"
             id="path124" />
          <path
             style="fill:#000000;fill-opacity:1;fill-rule:nonzero;stroke:none"
             d="m 143.85937,20.640625 c 0.3086,0 0.66016,0 0.66016,-0.328125 0,-0.265625 -0.21875,-0.265625 -0.57031,-0.265625 h -3.26563 c 0.50391,-1.84375 1.6875,-2.941406 3.48438,-2.941406 h 0.59375 c 0.32812,0 0.63672,0 0.63672,-0.328125 0,-0.261719 -0.21875,-0.261719 -0.59375,-0.261719 H 144.125 c -2.48047,0 -5.19922,1.972656 -5.19922,5.136719 0,2.238281 1.51563,3.753906 3.51172,3.753906 1.29297,0 2.56641,-0.8125 2.56641,-1.011719 0,-0.109375 -0.0664,-0.238281 -0.19922,-0.238281 -0.043,0 -0.0859,0.01953 -0.19532,0.109375 -0.76953,0.503906 -1.51562,0.746094 -2.10546,0.746094 -1.07813,0 -2.19532,-0.703125 -2.19532,-2.660157 0,-0.394531 0.0234,-0.921874 0.21875,-1.710937 z m 0,0"
             id="path125" />
          <path
             style="fill:#000000;fill-opacity:1;fill-rule:nonzero;stroke:none"
             d="m 146.64844,30.773438 c -0.10938,0.527343 -0.15625,0.636718 -0.8125,0.636718 -0.19922,0 -0.35157,0 -0.35157,0.285156 0,0.132813 0.0664,0.175782 0.19922,0.175782 0.41407,0 0.85547,-0.04297 1.26953,-0.04297 0.50391,0 1.03125,0.04297 1.51563,0.04297 0.0859,0 0.28516,0 0.28516,-0.308594 0,-0.152344 -0.15625,-0.152344 -0.375,-0.152344 -0.76563,0 -0.76563,-0.109375 -0.76563,-0.242187 0,-0.199219 0.65625,-2.699219 0.76563,-3.074219 0.19921,0.441406 0.61718,0.988281 1.40625,0.988281 1.77343,0 3.68359,-2.238281 3.68359,-4.5 0,-1.425781 -0.87891,-2.460937 -2.03906,-2.460937 -0.76953,0 -1.49219,0.574218 -1.9961,1.167968 -0.15234,-0.835937 -0.8125,-1.167968 -1.38281,-1.167968 -0.70312,0 -0.98828,0.617187 -1.14062,0.878906 -0.26172,0.527344 -0.46094,1.449219 -0.46094,1.496094 0,0.152344 0.15234,0.152344 0.17578,0.152344 0.15234,0 0.17578,-0.02344 0.26562,-0.351563 0.26172,-1.097656 0.56641,-1.824219 1.11719,-1.824219 0.26172,0 0.46094,0.113282 0.46094,0.703125 0,0.351563 -0.0469,0.527344 -0.0898,0.792969 z m 2.69531,-6.652344 c 0.10937,-0.417969 0.52734,-0.832032 0.8125,-1.074219 0.52734,-0.460937 0.96484,-0.574219 1.23047,-0.574219 0.61328,0 0.98437,0.527344 0.98437,1.429688 0,0.921875 -0.5039,2.675781 -0.78906,3.25 -0.52734,1.074218 -1.25,1.578125 -1.82031,1.578125 -1.00781,0 -1.20703,-1.273438 -1.20703,-1.359375 0,-0.02344 0,-0.06641 0.043,-0.242188 z m 0,0"
             id="path126" />
          <path
             style="fill:#000000;fill-opacity:1;fill-rule:nonzero;stroke:none"
             d="m 157.61719,18.433594 c 0,0 0,-0.152344 -0.19532,-0.152344 -0.35156,0 -1.46875,0.109375 -1.86718,0.152344 -0.12891,0 -0.28125,0.02344 -0.28125,0.308594 0,0.175781 0.15234,0.175781 0.37109,0.175781 0.74609,0 0.74609,0.132812 0.74609,0.265625 l -0.043,0.304687 -1.92969,7.664063 c -0.043,0.152344 -0.0664,0.261718 -0.0664,0.503906 0,0.878906 0.65625,1.425781 1.37891,1.425781 0.50781,0 0.90234,-0.304687 1.16406,-0.855469 0.26172,-0.59375 0.46094,-1.472656 0.46094,-1.515624 0,-0.152344 -0.15235,-0.152344 -0.19922,-0.152344 -0.15234,0 -0.17188,0.06641 -0.21875,0.285156 -0.23828,0.988281 -0.54688,1.886719 -1.16016,1.886719 -0.46093,0 -0.46093,-0.480469 -0.46093,-0.699219 0,-0.375 0.0195,-0.441406 0.10937,-0.726562 z m 0,0"
             id="path127" />
          <path
             style="fill:#000000;fill-opacity:1;fill-rule:nonzero;stroke:none"
             d="m 161.66016,28.886719 c 0,-1.011719 -0.39454,-1.605469 -0.98829,-1.605469 -0.5039,0 -0.80859,0.375 -0.80859,0.8125 0,0.417969 0.30469,0.8125 0.80859,0.8125 0.17579,0 0.375,-0.06641 0.52735,-0.195312 0.0664,-0.02344 0.0664,-0.04688 0.0859,-0.04688 0.0234,0 0.0234,0.02344 0.0234,0.222657 0,1.140625 -0.52734,2.0625 -1.03125,2.566406 -0.17578,0.175781 -0.17578,0.199219 -0.17578,0.242187 0,0.109376 0.0898,0.175782 0.15625,0.175782 0.17188,0 1.40235,-1.1875 1.40235,-2.984375 z m 0,0"
             id="path128" />
          <g
             clip-path="url(#clip480)"
             clip-rule="nonzero"
             id="g129"
             transform="translate(-58.5)">
            <path
               style="fill:#000000;fill-opacity:1;fill-rule:nonzero;stroke:none"
               d="m 227.375,19.335938 c 0,-0.308594 -0.21875,-0.550782 -0.57031,-0.550782 -0.35157,0 -0.8125,0.351563 -0.8125,0.8125 0,0.308594 0.19922,0.550782 0.55078,0.550782 0.41406,0 0.83203,-0.394532 0.83203,-0.8125 z m -3.07031,10.339843 c -0.28516,1.164063 -1.03125,2.042969 -1.88672,2.042969 -0.0859,0 -0.32813,0 -0.59375,-0.15625 0.46484,-0.08594 0.68359,-0.503906 0.68359,-0.8125 0,-0.242188 -0.17578,-0.527344 -0.57031,-0.527344 -0.39844,0 -0.83594,0.332032 -0.83594,0.878906 0,0.617188 0.61328,0.945313 1.33985,0.945313 1.07421,0 2.5,-0.8125 2.89453,-2.328125 l 1.40234,-5.597656 c 0.0664,-0.308594 0.0664,-0.527344 0.0664,-0.570313 0,-0.878906 -0.63672,-1.429687 -1.40235,-1.429687 -1.55859,0 -2.43359,2.242187 -2.43359,2.375 0,0.152344 0.15234,0.152344 0.17187,0.152344 0.15625,0 0.15625,-0.02344 0.28516,-0.308594 0.375,-0.941406 1.09766,-1.867188 1.92969,-1.867188 0.22265,0 0.48437,0.06641 0.48437,0.703125 0,0.351563 -0.043,0.527344 -0.10937,0.792969 z m 0,0"
               id="path129" />
          </g>
          <path
             style="fill:#000000;fill-opacity:1;fill-rule:nonzero;stroke:none"
             d="M 21.777344,66.488281 C 21.777344,65.871094 21.292969,65.5 20.8125,65.5 c -0.570312,0 -0.988281,0.4375 -0.988281,0.988281 0,0.503907 0.441406,0.964844 0.964843,0.964844 0.59375,0 0.988282,-0.484375 0.988282,-0.964844 z m 0,0"
             id="path130" />
          <path
             style="fill:#000000;fill-opacity:1;fill-rule:nonzero;stroke:none"
             d="m 21.589844,74.324219 c 0.308594,0 0.660156,0 0.660156,-0.332031 0,-0.261719 -0.21875,-0.261719 -0.570312,-0.261719 h -3.269532 c 0.503906,-1.84375 1.691406,-2.941407 3.488282,-2.941407 h 0.59375 c 0.328124,0 0.632812,0 0.632812,-0.328124 0,-0.265626 -0.21875,-0.265626 -0.589844,-0.265626 h -0.679687 c -2.480469,0 -5.199219,1.976563 -5.199219,5.140626 0,2.238281 1.515625,3.75 3.511719,3.75 1.289062,0 2.5625,-0.8125 2.5625,-1.007813 0,-0.109375 -0.06641,-0.242187 -0.195313,-0.242187 -0.04297,0 -0.08984,0.02344 -0.199218,0.109374 -0.765626,0.503907 -1.511719,0.746094 -2.105469,0.746094 -1.074219,0 -2.191407,-0.703125 -2.191407,-2.65625 0,-0.394531 0.01953,-0.921875 0.21875,-1.710937 z m 0,0"
             id="path131" />
          <path
             style="fill:#000000;fill-opacity:1;fill-rule:nonzero;stroke:none"
             d="m 24.378906,84.457031 c -0.113281,0.527344 -0.15625,0.636719 -0.816406,0.636719 -0.195312,0 -0.347656,0 -0.347656,0.285156 0,0.128906 0.06641,0.175782 0.195312,0.175782 0.417969,0 0.855469,-0.04688 1.273438,-0.04688 0.503906,0 1.03125,0.04688 1.511718,0.04688 0.08984,0 0.289063,0 0.289063,-0.308594 0,-0.152344 -0.15625,-0.152344 -0.375,-0.152344 -0.769531,0 -0.769531,-0.109375 -0.769531,-0.242188 0,-0.199218 0.660156,-2.703124 0.769531,-3.074218 0.199219,0.4375 0.613281,0.988281 1.402344,0.988281 1.777343,0 3.6875,-2.238281 3.6875,-4.5 0,-1.429687 -0.878907,-2.460937 -2.042969,-2.460937 -0.765625,0 -1.492188,0.570312 -1.996094,1.164062 -0.152344,-0.832031 -0.808594,-1.164062 -1.378906,-1.164062 -0.703125,0 -0.988281,0.617187 -1.140625,0.878906 -0.261719,0.527344 -0.460937,1.449218 -0.460937,1.492187 0,0.152344 0.152343,0.152344 0.175781,0.152344 0.152343,0 0.175781,-0.01953 0.261719,-0.347656 0.265624,-1.097657 0.570312,-1.824219 1.117187,-1.824219 0.265625,0 0.460937,0.109375 0.460937,0.703125 0,0.351563 -0.04297,0.527344 -0.08594,0.789063 z m 2.695313,-6.652343 c 0.109375,-0.417969 0.527343,-0.835938 0.8125,-1.078126 0.527343,-0.460937 0.964843,-0.570312 1.226562,-0.570312 0.613281,0 0.988281,0.527344 0.988281,1.425781 0,0.921875 -0.503906,2.679688 -0.789062,3.25 -0.527344,1.078125 -1.25,1.582031 -1.820312,1.582031 -1.007813,0 -1.207032,-1.273437 -1.207032,-1.359374 0,-0.02344 0,-0.06641 0.04297,-0.242188 z m 0,0"
             id="path132" />
          <path
             style="fill:#000000;fill-opacity:1;fill-rule:nonzero;stroke:none"
             d="m 35.347656,72.117188 c 0,0 0,-0.152344 -0.199218,-0.152344 -0.347657,0 -1.46875,0.109375 -1.863282,0.152344 -0.132812,0 -0.285156,0.02344 -0.285156,0.308593 0,0.175781 0.152344,0.175781 0.375,0.175781 0.746094,0 0.746094,0.128907 0.746094,0.261719 l -0.04297,0.308594 -1.933594,7.660156 c -0.04297,0.15625 -0.0625,0.265625 -0.0625,0.507813 0,0.875 0.65625,1.425781 1.378907,1.425781 0.507812,0 0.898437,-0.308594 1.164062,-0.855469 0.261719,-0.59375 0.460938,-1.472656 0.460938,-1.515625 0,-0.152343 -0.15625,-0.152343 -0.199219,-0.152343 -0.152344,0 -0.175781,0.06641 -0.21875,0.285156 -0.242188,0.984375 -0.546875,1.886718 -1.164063,1.886718 -0.460937,0 -0.460937,-0.484374 -0.460937,-0.703124 0,-0.371094 0.02344,-0.4375 0.109375,-0.722657 z m 0,0"
             id="path133" />
          <path
             style="fill:#000000;fill-opacity:1;fill-rule:nonzero;stroke:none"
             d="m 39.390625,82.566406 c 0,-1.007812 -0.394531,-1.601562 -0.988281,-1.601562 -0.503906,0 -0.8125,0.375 -0.8125,0.8125 0,0.417968 0.308594,0.8125 0.8125,0.8125 0.175781,0 0.371094,-0.06641 0.527344,-0.199219 0.06641,-0.01953 0.06641,-0.04297 0.08594,-0.04297 0.02344,0 0.02344,0.02344 0.02344,0.21875 0,1.140625 -0.527343,2.066406 -1.03125,2.570313 -0.175781,0.175781 -0.175781,0.195312 -0.175781,0.242187 0,0.109375 0.08594,0.175782 0.152344,0.175782 0.175781,0 1.40625,-1.1875 1.40625,-2.988282 z m 0,0"
             id="path134" />
          <path
             style="fill:#000000;fill-opacity:1;fill-rule:nonzero;stroke:none"
             d="m 46.605469,73.015625 c 0,-0.304687 -0.21875,-0.546875 -0.570313,-0.546875 -0.351562,0 -0.8125,0.351562 -0.8125,0.8125 0,0.304688 0.199219,0.546875 0.550782,0.546875 0.414062,0 0.832031,-0.394531 0.832031,-0.8125 z m -3.070313,10.339844 c -0.285156,1.167969 -1.03125,2.042969 -1.886718,2.042969 -0.08594,0 -0.328126,0 -0.59375,-0.152344 0.460937,-0.08594 0.679687,-0.503906 0.679687,-0.8125 0,-0.242188 -0.171875,-0.527344 -0.570313,-0.527344 -0.394531,0 -0.832031,0.328125 -0.832031,0.878906 0,0.613282 0.613281,0.945313 1.339844,0.945313 1.070313,0 2.5,-0.8125 2.894531,-2.328125 l 1.402344,-5.597656 c 0.06641,-0.308594 0.06641,-0.527344 0.06641,-0.570313 0,-0.878906 -0.636718,-1.429687 -1.40625,-1.429687 -1.554687,0 -2.433594,2.238281 -2.433594,2.371093 0,0.152344 0.152344,0.152344 0.175782,0.152344 0.152344,0 0.152344,-0.01953 0.285156,-0.304687 0.375,-0.945313 1.097656,-1.867188 1.929688,-1.867188 0.21875,0 0.484374,0.06641 0.484374,0.703125 0,0.351563 -0.04687,0.527344 -0.109374,0.789063 z m 0,0"
             id="path135" />
          <path
             style="fill:#000000;fill-opacity:1;fill-rule:nonzero;stroke:none"
             d="m 67.59375,72.371094 c 0.285156,0 0.636719,0 0.636719,-0.375 C 68.230469,71.625 67.878906,71.625 67.59375,71.625 H 55.726562 c -0.285156,0 -0.632812,0 -0.632812,0.351562 0,0.394532 0.328125,0.394532 0.632812,0.394532 z m 0,3.730468 c 0.285156,0 0.636719,0 0.636719,-0.351562 0,-0.394531 -0.351563,-0.394531 -0.636719,-0.394531 H 55.726562 c -0.285156,0 -0.632812,0 -0.632812,0.375 0,0.371093 0.328125,0.371093 0.632812,0.371093 z m 0,0"
             id="path136" />
          <path
             style="fill:#000000;fill-opacity:1;fill-rule:nonzero;stroke:none"
             d="m 79.070312,72.984375 c 0.04297,-0.109375 0.546876,-1.117187 1.292969,-1.777344 0.527344,-0.484375 1.207031,-0.789062 1.996094,-0.789062 0.789063,0 1.074219,0.589843 1.074219,1.402343 0,1.140626 -0.808594,3.449219 -1.226563,4.523438 -0.175781,0.484375 -0.285156,0.746094 -0.285156,1.121094 0,0.898437 0.636719,1.621094 1.601563,1.621094 1.863281,0 2.5625,-2.960938 2.5625,-3.070313 0,-0.109375 -0.0625,-0.199219 -0.195313,-0.199219 -0.175781,0 -0.199219,0.06641 -0.285156,0.417969 -0.480469,1.644531 -1.226563,2.457031 -2.019531,2.457031 -0.195313,0 -0.523438,-0.01953 -0.523438,-0.65625 0,-0.507812 0.21875,-1.121094 0.328125,-1.40625 0.414063,-1.097656 1.25,-3.359375 1.25,-4.5 C 84.640625,70.898438 83.9375,70 82.402344,70 80.628906,70 79.683594,71.273438 79.3125,71.777344 79.246094,70.636719 78.433594,70 77.535156,70 c -0.636718,0 -1.074218,0.394531 -1.425781,1.074219 -0.351563,0.726562 -0.636719,1.933593 -0.636719,2.019531 0,0.06641 0.06641,0.175781 0.21875,0.175781 0.152344,0 0.175782,-0.02344 0.308594,-0.484375 0.308594,-1.226562 0.679688,-2.367187 1.488281,-2.367187 0.460938,0 0.617188,0.304687 0.617188,0.921875 0,0.4375 -0.199219,1.226562 -0.351563,1.84375 l -0.546875,2.171875 c -0.08984,0.394531 -0.308593,1.296875 -0.417969,1.667969 -0.132812,0.503906 -0.351562,1.472656 -0.351562,1.558593 0,0.285157 0.21875,0.503907 0.527344,0.503907 0.242187,0 0.523437,-0.109376 0.679687,-0.414063 0.04297,-0.113281 0.21875,-0.8125 0.328125,-1.207031 l 0.441406,-1.824219 z m 0,0"
             id="path137" />
          <path
             style="fill:#000000;fill-opacity:1;fill-rule:nonzero;stroke:none"
             d="m 92.773438,72.484375 c 0,-0.308594 -0.21875,-0.546875 -0.570313,-0.546875 -0.351563,0 -0.8125,0.351562 -0.8125,0.8125 0,0.304688 0.195313,0.546875 0.546875,0.546875 0.417969,0 0.835938,-0.394531 0.835938,-0.8125 z m -3.070313,10.339844 c -0.289063,1.164062 -1.03125,2.042969 -1.886719,2.042969 -0.08984,0 -0.332031,0 -0.59375,-0.152344 0.460938,-0.08984 0.679688,-0.507813 0.679688,-0.8125 0,-0.242188 -0.175782,-0.527344 -0.570313,-0.527344 C 86.9375,83.375 86.5,83.703125 86.5,84.253906 c 0,0.613282 0.613281,0.941406 1.335938,0.941406 1.074218,0 2.5,-0.8125 2.894531,-2.324218 l 1.40625,-5.601563 c 0.06641,-0.304687 0.06641,-0.527343 0.06641,-0.570312 0,-0.878907 -0.636719,-1.425781 -1.40625,-1.425781 -1.558594,0 -2.433594,2.238281 -2.433594,2.371093 0,0.152344 0.152344,0.152344 0.175781,0.152344 0.152344,0 0.152344,-0.01953 0.285157,-0.304687 0.371093,-0.945313 1.097656,-1.867188 1.929687,-1.867188 0.21875,0 0.480469,0.06641 0.480469,0.703125 0,0.351563 -0.04297,0.527344 -0.109375,0.789063 z m 0,0"
             id="path138" />
          <path
             style="fill:#000000;fill-opacity:1;fill-rule:nonzero;stroke:none"
             d="m 104.79688,71.292969 c 0.26171,0 0.9414,0 0.9414,-0.636719 0,-0.460938 -0.39453,-0.460938 -0.74609,-0.460938 h -4.44922 c -3.027345,0 -5.19922,3.382813 -5.19922,5.753907 0,1.710937 1.097656,3.136719 2.917969,3.136719 2.367191,0 4.976561,-2.542969 4.976561,-5.574219 0,-0.789063 -0.19531,-1.558594 -0.67969,-2.21875 z m -6.51563,7.398437 c -1.03125,0 -1.777344,-0.789062 -1.777344,-2.171875 0,-1.207031 0.726563,-5.226562 3.687504,-5.226562 0.875,0 1.83984,0.417969 1.83984,1.976562 0,0.703125 -0.32812,2.394531 -1.03125,3.558594 -0.72266,1.207031 -1.816406,1.863281 -2.71875,1.863281 z m 0,0"
             id="path139" />
          <path
             style="fill:#000000;fill-opacity:1;fill-rule:nonzero;stroke:none"
             d="m 111.85938,72.484375 c 0,-0.308594 -0.22266,-0.546875 -0.57032,-0.546875 -0.35156,0 -0.8125,0.351562 -0.8125,0.8125 0,0.304688 0.19922,0.546875 0.54688,0.546875 0.41797,0 0.83594,-0.394531 0.83594,-0.8125 z m -3.07032,10.339844 c -0.28515,1.164062 -1.03125,2.042969 -1.88672,2.042969 -0.0898,0 -0.32812,0 -0.59375,-0.152344 0.46094,-0.08984 0.67969,-0.507813 0.67969,-0.8125 0,-0.242188 -0.17578,-0.527344 -0.57031,-0.527344 -0.39453,0 -0.83203,0.328125 -0.83203,0.878906 0,0.613282 0.61328,0.941406 1.33594,0.941406 1.07812,0 2.5,-0.8125 2.89843,-2.324218 l 1.40235,-5.601563 c 0.0664,-0.304687 0.0664,-0.527343 0.0664,-0.570312 0,-0.878907 -0.63672,-1.425781 -1.40625,-1.425781 -1.55468,0 -2.43359,2.238281 -2.43359,2.371093 0,0.152344 0.15625,0.152344 0.17578,0.152344 0.15234,0 0.15234,-0.01953 0.28516,-0.304687 0.375,-0.945313 1.09765,-1.867188 1.92968,-1.867188 0.22266,0 0.48438,0.06641 0.48438,0.703125 0,0.351563 -0.043,0.527344 -0.10938,0.789063 z m 0,0"
             id="path140" />
        </g>
      </g>
      <g
         clip-path="url(#clip481)"
         clip-rule="nonzero"
         id="g32">
        <g
           id="use32"
           clip-path="url(#clip482)"
           transform="translate(1,86)">
          <g
             clip-path="url(#clip483)"
             clip-rule="nonzero"
             id="g76">
            <path
               style="fill:#000000;fill-opacity:1;fill-rule:nonzero;stroke:none"
               d="m 6.738281,34.90625 c 0,-1.015625 0,-2.652344 -1.402343,-4.453125 -0.851563,-1.082031 -2.09375,-2.097656 -3.613282,-2.789063 4.28125,-2.066406 5.015625,-5.25 5.015625,-6.492187 V 8.472656 c 0,-1.355468 0,-4.167968 4.261719,-6.289062 0.179688,-0.089844 0.179688,-0.136719 0.179688,-0.460938 0,-0.464844 0,-0.484375 -0.480469,-0.484375 -0.324219,0 -0.367188,0 -0.921875,0.25 C 7.589844,2.578125 5.429688,4.328125 4.96875,7 4.898438,7.433594 4.898438,7.644531 4.898438,9.121094 v 10.183594 c 0,0.664062 0,1.816406 -0.023438,2.070312 -0.1875,2.304688 -1.539062,4.308594 -4.050781,5.691406 -0.347657,0.210938 -0.367188,0.230469 -0.367188,0.578125 0,0.367188 0.019531,0.394531 0.34375,0.574219 1.476563,0.808594 3.570313,2.398438 4.03125,5.164062 0.066407,0.507813 0.066407,0.527344 0.066407,0.78125 v 13.089844 c 0,3.179688 2.207031,5.273438 4.929687,6.589844 0.503906,0.230469 0.523437,0.230469 0.871094,0.230469 0.460937,0 0.480469,0 0.480469,-0.488281 0,-0.34375 -0.01953,-0.367188 -0.203126,-0.480469 C 10.078125,52.664062 7.242188,51.238281 6.78125,48.058594 6.738281,47.757812 6.738281,47.503906 6.738281,46.195312 Z m 0,0"
               id="path76" />
          </g>
          <path
             style="fill:#000000;fill-opacity:1;fill-rule:nonzero;stroke:none"
             d="m 25.777344,13.550781 c 0.04687,-0.117187 0.574218,-1.179687 1.359375,-1.875 0.550781,-0.503906 1.265625,-0.828125 2.09375,-0.828125 0.828125,0 1.128906,0.625 1.128906,1.476563 0,1.195312 -0.855469,3.617187 -1.289063,4.746093 -0.183593,0.507813 -0.300781,0.789063 -0.300781,1.175782 0,0.945312 0.667969,1.707031 1.683594,1.707031 1.953125,0 2.691406,-3.113281 2.691406,-3.226563 0,-0.117187 -0.07031,-0.207031 -0.207031,-0.207031 -0.1875,0 -0.210938,0.07031 -0.300781,0.4375 -0.507813,1.730469 -1.289063,2.578125 -2.117188,2.578125 -0.207031,0 -0.554687,-0.01953 -0.554687,-0.691406 0,-0.527344 0.230468,-1.171875 0.347656,-1.476562 0.4375,-1.152344 1.3125,-3.523438 1.3125,-4.71875 0,-1.289063 -0.738281,-2.234376 -2.351562,-2.234376 -1.863282,0 -2.851563,1.335938 -3.238282,1.867188 -0.07422,-1.203125 -0.921875,-1.867188 -1.863281,-1.867188 -0.671875,0 -1.132813,0.414063 -1.5,1.125 -0.371094,0.765626 -0.667969,2.03125 -0.667969,2.121094 0,0.07031 0.06641,0.183594 0.230469,0.183594 0.160156,0 0.179687,-0.01953 0.324219,-0.503906 0.316406,-1.289063 0.710937,-2.492188 1.5625,-2.492188 0.480468,0 0.644531,0.324219 0.644531,0.972656 0,0.460938 -0.207031,1.289063 -0.371094,1.929688 l -0.570312,2.285156 c -0.09375,0.410156 -0.324219,1.363282 -0.4375,1.75 -0.140625,0.53125 -0.367188,1.542969 -0.367188,1.636719 0,0.300781 0.226563,0.53125 0.546875,0.53125 0.257813,0 0.554688,-0.113281 0.714844,-0.4375 0.04687,-0.117187 0.230469,-0.855469 0.34375,-1.269531 l 0.460938,-1.914063 z m 0,0"
             id="path77" />
          <path
             style="fill:#000000;fill-opacity:1;fill-rule:nonzero;stroke:none"
             d="m 38.335938,13.019531 c 0,-0.320312 -0.230469,-0.574219 -0.597657,-0.574219 -0.414062,0 -0.847656,0.410157 -0.847656,0.851563 0,0.300781 0.203125,0.574219 0.597656,0.574219 0.367188,0 0.847657,-0.367188 0.847657,-0.851563 z m -1.214844,6.039063 c 0.203125,-0.460938 0.203125,-0.480469 0.367187,-0.921875 0.113281,-0.324219 0.207031,-0.554688 0.207031,-0.855469 0,-0.734375 -0.53125,-1.332031 -1.335937,-1.332031 -1.496094,0 -2.117187,2.347656 -2.117187,2.484375 0,0.164062 0.160156,0.164062 0.207031,0.164062 0.160156,0 0.160156,-0.01953 0.253906,-0.300781 0.4375,-1.5 1.078125,-1.980469 1.613281,-1.980469 0.136719,0 0.410156,0 0.410156,0.503906 0,0.347657 -0.117187,0.667969 -0.179687,0.832032 -0.144531,0.433594 -0.855469,2.300781 -1.109375,2.992187 -0.160156,0.417969 -0.367188,0.945313 -0.367188,1.269531 0,0.761719 0.554688,1.339844 1.308594,1.339844 1.519532,0 2.117188,-2.351562 2.117188,-2.492187 0,-0.160157 -0.160156,-0.160157 -0.203125,-0.160157 -0.164063,0 -0.164063,0.04297 -0.230469,0.300782 -0.300781,1.011718 -0.828125,1.980468 -1.660156,1.980468 -0.25,0 -0.367188,-0.164062 -0.367188,-0.53125 0,-0.386718 0.09375,-0.617187 0.460938,-1.613281 z m 0,0"
             id="path78" />
          <path
             style="fill:#000000;fill-opacity:1;fill-rule:nonzero;stroke:none"
             d="m 49.8125,11.632812 c 0,-0.554687 -0.480469,-1.015624 -1.011719,-1.015624 -0.621093,0 -1.039062,0.488281 -1.039062,1.015624 0,0.648438 0.535156,1.039063 1.015625,1.039063 0.574218,0 1.035156,-0.441406 1.035156,-1.039063 z m 0,7.074219 c 0,-0.574219 -0.480469,-1.015625 -1.011719,-1.015625 -0.621093,0 -1.039062,0.484375 -1.039062,1.015625 0,0.640625 0.535156,1.039063 1.015625,1.039063 0.574218,0 1.035156,-0.441406 1.035156,-1.039063 z m 0,0"
             id="path79" />
          <path
             style="fill:#000000;fill-opacity:1;fill-rule:nonzero;stroke:none"
             d="m 75.796875,12.972656 c 0,-1.757812 -0.09375,-3.457031 -0.847656,-5.070312 -0.878907,-1.75 -2.398438,-2.210938 -3.433594,-2.210938 -1.21875,0 -2.734375,0.597656 -3.496094,2.347656 -0.601562,1.339844 -0.808593,2.648438 -0.808593,4.933594 0,2.046875 0.144531,3.589844 0.898437,5.085938 0.828125,1.617187 2.28125,2.125 3.382813,2.125 1.84375,0 2.902343,-1.085938 3.5,-2.324219 0.761718,-1.59375 0.804687,-3.667969 0.804687,-4.886719 z m -4.304687,6.792969 c -0.667969,0 -2.042969,-0.386719 -2.4375,-2.695313 -0.253907,-1.265624 -0.253907,-2.878906 -0.253907,-4.355468 0,-1.722656 0,-3.292969 0.347657,-4.539063 0.367187,-1.425781 1.445312,-2.070312 2.34375,-2.070312 0.808593,0 2.03125,0.484375 2.441406,2.300781 0.25,1.203125 0.25,2.882812 0.25,4.308594 0,1.433594 0,3.019531 -0.226563,4.308594 -0.390625,2.324218 -1.722656,2.742187 -2.464843,2.742187 z m 0,0"
             id="path80" />
          <g
             clip-path="url(#clip484)"
             clip-rule="nonzero"
             id="g81">
            <path
               style="fill:#000000;fill-opacity:1;fill-rule:nonzero;stroke:none"
               d="m 92.191406,1.585938 h 2.699219 c 0.230469,0 0.800781,0 0.800781,-0.558594 0,-0.386719 -0.339844,-0.386719 -0.640625,-0.386719 h -4.515625 c -0.324218,0 -0.941406,0 -1.65625,0.761719 -0.53125,0.570312 -0.960937,1.355468 -0.960937,1.449218 0,0 0,0.160157 0.179687,0.160157 0.136719,0 0.15625,-0.066407 0.25,-0.203125 0.804688,-1.222656 1.707032,-1.222656 2.050782,-1.222656 h 1.332031 L 90.167969,6.75 c -0.07031,0.179688 -0.15625,0.527344 -0.15625,0.597656 0,0.160156 0.08594,0.410156 0.460937,0.410156 0.523438,0 0.597656,-0.4375 0.640625,-0.691406 z m 0,0"
               id="path81" />
          </g>
          <path
             style="fill:#000000;fill-opacity:1;fill-rule:nonzero;stroke:none"
             d="m 96.492188,14.882812 c 0.367187,0 0.734374,0 0.734374,-0.417968 0,-0.433594 -0.367187,-0.433594 -0.734374,-0.433594 h -11.4375 c -0.347657,0 -0.742188,0 -0.742188,0.433594 0,0.417968 0.394531,0.417968 0.742188,0.417968 z m 0,0"
             id="path82" />
          <path
             style="fill:#000000;fill-opacity:1;fill-rule:nonzero;stroke:none"
             d="m 100.40625,14.882812 c -1.171875,0.878907 -1.75,1.75 -1.914062,2.023438 -0.941407,1.457031 -1.125,2.789062 -1.125,2.816406 0,0.253906 0.253906,0.253906 0.433593,0.253906 0.347657,0 0.375,-0.05078 0.460938,-0.417968 0.488281,-2.074219 1.726562,-3.847656 4.125001,-4.835938 0.25,-0.07031 0.32422,-0.113281 0.32422,-0.257812 0,-0.15625 -0.14453,-0.230469 -0.1875,-0.253906 -0.92188,-0.34375 -3.476565,-1.402344 -4.285159,-4.949219 -0.0625,-0.257813 -0.08984,-0.324219 -0.4375,-0.324219 -0.179687,0 -0.433593,0 -0.433593,0.253906 0,0.042969 0.203124,1.382813 1.082031,2.789063 0.4375,0.644531 1.035156,1.382812 1.957031,2.050781 H 84.707031 c -0.394531,0 -0.78125,0 -0.78125,0.433594 0,0.417968 0.386719,0.417968 0.78125,0.417968 z m 0,0"
             id="path83" />
          <path
             style="fill:#000000;fill-opacity:1;fill-rule:nonzero;stroke:none"
             d="m 115.85547,6.195312 c 0,-0.503906 0,-0.503906 -0.41016,-0.503906 -0.50781,0.550782 -1.5664,1.332032 -3.72656,1.332032 v 0.625 c 0.48047,0 1.53906,0 2.69141,-0.554688 v 11.015625 c 0,0.757813 -0.0703,1.011719 -1.91407,1.011719 h -0.66406 v 0.625 c 0.57031,-0.05078 2.6211,-0.05078 3.3125,-0.05078 0.69141,0 2.74219,0 3.28906,0.05078 v -0.625 h -0.64062 c -1.86328,0 -1.9375,-0.253906 -1.9375,-1.011719 z m 0,0"
             id="path84" />
          <path
             style="fill:#000000;fill-opacity:1;fill-rule:nonzero;stroke:none"
             d="m 138.16797,4.652344 c 0,-0.390625 0,-0.765625 -0.41797,-0.765625 -0.4375,0 -0.4375,0.375 -0.4375,0.765625 v 19.609375 c 0,0.390625 0,0.757812 0.4375,0.757812 0.41797,0 0.41797,-0.367187 0.41797,-0.757812 z m 0,0"
             id="path85" />
          <path
             style="fill:#000000;fill-opacity:1;fill-rule:nonzero;stroke:none"
             d="m 151.40234,11.769531 c 0.27344,0 0.98828,0 0.98828,-0.664062 0,-0.488281 -0.41015,-0.488281 -0.77734,-0.488281 h -4.67969 c -3.17187,0 -5.45312,3.550781 -5.45312,6.039062 0,1.800781 1.14844,3.296875 3.0625,3.296875 2.48437,0 5.22656,-2.671875 5.22656,-5.855469 0,-0.828125 -0.20703,-1.636718 -0.71094,-2.328125 z m -6.83593,7.765625 c -1.08204,0 -1.86329,-0.828125 -1.86329,-2.28125 0,-1.261718 0.75391,-5.484375 3.86329,-5.484375 0.92187,0 1.9375,0.441407 1.9375,2.074219 0,0.738281 -0.34375,2.515625 -1.08594,3.734375 -0.75781,1.265625 -1.91016,1.957031 -2.85156,1.957031 z m 0,0"
             id="path86" />
          <path
             style="fill:#000000;fill-opacity:1;fill-rule:nonzero;stroke:none"
             d="m 156.99609,13.019531 c 0,-0.320312 -0.23047,-0.574219 -0.59765,-0.574219 -0.41407,0 -0.85547,0.410157 -0.85547,0.851563 0,0.300781 0.21094,0.574219 0.59765,0.574219 0.375,0 0.85547,-0.367188 0.85547,-0.851563 z m -1.22265,6.039063 c 0.21093,-0.460938 0.21093,-0.480469 0.36718,-0.921875 0.11719,-0.324219 0.20704,-0.554688 0.20704,-0.855469 0,-0.734375 -0.52344,-1.332031 -1.33204,-1.332031 -1.49609,0 -2.11718,2.347656 -2.11718,2.484375 0,0.164062 0.16015,0.164062 0.20703,0.164062 0.16406,0 0.16406,-0.01953 0.25,-0.300781 0.4375,-1.5 1.08594,-1.980469 1.61328,-1.980469 0.14062,0 0.41406,0 0.41406,0.503906 0,0.347657 -0.11328,0.667969 -0.18359,0.832032 -0.13672,0.433594 -0.85156,2.300781 -1.10156,2.992187 -0.16407,0.417969 -0.3711,0.945313 -0.3711,1.269531 0,0.761719 0.55078,1.339844 1.3125,1.339844 1.51953,0 2.11719,-2.351562 2.11719,-2.492187 0,-0.160157 -0.16016,-0.160157 -0.21094,-0.160157 -0.15625,0 -0.15625,0.04297 -0.23047,0.300782 -0.29297,1.011718 -0.82812,1.980468 -1.65234,1.980468 -0.25391,0 -0.36719,-0.164062 -0.36719,-0.53125 0,-0.386718 0.0898,-0.617187 0.45703,-1.613281 z m 0,0"
             id="path87" />
          <path
             style="fill:#000000;fill-opacity:1;fill-rule:nonzero;stroke:none"
             d="m 162.07031,4.652344 c 0,-0.390625 0,-0.765625 -0.41797,-0.765625 -0.43359,0 -0.43359,0.375 -0.43359,0.765625 v 19.609375 c 0,0.390625 0,0.757812 0.43359,0.757812 0.41797,0 0.41797,-0.367187 0.41797,-0.757812 z m 0,0"
             id="path88" />
          <path
             style="fill:#000000;fill-opacity:1;fill-rule:nonzero;stroke:none"
             d="m 184.37109,14.925781 c 0.39844,-0.203125 0.41797,-0.316406 0.41797,-0.460937 0,-0.136719 -0.043,-0.273438 -0.41797,-0.460938 L 172.9375,8.75 c -0.28125,-0.136719 -0.30469,-0.15625 -0.34766,-0.15625 -0.25,0 -0.41797,0.207031 -0.41797,0.390625 0,0.25 0.1875,0.320313 0.46094,0.460937 l 10.84766,5.019532 -10.86719,5.027344 c -0.44141,0.183593 -0.44141,0.347656 -0.44141,0.460937 0,0.183594 0.16797,0.390625 0.41797,0.390625 0.043,0 0.043,-0.02344 0.34766,-0.160156 z m 0,0"
             id="path89" />
          <path
             style="fill:#000000;fill-opacity:1;fill-rule:nonzero;stroke:none"
             d="m 203.14844,11.769531 c 0.27343,0 0.99218,0 0.99218,-0.664062 0,-0.488281 -0.41796,-0.488281 -0.78515,-0.488281 h -4.67188 c -3.17968,0 -5.45312,3.550781 -5.45312,6.039062 0,1.800781 1.14844,3.296875 3.05859,3.296875 2.48438,0 5.22266,-2.671875 5.22266,-5.855469 0,-0.828125 -0.20703,-1.636718 -0.71094,-2.328125 z m -6.83985,7.765625 c -1.07812,0 -1.86328,-0.828125 -1.86328,-2.28125 0,-1.261718 0.76172,-5.484375 3.86719,-5.484375 0.91797,0 1.93359,0.441407 1.93359,2.074219 0,0.738281 -0.34375,2.515625 -1.07812,3.734375 -0.76563,1.265625 -1.91406,1.957031 -2.85938,1.957031 z m 0,0"
             id="path90" />
          <g
             clip-path="url(#clip485)"
             clip-rule="nonzero"
             id="g91">
            <path
               style="fill:#000000;fill-opacity:1;fill-rule:nonzero;stroke:none"
               d="m 213.78125,14.300781 0.19922,-0.230469 c 0.48828,-0.484374 1.01562,-1.039062 2.125,-1.105468 0.17969,-0.01953 0.3164,-0.01953 0.3164,-0.300782 0,-0.136718 -0.0859,-0.207031 -0.20312,-0.207031 -0.41797,0 -0.89844,0.04687 -1.31641,0.04687 -0.52734,0 -1.10156,-0.04687 -1.60937,-0.04687 -0.0898,0 -0.29688,0 -0.29688,0.324219 0,0.164062 0.13672,0.183594 0.23047,0.183594 0.11328,0 0.57422,0.02344 0.57422,0.371094 0,0.273437 -0.36719,0.691406 -0.4375,0.761718 l -3.73047,4.308594 -1.75,-4.769531 c -0.11328,-0.230469 -0.11328,-0.28125 -0.11328,-0.28125 0,-0.390625 0.80859,-0.390625 0.96484,-0.390625 0.20704,0 0.36719,0 0.36719,-0.320313 0,-0.1875 -0.17969,-0.1875 -0.23047,-0.1875 -0.46093,0 -1.58203,0.04687 -2.02343,0.04687 -0.41797,0 -1.40235,-0.04687 -1.79688,-0.04687 -0.0898,0 -0.32031,0 -0.32031,0.324219 0,0.183594 0.16015,0.183594 0.36719,0.183594 0.96484,0 1.03906,0.140625 1.17578,0.554687 l 1.98047,5.277344 c 0.0195,0.04297 0.0703,0.230469 0.0703,0.273437 0,0.05078 -0.64844,2.652344 -0.71875,2.929688 -0.20313,0.894531 -0.23047,0.945312 -1.51953,0.945312 -0.29688,0 -0.4336,0 -0.4336,0.320313 0,0.183594 0.20313,0.183594 0.23047,0.183594 0.46094,0 1.5625,-0.04297 2.02344,-0.04297 0.4375,0 1.61328,0.04297 2.05078,0.04297 0.11719,0 0.31641,0 0.31641,-0.324219 0,-0.179688 -0.15625,-0.179688 -0.46094,-0.179688 -0.0195,0 -0.33984,0 -0.61719,-0.02734 -0.32422,-0.02344 -0.41015,-0.06641 -0.41015,-0.253907 0,-0.113281 0.13671,-0.691406 0.19921,-1.007812 l 0.57813,-2.285156 c 0.0703,-0.300782 0.0937,-0.34375 0.23047,-0.480469 z m 0,0"
               id="path91" />
          </g>
          <path
             style="fill:#000000;fill-opacity:1;fill-rule:nonzero;stroke:none"
             d="m 25.777344,42.78125 c 0.04687,-0.117188 0.574218,-1.179688 1.359375,-1.867188 0.550781,-0.511718 1.265625,-0.835937 2.09375,-0.835937 0.828125,0 1.128906,0.628906 1.128906,1.476563 0,1.199218 -0.855469,3.617187 -1.289063,4.75 -0.183593,0.503906 -0.300781,0.785156 -0.300781,1.171874 0,0.945313 0.667969,1.710938 1.683594,1.710938 1.953125,0 2.691406,-3.113281 2.691406,-3.230469 0,-0.113281 -0.07031,-0.207031 -0.207031,-0.207031 -0.1875,0 -0.210938,0.07031 -0.300781,0.4375 -0.507813,1.730469 -1.289063,2.582031 -2.117188,2.582031 -0.207031,0 -0.554687,-0.02344 -0.554687,-0.691406 0,-0.527344 0.230468,-1.175781 0.347656,-1.476563 0.4375,-1.148437 1.3125,-3.523437 1.3125,-4.722656 0,-1.289062 -0.738281,-2.230468 -2.351562,-2.230468 -1.863282,0 -2.851563,1.332031 -3.238282,1.863281 -0.07422,-1.203125 -0.921875,-1.863281 -1.863281,-1.863281 -0.671875,0 -1.132813,0.410156 -1.5,1.121093 -0.371094,0.765625 -0.667969,2.03125 -0.667969,2.125 0,0.06641 0.06641,0.183594 0.230469,0.183594 0.160156,0 0.179687,-0.02344 0.324219,-0.507813 0.316406,-1.289062 0.710937,-2.492187 1.5625,-2.492187 0.480468,0 0.644531,0.324219 0.644531,0.972656 0,0.460938 -0.207031,1.289063 -0.371094,1.933594 l -0.570312,2.28125 c -0.09375,0.417969 -0.324219,1.363281 -0.4375,1.753906 -0.140625,0.53125 -0.367188,1.539063 -0.367188,1.632813 0,0.304687 0.226563,0.535156 0.546875,0.535156 0.257813,0 0.554688,-0.117188 0.714844,-0.441406 0.04687,-0.117188 0.230469,-0.851563 0.34375,-1.269532 l 0.460938,-1.90625 z m 0,0"
             id="path92" />
          <path
             style="fill:#000000;fill-opacity:1;fill-rule:nonzero;stroke:none"
             d="m 38.335938,42.253906 c 0,-0.324218 -0.230469,-0.578125 -0.597657,-0.578125 -0.414062,0 -0.847656,0.417969 -0.847656,0.851563 0,0.300781 0.203125,0.578125 0.597656,0.578125 0.367188,0 0.847657,-0.367188 0.847657,-0.851563 z m -1.214844,6.035156 c 0.203125,-0.460937 0.203125,-0.480468 0.367187,-0.921874 0.113281,-0.324219 0.207031,-0.554688 0.207031,-0.851563 0,-0.738281 -0.53125,-1.335937 -1.335937,-1.335937 -1.496094,0 -2.117187,2.347656 -2.117187,2.492187 0,0.15625 0.160156,0.15625 0.207031,0.15625 0.160156,0 0.160156,-0.01953 0.253906,-0.300781 0.4375,-1.492188 1.078125,-1.980469 1.613281,-1.980469 0.136719,0 0.410156,0 0.410156,0.507813 0,0.347656 -0.117187,0.671874 -0.179687,0.832031 -0.144531,0.4375 -0.855469,2.304687 -1.109375,2.996093 -0.160156,0.410157 -0.367188,0.945313 -0.367188,1.265626 0,0.757812 0.554688,1.335937 1.308594,1.335937 1.519532,0 2.117188,-2.347656 2.117188,-2.488281 0,-0.164063 -0.160156,-0.164063 -0.203125,-0.164063 -0.164063,0 -0.164063,0.05078 -0.230469,0.304688 -0.300781,1.011719 -0.828125,1.980469 -1.660156,1.980469 -0.25,0 -0.367188,-0.160157 -0.367188,-0.53125 0,-0.390626 0.09375,-0.621094 0.460938,-1.617188 z m 0,0"
             id="path93" />
          <path
             style="fill:#000000;fill-opacity:1;fill-rule:nonzero;stroke:none"
             d="m 49.8125,40.863281 c 0,-0.554687 -0.480469,-1.015625 -1.011719,-1.015625 -0.621093,0 -1.039062,0.492188 -1.039062,1.015625 0,0.648438 0.535156,1.039063 1.015625,1.039063 0.574218,0 1.035156,-0.4375 1.035156,-1.039063 z m 0,7.074219 c 0,-0.574219 -0.480469,-1.015625 -1.011719,-1.015625 -0.621093,0 -1.039062,0.484375 -1.039062,1.015625 0,0.648438 0.535156,1.039062 1.015625,1.039062 0.574218,0 1.035156,-0.4375 1.035156,-1.039062 z m 0,0"
             id="path94" />
          <path
             style="fill:#000000;fill-opacity:1;fill-rule:nonzero;stroke:none"
             d="m 75.796875,42.203125 c 0,-1.75 -0.09375,-3.457031 -0.847656,-5.070313 -0.878907,-1.75 -2.398438,-2.210937 -3.433594,-2.210937 -1.21875,0 -2.734375,0.597656 -3.496094,2.347656 -0.601562,1.339844 -0.808593,2.652344 -0.808593,4.933594 0,2.046875 0.144531,3.597656 0.898437,5.089844 0.828125,1.613281 2.28125,2.125 3.382813,2.125 1.84375,0 2.902343,-1.089844 3.5,-2.328125 0.761718,-1.59375 0.804687,-3.667969 0.804687,-4.886719 z M 71.492188,49 c -0.667969,0 -2.042969,-0.390625 -2.4375,-2.695312 -0.253907,-1.269532 -0.253907,-2.882813 -0.253907,-4.359376 0,-1.722656 0,-3.292968 0.347657,-4.539062 0.367187,-1.425781 1.445312,-2.070312 2.34375,-2.070312 0.808593,0 2.03125,0.484374 2.441406,2.300781 0.25,1.203125 0.25,2.882812 0.25,4.308593 0,1.433594 0,3.019532 -0.226563,4.316407 C 73.566406,48.585938 72.234375,49 71.492188,49 Z m 0,0"
             id="path95" />
          <path
             style="fill:#000000;fill-opacity:1;fill-rule:nonzero;stroke:none"
             d="m 94.875,30.816406 h 2.691406 c 0.230469,0 0.804688,0 0.804688,-0.554687 0,-0.390625 -0.34375,-0.390625 -0.644532,-0.390625 H 93.21875 c -0.324219,0 -0.949219,0 -1.664062,0.765625 -0.523438,0.574219 -0.964844,1.351562 -0.964844,1.445312 0,0 0,0.160157 0.1875,0.160157 0.136718,0 0.160156,-0.06641 0.253906,-0.203126 0.804688,-1.222656 1.699219,-1.222656 2.042969,-1.222656 h 1.339843 l -1.570312,5.164063 c -0.06641,0.179687 -0.15625,0.527343 -0.15625,0.597656 0,0.160156 0.08984,0.410156 0.457031,0.410156 0.535157,0 0.597657,-0.433593 0.648438,-0.691406 z m 0,0"
             id="path96" />
          <path
             style="fill:#000000;fill-opacity:1;fill-rule:nonzero;stroke:none"
             d="m 101.76172,44.113281 c 0.37109,0 0.76172,0 0.76172,-0.410156 0,-0.441406 -0.39063,-0.441406 -0.76172,-0.441406 H 86.039062 c 1.175782,-0.875 1.75,-1.75 1.914063,-2.027344 0.945313,-1.453125 1.125,-2.789063 1.125,-2.8125 0,-0.25 -0.253906,-0.25 -0.433594,-0.25 -0.34375,0 -0.375,0.04297 -0.460937,0.414063 -0.488282,2.070312 -1.726563,3.820312 -4.125,4.835937 -0.230469,0.07031 -0.320313,0.117187 -0.320313,0.28125 0,0.136719 0.113281,0.179687 0.320313,0.25 2.210937,0.921875 3.617187,2.582031 4.148437,4.929687 0.0625,0.253907 0.09375,0.324219 0.4375,0.324219 0.179688,0 0.433594,0 0.433594,-0.25 0,-0.05078 -0.203125,-1.386719 -1.082031,-2.789062 -0.414063,-0.648438 -1.035156,-1.382813 -1.957032,-2.054688 z m 0,0"
             id="path97" />
          <path
             style="fill:#000000;fill-opacity:1;fill-rule:nonzero;stroke:none"
             d="m 101.39453,44.113281 c 0.3711,0 0.73828,0 0.73828,-0.410156 0,-0.441406 -0.36718,-0.441406 -0.73828,-0.441406 H 89.957031 c -0.347656,0 -0.738281,0 -0.738281,0.441406 0,0.410156 0.390625,0.410156 0.738281,0.410156 z m 0,0"
             id="path98" />
          <path
             style="fill:#000000;fill-opacity:1;fill-rule:nonzero;stroke:none"
             d="m 115.85547,35.425781 c 0,-0.503906 0,-0.503906 -0.41406,-0.503906 -0.50391,0.554687 -1.5625,1.339844 -3.73047,1.339844 v 0.617187 c 0.48437,0 1.54687,0 2.69531,-0.554687 v 11.015625 c 0,0.757812 -0.0664,1.015625 -1.91016,1.015625 h -0.66796 v 0.621093 c 0.57421,-0.05078 2.625,-0.05078 3.3164,-0.05078 0.69141,0 2.73438,0 3.28906,0.05078 v -0.621093 h -0.64062 c -1.86328,0 -1.9375,-0.257813 -1.9375,-1.015625 z m 0,0"
             id="path99" />
          <path
             style="fill:#000000;fill-opacity:1;fill-rule:nonzero;stroke:none"
             d="m 173.06641,35.105469 c 0.0937,-0.230469 0.0937,-0.277344 0.0937,-0.394531 0,-0.207032 -0.16016,-0.410157 -0.41797,-0.410157 -0.27344,0 -0.38672,0.253907 -0.48047,0.484375 l -1.75,4.652344 h -6.42188 l -1.76953,-4.652344 c -0.0937,-0.304687 -0.20703,-0.484375 -0.48047,-0.484375 -0.21093,0 -0.41797,0.203125 -0.41797,0.410157 0,0.05078 0,0.09375 0.13672,0.394531 l 5.2461,13.851562 c 0.11718,0.292969 0.21093,0.480469 0.48828,0.480469 0.29687,0 0.39062,-0.230469 0.45703,-0.4375 z m -8.65235,5.183593 h 5.75391 l -2.875,7.535157 z m 0,0"
             id="path100" />
          <path
             style="fill:#000000;fill-opacity:1;fill-rule:nonzero;stroke:none"
             d="m 183.89062,41.003906 c 0.27344,0 0.99219,0 0.99219,-0.664062 0,-0.492188 -0.41406,-0.492188 -0.78515,-0.492188 h -4.66797 c -3.1836,0 -5.45703,3.554688 -5.45703,6.039063 0,1.800781 1.14453,3.300781 3.05859,3.300781 2.48437,0 5.22656,-2.675781 5.22656,-5.859375 0,-0.828125 -0.21094,-1.632813 -0.71484,-2.324219 z m -6.83593,7.765625 c -1.08203,0 -1.86719,-0.832031 -1.86719,-2.285156 0,-1.261719 0.76172,-5.480469 3.86719,-5.480469 0.92187,0 1.93359,0.4375 1.93359,2.074219 0,0.738281 -0.34375,2.511719 -1.07812,3.730469 -0.76172,1.269531 -1.91407,1.960937 -2.85547,1.960937 z m 0,0"
             id="path101" />
          <path
             style="fill:#000000;fill-opacity:1;fill-rule:nonzero;stroke:none"
             d="m 189.48437,42.253906 c 0,-0.324218 -0.23046,-0.578125 -0.59765,-0.578125 -0.41797,0 -0.85156,0.414063 -0.85156,0.851563 0,0.300781 0.20312,0.578125 0.59765,0.578125 0.36719,0 0.85156,-0.367188 0.85156,-0.851563 z m -1.21875,6.035156 c 0.20313,-0.460937 0.20313,-0.480468 0.36719,-0.921874 0.11719,-0.324219 0.20313,-0.554688 0.20313,-0.855469 0,-0.734375 -0.52735,-1.332031 -1.33203,-1.332031 -1.4961,0 -2.11719,2.347656 -2.11719,2.484374 0,0.164063 0.16015,0.164063 0.20703,0.164063 0.16016,0 0.16016,-0.01953 0.25391,-0.300781 0.43359,-1.496094 1.08203,-1.980469 1.61328,-1.980469 0.13672,0 0.41015,0 0.41015,0.507813 0,0.347656 -0.11328,0.667968 -0.17968,0.832031 -0.14454,0.433593 -0.85547,2.300781 -1.10938,2.988281 -0.16016,0.417969 -0.36719,0.953125 -0.36719,1.269531 0,0.761719 0.55469,1.339844 1.3125,1.339844 1.51563,0 2.11328,-2.347656 2.11328,-2.492187 0,-0.160157 -0.15625,-0.160157 -0.19921,-0.160157 -0.16407,0 -0.16407,0.04297 -0.23047,0.304688 -0.30469,1.007812 -0.82813,1.980469 -1.66407,1.980469 -0.25,0 -0.36718,-0.164063 -0.36718,-0.53125 0,-0.390626 0.0937,-0.621094 0.46093,-1.617188 z m 0,0"
             id="path102" />
        </g>
      </g>
      <g
         style="fill:#171714;fill-opacity:1"
         id="g39">
        <g
           id="use39"
           transform="translate(81.40419,27.223892)">
          <path
             style="stroke:none"
             d=""
             id="path194" />
        </g>
      </g>
      <g
         style="fill:#171714;fill-opacity:1"
         id="g45">
        <g
           id="use45"
           transform="translate(169.3927,27.223892)">
          <path
             style="stroke:none"
             d=""
             id="path195" />
        </g>
      </g>
      <g
         style="fill:#171714;fill-opacity:1"
         id="g49">
        <g
           id="use49"
           transform="translate(213.70567,27.223892)">
          <path
             style="stroke:none"
             d=""
             id="path196" />
        </g>
      </g>
      <g
         style="fill:#171714;fill-opacity:1"
         id="g63">
        <g
           id="use63"
           transform="translate(380.66428,27.223892)">
          <path
             style="stroke:none"
             d=""
             id="path197" />
        </g>
      </g>
      <g
         style="fill:#171714;fill-opacity:1"
         id="g75">
        <g
           id="use75"
           transform="translate(533.57587,27.223892)">
          <path
             style="stroke:none"
             d=""
             id="path198" />
        </g>
      </g>
    </g>
  </g>
</svg>
