<?xml version="1.0" encoding="UTF-8" standalone="no"?>
<svg
   width="749.1875pt"
   height="169.52499pt"
   viewBox="0 0 749.1875 169.525"
   version="1.2"
   id="svg137"
   sodipodi:docname="Recap_AvSuspensions.pdf"
   xmlns:inkscape="http://www.inkscape.org/namespaces/inkscape"
   xmlns:sodipodi="http://sodipodi.sourceforge.net/DTD/sodipodi-0.dtd"
   xmlns="http://www.w3.org/2000/svg"
   xmlns:svg="http://www.w3.org/2000/svg">
  <sodipodi:namedview
     id="namedview137"
     pagecolor="#ffffff"
     bordercolor="#666666"
     borderopacity="1.0"
     inkscape:showpageshadow="2"
     inkscape:pageopacity="0.0"
     inkscape:pagecheckerboard="0"
     inkscape:deskcolor="#d1d1d1"
     inkscape:document-units="pt">
    <inkscape:page
       x="0"
       y="-1.2440177e-18"
       width="749.1875"
       height="169.52499"
       id="page2"
       margin="0"
       bleed="0" />
  </sodipodi:namedview>
  <defs
     id="defs6">
    <clipPath
       id="clip1">
      <path
         d="m 137,160 h 12 v 9.52344 h -12 z m 0,0"
         id="path1" />
    </clipPath>
    <clipPath
       id="clip2">
      <path
         d="m 397,160 h 11 v 9.52344 h -11 z m 0,0"
         id="path2" />
    </clipPath>
    <clipPath
       id="clip3">
      <path
         d="m 656,160 h 12 v 9.52344 h -12 z m 0,0"
         id="path3" />
    </clipPath>
    <clipPath
       id="clip4">
      <path
         d="m 749,0 h 1.13672 V 128 H 749 Z m 0,0"
         id="path4" />
    </clipPath>
    <clipPath
       id="clip5">
      <path
         d="m 573,126 h 177.13672 v 2 H 573 Z m 0,0"
         id="path5" />
    </clipPath>
    <clipPath
       id="clip6">
      <path
         d="M 573,0 H 750.13672 V 1 H 573 Z m 0,0"
         id="path6" />
    </clipPath>
  </defs>
  <g
     id="surface689966"
     transform="translate(-0.94921906,0.00156201)">
    <path
       style="fill:#ffffff;fill-opacity:1;fill-rule:nonzero;stroke:none"
       d="M 55.171875,0.398438 H 231.26562 V 126.77344 H 55.171875 Z m 0,0"
       id="path7" />
    <path
       style="fill:none;stroke:#000000;stroke-width:1.5;stroke-linecap:butt;stroke-linejoin:round;stroke-miterlimit:10;stroke-dasharray:5.55, 2.4;stroke-opacity:1"
       d="M 63.175781,70.765625 H 223.26172"
       id="path8" />
    <path
       style="fill:#eea6c5;fill-opacity:1;fill-rule:nonzero;stroke:#eea6c5;stroke-width:1;stroke-linecap:butt;stroke-linejoin:round;stroke-miterlimit:10;stroke-opacity:1"
       d="m 63.175781,106.66797 v 14.35937 L 111.20313,95.894531 127.21094,77.945312 143.21875,49.222656 159.22656,24.09375 223.26172,20.5 V 6.140625 l -64.03516,3.589844 -16.00781,25.132812 -16.00781,28.722657 -16.00781,17.949218 z m 0,0"
       id="path9" />
    <path
       style="fill:none;stroke:#000000;stroke-width:0.8;stroke-linecap:butt;stroke-linejoin:round;stroke-miterlimit:10;stroke-opacity:1"
       d="m 95.195312,126.77344 v 3.5"
       id="path10" />
    <path
       style="fill:#000000;fill-opacity:1;fill-rule:nonzero;stroke:none"
       d="m 95.921875,134.875 c 0,-0.40625 -0.01563,-0.4375 -0.296875,-0.4375 -0.78125,0.9375 -1.953125,1.23437 -3.0625,1.28125 -0.0625,0 -0.171875,0 -0.1875,0.0312 -0.01563,0.0469 -0.01563,0.0781 -0.01563,0.5 0.609375,0 1.65625,-0.10938 2.453125,-0.59375 v 10.5 c 0,0.70312 -0.04687,0.9375 -1.75,0.9375 H 92.45312 v 0.51562 c 0.953125,-0.0156 1.953125,-0.0469 2.90625,-0.0469 0.96875,0 1.953125,0.0312 2.921875,0.0469 V 147.0937 H 97.67187 c -1.703125,0 -1.75,-0.21875 -1.75,-0.9375 z m 0,0"
       id="path11" />
    <path
       style="fill:none;stroke:#000000;stroke-width:0.8;stroke-linecap:butt;stroke-linejoin:round;stroke-miterlimit:10;stroke-opacity:1"
       d="m 159.22656,126.77344 v 3.5"
       id="path12" />
    <path
       style="fill:#000000;fill-opacity:1;fill-rule:nonzero;stroke:none"
       d="m 162.96875,144.51562 h -0.35938 c -0.20312,1.42188 -0.35937,1.65625 -0.4375,1.78125 -0.10937,0.15625 -1.54687,0.15625 -1.8125,0.15625 h -3.82812 c 0.71875,-0.78125 2.10937,-2.1875 3.79687,-3.82812 1.21875,-1.15625 2.64063,-2.5 2.64063,-4.48438 0,-2.34375 -1.875,-3.70312 -3.96875,-3.70312 -2.1875,0 -3.53125,1.9375 -3.53125,3.73437 0,0.76563 0.57812,0.875 0.82812,0.875 0.1875,0 0.79688,-0.125 0.79688,-0.82812 0,-0.60938 -0.53125,-0.79688 -0.79688,-0.79688 -0.125,0 -0.25,0.0312 -0.32812,0.0625 0.375,-1.6875 1.53125,-2.53125 2.75,-2.53125 1.73437,0 2.875,1.375 2.875,3.1875 0,1.73438 -1.01563,3.23438 -2.15625,4.53125 l -3.96875,4.48438 v 0.45312 h 7.01562 z m 0,0"
       id="path13" />
    <path
       style="fill:none;stroke:#000000;stroke-width:0.8;stroke-linecap:butt;stroke-linejoin:round;stroke-miterlimit:10;stroke-opacity:1"
       d="m 223.26172,126.77344 v 3.5"
       id="path14" />
    <path
       style="fill:#000000;fill-opacity:1;fill-rule:nonzero;stroke:none"
       d="m 223.09766,140.84375 c 1.76562,0 2.54687,1.53125 2.54687,3.29687 0,2.39063 -1.28125,3.3125 -2.4375,3.3125 -1.04687,0 -2.76562,-0.51562 -3.29687,-2.0625 0.0937,0.0469 0.20312,0.0469 0.29687,0.0469 0.46875,0 0.82813,-0.3125 0.82813,-0.84375 0,-0.5625 -0.4375,-0.82813 -0.82813,-0.82813 -0.34375,0 -0.85937,0.15625 -0.85937,0.89063 0,1.84375 1.79687,3.26562 3.90625,3.26562 2.20312,0 3.90625,-1.73437 3.90625,-3.76562 0,-1.92188 -1.59375,-3.3125 -3.48438,-3.54688 1.51563,-0.3125 2.96875,-1.67187 2.96875,-3.48437 0,-1.54688 -1.57812,-2.6875 -3.375,-2.6875 -1.8125,0 -3.40625,1.125 -3.40625,2.71875 0,0.6875 0.51563,0.8125 0.78125,0.8125 0.42188,0 0.78125,-0.26563 0.78125,-0.78125 0,-0.51563 -0.35937,-0.78125 -0.78125,-0.78125 -0.0781,0 -0.1875,0 -0.26562,0.0469 0.57812,-1.3125 2.15625,-1.54687 2.85937,-1.54687 0.6875,0 2,0.32812 2,2.25 0,0.54687 -0.0781,1.54687 -0.75,2.42187 -0.59375,0.78125 -1.28125,0.8125 -1.9375,0.875 -0.0937,0 -0.54687,0.0469 -0.625,0.0469 -0.14062,0.0156 -0.21875,0.0312 -0.21875,0.17187 0,0.14063 0.0156,0.17188 0.40625,0.17188 z m 0,0"
       id="path15" />
    <g
       clip-path="url(#clip1)"
       clip-rule="nonzero"
       id="g16">
      <path
         style="fill:#000000;fill-opacity:1;fill-rule:nonzero;stroke:none"
         d="m 146.23437,164.27344 c 0,-1.92188 -1.09375,-3.73438 -3.20312,-3.73438 -2.60938,0 -5.21875,2.84375 -5.21875,5.67188 0,1.73437 1.07812,3.3125 3.10937,3.3125 1.23438,0 2.70313,-0.48438 4.125,-1.67188 0.28125,1.10938 0.89063,1.67188 1.75,1.67188 1.07813,0 1.60938,-1.125 1.60938,-1.375 0,-0.1875 -0.14063,-0.1875 -0.1875,-0.1875 -0.17188,0 -0.1875,0.0625 -0.25,0.21875 -0.17188,0.5 -0.64063,0.9375 -1.10938,0.9375 -0.625,0 -0.625,-1.26563 -0.625,-2.48438 2.03125,-2.4375 2.51563,-4.9375 2.51563,-4.96875 0,-0.17187 -0.15625,-0.17187 -0.21875,-0.17187 -0.1875,0 -0.20313,0.0625 -0.28125,0.42187 -0.25,0.875 -0.78125,2.42188 -2.01563,4.0625 z m -1.25,3.09375 c -1.75,1.57812 -3.32812,1.75 -4.03125,1.75 -1.40625,0 -1.8125,-1.25 -1.8125,-2.1875 0,-0.85938 0.4375,-2.89063 1.0625,-3.98438 0.8125,-1.39062 1.9375,-2.01562 2.82813,-2.01562 1.9375,0 1.9375,2.53125 1.9375,4.20312 0,0.5 -0.0312,1.01563 -0.0312,1.51563 0,0.40625 0.0312,0.5 0.0469,0.71875 z m 0,0"
         id="path16" />
    </g>
    <path
       style="fill:none;stroke:#000000;stroke-width:0.8;stroke-linecap:butt;stroke-linejoin:round;stroke-miterlimit:10;stroke-opacity:1"
       d="m 55.171875,106.66797 h -3.5"
       id="path17" />
    <path
       style="fill:#000000;fill-opacity:1;fill-rule:nonzero;stroke:none"
       d="m 29.773438,100.85156 c 0,-0.40625 -0.01563,-0.4375 -0.296876,-0.4375 -0.78125,0.9375 -1.953124,1.23438 -3.0625,1.28125 -0.0625,0 -0.171874,0 -0.1875,0.0312 -0.01562,0.0469 -0.01562,0.0781 -0.01562,0.5 0.609374,0 1.65625,-0.10937 2.453124,-0.59375 v 10.5 c 0,0.70313 -0.04687,0.9375 -1.75,0.9375 h -0.609374 v 0.51563 c 0.953124,-0.0156 1.953124,-0.0469 2.90625,-0.0469 0.96875,0 1.953124,0.0312 2.921874,0.0469 v -0.51563 h -0.609374 c -1.703126,0 -1.75,-0.21875 -1.75,-0.9375 z m 0,0"
       id="path18" />
    <path
       style="fill:#000000;fill-opacity:1;fill-rule:nonzero;stroke:none"
       d="m 37.289062,112.63281 c 0,-0.57812 -0.484374,-0.98437 -0.96875,-0.98437 -0.578124,0 -0.96875,0.48437 -0.96875,0.96875 0,0.57812 0.484376,0.96875 0.953126,0.96875 0.578124,0 0.984374,-0.48438 0.984374,-0.95313 z m 0,0"
       id="path19" />
    <path
       style="fill:#000000;fill-opacity:1;fill-rule:nonzero;stroke:none"
       d="m 41.300781,101.92969 c 0.203125,0.0781 1.015625,0.34375 1.859375,0.34375 1.84375,0 2.875,-1 3.4375,-1.57813 0,-0.15625 0,-0.25 -0.109375,-0.25 -0.01563,0 -0.0625,0 -0.21875,0.0781 -0.703125,0.29687 -1.515625,0.53125 -2.515625,0.53125 -0.59375,0 -1.484375,-0.0781 -2.46875,-0.51563 -0.21875,-0.0937 -0.265625,-0.0937 -0.28125,-0.0937 -0.09375,0 -0.109375,0.0156 -0.109375,0.40625 v 5.78125 c 0,0.35938 0,0.45313 0.1875,0.45313 0.109375,0 0.140625,-0.0312 0.25,-0.17188 0.625,-0.89062 1.515625,-1.28125 2.5,-1.28125 0.703125,0 2.203125,0.4375 2.203125,3.84375 0,0.64063 0,1.79688 -0.609375,2.71875 -0.5,0.8125 -1.265625,1.23438 -2.125,1.23438 -1.3125,0 -2.65625,-0.92188 -3.015625,-2.45313 0.07813,0.0156 0.25,0.0625 0.328125,0.0625 0.25,0 0.75,-0.14062 0.75,-0.76562 0,-0.53125 -0.375,-0.75 -0.75,-0.75 -0.46875,0 -0.765625,0.28125 -0.765625,0.82812 0,1.73438 1.375,3.54688 3.484375,3.54688 2.0625,0 4.015625,-1.76563 4.015625,-4.34375 0,-2.39063 -1.5625,-4.23438 -3.484375,-4.23438 -1.015625,0 -1.875,0.375 -2.5625,1.09375 z m 0,0"
       id="path20" />
    <path
       style="fill:none;stroke:#000000;stroke-width:0.8;stroke-linecap:butt;stroke-linejoin:round;stroke-miterlimit:10;stroke-opacity:1"
       d="m 55.171875,70.765625 h -3.5"
       id="path21" />
    <path
       style="fill:#000000;fill-opacity:1;fill-rule:nonzero;stroke:none"
       d="m 32.789062,74.589844 h -0.359374 c -0.203126,1.421875 -0.359376,1.65625 -0.4375,1.78125 -0.109376,0.15625 -1.546876,0.15625 -1.8125,0.15625 h -3.828126 c 0.71875,-0.78125 2.109376,-2.1875 3.796876,-3.828125 1.21875,-1.15625 2.640624,-2.5 2.640624,-4.484375 0,-2.34375 -1.875,-3.703125 -3.96875,-3.703125 -2.1875,0 -3.53125,1.9375 -3.53125,3.734375 0,0.765625 0.578126,0.875 0.828126,0.875 0.1875,0 0.796874,-0.125 0.796874,-0.828125 0,-0.609375 -0.53125,-0.796875 -0.796874,-0.796875 -0.125,0 -0.25,0.03125 -0.328126,0.0625 0.375,-1.6875 1.53125,-2.53125 2.75,-2.53125 1.734376,0 2.875,1.375 2.875,3.1875 0,1.734375 -1.015624,3.234375 -2.15625,4.53125 l -3.96875,4.484375 v 0.453125 h 7.015626 z m 0,0"
       id="path22" />
    <path
       style="fill:#000000;fill-opacity:1;fill-rule:nonzero;stroke:none"
       d="m 37.289062,76.730469 c 0,-0.578125 -0.484374,-0.984375 -0.96875,-0.984375 -0.578124,0 -0.96875,0.484375 -0.96875,0.96875 0,0.578125 0.484376,0.96875 0.953126,0.96875 0.578124,0 0.984374,-0.484375 0.984374,-0.953125 z m 0,0"
       id="path23" />
    <path
       style="fill:#000000;fill-opacity:1;fill-rule:nonzero;stroke:none"
       d="m 47.394531,71.292969 c 0,-1.21875 -0.01563,-3.296875 -0.84375,-4.890625 -0.75,-1.390625 -1.921875,-1.890625 -2.953125,-1.890625 -0.953125,0 -2.171875,0.4375 -2.921875,1.875 -0.796875,1.5 -0.890625,3.34375 -0.890625,4.90625 0,1.125 0.03125,2.859375 0.640625,4.375 0.859375,2.0625 2.390625,2.328125 3.171875,2.328125 0.921875,0 2.3125,-0.375 3.125,-2.265625 0.59375,-1.375 0.671875,-2.984375 0.671875,-4.4375 z m -3.796875,6.390625 c -1.28125,0 -2.03125,-1.09375 -2.3125,-2.609375 -0.21875,-1.171875 -0.21875,-2.890625 -0.21875,-4 0,-1.53125 0,-2.8125 0.265625,-4.03125 0.375,-1.6875 1.484375,-2.203125 2.265625,-2.203125 0.8125,0 1.875,0.53125 2.25,2.171875 0.265625,1.125 0.28125,2.46875 0.28125,4.0625 0,1.296875 0,2.890625 -0.234375,4.0625 -0.421875,2.171875 -1.59375,2.546875 -2.296875,2.546875 z m 0,0"
       id="path24" />
    <path
       style="fill:none;stroke:#000000;stroke-width:0.8;stroke-linecap:butt;stroke-linejoin:round;stroke-miterlimit:10;stroke-opacity:1"
       d="m 55.171875,34.863281 h -3.5"
       id="path25" />
    <path
       style="fill:#000000;fill-opacity:1;fill-rule:nonzero;stroke:none"
       d="m 32.789062,38.6875 h -0.359374 c -0.203126,1.421875 -0.359376,1.65625 -0.4375,1.78125 -0.109376,0.15625 -1.546876,0.15625 -1.8125,0.15625 h -3.828126 c 0.71875,-0.78125 2.109376,-2.1875 3.796876,-3.828125 1.21875,-1.15625 2.640624,-2.5 2.640624,-4.484375 0,-2.34375 -1.875,-3.703125 -3.96875,-3.703125 -2.1875,0 -3.53125,1.9375 -3.53125,3.734375 0,0.765625 0.578126,0.875 0.828126,0.875 0.1875,0 0.796874,-0.125 0.796874,-0.828125 0,-0.609375 -0.53125,-0.796875 -0.796874,-0.796875 -0.125,0 -0.25,0.03125 -0.328126,0.0625 0.375,-1.6875 1.53125,-2.53125 2.75,-2.53125 1.734376,0 2.875,1.375 2.875,3.1875 0,1.734375 -1.015624,3.234375 -2.15625,4.53125 l -3.96875,4.484375 v 0.453125 h 7.015626 z m 0,0"
       id="path26" />
    <path
       style="fill:#000000;fill-opacity:1;fill-rule:nonzero;stroke:none"
       d="m 37.289062,40.828125 c 0,-0.578125 -0.484374,-0.984375 -0.96875,-0.984375 -0.578124,0 -0.96875,0.484375 -0.96875,0.96875 0,0.578125 0.484376,0.96875 0.953126,0.96875 0.578124,0 0.984374,-0.484375 0.984374,-0.953125 z m 0,0"
       id="path27" />
    <path
       style="fill:#000000;fill-opacity:1;fill-rule:nonzero;stroke:none"
       d="m 41.300781,30.125 c 0.203125,0.07813 1.015625,0.34375 1.859375,0.34375 1.84375,0 2.875,-1 3.4375,-1.578125 0,-0.15625 0,-0.25 -0.109375,-0.25 -0.01563,0 -0.0625,0 -0.21875,0.07813 -0.703125,0.296875 -1.515625,0.53125 -2.515625,0.53125 -0.59375,0 -1.484375,-0.07813 -2.46875,-0.515625 -0.21875,-0.09375 -0.265625,-0.09375 -0.28125,-0.09375 -0.09375,0 -0.109375,0.01563 -0.109375,0.40625 v 5.78125 c 0,0.359375 0,0.453125 0.1875,0.453125 0.109375,0 0.140625,-0.03125 0.25,-0.171875 0.625,-0.890625 1.515625,-1.28125 2.5,-1.28125 0.703125,0 2.203125,0.4375 2.203125,3.84375 0,0.640625 0,1.796875 -0.609375,2.71875 -0.5,0.8125 -1.265625,1.234375 -2.125,1.234375 -1.3125,0 -2.65625,-0.921875 -3.015625,-2.453125 0.07813,0.01563 0.25,0.0625 0.328125,0.0625 0.25,0 0.75,-0.140625 0.75,-0.765625 0,-0.53125 -0.375,-0.75 -0.75,-0.75 -0.46875,0 -0.765625,0.28125 -0.765625,0.828125 0,1.734375 1.375,3.546875 3.484375,3.546875 2.0625,0 4.015625,-1.765625 4.015625,-4.34375 0,-2.390625 -1.5625,-4.234375 -3.484375,-4.234375 -1.015625,0 -1.875,0.375 -2.5625,1.09375 z m 0,0"
       id="path28" />
    <path
       style="fill:#000000;fill-opacity:1;fill-rule:nonzero;stroke:none"
       d="m 1.449219,62.003906 c -0.078125,-0.03125 -0.203125,-0.0625 -0.296875,-0.0625 -0.203125,0 -0.203125,0.203125 -0.203125,0.234375 0,0.01563 0.078125,1 0.109375,1.09375 0.015625,0.34375 0.046875,0.640625 0.078125,1 0.03125,0.5 0.046875,0.640625 0.40625,0.640625 0.203125,0 0.203125,-0.15625 0.203125,-0.4375 0,-0.984375 0.1875,-1 0.375,-1 0.125,0 0.28125,0.04687 0.34375,0.0625 l 4.84375,1.21875 c -0.515625,0.21875 -1.3125,0.75 -1.3125,1.78125 0,2.25 2.90625,4.6875 5.859375,4.6875 1.96875,0 3.125,-1.15625 3.125,-2.515625 0,-1.09375 -0.859375,-2.03125 -1.515625,-2.578125 1.171875,-0.203125 1.515625,-1.140625 1.515625,-1.734375 0,-0.609375 -0.359375,-1.078125 -1.078125,-1.4375 -0.671875,-0.328125 -1.890625,-0.59375 -1.96875,-0.59375 -0.109375,0 -0.1875,0.07813 -0.1875,0.1875 0,0.1875 0.109375,0.203125 0.40625,0.28125 1.171875,0.296875 2.421875,0.6875 2.421875,1.5 0,0.578125 -0.515625,0.609375 -0.90625,0.609375 -0.07813,0 -0.5,0 -1.0625,-0.140625 z m 10.953125,4.015625 c 0.34375,0.109375 0.390625,0.109375 0.765625,0.375 0.546875,0.453125 1.40625,1.328125 1.40625,2.265625 0,0.8125 -0.734375,1.265625 -1.90625,1.265625 -1.09375,0 -3.328125,-0.609375 -4.171875,-1 -1.390625,-0.671875 -2.109375,-1.609375 -2.109375,-2.390625 0,-1.3125 1.640625,-1.5625 1.796875,-1.5625 0.015625,0 0.28125,0.04687 0.3125,0.07813 z m 0,0"
       id="path29" />
    <path
       style="fill:#000000;fill-opacity:1;fill-rule:nonzero;stroke:none"
       d="m 12.15625,55.664062 c 0,-0.28125 0,-0.390624 -0.265625,-0.390624 -0.140625,0 -0.140625,0.109374 -0.140625,0.359374 v 1.125 c -1.4375,-0.265624 -2.421875,-0.453124 -2.875,-0.5625 -0.328125,-0.09375 -0.65625,-0.375 -0.65625,-0.75 0,-0.28125 0.125,-0.578124 0.25,-0.71875 0.0625,0.546876 0.46875,0.703126 0.703125,0.703126 0.28125,0 0.4375,-0.203126 0.4375,-0.46875 0,-0.28125 -0.234375,-0.703126 -0.765625,-0.703126 -0.578125,0 -0.90625,0.59375 -0.90625,1.203126 0,0.609374 0.453125,1.1875 1,1.46875 0.484375,0.25 0.984375,0.390624 2.8125,0.71875 v 0.921874 c 0,0.265626 0,0.40625 0.25,0.40625 0.15625,0 0.15625,-0.07812 0.15625,-0.359374 v -0.890626 c 1.296875,0.25 4.453125,0.828126 5.9375,1.140626 1.21875,0.234374 2.234375,0.453124 2.234375,1.140624 0,0.04688 0,0.453126 -0.265625,0.703126 -0.04687,-0.71875 -0.671875,-0.71875 -0.671875,-0.71875 -0.28125,0 -0.453125,0.21875 -0.453125,0.484374 0,0.28125 0.234375,0.6875 0.765625,0.6875 0.609375,0 0.90625,-0.609374 0.90625,-1.15625 0,-1.421874 -2.546875,-2 -3.25,-2.15625 -1.078125,-0.25 -4.78125,-0.9375 -5.203125,-1 z m 0,0"
       id="path30" />
    <path
       style="fill:none;stroke:#ffffff;stroke-width:5;stroke-linecap:square;stroke-linejoin:round;stroke-miterlimit:10;stroke-opacity:1"
       d="M 111.20313,88.714844 127.21094,70.765625"
       id="path31" />
    <path
       style="fill:#ffffff;fill-opacity:1;fill-rule:nonzero;stroke:#ffffff;stroke-width:1;stroke-linecap:butt;stroke-linejoin:round;stroke-miterlimit:10;stroke-opacity:1"
       d="m 111.20313,93.714844 c 1.32421,0 2.59765,-0.527344 3.53515,-1.464844 0.9375,-0.9375 1.46485,-2.207031 1.46485,-3.535156 0,-1.324219 -0.52735,-2.597656 -1.46485,-3.535156 -0.9375,-0.9375 -2.21094,-1.464844 -3.53515,-1.464844 -1.32813,0 -2.59766,0.527344 -3.53516,1.464844 -0.9375,0.9375 -1.46484,2.210937 -1.46484,3.535156 0,1.328125 0.52734,2.597656 1.46484,3.535156 0.9375,0.9375 2.20703,1.464844 3.53516,1.464844 z m 0,0"
       id="path32" />
    <path
       style="fill:#ffffff;fill-opacity:1;fill-rule:nonzero;stroke:#ffffff;stroke-width:1;stroke-linecap:butt;stroke-linejoin:round;stroke-miterlimit:10;stroke-opacity:1"
       d="m 127.21094,75.765625 c 1.32422,0 2.59765,-0.527344 3.53515,-1.464844 0.9375,-0.9375 1.46485,-2.210937 1.46485,-3.535156 0,-1.328125 -0.52735,-2.597656 -1.46485,-3.535156 -0.9375,-0.9375 -2.21093,-1.464844 -3.53515,-1.464844 -1.32813,0 -2.59766,0.527344 -3.53516,1.464844 -0.9375,0.9375 -1.46484,2.207031 -1.46484,3.535156 0,1.324219 0.52734,2.597656 1.46484,3.535156 0.9375,0.9375 2.20703,1.464844 3.53516,1.464844 z m 0,0"
       id="path33" />
    <path
       style="fill:none;stroke:#a12e4a;stroke-width:1.5;stroke-linecap:square;stroke-linejoin:round;stroke-miterlimit:10;stroke-opacity:1"
       d="M 63.175781,113.84766 111.20313,88.714844 127.21094,70.765625 143.21875,42.042969 159.22656,16.910156 223.26172,13.320312"
       id="path34" />
    <path
       style="fill:#a12e4a;fill-opacity:1;fill-rule:nonzero;stroke:#a12e4a;stroke-width:1;stroke-linecap:butt;stroke-linejoin:round;stroke-miterlimit:10;stroke-opacity:1"
       d="m 63.175781,116.84766 c 0.796875,0 1.558594,-0.31641 2.121094,-0.87891 0.5625,-0.5625 0.878906,-1.32812 0.878906,-2.12109 0,-0.79688 -0.316406,-1.5586 -0.878906,-2.1211 -0.5625,-0.5625 -1.324219,-0.8789 -2.121094,-0.8789 -0.792969,0 -1.558593,0.3164 -2.121093,0.8789 -0.5625,0.5625 -0.878907,1.32422 -0.878907,2.1211 0,0.79297 0.316407,1.55859 0.878907,2.12109 0.5625,0.5625 1.328124,0.87891 2.121093,0.87891 z m 0,0"
       id="path35" />
    <path
       style="fill:#a12e4a;fill-opacity:1;fill-rule:nonzero;stroke:#a12e4a;stroke-width:1;stroke-linecap:butt;stroke-linejoin:round;stroke-miterlimit:10;stroke-opacity:1"
       d="m 111.20313,91.714844 c 0.79296,0 1.55859,-0.316406 2.12109,-0.878906 0.5625,-0.5625 0.87891,-1.324219 0.87891,-2.121094 0,-0.792969 -0.31641,-1.558594 -0.87891,-2.121094 -0.5625,-0.5625 -1.32813,-0.878906 -2.12109,-0.878906 -0.79688,0 -1.5586,0.316406 -2.1211,0.878906 -0.5625,0.5625 -0.8789,1.328125 -0.8789,2.121094 0,0.796875 0.3164,1.558594 0.8789,2.121094 0.5625,0.5625 1.32422,0.878906 2.1211,0.878906 z m 0,0"
       id="path36" />
    <path
       style="fill:#a12e4a;fill-opacity:1;fill-rule:nonzero;stroke:#a12e4a;stroke-width:1;stroke-linecap:butt;stroke-linejoin:round;stroke-miterlimit:10;stroke-opacity:1"
       d="m 127.21094,73.765625 c 0.79687,0 1.55859,-0.316406 2.12109,-0.878906 0.5625,-0.5625 0.87891,-1.328125 0.87891,-2.121094 0,-0.796875 -0.31641,-1.558594 -0.87891,-2.121094 -0.5625,-0.5625 -1.32422,-0.878906 -2.12109,-0.878906 -0.79688,0 -1.5586,0.316406 -2.1211,0.878906 -0.5625,0.5625 -0.8789,1.324219 -0.8789,2.121094 0,0.792969 0.3164,1.558594 0.8789,2.121094 0.5625,0.5625 1.32422,0.878906 2.1211,0.878906 z m 0,0"
       id="path37" />
    <path
       style="fill:#a12e4a;fill-opacity:1;fill-rule:nonzero;stroke:#a12e4a;stroke-width:1;stroke-linecap:butt;stroke-linejoin:round;stroke-miterlimit:10;stroke-opacity:1"
       d="m 143.21875,45.042969 c 0.79687,0 1.55859,-0.316407 2.12109,-0.878907 0.5625,-0.5625 0.87891,-1.324218 0.87891,-2.121093 0,-0.796875 -0.31641,-1.558594 -0.87891,-2.121094 -0.5625,-0.5625 -1.32422,-0.878906 -2.12109,-0.878906 -0.79688,0 -1.55859,0.316406 -2.12109,0.878906 -0.5625,0.5625 -0.87891,1.324219 -0.87891,2.121094 0,0.796875 0.31641,1.558593 0.87891,2.121093 0.5625,0.5625 1.32421,0.878907 2.12109,0.878907 z m 0,0"
       id="path38" />
    <path
       style="fill:#a12e4a;fill-opacity:1;fill-rule:nonzero;stroke:#a12e4a;stroke-width:1;stroke-linecap:butt;stroke-linejoin:round;stroke-miterlimit:10;stroke-opacity:1"
       d="m 159.22656,19.910156 c 0.79688,0 1.5586,-0.316406 2.1211,-0.878906 0.5625,-0.5625 0.8789,-1.324219 0.8789,-2.121094 0,-0.792968 -0.3164,-1.558594 -0.8789,-2.121094 -0.5625,-0.5625 -1.32422,-0.878906 -2.1211,-0.878906 -0.79687,0 -1.55859,0.316406 -2.12109,0.878906 -0.5625,0.5625 -0.87891,1.328126 -0.87891,2.121094 0,0.796875 0.31641,1.558594 0.87891,2.121094 0.5625,0.5625 1.32422,0.878906 2.12109,0.878906 z m 0,0"
       id="path39" />
    <path
       style="fill:#a12e4a;fill-opacity:1;fill-rule:nonzero;stroke:#a12e4a;stroke-width:1;stroke-linecap:butt;stroke-linejoin:round;stroke-miterlimit:10;stroke-opacity:1"
       d="m 223.26172,16.320312 c 0.79297,0 1.55859,-0.316406 2.12109,-0.878906 0.5625,-0.5625 0.87891,-1.324218 0.87891,-2.121094 0,-0.792968 -0.31641,-1.558593 -0.87891,-2.121093 -0.5625,-0.5625 -1.32812,-0.878907 -2.12109,-0.878907 -0.79688,0 -1.5586,0.316407 -2.1211,0.878907 -0.5625,0.5625 -0.8789,1.328125 -0.8789,2.121093 0,0.796876 0.3164,1.558594 0.8789,2.121094 0.5625,0.5625 1.32422,0.878906 2.1211,0.878906 z m 0,0"
       id="path40" />
    <path
       style="fill:none;stroke:#000000;stroke-width:0.8;stroke-linecap:square;stroke-linejoin:miter;stroke-miterlimit:10;stroke-opacity:1"
       d="M 55.171875,126.77344 V 0.398438"
       id="path41" />
    <path
       style="fill:none;stroke:#000000;stroke-width:0.8;stroke-linecap:square;stroke-linejoin:miter;stroke-miterlimit:10;stroke-opacity:1"
       d="M 231.26562,126.77344 V 0.398438"
       id="path42" />
    <path
       style="fill:none;stroke:#000000;stroke-width:0.8;stroke-linecap:square;stroke-linejoin:miter;stroke-miterlimit:10;stroke-opacity:1"
       d="M 55.171875,126.77344 H 231.26562"
       id="path43" />
    <path
       style="fill:none;stroke:#000000;stroke-width:0.8;stroke-linecap:square;stroke-linejoin:miter;stroke-miterlimit:10;stroke-opacity:1"
       d="M 55.171875,0.398438 H 231.26562"
       id="path44" />
    <path
       style="fill:#ffffff;fill-opacity:1;fill-rule:nonzero;stroke:none"
       d="M 314.41016,0.398438 H 490.50391 V 126.77344 H 314.41016 Z m 0,0"
       id="path45" />
    <path
       style="fill:none;stroke:#000000;stroke-width:1.5;stroke-linecap:butt;stroke-linejoin:round;stroke-miterlimit:10;stroke-dasharray:5.55, 2.4;stroke-opacity:1"
       d="M 322.41406,98.050781 H 482.5"
       id="path46" />
    <path
       style="fill:#eea6c5;fill-opacity:1;fill-rule:nonzero;stroke:#eea6c5;stroke-width:1;stroke-linecap:butt;stroke-linejoin:round;stroke-miterlimit:10;stroke-opacity:1"
       d="m 322.41406,105.71094 v 15.3164 l 48.02735,-7.66015 16.00781,-22.976565 16.00781,-30.636719 16.00781,-38.292968 H 482.5 V 6.140625 H 418.46484 L 402.45703,44.4375 386.44922,75.074219 370.44141,98.050781 Z m 0,0"
       id="path47" />
    <path
       style="fill:none;stroke:#000000;stroke-width:0.8;stroke-linecap:butt;stroke-linejoin:round;stroke-miterlimit:10;stroke-opacity:1"
       d="m 354.43359,126.77344 v 3.5"
       id="path48" />
    <path
       style="fill:#000000;fill-opacity:1;fill-rule:nonzero;stroke:none"
       d="m 355.16016,134.875 c 0,-0.40625 -0.0156,-0.4375 -0.29688,-0.4375 -0.78125,0.9375 -1.95312,1.23437 -3.0625,1.28125 -0.0625,0 -0.17187,0 -0.1875,0.0312 -0.0156,0.0469 -0.0156,0.0781 -0.0156,0.5 0.60937,0 1.65625,-0.10938 2.45312,-0.59375 v 10.5 c 0,0.70312 -0.0469,0.9375 -1.75,0.9375 h -0.60937 v 0.51562 c 0.95312,-0.0156 1.95312,-0.0469 2.90625,-0.0469 0.96875,0 1.95312,0.0312 2.92187,0.0469 v -0.51562 h -0.60937 c -1.70313,0 -1.75,-0.21875 -1.75,-0.9375 z m 0,0"
       id="path49" />
    <path
       style="fill:none;stroke:#000000;stroke-width:0.8;stroke-linecap:butt;stroke-linejoin:round;stroke-miterlimit:10;stroke-opacity:1"
       d="m 418.46484,126.77344 v 3.5"
       id="path50" />
    <path
       style="fill:#000000;fill-opacity:1;fill-rule:nonzero;stroke:none"
       d="m 422.20703,144.51562 h -0.35937 c -0.20313,1.42188 -0.35938,1.65625 -0.4375,1.78125 -0.10938,0.15625 -1.54688,0.15625 -1.8125,0.15625 h -3.82813 c 0.71875,-0.78125 2.10938,-2.1875 3.79688,-3.82812 1.21875,-1.15625 2.64062,-2.5 2.64062,-4.48438 0,-2.34375 -1.875,-3.70312 -3.96875,-3.70312 -2.1875,0 -3.53125,1.9375 -3.53125,3.73437 0,0.76563 0.57813,0.875 0.82813,0.875 0.1875,0 0.79687,-0.125 0.79687,-0.82812 0,-0.60938 -0.53125,-0.79688 -0.79687,-0.79688 -0.125,0 -0.25,0.0312 -0.32813,0.0625 0.375,-1.6875 1.53125,-2.53125 2.75,-2.53125 1.73438,0 2.875,1.375 2.875,3.1875 0,1.73438 -1.01562,3.23438 -2.15625,4.53125 l -3.96875,4.48438 v 0.45312 h 7.01563 z m 0,0"
       id="path51" />
    <path
       style="fill:none;stroke:#000000;stroke-width:0.8;stroke-linecap:butt;stroke-linejoin:round;stroke-miterlimit:10;stroke-opacity:1"
       d="m 482.5,126.77344 v 3.5"
       id="path52" />
    <path
       style="fill:#000000;fill-opacity:1;fill-rule:nonzero;stroke:none"
       d="m 482.33594,140.84375 c 1.76562,0 2.54687,1.53125 2.54687,3.29687 0,2.39063 -1.28125,3.3125 -2.4375,3.3125 -1.04687,0 -2.76562,-0.51562 -3.29687,-2.0625 0.0937,0.0469 0.20312,0.0469 0.29687,0.0469 0.46875,0 0.82813,-0.3125 0.82813,-0.84375 0,-0.5625 -0.4375,-0.82813 -0.82813,-0.82813 -0.34375,0 -0.85937,0.15625 -0.85937,0.89063 0,1.84375 1.79687,3.26562 3.90625,3.26562 2.20312,0 3.90625,-1.73437 3.90625,-3.76562 0,-1.92188 -1.59375,-3.3125 -3.48438,-3.54688 1.51563,-0.3125 2.96875,-1.67187 2.96875,-3.48437 0,-1.54688 -1.57812,-2.6875 -3.375,-2.6875 -1.8125,0 -3.40625,1.125 -3.40625,2.71875 0,0.6875 0.51563,0.8125 0.78125,0.8125 0.42188,0 0.78125,-0.26563 0.78125,-0.78125 0,-0.51563 -0.35937,-0.78125 -0.78125,-0.78125 -0.0781,0 -0.1875,0 -0.26562,0.0469 0.57812,-1.3125 2.15625,-1.54687 2.85937,-1.54687 0.6875,0 2,0.32812 2,2.25 0,0.54687 -0.0781,1.54687 -0.75,2.42187 -0.59375,0.78125 -1.28125,0.8125 -1.9375,0.875 -0.0937,0 -0.54687,0.0469 -0.625,0.0469 -0.14062,0.0156 -0.21875,0.0312 -0.21875,0.17187 0,0.14063 0.0156,0.17188 0.40625,0.17188 z m 0,0"
       id="path53" />
    <g
       clip-path="url(#clip2)"
       clip-rule="nonzero"
       id="g54">
      <path
         style="fill:#000000;fill-opacity:1;fill-rule:nonzero;stroke:none"
         d="m 405.46875,164.27344 c 0,-1.92188 -1.09375,-3.73438 -3.20313,-3.73438 -2.60937,0 -5.21875,2.84375 -5.21875,5.67188 0,1.73437 1.07813,3.3125 3.10938,3.3125 1.23437,0 2.70312,-0.48438 4.125,-1.67188 0.28125,1.10938 0.89062,1.67188 1.75,1.67188 1.07812,0 1.60937,-1.125 1.60937,-1.375 0,-0.1875 -0.14062,-0.1875 -0.1875,-0.1875 -0.17187,0 -0.1875,0.0625 -0.25,0.21875 -0.17187,0.5 -0.64062,0.9375 -1.10937,0.9375 -0.625,0 -0.625,-1.26563 -0.625,-2.48438 2.03125,-2.4375 2.51562,-4.9375 2.51562,-4.96875 0,-0.17187 -0.15625,-0.17187 -0.21875,-0.17187 -0.1875,0 -0.20312,0.0625 -0.28125,0.42187 -0.25,0.875 -0.78125,2.42188 -2.01562,4.0625 z m -1.25,3.09375 c -1.75,1.57812 -3.32813,1.75 -4.03125,1.75 -1.40625,0 -1.8125,-1.25 -1.8125,-2.1875 0,-0.85938 0.4375,-2.89063 1.0625,-3.98438 0.8125,-1.39062 1.9375,-2.01562 2.82812,-2.01562 1.9375,0 1.9375,2.53125 1.9375,4.20312 0,0.5 -0.0312,1.01563 -0.0312,1.51563 0,0.40625 0.0312,0.5 0.0469,0.71875 z m 0,0"
         id="path54" />
    </g>
    <path
       style="fill:none;stroke:#000000;stroke-width:0.8;stroke-linecap:butt;stroke-linejoin:round;stroke-miterlimit:10;stroke-opacity:1"
       d="m 314.41016,98.050781 h -3.5"
       id="path55" />
    <path
       style="fill:#000000;fill-opacity:1;fill-rule:nonzero;stroke:none"
       d="m 289.01172,92.234375 c 0,-0.40625 -0.0156,-0.4375 -0.29688,-0.4375 -0.78125,0.9375 -1.95312,1.234375 -3.0625,1.28125 -0.0625,0 -0.17187,0 -0.1875,0.03125 -0.0156,0.04687 -0.0156,0.07813 -0.0156,0.5 0.60937,0 1.65625,-0.109375 2.45312,-0.59375 v 10.500005 c 0,0.70312 -0.0469,0.9375 -1.75,0.9375 h -0.60937 v 0.51562 c 0.95312,-0.0156 1.95312,-0.0469 2.90625,-0.0469 0.96875,0 1.95312,0.0312 2.92187,0.0469 v -0.51562 h -0.60937 c -1.70313,0 -1.75,-0.21875 -1.75,-0.9375 z m 0,0"
       id="path56" />
    <path
       style="fill:#000000;fill-opacity:1;fill-rule:nonzero;stroke:none"
       d="m 296.52344,104.01563 c 0,-0.57813 -0.48438,-0.98438 -0.96875,-0.98438 -0.57813,0 -0.96875,0.48438 -0.96875,0.96875 0,0.57813 0.48437,0.96875 0.95312,0.96875 0.57813,0 0.98438,-0.48437 0.98438,-0.95312 z m 0,0"
       id="path57" />
    <path
       style="fill:#000000;fill-opacity:1;fill-rule:nonzero;stroke:none"
       d="m 306.63281,98.578125 c 0,-1.21875 -0.0156,-3.296875 -0.84375,-4.890625 -0.75,-1.390625 -1.92187,-1.890625 -2.95312,-1.890625 -0.95313,0 -2.17188,0.4375 -2.92188,1.875 -0.79687,1.5 -0.89062,3.34375 -0.89062,4.90625 0,1.125 0.0312,2.859375 0.64062,4.375005 0.85938,2.0625 2.39063,2.32812 3.17188,2.32812 0.92187,0 2.3125,-0.375 3.125,-2.26562 0.59375,-1.375 0.67187,-2.98438 0.67187,-4.437505 z m -3.79687,6.390625 c -1.28125,0 -2.03125,-1.09375 -2.3125,-2.60937 -0.21875,-1.17188 -0.21875,-2.89063 -0.21875,-4.000005 0,-1.53125 0,-2.8125 0.26562,-4.03125 0.375,-1.6875 1.48438,-2.203125 2.26563,-2.203125 0.8125,0 1.875,0.53125 2.25,2.171875 0.26562,1.125 0.28125,2.46875 0.28125,4.0625 0,1.296875 0,2.890625 -0.23438,4.062505 -0.42187,2.17187 -1.59375,2.54687 -2.29687,2.54687 z m 0,0"
       id="path58" />
    <path
       style="fill:none;stroke:#000000;stroke-width:0.8;stroke-linecap:butt;stroke-linejoin:round;stroke-miterlimit:10;stroke-opacity:1"
       d="m 314.41016,21.460938 h -3.5"
       id="path59" />
    <path
       style="fill:#000000;fill-opacity:1;fill-rule:nonzero;stroke:none"
       d="m 289.01172,15.644531 c 0,-0.40625 -0.0156,-0.4375 -0.29688,-0.4375 -0.78125,0.9375 -1.95312,1.234375 -3.0625,1.28125 -0.0625,0 -0.17187,0 -0.1875,0.03125 -0.0156,0.04687 -0.0156,0.07813 -0.0156,0.5 0.60937,0 1.65625,-0.109375 2.45312,-0.59375 v 10.5 c 0,0.703125 -0.0469,0.9375 -1.75,0.9375 h -0.60937 v 0.515625 c 0.95312,-0.01563 1.95312,-0.04687 2.90625,-0.04687 0.96875,0 1.95312,0.03125 2.92187,0.04687 v -0.515625 h -0.60937 c -1.70313,0 -1.75,-0.21875 -1.75,-0.9375 z m 0,0"
       id="path60" />
    <path
       style="fill:#000000;fill-opacity:1;fill-rule:nonzero;stroke:none"
       d="m 296.52344,27.425781 c 0,-0.578125 -0.48438,-0.984375 -0.96875,-0.984375 -0.57813,0 -0.96875,0.484375 -0.96875,0.96875 0,0.578125 0.48437,0.96875 0.95312,0.96875 0.57813,0 0.98438,-0.484375 0.98438,-0.953125 z m 0,0"
       id="path61" />
    <path
       style="fill:#000000;fill-opacity:1;fill-rule:nonzero;stroke:none"
       d="m 300.53906,16.722656 c 0.20313,0.07813 1.01563,0.34375 1.85938,0.34375 1.84375,0 2.875,-1 3.4375,-1.578125 0,-0.15625 0,-0.25 -0.10938,-0.25 -0.0156,0 -0.0625,0 -0.21875,0.07813 -0.70312,0.296875 -1.51562,0.53125 -2.51562,0.53125 -0.59375,0 -1.48438,-0.07813 -2.46875,-0.515625 -0.21875,-0.09375 -0.26563,-0.09375 -0.28125,-0.09375 -0.0937,0 -0.10938,0.01563 -0.10938,0.40625 v 5.78125 c 0,0.359375 0,0.453125 0.1875,0.453125 0.10938,0 0.14063,-0.03125 0.25,-0.171875 0.625,-0.890625 1.51563,-1.28125 2.5,-1.28125 0.70313,0 2.20313,0.4375 2.20313,3.84375 0,0.640625 0,1.796875 -0.60938,2.71875 -0.5,0.8125 -1.26562,1.234375 -2.125,1.234375 -1.3125,0 -2.65625,-0.921875 -3.01562,-2.453125 0.0781,0.01563 0.25,0.0625 0.32812,0.0625 0.25,0 0.75,-0.140625 0.75,-0.765625 0,-0.53125 -0.375,-0.75 -0.75,-0.75 -0.46875,0 -0.76562,0.28125 -0.76562,0.828125 0,1.734375 1.375,3.546875 3.48437,3.546875 2.0625,0 4.01563,-1.765625 4.01563,-4.34375 0,-2.390625 -1.5625,-4.234375 -3.48438,-4.234375 -1.01562,0 -1.875,0.375 -2.5625,1.09375 z m 0,0"
       id="path62" />
    <path
       style="fill:#000000;fill-opacity:1;fill-rule:nonzero;stroke:none"
       d="m 274.23047,65.585938 c -0.98438,-0.859376 -1.59375,-1.546876 -2.5,-2.546876 -1.03125,-1.203124 -1.53125,-1.71875 -1.82813,-2 -1.375,-1.390624 -2.53125,-2.078124 -2.6875,-2.078124 -0.15625,0 -0.15625,0.15625 -0.15625,0.1875 0,0.140624 0.0781,0.1875 0.21875,0.28125 0.85938,0.5 1.26563,0.984374 1.26563,1.5 0,0.421874 -0.17188,0.640624 -0.65625,1.015624 -0.5,0.421876 -0.82813,0.75 -0.82813,1.328126 0,1.453124 1.8125,2.328124 2.23438,2.328124 0.0469,0 0.17187,-0.01562 0.17187,-0.1875 0,-0.171874 -0.0781,-0.1875 -0.21875,-0.25 -0.79687,-0.328124 -0.9375,-1.296874 -0.9375,-1.671874 0,-0.421876 0.14063,-0.8125 0.3125,-1.234376 0.32813,-0.75 0.32813,-1.078124 0.32813,-1.265624 0,-0.140626 0,-0.21875 -0.0156,-0.328126 0.76563,0.65625 1.73438,1.734376 2.54688,2.625 l 1.84375,2.015626 c 1.23437,1.21875 2.42187,1.953124 2.5625,1.953124 0.10937,0 0.15625,-0.09375 0.15625,-0.21875 0,-0.109374 -0.0312,-0.140624 -0.26563,-0.28125 -0.5,-0.3125 -1.23437,-0.953124 -1.23437,-1.6875 0,-0.421874 0.14062,-0.625 0.64062,-1.015624 0.4375,-0.375 0.85938,-0.71875 0.85938,-1.359376 0,-1.953124 -2.53125,-3.0625 -2.98438,-3.0625 -0.0937,0 -0.20312,0.01563 -0.20312,0.21875 0,0.15625 0.0781,0.171876 0.28125,0.234376 1.17187,0.4375 1.64062,1.609374 1.64062,2.390624 0,0.421876 -0.125,0.8125 -0.3125,1.234376 -0.3125,0.796874 -0.3125,1.015624 -0.3125,1.28125 0,0.203124 0,0.421874 0.0781,0.59375 z m 0,0"
       id="path63" />
    <path
       style="fill:none;stroke:#ffffff;stroke-width:5;stroke-linecap:square;stroke-linejoin:round;stroke-miterlimit:10;stroke-opacity:1"
       d="M 370.44141,105.71094 386.44922,82.730469"
       id="path64" />
    <path
       style="fill:#ffffff;fill-opacity:1;fill-rule:nonzero;stroke:#ffffff;stroke-width:1;stroke-linecap:butt;stroke-linejoin:round;stroke-miterlimit:10;stroke-opacity:1"
       d="m 370.44141,110.71094 c 1.32421,0 2.59765,-0.52735 3.53515,-1.46485 0.9375,-0.9375 1.46485,-2.21093 1.46485,-3.53515 0,-1.32813 -0.52735,-2.60156 -1.46485,-3.53906 -0.9375,-0.9375 -2.21094,-1.46094 -3.53515,-1.46094 -1.32813,0 -2.59766,0.52344 -3.53516,1.46094 -0.94141,0.9375 -1.46484,2.21093 -1.46484,3.53906 0,1.32422 0.52343,2.59765 1.46484,3.53515 0.9375,0.9375 2.20703,1.46485 3.53516,1.46485 z m 0,0"
       id="path65" />
    <path
       style="fill:#ffffff;fill-opacity:1;fill-rule:nonzero;stroke:#ffffff;stroke-width:1;stroke-linecap:butt;stroke-linejoin:round;stroke-miterlimit:10;stroke-opacity:1"
       d="m 386.44922,87.730469 c 1.32422,0 2.59765,-0.523438 3.53515,-1.464844 0.9375,-0.9375 1.46485,-2.207031 1.46485,-3.535156 0,-1.324219 -0.52735,-2.597657 -1.46485,-3.535157 -0.9375,-0.9375 -2.21093,-1.464843 -3.53515,-1.464843 -1.32813,0 -2.59766,0.527343 -3.53516,1.464843 -0.9375,0.9375 -1.46484,2.210938 -1.46484,3.535157 0,1.328125 0.52734,2.597656 1.46484,3.535156 0.9375,0.941406 2.20703,1.464844 3.53516,1.464844 z m 0,0"
       id="path66" />
    <path
       style="fill:none;stroke:#a12e4a;stroke-width:1.5;stroke-linecap:square;stroke-linejoin:round;stroke-miterlimit:10;stroke-opacity:1"
       d="m 322.41406,113.36719 48.02735,-7.65625 16.00781,-22.980471 16.00781,-30.636719 16.00781,-38.292969 H 482.5"
       id="path67" />
    <path
       style="fill:#a12e4a;fill-opacity:1;fill-rule:nonzero;stroke:#a12e4a;stroke-width:1;stroke-linecap:butt;stroke-linejoin:round;stroke-miterlimit:10;stroke-opacity:1"
       d="m 322.41406,116.36719 c 0.79688,0 1.5586,-0.31641 2.1211,-0.87891 0.5625,-0.5625 0.8789,-1.32422 0.8789,-2.12109 0,-0.79297 -0.3164,-1.5586 -0.8789,-2.1211 -0.5625,-0.5625 -1.32422,-0.8789 -2.1211,-0.8789 -0.79297,0 -1.55859,0.3164 -2.12109,0.8789 -0.5625,0.5625 -0.87891,1.32813 -0.87891,2.1211 0,0.79687 0.31641,1.55859 0.87891,2.12109 0.5625,0.5625 1.32812,0.87891 2.12109,0.87891 z m 0,0"
       id="path68" />
    <path
       style="fill:#a12e4a;fill-opacity:1;fill-rule:nonzero;stroke:#a12e4a;stroke-width:1;stroke-linecap:butt;stroke-linejoin:round;stroke-miterlimit:10;stroke-opacity:1"
       d="m 370.44141,108.71094 c 0.79296,0 1.55859,-0.31641 2.12109,-0.87891 0.5625,-0.5625 0.87891,-1.32812 0.87891,-2.12109 0,-0.79688 -0.31641,-1.5586 -0.87891,-2.125 -0.5625,-0.5625 -1.32813,-0.875 -2.12109,-0.875 -0.79688,0 -1.5586,0.3125 -2.1211,0.875 -0.5625,0.5664 -0.8789,1.32812 -0.8789,2.125 0,0.79297 0.3164,1.55859 0.8789,2.12109 0.5625,0.5625 1.32422,0.87891 2.1211,0.87891 z m 0,0"
       id="path69" />
    <path
       style="fill:#a12e4a;fill-opacity:1;fill-rule:nonzero;stroke:#a12e4a;stroke-width:1;stroke-linecap:butt;stroke-linejoin:round;stroke-miterlimit:10;stroke-opacity:1"
       d="m 386.44922,85.730469 c 0.79297,0 1.55859,-0.316407 2.12109,-0.878907 0.5625,-0.5625 0.87891,-1.324218 0.87891,-2.121093 0,-0.792969 -0.31641,-1.558594 -0.87891,-2.121094 -0.5625,-0.5625 -1.32812,-0.878906 -2.12109,-0.878906 -0.79688,0 -1.5586,0.316406 -2.1211,0.878906 -0.5625,0.5625 -0.8789,1.328125 -0.8789,2.121094 0,0.796875 0.3164,1.558593 0.8789,2.121093 0.5625,0.5625 1.32422,0.878907 2.1211,0.878907 z m 0,0"
       id="path70" />
    <path
       style="fill:#a12e4a;fill-opacity:1;fill-rule:nonzero;stroke:#a12e4a;stroke-width:1;stroke-linecap:butt;stroke-linejoin:round;stroke-miterlimit:10;stroke-opacity:1"
       d="m 402.45703,55.09375 c 0.79688,0 1.55859,-0.3125 2.12109,-0.875 0.5625,-0.5625 0.87891,-1.328125 0.87891,-2.125 0,-0.792969 -0.31641,-1.558594 -0.87891,-2.121094 -0.5625,-0.5625 -1.32421,-0.878906 -2.12109,-0.878906 -0.79687,0 -1.55859,0.316406 -2.12109,0.878906 -0.5625,0.5625 -0.87891,1.328125 -0.87891,2.121094 0,0.796875 0.31641,1.5625 0.87891,2.125 0.5625,0.5625 1.32422,0.875 2.12109,0.875 z m 0,0"
       id="path71" />
    <path
       style="fill:#a12e4a;fill-opacity:1;fill-rule:nonzero;stroke:#a12e4a;stroke-width:1;stroke-linecap:butt;stroke-linejoin:round;stroke-miterlimit:10;stroke-opacity:1"
       d="m 418.46484,16.800781 c 0.79688,0 1.5586,-0.316406 2.1211,-0.878906 0.5625,-0.5625 0.8789,-1.324219 0.8789,-2.121094 0,-0.796875 -0.3164,-1.558593 -0.8789,-2.121093 -0.5625,-0.5625 -1.32422,-0.878907 -2.1211,-0.878907 -0.79687,0 -1.55859,0.316407 -2.12109,0.878907 -0.5625,0.5625 -0.87891,1.324218 -0.87891,2.121093 0,0.796875 0.31641,1.558594 0.87891,2.121094 0.5625,0.5625 1.32422,0.878906 2.12109,0.878906 z m 0,0"
       id="path72" />
    <path
       style="fill:#a12e4a;fill-opacity:1;fill-rule:nonzero;stroke:#a12e4a;stroke-width:1;stroke-linecap:butt;stroke-linejoin:round;stroke-miterlimit:10;stroke-opacity:1"
       d="m 482.5,16.800781 c 0.79297,0 1.55859,-0.316406 2.12109,-0.878906 0.5625,-0.5625 0.87891,-1.324219 0.87891,-2.121094 0,-0.796875 -0.31641,-1.558593 -0.87891,-2.121093 -0.5625,-0.5625 -1.32812,-0.878907 -2.12109,-0.878907 -0.79688,0 -1.5625,0.316407 -2.125,0.878907 -0.5625,0.5625 -0.875,1.324218 -0.875,2.121093 0,0.796875 0.3125,1.558594 0.875,2.121094 0.5625,0.5625 1.32812,0.878906 2.125,0.878906 z m 0,0"
       id="path73" />
    <path
       style="fill:none;stroke:#000000;stroke-width:0.8;stroke-linecap:square;stroke-linejoin:miter;stroke-miterlimit:10;stroke-opacity:1"
       d="M 314.41016,126.77344 V 0.398438"
       id="path74" />
    <path
       style="fill:none;stroke:#000000;stroke-width:0.8;stroke-linecap:square;stroke-linejoin:miter;stroke-miterlimit:10;stroke-opacity:1"
       d="M 490.50391,126.77344 V 0.398438"
       id="path75" />
    <path
       style="fill:none;stroke:#000000;stroke-width:0.8;stroke-linecap:square;stroke-linejoin:miter;stroke-miterlimit:10;stroke-opacity:1"
       d="M 314.41016,126.77344 H 490.50391"
       id="path76" />
    <path
       style="fill:none;stroke:#000000;stroke-width:0.8;stroke-linecap:square;stroke-linejoin:miter;stroke-miterlimit:10;stroke-opacity:1"
       d="M 314.41016,0.398438 H 490.50391"
       id="path77" />
    <path
       style="fill:#ffffff;fill-opacity:1;fill-rule:nonzero;stroke:none"
       d="M 573.64844,0.398438 H 749.73828 V 126.77344 H 573.64844 Z m 0,0"
       id="path78" />
    <path
       style="fill:none;stroke:#000000;stroke-width:1.5;stroke-linecap:butt;stroke-linejoin:round;stroke-miterlimit:10;stroke-dasharray:5.55, 2.4;stroke-opacity:1"
       d="M 581.65234,22.554688 H 741.73437"
       id="path79" />
    <path
       style="fill:#eea6c5;fill-opacity:1;fill-rule:nonzero;stroke:#eea6c5;stroke-width:1;stroke-linecap:butt;stroke-linejoin:round;stroke-miterlimit:10;stroke-opacity:1"
       d="m 581.65234,88.203125 v 32.824215 l 48.02344,-41.031246 16.01172,-41.03125 h 96.04687 V 6.140625 H 645.6875 l -16.01172,41.03125 z m 0,0"
       id="path80" />
    <path
       style="fill:none;stroke:#000000;stroke-width:0.8;stroke-linecap:butt;stroke-linejoin:round;stroke-miterlimit:10;stroke-opacity:1"
       d="m 613.66797,126.77344 v 3.5"
       id="path81" />
    <path
       style="fill:#000000;fill-opacity:1;fill-rule:nonzero;stroke:none"
       d="m 614.39844,134.875 c 0,-0.40625 -0.0156,-0.4375 -0.29688,-0.4375 -0.78125,0.9375 -1.95312,1.23437 -3.0625,1.28125 -0.0625,0 -0.17187,0 -0.1875,0.0312 -0.0156,0.0469 -0.0156,0.0781 -0.0156,0.5 0.60937,0 1.65625,-0.10938 2.45312,-0.59375 v 10.5 c 0,0.70312 -0.0469,0.9375 -1.75,0.9375 h -0.60937 v 0.51562 c 0.95312,-0.0156 1.95312,-0.0469 2.90625,-0.0469 0.96875,0 1.95312,0.0312 2.92187,0.0469 v -0.51562 h -0.60937 c -1.70313,0 -1.75,-0.21875 -1.75,-0.9375 z m 0,0"
       id="path82" />
    <path
       style="fill:none;stroke:#000000;stroke-width:0.8;stroke-linecap:butt;stroke-linejoin:round;stroke-miterlimit:10;stroke-opacity:1"
       d="m 677.70312,126.77344 v 3.5"
       id="path83" />
    <path
       style="fill:#000000;fill-opacity:1;fill-rule:nonzero;stroke:none"
       d="m 681.44531,144.51562 h -0.35937 c -0.20313,1.42188 -0.35938,1.65625 -0.4375,1.78125 -0.10938,0.15625 -1.54688,0.15625 -1.8125,0.15625 h -3.82813 c 0.71875,-0.78125 2.10938,-2.1875 3.79688,-3.82812 1.21875,-1.15625 2.64062,-2.5 2.64062,-4.48438 0,-2.34375 -1.875,-3.70312 -3.96875,-3.70312 -2.1875,0 -3.53125,1.9375 -3.53125,3.73437 0,0.76563 0.57813,0.875 0.82813,0.875 0.1875,0 0.79687,-0.125 0.79687,-0.82812 0,-0.60938 -0.53125,-0.79688 -0.79687,-0.79688 -0.125,0 -0.25,0.0312 -0.32813,0.0625 0.375,-1.6875 1.53125,-2.53125 2.75,-2.53125 1.73438,0 2.875,1.375 2.875,3.1875 0,1.73438 -1.01562,3.23438 -2.15625,4.53125 l -3.96875,4.48438 v 0.45312 h 7.01563 z m 0,0"
       id="path84" />
    <path
       style="fill:none;stroke:#000000;stroke-width:0.8;stroke-linecap:butt;stroke-linejoin:round;stroke-miterlimit:10;stroke-opacity:1"
       d="m 741.73437,126.77344 v 3.5"
       id="path85" />
    <path
       style="fill:#000000;fill-opacity:1;fill-rule:nonzero;stroke:none"
       d="m 741.57422,140.84375 c 1.76562,0 2.54687,1.53125 2.54687,3.29687 0,2.39063 -1.28125,3.3125 -2.4375,3.3125 -1.04687,0 -2.76562,-0.51562 -3.29687,-2.0625 0.0937,0.0469 0.20312,0.0469 0.29687,0.0469 0.46875,0 0.82813,-0.3125 0.82813,-0.84375 0,-0.5625 -0.4375,-0.82813 -0.82813,-0.82813 -0.34375,0 -0.85937,0.15625 -0.85937,0.89063 0,1.84375 1.79687,3.26562 3.90625,3.26562 2.20312,0 3.90625,-1.73437 3.90625,-3.76562 0,-1.92188 -1.59375,-3.3125 -3.48438,-3.54688 1.51563,-0.3125 2.96875,-1.67187 2.96875,-3.48437 0,-1.54688 -1.57812,-2.6875 -3.375,-2.6875 -1.8125,0 -3.40625,1.125 -3.40625,2.71875 0,0.6875 0.51563,0.8125 0.78125,0.8125 0.42188,0 0.78125,-0.26563 0.78125,-0.78125 0,-0.51563 -0.35937,-0.78125 -0.78125,-0.78125 -0.0781,0 -0.1875,0 -0.26562,0.0469 0.57812,-1.3125 2.15625,-1.54687 2.85937,-1.54687 0.6875,0 2,0.32812 2,2.25 0,0.54687 -0.0781,1.54687 -0.75,2.42187 -0.59375,0.78125 -1.28125,0.8125 -1.9375,0.875 -0.0937,0 -0.54687,0.0469 -0.625,0.0469 -0.14062,0.0156 -0.21875,0.0312 -0.21875,0.17187 0,0.14063 0.0156,0.17188 0.40625,0.17188 z m 0,0"
       id="path86" />
    <g
       clip-path="url(#clip3)"
       clip-rule="nonzero"
       id="g87">
      <path
         style="fill:#000000;fill-opacity:1;fill-rule:nonzero;stroke:none"
         d="m 664.70703,164.27344 c 0,-1.92188 -1.09375,-3.73438 -3.20312,-3.73438 -2.60938,0 -5.21875,2.84375 -5.21875,5.67188 0,1.73437 1.07812,3.3125 3.10937,3.3125 1.23438,0 2.70313,-0.48438 4.125,-1.67188 0.28125,1.10938 0.89063,1.67188 1.75,1.67188 1.07813,0 1.60938,-1.125 1.60938,-1.375 0,-0.1875 -0.14063,-0.1875 -0.1875,-0.1875 -0.17188,0 -0.1875,0.0625 -0.25,0.21875 -0.17188,0.5 -0.64063,0.9375 -1.10938,0.9375 -0.625,0 -0.625,-1.26563 -0.625,-2.48438 2.03125,-2.4375 2.51563,-4.9375 2.51563,-4.96875 0,-0.17187 -0.15625,-0.17187 -0.21875,-0.17187 -0.1875,0 -0.20313,0.0625 -0.28125,0.42187 -0.25,0.875 -0.78125,2.42188 -2.01563,4.0625 z m -1.25,3.09375 c -1.75,1.57812 -3.32812,1.75 -4.03125,1.75 -1.40625,0 -1.8125,-1.25 -1.8125,-2.1875 0,-0.85938 0.4375,-2.89063 1.0625,-3.98438 0.8125,-1.39062 1.9375,-2.01562 2.82813,-2.01562 1.9375,0 1.9375,2.53125 1.9375,4.20312 0,0.5 -0.0312,1.01563 -0.0312,1.51563 0,0.40625 0.0312,0.5 0.0469,0.71875 z m 0,0"
         id="path87" />
    </g>
    <path
       style="fill:none;stroke:#000000;stroke-width:0.8;stroke-linecap:butt;stroke-linejoin:round;stroke-miterlimit:10;stroke-opacity:1"
       d="m 573.64844,104.61328 h -3.5"
       id="path88" />
    <path
       style="fill:#000000;fill-opacity:1;fill-rule:nonzero;stroke:none"
       d="m 548.25,98.800781 c 0,-0.40625 -0.0156,-0.4375 -0.29688,-0.4375 -0.78125,0.9375 -1.95312,1.234375 -3.0625,1.28125 -0.0625,0 -0.17187,0 -0.1875,0.03125 -0.0156,0.04687 -0.0156,0.07813 -0.0156,0.499999 0.60937,0 1.65625,-0.10937 2.45312,-0.593749 v 10.499999 c 0,0.70313 -0.0469,0.9375 -1.75,0.9375 h -0.60937 v 0.51563 c 0.95312,-0.0156 1.95312,-0.0469 2.90625,-0.0469 0.96875,0 1.95312,0.0312 2.92187,0.0469 v -0.51563 H 550 c -1.70313,0 -1.75,-0.21875 -1.75,-0.9375 z m 0,0"
       id="path89" />
    <path
       style="fill:#000000;fill-opacity:1;fill-rule:nonzero;stroke:none"
       d="m 555.76172,110.58203 c 0,-0.57812 -0.48438,-0.98437 -0.96875,-0.98437 -0.57813,0 -0.96875,0.48437 -0.96875,0.96875 0,0.57812 0.48437,0.96875 0.95312,0.96875 0.57813,0 0.98438,-0.48438 0.98438,-0.95313 z m 0,0"
       id="path90" />
    <path
       style="fill:#000000;fill-opacity:1;fill-rule:nonzero;stroke:none"
       d="m 559.77734,99.878906 c 0.20313,0.07813 1.01563,0.343754 1.85938,0.343754 1.84375,0 2.875,-1.000004 3.4375,-1.578129 0,-0.15625 0,-0.25 -0.10938,-0.25 -0.0156,0 -0.0625,0 -0.21875,0.07813 -0.70312,0.296875 -1.51562,0.53125 -2.51562,0.53125 -0.59375,0 -1.48438,-0.07813 -2.46875,-0.515625 -0.21875,-0.09375 -0.26563,-0.09375 -0.28125,-0.09375 -0.0937,0 -0.10938,0.01563 -0.10938,0.40625 v 5.781254 c 0,0.35938 0,0.45313 0.1875,0.45313 0.10938,0 0.14063,-0.0312 0.25,-0.17188 0.625,-0.89062 1.51563,-1.28125 2.5,-1.28125 0.70313,0 2.20313,0.4375 2.20313,3.84375 0,0.64063 0,1.79688 -0.60938,2.71875 -0.5,0.8125 -1.26562,1.23438 -2.125,1.23438 -1.3125,0 -2.65625,-0.92188 -3.01562,-2.45313 0.0781,0.0156 0.25,0.0625 0.32812,0.0625 0.25,0 0.75,-0.14062 0.75,-0.76562 0,-0.53125 -0.375,-0.75 -0.75,-0.75 -0.46875,0 -0.76562,0.28125 -0.76562,0.82812 0,1.73438 1.375,3.54688 3.48437,3.54688 2.0625,0 4.01563,-1.76563 4.01563,-4.34375 0,-2.39063 -1.5625,-4.23438 -3.48438,-4.23438 -1.01562,0 -1.875,0.375 -2.5625,1.09375 z m 0,0"
       id="path91" />
    <path
       style="fill:none;stroke:#000000;stroke-width:0.8;stroke-linecap:butt;stroke-linejoin:round;stroke-miterlimit:10;stroke-opacity:1"
       d="m 573.64844,22.554688 h -3.5"
       id="path92" />
    <path
       style="fill:#000000;fill-opacity:1;fill-rule:nonzero;stroke:none"
       d="m 551.26562,26.378906 h -0.35937 c -0.20313,1.421875 -0.35938,1.65625 -0.4375,1.78125 -0.10938,0.15625 -1.54688,0.15625 -1.8125,0.15625 h -3.82813 c 0.71875,-0.78125 2.10938,-2.1875 3.79688,-3.828125 1.21875,-1.15625 2.64062,-2.5 2.64062,-4.484375 0,-2.34375 -1.875,-3.703125 -3.96875,-3.703125 -2.1875,0 -3.53125,1.9375 -3.53125,3.734375 0,0.765625 0.57813,0.875 0.82813,0.875 0.1875,0 0.79687,-0.125 0.79687,-0.828125 0,-0.609375 -0.53125,-0.796875 -0.79687,-0.796875 -0.125,0 -0.25,0.03125 -0.32813,0.0625 0.375,-1.6875 1.53125,-2.53125 2.75,-2.53125 1.73438,0 2.875,1.375 2.875,3.1875 0,1.734375 -1.01562,3.234375 -2.15625,4.53125 l -3.96875,4.484375 v 0.453125 h 7.01563 z m 0,0"
       id="path93" />
    <path
       style="fill:#000000;fill-opacity:1;fill-rule:nonzero;stroke:none"
       d="m 555.76172,28.519531 c 0,-0.578125 -0.48438,-0.984375 -0.96875,-0.984375 -0.57813,0 -0.96875,0.484375 -0.96875,0.96875 0,0.578125 0.48437,0.96875 0.95312,0.96875 0.57813,0 0.98438,-0.484375 0.98438,-0.953125 z m 0,0"
       id="path94" />
    <path
       style="fill:#000000;fill-opacity:1;fill-rule:nonzero;stroke:none"
       d="m 565.87109,23.082031 c 0,-1.21875 -0.0156,-3.296875 -0.84375,-4.890625 -0.75,-1.390625 -1.92187,-1.890625 -2.95312,-1.890625 -0.95313,0 -2.17188,0.4375 -2.92188,1.875 -0.79687,1.5 -0.89062,3.34375 -0.89062,4.90625 0,1.125 0.0312,2.859375 0.64062,4.375 0.85938,2.0625 2.39063,2.328125 3.17188,2.328125 0.92187,0 2.3125,-0.375 3.125,-2.265625 0.59375,-1.375 0.67187,-2.984375 0.67187,-4.4375 z m -3.79687,6.390625 c -1.28125,0 -2.03125,-1.09375 -2.3125,-2.609375 -0.21875,-1.171875 -0.21875,-2.890625 -0.21875,-4 0,-1.53125 0,-2.8125 0.26562,-4.03125 0.375,-1.6875 1.48438,-2.203125 2.26563,-2.203125 0.8125,0 1.875,0.53125 2.25,2.171875 0.26562,1.125 0.28125,2.46875 0.28125,4.0625 0,1.296875 0,2.890625 -0.23438,4.0625 -0.42187,2.171875 -1.59375,2.546875 -2.29687,2.546875 z m 0,0"
       id="path95" />
    <path
       style="fill:#000000;fill-opacity:1;fill-rule:nonzero;stroke:none"
       d="M 534.10937,64.078125 C 533.64062,65.25 532.75,65.9375 531.25,65.9375 c -2.71875,0 -6.375,-2.015625 -7.78125,-4.46875 0.32812,-0.359375 0.32812,-0.8125 0.32812,-1.1875 0,-0.5 0,-1.71875 -0.57812,-1.71875 -0.46875,0 -0.48438,0.890625 -0.48438,1.53125 0,0.40625 0,0.734375 0.21875,1.25 -0.26562,0.125 -0.54687,0.1875 -0.84375,0.1875 -0.35937,0 -0.64062,-0.07813 -0.70312,-0.07813 -0.10938,0 -0.1875,0.09375 -0.1875,0.1875 0,0.328125 0.73437,0.328125 0.89062,0.328125 0.17188,0 0.59375,0 1.01563,-0.234375 1.20312,2.296875 4.92187,5.21875 8.64062,5.21875 2.73438,0 3.375,-1.8125 3.73438,-2.859375 0.0781,-0.25 0.29687,-0.890625 0.39062,-1.15625 0.28125,-0.8125 0.54688,-1.59375 1.5,-1.59375 0.57813,0 1.35938,0.421875 1.35938,1.15625 0,0.40625 -0.14063,0.9375 -0.64063,1.4375 -0.0781,0.07813 -0.125,0.125 -0.125,0.21875 0,0.15625 0.15625,0.203125 0.20313,0.203125 0.20312,0 0.95312,-0.859375 0.95312,-1.859375 0,-1.265625 -1.32812,-2.140625 -2.375,-2.140625 -1.39062,0 -1.78125,1.15625 -2.03125,1.890625 z M 523.26562,61.03125 C 523.125,60.734375 523.125,60.453125 523.125,60.109375 c 0,-0.625 0.0156,-0.6875 0.125,-1.09375 0.0937,0.234375 0.15625,0.40625 0.15625,1.234375 0,0.421875 0,0.5625 -0.14063,0.78125 z m 0,0"
       id="path96" />
    <path
       style="fill:none;stroke:#ffffff;stroke-width:5;stroke-linecap:square;stroke-linejoin:round;stroke-miterlimit:10;stroke-opacity:1"
       d="M 629.67578,63.585938 645.6875,22.554688"
       id="path97" />
    <path
       style="fill:#ffffff;fill-opacity:1;fill-rule:nonzero;stroke:#ffffff;stroke-width:1;stroke-linecap:butt;stroke-linejoin:round;stroke-miterlimit:10;stroke-opacity:1"
       d="m 629.67578,68.585938 c 1.32813,0 2.60156,-0.527344 3.53906,-1.464844 0.9375,-0.9375 1.46094,-2.210938 1.46094,-3.535156 0,-1.328126 -0.52344,-2.597657 -1.46094,-3.539063 -0.9375,-0.9375 -2.21093,-1.460937 -3.53906,-1.460937 -1.32422,0 -2.59766,0.523437 -3.53516,1.460937 -0.9375,0.941406 -1.46484,2.210937 -1.46484,3.539063 0,1.324218 0.52734,2.597656 1.46484,3.535156 0.9375,0.9375 2.21094,1.464844 3.53516,1.464844 z m 0,0"
       id="path98" />
    <path
       style="fill:#ffffff;fill-opacity:1;fill-rule:nonzero;stroke:#ffffff;stroke-width:1;stroke-linecap:butt;stroke-linejoin:round;stroke-miterlimit:10;stroke-opacity:1"
       d="m 645.6875,27.554688 c 1.32422,0 2.59766,-0.527344 3.53516,-1.464844 0.9375,-0.9375 1.46484,-2.210938 1.46484,-3.535156 0,-1.328126 -0.52734,-2.597657 -1.46484,-3.535157 -0.9375,-0.9375 -2.21094,-1.464843 -3.53516,-1.464843 -1.32813,0 -2.59766,0.527343 -3.53906,1.464843 -0.9375,0.9375 -1.46094,2.207031 -1.46094,3.535157 0,1.324218 0.52344,2.597656 1.46094,3.535156 0.9414,0.9375 2.21093,1.464844 3.53906,1.464844 z m 0,0"
       id="path99" />
    <path
       style="fill:none;stroke:#a12e4a;stroke-width:1.5;stroke-linecap:square;stroke-linejoin:round;stroke-miterlimit:10;stroke-opacity:1"
       d="m 581.65234,104.61328 48.02344,-41.027342 16.01172,-41.03125 h 96.04687"
       id="path100" />
    <path
       style="fill:#a12e4a;fill-opacity:1;fill-rule:nonzero;stroke:#a12e4a;stroke-width:1;stroke-linecap:butt;stroke-linejoin:round;stroke-miterlimit:10;stroke-opacity:1"
       d="m 581.65234,107.61328 c 0.79688,0 1.5586,-0.3125 2.1211,-0.8789 0.5625,-0.5625 0.8789,-1.32422 0.8789,-2.1211 0,-0.79297 -0.3164,-1.55859 -0.8789,-2.12109 -0.5625,-0.5625 -1.32422,-0.87891 -2.1211,-0.87891 -0.79687,0 -1.55859,0.31641 -2.12109,0.87891 -0.5625,0.5625 -0.87891,1.32812 -0.87891,2.12109 0,0.79688 0.31641,1.5586 0.87891,2.1211 0.5625,0.5664 1.32422,0.8789 2.12109,0.8789 z m 0,0"
       id="path101" />
    <path
       style="fill:#a12e4a;fill-opacity:1;fill-rule:nonzero;stroke:#a12e4a;stroke-width:1;stroke-linecap:butt;stroke-linejoin:round;stroke-miterlimit:10;stroke-opacity:1"
       d="m 629.67578,66.585938 c 0.79688,0 1.5625,-0.316407 2.125,-0.878907 0.5625,-0.5625 0.875,-1.328125 0.875,-2.121093 0,-0.796876 -0.3125,-1.558594 -0.875,-2.121094 -0.5625,-0.566406 -1.32812,-0.878906 -2.125,-0.878906 -0.79297,0 -1.55859,0.3125 -2.12109,0.878906 -0.5625,0.5625 -0.87891,1.324218 -0.87891,2.121094 0,0.792968 0.31641,1.558593 0.87891,2.121093 0.5625,0.5625 1.32812,0.878907 2.12109,0.878907 z m 0,0"
       id="path102" />
    <path
       style="fill:#a12e4a;fill-opacity:1;fill-rule:nonzero;stroke:#a12e4a;stroke-width:1;stroke-linecap:butt;stroke-linejoin:round;stroke-miterlimit:10;stroke-opacity:1"
       d="m 645.6875,25.554688 c 0.79297,0 1.55859,-0.316407 2.12109,-0.878907 0.5625,-0.5625 0.87891,-1.328125 0.87891,-2.121093 0,-0.796876 -0.31641,-1.558594 -0.87891,-2.121094 -0.5625,-0.5625 -1.32812,-0.878906 -2.12109,-0.878906 -0.79688,0 -1.55859,0.316406 -2.12109,0.878906 -0.5625,0.5625 -0.87891,1.324218 -0.87891,2.121094 0,0.792968 0.31641,1.558593 0.87891,2.121093 0.5625,0.5625 1.32421,0.878907 2.12109,0.878907 z m 0,0"
       id="path103" />
    <path
       style="fill:#a12e4a;fill-opacity:1;fill-rule:nonzero;stroke:#a12e4a;stroke-width:1;stroke-linecap:butt;stroke-linejoin:round;stroke-miterlimit:10;stroke-opacity:1"
       d="m 661.69531,25.554688 c 0.79297,0 1.5586,-0.316407 2.1211,-0.878907 0.5625,-0.5625 0.8789,-1.328125 0.8789,-2.121093 0,-0.796876 -0.3164,-1.558594 -0.8789,-2.121094 -0.5625,-0.5625 -1.32813,-0.878906 -2.1211,-0.878906 -0.79687,0 -1.55859,0.316406 -2.12109,0.878906 -0.5625,0.5625 -0.87891,1.324218 -0.87891,2.121094 0,0.792968 0.31641,1.558593 0.87891,2.121093 0.5625,0.5625 1.32422,0.878907 2.12109,0.878907 z m 0,0"
       id="path104" />
    <path
       style="fill:#a12e4a;fill-opacity:1;fill-rule:nonzero;stroke:#a12e4a;stroke-width:1;stroke-linecap:butt;stroke-linejoin:round;stroke-miterlimit:10;stroke-opacity:1"
       d="m 677.70312,25.554688 c 0.79688,0 1.5586,-0.316407 2.1211,-0.878907 0.5625,-0.5625 0.8789,-1.328125 0.8789,-2.121093 0,-0.796876 -0.3164,-1.558594 -0.8789,-2.121094 -0.5625,-0.5625 -1.32422,-0.878906 -2.1211,-0.878906 -0.79687,0 -1.55859,0.316406 -2.12109,0.878906 -0.5625,0.5625 -0.87891,1.324218 -0.87891,2.121094 0,0.792968 0.31641,1.558593 0.87891,2.121093 0.5625,0.5625 1.32422,0.878907 2.12109,0.878907 z m 0,0"
       id="path105" />
    <path
       style="fill:#a12e4a;fill-opacity:1;fill-rule:nonzero;stroke:#a12e4a;stroke-width:1;stroke-linecap:butt;stroke-linejoin:round;stroke-miterlimit:10;stroke-opacity:1"
       d="m 741.73437,25.554688 c 0.79688,0 1.5586,-0.316407 2.1211,-0.878907 0.5625,-0.5625 0.8789,-1.328125 0.8789,-2.121093 0,-0.796876 -0.3164,-1.558594 -0.8789,-2.121094 -0.5625,-0.5625 -1.32422,-0.878906 -2.1211,-0.878906 -0.79296,0 -1.55859,0.316406 -2.12109,0.878906 -0.5625,0.5625 -0.87891,1.324218 -0.87891,2.121094 0,0.792968 0.31641,1.558593 0.87891,2.121093 0.5625,0.5625 1.32813,0.878907 2.12109,0.878907 z m 0,0"
       id="path106" />
    <path
       style="fill:none;stroke:#000000;stroke-width:0.8;stroke-linecap:square;stroke-linejoin:miter;stroke-miterlimit:10;stroke-opacity:1"
       d="M 573.64844,126.77344 V 0.398438"
       id="path107" />
    <g
       clip-path="url(#clip4)"
       clip-rule="nonzero"
       id="g108">
      <path
         style="fill:none;stroke:#000000;stroke-width:0.8;stroke-linecap:square;stroke-linejoin:miter;stroke-miterlimit:10;stroke-opacity:1"
         d="M 749.73828,126.77344 V 0.398438"
         id="path108" />
    </g>
    <g
       clip-path="url(#clip5)"
       clip-rule="nonzero"
       id="g109">
      <path
         style="fill:none;stroke:#000000;stroke-width:0.8;stroke-linecap:square;stroke-linejoin:miter;stroke-miterlimit:10;stroke-opacity:1"
         d="M 573.64844,126.77344 H 749.73828"
         id="path109" />
    </g>
    <g
       clip-path="url(#clip6)"
       clip-rule="nonzero"
       id="g110">
      <path
         style="fill:none;stroke:#000000;stroke-width:0.8;stroke-linecap:square;stroke-linejoin:miter;stroke-miterlimit:10;stroke-opacity:1"
         d="M 573.64844,0.398438 H 749.73828"
         id="path110" />
    </g>
    <path
       style="fill:#000000;fill-opacity:1;fill-rule:nonzero;stroke:none"
       d="m 580.42969,14.113281 c 0,2.890625 2.2539,5.078125 4.85937,5.078125 2.27735,0 3.63672,-1.949218 3.63672,-3.570312 0,-0.128906 0,-0.238282 -0.17578,-0.238282 -0.15234,0 -0.15234,0.08594 -0.17578,0.238282 -0.10938,1.996094 -1.59766,3.132812 -3.12891,3.132812 -0.85547,0 -3.59375,-0.457031 -3.59375,-4.640625 0,-4.164062 2.73828,-4.644531 3.59375,-4.644531 1.50781,0 2.75781,1.269531 3.04297,3.308594 0.0234,0.195312 0.0234,0.238281 0.21875,0.238281 0.21875,0 0.21875,-0.04297 0.21875,-0.328125 V 9.382812 c 0,-0.242187 0,-0.351562 -0.15234,-0.351562 -0.043,0 -0.10938,0 -0.21875,0.175781 l -0.70313,1.027344 c -0.5039,-0.503906 -1.22656,-1.203125 -2.5625,-1.203125 -2.625,0 -4.85937,2.234375 -4.85937,5.082031 z m 0,0"
       id="path120" />
    <path
       style="fill:#000000;fill-opacity:1;fill-rule:nonzero;stroke:none"
       d="m 590.20703,9.335938 v 0.4375 h 0.35156 c 1.07032,0 1.09375,0.15625 1.09375,0.660156 v 7.359375 c 0,0.503906 -0.0234,0.65625 -1.09375,0.65625 h -0.35156 v 0.4375 h 5.125 c 2.34375,0 4.26953,-2.058594 4.26953,-4.6875 0,-2.671875 -1.88281,-4.863281 -4.26953,-4.863281 z m 3.32813,9.113281 c -0.65625,0 -0.67969,-0.08984 -0.67969,-0.546875 V 10.34375 c 0,-0.480469 0.0234,-0.570312 0.67969,-0.570312 h 1.40234 c 0.875,0 1.83984,0.308593 2.53906,1.292968 0.61328,0.832032 0.72266,2.039063 0.72266,3.132813 0,1.535156 -0.26172,2.386719 -0.76563,3.066406 -0.28515,0.371094 -1.07422,1.183594 -2.47265,1.183594 z m 0,0"
       id="path121" />
    <path
       style="fill:#000000;fill-opacity:1;fill-rule:nonzero;stroke:none"
       d="m 603.56641,14.460938 h 2.36718 c 1.66407,0 3.17578,-1.117188 3.17578,-2.515626 0,-1.382812 -1.3789,-2.609374 -3.28515,-2.609374 H 600.875 v 0.4375 h 0.35156 c 1.07031,0 1.09375,0.15625 1.09375,0.660156 v 7.359375 c 0,0.503906 -0.0234,0.65625 -1.09375,0.65625 H 600.875 v 0.4375 c 0.50391,-0.04297 1.53125,-0.04297 2.05859,-0.04297 0.52344,0 1.57813,0 2.07813,0.04297 v -0.4375 h -0.34766 c -1.07422,0 -1.09765,-0.152344 -1.09765,-0.65625 z m -0.043,-0.347657 V 10.34375 c 0,-0.480469 0.0234,-0.570312 0.67968,-0.570312 h 1.25 c 2.21094,0 2.21094,1.492187 2.21094,2.171874 0,0.65625 0,2.167969 -2.21094,2.167969 z m 0,0"
       id="path122" />
    <path
       style="fill:#000000;fill-opacity:1;fill-rule:nonzero;stroke:none"
       d="M 610.05078,15.46875 H 613.75 v 0.8125 h -3.69922 z m 0,0"
       id="path123" />
    <path
       style="fill:#000000;fill-opacity:1;fill-rule:nonzero;stroke:none"
       d="m 615.33984,14.113281 c 0,2.890625 2.25391,5.078125 4.86328,5.078125 2.27735,0 3.63282,-1.949218 3.63282,-3.570312 0,-0.128906 0,-0.238282 -0.17578,-0.238282 -0.15235,0 -0.15235,0.08594 -0.17188,0.238282 -0.10937,1.996094 -1.60156,3.132812 -3.13281,3.132812 -0.85547,0 -3.59375,-0.457031 -3.59375,-4.640625 0,-4.164062 2.73828,-4.644531 3.59375,-4.644531 1.51172,0 2.75781,1.269531 3.04297,3.308594 0.0234,0.195312 0.0234,0.238281 0.21875,0.238281 0.21875,0 0.21875,-0.04297 0.21875,-0.328125 V 9.382812 c 0,-0.242187 0,-0.351562 -0.15235,-0.351562 -0.043,0 -0.10937,0 -0.21875,0.175781 l -0.69922,1.027344 c -0.5039,-0.503906 -1.22656,-1.203125 -2.5625,-1.203125 -2.6289,0 -4.86328,2.234375 -4.86328,5.082031 z m 0,0"
       id="path124" />
    <path
       style="fill:#000000;fill-opacity:1;fill-rule:nonzero;stroke:none"
       d="m 628.00781,9.644531 c -0.1289,-0.308593 -0.17578,-0.308593 -0.5039,-0.308593 h -2.34375 v 0.4375 h 0.32812 c 1.07422,0 1.09766,0.15625 1.09766,0.660156 v 6.984375 c 0,0.375 0,1.03125 -1.42578,1.03125 v 0.4375 c 0.48437,-0.02344 1.16406,-0.04297 1.62109,-0.04297 0.46094,0 1.16016,0.01953 1.64453,0.04297 v -0.4375 c -1.44531,0 -1.44531,-0.65625 -1.44531,-1.03125 V 9.886719 H 627 l 3.375,8.691406 c 0.0664,0.175781 0.12891,0.308594 0.26172,0.308594 0.15234,0 0.19922,-0.109375 0.26172,-0.261719 l 3.4414,-8.851562 v 8.019531 c 0,0.503906 -0.0234,0.65625 -1.09765,0.65625 h -0.32813 v 0.4375 c 0.50391,-0.04297 1.46875,-0.04297 2.01563,-0.04297 0.52734,0 1.46875,0 1.99218,0.04297 v -0.4375 h -0.35156 c -1.07031,0 -1.09375,-0.152344 -1.09375,-0.65625 v -7.359375 c 0,-0.503906 0.0234,-0.660156 1.09375,-0.660156 h 0.35156 v -0.4375 h -2.36328 c -0.375,0 -0.375,0.023437 -0.46093,0.265624 l -3.06641,7.882813 z m 0,0"
       id="path125" />
    <path
       style="fill:#000000;fill-opacity:1;fill-rule:nonzero;stroke:none"
       d="m 424.40625,89.707031 c 0,2.894531 2.25391,5.082031 4.85937,5.082031 2.27735,0 3.63672,-1.949218 3.63672,-3.570312 0,-0.128906 0,-0.238281 -0.17578,-0.238281 -0.15234,0 -0.15234,0.08594 -0.17578,0.238281 -0.10937,1.996094 -1.59766,3.132812 -3.12891,3.132812 -0.85546,0 -3.59375,-0.460937 -3.59375,-4.644531 0,-4.160156 2.73829,-4.640625 3.59375,-4.640625 1.50782,0 2.75782,1.269532 3.04297,3.304688 0.0234,0.199218 0.0234,0.242187 0.21875,0.242187 0.21875,0 0.21875,-0.04297 0.21875,-0.328125 v -3.308594 c 0,-0.238281 0,-0.347656 -0.15234,-0.347656 -0.043,0 -0.10938,0 -0.21875,0.175782 l -0.70313,1.027343 c -0.5039,-0.503906 -1.22656,-1.203125 -2.5625,-1.203125 -2.625,0 -4.85937,2.234375 -4.85937,5.078125 z m 0,0"
       id="path126" />
    <path
       style="fill:#000000;fill-opacity:1;fill-rule:nonzero;stroke:none"
       d="m 434.18359,84.933594 v 0.4375 h 0.35157 c 1.07031,0 1.09375,0.15625 1.09375,0.660156 v 7.355469 c 0,0.503906 -0.0234,0.660156 -1.09375,0.660156 h -0.35157 v 0.4375 h 5.125 c 2.34375,0 4.26953,-2.058594 4.26953,-4.6875 0,-2.671875 -1.88281,-4.863281 -4.26953,-4.863281 z m 3.32813,9.113281 c -0.65625,0 -0.67969,-0.08984 -0.67969,-0.550781 v -7.554688 c 0,-0.480468 0.0234,-0.570312 0.67969,-0.570312 h 1.40234 c 0.875,0 1.83985,0.308594 2.53906,1.292968 0.61329,0.832032 0.72266,2.039063 0.72266,3.132813 0,1.53125 -0.26172,2.386719 -0.76562,3.066406 -0.28516,0.371094 -1.07422,1.183594 -2.47266,1.183594 z m 0,0"
       id="path127" />
    <path
       style="fill:#000000;fill-opacity:1;fill-rule:nonzero;stroke:none"
       d="m 447.54297,90.058594 h 2.36719 c 1.66406,0 3.17578,-1.117188 3.17578,-2.519532 0,-1.378906 -1.37891,-2.605468 -3.28516,-2.605468 h -4.94922 v 0.4375 h 0.34766 c 1.07422,0 1.09765,0.15625 1.09765,0.660156 v 7.355469 c 0,0.503906 -0.0234,0.660156 -1.09765,0.660156 h -0.34766 v 0.4375 c 0.50391,-0.04297 1.53125,-0.04297 2.0586,-0.04297 0.52343,0 1.57421,0 2.07812,0.04297 v -0.4375 h -0.34766 c -1.07421,0 -1.09765,-0.15625 -1.09765,-0.660156 z M 447.5,89.707031 v -3.765625 c 0,-0.480468 0.0234,-0.570312 0.67969,-0.570312 h 1.25 c 2.21093,0 2.21093,1.492187 2.21093,2.167968 0,0.660157 0,2.167969 -2.21093,2.167969 z m 0,0"
       id="path128" />
    <path
       style="fill:#000000;fill-opacity:1;fill-rule:nonzero;stroke:none"
       d="m 454.02734,91.066406 h 3.69922 v 0.8125 h -3.69922 z m 0,0"
       id="path129" />
    <path
       style="fill:#000000;fill-opacity:1;fill-rule:nonzero;stroke:none"
       d="m 459.31641,89.707031 c 0,2.894531 2.2539,5.082031 4.86328,5.082031 2.27734,0 3.63281,-1.949218 3.63281,-3.570312 0,-0.128906 0,-0.238281 -0.17578,-0.238281 -0.15235,0 -0.15235,0.08594 -0.17188,0.238281 -0.10937,1.996094 -1.60156,3.132812 -3.13281,3.132812 -0.85547,0 -3.59375,-0.460937 -3.59375,-4.644531 0,-4.160156 2.73828,-4.640625 3.59375,-4.640625 1.51172,0 2.75781,1.269532 3.04297,3.304688 0.0234,0.199218 0.0234,0.242187 0.21875,0.242187 0.21875,0 0.21875,-0.04297 0.21875,-0.328125 v -3.308594 c 0,-0.238281 0,-0.347656 -0.15234,-0.347656 -0.043,0 -0.10938,0 -0.21875,0.175782 l -0.69922,1.027343 c -0.50391,-0.503906 -1.22657,-1.203125 -2.5625,-1.203125 -2.62891,0 -4.86328,2.234375 -4.86328,5.078125 z m 0,0"
       id="path130" />
    <path
       style="fill:#000000;fill-opacity:1;fill-rule:nonzero;stroke:none"
       d="m 471.98437,85.242188 c -0.1289,-0.308594 -0.17578,-0.308594 -0.5039,-0.308594 h -2.34375 v 0.4375 h 0.32812 c 1.07422,0 1.09766,0.15625 1.09766,0.660156 v 6.984375 c 0,0.371094 0,1.03125 -1.42578,1.03125 v 0.4375 c 0.48437,-0.02344 1.16015,-0.04297 1.62109,-0.04297 0.46094,0 1.16016,0.01953 1.64453,0.04297 v -0.4375 c -1.44531,0 -1.44531,-0.660156 -1.44531,-1.03125 v -7.535156 h 0.0195 l 3.375,8.695312 c 0.0664,0.175781 0.12891,0.308594 0.26172,0.308594 0.15234,0 0.19531,-0.109375 0.26172,-0.265625 l 3.44141,-8.847656 v 8.015625 c 0,0.503906 -0.0234,0.660156 -1.09766,0.660156 h -0.32813 v 0.4375 c 0.50391,-0.04297 1.46875,-0.04297 2.01563,-0.04297 0.52344,0 1.46875,0 1.99219,0.04297 v -0.4375 h -0.35157 c -1.07031,0 -1.09375,-0.15625 -1.09375,-0.660156 V 86.03125 c 0,-0.503906 0.0234,-0.660156 1.09375,-0.660156 h 0.35157 v -0.4375 h -2.36328 c -0.375,0 -0.375,0.02344 -0.46094,0.261718 l -3.06641,7.886719 z m 0,0"
       id="path131" />
    <path
       style="fill:#000000;fill-opacity:1;fill-rule:nonzero;stroke:none"
       d="m 165.71875,62.820312 c 0,2.890626 2.25391,5.082032 4.85937,5.082032 2.28125,0 3.63672,-1.949219 3.63672,-3.570313 0,-0.132812 0,-0.242187 -0.17578,-0.242187 -0.15234,0 -0.15234,0.08984 -0.17578,0.242187 -0.10937,1.992188 -1.59766,3.132813 -3.12891,3.132813 -0.85546,0 -3.59375,-0.460938 -3.59375,-4.644532 0,-4.160156 2.73829,-4.644531 3.59375,-4.644531 1.51172,0 2.75782,1.273438 3.04297,3.308594 0.0234,0.199219 0.0234,0.242187 0.21875,0.242187 0.21875,0 0.21875,-0.04297 0.21875,-0.328124 v -3.308594 c 0,-0.242188 0,-0.351563 -0.15234,-0.351563 -0.043,0 -0.10938,0 -0.21875,0.175781 l -0.70313,1.03125 c -0.5039,-0.503906 -1.22656,-1.207031 -2.5625,-1.207031 -2.625,0 -4.85937,2.234375 -4.85937,5.082031 z m 0,0"
       id="path132" />
    <path
       style="fill:#000000;fill-opacity:1;fill-rule:nonzero;stroke:none"
       d="m 175.49609,58.046875 v 0.4375 h 0.35157 c 1.07031,0 1.09375,0.152344 1.09375,0.65625 V 66.5 c 0,0.503906 -0.0234,0.65625 -1.09375,0.65625 h -0.35157 v 0.4375 h 5.125 c 2.34375,0 4.26953,-2.058594 4.26953,-4.683594 0,-2.671875 -1.88281,-4.863281 -4.26953,-4.863281 z m 3.32813,9.109375 c -0.65625,0 -0.67969,-0.08594 -0.67969,-0.546875 v -7.554687 c 0,-0.484376 0.0234,-0.570313 0.67969,-0.570313 h 1.40234 c 0.875,0 1.83985,0.304687 2.53906,1.292969 0.61329,0.832031 0.72657,2.035156 0.72657,3.132812 0,1.53125 -0.26563,2.386719 -0.76953,3.0625 -0.28516,0.375 -1.07032,1.183594 -2.47266,1.183594 z m 0,0"
       id="path133" />
    <path
       style="fill:#000000;fill-opacity:1;fill-rule:nonzero;stroke:none"
       d="m 188.85937,63.171875 h 2.36329 c 1.66406,0 3.17578,-1.117187 3.17578,-2.519531 0,-1.378906 -1.37891,-2.605469 -3.28516,-2.605469 h -4.94922 v 0.4375 h 0.35156 c 1.07032,0 1.09375,0.152344 1.09375,0.65625 V 66.5 c 0,0.503906 -0.0234,0.65625 -1.09375,0.65625 h -0.35156 v 0.4375 c 0.50391,-0.04297 1.53125,-0.04297 2.0586,-0.04297 0.52343,0 1.57812,0 2.08203,0.04297 v -0.4375 h -0.35157 c -1.07421,0 -1.09375,-0.152344 -1.09375,-0.65625 z m -0.0469,-0.351563 v -3.765624 c 0,-0.484376 0.0234,-0.570313 0.67969,-0.570313 h 1.25 c 2.21093,0 2.21093,1.488281 2.21093,2.167969 0,0.65625 0,2.167968 -2.21093,2.167968 z m 0,0"
       id="path134" />
    <path
       style="fill:#000000;fill-opacity:1;fill-rule:nonzero;stroke:none"
       d="m 195.33984,64.179688 h 3.69922 v 0.808593 h -3.69922 z m 0,0"
       id="path135" />
    <path
       style="fill:#000000;fill-opacity:1;fill-rule:nonzero;stroke:none"
       d="m 200.62891,62.820312 c 0,2.890626 2.2539,5.082032 4.86328,5.082032 2.27734,0 3.63281,-1.949219 3.63281,-3.570313 0,-0.132812 0,-0.242187 -0.17188,-0.242187 -0.15625,0 -0.15625,0.08984 -0.17578,0.242187 -0.10937,1.992188 -1.60156,3.132813 -3.13281,3.132813 -0.85547,0 -3.59375,-0.460938 -3.59375,-4.644532 0,-4.160156 2.73828,-4.644531 3.59375,-4.644531 1.51172,0 2.75781,1.273438 3.04297,3.308594 0.0234,0.199219 0.0234,0.242187 0.21875,0.242187 0.21875,0 0.21875,-0.04297 0.21875,-0.328124 v -3.308594 c 0,-0.242188 0,-0.351563 -0.15234,-0.351563 -0.043,0 -0.10938,0 -0.21875,0.175781 l -0.69922,1.03125 c -0.50391,-0.503906 -1.22657,-1.207031 -2.5625,-1.207031 -2.62891,0 -4.86328,2.234375 -4.86328,5.082031 z m 0,0"
       id="path136" />
    <path
       style="fill:#000000;fill-opacity:1;fill-rule:nonzero;stroke:none"
       d="m 213.29687,58.351562 c -0.1289,-0.304687 -0.17578,-0.304687 -0.5039,-0.304687 h -2.34375 v 0.4375 h 0.33203 c 1.07031,0 1.09375,0.152344 1.09375,0.65625 v 6.988281 c 0,0.371094 0,1.027344 -1.42578,1.027344 v 0.4375 c 0.48437,-0.01953 1.16406,-0.04297 1.62109,-0.04297 0.46094,0 1.16406,0.02344 1.64453,0.04297 v -0.4375 c -1.44531,0 -1.44531,-0.65625 -1.44531,-1.027344 V 58.59375 h 0.0195 l 3.375,8.695312 c 0.0664,0.175782 0.12891,0.304688 0.26172,0.304688 0.15234,0 0.19922,-0.109375 0.26172,-0.261719 l 3.44141,-8.847656 V 66.5 c 0,0.503906 -0.0234,0.65625 -1.09766,0.65625 h -0.32813 v 0.4375 c 0.50391,-0.04297 1.46875,-0.04297 2.01563,-0.04297 0.52734,0 1.46875,0 1.99219,0.04297 v -0.4375 h -0.34766 c -1.07422,0 -1.09766,-0.152344 -1.09766,-0.65625 v -7.359375 c 0,-0.503906 0.0234,-0.65625 1.09766,-0.65625 h 0.34766 v -0.4375 h -2.36328 c -0.375,0 -0.375,0.01953 -0.46094,0.261719 l -3.06641,7.886718 z m 0,0"
       id="path137" />
  </g>
</svg>
