<?xml version="1.0" encoding="UTF-8" standalone="no"?>
<!-- Created with Inkscape (http://www.inkscape.org/) -->

<svg
   width="210mm"
   height="297mm"
   viewBox="0 0 210 297"
   version="1.1"
   id="svg5"
   inkscape:version="1.2.2 (1:1.2.2+202212051552+b0a8486541)"
   sodipodi:docname="MannaJumps.svg"
   inkscape:export-filename="MannaJumps.pdf"
   inkscape:export-xdpi="96"
   inkscape:export-ydpi="96"
   xmlns:inkscape="http://www.inkscape.org/namespaces/inkscape"
   xmlns:sodipodi="http://sodipodi.sourceforge.net/DTD/sodipodi-0.dtd"
   xmlns="http://www.w3.org/2000/svg"
   xmlns:svg="http://www.w3.org/2000/svg">
  <sodipodi:namedview
     id="namedview7"
     pagecolor="#ffffff"
     bordercolor="#000000"
     borderopacity="0.25"
     inkscape:showpageshadow="2"
     inkscape:pageopacity="0.0"
     inkscape:pagecheckerboard="0"
     inkscape:deskcolor="#d1d1d1"
     inkscape:document-units="mm"
     showgrid="false"
     inkscape:zoom="0.97875981"
     inkscape:cx="496.54675"
     inkscape:cy="207.91618"
     inkscape:window-width="1846"
     inkscape:window-height="1016"
     inkscape:window-x="1154"
     inkscape:window-y="27"
     inkscape:window-maximized="1"
     inkscape:current-layer="layer1" />
  <defs
     id="defs2">
    <marker
       style="overflow:visible"
       id="Stop"
       refX="0"
       refY="0"
       orient="auto"
       inkscape:stockid="Stop"
       markerWidth="1"
       markerHeight="8"
       viewBox="0 0 1 8"
       inkscape:isstock="true"
       inkscape:collect="always"
       preserveAspectRatio="xMidYMid">
      <path
         style="fill:none;stroke:context-stroke;stroke-width:1"
         d="M 0,4 V -4"
         id="path171" />
    </marker>
    <marker
       style="overflow:visible"
       id="marker3694"
       refX="0"
       refY="0"
       orient="auto-start-reverse"
       inkscape:stockid="Arrow2"
       markerWidth="7.6999998"
       markerHeight="5.5999999"
       viewBox="0 0 7.7 5.6"
       inkscape:isstock="true"
       inkscape:collect="always"
       preserveAspectRatio="xMidYMid">
      <path
         transform="scale(0.7)"
         d="M -2,-4 9,0 -2,4 c 2,-2.33 2,-5.66 0,-8 z"
         style="fill:context-stroke;fill-rule:evenodd;stroke:none"
         id="path3692" />
    </marker>
    <inkscape:path-effect
       effect="spiro"
       id="path-effect3672"
       is_visible="true"
       lpeversion="1" />
    <marker
       style="overflow:visible"
       id="marker2645"
       refX="0"
       refY="0"
       orient="auto-start-reverse"
       inkscape:stockid="Arrow2"
       markerWidth="7.6999998"
       markerHeight="5.5999999"
       viewBox="0 0 7.7 5.6"
       inkscape:isstock="true"
       inkscape:collect="always"
       preserveAspectRatio="xMidYMid">
      <path
         transform="scale(0.7)"
         d="M -2,-4 9,0 -2,4 c 2,-2.33 2,-5.66 0,-8 z"
         style="fill:context-stroke;fill-rule:evenodd;stroke:none"
         id="path2643" />
    </marker>
    <inkscape:path-effect
       effect="spiro"
       id="path-effect2629"
       is_visible="true"
       lpeversion="1" />
    <marker
       style="overflow:visible"
       id="Arrow2"
       refX="0"
       refY="0"
       orient="auto-start-reverse"
       inkscape:stockid="Arrow2"
       markerWidth="7.6999998"
       markerHeight="5.5999999"
       viewBox="0 0 7.7 5.6"
       inkscape:isstock="true"
       inkscape:collect="always"
       preserveAspectRatio="xMidYMid">
      <path
         transform="scale(0.7)"
         d="M -2,-4 9,0 -2,4 c 2,-2.33 2,-5.66 0,-8 z"
         style="fill:context-stroke;fill-rule:evenodd;stroke:none"
         id="arrow2L" />
    </marker>
    <marker
       style="overflow:visible"
       id="Dot"
       refX="0"
       refY="0"
       orient="auto"
       inkscape:stockid="Dot"
       markerWidth="4"
       markerHeight="4"
       viewBox="0 0 5.6666667 5.6666667"
       inkscape:isstock="true"
       inkscape:collect="always"
       preserveAspectRatio="xMidYMid">
      <path
         transform="scale(0.5)"
         style="fill:context-stroke;fill-rule:evenodd;stroke:context-stroke;stroke-width:1pt"
         d="M 5,0 C 5,2.76 2.76,5 0,5 -2.76,5 -5,2.76 -5,0 c 0,-2.76 2.3,-5 5,-5 2.76,0 5,2.24 5,5 z"
         id="Dot1"
         sodipodi:nodetypes="sssss" />
    </marker>
    <inkscape:path-effect
       effect="spiro"
       id="path-effect1210"
       is_visible="true"
       lpeversion="1" />
    <inkscape:path-effect
       effect="spiro"
       id="path-effect1210-6"
       is_visible="true"
       lpeversion="1" />
    <inkscape:path-effect
       effect="spiro"
       id="path-effect1210-6-9"
       is_visible="true"
       lpeversion="1" />
    <inkscape:path-effect
       effect="spiro"
       id="path-effect1210-6-9-2"
       is_visible="true"
       lpeversion="1" />
    <inkscape:path-effect
       effect="spiro"
       id="path-effect1210-6-9-2-0"
       is_visible="true"
       lpeversion="1" />
    <inkscape:path-effect
       effect="spiro"
       id="path-effect1210-3"
       is_visible="true"
       lpeversion="1" />
    <inkscape:path-effect
       effect="spiro"
       id="path-effect1210-3-7"
       is_visible="true"
       lpeversion="1" />
    <inkscape:path-effect
       effect="spiro"
       id="path-effect1210-3-7-3"
       is_visible="true"
       lpeversion="1" />
    <marker
       style="overflow:visible"
       id="Dot-6"
       refX="0"
       refY="0"
       orient="auto"
       inkscape:stockid="Dot"
       markerWidth="3"
       markerHeight="3"
       viewBox="0 0 5.6666667 5.6666667"
       inkscape:isstock="true"
       inkscape:collect="always"
       preserveAspectRatio="xMidYMid">
      <path
         transform="scale(0.5)"
         style="fill:context-stroke;fill-rule:evenodd;stroke:context-stroke;stroke-width:1pt"
         d="M 5,0 C 5,2.76 2.76,5 0,5 -2.76,5 -5,2.76 -5,0 c 0,-2.76 2.3,-5 5,-5 2.76,0 5,2.24 5,5 z"
         id="Dot1-7"
         sodipodi:nodetypes="sssss" />
    </marker>
    <marker
       style="overflow:visible"
       id="Dot-6-3"
       refX="0"
       refY="0"
       orient="auto"
       inkscape:stockid="Dot"
       markerWidth="3"
       markerHeight="3"
       viewBox="0 0 5.6666667 5.6666667"
       inkscape:isstock="true"
       inkscape:collect="always"
       preserveAspectRatio="xMidYMid">
      <path
         transform="scale(0.5)"
         style="fill:context-stroke;fill-rule:evenodd;stroke:context-stroke;stroke-width:1pt"
         d="M 5,0 C 5,2.76 2.76,5 0,5 -2.76,5 -5,2.76 -5,0 c 0,-2.76 2.3,-5 5,-5 2.76,0 5,2.24 5,5 z"
         id="Dot1-7-5"
         sodipodi:nodetypes="sssss" />
    </marker>
    <marker
       style="overflow:visible"
       id="Dot-6-3-2"
       refX="0"
       refY="0"
       orient="auto"
       inkscape:stockid="Dot"
       markerWidth="3"
       markerHeight="3"
       viewBox="0 0 5.6666667 5.6666667"
       inkscape:isstock="true"
       inkscape:collect="always"
       preserveAspectRatio="xMidYMid">
      <path
         transform="scale(0.5)"
         style="fill:context-stroke;fill-rule:evenodd;stroke:context-stroke;stroke-width:1pt"
         d="M 5,0 C 5,2.76 2.76,5 0,5 -2.76,5 -5,2.76 -5,0 c 0,-2.76 2.3,-5 5,-5 2.76,0 5,2.24 5,5 z"
         id="Dot1-7-5-9"
         sodipodi:nodetypes="sssss" />
    </marker>
    <marker
       style="overflow:visible"
       id="Dot-6-3-2-2-9-6"
       refX="0"
       refY="0"
       orient="auto"
       inkscape:stockid="Dot"
       markerWidth="3"
       markerHeight="3"
       viewBox="0 0 5.6666667 5.6666667"
       inkscape:isstock="true"
       inkscape:collect="always"
       preserveAspectRatio="xMidYMid">
      <path
         transform="scale(0.5)"
         style="fill:context-stroke;fill-rule:evenodd;stroke:context-stroke;stroke-width:1pt"
         d="M 5,0 C 5,2.76 2.76,5 0,5 -2.76,5 -5,2.76 -5,0 c 0,-2.76 2.3,-5 5,-5 2.76,0 5,2.24 5,5 z"
         id="Dot1-7-5-9-7-3-1"
         sodipodi:nodetypes="sssss" />
    </marker>
    <marker
       style="overflow:visible"
       id="Dot-6-3-2-2-9-6-7"
       refX="0"
       refY="0"
       orient="auto"
       inkscape:stockid="Dot"
       markerWidth="3"
       markerHeight="3"
       viewBox="0 0 5.6666667 5.6666667"
       inkscape:isstock="true"
       inkscape:collect="always"
       preserveAspectRatio="xMidYMid">
      <path
         transform="scale(0.5)"
         style="fill:context-stroke;fill-rule:evenodd;stroke:context-stroke;stroke-width:1pt"
         d="M 5,0 C 5,2.76 2.76,5 0,5 -2.76,5 -5,2.76 -5,0 c 0,-2.76 2.3,-5 5,-5 2.76,0 5,2.24 5,5 z"
         id="Dot1-7-5-9-7-3-1-9"
         sodipodi:nodetypes="sssss" />
    </marker>
    <marker
       style="overflow:visible"
       id="Dot-0"
       refX="0"
       refY="0"
       orient="auto"
       inkscape:stockid="Dot"
       markerWidth="3"
       markerHeight="3"
       viewBox="0 0 5.6666667 5.6666667"
       inkscape:isstock="true"
       inkscape:collect="always"
       preserveAspectRatio="xMidYMid">
      <path
         transform="scale(0.5)"
         style="fill:context-stroke;fill-rule:evenodd;stroke:context-stroke;stroke-width:1pt"
         d="M 5,0 C 5,2.76 2.76,5 0,5 -2.76,5 -5,2.76 -5,0 c 0,-2.76 2.3,-5 5,-5 2.76,0 5,2.24 5,5 z"
         id="Dot1-2"
         sodipodi:nodetypes="sssss" />
    </marker>
    <marker
       style="overflow:visible"
       id="Dot-6-3-2-2"
       refX="0"
       refY="0"
       orient="auto"
       inkscape:stockid="Dot"
       markerWidth="3"
       markerHeight="3"
       viewBox="0 0 5.6666667 5.6666667"
       inkscape:isstock="true"
       inkscape:collect="always"
       preserveAspectRatio="xMidYMid">
      <path
         transform="scale(0.5)"
         style="fill:context-stroke;fill-rule:evenodd;stroke:context-stroke;stroke-width:1pt"
         d="M 5,0 C 5,2.76 2.76,5 0,5 -2.76,5 -5,2.76 -5,0 c 0,-2.76 2.3,-5 5,-5 2.76,0 5,2.24 5,5 z"
         id="Dot1-7-5-9-7"
         sodipodi:nodetypes="sssss" />
    </marker>
    <marker
       style="overflow:visible"
       id="Dot-6-3-2-2-9"
       refX="0"
       refY="0"
       orient="auto"
       inkscape:stockid="Dot"
       markerWidth="3"
       markerHeight="3"
       viewBox="0 0 5.6666667 5.6666667"
       inkscape:isstock="true"
       inkscape:collect="always"
       preserveAspectRatio="xMidYMid">
      <path
         transform="scale(0.5)"
         style="fill:context-stroke;fill-rule:evenodd;stroke:context-stroke;stroke-width:1pt"
         d="M 5,0 C 5,2.76 2.76,5 0,5 -2.76,5 -5,2.76 -5,0 c 0,-2.76 2.3,-5 5,-5 2.76,0 5,2.24 5,5 z"
         id="Dot1-7-5-9-7-3"
         sodipodi:nodetypes="sssss" />
    </marker>
    <marker
       style="overflow:visible"
       id="Stop-3"
       refX="0"
       refY="0"
       orient="auto"
       inkscape:stockid="Stop"
       markerWidth="1"
       markerHeight="8"
       viewBox="0 0 1 8"
       inkscape:isstock="true"
       inkscape:collect="always"
       preserveAspectRatio="xMidYMid">
      <path
         style="fill:none;stroke:context-stroke;stroke-width:1"
         d="M 0,4 V -4"
         id="path171-7" />
    </marker>
  </defs>
  <g
     inkscape:label="Layer 1"
     inkscape:groupmode="layer"
     id="layer1">
    <g
       id="g4872"
       transform="translate(20.896419,3.4329504)">
      <rect
         style="fill:#ffd2e7;stroke:none;stroke-width:0.452514;stroke-linecap:butt;stroke-linejoin:round;stroke-dasharray:none"
         id="rect1608-9"
         width="49.765278"
         height="10.13485"
         x="20.031872"
         y="-20.405693"
         transform="rotate(90)" />
      <rect
         style="fill:#ffd2e7;stroke:none;stroke-width:0.454849;stroke-linecap:butt;stroke-linejoin:round;stroke-dasharray:none"
         id="rect1608-7"
         width="50.280212"
         height="10.13485"
         x="-70.036011"
         y="70.176025"
         transform="rotate(-90)" />
      <rect
         style="fill:#ffd2e7;stroke:none;stroke-width:0.401475;stroke-linecap:butt;stroke-linejoin:round;stroke-dasharray:none"
         id="rect1526"
         width="49.929787"
         height="69.75975"
         x="20.202848"
         y="10.105398" />
      <rect
         style="opacity:1;fill:#a5324b;stroke:none;stroke-width:0.383488;stroke-linecap:round;stroke-linejoin:round;stroke-dasharray:none;stroke-opacity:1"
         id="rect1079-3"
         width="9.9614878"
         height="9.965765"
         x="30.232767"
         y="60.016937" />
      <rect
         style="opacity:1;fill:none;stroke:#efa8c6;stroke-width:0.385;stroke-linecap:round;stroke-linejoin:round;stroke-dasharray:none;stroke-opacity:1"
         id="rect270"
         width="89.676216"
         height="89.676208"
         x="0.16189337"
         y="0.16189337" />
      <path
         style="opacity:1;fill:none;stroke:#efa8c6;stroke-width:0.385278;stroke-linecap:butt;stroke-linejoin:round;stroke-dasharray:none;stroke-opacity:1"
         d="M 10.192639,-1.2051322e-7 V 89.999998"
         id="path988" />
      <path
         style="opacity:1;fill:none;stroke:#a5324b;stroke-width:0.385;stroke-linecap:butt;stroke-linejoin:round;stroke-dasharray:1.155, 1.155;stroke-dashoffset:0;stroke-opacity:1"
         d="M 20.195556,-1.2051322e-7 V 89.999998"
         id="path988-3" />
      <path
         style="opacity:1;fill:none;stroke:#efa8c6;stroke-width:0.385278;stroke-linecap:butt;stroke-linejoin:round;stroke-dasharray:none;stroke-opacity:1"
         d="M 30.198472,-1.1122973e-6 V 89.999999"
         id="path988-3-6" />
      <path
         style="opacity:1;fill:none;stroke:#efa8c6;stroke-width:0.385278;stroke-linecap:butt;stroke-linejoin:round;stroke-dasharray:none;stroke-opacity:1"
         d="M 40.201389,-1.0672162e-6 V 89.999999"
         id="path988-3-6-7" />
      <path
         style="opacity:1;fill:none;stroke:#efa8c6;stroke-width:0.385278;stroke-linecap:butt;stroke-linejoin:round;stroke-dasharray:none;stroke-opacity:1"
         d="M 50.204305,-1.225e-6 V 89.999999"
         id="path988-3-6-7-5" />
      <path
         style="opacity:1;fill:none;stroke:#efa8c6;stroke-width:0.385278;stroke-linecap:butt;stroke-linejoin:round;stroke-dasharray:none;stroke-opacity:1"
         d="M 60.207222,1.1755682e-6 V 89.999996"
         id="path988-3-6-7-5-3" />
      <path
         style="opacity:1;fill:none;stroke:#a5324b;stroke-width:0.385278;stroke-linecap:butt;stroke-linejoin:round;stroke-dasharray:1.15583, 1.15583;stroke-dashoffset:0;stroke-opacity:1"
         d="M 70.210138,9.7833843e-7 V 89.999996"
         id="path988-3-6-7-5-3-5" />
      <path
         style="opacity:1;fill:none;stroke:#efa8c6;stroke-width:0.385278;stroke-linecap:butt;stroke-linejoin:round;stroke-dasharray:none;stroke-opacity:1"
         d="M 80.213055,1.3305345e-6 V 89.999996"
         id="path988-3-6-7-5-3-5-6" />
      <path
         style="opacity:1;fill:none;stroke:#efa8c6;stroke-width:0.385278;stroke-linecap:butt;stroke-linejoin:round;stroke-dasharray:none;stroke-opacity:1"
         d="M 89.999996,9.98979 H -2.0983781e-6"
         id="path988-1" />
      <rect
         style="opacity:1;fill:#efa8c6;stroke:#000000;stroke-width:0.27054762;stroke-linecap:round;stroke-linejoin:round;stroke-dasharray:none;stroke-dashoffset:0;stroke-opacity:1"
         id="rect1584"
         width="10.022483"
         height="9.929224"
         x="30.190191"
         y="9.9549446" />
      <path
         style="opacity:1;fill:none;stroke:#a5324b;stroke-width:0.385278;stroke-linecap:butt;stroke-linejoin:round;stroke-dasharray:1.15583, 1.15583;stroke-dashoffset:0;stroke-opacity:1"
         d="M 89.999996,19.992707 H -2.0983781e-6"
         id="path988-3-2" />
      <path
         style="opacity:1;fill:none;stroke:#efa8c6;stroke-width:0.385278;stroke-linecap:butt;stroke-linejoin:round;stroke-dasharray:none;stroke-opacity:1"
         d="m 89.999997,29.995623 h -90"
         id="path988-3-6-70" />
      <path
         style="opacity:1;fill:none;stroke:#efa8c6;stroke-width:0.385278;stroke-linecap:butt;stroke-linejoin:round;stroke-dasharray:none;stroke-opacity:1"
         d="m 89.999997,39.99854 h -90"
         id="path988-3-6-7-9" />
      <rect
         style="opacity:1;fill:#ffd2e7;stroke:none;stroke-width:0.348288;stroke-linecap:round;stroke-linejoin:round;stroke-dasharray:none;stroke-dashoffset:0;stroke-opacity:1"
         id="rect4764"
         width="10.092"
         height="4.5111446"
         x="13.52722"
         y="37.705212" />
      <path
         style="opacity:1;fill:none;stroke:#efa8c6;stroke-width:0.385278;stroke-linecap:butt;stroke-linejoin:round;stroke-dasharray:none;stroke-opacity:1"
         d="m 89.999997,50.001456 h -90"
         id="path988-3-6-7-5-36" />
      <path
         style="opacity:1;fill:none;stroke:#efa8c6;stroke-width:0.385278;stroke-linecap:butt;stroke-linejoin:round;stroke-dasharray:none;stroke-opacity:1"
         d="M 89.999995,60.004373 H -2.9513441e-7"
         id="path988-3-6-7-5-3-0" />
      <path
         style="opacity:1;fill:none;stroke:#a5324b;stroke-width:0.385278;stroke-linecap:butt;stroke-linejoin:round;stroke-dasharray:1.15583, 1.15583;stroke-dashoffset:0;stroke-opacity:1"
         d="M 89.999995,70.007289 H -2.9513441e-7"
         id="path988-3-6-7-5-3-5-62" />
      <path
         style="opacity:1;fill:none;stroke:#efa8c6;stroke-width:0.385278;stroke-linecap:butt;stroke-linejoin:round;stroke-dasharray:none;stroke-opacity:1"
         d="M 89.999994,80.010206 H -2.9513441e-7"
         id="path988-3-6-7-5-3-5-6-6" />
      <circle
         style="fill:none;stroke:#000000;stroke-width:0.35244805;stroke-linecap:butt;stroke-linejoin:round;stroke-dasharray:none;stroke-opacity:1"
         id="path1472"
         cx="45.193684"
         cy="45.040169"
         r="33.567192" />
      <rect
         style="opacity:0.732789;fill:#a5324b;stroke:#efa8c6;stroke-width:0.385;stroke-linecap:round;stroke-linejoin:round;stroke-dasharray:none;stroke-opacity:1"
         id="rect1079"
         width="10.002916"
         height="10.002916"
         x="40.201389"
         y="39.998539" />
      <path
         style="opacity:1;fill:#32a58c;stroke:#a5324b;stroke-width:0.385;stroke-linecap:round;stroke-linejoin:round;stroke-dasharray:none;stroke-dashoffset:0;stroke-opacity:1"
         d="M 45.20616,44.994361 H 58.512127"
         id="path2511" />
      <path
         style="opacity:1;fill:none;stroke:#000000;stroke-width:0.35428843;stroke-linecap:round;stroke-linejoin:round;stroke-dasharray:none;stroke-dashoffset:0;stroke-opacity:1;marker-start:url(#Dot);marker-end:url(#Arrow2)"
         d="M 45.193682,44.999997 35.836194,16.10207"
         id="path1135"
         sodipodi:nodetypes="cc" />
      <g
         inkscape:label=""
         transform="matrix(1.4347746,0,0,1.4347746,33.07236,27.977191)"
         id="g2061">
        <g
           id="surface1"
           transform="matrix(0.529167,0,0,0.529167,-48.8917,-39.5935)">
          <g
             style="fill:#000000;fill-opacity:1"
             id="g14">
            <g
               id="use12"
               transform="translate(91.925003,81.962997)">
              <path
                 style="stroke:none"
                 d="m 4.40625,-6.953125 c -0.0625,-0.140625 -0.09375,-0.1875 -0.265625,-0.1875 -0.15625,0 -0.1875,0.046875 -0.25,0.1875 l -3.375,6.75 C 0.46875,-0.109375 0.46875,-0.09375 0.46875,-0.078125 0.46875,0 0.53125,0 0.6875,0 h 6.921875 c 0.15625,0 0.21875,0 0.21875,-0.078125 0,-0.015625 0,-0.03125 -0.046875,-0.125 z m -0.578125,0.8125 2.6875,5.390625 h -5.375 z m 0,0"
                 id="path21" />
            </g>
          </g>
        </g>
      </g>
      <path
         style="opacity:1;fill:none;stroke:#a5324b;stroke-width:0.385;stroke-linecap:round;stroke-linejoin:round;stroke-dasharray:none;stroke-dashoffset:0;stroke-opacity:1;marker-end:url(#marker2645)"
         d="m 53.59332,43.997922 c 0.271341,-1.15626 0.207075,-2.389234 -0.183003,-3.511019 -0.390078,-1.121786 -1.104662,-2.128625 -2.03485,-2.867078 C 49.902974,36.45085 47.890559,35.99306 46.057291,36.41003"
         id="path2627"
         inkscape:path-effect="#path-effect2629"
         inkscape:original-d="m 53.59332,43.997922 c -0.185728,-1.667597 -2.009764,-4.65109 -2.217853,-6.378097 -0.208091,-1.72701 -2.483043,-0.111328 -5.318176,-1.209795"
         sodipodi:nodetypes="csc" />
      <g
         inkscape:label=""
         transform="matrix(1.2861477,0,0,1.2861477,53.506309,32.81732)"
         id="g3188"
         style="fill:#a5324b">
        <g
           id="g3186"
           transform="matrix(0.529167,0,0,0.529167,-48.8669,-39.6514)"
           style="fill:#a5324b">
          <g
             style="fill:#a5324b;fill-opacity:1"
             id="g3184">
            <g
               id="g3182"
               transform="translate(91.925003,81.962997)"
               style="fill:#a5324b">
              <path
                 style="fill:#a5324b;stroke:none"
                 d="m 4.53125,-4.984375 c 0,-0.65625 -0.171875,-2.046875 -1.1875,-2.046875 -1.390625,0 -2.921875,2.8125 -2.921875,5.09375 0,0.9375 0.28125,2.046875 1.1875,2.046875 1.40625,0 2.921875,-2.859375 2.921875,-5.09375 z M 1.46875,-3.625 C 1.640625,-4.25 1.84375,-5.046875 2.25,-5.765625 2.515625,-6.25 2.875,-6.8125 3.328125,-6.8125 c 0.484375,0 0.546875,0.640625 0.546875,1.203125 0,0.5 -0.078125,1 -0.3125,1.984375 z m 2,0.328125 C 3.359375,-2.84375 3.15625,-2 2.765625,-1.28125 c -0.34375,0.6875 -0.71875,1.171875 -1.15625,1.171875 -0.328125,0 -0.53125,-0.296875 -0.53125,-1.21875 0,-0.421875 0.0625,-1 0.3125,-1.96875 z m 0,0"
                 id="path3180" />
            </g>
          </g>
        </g>
      </g>
      <path
         style="opacity:1;fill:none;stroke:#a5324b;stroke-width:0.385;stroke-linecap:round;stroke-linejoin:round;stroke-dasharray:none;stroke-dashoffset:0;stroke-opacity:1;marker-end:url(#marker3694)"
         d="m 29.36999,21.233501 c -1.121034,1.95147 -2.052183,4.01196 -2.776027,6.142923 -1.997141,5.879489 -2.384788,12.26233 -1.386558,18.390992 0.602131,3.696802 1.700638,7.312434 3.25678,10.719386"
         id="path3670"
         inkscape:path-effect="#path-effect3672"
         inkscape:original-d="m 29.36999,21.233501 c -1.865858,6.601638 -2.850099,3.89405 -2.776027,6.142923 0.145482,4.416931 -2.10657,12.239284 -1.386558,18.390992 0.720015,6.151708 2.442636,9.078099 3.25678,10.719386"
         sodipodi:nodetypes="cssc" />
      <g
         inkscape:label=""
         transform="matrix(0.85757942,0,0,0.85757942,13.979904,38.37578)"
         id="g4282"
         style="fill:#a5324b">
        <g
           id="g4280"
           transform="matrix(0.529167,0,0,0.529167,-48.8255,-39.6514)"
           style="fill:#a5324b">
          <g
             style="fill:#a5324b;fill-opacity:1"
             id="g24">
            <g
               id="use18"
               transform="translate(91.925003,81.962997)"
               style="fill:#a5324b">
              <path
                 style="fill:#a5324b;stroke:none"
                 d="m 2.265625,-3.15625 h 1.6875 c 1.1875,0 2.265625,-0.796875 2.265625,-1.796875 C 6.21875,-5.9375 5.234375,-6.8125 3.875,-6.8125 H 0.34375 V -6.5 h 0.25 c 0.765625,0 0.78125,0.109375 0.78125,0.46875 v 5.25 c 0,0.359375 -0.015625,0.46875 -0.78125,0.46875 h -0.25 V 0 c 0.359375,-0.03125 1.09375,-0.03125 1.46875,-0.03125 0.375,0 1.125,0 1.484375,0.03125 v -0.3125 h -0.25 c -0.765625,0 -0.78125,-0.109375 -0.78125,-0.46875 z m -0.03125,-0.25 v -2.6875 C 2.234375,-6.4375 2.25,-6.5 2.71875,-6.5 h 0.890625 c 1.578125,0 1.578125,1.0625 1.578125,1.546875 0,0.46875 0,1.546875 -1.578125,1.546875 z m 0,0"
                 id="path31" />
            </g>
            <g
               id="use20"
               transform="translate(98.705544,81.962997)"
               style="fill:#a5324b">
              <path
                 style="fill:#a5324b;stroke:none"
                 d="m 2.21875,-3.65625 v -2.4375 C 2.21875,-6.4375 2.234375,-6.5 2.703125,-6.5 H 3.9375 c 0.96875,0 1.3125,0.84375 1.3125,1.375 0,0.640625 -0.484375,1.46875 -1.59375,1.46875 z M 4.5625,-3.5625 C 5.53125,-3.75 6.21875,-4.390625 6.21875,-5.125 6.21875,-5.984375 5.296875,-6.8125 4,-6.8125 H 0.359375 V -6.5 H 0.59375 c 0.765625,0 0.796875,0.109375 0.796875,0.46875 v 5.25 c 0,0.359375 -0.03125,0.46875 -0.796875,0.46875 H 0.359375 V 0 h 3.90625 c 1.328125,0 2.21875,-0.890625 2.21875,-1.828125 0,-0.859375 -0.8125,-1.609375 -1.921875,-1.734375 z m -0.609375,3.25 h -1.25 c -0.46875,0 -0.484375,-0.0625 -0.484375,-0.390625 v -2.71875 h 1.875 C 5.078125,-3.421875 5.5,-2.5 5.5,-1.828125 5.5,-1.125 4.96875,-0.3125 3.953125,-0.3125 Z m 0,0"
                 id="path35" />
            </g>
            <g
               id="use22"
               transform="translate(105.76205,81.962997)"
               style="fill:#a5324b">
              <path
                 style="fill:#a5324b;stroke:none"
                 d="m 0.5625,-3.40625 c 0,2.0625 1.609375,3.625 3.46875,3.625 1.625,0 2.59375,-1.390625 2.59375,-2.546875 C 6.625,-2.421875 6.625,-2.5 6.5,-2.5 6.390625,-2.5 6.390625,-2.4375 6.375,-2.328125 6.296875,-0.90625 5.234375,-0.09375 4.140625,-0.09375 c -0.609375,0 -2.5625,-0.328125 -2.5625,-3.3125 0,-2.96875 1.953125,-3.3125 2.5625,-3.3125 1.078125,0 1.96875,0.90625 2.171875,2.359375 C 6.328125,-4.21875 6.328125,-4.1875 6.46875,-4.1875 6.625,-4.1875 6.625,-4.21875 6.625,-4.421875 V -6.78125 c 0,-0.171875 0,-0.25 -0.109375,-0.25 -0.03125,0 -0.078125,0 -0.15625,0.125 l -0.5,0.734375 C 5.5,-6.53125 4.984375,-7.03125 4.03125,-7.03125 c -1.875,0 -3.46875,1.59375 -3.46875,3.625 z m 0,0"
                 id="path39" />
            </g>
          </g>
        </g>
      </g>
    </g>
    <path
       style="opacity:1;fill:#ffd2e7;stroke:#000000;stroke-width:0.34968733;stroke-linecap:round;stroke-linejoin:round;stroke-dasharray:none;stroke-dashoffset:0;stroke-opacity:1;marker-start:url(#Stop);marker-end:url(#Stop)"
       d="m 16.416772,23.597434 v 49.81297"
       id="path4964" />
    <g
       inkscape:label=""
       transform="matrix(1.7116817,0,0,1.7116817,7.1734023,43.19475)"
       id="g5573">
      <g
         id="g5571"
         transform="matrix(0.529167,0,0,0.529167,-48.8504,-39.7671)">
        <g
           style="fill:#000000;fill-opacity:1"
           id="g5569">
          <g
             id="g5567"
             transform="translate(91.925003,81.962997)">
            <path
               style="stroke:none"
               d="M 3.734375,-6.03125 C 3.8125,-6.390625 3.84375,-6.5 4.78125,-6.5 c 0.296875,0 0.375,0 0.375,-0.1875 0,-0.125 -0.109375,-0.125 -0.15625,-0.125 -0.328125,0 -1.140625,0.03125 -1.46875,0.03125 -0.296875,0 -1.03125,-0.03125 -1.328125,-0.03125 -0.0625,0 -0.1875,0 -0.1875,0.203125 0,0.109375 0.09375,0.109375 0.28125,0.109375 0.015625,0 0.203125,0 0.375,0.015625 0.171875,0.03125 0.265625,0.03125 0.265625,0.171875 0,0.03125 0,0.0625 -0.03125,0.1875 L 1.5625,-0.78125 c -0.09375,0.390625 -0.109375,0.46875 -0.90625,0.46875 -0.171875,0 -0.265625,0 -0.265625,0.203125 C 0.390625,0 0.484375,0 0.65625,0 h 4.625 C 5.515625,0 5.515625,0 5.578125,-0.171875 L 6.375,-2.328125 c 0.03125,-0.109375 0.03125,-0.125 0.03125,-0.140625 0,-0.03125 -0.03125,-0.109375 -0.109375,-0.109375 -0.09375,0 -0.109375,0.0625 -0.171875,0.21875 -0.34375,0.90625 -0.78125,2.046875 -2.5,2.046875 H 2.6875 c -0.140625,0 -0.171875,0 -0.21875,0 -0.109375,-0.015625 -0.140625,-0.03125 -0.140625,-0.109375 0,-0.03125 0,-0.046875 0.046875,-0.21875 z m 0,0"
               id="path5565" />
          </g>
        </g>
      </g>
    </g>
    <g
       id="g10816" />
    <g
       id="g12853"
       transform="matrix(0.99010309,0,0,0.99010309,21.15624,1.3586094)">
      <path
         style="fill:#ffd2e7;stroke:#000000;stroke-width:0.349687;stroke-linecap:round;stroke-linejoin:round;stroke-dasharray:none;stroke-dashoffset:0;stroke-opacity:1;marker-start:url(#Stop-3);marker-end:url(#Stop-3)"
         d="M 135.77453,27.73689 V 69.009811"
         id="path4964-5" />
      <rect
         style="fill:#ffe4f3;stroke:#000000;stroke-width:0.344776;stroke-linecap:round;stroke-linejoin:round;stroke-dasharray:none"
         id="rect7277"
         width="41.957111"
         height="41.902134"
         x="155.07266"
         y="27.328712" />
      <rect
         style="fill:none;stroke:#efa8c6;stroke-width:0.38;stroke-linecap:round;stroke-linejoin:round;stroke-dasharray:none;stroke-opacity:1"
         id="rect438"
         width="69.413422"
         height="69.413422"
         x="140.99403"
         y="13.404076" />
      <rect
         style="fill:#efa8c6;stroke:#000000;stroke-width:0.34021;stroke-linecap:round;stroke-linejoin:round;stroke-dasharray:none"
         id="rect7279"
         width="13.990162"
         height="13.960243"
         x="168.97874"
         y="41.397625" />
      <g
         id="g1486"
         style="opacity:0.337835;stroke-width:0.4;stroke-dasharray:none"
         transform="matrix(0.93263942,0,0,0.93263942,95.086863,-8.1843065)">
        <path
           style="opacity:1;fill:none;stroke:#000000;stroke-width:0.368092;stroke-linecap:round;stroke-linejoin:round;stroke-dasharray:none;stroke-opacity:1"
           d="M 64.227038,23.1518 V 97.465061"
           id="path1208"
           inkscape:path-effect="#path-effect1210"
           inkscape:original-d="m 64.227038,23.1518 c 2.65e-4,24.771342 2.65e-4,49.542421 0,74.313261" />
        <path
           style="fill:none;stroke:#000000;stroke-width:0.368092;stroke-linecap:round;stroke-linejoin:round;stroke-dasharray:none;stroke-opacity:1"
           d="M 123.59292,38.147618 H 49.279658"
           id="path1208-2"
           inkscape:path-effect="#path-effect1210-6"
           inkscape:original-d="m 123.59292,38.147618 c -24.771338,2.6e-4 -49.542421,2.6e-4 -74.313262,0" />
        <path
           style="fill:none;stroke:#000000;stroke-width:0.368092;stroke-linecap:round;stroke-linejoin:round;stroke-dasharray:none;stroke-opacity:1"
           d="M 123.59293,53.147618 H 49.279655"
           id="path1208-2-1"
           inkscape:path-effect="#path-effect1210-6-9"
           inkscape:original-d="m 123.59293,53.147618 c -24.771344,2.6e-4 -49.542434,2.6e-4 -74.313275,0" />
        <path
           style="fill:none;stroke:#000000;stroke-width:0.368092;stroke-linecap:round;stroke-linejoin:round;stroke-dasharray:none;stroke-opacity:1"
           d="M 123.59293,68.147618 H 49.279655"
           id="path1208-2-1-7"
           inkscape:path-effect="#path-effect1210-6-9-2"
           inkscape:original-d="m 123.59293,68.147618 c -24.771345,2.6e-4 -49.542435,2.6e-4 -74.313275,0" />
        <path
           style="fill:none;stroke:#000000;stroke-width:0.368092;stroke-linecap:round;stroke-linejoin:round;stroke-dasharray:none;stroke-opacity:1"
           d="M 123.59293,83.147618 H 49.279654"
           id="path1208-2-1-7-9"
           inkscape:path-effect="#path-effect1210-6-9-2-0"
           inkscape:original-d="m 123.59293,83.147618 c -24.771346,2.6e-4 -49.542436,2.6e-4 -74.313276,0" />
        <path
           style="fill:none;stroke:#000000;stroke-width:0.368092;stroke-linecap:round;stroke-linejoin:round;stroke-dasharray:none;stroke-opacity:1"
           d="M 79.231457,23.151802 V 97.465061"
           id="path1208-6"
           inkscape:path-effect="#path-effect1210-3"
           inkscape:original-d="m 79.231457,23.151802 c 2.65e-4,24.771342 2.65e-4,49.542419 0,74.313259" />
        <path
           style="fill:none;stroke:#000000;stroke-width:0.368092;stroke-linecap:round;stroke-linejoin:round;stroke-dasharray:none;stroke-opacity:1"
           d="M 94.235877,23.151802 V 97.465061"
           id="path1208-6-5"
           inkscape:path-effect="#path-effect1210-3-7"
           inkscape:original-d="m 94.235877,23.151802 c 2.64e-4,24.771344 2.64e-4,49.542419 0,74.313259" />
        <path
           style="fill:none;stroke:#000000;stroke-width:0.368092;stroke-linecap:round;stroke-linejoin:round;stroke-dasharray:none;stroke-opacity:1"
           d="M 109.2403,23.151802 V 97.465061"
           id="path1208-6-5-5"
           inkscape:path-effect="#path-effect1210-3-7-3"
           inkscape:original-d="m 109.2403,23.151802 c 2.6e-4,24.771344 2.6e-4,49.542419 0,74.313259" />
      </g>
      <circle
         style="fill:#a5324b;stroke:#000000;stroke-width:0.257;stroke-linecap:round;stroke-linejoin:round;stroke-dasharray:none;stroke-opacity:1"
         id="path1540"
         cx="148.87621"
         cy="32.346382"
         r="4.6880965" />
      <circle
         style="fill:#a5324b;stroke:#000000;stroke-width:0.257;stroke-linecap:round;stroke-linejoin:round;stroke-dasharray:none;stroke-opacity:1"
         id="path1540-3"
         cx="152.48439"
         cy="29.234138"
         r="4.6880965" />
      <circle
         style="fill:#a5324b;stroke:#000000;stroke-width:0.257;stroke-linecap:round;stroke-linejoin:round;stroke-dasharray:none;stroke-opacity:1"
         id="path1540-3-9"
         cx="157.70935"
         cy="71.991348"
         r="4.6880965" />
      <circle
         style="fill:#a5324b;stroke:#000000;stroke-width:0.257;stroke-linecap:round;stroke-linejoin:round;stroke-dasharray:none;stroke-opacity:1"
         id="path1540-3-2"
         cx="160.40465"
         cy="73.743988"
         r="4.6880965" />
      <circle
         style="fill:#a5324b;stroke:#000000;stroke-width:0.257;stroke-linecap:round;stroke-linejoin:round;stroke-dasharray:none;stroke-opacity:1"
         id="path1540-3-2-4"
         cx="149.59149"
         cy="74.6577"
         r="4.6880965" />
      <circle
         style="fill:#a5324b;stroke:#000000;stroke-width:0.257;stroke-linecap:round;stroke-linejoin:round;stroke-dasharray:none;stroke-opacity:1"
         id="path1540-3-02"
         cx="200.57407"
         cy="20.307961"
         r="4.6880965" />
      <circle
         style="fill:#a5324b;stroke:#000000;stroke-width:0.257;stroke-linecap:round;stroke-linejoin:round;stroke-dasharray:none;stroke-opacity:1"
         id="path1540-3-3"
         cx="202.38672"
         cy="21.033607"
         r="4.6880965" />
      <circle
         style="fill:#a5324b;stroke:#000000;stroke-width:0.257;stroke-linecap:round;stroke-linejoin:round;stroke-dasharray:none;stroke-opacity:1"
         id="path1540-3-3-3"
         cx="204.40796"
         cy="42.913807"
         r="4.6880965" />
      <circle
         style="fill:#a5324b;stroke:#000000;stroke-width:0.257;stroke-linecap:round;stroke-linejoin:round;stroke-dasharray:none;stroke-opacity:1"
         id="path1540-3-3-6"
         cx="204.94106"
         cy="46.658764"
         r="4.6880965" />
      <circle
         style="fill:#ffe4f3;stroke:#000000;stroke-width:0.257;stroke-linecap:round;stroke-linejoin:round;stroke-dasharray:none;stroke-opacity:1"
         id="path1540-3-0"
         cx="194.27461"
         cy="33.622726"
         r="4.6880965" />
      <circle
         style="fill:#ffe4f3;stroke:#000000;stroke-width:0.257;stroke-linecap:round;stroke-linejoin:round;stroke-dasharray:none;stroke-opacity:1"
         id="path1540-3-0-6-2"
         cx="173.02222"
         cy="21.378319"
         r="4.6880965" />
      <circle
         style="fill:#ffe4f3;stroke:#000000;stroke-width:0.257;stroke-linecap:round;stroke-linejoin:round;stroke-dasharray:none;stroke-opacity:1"
         id="path1540-3-0-6-6"
         cx="163.37491"
         cy="52.095692"
         r="4.6880965" />
      <circle
         style="fill:#ffe4f3;stroke:#000000;stroke-width:0.257;stroke-linecap:round;stroke-linejoin:round;stroke-dasharray:none;stroke-opacity:1"
         id="path1540-3-0-6-6-9"
         cx="151.14178"
         cy="59.757481"
         r="4.6880965" />
      <circle
         style="fill:#ffe4f3;stroke:#000000;stroke-width:0.257;stroke-linecap:round;stroke-linejoin:round;stroke-dasharray:none;stroke-opacity:1"
         id="path1540-3-0-6-6-2"
         cx="147.34196"
         cy="19.295128"
         r="4.6880965" />
      <circle
         style="fill:#ffe4f3;stroke:#000000;stroke-width:0.257;stroke-linecap:round;stroke-linejoin:round;stroke-dasharray:none;stroke-opacity:1"
         id="path1540-3-0-6-6-28"
         cx="202.59637"
         cy="71.359619"
         r="4.6880965" />
      <circle
         style="fill:#ffe4f3;stroke:#000000;stroke-width:0.257;stroke-linecap:round;stroke-linejoin:round;stroke-dasharray:none;stroke-opacity:1"
         id="path1540-3-0-6-6-97"
         cx="175.22081"
         cy="71.4245"
         r="4.6880965" />
      <circle
         style="fill:#ffe4f3;stroke:#000000;stroke-width:0.257;stroke-linecap:round;stroke-linejoin:round;stroke-dasharray:none;stroke-opacity:1"
         id="path1540-3-0-6-6-97-1"
         cx="174.50833"
         cy="61.136204"
         r="4.6880965" />
      <circle
         style="fill:#ffe4f3;stroke:#000000;stroke-width:0.257;stroke-linecap:round;stroke-linejoin:round;stroke-dasharray:none;stroke-opacity:1"
         id="path1540-3-0-6-6-97-2"
         cx="147.40344"
         cy="42.74226"
         r="4.6880965" />
      <circle
         style="fill:#ffe4f3;stroke:#000000;stroke-width:0.257;stroke-linecap:round;stroke-linejoin:round;stroke-dasharray:none;stroke-opacity:1"
         id="path1540-3-0-6-1"
         cx="197.76837"
         cy="55.186329"
         r="4.6880965" />
      <circle
         style="fill:#ffe4f3;stroke:#000000;stroke-width:0.257;stroke-linecap:round;stroke-linejoin:round;stroke-dasharray:none;stroke-opacity:1"
         id="path1540-3-0-6-8"
         cx="184.76775"
         cy="63.906925"
         r="4.6880965" />
      <circle
         style="fill:#a5324b;stroke:#000000;stroke-width:0.257;stroke-linecap:round;stroke-linejoin:round;stroke-dasharray:none;stroke-opacity:1"
         id="path1540-3-0-6-7"
         cx="177.29198"
         cy="47.949802"
         r="4.6880965" />
      <circle
         style="fill:#ffe4f3;stroke:#000000;stroke-width:0.257;stroke-linecap:round;stroke-linejoin:round;stroke-dasharray:none;stroke-opacity:1"
         id="path1540-3-0-6-6-97-9"
         cx="193.81993"
         cy="76.23613"
         r="4.6880965" />
      <circle
         style="fill:#ffe4f3;stroke:#000000;stroke-width:0.257;stroke-linecap:round;stroke-linejoin:round;stroke-dasharray:none;stroke-opacity:1"
         id="path1540-3-0-6-6-97-3"
         cx="162.21739"
         cy="31.632378"
         r="4.6880965" />
      <circle
         style="fill:#ffe4f3;stroke:#000000;stroke-width:0.257;stroke-linecap:round;stroke-linejoin:round;stroke-dasharray:none;stroke-opacity:1"
         id="path1540-3-0-6-6-97-19"
         cx="187.18738"
         cy="19.928932"
         r="4.6880965" />
      <circle
         style="fill:#efa8c6;fill-opacity:1;stroke:none;stroke-width:0.242542;stroke-linecap:round;stroke-linejoin:round"
         id="path7333"
         cx="177.15573"
         cy="47.841145"
         r="1.1658831" />
      <path
         style="fill:#efa8c6;fill-opacity:1;stroke:#000000;stroke-width:0.349687;stroke-linecap:round;stroke-linejoin:round;stroke-dasharray:none;stroke-opacity:1;marker-start:url(#Dot-6);marker-end:url(#Dot-6)"
         d="M 184.76774,63.90692 177.16665,47.86295"
         id="path7804-5"
         sodipodi:nodetypes="cc" />
      <path
         style="fill:#efa8c6;fill-opacity:1;stroke:#000000;stroke-width:0.349687;stroke-linecap:round;stroke-linejoin:round;stroke-dasharray:none;stroke-opacity:1;marker-start:url(#Dot-6-3);marker-end:url(#Dot-6-3)"
         d="m 174.50832,61.1362 2.65833,-13.27325"
         id="path7804-5-6"
         sodipodi:nodetypes="cc" />
      <path
         style="fill:#efa8c6;fill-opacity:1;stroke:#000000;stroke-width:0.349687;stroke-linecap:round;stroke-linejoin:round;stroke-dasharray:none;stroke-opacity:1;marker-start:url(#Dot-6-3-2);marker-end:url(#Dot-6-3-2)"
         d="m 163.3749,52.09569 13.79175,-4.23274"
         id="path7804-5-6-1"
         sodipodi:nodetypes="cc" />
      <path
         style="fill:#efa8c6;fill-opacity:1;stroke:#000000;stroke-width:0.349687;stroke-linecap:round;stroke-linejoin:round;stroke-dasharray:none;stroke-opacity:1;marker-start:url(#Dot-6-3-2-2-9-6);marker-end:url(#Dot-6-3-2-2-9-6)"
         d="M 194.2746,33.62273 177.16665,47.86295"
         id="path7804-5-6-1-0-6-8"
         sodipodi:nodetypes="cc" />
      <path
         style="fill:#efa8c6;fill-opacity:1;stroke:#000000;stroke-width:0.349687;stroke-linecap:round;stroke-linejoin:round;stroke-dasharray:none;stroke-opacity:1;marker-start:url(#Dot-6-3-2-2-9-6-7);marker-end:url(#Dot-6-3-2-2-9-6-7)"
         d="m 162.21739,31.63238 14.94926,16.23057"
         id="path7804-5-6-1-0-6-8-2"
         sodipodi:nodetypes="cc" />
      <circle
         style="fill:#a5324b;stroke:#000000;stroke-width:0.257;stroke-linecap:round;stroke-linejoin:round;stroke-dasharray:none;stroke-opacity:1"
         id="path1540-3-7"
         cx="171.12576"
         cy="38.644421"
         r="4.6880965" />
      <path
         style="fill:#efa8c6;fill-opacity:1;stroke:#000000;stroke-width:0.349687;stroke-linecap:round;stroke-linejoin:round;stroke-dasharray:none;stroke-opacity:1;marker-start:url(#Dot-0);marker-end:url(#Dot-0)"
         d="m 177.16665,47.86295 -6.10919,-9.31849"
         id="path7804" />
      <circle
         style="fill:#a5324b;stroke:#000000;stroke-width:0.257;stroke-linecap:round;stroke-linejoin:round;stroke-dasharray:none;stroke-opacity:1"
         id="path1540-3-5"
         cx="177.02879"
         cy="32.403786"
         r="4.6880965" />
      <path
         style="fill:#efa8c6;fill-opacity:1;stroke:#000000;stroke-width:0.349687;stroke-linecap:round;stroke-linejoin:round;stroke-dasharray:none;stroke-opacity:1;marker-start:url(#Dot-6-3-2-2);marker-end:url(#Dot-6-3-2-2)"
         d="m 177.02879,32.40379 0.13786,15.45916"
         id="path7804-5-6-1-0"
         sodipodi:nodetypes="cc" />
      <circle
         style="fill:#a5324b;stroke:#000000;stroke-width:0.257;stroke-linecap:round;stroke-linejoin:round;stroke-dasharray:none;stroke-opacity:1"
         id="path1540-3-0-6"
         cx="184.54179"
         cy="45.804424"
         r="4.6880965" />
      <path
         style="fill:#efa8c6;fill-opacity:1;stroke:#000000;stroke-width:0.349687;stroke-linecap:round;stroke-linejoin:round;stroke-dasharray:none;stroke-opacity:1;marker-start:url(#Dot-6-3-2-2-9);marker-end:url(#Dot-6-3-2-2-9)"
         d="m 184.54179,45.80442 -7.37514,2.05853"
         id="path7804-5-6-1-0-6"
         sodipodi:nodetypes="cc" />
      <g
         inkscape:label=""
         transform="matrix(1.5935931,0,0,1.5935931,122.84686,42.980282)"
         id="g12017">
        <g
           id="g12015"
           transform="matrix(0.529167,0,0,0.529167,-48.8586,-39.7671)">
          <g
             style="fill:#000000;fill-opacity:1"
             id="g20">
            <g
               id="g12006"
               transform="translate(91.925003,81.962997)">
              <path
                 style="stroke:none"
                 d="m 1.578125,-0.78125 c -0.09375,0.390625 -0.109375,0.46875 -0.90625,0.46875 -0.15625,0 -0.265625,0 -0.265625,0.1875 C 0.40625,0 0.484375,0 0.671875,0 h 3.3125 c 2.0625,0 4.03125,-2.109375 4.03125,-4.28125 0,-1.40625 -0.84375,-2.53125 -2.34375,-2.53125 h -3.34375 c -0.1875,0 -0.296875,0 -0.296875,0.1875 0,0.125 0.078125,0.125 0.28125,0.125 0.125,0 0.3125,0.015625 0.421875,0.015625 0.171875,0.03125 0.21875,0.046875 0.21875,0.171875 0,0.03125 0,0.0625 -0.03125,0.1875 z M 3.734375,-6.125 C 3.828125,-6.46875 3.84375,-6.5 4.28125,-6.5 h 1.0625 c 0.96875,0 1.796875,0.53125 1.796875,1.84375 0,0.484375 -0.1875,2.125 -1.046875,3.21875 -0.28125,0.375 -1.0625,1.125 -2.296875,1.125 h -1.125 c -0.140625,0 -0.15625,0 -0.21875,0 -0.09375,-0.015625 -0.125,-0.03125 -0.125,-0.109375 0,-0.03125 0,-0.046875 0.046875,-0.21875 z m 0,0"
                 id="path12004" />
            </g>
          </g>
          <g
             style="fill:#000000;fill-opacity:1"
             id="g12013">
            <g
               id="g12011"
               transform="translate(100.173,83.457001)">
              <path
                 style="stroke:none"
                 d="m 0.515625,0.84375 c -0.046875,0.203125 -0.0625,0.25 -0.328125,0.25 -0.09375,0 -0.1875,0 -0.1875,0.15625 0,0.078125 0.0625,0.109375 0.09375,0.109375 0.171875,0 0.40625,-0.03125 0.59375,-0.03125 0.234375,0 0.5,0.03125 0.734375,0.03125 0.0625,0 0.140625,-0.03125 0.140625,-0.15625 0,-0.109375 -0.09375,-0.109375 -0.1875,-0.109375 -0.15625,0 -0.34375,0 -0.34375,-0.078125 0,-0.03125 0.0625,-0.21875 0.078125,-0.3125 0.09375,-0.375 0.1875,-0.75 0.265625,-1.046875 0.078125,0.140625 0.296875,0.40625 0.71875,0.40625 0.84375,0 1.78125,-0.9375 1.78125,-1.96875 0,-0.8125 -0.5625,-1.171875 -1.03125,-1.171875 -0.4375,0 -0.8125,0.296875 -1,0.5 -0.109375,-0.40625 -0.5,-0.5 -0.71875,-0.5 -0.265625,0 -0.4375,0.1875 -0.546875,0.375 -0.140625,0.234375 -0.25,0.65625 -0.25,0.703125 0,0.078125 0.09375,0.078125 0.125,0.078125 0.09375,0 0.09375,-0.015625 0.140625,-0.203125 0.109375,-0.40625 0.25,-0.75 0.515625,-0.75 0.1875,0 0.234375,0.15625 0.234375,0.34375 0,0.078125 -0.015625,0.15625 -0.03125,0.203125 z M 1.84375,-2.234375 C 2.25,-2.78125 2.59375,-2.875 2.8125,-2.875 c 0.28125,0 0.515625,0.203125 0.515625,0.671875 0,0.28125 -0.15625,1 -0.359375,1.40625 -0.1875,0.34375 -0.515625,0.671875 -0.875,0.671875 -0.5,0 -0.625,-0.53125 -0.625,-0.609375 0,-0.03125 0.015625,-0.078125 0.015625,-0.109375 z m 0,0"
                 id="path12009" />
            </g>
          </g>
        </g>
      </g>
    </g>
    <text
       xml:space="preserve"
       style="font-size:5.7264px;opacity:1;fill:#000000;fill-opacity:1;stroke:none;stroke-width:0.283164;stroke-linecap:round;stroke-linejoin:round;stroke-dasharray:none;stroke-dashoffset:0;stroke-opacity:1"
       x="1.462644"
       y="8.215704"
       id="text13017"><tspan
         sodipodi:role="line"
         id="tspan13015"
         style="font-style:normal;font-variant:normal;font-weight:normal;font-stretch:normal;font-family:'CMU Sans Serif';-inkscape-font-specification:'CMU Sans Serif';fill:#000000;fill-opacity:1;stroke:none;stroke-width:0.283164"
         x="1.462644"
         y="8.215704">(a)</tspan></text>
    <text
       xml:space="preserve"
       style="font-size:5.7264px;fill:#000000;fill-opacity:1;stroke:none;stroke-width:0.283164;stroke-linecap:round;stroke-linejoin:round;stroke-dasharray:none;stroke-dashoffset:0;stroke-opacity:1"
       x="137.25363"
       y="19.040991"
       id="text13017-7"><tspan
         sodipodi:role="line"
         id="tspan13015-3"
         style="font-style:normal;font-variant:normal;font-weight:normal;font-stretch:normal;font-family:'CMU Sans Serif';-inkscape-font-specification:'CMU Sans Serif';fill:#000000;fill-opacity:1;stroke:none;stroke-width:0.283164"
         x="137.25363"
         y="19.040991">(b)</tspan></text>
  </g>
</svg>
